G04 #@! TF.GenerationSoftware,KiCad,Pcbnew,9.0.0*
G04 #@! TF.CreationDate,2025-02-24T19:41:20+01:00*
G04 #@! TF.ProjectId,SourceFIle,536f7572-6365-4464-996c-652e6b696361,02*
G04 #@! TF.SameCoordinates,Original*
G04 #@! TF.FileFunction,Copper,L3,Inr*
G04 #@! TF.FilePolarity,Positive*
%FSLAX46Y46*%
G04 Gerber Fmt 4.6, Leading zero omitted, Abs format (unit mm)*
G04 Created by KiCad (PCBNEW 9.0.0) date 2025-02-24 19:41:20*
%MOMM*%
%LPD*%
G01*
G04 APERTURE LIST*
G04 #@! TA.AperFunction,ComponentPad*
%ADD10R,1.700000X1.700000*%
G04 #@! TD*
G04 #@! TA.AperFunction,ComponentPad*
%ADD11O,1.700000X1.700000*%
G04 #@! TD*
G04 #@! TA.AperFunction,ViaPad*
%ADD12C,0.600000*%
G04 #@! TD*
G04 APERTURE END LIST*
D10*
X161830000Y-71660000D03*
D11*
X164370000Y-71660000D03*
X166910000Y-71660000D03*
X169450000Y-71660000D03*
X171990000Y-71660000D03*
X174530000Y-71660000D03*
D12*
X130920000Y-76550000D03*
X146230000Y-84280000D03*
X151580000Y-83470000D03*
X171400000Y-98640000D03*
X148450000Y-89640000D03*
X144810000Y-86037000D03*
X135010000Y-71300000D03*
X150840000Y-86080000D03*
X167100000Y-78840000D03*
X141760000Y-90850000D03*
X135065797Y-86945000D03*
X147050000Y-89640000D03*
X150820000Y-84270000D03*
X136190000Y-81450000D03*
X168180000Y-80570000D03*
X149250000Y-84250000D03*
X134760000Y-75900000D03*
X132370000Y-71290000D03*
X134610000Y-89690000D03*
X151630000Y-86950000D03*
X145550000Y-83460000D03*
X150840000Y-87710000D03*
X144810000Y-87700000D03*
X147670000Y-84250000D03*
X133650000Y-75900000D03*
X131640000Y-76130000D03*
X128140000Y-93890000D03*
X135960000Y-72180000D03*
X167640000Y-79730000D03*
X146820000Y-83420000D03*
X130330000Y-86630000D03*
X128550000Y-94520000D03*
X148540000Y-83440000D03*
X144830000Y-89660000D03*
X151640000Y-88760000D03*
X137370000Y-71310000D03*
X168170000Y-78850000D03*
X150790000Y-89650000D03*
X166510000Y-100370000D03*
X159450000Y-79300000D03*
X150160000Y-83470000D03*
X164040000Y-98440000D03*
X130930000Y-77430000D03*
X130940000Y-75700000D03*
X138300000Y-88570000D03*
X174790000Y-84430000D03*
X133650000Y-72150000D03*
X173890000Y-100470000D03*
X132590000Y-75890000D03*
X161370000Y-82580000D03*
X151610000Y-85230000D03*
X144820000Y-84290000D03*
X167640000Y-81500000D03*
X127790000Y-94530000D03*
X131600000Y-77010000D03*
X167100000Y-80520000D03*
X137770000Y-87160000D03*
X137430000Y-91490000D03*
X136990000Y-90850000D03*
X138390000Y-91500000D03*
X138830000Y-90860000D03*
X135700000Y-90120000D03*
X137880000Y-90860000D03*
X163510000Y-85860000D03*
X172300000Y-78880000D03*
X170500000Y-100000000D03*
X175040000Y-81270000D03*
X176100000Y-85880000D03*
X132140000Y-91990000D03*
X174940000Y-85890000D03*
X172970000Y-80060000D03*
X172970000Y-82330000D03*
X136610000Y-80650000D03*
X173600000Y-78880000D03*
X132140000Y-91190000D03*
X132040000Y-80030000D03*
X161110000Y-85840000D03*
X174990000Y-78870000D03*
X132140000Y-90390000D03*
X162340000Y-85850000D03*
X132150000Y-92800000D03*
X174990000Y-87800000D03*
X174310000Y-82300000D03*
X176090000Y-87820000D03*
X167000000Y-76310000D03*
X172310000Y-81320000D03*
X174290000Y-80100000D03*
X137370000Y-80080000D03*
X133580000Y-80650000D03*
X161120000Y-84540000D03*
X175570000Y-86860000D03*
X164630000Y-85880000D03*
X132940000Y-80060000D03*
X163810000Y-75870000D03*
X132490000Y-80640000D03*
X173590000Y-81320000D03*
X162170000Y-95520000D03*
X138270000Y-81060000D03*
X137420000Y-75910000D03*
X136130000Y-75870000D03*
X138220000Y-75560000D03*
X162060000Y-92600000D03*
X154780000Y-92590000D03*
X154780000Y-93980000D03*
X162080000Y-93980000D03*
X138980000Y-87940000D03*
X143030000Y-92820000D03*
X163000000Y-94660000D03*
X154070000Y-94660000D03*
X143980000Y-93390000D03*
X138990000Y-86820000D03*
X142000000Y-84360000D03*
X165270000Y-89230000D03*
X161290000Y-88260000D03*
X172280000Y-84620000D03*
X152310000Y-91020000D03*
X142610000Y-83610000D03*
X154080000Y-93260000D03*
X164040000Y-93930000D03*
X142600000Y-85050000D03*
X160540000Y-87430000D03*
X155010000Y-89660000D03*
X133500000Y-89590000D03*
X132850000Y-88950000D03*
G04 #@! TA.AperFunction,Conductor*
G36*
X177814749Y-69618721D02*
G01*
X178069381Y-69634127D01*
X178099213Y-69637750D01*
X178342734Y-69682379D01*
X178371897Y-69689567D01*
X178608272Y-69763227D01*
X178636363Y-69773881D01*
X178862137Y-69875495D01*
X178888737Y-69889456D01*
X179100603Y-70017535D01*
X179125337Y-70034607D01*
X179320220Y-70187289D01*
X179342717Y-70207219D01*
X179517780Y-70382282D01*
X179537711Y-70404780D01*
X179690389Y-70599659D01*
X179707464Y-70624396D01*
X179835540Y-70836257D01*
X179849507Y-70862868D01*
X179937308Y-71057951D01*
X179959131Y-71152621D01*
X179943064Y-71248439D01*
X179891553Y-71330814D01*
X179812439Y-71387206D01*
X179717767Y-71409029D01*
X179621949Y-71392962D01*
X179563885Y-71361587D01*
X179486660Y-71305479D01*
X179486657Y-71305477D01*
X179486655Y-71305476D01*
X179311275Y-71216116D01*
X179311274Y-71216115D01*
X179311273Y-71216115D01*
X179311267Y-71216113D01*
X179166258Y-71168997D01*
X179124076Y-71155291D01*
X179124074Y-71155290D01*
X179124072Y-71155290D01*
X178929678Y-71124501D01*
X178929669Y-71124500D01*
X178929667Y-71124500D01*
X178732833Y-71124500D01*
X178732830Y-71124500D01*
X178732821Y-71124501D01*
X178538427Y-71155290D01*
X178351232Y-71216113D01*
X178351226Y-71216115D01*
X178298381Y-71243041D01*
X178175845Y-71305476D01*
X178175842Y-71305477D01*
X178175840Y-71305479D01*
X178175839Y-71305479D01*
X178016607Y-71421169D01*
X177877419Y-71560357D01*
X177761729Y-71719589D01*
X177761729Y-71719590D01*
X177761727Y-71719592D01*
X177761726Y-71719595D01*
X177737931Y-71766296D01*
X177672365Y-71894976D01*
X177672363Y-71894982D01*
X177611540Y-72082177D01*
X177580751Y-72276571D01*
X177580750Y-72276587D01*
X177580750Y-72473412D01*
X177580751Y-72473428D01*
X177610347Y-72660289D01*
X177611541Y-72667826D01*
X177618840Y-72690289D01*
X177659377Y-72815051D01*
X177672366Y-72855025D01*
X177761726Y-73030405D01*
X177761729Y-73030409D01*
X177761729Y-73030410D01*
X177869616Y-73178902D01*
X177877422Y-73189646D01*
X178016604Y-73328828D01*
X178175845Y-73444524D01*
X178351225Y-73533884D01*
X178538424Y-73594709D01*
X178732833Y-73625500D01*
X178732837Y-73625500D01*
X178929663Y-73625500D01*
X178929667Y-73625500D01*
X179124076Y-73594709D01*
X179311275Y-73533884D01*
X179486655Y-73444524D01*
X179645896Y-73328828D01*
X179681378Y-73293345D01*
X179762153Y-73239373D01*
X179857441Y-73220418D01*
X179952729Y-73239371D01*
X180033512Y-73293346D01*
X180087489Y-73374127D01*
X180106444Y-73469415D01*
X180106444Y-73469464D01*
X180102217Y-96276400D01*
X180083245Y-96371685D01*
X180029254Y-96452456D01*
X179948463Y-96506418D01*
X179853171Y-96525354D01*
X179757886Y-96506382D01*
X179677150Y-96452426D01*
X179645896Y-96421172D01*
X179645892Y-96421169D01*
X179486660Y-96305479D01*
X179486657Y-96305477D01*
X179486655Y-96305476D01*
X179311275Y-96216116D01*
X179311274Y-96216115D01*
X179311273Y-96216115D01*
X179311267Y-96216113D01*
X179204178Y-96181318D01*
X179124076Y-96155291D01*
X179124074Y-96155290D01*
X179124072Y-96155290D01*
X178929678Y-96124501D01*
X178929669Y-96124500D01*
X178929667Y-96124500D01*
X178732833Y-96124500D01*
X178732830Y-96124500D01*
X178732821Y-96124501D01*
X178538427Y-96155290D01*
X178351232Y-96216113D01*
X178351226Y-96216115D01*
X178259990Y-96262602D01*
X178175845Y-96305476D01*
X178175842Y-96305477D01*
X178175840Y-96305479D01*
X178175839Y-96305479D01*
X178016607Y-96421169D01*
X177877419Y-96560357D01*
X177761729Y-96719589D01*
X177761729Y-96719590D01*
X177672365Y-96894976D01*
X177672363Y-96894982D01*
X177611540Y-97082177D01*
X177580751Y-97276571D01*
X177580750Y-97276587D01*
X177580750Y-97473412D01*
X177580751Y-97473428D01*
X177611540Y-97667822D01*
X177667321Y-97839500D01*
X177672366Y-97855025D01*
X177761726Y-98030405D01*
X177761729Y-98030409D01*
X177761729Y-98030410D01*
X177858015Y-98162935D01*
X177877422Y-98189646D01*
X178016604Y-98328828D01*
X178016607Y-98328830D01*
X178150651Y-98426220D01*
X178175845Y-98444524D01*
X178351225Y-98533884D01*
X178538424Y-98594709D01*
X178732833Y-98625500D01*
X178732837Y-98625500D01*
X178929663Y-98625500D01*
X178929667Y-98625500D01*
X179124076Y-98594709D01*
X179311275Y-98533884D01*
X179486655Y-98444524D01*
X179645896Y-98328828D01*
X179676741Y-98297982D01*
X179676757Y-98297971D01*
X179676767Y-98297956D01*
X179676779Y-98297944D01*
X179718621Y-98269998D01*
X179757519Y-98244007D01*
X179757543Y-98244002D01*
X179757565Y-98243988D01*
X179804978Y-98234566D01*
X179852807Y-98225052D01*
X179852831Y-98225056D01*
X179852857Y-98225052D01*
X179900726Y-98234583D01*
X179948095Y-98244005D01*
X179948115Y-98244019D01*
X179948141Y-98244024D01*
X179989409Y-98271609D01*
X180028877Y-98297980D01*
X180028890Y-98297999D01*
X180028913Y-98298015D01*
X180056863Y-98339863D01*
X180082855Y-98378761D01*
X180082859Y-98378785D01*
X180082874Y-98378807D01*
X180092295Y-98426220D01*
X180101810Y-98474049D01*
X180101810Y-98474099D01*
X180101743Y-98831166D01*
X180101734Y-98831272D01*
X180101733Y-98884702D01*
X180101279Y-98899730D01*
X180085873Y-99154372D01*
X180082248Y-99184221D01*
X180037623Y-99427720D01*
X180030427Y-99456915D01*
X179956774Y-99693266D01*
X179946112Y-99721378D01*
X179883852Y-99859714D01*
X179844514Y-99947118D01*
X179830540Y-99973742D01*
X179702464Y-100185603D01*
X179685384Y-100210348D01*
X179532719Y-100405210D01*
X179512780Y-100427717D01*
X179337717Y-100602780D01*
X179315210Y-100622719D01*
X179120348Y-100775384D01*
X179095603Y-100792464D01*
X178883742Y-100920540D01*
X178857124Y-100934510D01*
X178631379Y-101036112D01*
X178603266Y-101046774D01*
X178366915Y-101120427D01*
X178337720Y-101127623D01*
X178094221Y-101172248D01*
X178064372Y-101175873D01*
X177809734Y-101191279D01*
X177794697Y-101191733D01*
X174830158Y-101191733D01*
X174734870Y-101172779D01*
X174654088Y-101118803D01*
X174600112Y-101038021D01*
X174581158Y-100942733D01*
X174600112Y-100847446D01*
X174608921Y-100826176D01*
X174659737Y-100703497D01*
X174690500Y-100548842D01*
X174690500Y-100391158D01*
X174659737Y-100236503D01*
X174599394Y-100090821D01*
X174511789Y-99959711D01*
X174400289Y-99848211D01*
X174400285Y-99848208D01*
X174269180Y-99760606D01*
X174269173Y-99760603D01*
X174123497Y-99700263D01*
X174123492Y-99700261D01*
X173968846Y-99669500D01*
X173968842Y-99669500D01*
X173811158Y-99669500D01*
X173811153Y-99669500D01*
X173656507Y-99700261D01*
X173656502Y-99700263D01*
X173510826Y-99760603D01*
X173510819Y-99760606D01*
X173379714Y-99848208D01*
X173268208Y-99959714D01*
X173180606Y-100090819D01*
X173180603Y-100090826D01*
X173120263Y-100236502D01*
X173120261Y-100236507D01*
X173089500Y-100391153D01*
X173089500Y-100548846D01*
X173120261Y-100703492D01*
X173120263Y-100703497D01*
X173179888Y-100847446D01*
X173198842Y-100942734D01*
X173179888Y-101038022D01*
X173125911Y-101118803D01*
X173045129Y-101172779D01*
X172949842Y-101191733D01*
X167389535Y-101191733D01*
X167294247Y-101172779D01*
X167213465Y-101118803D01*
X167159489Y-101038021D01*
X167140535Y-100942733D01*
X167159489Y-100847445D01*
X167182499Y-100804396D01*
X167219393Y-100749180D01*
X167219394Y-100749179D01*
X167279737Y-100603497D01*
X167310500Y-100448842D01*
X167310500Y-100291158D01*
X167294426Y-100210348D01*
X167279738Y-100136507D01*
X167279737Y-100136505D01*
X167279737Y-100136503D01*
X167219394Y-99990821D01*
X167131789Y-99859711D01*
X167020289Y-99748211D01*
X167020285Y-99748208D01*
X166889180Y-99660606D01*
X166889173Y-99660603D01*
X166743497Y-99600263D01*
X166743492Y-99600261D01*
X166588846Y-99569500D01*
X166588842Y-99569500D01*
X166431158Y-99569500D01*
X166431153Y-99569500D01*
X166276507Y-99600261D01*
X166276502Y-99600263D01*
X166130826Y-99660603D01*
X166130819Y-99660606D01*
X165999714Y-99748208D01*
X165888208Y-99859714D01*
X165800606Y-99990819D01*
X165800603Y-99990826D01*
X165740263Y-100136502D01*
X165740261Y-100136507D01*
X165709500Y-100291153D01*
X165709500Y-100448846D01*
X165740261Y-100603492D01*
X165740263Y-100603497D01*
X165800603Y-100749173D01*
X165800606Y-100749180D01*
X165837501Y-100804396D01*
X165874680Y-100894155D01*
X165874681Y-100991310D01*
X165837501Y-101081070D01*
X165768802Y-101149769D01*
X165679043Y-101186948D01*
X165630465Y-101191733D01*
X129765303Y-101191733D01*
X129750266Y-101191279D01*
X129495627Y-101175873D01*
X129465778Y-101172248D01*
X129222279Y-101127623D01*
X129193090Y-101120428D01*
X129044533Y-101074134D01*
X128956733Y-101046774D01*
X128928627Y-101036114D01*
X128702868Y-100934507D01*
X128676257Y-100920540D01*
X128464396Y-100792464D01*
X128439659Y-100775389D01*
X128244780Y-100622711D01*
X128222282Y-100602780D01*
X128047219Y-100427717D01*
X128027289Y-100405220D01*
X127874607Y-100210337D01*
X127857535Y-100185603D01*
X127800237Y-100090821D01*
X127729456Y-99973737D01*
X127715495Y-99947137D01*
X127613881Y-99721363D01*
X127603225Y-99693266D01*
X127595819Y-99669500D01*
X127529567Y-99456897D01*
X127522379Y-99427734D01*
X127477750Y-99184213D01*
X127474127Y-99154381D01*
X127458723Y-98899776D01*
X127458270Y-98884595D01*
X127458572Y-98411772D01*
X127477587Y-98316500D01*
X127531615Y-98235753D01*
X127612431Y-98181828D01*
X127707731Y-98162935D01*
X127803007Y-98181950D01*
X127883638Y-98235862D01*
X127976604Y-98328828D01*
X127976607Y-98328830D01*
X128110651Y-98426220D01*
X128135845Y-98444524D01*
X128311225Y-98533884D01*
X128498424Y-98594709D01*
X128692833Y-98625500D01*
X128692837Y-98625500D01*
X128889663Y-98625500D01*
X128889667Y-98625500D01*
X129084076Y-98594709D01*
X129271275Y-98533884D01*
X129446655Y-98444524D01*
X129561405Y-98361153D01*
X163239500Y-98361153D01*
X163239500Y-98518846D01*
X163270261Y-98673492D01*
X163270263Y-98673497D01*
X163330603Y-98819173D01*
X163330606Y-98819180D01*
X163418208Y-98950285D01*
X163418211Y-98950289D01*
X163529711Y-99061789D01*
X163529714Y-99061791D01*
X163660819Y-99149393D01*
X163660820Y-99149393D01*
X163660821Y-99149394D01*
X163806503Y-99209737D01*
X163806505Y-99209737D01*
X163806507Y-99209738D01*
X163957148Y-99239702D01*
X163961158Y-99240500D01*
X164118842Y-99240500D01*
X164273497Y-99209737D01*
X164419179Y-99149394D01*
X164550289Y-99061789D01*
X164661789Y-98950289D01*
X164749394Y-98819179D01*
X164809737Y-98673497D01*
X164832084Y-98561153D01*
X170599500Y-98561153D01*
X170599500Y-98718846D01*
X170630261Y-98873492D01*
X170630263Y-98873497D01*
X170690603Y-99019173D01*
X170690606Y-99019180D01*
X170719077Y-99061789D01*
X170778211Y-99150289D01*
X170889711Y-99261789D01*
X170889714Y-99261791D01*
X171020819Y-99349393D01*
X171020820Y-99349393D01*
X171020821Y-99349394D01*
X171166503Y-99409737D01*
X171166505Y-99409737D01*
X171166507Y-99409738D01*
X171256909Y-99427720D01*
X171321158Y-99440500D01*
X171478842Y-99440500D01*
X171633497Y-99409737D01*
X171779179Y-99349394D01*
X171910289Y-99261789D01*
X172021789Y-99150289D01*
X172109394Y-99019179D01*
X172169737Y-98873497D01*
X172200500Y-98718842D01*
X172200500Y-98561158D01*
X172169737Y-98406503D01*
X172109394Y-98260821D01*
X172098167Y-98244019D01*
X172021791Y-98129714D01*
X172021789Y-98129711D01*
X171910289Y-98018211D01*
X171910285Y-98018208D01*
X171779180Y-97930606D01*
X171779173Y-97930603D01*
X171633497Y-97870263D01*
X171633492Y-97870261D01*
X171478846Y-97839500D01*
X171478842Y-97839500D01*
X171321158Y-97839500D01*
X171321153Y-97839500D01*
X171166507Y-97870261D01*
X171166502Y-97870263D01*
X171020826Y-97930603D01*
X171020819Y-97930606D01*
X170889714Y-98018208D01*
X170778208Y-98129714D01*
X170690606Y-98260819D01*
X170690603Y-98260826D01*
X170630263Y-98406502D01*
X170630261Y-98406507D01*
X170599500Y-98561153D01*
X164832084Y-98561153D01*
X164840500Y-98518842D01*
X164840500Y-98361158D01*
X164827927Y-98297949D01*
X164809738Y-98206507D01*
X164809737Y-98206505D01*
X164809737Y-98206503D01*
X164749394Y-98060821D01*
X164729073Y-98030409D01*
X164661791Y-97929714D01*
X164661789Y-97929711D01*
X164550289Y-97818211D01*
X164550285Y-97818208D01*
X164419180Y-97730606D01*
X164419173Y-97730603D01*
X164273497Y-97670263D01*
X164273492Y-97670261D01*
X164118846Y-97639500D01*
X164118842Y-97639500D01*
X163961158Y-97639500D01*
X163961153Y-97639500D01*
X163806507Y-97670261D01*
X163806502Y-97670263D01*
X163660826Y-97730603D01*
X163660819Y-97730606D01*
X163529714Y-97818208D01*
X163418208Y-97929714D01*
X163330606Y-98060819D01*
X163330603Y-98060826D01*
X163270263Y-98206502D01*
X163270261Y-98206507D01*
X163239500Y-98361153D01*
X129561405Y-98361153D01*
X129605896Y-98328828D01*
X129745078Y-98189646D01*
X129860774Y-98030405D01*
X129950134Y-97855025D01*
X130010959Y-97667826D01*
X130041750Y-97473417D01*
X130041750Y-97276583D01*
X130010959Y-97082174D01*
X129950134Y-96894975D01*
X129860774Y-96719595D01*
X129745078Y-96560354D01*
X129605896Y-96421172D01*
X129605892Y-96421169D01*
X129446660Y-96305479D01*
X129446657Y-96305477D01*
X129446655Y-96305476D01*
X129271275Y-96216116D01*
X129271274Y-96216115D01*
X129271273Y-96216115D01*
X129271267Y-96216113D01*
X129164178Y-96181318D01*
X129084076Y-96155291D01*
X129084074Y-96155290D01*
X129084072Y-96155290D01*
X128892411Y-96124934D01*
X128801261Y-96091308D01*
X128789392Y-96080336D01*
X128746425Y-96109046D01*
X128690089Y-96124934D01*
X128498427Y-96155290D01*
X128311232Y-96216113D01*
X128311226Y-96216115D01*
X128219990Y-96262602D01*
X128135845Y-96305476D01*
X128135842Y-96305477D01*
X128135840Y-96305479D01*
X128135839Y-96305479D01*
X127976603Y-96421172D01*
X127884968Y-96512807D01*
X127804186Y-96566783D01*
X127708898Y-96585737D01*
X127613610Y-96566783D01*
X127532829Y-96512806D01*
X127478853Y-96432024D01*
X127459899Y-96336736D01*
X127459899Y-96336578D01*
X127460035Y-96124934D01*
X127460192Y-95878841D01*
X127479207Y-95783565D01*
X127533235Y-95702818D01*
X127614051Y-95648893D01*
X127709192Y-95630000D01*
X128651137Y-95630000D01*
X128746425Y-95648954D01*
X128787504Y-95676402D01*
X128873235Y-95636880D01*
X128931363Y-95630000D01*
X129669999Y-95630000D01*
X129670000Y-95630000D01*
X129670000Y-94581153D01*
X153269500Y-94581153D01*
X153269500Y-94738846D01*
X153300261Y-94893492D01*
X153300263Y-94893497D01*
X153360603Y-95039173D01*
X153360606Y-95039180D01*
X153360607Y-95039181D01*
X153448211Y-95170289D01*
X153559711Y-95281789D01*
X153559714Y-95281791D01*
X153690819Y-95369393D01*
X153690820Y-95369393D01*
X153690821Y-95369394D01*
X153836503Y-95429737D01*
X153836505Y-95429737D01*
X153836507Y-95429738D01*
X153987148Y-95459702D01*
X153991158Y-95460500D01*
X154148842Y-95460500D01*
X154303497Y-95429737D01*
X154449179Y-95369394D01*
X154580289Y-95281789D01*
X154691789Y-95170289D01*
X154779394Y-95039179D01*
X154838098Y-94897452D01*
X154892071Y-94816677D01*
X154972852Y-94762700D01*
X155001966Y-94753869D01*
X155001790Y-94753288D01*
X155013486Y-94749739D01*
X155013497Y-94749737D01*
X155159179Y-94689394D01*
X155290289Y-94601789D01*
X155401789Y-94490289D01*
X155489394Y-94359179D01*
X155549737Y-94213497D01*
X155580500Y-94058842D01*
X155580500Y-93901158D01*
X155556187Y-93778930D01*
X155549738Y-93746507D01*
X155549737Y-93746505D01*
X155549737Y-93746503D01*
X155489394Y-93600821D01*
X155481987Y-93589736D01*
X155401791Y-93469714D01*
X155401789Y-93469711D01*
X155393144Y-93461066D01*
X155339171Y-93380288D01*
X155320217Y-93285000D01*
X155339171Y-93189712D01*
X155393144Y-93108933D01*
X155401789Y-93100289D01*
X155489394Y-92969179D01*
X155549737Y-92823497D01*
X155580500Y-92668842D01*
X155580500Y-92511158D01*
X155576344Y-92490263D01*
X155549738Y-92356507D01*
X155549737Y-92356505D01*
X155549737Y-92356503D01*
X155489394Y-92210821D01*
X155486912Y-92207107D01*
X155401791Y-92079714D01*
X155401789Y-92079711D01*
X155290289Y-91968211D01*
X155290285Y-91968208D01*
X155159180Y-91880606D01*
X155159173Y-91880603D01*
X155013497Y-91820263D01*
X155013492Y-91820261D01*
X154918000Y-91801267D01*
X154858846Y-91789500D01*
X154858842Y-91789500D01*
X154701158Y-91789500D01*
X154701153Y-91789500D01*
X154546507Y-91820261D01*
X154546502Y-91820263D01*
X154400826Y-91880603D01*
X154400819Y-91880606D01*
X154269714Y-91968208D01*
X154158208Y-92079714D01*
X154070606Y-92210819D01*
X154070605Y-92210823D01*
X154015497Y-92343866D01*
X153961521Y-92424648D01*
X153880739Y-92478624D01*
X153857739Y-92486854D01*
X153846505Y-92490262D01*
X153700822Y-92550605D01*
X153700819Y-92550606D01*
X153569714Y-92638208D01*
X153458208Y-92749714D01*
X153370606Y-92880819D01*
X153370603Y-92880826D01*
X153310263Y-93026502D01*
X153310261Y-93026507D01*
X153279500Y-93181153D01*
X153279500Y-93338846D01*
X153310261Y-93493492D01*
X153310263Y-93493497D01*
X153370603Y-93639173D01*
X153370606Y-93639180D01*
X153457465Y-93769173D01*
X153458211Y-93770289D01*
X153466855Y-93778933D01*
X153520829Y-93859712D01*
X153539783Y-93955000D01*
X153520829Y-94050288D01*
X153466855Y-94131066D01*
X153448211Y-94149711D01*
X153448208Y-94149714D01*
X153360606Y-94280819D01*
X153360603Y-94280826D01*
X153300263Y-94426502D01*
X153300261Y-94426507D01*
X153269500Y-94581153D01*
X129670000Y-94581153D01*
X129670000Y-92741153D01*
X142229500Y-92741153D01*
X142229500Y-92898846D01*
X142260261Y-93053492D01*
X142260263Y-93053497D01*
X142320603Y-93199173D01*
X142320606Y-93199180D01*
X142395428Y-93311158D01*
X142408211Y-93330289D01*
X142519711Y-93441789D01*
X142519714Y-93441791D01*
X142650819Y-93529393D01*
X142650820Y-93529393D01*
X142650821Y-93529394D01*
X142796503Y-93589737D01*
X142796505Y-93589737D01*
X142796507Y-93589738D01*
X142854166Y-93601207D01*
X142951158Y-93620500D01*
X143042645Y-93620500D01*
X143137933Y-93639454D01*
X143218715Y-93693430D01*
X143262835Y-93759462D01*
X143264840Y-93758391D01*
X143270606Y-93769180D01*
X143358208Y-93900285D01*
X143358211Y-93900289D01*
X143469711Y-94011789D01*
X143469714Y-94011791D01*
X143600819Y-94099393D01*
X143600820Y-94099393D01*
X143600821Y-94099394D01*
X143746503Y-94159737D01*
X143746505Y-94159737D01*
X143746507Y-94159738D01*
X143897148Y-94189702D01*
X143901158Y-94190500D01*
X144058842Y-94190500D01*
X144213497Y-94159737D01*
X144359179Y-94099394D01*
X144490289Y-94011789D01*
X144601789Y-93900289D01*
X144689394Y-93769179D01*
X144749737Y-93623497D01*
X144780500Y-93468842D01*
X144780500Y-93311158D01*
X144749737Y-93156503D01*
X144689394Y-93010821D01*
X144661570Y-92969180D01*
X144601791Y-92879714D01*
X144601789Y-92879711D01*
X144490289Y-92768211D01*
X144490285Y-92768208D01*
X144359180Y-92680606D01*
X144359173Y-92680603D01*
X144213497Y-92620263D01*
X144213492Y-92620261D01*
X144058846Y-92589500D01*
X144058842Y-92589500D01*
X143967355Y-92589500D01*
X143872067Y-92570546D01*
X143791285Y-92516570D01*
X143747164Y-92450537D01*
X143745160Y-92451609D01*
X143739393Y-92440819D01*
X143651791Y-92309714D01*
X143651789Y-92309711D01*
X143540289Y-92198211D01*
X143540285Y-92198208D01*
X143409180Y-92110606D01*
X143409173Y-92110603D01*
X143263497Y-92050263D01*
X143263492Y-92050261D01*
X143108846Y-92019500D01*
X143108842Y-92019500D01*
X142951158Y-92019500D01*
X142951153Y-92019500D01*
X142796507Y-92050261D01*
X142796502Y-92050263D01*
X142650826Y-92110603D01*
X142650819Y-92110606D01*
X142519714Y-92198208D01*
X142408208Y-92309714D01*
X142320606Y-92440819D01*
X142320603Y-92440826D01*
X142260263Y-92586502D01*
X142260261Y-92586507D01*
X142229500Y-92741153D01*
X129670000Y-92741153D01*
X129670000Y-92720000D01*
X129669999Y-92719999D01*
X127708180Y-92694739D01*
X127613144Y-92674560D01*
X127533064Y-92619548D01*
X127480132Y-92538078D01*
X127462386Y-92445601D01*
X127462389Y-92440819D01*
X127464670Y-88871153D01*
X132049500Y-88871153D01*
X132049500Y-89028846D01*
X132080261Y-89183492D01*
X132080263Y-89183497D01*
X132140603Y-89329173D01*
X132140606Y-89329180D01*
X132228208Y-89460285D01*
X132228211Y-89460289D01*
X132339711Y-89571789D01*
X132470821Y-89659394D01*
X132606657Y-89715658D01*
X132687435Y-89769632D01*
X132741412Y-89850414D01*
X132790606Y-89969180D01*
X132876439Y-90097637D01*
X132878211Y-90100289D01*
X132989711Y-90211789D01*
X132989714Y-90211791D01*
X133120819Y-90299393D01*
X133120820Y-90299393D01*
X133120821Y-90299394D01*
X133266503Y-90359737D01*
X133266505Y-90359737D01*
X133266507Y-90359738D01*
X133417148Y-90389702D01*
X133421158Y-90390500D01*
X133578842Y-90390500D01*
X133733497Y-90359737D01*
X133879179Y-90299394D01*
X133879182Y-90299391D01*
X133880903Y-90298679D01*
X133976191Y-90279725D01*
X134071479Y-90298679D01*
X134114520Y-90321684D01*
X134230821Y-90399394D01*
X134376503Y-90459737D01*
X134376505Y-90459737D01*
X134376507Y-90459738D01*
X134482524Y-90480826D01*
X134531158Y-90490500D01*
X134688842Y-90490500D01*
X134786904Y-90470993D01*
X134884059Y-90470993D01*
X134973819Y-90508172D01*
X135042519Y-90576872D01*
X135075680Y-90626502D01*
X135078211Y-90630289D01*
X135189711Y-90741789D01*
X135189714Y-90741791D01*
X135320819Y-90829393D01*
X135320820Y-90829393D01*
X135320821Y-90829394D01*
X135466503Y-90889737D01*
X135466505Y-90889737D01*
X135466507Y-90889738D01*
X135606468Y-90917578D01*
X135621158Y-90920500D01*
X135778842Y-90920500D01*
X135876363Y-90901101D01*
X135928058Y-90890819D01*
X136025213Y-90890818D01*
X136114972Y-90927998D01*
X136183671Y-90996696D01*
X136214992Y-91072309D01*
X136216711Y-91071788D01*
X136220263Y-91083497D01*
X136280603Y-91229173D01*
X136280606Y-91229180D01*
X136368208Y-91360285D01*
X136368211Y-91360289D01*
X136479711Y-91471789D01*
X136479714Y-91471791D01*
X136544438Y-91515038D01*
X136613137Y-91583737D01*
X136650316Y-91673493D01*
X136660263Y-91723497D01*
X136720603Y-91869173D01*
X136720606Y-91869180D01*
X136727288Y-91879180D01*
X136808211Y-92000289D01*
X136919711Y-92111789D01*
X136919714Y-92111791D01*
X137050819Y-92199393D01*
X137050820Y-92199393D01*
X137050821Y-92199394D01*
X137196503Y-92259737D01*
X137196505Y-92259737D01*
X137196507Y-92259738D01*
X137347148Y-92289702D01*
X137351158Y-92290500D01*
X137508842Y-92290500D01*
X137663497Y-92259737D01*
X137781592Y-92210821D01*
X137803441Y-92201771D01*
X137898729Y-92182817D01*
X137994017Y-92201771D01*
X138005299Y-92207107D01*
X138014278Y-92210826D01*
X138156503Y-92269737D01*
X138156505Y-92269737D01*
X138156507Y-92269738D01*
X138260880Y-92290499D01*
X138311158Y-92300500D01*
X138468842Y-92300500D01*
X138623497Y-92269737D01*
X138769179Y-92209394D01*
X138900289Y-92121789D01*
X139011789Y-92010289D01*
X139099394Y-91879179D01*
X139159737Y-91733497D01*
X139169683Y-91683493D01*
X139206862Y-91593738D01*
X139275555Y-91525042D01*
X139340289Y-91481789D01*
X139451789Y-91370289D01*
X139539394Y-91239179D01*
X139599737Y-91093497D01*
X139630500Y-90938842D01*
X139630500Y-90781158D01*
X139628510Y-90771153D01*
X140959500Y-90771153D01*
X140959500Y-90928846D01*
X140990261Y-91083492D01*
X140990263Y-91083497D01*
X141050603Y-91229173D01*
X141050606Y-91229180D01*
X141138208Y-91360285D01*
X141138211Y-91360289D01*
X141249711Y-91471789D01*
X141249714Y-91471791D01*
X141380819Y-91559393D01*
X141380820Y-91559393D01*
X141380821Y-91559394D01*
X141526503Y-91619737D01*
X141526505Y-91619737D01*
X141526507Y-91619738D01*
X141637365Y-91641789D01*
X141681158Y-91650500D01*
X141838842Y-91650500D01*
X141993497Y-91619737D01*
X142139179Y-91559394D01*
X142270289Y-91471789D01*
X142381789Y-91360289D01*
X142469394Y-91229179D01*
X142529737Y-91083497D01*
X142560500Y-90928842D01*
X142560500Y-90771158D01*
X142532479Y-90630289D01*
X142529738Y-90616507D01*
X142529737Y-90616505D01*
X142529737Y-90616503D01*
X142469394Y-90470821D01*
X142461987Y-90459736D01*
X142381791Y-90339714D01*
X142381789Y-90339711D01*
X142270289Y-90228211D01*
X142253050Y-90216692D01*
X142139180Y-90140606D01*
X142139173Y-90140603D01*
X141993497Y-90080263D01*
X141993492Y-90080261D01*
X141838846Y-90049500D01*
X141838842Y-90049500D01*
X141681158Y-90049500D01*
X141681153Y-90049500D01*
X141526507Y-90080261D01*
X141526502Y-90080263D01*
X141380826Y-90140603D01*
X141380819Y-90140606D01*
X141249714Y-90228208D01*
X141138208Y-90339714D01*
X141050606Y-90470819D01*
X141050603Y-90470826D01*
X140990263Y-90616502D01*
X140990261Y-90616507D01*
X140959500Y-90771153D01*
X139628510Y-90771153D01*
X139599737Y-90626503D01*
X139539394Y-90480821D01*
X139532712Y-90470821D01*
X139451791Y-90349714D01*
X139451789Y-90349711D01*
X139340289Y-90238211D01*
X139340285Y-90238208D01*
X139209180Y-90150606D01*
X139209173Y-90150603D01*
X139063497Y-90090263D01*
X139063492Y-90090261D01*
X138908846Y-90059500D01*
X138908842Y-90059500D01*
X138751158Y-90059500D01*
X138751153Y-90059500D01*
X138596507Y-90090261D01*
X138596506Y-90090261D01*
X138450286Y-90150827D01*
X138354998Y-90169780D01*
X138259714Y-90150827D01*
X138113492Y-90090261D01*
X137958846Y-90059500D01*
X137958842Y-90059500D01*
X137801158Y-90059500D01*
X137801153Y-90059500D01*
X137646507Y-90090261D01*
X137646506Y-90090261D01*
X137542357Y-90133401D01*
X137447069Y-90152354D01*
X137351785Y-90133401D01*
X137223492Y-90080261D01*
X137068846Y-90049500D01*
X137068842Y-90049500D01*
X136911158Y-90049500D01*
X136860885Y-90059500D01*
X136761940Y-90079181D01*
X136664785Y-90079180D01*
X136575025Y-90042000D01*
X136506327Y-89973301D01*
X136475007Y-89897690D01*
X136473289Y-89898212D01*
X136469738Y-89886509D01*
X136469737Y-89886503D01*
X136409394Y-89740821D01*
X136408074Y-89738846D01*
X136321791Y-89609714D01*
X136321789Y-89609711D01*
X136210289Y-89498211D01*
X136210285Y-89498208D01*
X136079180Y-89410606D01*
X136079173Y-89410603D01*
X135933497Y-89350263D01*
X135933492Y-89350261D01*
X135778846Y-89319500D01*
X135778842Y-89319500D01*
X135621158Y-89319500D01*
X135523092Y-89339006D01*
X135425937Y-89339005D01*
X135336178Y-89301825D01*
X135267481Y-89233128D01*
X135231789Y-89179711D01*
X135120289Y-89068211D01*
X135108749Y-89060500D01*
X134989180Y-88980606D01*
X134989173Y-88980603D01*
X134843497Y-88920263D01*
X134843492Y-88920261D01*
X134688846Y-88889500D01*
X134688842Y-88889500D01*
X134531158Y-88889500D01*
X134531153Y-88889500D01*
X134376507Y-88920261D01*
X134229094Y-88981321D01*
X134217238Y-88983679D01*
X134206589Y-88989400D01*
X134169934Y-88993087D01*
X134133806Y-89000274D01*
X134121950Y-88997915D01*
X134109922Y-88999126D01*
X134087074Y-88990978D01*
X134038518Y-88981319D01*
X134016892Y-88971118D01*
X134005855Y-88965248D01*
X133879179Y-88880606D01*
X133733497Y-88820263D01*
X133733072Y-88820178D01*
X133721716Y-88814139D01*
X133693192Y-88790831D01*
X133662562Y-88770364D01*
X133655846Y-88760313D01*
X133646484Y-88752663D01*
X133629048Y-88720208D01*
X133608586Y-88689583D01*
X133559394Y-88570821D01*
X133471789Y-88439711D01*
X133360289Y-88328211D01*
X133360285Y-88328208D01*
X133229180Y-88240606D01*
X133229173Y-88240603D01*
X133083497Y-88180263D01*
X133083492Y-88180261D01*
X132928846Y-88149500D01*
X132928842Y-88149500D01*
X132771158Y-88149500D01*
X132771153Y-88149500D01*
X132616507Y-88180261D01*
X132616502Y-88180263D01*
X132470826Y-88240603D01*
X132470819Y-88240606D01*
X132339714Y-88328208D01*
X132228208Y-88439714D01*
X132140606Y-88570819D01*
X132140603Y-88570826D01*
X132080263Y-88716502D01*
X132080261Y-88716507D01*
X132049500Y-88871153D01*
X127464670Y-88871153D01*
X127465989Y-86808208D01*
X127466153Y-86551153D01*
X129529500Y-86551153D01*
X129529500Y-86708846D01*
X129560261Y-86863492D01*
X129560263Y-86863497D01*
X129620603Y-87009173D01*
X129620606Y-87009180D01*
X129708208Y-87140285D01*
X129708211Y-87140289D01*
X129819711Y-87251789D01*
X129819714Y-87251791D01*
X129950819Y-87339393D01*
X129950820Y-87339393D01*
X129950821Y-87339394D01*
X130096503Y-87399737D01*
X130096505Y-87399737D01*
X130096507Y-87399738D01*
X130247148Y-87429702D01*
X130251158Y-87430500D01*
X130408842Y-87430500D01*
X130563497Y-87399737D01*
X130709179Y-87339394D01*
X130840289Y-87251789D01*
X130951789Y-87140289D01*
X131039394Y-87009179D01*
X131098637Y-86866153D01*
X134265297Y-86866153D01*
X134265297Y-87023846D01*
X134296058Y-87178492D01*
X134296060Y-87178497D01*
X134356400Y-87324173D01*
X134356403Y-87324180D01*
X134431160Y-87436061D01*
X134444008Y-87455289D01*
X134555508Y-87566789D01*
X134555511Y-87566791D01*
X134686616Y-87654393D01*
X134686617Y-87654393D01*
X134686618Y-87654394D01*
X134832300Y-87714737D01*
X134832302Y-87714737D01*
X134832304Y-87714738D01*
X134982945Y-87744702D01*
X134986955Y-87745500D01*
X135144639Y-87745500D01*
X135299294Y-87714737D01*
X135444976Y-87654394D01*
X135576086Y-87566789D01*
X135687586Y-87455289D01*
X135775191Y-87324179D01*
X135835534Y-87178497D01*
X135854897Y-87081153D01*
X136969500Y-87081153D01*
X136969500Y-87238846D01*
X137000261Y-87393492D01*
X137000263Y-87393497D01*
X137060603Y-87539173D01*
X137060606Y-87539180D01*
X137148208Y-87670285D01*
X137148211Y-87670289D01*
X137259711Y-87781789D01*
X137259714Y-87781791D01*
X137390819Y-87869393D01*
X137390821Y-87869394D01*
X137438878Y-87889299D01*
X137444943Y-87891812D01*
X137525724Y-87945788D01*
X137579701Y-88026570D01*
X137598655Y-88121858D01*
X137579702Y-88217144D01*
X137530261Y-88336506D01*
X137530261Y-88336507D01*
X137499500Y-88491153D01*
X137499500Y-88648846D01*
X137530261Y-88803492D01*
X137530263Y-88803497D01*
X137590603Y-88949173D01*
X137590606Y-88949180D01*
X137678208Y-89080285D01*
X137678211Y-89080289D01*
X137789711Y-89191789D01*
X137789714Y-89191791D01*
X137920819Y-89279393D01*
X137920820Y-89279393D01*
X137920821Y-89279394D01*
X138066503Y-89339737D01*
X138066505Y-89339737D01*
X138066507Y-89339738D01*
X138119410Y-89350261D01*
X138221158Y-89370500D01*
X138378842Y-89370500D01*
X138533497Y-89339737D01*
X138679179Y-89279394D01*
X138810289Y-89191789D01*
X138921789Y-89080289D01*
X139009394Y-88949179D01*
X139048428Y-88854939D01*
X139102402Y-88774162D01*
X139183182Y-88720185D01*
X139206199Y-88711950D01*
X139213482Y-88709739D01*
X139213497Y-88709737D01*
X139359179Y-88649394D01*
X139490289Y-88561789D01*
X139601789Y-88450289D01*
X139689394Y-88319179D01*
X139749737Y-88173497D01*
X139780500Y-88018842D01*
X139780500Y-87861158D01*
X139770161Y-87809179D01*
X139749738Y-87706507D01*
X139749737Y-87706505D01*
X139749737Y-87706503D01*
X139689394Y-87560821D01*
X139666006Y-87525819D01*
X139628827Y-87436061D01*
X139628827Y-87338906D01*
X139666007Y-87249146D01*
X139699393Y-87199180D01*
X139699394Y-87199179D01*
X139759737Y-87053497D01*
X139790500Y-86898842D01*
X139790500Y-86741158D01*
X139774409Y-86660263D01*
X139759738Y-86586507D01*
X139759737Y-86586505D01*
X139759737Y-86586503D01*
X139699394Y-86440821D01*
X139695313Y-86434714D01*
X139611791Y-86309714D01*
X139611789Y-86309711D01*
X139500289Y-86198211D01*
X139500285Y-86198208D01*
X139369180Y-86110606D01*
X139369173Y-86110603D01*
X139223497Y-86050263D01*
X139223492Y-86050261D01*
X139068846Y-86019500D01*
X139068842Y-86019500D01*
X138911158Y-86019500D01*
X138911153Y-86019500D01*
X138756507Y-86050261D01*
X138756502Y-86050263D01*
X138610826Y-86110603D01*
X138610819Y-86110606D01*
X138479714Y-86198208D01*
X138368206Y-86309716D01*
X138360522Y-86321217D01*
X138291822Y-86389914D01*
X138202062Y-86427092D01*
X138104907Y-86427091D01*
X138058203Y-86412923D01*
X138003492Y-86390261D01*
X137848846Y-86359500D01*
X137848842Y-86359500D01*
X137691158Y-86359500D01*
X137691153Y-86359500D01*
X137536507Y-86390261D01*
X137536502Y-86390263D01*
X137390826Y-86450603D01*
X137390819Y-86450606D01*
X137259714Y-86538208D01*
X137148208Y-86649714D01*
X137060606Y-86780819D01*
X137060603Y-86780826D01*
X137000263Y-86926502D01*
X137000261Y-86926507D01*
X136969500Y-87081153D01*
X135854897Y-87081153D01*
X135866296Y-87023850D01*
X135866297Y-87023841D01*
X135866297Y-86866158D01*
X135866296Y-86866153D01*
X135835535Y-86711507D01*
X135835534Y-86711505D01*
X135835534Y-86711503D01*
X135775191Y-86565821D01*
X135765393Y-86551158D01*
X135687588Y-86434714D01*
X135687586Y-86434711D01*
X135576086Y-86323211D01*
X135573102Y-86321217D01*
X135444977Y-86235606D01*
X135444970Y-86235603D01*
X135299294Y-86175263D01*
X135299289Y-86175261D01*
X135144643Y-86144500D01*
X135144639Y-86144500D01*
X134986955Y-86144500D01*
X134986950Y-86144500D01*
X134832304Y-86175261D01*
X134832299Y-86175263D01*
X134686623Y-86235603D01*
X134686616Y-86235606D01*
X134555511Y-86323208D01*
X134444005Y-86434714D01*
X134356403Y-86565819D01*
X134356400Y-86565826D01*
X134296060Y-86711502D01*
X134296058Y-86711507D01*
X134265297Y-86866153D01*
X131098637Y-86866153D01*
X131099737Y-86863497D01*
X131130500Y-86708842D01*
X131130500Y-86551158D01*
X131110498Y-86450603D01*
X131099738Y-86396507D01*
X131099737Y-86396505D01*
X131099737Y-86396503D01*
X131039394Y-86250821D01*
X130988906Y-86175261D01*
X130951791Y-86119714D01*
X130951789Y-86119711D01*
X130840289Y-86008211D01*
X130840285Y-86008208D01*
X130709180Y-85920606D01*
X130709173Y-85920603D01*
X130563497Y-85860263D01*
X130563492Y-85860261D01*
X130408846Y-85829500D01*
X130408842Y-85829500D01*
X130251158Y-85829500D01*
X130251153Y-85829500D01*
X130096507Y-85860261D01*
X130096502Y-85860263D01*
X129950826Y-85920603D01*
X129950819Y-85920606D01*
X129819714Y-86008208D01*
X129708208Y-86119714D01*
X129620606Y-86250819D01*
X129620603Y-86250826D01*
X129560263Y-86396502D01*
X129560261Y-86396507D01*
X129529500Y-86551153D01*
X127466153Y-86551153D01*
X127466161Y-86538766D01*
X127467604Y-84281153D01*
X141199500Y-84281153D01*
X141199500Y-84438846D01*
X141230261Y-84593492D01*
X141230263Y-84593497D01*
X141290603Y-84739173D01*
X141290606Y-84739180D01*
X141366991Y-84853497D01*
X141378211Y-84870289D01*
X141489711Y-84981789D01*
X141489714Y-84981791D01*
X141620819Y-85069393D01*
X141620821Y-85069394D01*
X141668667Y-85089212D01*
X141679694Y-85093780D01*
X141760476Y-85147756D01*
X141814452Y-85228538D01*
X141828620Y-85275241D01*
X141830261Y-85283494D01*
X141890605Y-85429177D01*
X141890606Y-85429180D01*
X141978208Y-85560285D01*
X141978211Y-85560289D01*
X142089711Y-85671789D01*
X142089714Y-85671791D01*
X142220819Y-85759393D01*
X142220820Y-85759393D01*
X142220821Y-85759394D01*
X142366503Y-85819737D01*
X142366505Y-85819737D01*
X142366507Y-85819738D01*
X142517148Y-85849702D01*
X142521158Y-85850500D01*
X142678842Y-85850500D01*
X142833497Y-85819737D01*
X142875714Y-85802250D01*
X142970998Y-85783296D01*
X143066286Y-85802249D01*
X143147068Y-85856225D01*
X143201045Y-85937006D01*
X143220000Y-86032294D01*
X143220000Y-90620000D01*
X151269975Y-90620000D01*
X151365263Y-90638954D01*
X151446045Y-90692930D01*
X151500021Y-90773712D01*
X151518975Y-90869000D01*
X151514190Y-90917578D01*
X151509500Y-90941153D01*
X151509500Y-91098846D01*
X151540261Y-91253492D01*
X151540263Y-91253497D01*
X151600603Y-91399173D01*
X151600606Y-91399180D01*
X151684702Y-91525038D01*
X151688211Y-91530289D01*
X151799711Y-91641789D01*
X151799714Y-91641791D01*
X151930819Y-91729393D01*
X151930820Y-91729393D01*
X151930821Y-91729394D01*
X152076503Y-91789737D01*
X152076505Y-91789737D01*
X152076507Y-91789738D01*
X152227148Y-91819702D01*
X152231158Y-91820500D01*
X152388842Y-91820500D01*
X152543497Y-91789737D01*
X152689179Y-91729394D01*
X152793034Y-91660000D01*
X160919999Y-91660000D01*
X160929999Y-96429999D01*
X160930000Y-96430000D01*
X165010000Y-96440000D01*
X165010000Y-91670000D01*
X165009999Y-91669999D01*
X160920000Y-91659999D01*
X160919999Y-91660000D01*
X152793034Y-91660000D01*
X152820289Y-91641789D01*
X152931789Y-91530289D01*
X153019394Y-91399179D01*
X153079737Y-91253497D01*
X153110500Y-91098842D01*
X153110500Y-90941158D01*
X153100272Y-90889737D01*
X153079738Y-90786507D01*
X153079737Y-90786505D01*
X153079737Y-90786503D01*
X153019394Y-90640821D01*
X153009826Y-90626502D01*
X152931791Y-90509714D01*
X152931789Y-90509711D01*
X152820289Y-90398211D01*
X152808747Y-90390499D01*
X152679399Y-90304071D01*
X152610700Y-90235372D01*
X152573520Y-90145612D01*
X152568737Y-90097644D01*
X152567490Y-89581153D01*
X154209500Y-89581153D01*
X154209500Y-89738846D01*
X154240261Y-89893492D01*
X154240263Y-89893497D01*
X154300603Y-90039173D01*
X154300606Y-90039180D01*
X154341438Y-90100289D01*
X154388211Y-90170289D01*
X154499711Y-90281789D01*
X154499714Y-90281791D01*
X154630819Y-90369393D01*
X154630820Y-90369393D01*
X154630821Y-90369394D01*
X154776503Y-90429737D01*
X154776505Y-90429737D01*
X154776507Y-90429738D01*
X154927148Y-90459702D01*
X154931158Y-90460500D01*
X155088842Y-90460500D01*
X155243497Y-90429737D01*
X155389179Y-90369394D01*
X155520289Y-90281789D01*
X155631789Y-90170289D01*
X155719394Y-90039179D01*
X155779737Y-89893497D01*
X155810500Y-89738842D01*
X155810500Y-89581158D01*
X155787095Y-89463492D01*
X155779738Y-89426507D01*
X155779737Y-89426505D01*
X155779737Y-89426503D01*
X155719394Y-89280821D01*
X155632753Y-89151153D01*
X164469500Y-89151153D01*
X164469500Y-89308846D01*
X164500261Y-89463492D01*
X164500263Y-89463497D01*
X164560603Y-89609173D01*
X164560606Y-89609180D01*
X164647365Y-89739023D01*
X164648211Y-89740289D01*
X164759711Y-89851789D01*
X164759714Y-89851791D01*
X164890819Y-89939393D01*
X164890820Y-89939393D01*
X164890821Y-89939394D01*
X165036503Y-89999737D01*
X165036505Y-89999737D01*
X165036507Y-89999738D01*
X165187148Y-90029702D01*
X165191158Y-90030500D01*
X165348842Y-90030500D01*
X165503497Y-89999737D01*
X165649179Y-89939394D01*
X165780289Y-89851789D01*
X165891789Y-89740289D01*
X165979394Y-89609179D01*
X166039737Y-89463497D01*
X166070500Y-89308842D01*
X166070500Y-89151158D01*
X166046348Y-89029737D01*
X166039738Y-88996507D01*
X166039737Y-88996505D01*
X166039737Y-88996503D01*
X165979394Y-88850821D01*
X165918918Y-88760313D01*
X165891791Y-88719714D01*
X165891789Y-88719711D01*
X165780289Y-88608211D01*
X165780285Y-88608208D01*
X165649180Y-88520606D01*
X165649173Y-88520603D01*
X165503497Y-88460263D01*
X165503492Y-88460261D01*
X165348846Y-88429500D01*
X165348842Y-88429500D01*
X165191158Y-88429500D01*
X165191153Y-88429500D01*
X165036507Y-88460261D01*
X165036502Y-88460263D01*
X164890826Y-88520603D01*
X164890819Y-88520606D01*
X164759714Y-88608208D01*
X164648208Y-88719714D01*
X164560606Y-88850819D01*
X164560603Y-88850826D01*
X164500263Y-88996502D01*
X164500261Y-88996507D01*
X164469500Y-89151153D01*
X155632753Y-89151153D01*
X155631789Y-89149711D01*
X155520289Y-89038211D01*
X155520285Y-89038208D01*
X155389180Y-88950606D01*
X155389173Y-88950603D01*
X155243497Y-88890263D01*
X155243492Y-88890261D01*
X155088846Y-88859500D01*
X155088842Y-88859500D01*
X154931158Y-88859500D01*
X154931153Y-88859500D01*
X154776507Y-88890261D01*
X154776502Y-88890263D01*
X154630826Y-88950603D01*
X154630819Y-88950606D01*
X154499714Y-89038208D01*
X154388208Y-89149714D01*
X154300606Y-89280819D01*
X154300603Y-89280826D01*
X154240263Y-89426502D01*
X154240261Y-89426507D01*
X154209500Y-89581153D01*
X152567490Y-89581153D01*
X152562104Y-87351153D01*
X159739500Y-87351153D01*
X159739500Y-87508846D01*
X159770261Y-87663492D01*
X159770263Y-87663497D01*
X159830603Y-87809173D01*
X159830606Y-87809180D01*
X159911160Y-87929737D01*
X159918211Y-87940289D01*
X160029711Y-88051789D01*
X160029714Y-88051791D01*
X160160819Y-88139393D01*
X160160820Y-88139393D01*
X160160821Y-88139394D01*
X160306503Y-88199737D01*
X160306509Y-88199738D01*
X160318212Y-88203289D01*
X160317777Y-88204720D01*
X160394803Y-88236623D01*
X160463504Y-88305320D01*
X160500686Y-88395078D01*
X160500687Y-88395085D01*
X160520261Y-88493492D01*
X160520263Y-88493497D01*
X160580603Y-88639173D01*
X160580606Y-88639180D01*
X160661545Y-88760313D01*
X160668211Y-88770289D01*
X160779711Y-88881789D01*
X160779714Y-88881791D01*
X160910819Y-88969393D01*
X160910820Y-88969393D01*
X160910821Y-88969394D01*
X161056503Y-89029737D01*
X161056505Y-89029737D01*
X161056507Y-89029738D01*
X161099089Y-89038208D01*
X161211158Y-89060500D01*
X161368842Y-89060500D01*
X161523497Y-89029737D01*
X161669179Y-88969394D01*
X161800289Y-88881789D01*
X161911789Y-88770289D01*
X161999394Y-88639179D01*
X162059737Y-88493497D01*
X162090500Y-88338842D01*
X162090500Y-88181158D01*
X162064767Y-88051789D01*
X162059738Y-88026507D01*
X162059737Y-88026505D01*
X162059737Y-88026503D01*
X161999394Y-87880821D01*
X161986252Y-87861153D01*
X161911791Y-87749714D01*
X161911789Y-87749711D01*
X161800289Y-87638211D01*
X161693399Y-87566789D01*
X161669180Y-87550606D01*
X161669173Y-87550603D01*
X161523497Y-87490263D01*
X161511788Y-87486711D01*
X161512221Y-87485280D01*
X161435181Y-87453366D01*
X161366485Y-87384664D01*
X161329312Y-87294916D01*
X161309737Y-87196503D01*
X161249394Y-87050821D01*
X161221570Y-87009180D01*
X161161791Y-86919714D01*
X161161789Y-86919711D01*
X161050289Y-86808211D01*
X161050285Y-86808208D01*
X160919180Y-86720606D01*
X160919173Y-86720603D01*
X160773497Y-86660263D01*
X160773492Y-86660261D01*
X160618846Y-86629500D01*
X160618842Y-86629500D01*
X160461158Y-86629500D01*
X160461153Y-86629500D01*
X160306507Y-86660261D01*
X160306502Y-86660263D01*
X160160826Y-86720603D01*
X160160819Y-86720606D01*
X160029714Y-86808208D01*
X159918208Y-86919714D01*
X159830606Y-87050819D01*
X159830603Y-87050826D01*
X159770263Y-87196502D01*
X159770261Y-87196507D01*
X159739500Y-87351153D01*
X152562104Y-87351153D01*
X152555317Y-84541153D01*
X171479500Y-84541153D01*
X171479500Y-84698846D01*
X171510261Y-84853492D01*
X171510263Y-84853497D01*
X171570603Y-84999173D01*
X171570606Y-84999180D01*
X171617522Y-85069394D01*
X171658211Y-85130289D01*
X171769711Y-85241789D01*
X171769714Y-85241791D01*
X171900819Y-85329393D01*
X171900820Y-85329393D01*
X171900821Y-85329394D01*
X172046503Y-85389737D01*
X172046505Y-85389737D01*
X172046507Y-85389738D01*
X172197148Y-85419702D01*
X172201158Y-85420500D01*
X172358842Y-85420500D01*
X172513497Y-85389737D01*
X172659179Y-85329394D01*
X172790289Y-85241789D01*
X172901789Y-85130289D01*
X172989394Y-84999179D01*
X173049737Y-84853497D01*
X173080500Y-84698842D01*
X173080500Y-84541158D01*
X173049737Y-84386503D01*
X173035095Y-84351153D01*
X173989500Y-84351153D01*
X173989500Y-84508846D01*
X174020261Y-84663492D01*
X174020263Y-84663497D01*
X174080603Y-84809173D01*
X174080606Y-84809180D01*
X174121438Y-84870289D01*
X174168211Y-84940289D01*
X174279711Y-85051789D01*
X174279714Y-85051791D01*
X174410819Y-85139393D01*
X174410820Y-85139393D01*
X174410821Y-85139394D01*
X174556503Y-85199737D01*
X174556505Y-85199737D01*
X174556507Y-85199738D01*
X174701294Y-85228538D01*
X174711158Y-85230500D01*
X174868842Y-85230500D01*
X175023497Y-85199737D01*
X175169179Y-85139394D01*
X175300289Y-85051789D01*
X175411789Y-84940289D01*
X175499394Y-84809179D01*
X175559737Y-84663497D01*
X175590500Y-84508842D01*
X175590500Y-84351158D01*
X175574111Y-84268766D01*
X175559738Y-84196507D01*
X175559737Y-84196505D01*
X175559737Y-84196503D01*
X175499394Y-84050821D01*
X175452621Y-83980821D01*
X175411791Y-83919714D01*
X175411789Y-83919711D01*
X175300289Y-83808211D01*
X175300285Y-83808208D01*
X175169180Y-83720606D01*
X175169173Y-83720603D01*
X175023497Y-83660263D01*
X175023492Y-83660261D01*
X174868846Y-83629500D01*
X174868842Y-83629500D01*
X174711158Y-83629500D01*
X174711153Y-83629500D01*
X174556507Y-83660261D01*
X174556502Y-83660263D01*
X174410826Y-83720603D01*
X174410819Y-83720606D01*
X174279714Y-83808208D01*
X174168208Y-83919714D01*
X174080606Y-84050819D01*
X174080603Y-84050826D01*
X174020263Y-84196502D01*
X174020261Y-84196507D01*
X173989500Y-84351153D01*
X173035095Y-84351153D01*
X172989394Y-84240821D01*
X172959784Y-84196507D01*
X172901791Y-84109714D01*
X172901789Y-84109711D01*
X172790289Y-83998211D01*
X172764271Y-83980826D01*
X172659180Y-83910606D01*
X172659173Y-83910603D01*
X172513497Y-83850263D01*
X172513492Y-83850261D01*
X172358846Y-83819500D01*
X172358842Y-83819500D01*
X172201158Y-83819500D01*
X172201153Y-83819500D01*
X172046507Y-83850261D01*
X172046502Y-83850263D01*
X171900826Y-83910603D01*
X171900819Y-83910606D01*
X171769714Y-83998208D01*
X171658208Y-84109714D01*
X171570606Y-84240819D01*
X171570603Y-84240826D01*
X171510263Y-84386502D01*
X171510261Y-84386507D01*
X171479500Y-84541153D01*
X152555317Y-84541153D01*
X152550389Y-82501153D01*
X160569500Y-82501153D01*
X160569500Y-82658846D01*
X160600261Y-82813492D01*
X160600263Y-82813497D01*
X160660603Y-82959173D01*
X160660606Y-82959180D01*
X160746629Y-83087922D01*
X160748211Y-83090289D01*
X160859711Y-83201789D01*
X160859714Y-83201791D01*
X160990819Y-83289393D01*
X160990820Y-83289393D01*
X160990821Y-83289394D01*
X161136503Y-83349737D01*
X161136505Y-83349737D01*
X161136507Y-83349738D01*
X161271059Y-83376502D01*
X161291158Y-83380500D01*
X161448842Y-83380500D01*
X161603497Y-83349737D01*
X161749179Y-83289394D01*
X161880289Y-83201789D01*
X161991789Y-83090289D01*
X162079394Y-82959179D01*
X162139737Y-82813497D01*
X162170500Y-82658842D01*
X162170500Y-82501158D01*
X162139737Y-82346503D01*
X162079394Y-82200821D01*
X162051713Y-82159394D01*
X161991791Y-82069714D01*
X161991789Y-82069711D01*
X161880289Y-81958211D01*
X161880285Y-81958208D01*
X161749180Y-81870606D01*
X161749173Y-81870603D01*
X161603497Y-81810263D01*
X161603492Y-81810261D01*
X161448846Y-81779500D01*
X161448842Y-81779500D01*
X161291158Y-81779500D01*
X161291153Y-81779500D01*
X161136507Y-81810261D01*
X161136502Y-81810263D01*
X160990826Y-81870603D01*
X160990819Y-81870606D01*
X160859714Y-81958208D01*
X160748208Y-82069714D01*
X160660606Y-82200819D01*
X160660603Y-82200826D01*
X160600263Y-82346502D01*
X160600261Y-82346507D01*
X160569500Y-82501153D01*
X152550389Y-82501153D01*
X152550000Y-82340000D01*
X152549999Y-82339999D01*
X143220000Y-82319999D01*
X143220000Y-82623561D01*
X143201046Y-82718849D01*
X143147070Y-82799631D01*
X143066288Y-82853607D01*
X142971000Y-82872561D01*
X142875716Y-82853608D01*
X142843497Y-82840263D01*
X142843492Y-82840262D01*
X142843490Y-82840261D01*
X142688846Y-82809500D01*
X142688842Y-82809500D01*
X142531158Y-82809500D01*
X142531153Y-82809500D01*
X142376507Y-82840261D01*
X142376502Y-82840263D01*
X142230826Y-82900603D01*
X142230819Y-82900606D01*
X142099714Y-82988208D01*
X141988208Y-83099714D01*
X141900606Y-83230819D01*
X141900603Y-83230826D01*
X141840263Y-83376502D01*
X141840262Y-83376505D01*
X141826513Y-83445626D01*
X141789333Y-83535385D01*
X141720634Y-83604084D01*
X141677587Y-83627093D01*
X141620819Y-83650606D01*
X141489714Y-83738208D01*
X141378208Y-83849714D01*
X141290606Y-83980819D01*
X141290603Y-83980826D01*
X141230263Y-84126502D01*
X141230261Y-84126507D01*
X141199500Y-84281153D01*
X127467604Y-84281153D01*
X127467612Y-84268766D01*
X127469463Y-81371153D01*
X135389500Y-81371153D01*
X135389500Y-81528846D01*
X135420261Y-81683492D01*
X135420263Y-81683497D01*
X135480603Y-81829173D01*
X135480606Y-81829180D01*
X135568208Y-81960285D01*
X135568211Y-81960289D01*
X135679711Y-82071789D01*
X135679714Y-82071791D01*
X135810819Y-82159393D01*
X135810820Y-82159393D01*
X135810821Y-82159394D01*
X135956503Y-82219737D01*
X135956505Y-82219737D01*
X135956507Y-82219738D01*
X136107148Y-82249702D01*
X136111158Y-82250500D01*
X136268842Y-82250500D01*
X136423497Y-82219737D01*
X136569179Y-82159394D01*
X136700289Y-82071789D01*
X136811789Y-81960289D01*
X136899394Y-81829179D01*
X136959737Y-81683497D01*
X136990500Y-81528842D01*
X136990500Y-81371158D01*
X136959737Y-81216503D01*
X136899394Y-81070821D01*
X136839480Y-80981153D01*
X137469500Y-80981153D01*
X137469500Y-81138846D01*
X137500261Y-81293492D01*
X137500263Y-81293497D01*
X137560603Y-81439173D01*
X137560606Y-81439180D01*
X137648208Y-81570285D01*
X137648211Y-81570289D01*
X137759711Y-81681789D01*
X137759714Y-81681791D01*
X137890819Y-81769393D01*
X137890820Y-81769393D01*
X137890821Y-81769394D01*
X138036503Y-81829737D01*
X138036505Y-81829737D01*
X138036507Y-81829738D01*
X138187148Y-81859702D01*
X138191158Y-81860500D01*
X138348842Y-81860500D01*
X138503497Y-81829737D01*
X138649179Y-81769394D01*
X138780289Y-81681789D01*
X138891789Y-81570289D01*
X138979394Y-81439179D01*
X139039737Y-81293497D01*
X139070500Y-81138842D01*
X139070500Y-80981158D01*
X139062256Y-80939711D01*
X139039738Y-80826507D01*
X139039737Y-80826505D01*
X139039737Y-80826503D01*
X138979394Y-80680821D01*
X138958026Y-80648842D01*
X138891791Y-80549714D01*
X138891789Y-80549711D01*
X138780289Y-80438211D01*
X138780285Y-80438208D01*
X138649180Y-80350606D01*
X138649173Y-80350603D01*
X138503497Y-80290263D01*
X138503492Y-80290261D01*
X138348846Y-80259500D01*
X138348842Y-80259500D01*
X138191158Y-80259500D01*
X138191153Y-80259500D01*
X138036507Y-80290261D01*
X138036502Y-80290263D01*
X137890826Y-80350603D01*
X137890819Y-80350606D01*
X137759714Y-80438208D01*
X137648208Y-80549714D01*
X137560606Y-80680819D01*
X137560603Y-80680826D01*
X137500263Y-80826502D01*
X137500261Y-80826507D01*
X137469500Y-80981153D01*
X136839480Y-80981153D01*
X136811789Y-80939711D01*
X136700289Y-80828211D01*
X136697733Y-80826503D01*
X136569180Y-80740606D01*
X136569173Y-80740603D01*
X136423497Y-80680263D01*
X136423492Y-80680261D01*
X136268846Y-80649500D01*
X136268842Y-80649500D01*
X136111158Y-80649500D01*
X136111153Y-80649500D01*
X135956507Y-80680261D01*
X135956502Y-80680263D01*
X135810826Y-80740603D01*
X135810819Y-80740606D01*
X135679714Y-80828208D01*
X135568208Y-80939714D01*
X135480606Y-81070819D01*
X135480603Y-81070826D01*
X135420263Y-81216502D01*
X135420261Y-81216507D01*
X135389500Y-81371153D01*
X127469463Y-81371153D01*
X127469471Y-81358766D01*
X127470156Y-80286502D01*
X127474539Y-73427741D01*
X127493554Y-73332467D01*
X127547582Y-73251720D01*
X127628398Y-73197795D01*
X127723698Y-73178902D01*
X127818974Y-73197917D01*
X127899605Y-73251829D01*
X127976604Y-73328828D01*
X128135845Y-73444524D01*
X128311225Y-73533884D01*
X128498424Y-73594709D01*
X128692833Y-73625500D01*
X128692837Y-73625500D01*
X128889663Y-73625500D01*
X128889667Y-73625500D01*
X129084076Y-73594709D01*
X129271275Y-73533884D01*
X129446655Y-73444524D01*
X129605896Y-73328828D01*
X129745078Y-73189646D01*
X129860774Y-73030405D01*
X129950134Y-72855025D01*
X130010959Y-72667826D01*
X130041750Y-72473417D01*
X130041750Y-72276583D01*
X130010959Y-72082174D01*
X129950134Y-71894975D01*
X129860774Y-71719595D01*
X129838675Y-71689179D01*
X129745080Y-71560357D01*
X129745078Y-71560354D01*
X129605896Y-71421172D01*
X129502708Y-71346201D01*
X129446660Y-71305479D01*
X129446657Y-71305477D01*
X129446655Y-71305476D01*
X129271275Y-71216116D01*
X129271274Y-71216115D01*
X129271273Y-71216115D01*
X129271267Y-71216113D01*
X129256002Y-71211153D01*
X131569500Y-71211153D01*
X131569500Y-71368846D01*
X131600261Y-71523492D01*
X131600263Y-71523497D01*
X131660603Y-71669173D01*
X131660606Y-71669180D01*
X131728521Y-71770821D01*
X131748211Y-71800289D01*
X131859711Y-71911789D01*
X131859714Y-71911791D01*
X131990819Y-71999393D01*
X131990820Y-71999393D01*
X131990821Y-71999394D01*
X132136503Y-72059737D01*
X132136505Y-72059737D01*
X132136507Y-72059738D01*
X132267726Y-72085839D01*
X132291158Y-72090500D01*
X132448842Y-72090500D01*
X132563565Y-72067679D01*
X132660718Y-72067679D01*
X132750478Y-72104858D01*
X132819177Y-72173557D01*
X132856357Y-72263316D01*
X132856357Y-72263317D01*
X132880261Y-72383492D01*
X132880263Y-72383497D01*
X132940603Y-72529173D01*
X132940606Y-72529180D01*
X133028208Y-72660285D01*
X133028211Y-72660289D01*
X133139711Y-72771789D01*
X133139714Y-72771791D01*
X133270819Y-72859393D01*
X133270820Y-72859393D01*
X133270821Y-72859394D01*
X133416503Y-72919737D01*
X133416505Y-72919737D01*
X133416507Y-72919738D01*
X133567148Y-72949702D01*
X133571158Y-72950500D01*
X133728842Y-72950500D01*
X133883497Y-72919737D01*
X134029179Y-72859394D01*
X134160289Y-72771789D01*
X134271789Y-72660289D01*
X134359394Y-72529179D01*
X134419737Y-72383497D01*
X134445363Y-72254665D01*
X134482542Y-72164909D01*
X134551241Y-72096210D01*
X134641000Y-72059030D01*
X134737847Y-72058969D01*
X134762055Y-72063752D01*
X134776503Y-72069737D01*
X134931158Y-72100500D01*
X134948022Y-72100500D01*
X134971924Y-72105223D01*
X134994738Y-72114639D01*
X135018943Y-72119454D01*
X135039205Y-72132992D01*
X135061731Y-72142290D01*
X135079202Y-72159717D01*
X135099725Y-72173430D01*
X135113265Y-72193694D01*
X135130516Y-72210902D01*
X135139988Y-72233689D01*
X135153701Y-72254212D01*
X135167693Y-72300337D01*
X135167809Y-72300615D01*
X135167809Y-72300718D01*
X135167868Y-72300915D01*
X135190263Y-72413497D01*
X135190264Y-72413500D01*
X135250603Y-72559173D01*
X135250606Y-72559180D01*
X135338086Y-72690102D01*
X135338211Y-72690289D01*
X135449711Y-72801789D01*
X135449714Y-72801791D01*
X135580819Y-72889393D01*
X135580820Y-72889393D01*
X135580821Y-72889394D01*
X135726503Y-72949737D01*
X135726505Y-72949737D01*
X135726507Y-72949738D01*
X135864799Y-72977246D01*
X135881158Y-72980500D01*
X136038842Y-72980500D01*
X136193497Y-72949737D01*
X136339179Y-72889394D01*
X136470289Y-72801789D01*
X136581789Y-72690289D01*
X136669394Y-72559179D01*
X136729737Y-72413497D01*
X136760500Y-72258842D01*
X136760500Y-72258837D01*
X136762843Y-72247058D01*
X136800023Y-72157298D01*
X136868722Y-72088599D01*
X136958481Y-72051420D01*
X137055636Y-72051419D01*
X137102338Y-72065585D01*
X137136503Y-72079737D01*
X137291158Y-72110500D01*
X137448842Y-72110500D01*
X137603497Y-72079737D01*
X137749179Y-72019394D01*
X137880289Y-71931789D01*
X137991789Y-71820289D01*
X138079394Y-71689179D01*
X138139737Y-71543497D01*
X138170500Y-71388842D01*
X138170500Y-71231158D01*
X138152683Y-71141588D01*
X138139738Y-71076507D01*
X138139737Y-71076505D01*
X138139737Y-71076503D01*
X138079394Y-70930821D01*
X138072712Y-70920821D01*
X137991791Y-70799714D01*
X137991789Y-70799711D01*
X137880289Y-70688211D01*
X137880285Y-70688208D01*
X137749180Y-70600606D01*
X137749173Y-70600603D01*
X137603497Y-70540263D01*
X137603492Y-70540261D01*
X137448846Y-70509500D01*
X137448842Y-70509500D01*
X137291158Y-70509500D01*
X137291153Y-70509500D01*
X137136507Y-70540261D01*
X137136502Y-70540263D01*
X136990826Y-70600603D01*
X136990819Y-70600606D01*
X136859714Y-70688208D01*
X136748208Y-70799714D01*
X136660606Y-70930819D01*
X136660603Y-70930826D01*
X136600263Y-71076502D01*
X136600262Y-71076505D01*
X136567155Y-71242943D01*
X136529975Y-71332702D01*
X136461276Y-71401401D01*
X136371516Y-71438580D01*
X136274361Y-71438579D01*
X136266921Y-71436981D01*
X136246764Y-71432327D01*
X136193497Y-71410263D01*
X136038842Y-71379500D01*
X136017971Y-71379500D01*
X135990326Y-71373117D01*
X135971406Y-71364593D01*
X135951057Y-71360546D01*
X135927535Y-71344829D01*
X135901745Y-71333211D01*
X135887529Y-71318099D01*
X135870275Y-71306570D01*
X135854557Y-71283047D01*
X135835178Y-71262445D01*
X135827827Y-71243041D01*
X135816299Y-71225788D01*
X135802131Y-71179084D01*
X135779737Y-71066503D01*
X135719394Y-70920821D01*
X135712712Y-70910821D01*
X135631791Y-70789714D01*
X135631789Y-70789711D01*
X135520289Y-70678211D01*
X135520285Y-70678208D01*
X135389180Y-70590606D01*
X135389173Y-70590603D01*
X135243497Y-70530263D01*
X135243492Y-70530261D01*
X135088846Y-70499500D01*
X135088842Y-70499500D01*
X134931158Y-70499500D01*
X134931153Y-70499500D01*
X134776507Y-70530261D01*
X134776502Y-70530263D01*
X134630826Y-70590603D01*
X134630819Y-70590606D01*
X134499714Y-70678208D01*
X134388208Y-70789714D01*
X134300606Y-70920819D01*
X134300603Y-70920826D01*
X134240263Y-71066502D01*
X134240262Y-71066506D01*
X134214636Y-71195332D01*
X134177456Y-71285092D01*
X134108756Y-71353790D01*
X134018997Y-71390969D01*
X133921842Y-71390968D01*
X133895456Y-71382964D01*
X133895199Y-71383813D01*
X133883492Y-71380261D01*
X133728846Y-71349500D01*
X133728842Y-71349500D01*
X133571158Y-71349500D01*
X133510393Y-71361587D01*
X133456434Y-71372320D01*
X133359279Y-71372319D01*
X133269519Y-71335140D01*
X133200821Y-71266440D01*
X133163643Y-71176685D01*
X133139737Y-71056503D01*
X133079394Y-70910821D01*
X133065438Y-70889935D01*
X132991791Y-70779714D01*
X132991789Y-70779711D01*
X132880289Y-70668211D01*
X132880285Y-70668208D01*
X132749180Y-70580606D01*
X132749173Y-70580603D01*
X132603497Y-70520263D01*
X132603492Y-70520261D01*
X132448846Y-70489500D01*
X132448842Y-70489500D01*
X132291158Y-70489500D01*
X132291153Y-70489500D01*
X132136507Y-70520261D01*
X132136502Y-70520263D01*
X131990826Y-70580603D01*
X131990819Y-70580606D01*
X131859714Y-70668208D01*
X131748208Y-70779714D01*
X131660606Y-70910819D01*
X131660603Y-70910826D01*
X131600263Y-71056502D01*
X131600261Y-71056507D01*
X131569500Y-71211153D01*
X129256002Y-71211153D01*
X129126258Y-71168997D01*
X129084076Y-71155291D01*
X129084074Y-71155290D01*
X129084072Y-71155290D01*
X128889678Y-71124501D01*
X128889669Y-71124500D01*
X128889667Y-71124500D01*
X128692833Y-71124500D01*
X128692830Y-71124500D01*
X128692821Y-71124501D01*
X128498427Y-71155290D01*
X128311232Y-71216113D01*
X128311226Y-71216115D01*
X128135840Y-71305478D01*
X128003972Y-71401287D01*
X127987469Y-71408894D01*
X127973333Y-71420319D01*
X127943748Y-71429050D01*
X127915741Y-71441962D01*
X127897582Y-71442675D01*
X127880151Y-71447820D01*
X127849476Y-71444565D01*
X127818661Y-71445776D01*
X127801613Y-71439486D01*
X127783539Y-71437569D01*
X127756444Y-71422823D01*
X127727511Y-71412149D01*
X127714167Y-71399814D01*
X127698203Y-71391126D01*
X127678815Y-71367135D01*
X127656168Y-71346201D01*
X127648560Y-71329698D01*
X127637136Y-71315562D01*
X127628404Y-71285977D01*
X127615493Y-71257970D01*
X127614779Y-71239811D01*
X127609635Y-71222380D01*
X127612889Y-71191705D01*
X127611679Y-71160890D01*
X127619881Y-71125787D01*
X127620453Y-71123951D01*
X127631104Y-71095866D01*
X127732718Y-70870090D01*
X127746675Y-70843496D01*
X127874770Y-70631602D01*
X127891834Y-70606883D01*
X127904587Y-70590606D01*
X128044510Y-70412007D01*
X128064440Y-70389508D01*
X128239508Y-70214440D01*
X128262007Y-70194510D01*
X128362891Y-70115472D01*
X128456887Y-70041830D01*
X128481602Y-70024770D01*
X128693496Y-69896675D01*
X128720090Y-69882718D01*
X128945866Y-69781104D01*
X128973943Y-69770455D01*
X129210332Y-69696794D01*
X129239500Y-69689605D01*
X129483023Y-69644978D01*
X129512840Y-69641357D01*
X129744581Y-69627340D01*
X129767496Y-69625954D01*
X129782529Y-69625500D01*
X129843788Y-69625500D01*
X129843879Y-69625488D01*
X138495315Y-69624186D01*
X138590604Y-69643126D01*
X138671393Y-69697090D01*
X138725382Y-69777863D01*
X138744350Y-69873149D01*
X138744349Y-69873794D01*
X138739110Y-72019393D01*
X138735264Y-73594709D01*
X138732976Y-74531608D01*
X138723433Y-74578977D01*
X138714023Y-74626288D01*
X138713851Y-74626544D01*
X138713790Y-74626850D01*
X138686877Y-74666915D01*
X138660047Y-74707070D01*
X138659787Y-74707243D01*
X138659616Y-74707499D01*
X138619513Y-74734153D01*
X138579265Y-74761046D01*
X138578961Y-74761106D01*
X138578703Y-74761278D01*
X138483977Y-74780000D01*
X138426425Y-74780000D01*
X138377847Y-74775215D01*
X138298846Y-74759500D01*
X138298842Y-74759500D01*
X138141158Y-74759500D01*
X138141153Y-74759500D01*
X138062153Y-74775215D01*
X138013575Y-74780000D01*
X130060000Y-74780000D01*
X130070000Y-78530000D01*
X132540000Y-78550000D01*
X132540000Y-77158618D01*
X132558954Y-77063330D01*
X132612930Y-76982548D01*
X132693712Y-76928572D01*
X132788616Y-76909618D01*
X138485240Y-76900867D01*
X138580558Y-76919675D01*
X138661422Y-76973527D01*
X138715522Y-77054226D01*
X138734610Y-77147300D01*
X138750000Y-78640000D01*
X158495554Y-78611911D01*
X158590866Y-78630730D01*
X158671724Y-78684591D01*
X158725815Y-78765296D01*
X158744905Y-78860557D01*
X158726086Y-78955872D01*
X158725952Y-78956196D01*
X158680263Y-79066502D01*
X158680261Y-79066507D01*
X158649500Y-79221153D01*
X158649500Y-79378846D01*
X158680261Y-79533492D01*
X158680263Y-79533497D01*
X158740603Y-79679173D01*
X158740606Y-79679180D01*
X158827244Y-79808842D01*
X158828211Y-79810289D01*
X158939711Y-79921789D01*
X158939714Y-79921791D01*
X159070819Y-80009393D01*
X159070820Y-80009393D01*
X159070821Y-80009394D01*
X159216503Y-80069737D01*
X159216505Y-80069737D01*
X159216507Y-80069738D01*
X159367148Y-80099702D01*
X159371158Y-80100500D01*
X159528842Y-80100500D01*
X159683497Y-80069737D01*
X159829179Y-80009394D01*
X159960289Y-79921789D01*
X160071789Y-79810289D01*
X160159394Y-79679179D01*
X160219737Y-79533497D01*
X160250500Y-79378842D01*
X160250500Y-79221158D01*
X160249702Y-79217148D01*
X160219738Y-79066507D01*
X160219737Y-79066505D01*
X160219737Y-79066503D01*
X160159394Y-78920821D01*
X160071789Y-78789711D01*
X160043231Y-78761153D01*
X166299500Y-78761153D01*
X166299500Y-78918846D01*
X166330261Y-79073492D01*
X166330263Y-79073497D01*
X166390603Y-79219173D01*
X166390606Y-79219180D01*
X166397288Y-79229180D01*
X166478211Y-79350289D01*
X166589711Y-79461789D01*
X166604677Y-79471789D01*
X166606437Y-79472965D01*
X166675135Y-79541665D01*
X166712314Y-79631425D01*
X166712313Y-79728580D01*
X166675133Y-79818339D01*
X166606437Y-79887035D01*
X166589713Y-79898209D01*
X166478208Y-80009714D01*
X166390606Y-80140819D01*
X166390603Y-80140826D01*
X166330263Y-80286502D01*
X166330261Y-80286507D01*
X166299500Y-80441153D01*
X166299500Y-80598846D01*
X166330261Y-80753492D01*
X166330263Y-80753497D01*
X166390603Y-80899173D01*
X166390606Y-80899180D01*
X166478208Y-81030285D01*
X166478211Y-81030289D01*
X166589711Y-81141789D01*
X166589714Y-81141791D01*
X166728837Y-81234750D01*
X166797536Y-81303449D01*
X166834716Y-81393208D01*
X166839500Y-81441786D01*
X166839500Y-81578846D01*
X166870261Y-81733492D01*
X166870263Y-81733497D01*
X166930603Y-81879173D01*
X166930606Y-81879180D01*
X166984799Y-81960285D01*
X167018211Y-82010289D01*
X167129711Y-82121789D01*
X167129714Y-82121791D01*
X167260819Y-82209393D01*
X167260820Y-82209393D01*
X167260821Y-82209394D01*
X167406503Y-82269737D01*
X167406505Y-82269737D01*
X167406507Y-82269738D01*
X167557148Y-82299702D01*
X167561158Y-82300500D01*
X167718842Y-82300500D01*
X167873497Y-82269737D01*
X168019179Y-82209394D01*
X168150289Y-82121789D01*
X168261789Y-82010289D01*
X168349394Y-81879179D01*
X168409737Y-81733497D01*
X168440500Y-81578842D01*
X168440500Y-81491786D01*
X168459454Y-81396498D01*
X168513430Y-81315716D01*
X168551163Y-81284750D01*
X168634009Y-81229394D01*
X168690289Y-81191789D01*
X168801789Y-81080289D01*
X168889394Y-80949179D01*
X168889395Y-80949175D01*
X168889399Y-80949169D01*
X168939501Y-80828208D01*
X168949737Y-80803497D01*
X168980500Y-80648842D01*
X168980500Y-80491158D01*
X168949737Y-80336503D01*
X168889394Y-80190821D01*
X168855988Y-80140826D01*
X168801791Y-80059714D01*
X168801789Y-80059711D01*
X168690289Y-79948211D01*
X168638631Y-79913694D01*
X168569933Y-79844996D01*
X168532754Y-79755237D01*
X168532753Y-79658082D01*
X168569933Y-79568322D01*
X168638630Y-79499624D01*
X168680289Y-79471789D01*
X168791789Y-79360289D01*
X168879394Y-79229179D01*
X168939737Y-79083497D01*
X168970500Y-78928842D01*
X168970500Y-78771158D01*
X168939737Y-78616503D01*
X168879394Y-78470821D01*
X168872712Y-78460821D01*
X168791791Y-78339714D01*
X168791789Y-78339711D01*
X168680289Y-78228211D01*
X168680285Y-78228208D01*
X168549180Y-78140606D01*
X168549173Y-78140603D01*
X168403497Y-78080263D01*
X168403492Y-78080261D01*
X168248846Y-78049500D01*
X168248842Y-78049500D01*
X168091158Y-78049500D01*
X168091153Y-78049500D01*
X167936507Y-78080261D01*
X167936502Y-78080263D01*
X167790826Y-78140603D01*
X167790812Y-78140610D01*
X167780816Y-78147290D01*
X167691056Y-78184468D01*
X167593901Y-78184467D01*
X167504148Y-78147289D01*
X167479183Y-78130608D01*
X167479173Y-78130603D01*
X167333497Y-78070263D01*
X167333492Y-78070261D01*
X167178846Y-78039500D01*
X167178842Y-78039500D01*
X167021158Y-78039500D01*
X167021153Y-78039500D01*
X166866507Y-78070261D01*
X166866502Y-78070263D01*
X166720826Y-78130603D01*
X166720819Y-78130606D01*
X166589714Y-78218208D01*
X166478208Y-78329714D01*
X166390606Y-78460819D01*
X166390603Y-78460826D01*
X166330263Y-78606502D01*
X166330261Y-78606507D01*
X166299500Y-78761153D01*
X160043231Y-78761153D01*
X159960289Y-78678211D01*
X159924003Y-78653965D01*
X159903103Y-78630698D01*
X159893966Y-78615300D01*
X159881307Y-78602640D01*
X159869402Y-78573899D01*
X159853527Y-78547144D01*
X159850979Y-78529422D01*
X159844127Y-78512881D01*
X159839346Y-78465434D01*
X159808156Y-71553703D01*
X163019500Y-71553703D01*
X163019500Y-71766296D01*
X163052753Y-71976240D01*
X163116865Y-72173557D01*
X163118443Y-72178412D01*
X163214949Y-72367816D01*
X163339896Y-72539792D01*
X163490208Y-72690104D01*
X163662184Y-72815051D01*
X163851588Y-72911557D01*
X164053757Y-72977246D01*
X164127601Y-72988941D01*
X164263703Y-73010499D01*
X164263710Y-73010499D01*
X164263713Y-73010500D01*
X164263716Y-73010500D01*
X164476284Y-73010500D01*
X164476287Y-73010500D01*
X164476290Y-73010499D01*
X164476296Y-73010499D01*
X164575476Y-72994789D01*
X164686243Y-72977246D01*
X164888412Y-72911557D01*
X165077816Y-72815051D01*
X165249792Y-72690104D01*
X165400104Y-72539792D01*
X165438555Y-72486867D01*
X165509897Y-72420920D01*
X165601047Y-72387293D01*
X165698127Y-72391107D01*
X165786358Y-72431781D01*
X165841444Y-72486867D01*
X165879896Y-72539792D01*
X166030208Y-72690104D01*
X166202184Y-72815051D01*
X166391588Y-72911557D01*
X166593757Y-72977246D01*
X166667601Y-72988941D01*
X166803703Y-73010499D01*
X166803710Y-73010499D01*
X166803713Y-73010500D01*
X166803716Y-73010500D01*
X167016284Y-73010500D01*
X167016287Y-73010500D01*
X167016290Y-73010499D01*
X167016296Y-73010499D01*
X167115476Y-72994789D01*
X167226243Y-72977246D01*
X167428412Y-72911557D01*
X167617816Y-72815051D01*
X167789792Y-72690104D01*
X167940104Y-72539792D01*
X167978555Y-72486867D01*
X168049897Y-72420920D01*
X168141047Y-72387293D01*
X168238127Y-72391107D01*
X168326358Y-72431781D01*
X168381444Y-72486867D01*
X168419896Y-72539792D01*
X168570208Y-72690104D01*
X168742184Y-72815051D01*
X168931588Y-72911557D01*
X169133757Y-72977246D01*
X169207601Y-72988941D01*
X169343703Y-73010499D01*
X169343710Y-73010499D01*
X169343713Y-73010500D01*
X169343716Y-73010500D01*
X169556284Y-73010500D01*
X169556287Y-73010500D01*
X169556290Y-73010499D01*
X169556296Y-73010499D01*
X169655476Y-72994789D01*
X169766243Y-72977246D01*
X169968412Y-72911557D01*
X170157816Y-72815051D01*
X170329792Y-72690104D01*
X170480104Y-72539792D01*
X170518555Y-72486867D01*
X170589897Y-72420920D01*
X170681047Y-72387293D01*
X170778127Y-72391107D01*
X170866358Y-72431781D01*
X170921444Y-72486867D01*
X170959896Y-72539792D01*
X171110208Y-72690104D01*
X171282184Y-72815051D01*
X171471588Y-72911557D01*
X171673757Y-72977246D01*
X171747601Y-72988941D01*
X171883703Y-73010499D01*
X171883710Y-73010499D01*
X171883713Y-73010500D01*
X171883716Y-73010500D01*
X172096284Y-73010500D01*
X172096287Y-73010500D01*
X172096290Y-73010499D01*
X172096296Y-73010499D01*
X172195476Y-72994789D01*
X172306243Y-72977246D01*
X172508412Y-72911557D01*
X172697816Y-72815051D01*
X172869792Y-72690104D01*
X173020104Y-72539792D01*
X173058555Y-72486867D01*
X173129897Y-72420920D01*
X173221047Y-72387293D01*
X173318127Y-72391107D01*
X173406358Y-72431781D01*
X173461444Y-72486867D01*
X173499896Y-72539792D01*
X173650208Y-72690104D01*
X173822184Y-72815051D01*
X174011588Y-72911557D01*
X174213757Y-72977246D01*
X174287601Y-72988941D01*
X174423703Y-73010499D01*
X174423710Y-73010499D01*
X174423713Y-73010500D01*
X174423716Y-73010500D01*
X174636284Y-73010500D01*
X174636287Y-73010500D01*
X174636290Y-73010499D01*
X174636296Y-73010499D01*
X174735476Y-72994789D01*
X174846243Y-72977246D01*
X175048412Y-72911557D01*
X175237816Y-72815051D01*
X175409792Y-72690104D01*
X175560104Y-72539792D01*
X175685051Y-72367816D01*
X175781557Y-72178412D01*
X175847246Y-71976243D01*
X175871947Y-71820289D01*
X175880499Y-71766296D01*
X175880500Y-71766284D01*
X175880500Y-71553715D01*
X175880499Y-71553703D01*
X175856213Y-71400370D01*
X175847246Y-71343757D01*
X175781557Y-71141588D01*
X175685051Y-70952184D01*
X175560104Y-70780208D01*
X175409792Y-70629896D01*
X175237816Y-70504949D01*
X175048412Y-70408443D01*
X175048409Y-70408442D01*
X175048407Y-70408441D01*
X174846240Y-70342753D01*
X174636296Y-70309500D01*
X174636287Y-70309500D01*
X174423713Y-70309500D01*
X174423703Y-70309500D01*
X174213759Y-70342753D01*
X174011592Y-70408441D01*
X173822182Y-70504950D01*
X173650206Y-70629897D01*
X173499896Y-70780207D01*
X173461445Y-70833131D01*
X173390101Y-70899080D01*
X173298951Y-70932707D01*
X173201871Y-70928892D01*
X173113641Y-70888217D01*
X173058555Y-70833131D01*
X173020103Y-70780207D01*
X172869793Y-70629897D01*
X172862222Y-70624396D01*
X172697816Y-70504949D01*
X172508412Y-70408443D01*
X172508409Y-70408442D01*
X172508407Y-70408441D01*
X172306240Y-70342753D01*
X172096296Y-70309500D01*
X172096287Y-70309500D01*
X171883713Y-70309500D01*
X171883703Y-70309500D01*
X171673759Y-70342753D01*
X171471592Y-70408441D01*
X171282182Y-70504950D01*
X171110206Y-70629897D01*
X170959896Y-70780207D01*
X170921445Y-70833131D01*
X170850101Y-70899080D01*
X170758951Y-70932707D01*
X170661871Y-70928892D01*
X170573641Y-70888217D01*
X170518555Y-70833131D01*
X170480103Y-70780207D01*
X170329793Y-70629897D01*
X170322222Y-70624396D01*
X170157816Y-70504949D01*
X169968412Y-70408443D01*
X169968409Y-70408442D01*
X169968407Y-70408441D01*
X169766240Y-70342753D01*
X169556296Y-70309500D01*
X169556287Y-70309500D01*
X169343713Y-70309500D01*
X169343703Y-70309500D01*
X169133759Y-70342753D01*
X168931592Y-70408441D01*
X168742182Y-70504950D01*
X168570206Y-70629897D01*
X168419896Y-70780207D01*
X168381445Y-70833131D01*
X168310101Y-70899080D01*
X168218951Y-70932707D01*
X168121871Y-70928892D01*
X168033641Y-70888217D01*
X167978555Y-70833131D01*
X167940103Y-70780207D01*
X167789793Y-70629897D01*
X167782222Y-70624396D01*
X167617816Y-70504949D01*
X167428412Y-70408443D01*
X167428409Y-70408442D01*
X167428407Y-70408441D01*
X167226240Y-70342753D01*
X167016296Y-70309500D01*
X167016287Y-70309500D01*
X166803713Y-70309500D01*
X166803703Y-70309500D01*
X166593759Y-70342753D01*
X166391592Y-70408441D01*
X166202182Y-70504950D01*
X166030206Y-70629897D01*
X165879896Y-70780207D01*
X165841445Y-70833131D01*
X165770101Y-70899080D01*
X165678951Y-70932707D01*
X165581871Y-70928892D01*
X165493641Y-70888217D01*
X165438555Y-70833131D01*
X165400103Y-70780207D01*
X165249793Y-70629897D01*
X165242222Y-70624396D01*
X165077816Y-70504949D01*
X164888412Y-70408443D01*
X164888409Y-70408442D01*
X164888407Y-70408441D01*
X164686240Y-70342753D01*
X164476296Y-70309500D01*
X164476287Y-70309500D01*
X164263713Y-70309500D01*
X164263703Y-70309500D01*
X164053759Y-70342753D01*
X163851592Y-70408441D01*
X163662182Y-70504950D01*
X163490206Y-70629897D01*
X163339897Y-70780206D01*
X163214950Y-70952182D01*
X163118441Y-71141592D01*
X163052753Y-71343759D01*
X163019500Y-71553703D01*
X159808156Y-71553703D01*
X159800563Y-69871061D01*
X159819086Y-69775691D01*
X159872698Y-69694667D01*
X159953235Y-69640326D01*
X160048436Y-69620943D01*
X160049388Y-69620940D01*
X177799682Y-69618268D01*
X177814749Y-69618721D01*
G37*
G04 #@! TD.AperFunction*
M02*
