G04 #@! TF.GenerationSoftware,KiCad,Pcbnew,9.0.0*
G04 #@! TF.CreationDate,2025-02-24T19:41:20+01:00*
G04 #@! TF.ProjectId,SourceFIle,536f7572-6365-4464-996c-652e6b696361,02*
G04 #@! TF.SameCoordinates,Original*
G04 #@! TF.FileFunction,Legend,Top*
G04 #@! TF.FilePolarity,Positive*
%FSLAX46Y46*%
G04 Gerber Fmt 4.6, Leading zero omitted, Abs format (unit mm)*
G04 Created by KiCad (PCBNEW 9.0.0) date 2025-02-24 19:41:20*
%MOMM*%
%LPD*%
G01*
G04 APERTURE LIST*
%ADD10C,0.200000*%
%ADD11C,0.150000*%
%ADD12C,0.254000*%
%ADD13C,0.120000*%
%ADD14C,0.100000*%
%ADD15C,0.250000*%
%ADD16C,0.127000*%
G04 APERTURE END LIST*
D10*
G36*
X167302780Y-74147018D02*
G01*
X167272975Y-74206627D01*
X167248306Y-74231295D01*
X167188697Y-74261101D01*
X167093054Y-74261101D01*
X167033444Y-74231296D01*
X167008776Y-74206627D01*
X166978971Y-74147017D01*
X166978971Y-73889673D01*
X167302780Y-73889673D01*
X167302780Y-74147018D01*
G37*
G36*
X167613891Y-75572212D02*
G01*
X166191669Y-75572212D01*
X166191669Y-74694540D01*
X166302780Y-74694540D01*
X166310432Y-74732800D01*
X166332143Y-74765220D01*
X166347310Y-74777640D01*
X166722502Y-75027768D01*
X166347310Y-75277896D01*
X166332143Y-75290316D01*
X166310432Y-75322736D01*
X166302780Y-75360996D01*
X166310352Y-75399273D01*
X166331995Y-75431738D01*
X166364415Y-75453449D01*
X166402675Y-75461101D01*
X166440952Y-75453529D01*
X166458250Y-75444306D01*
X166902780Y-75147952D01*
X167347310Y-75444306D01*
X167364608Y-75453529D01*
X167402885Y-75461101D01*
X167441145Y-75453449D01*
X167473565Y-75431738D01*
X167495208Y-75399273D01*
X167502780Y-75360996D01*
X167495128Y-75322736D01*
X167473417Y-75290316D01*
X167458250Y-75277896D01*
X167083057Y-75027768D01*
X167458250Y-74777640D01*
X167473417Y-74765220D01*
X167495128Y-74732800D01*
X167502780Y-74694540D01*
X167495208Y-74656263D01*
X167473565Y-74623798D01*
X167441145Y-74602087D01*
X167402885Y-74594435D01*
X167364608Y-74602007D01*
X167347310Y-74611230D01*
X166902780Y-74907583D01*
X166458250Y-74611230D01*
X166440952Y-74602007D01*
X166402675Y-74594435D01*
X166364415Y-74602087D01*
X166331995Y-74623798D01*
X166310352Y-74656263D01*
X166302780Y-74694540D01*
X166191669Y-74694540D01*
X166191669Y-74363269D01*
X166302803Y-74363269D01*
X166311243Y-74401363D01*
X166333618Y-74433328D01*
X166366523Y-74454297D01*
X166404948Y-74461078D01*
X166443042Y-74452638D01*
X166460126Y-74443024D01*
X166788651Y-74213056D01*
X166789528Y-74215346D01*
X166837147Y-74310584D01*
X166842432Y-74318980D01*
X166843443Y-74321420D01*
X166845696Y-74324166D01*
X166847590Y-74327174D01*
X166849584Y-74328903D01*
X166855879Y-74336574D01*
X166903498Y-74384192D01*
X166911164Y-74390484D01*
X166912897Y-74392482D01*
X166915905Y-74394375D01*
X166918651Y-74396629D01*
X166921091Y-74397639D01*
X166929488Y-74402925D01*
X167024725Y-74450544D01*
X167043034Y-74457550D01*
X167046617Y-74457804D01*
X167049938Y-74459180D01*
X167069447Y-74461101D01*
X167212304Y-74461101D01*
X167231813Y-74459180D01*
X167235133Y-74457804D01*
X167238717Y-74457550D01*
X167257025Y-74450544D01*
X167352263Y-74402925D01*
X167360659Y-74397639D01*
X167363099Y-74396629D01*
X167365845Y-74394375D01*
X167368853Y-74392482D01*
X167370582Y-74390487D01*
X167378253Y-74384193D01*
X167425871Y-74336574D01*
X167432163Y-74328907D01*
X167434161Y-74327175D01*
X167436054Y-74324166D01*
X167438308Y-74321421D01*
X167439318Y-74318980D01*
X167444604Y-74310584D01*
X167492223Y-74215347D01*
X167499229Y-74197038D01*
X167499483Y-74193454D01*
X167500859Y-74190134D01*
X167502780Y-74170625D01*
X167502780Y-73789673D01*
X167500859Y-73770164D01*
X167485927Y-73734116D01*
X167458337Y-73706526D01*
X167422289Y-73691594D01*
X167402780Y-73689673D01*
X166402780Y-73689673D01*
X166383271Y-73691594D01*
X166347223Y-73706526D01*
X166319633Y-73734116D01*
X166304701Y-73770164D01*
X166304701Y-73809182D01*
X166319633Y-73845230D01*
X166347223Y-73872820D01*
X166383271Y-73887752D01*
X166402780Y-73889673D01*
X166778971Y-73889673D01*
X166778971Y-73975702D01*
X166345434Y-74279178D01*
X166330553Y-74291939D01*
X166309584Y-74324844D01*
X166302803Y-74363269D01*
X166191669Y-74363269D01*
X166191669Y-73578562D01*
X167613891Y-73578562D01*
X167613891Y-75572212D01*
G37*
G36*
X162573891Y-78142855D02*
G01*
X161151669Y-78142855D01*
X161151669Y-77586689D01*
X161263565Y-77586689D01*
X161264453Y-77599196D01*
X161263565Y-77611703D01*
X161265824Y-77618481D01*
X161266331Y-77625609D01*
X161271937Y-77636821D01*
X161275903Y-77648719D01*
X161280586Y-77654118D01*
X161283781Y-77660508D01*
X161293252Y-77668723D01*
X161301468Y-77678195D01*
X161307857Y-77681389D01*
X161313257Y-77686073D01*
X161331157Y-77694064D01*
X162331157Y-78027397D01*
X162350272Y-78031744D01*
X162389192Y-78028978D01*
X162424091Y-78011528D01*
X162449656Y-77982052D01*
X162461995Y-77945036D01*
X162459228Y-77906116D01*
X162441779Y-77871217D01*
X162412303Y-77845652D01*
X162394402Y-77837661D01*
X161679007Y-77599196D01*
X162394402Y-77360731D01*
X162412303Y-77352740D01*
X162441779Y-77327175D01*
X162459228Y-77292276D01*
X162461995Y-77253356D01*
X162449656Y-77216340D01*
X162424091Y-77186864D01*
X162389192Y-77169414D01*
X162350272Y-77166648D01*
X162331157Y-77170995D01*
X161331157Y-77504328D01*
X161313257Y-77512319D01*
X161307857Y-77517002D01*
X161301468Y-77520197D01*
X161293252Y-77529668D01*
X161283781Y-77537884D01*
X161280586Y-77544273D01*
X161275903Y-77549673D01*
X161271937Y-77561570D01*
X161266331Y-77572783D01*
X161265824Y-77579910D01*
X161263565Y-77586689D01*
X161151669Y-77586689D01*
X161151669Y-76503958D01*
X161262780Y-76503958D01*
X161262780Y-76789672D01*
X161264701Y-76809181D01*
X161266076Y-76812500D01*
X161266331Y-76816086D01*
X161273338Y-76834394D01*
X161320958Y-76929632D01*
X161326242Y-76938027D01*
X161327253Y-76940467D01*
X161329506Y-76943212D01*
X161331401Y-76946223D01*
X161333397Y-76947954D01*
X161339689Y-76955621D01*
X161387308Y-77003239D01*
X161394974Y-77009531D01*
X161396707Y-77011529D01*
X161399715Y-77013422D01*
X161402461Y-77015676D01*
X161404901Y-77016686D01*
X161413298Y-77021972D01*
X161508535Y-77069591D01*
X161526844Y-77076597D01*
X161530427Y-77076851D01*
X161533748Y-77078227D01*
X161553257Y-77080148D01*
X161791352Y-77080148D01*
X161810861Y-77078227D01*
X161814181Y-77076851D01*
X161817765Y-77076597D01*
X161836073Y-77069591D01*
X161931311Y-77021972D01*
X161939707Y-77016686D01*
X161942147Y-77015676D01*
X161944893Y-77013422D01*
X161947901Y-77011529D01*
X161949630Y-77009534D01*
X161957301Y-77003240D01*
X162004919Y-76955621D01*
X162011211Y-76947954D01*
X162013209Y-76946222D01*
X162015102Y-76943213D01*
X162017356Y-76940468D01*
X162018366Y-76938027D01*
X162023652Y-76929631D01*
X162063076Y-76850783D01*
X162296930Y-77055406D01*
X162305363Y-77061435D01*
X162307223Y-77063295D01*
X162308986Y-77064025D01*
X162312877Y-77066807D01*
X162328265Y-77072011D01*
X162343271Y-77078227D01*
X162346645Y-77078227D01*
X162349838Y-77079307D01*
X162366041Y-77078227D01*
X162382289Y-77078227D01*
X162385404Y-77076936D01*
X162388770Y-77076712D01*
X162403335Y-77069509D01*
X162418337Y-77063295D01*
X162420720Y-77060911D01*
X162423745Y-77059416D01*
X162434449Y-77047182D01*
X162445927Y-77035705D01*
X162447216Y-77032591D01*
X162449439Y-77030052D01*
X162454644Y-77014660D01*
X162460859Y-76999657D01*
X162461327Y-76994897D01*
X162461939Y-76993090D01*
X162461764Y-76990465D01*
X162462780Y-76980148D01*
X162462780Y-76361101D01*
X162460859Y-76341592D01*
X162445927Y-76305544D01*
X162418337Y-76277954D01*
X162382289Y-76263022D01*
X162343271Y-76263022D01*
X162307223Y-76277954D01*
X162279633Y-76305544D01*
X162264701Y-76341592D01*
X162262780Y-76361101D01*
X162262780Y-76759770D01*
X162047678Y-76571557D01*
X162039244Y-76565527D01*
X162037385Y-76563668D01*
X162035621Y-76562937D01*
X162031731Y-76560156D01*
X162016342Y-76554951D01*
X162001337Y-76548736D01*
X161997963Y-76548736D01*
X161994770Y-76547656D01*
X161978567Y-76548736D01*
X161962319Y-76548736D01*
X161959203Y-76550026D01*
X161955838Y-76550251D01*
X161941277Y-76557451D01*
X161926271Y-76563668D01*
X161923886Y-76566052D01*
X161920863Y-76567548D01*
X161910165Y-76579773D01*
X161898681Y-76591258D01*
X161897390Y-76594372D01*
X161895169Y-76596912D01*
X161889964Y-76612300D01*
X161883749Y-76627306D01*
X161883280Y-76632065D01*
X161882669Y-76633873D01*
X161882843Y-76636497D01*
X161881828Y-76646815D01*
X161881828Y-76766065D01*
X161852023Y-76825674D01*
X161827354Y-76850342D01*
X161767745Y-76880148D01*
X161576864Y-76880148D01*
X161517254Y-76850343D01*
X161492583Y-76825672D01*
X161462780Y-76766065D01*
X161462780Y-76527564D01*
X161492583Y-76467957D01*
X161528729Y-76431812D01*
X161541166Y-76416659D01*
X161556097Y-76380610D01*
X161556097Y-76341592D01*
X161541166Y-76305544D01*
X161513576Y-76277954D01*
X161477528Y-76263023D01*
X161438510Y-76263023D01*
X161402461Y-76277954D01*
X161387308Y-76290391D01*
X161339689Y-76338009D01*
X161333397Y-76345675D01*
X161331401Y-76347407D01*
X161329506Y-76350417D01*
X161327253Y-76353163D01*
X161326242Y-76355602D01*
X161320958Y-76363998D01*
X161273338Y-76459236D01*
X161266331Y-76477544D01*
X161266076Y-76481129D01*
X161264701Y-76484449D01*
X161262780Y-76503958D01*
X161151669Y-76503958D01*
X161151669Y-75960640D01*
X161264701Y-75960640D01*
X161264701Y-75999658D01*
X161266185Y-76003241D01*
X161279632Y-76035706D01*
X161279633Y-76035707D01*
X161292070Y-76050860D01*
X161339690Y-76098479D01*
X161354843Y-76110916D01*
X161380333Y-76121473D01*
X161390891Y-76125847D01*
X161390892Y-76125847D01*
X161429909Y-76125847D01*
X161451026Y-76117099D01*
X161465958Y-76110915D01*
X161465962Y-76110910D01*
X161481111Y-76098479D01*
X161528729Y-76050860D01*
X161541166Y-76035707D01*
X161552535Y-76008259D01*
X161556098Y-75999658D01*
X161556098Y-75960640D01*
X161541166Y-75924592D01*
X161541166Y-75924591D01*
X161528729Y-75909438D01*
X161481111Y-75861819D01*
X161465962Y-75849387D01*
X161465958Y-75849383D01*
X161451026Y-75843198D01*
X161429909Y-75834451D01*
X161390891Y-75834451D01*
X161380333Y-75838824D01*
X161354843Y-75849382D01*
X161339690Y-75861819D01*
X161292070Y-75909438D01*
X161279633Y-75924591D01*
X161279632Y-75924592D01*
X161269074Y-75950082D01*
X161264701Y-75960640D01*
X161151669Y-75960640D01*
X161151669Y-75075387D01*
X161262780Y-75075387D01*
X161262780Y-75361101D01*
X161264701Y-75380610D01*
X161266076Y-75383929D01*
X161266331Y-75387515D01*
X161273338Y-75405823D01*
X161320958Y-75501061D01*
X161326242Y-75509456D01*
X161327253Y-75511896D01*
X161329506Y-75514641D01*
X161331401Y-75517652D01*
X161333397Y-75519383D01*
X161339689Y-75527050D01*
X161387308Y-75574668D01*
X161394974Y-75580960D01*
X161396707Y-75582958D01*
X161399715Y-75584851D01*
X161402461Y-75587105D01*
X161404901Y-75588115D01*
X161413298Y-75593401D01*
X161508535Y-75641020D01*
X161526844Y-75648026D01*
X161530427Y-75648280D01*
X161533748Y-75649656D01*
X161553257Y-75651577D01*
X161791352Y-75651577D01*
X161810861Y-75649656D01*
X161814181Y-75648280D01*
X161817765Y-75648026D01*
X161836073Y-75641020D01*
X161931311Y-75593401D01*
X161939707Y-75588115D01*
X161942147Y-75587105D01*
X161944893Y-75584851D01*
X161947901Y-75582958D01*
X161949630Y-75580963D01*
X161957301Y-75574669D01*
X162004919Y-75527050D01*
X162011211Y-75519383D01*
X162013209Y-75517651D01*
X162015102Y-75514642D01*
X162017356Y-75511897D01*
X162018366Y-75509456D01*
X162023652Y-75501060D01*
X162063076Y-75422212D01*
X162296930Y-75626835D01*
X162305363Y-75632864D01*
X162307223Y-75634724D01*
X162308986Y-75635454D01*
X162312877Y-75638236D01*
X162328265Y-75643440D01*
X162343271Y-75649656D01*
X162346645Y-75649656D01*
X162349838Y-75650736D01*
X162366041Y-75649656D01*
X162382289Y-75649656D01*
X162385404Y-75648365D01*
X162388770Y-75648141D01*
X162403335Y-75640938D01*
X162418337Y-75634724D01*
X162420720Y-75632340D01*
X162423745Y-75630845D01*
X162434449Y-75618611D01*
X162445927Y-75607134D01*
X162447216Y-75604020D01*
X162449439Y-75601481D01*
X162454644Y-75586089D01*
X162460859Y-75571086D01*
X162461327Y-75566326D01*
X162461939Y-75564519D01*
X162461764Y-75561894D01*
X162462780Y-75551577D01*
X162462780Y-74932530D01*
X162460859Y-74913021D01*
X162445927Y-74876973D01*
X162418337Y-74849383D01*
X162382289Y-74834451D01*
X162343271Y-74834451D01*
X162307223Y-74849383D01*
X162279633Y-74876973D01*
X162264701Y-74913021D01*
X162262780Y-74932530D01*
X162262780Y-75331199D01*
X162047678Y-75142986D01*
X162039244Y-75136956D01*
X162037385Y-75135097D01*
X162035621Y-75134366D01*
X162031731Y-75131585D01*
X162016342Y-75126380D01*
X162001337Y-75120165D01*
X161997963Y-75120165D01*
X161994770Y-75119085D01*
X161978567Y-75120165D01*
X161962319Y-75120165D01*
X161959203Y-75121455D01*
X161955838Y-75121680D01*
X161941277Y-75128880D01*
X161926271Y-75135097D01*
X161923886Y-75137481D01*
X161920863Y-75138977D01*
X161910165Y-75151202D01*
X161898681Y-75162687D01*
X161897390Y-75165801D01*
X161895169Y-75168341D01*
X161889964Y-75183729D01*
X161883749Y-75198735D01*
X161883280Y-75203494D01*
X161882669Y-75205302D01*
X161882843Y-75207926D01*
X161881828Y-75218244D01*
X161881828Y-75337494D01*
X161852023Y-75397103D01*
X161827354Y-75421771D01*
X161767745Y-75451577D01*
X161576864Y-75451577D01*
X161517254Y-75421772D01*
X161492583Y-75397101D01*
X161462780Y-75337494D01*
X161462780Y-75098993D01*
X161492583Y-75039386D01*
X161528729Y-75003241D01*
X161541166Y-74988088D01*
X161556097Y-74952039D01*
X161556097Y-74913021D01*
X161541166Y-74876973D01*
X161513576Y-74849383D01*
X161477528Y-74834452D01*
X161438510Y-74834452D01*
X161402461Y-74849383D01*
X161387308Y-74861820D01*
X161339689Y-74909438D01*
X161333397Y-74917104D01*
X161331401Y-74918836D01*
X161329506Y-74921846D01*
X161327253Y-74924592D01*
X161326242Y-74927031D01*
X161320958Y-74935427D01*
X161273338Y-75030665D01*
X161266331Y-75048973D01*
X161266076Y-75052558D01*
X161264701Y-75055878D01*
X161262780Y-75075387D01*
X161151669Y-75075387D01*
X161151669Y-74151116D01*
X161264701Y-74151116D01*
X161264701Y-74190134D01*
X161279633Y-74226182D01*
X161307223Y-74253772D01*
X161343271Y-74268704D01*
X161362780Y-74270625D01*
X161643733Y-74270625D01*
X161643733Y-74551578D01*
X161645654Y-74571087D01*
X161660586Y-74607135D01*
X161688176Y-74634725D01*
X161724224Y-74649657D01*
X161763242Y-74649657D01*
X161799290Y-74634725D01*
X161826880Y-74607135D01*
X161841812Y-74571087D01*
X161843733Y-74551578D01*
X161843733Y-74270625D01*
X162124685Y-74270625D01*
X162144194Y-74268704D01*
X162180242Y-74253772D01*
X162207832Y-74226182D01*
X162222764Y-74190134D01*
X162222764Y-74151116D01*
X162207832Y-74115068D01*
X162180242Y-74087478D01*
X162144194Y-74072546D01*
X162124685Y-74070625D01*
X161843733Y-74070625D01*
X161843733Y-73789673D01*
X161841812Y-73770164D01*
X161826880Y-73734116D01*
X161799290Y-73706526D01*
X161763242Y-73691594D01*
X161724224Y-73691594D01*
X161688176Y-73706526D01*
X161660586Y-73734116D01*
X161645654Y-73770164D01*
X161643733Y-73789673D01*
X161643733Y-74070625D01*
X161362780Y-74070625D01*
X161343271Y-74072546D01*
X161307223Y-74087478D01*
X161279633Y-74115068D01*
X161264701Y-74151116D01*
X161151669Y-74151116D01*
X161151669Y-73580483D01*
X162573891Y-73580483D01*
X162573891Y-78142855D01*
G37*
G36*
X175032780Y-76099160D02*
G01*
X174997758Y-76204224D01*
X174930686Y-76271296D01*
X174859780Y-76306749D01*
X174691899Y-76348720D01*
X174573661Y-76348720D01*
X174405780Y-76306749D01*
X174334875Y-76271297D01*
X174267802Y-76204224D01*
X174232780Y-76099159D01*
X174232780Y-75977292D01*
X175032780Y-75977292D01*
X175032780Y-76099160D01*
G37*
G36*
X175343891Y-76659831D02*
G01*
X173921669Y-76659831D01*
X173921669Y-75877292D01*
X174032780Y-75877292D01*
X174032780Y-76115387D01*
X174033752Y-76125260D01*
X174033565Y-76127895D01*
X174034352Y-76131358D01*
X174034701Y-76134896D01*
X174035712Y-76137337D01*
X174037912Y-76147010D01*
X174085532Y-76289868D01*
X174093524Y-76307768D01*
X174095878Y-76310482D01*
X174097253Y-76313801D01*
X174109689Y-76328955D01*
X174204927Y-76424193D01*
X174212593Y-76430484D01*
X174214326Y-76432482D01*
X174217337Y-76434377D01*
X174220081Y-76436629D01*
X174222518Y-76437638D01*
X174230917Y-76442925D01*
X174326154Y-76490544D01*
X174327582Y-76491090D01*
X174328162Y-76491520D01*
X174336338Y-76494441D01*
X174344463Y-76497550D01*
X174345183Y-76497601D01*
X174346622Y-76498115D01*
X174537098Y-76545734D01*
X174540479Y-76546234D01*
X174541843Y-76546799D01*
X174549193Y-76547522D01*
X174556491Y-76548602D01*
X174557949Y-76548384D01*
X174561352Y-76548720D01*
X174704209Y-76548720D01*
X174707611Y-76548384D01*
X174709070Y-76548602D01*
X174716367Y-76547522D01*
X174723718Y-76546799D01*
X174725081Y-76546234D01*
X174728463Y-76545734D01*
X174918938Y-76498115D01*
X174920375Y-76497601D01*
X174921098Y-76497550D01*
X174929222Y-76494441D01*
X174937399Y-76491520D01*
X174937979Y-76491089D01*
X174939406Y-76490544D01*
X175034644Y-76442925D01*
X175043040Y-76437639D01*
X175045480Y-76436629D01*
X175048226Y-76434375D01*
X175051234Y-76432482D01*
X175052963Y-76430487D01*
X175060634Y-76424193D01*
X175155872Y-76328955D01*
X175168308Y-76313801D01*
X175169682Y-76310482D01*
X175172038Y-76307767D01*
X175180029Y-76289867D01*
X175227648Y-76147010D01*
X175229847Y-76137337D01*
X175230859Y-76134896D01*
X175231207Y-76131358D01*
X175231995Y-76127895D01*
X175231807Y-76125260D01*
X175232780Y-76115387D01*
X175232780Y-75877292D01*
X175230859Y-75857783D01*
X175215927Y-75821735D01*
X175188337Y-75794145D01*
X175152289Y-75779213D01*
X175132780Y-75777292D01*
X174132780Y-75777292D01*
X174113271Y-75779213D01*
X174077223Y-75794145D01*
X174049633Y-75821735D01*
X174034701Y-75857783D01*
X174032780Y-75877292D01*
X173921669Y-75877292D01*
X173921669Y-75394116D01*
X174033024Y-75394116D01*
X174034701Y-75407309D01*
X174034701Y-75420610D01*
X174037140Y-75426498D01*
X174037944Y-75432823D01*
X174044544Y-75444372D01*
X174049633Y-75456658D01*
X174054140Y-75461165D01*
X174057303Y-75466700D01*
X174067817Y-75474842D01*
X174077223Y-75484248D01*
X174083113Y-75486687D01*
X174088152Y-75490590D01*
X174100980Y-75494088D01*
X174113271Y-75499180D01*
X174123248Y-75500162D01*
X174125795Y-75500857D01*
X174127762Y-75500606D01*
X174132780Y-75501101D01*
X175132780Y-75501101D01*
X175152289Y-75499180D01*
X175188337Y-75484248D01*
X175215927Y-75456658D01*
X175230859Y-75420610D01*
X175230859Y-75381592D01*
X175215927Y-75345544D01*
X175188337Y-75317954D01*
X175152289Y-75303022D01*
X175132780Y-75301101D01*
X174509336Y-75301101D01*
X175182394Y-74916497D01*
X175186504Y-74913578D01*
X175188337Y-74912820D01*
X175190203Y-74910953D01*
X175198379Y-74905150D01*
X175206523Y-74894633D01*
X175215927Y-74885230D01*
X175218365Y-74879342D01*
X175222270Y-74874301D01*
X175225769Y-74861468D01*
X175230859Y-74849182D01*
X175230859Y-74842806D01*
X175232536Y-74836657D01*
X175230859Y-74823463D01*
X175230859Y-74810164D01*
X175228419Y-74804275D01*
X175227616Y-74797951D01*
X175221015Y-74786401D01*
X175215927Y-74774116D01*
X175211419Y-74769608D01*
X175208257Y-74764074D01*
X175197740Y-74755929D01*
X175188337Y-74746526D01*
X175182449Y-74744087D01*
X175177408Y-74740183D01*
X175164575Y-74736683D01*
X175152289Y-74731594D01*
X175142311Y-74730611D01*
X175139765Y-74729917D01*
X175137797Y-74730167D01*
X175132780Y-74729673D01*
X174132780Y-74729673D01*
X174113271Y-74731594D01*
X174077223Y-74746526D01*
X174049633Y-74774116D01*
X174034701Y-74810164D01*
X174034701Y-74849182D01*
X174049633Y-74885230D01*
X174077223Y-74912820D01*
X174113271Y-74927752D01*
X174132780Y-74929673D01*
X174756224Y-74929673D01*
X174083166Y-75314277D01*
X174079055Y-75317195D01*
X174077223Y-75317954D01*
X174075356Y-75319820D01*
X174067181Y-75325624D01*
X174059038Y-75336138D01*
X174049633Y-75345544D01*
X174047193Y-75351434D01*
X174043291Y-75356473D01*
X174039792Y-75369301D01*
X174034701Y-75381592D01*
X174034701Y-75387967D01*
X174033024Y-75394116D01*
X173921669Y-75394116D01*
X173921669Y-74115387D01*
X174032780Y-74115387D01*
X174032780Y-74210625D01*
X174033752Y-74220498D01*
X174033565Y-74223133D01*
X174034352Y-74226596D01*
X174034701Y-74230134D01*
X174035712Y-74232575D01*
X174037912Y-74242248D01*
X174085532Y-74385106D01*
X174093524Y-74403006D01*
X174095878Y-74405720D01*
X174097253Y-74409039D01*
X174109689Y-74424193D01*
X174157308Y-74471811D01*
X174172461Y-74484248D01*
X174183019Y-74488621D01*
X174208510Y-74499180D01*
X174228019Y-74501101D01*
X174561352Y-74501101D01*
X174580861Y-74499180D01*
X174616909Y-74484248D01*
X174644499Y-74456658D01*
X174659431Y-74420610D01*
X174661352Y-74401101D01*
X174661352Y-74210625D01*
X174659431Y-74191116D01*
X174644499Y-74155068D01*
X174616909Y-74127478D01*
X174580861Y-74112546D01*
X174541843Y-74112546D01*
X174505795Y-74127478D01*
X174478205Y-74155068D01*
X174463273Y-74191116D01*
X174461352Y-74210625D01*
X174461352Y-74301101D01*
X174269441Y-74301101D01*
X174267802Y-74299462D01*
X174232780Y-74194397D01*
X174232780Y-74131614D01*
X174267802Y-74026549D01*
X174334875Y-73959477D01*
X174405780Y-73924024D01*
X174573661Y-73882054D01*
X174691899Y-73882054D01*
X174859780Y-73924024D01*
X174930686Y-73959477D01*
X174997758Y-74026549D01*
X175032780Y-74131613D01*
X175032780Y-74234637D01*
X174995718Y-74308761D01*
X174988712Y-74327069D01*
X174985946Y-74365989D01*
X174998285Y-74403005D01*
X175023849Y-74432482D01*
X175058748Y-74449931D01*
X175097668Y-74452697D01*
X175134684Y-74440358D01*
X175164161Y-74414794D01*
X175174604Y-74398203D01*
X175222223Y-74302966D01*
X175229229Y-74284657D01*
X175229483Y-74281073D01*
X175230859Y-74277753D01*
X175232780Y-74258244D01*
X175232780Y-74115387D01*
X175231807Y-74105513D01*
X175231995Y-74102879D01*
X175231207Y-74099415D01*
X175230859Y-74095878D01*
X175229847Y-74093436D01*
X175227648Y-74083764D01*
X175180029Y-73940907D01*
X175172038Y-73923007D01*
X175169682Y-73920291D01*
X175168308Y-73916973D01*
X175155872Y-73901819D01*
X175060634Y-73806581D01*
X175052963Y-73800286D01*
X175051234Y-73798292D01*
X175048226Y-73796398D01*
X175045480Y-73794145D01*
X175043040Y-73793134D01*
X175034644Y-73787849D01*
X174939406Y-73740230D01*
X174937979Y-73739684D01*
X174937399Y-73739254D01*
X174929222Y-73736332D01*
X174921098Y-73733224D01*
X174920375Y-73733172D01*
X174918938Y-73732659D01*
X174728463Y-73685040D01*
X174725081Y-73684539D01*
X174723718Y-73683975D01*
X174716367Y-73683251D01*
X174709070Y-73682172D01*
X174707611Y-73682389D01*
X174704209Y-73682054D01*
X174561352Y-73682054D01*
X174557949Y-73682389D01*
X174556491Y-73682172D01*
X174549193Y-73683251D01*
X174541843Y-73683975D01*
X174540479Y-73684539D01*
X174537098Y-73685040D01*
X174346622Y-73732659D01*
X174345183Y-73733172D01*
X174344463Y-73733224D01*
X174336338Y-73736332D01*
X174328162Y-73739254D01*
X174327582Y-73739683D01*
X174326154Y-73740230D01*
X174230917Y-73787849D01*
X174222518Y-73793135D01*
X174220081Y-73794145D01*
X174217337Y-73796396D01*
X174214326Y-73798292D01*
X174212593Y-73800289D01*
X174204927Y-73806581D01*
X174109689Y-73901819D01*
X174097253Y-73916973D01*
X174095878Y-73920291D01*
X174093524Y-73923006D01*
X174085532Y-73940906D01*
X174037912Y-74083764D01*
X174035712Y-74093436D01*
X174034701Y-74095878D01*
X174034352Y-74099415D01*
X174033565Y-74102879D01*
X174033752Y-74105513D01*
X174032780Y-74115387D01*
X173921669Y-74115387D01*
X173921669Y-73570943D01*
X175343891Y-73570943D01*
X175343891Y-76659831D01*
G37*
G36*
X169758797Y-75917588D02*
G01*
X169822976Y-75981767D01*
X169852780Y-76041375D01*
X169852780Y-76184637D01*
X169822976Y-76244245D01*
X169758797Y-76308424D01*
X169607137Y-76346339D01*
X169298423Y-76346339D01*
X169146764Y-76308424D01*
X169082583Y-76244243D01*
X169052780Y-76184637D01*
X169052780Y-76041374D01*
X169082583Y-75981768D01*
X169146764Y-75917587D01*
X169298423Y-75879673D01*
X169607137Y-75879673D01*
X169758797Y-75917588D01*
G37*
G36*
X169758797Y-74869969D02*
G01*
X169822976Y-74934148D01*
X169852780Y-74993756D01*
X169852780Y-75137018D01*
X169822976Y-75196626D01*
X169758797Y-75260805D01*
X169607137Y-75298720D01*
X169298423Y-75298720D01*
X169146764Y-75260805D01*
X169082583Y-75196624D01*
X169052780Y-75137018D01*
X169052780Y-74993755D01*
X169082583Y-74934149D01*
X169146764Y-74869968D01*
X169298423Y-74832054D01*
X169607137Y-74832054D01*
X169758797Y-74869969D01*
G37*
G36*
X169376590Y-74096779D02*
G01*
X169341568Y-74201844D01*
X169322116Y-74221295D01*
X169262507Y-74251101D01*
X169166864Y-74251101D01*
X169107254Y-74221296D01*
X169082583Y-74196625D01*
X169052780Y-74137018D01*
X169052780Y-73879673D01*
X169376590Y-73879673D01*
X169376590Y-74096779D01*
G37*
G36*
X169852780Y-74089399D02*
G01*
X169822975Y-74149008D01*
X169798306Y-74173676D01*
X169738697Y-74203482D01*
X169690673Y-74203482D01*
X169631063Y-74173677D01*
X169606395Y-74149008D01*
X169576590Y-74089398D01*
X169576590Y-73879673D01*
X169852780Y-73879673D01*
X169852780Y-74089399D01*
G37*
G36*
X170163891Y-77512672D02*
G01*
X168741669Y-77512672D01*
X168741669Y-76998259D01*
X168854701Y-76998259D01*
X168854701Y-77037277D01*
X168869633Y-77073325D01*
X168897223Y-77100915D01*
X168933271Y-77115847D01*
X168952780Y-77117768D01*
X169852780Y-77117768D01*
X169852780Y-77303482D01*
X169854701Y-77322991D01*
X169869633Y-77359039D01*
X169897223Y-77386629D01*
X169933271Y-77401561D01*
X169972289Y-77401561D01*
X170008337Y-77386629D01*
X170035927Y-77359039D01*
X170050859Y-77322991D01*
X170052780Y-77303482D01*
X170052780Y-76732054D01*
X170050859Y-76712545D01*
X170035927Y-76676497D01*
X170008337Y-76648907D01*
X169972289Y-76633975D01*
X169933271Y-76633975D01*
X169897223Y-76648907D01*
X169869633Y-76676497D01*
X169854701Y-76712545D01*
X169852780Y-76732054D01*
X169852780Y-76917768D01*
X168952780Y-76917768D01*
X168933271Y-76919689D01*
X168897223Y-76934621D01*
X168869633Y-76962211D01*
X168854701Y-76998259D01*
X168741669Y-76998259D01*
X168741669Y-76017768D01*
X168852780Y-76017768D01*
X168852780Y-76208244D01*
X168854701Y-76227753D01*
X168856076Y-76231072D01*
X168856331Y-76234658D01*
X168863338Y-76252966D01*
X168910958Y-76348204D01*
X168916242Y-76356599D01*
X168917253Y-76359039D01*
X168919506Y-76361784D01*
X168921401Y-76364795D01*
X168923397Y-76366526D01*
X168929689Y-76374193D01*
X169024927Y-76469431D01*
X169040081Y-76481867D01*
X169046949Y-76484712D01*
X169052924Y-76489139D01*
X169071384Y-76495734D01*
X169261860Y-76543353D01*
X169265241Y-76543853D01*
X169266605Y-76544418D01*
X169273955Y-76545141D01*
X169281253Y-76546221D01*
X169282711Y-76546003D01*
X169286114Y-76546339D01*
X169619447Y-76546339D01*
X169622849Y-76546003D01*
X169624308Y-76546221D01*
X169631605Y-76545141D01*
X169638956Y-76544418D01*
X169640319Y-76543853D01*
X169643701Y-76543353D01*
X169834176Y-76495734D01*
X169852637Y-76489139D01*
X169858611Y-76484712D01*
X169865480Y-76481867D01*
X169880634Y-76469431D01*
X169975872Y-76374193D01*
X169982163Y-76366526D01*
X169984161Y-76364794D01*
X169986056Y-76361782D01*
X169988308Y-76359039D01*
X169989317Y-76356601D01*
X169994604Y-76348203D01*
X170042223Y-76252966D01*
X170049229Y-76234657D01*
X170049483Y-76231073D01*
X170050859Y-76227753D01*
X170052780Y-76208244D01*
X170052780Y-76017768D01*
X170050859Y-75998259D01*
X170049483Y-75994938D01*
X170049229Y-75991355D01*
X170042223Y-75973046D01*
X169994604Y-75877809D01*
X169989317Y-75869410D01*
X169988308Y-75866973D01*
X169986056Y-75864229D01*
X169984161Y-75861218D01*
X169982163Y-75859485D01*
X169975872Y-75851819D01*
X169880634Y-75756581D01*
X169865480Y-75744145D01*
X169858611Y-75741299D01*
X169852637Y-75736873D01*
X169834176Y-75730278D01*
X169643701Y-75682659D01*
X169640319Y-75682158D01*
X169638956Y-75681594D01*
X169631605Y-75680870D01*
X169624308Y-75679791D01*
X169622849Y-75680008D01*
X169619447Y-75679673D01*
X169286114Y-75679673D01*
X169282711Y-75680008D01*
X169281253Y-75679791D01*
X169273955Y-75680870D01*
X169266605Y-75681594D01*
X169265241Y-75682158D01*
X169261860Y-75682659D01*
X169071384Y-75730278D01*
X169052924Y-75736873D01*
X169046949Y-75741299D01*
X169040081Y-75744145D01*
X169024927Y-75756581D01*
X168929689Y-75851819D01*
X168923397Y-75859485D01*
X168921401Y-75861217D01*
X168919506Y-75864227D01*
X168917253Y-75866973D01*
X168916242Y-75869412D01*
X168910958Y-75877808D01*
X168863338Y-75973046D01*
X168856331Y-75991354D01*
X168856076Y-75994939D01*
X168854701Y-75998259D01*
X168852780Y-76017768D01*
X168741669Y-76017768D01*
X168741669Y-74970149D01*
X168852780Y-74970149D01*
X168852780Y-75160625D01*
X168854701Y-75180134D01*
X168856076Y-75183453D01*
X168856331Y-75187039D01*
X168863338Y-75205347D01*
X168910958Y-75300585D01*
X168916242Y-75308980D01*
X168917253Y-75311420D01*
X168919506Y-75314165D01*
X168921401Y-75317176D01*
X168923397Y-75318907D01*
X168929689Y-75326574D01*
X169024927Y-75421812D01*
X169040081Y-75434248D01*
X169046949Y-75437093D01*
X169052924Y-75441520D01*
X169071384Y-75448115D01*
X169261860Y-75495734D01*
X169265241Y-75496234D01*
X169266605Y-75496799D01*
X169273955Y-75497522D01*
X169281253Y-75498602D01*
X169282711Y-75498384D01*
X169286114Y-75498720D01*
X169619447Y-75498720D01*
X169622849Y-75498384D01*
X169624308Y-75498602D01*
X169631605Y-75497522D01*
X169638956Y-75496799D01*
X169640319Y-75496234D01*
X169643701Y-75495734D01*
X169834176Y-75448115D01*
X169852637Y-75441520D01*
X169858611Y-75437093D01*
X169865480Y-75434248D01*
X169880634Y-75421812D01*
X169975872Y-75326574D01*
X169982163Y-75318907D01*
X169984161Y-75317175D01*
X169986056Y-75314163D01*
X169988308Y-75311420D01*
X169989317Y-75308982D01*
X169994604Y-75300584D01*
X170042223Y-75205347D01*
X170049229Y-75187038D01*
X170049483Y-75183454D01*
X170050859Y-75180134D01*
X170052780Y-75160625D01*
X170052780Y-74970149D01*
X170050859Y-74950640D01*
X170049483Y-74947319D01*
X170049229Y-74943736D01*
X170042223Y-74925427D01*
X169994604Y-74830190D01*
X169989317Y-74821791D01*
X169988308Y-74819354D01*
X169986056Y-74816610D01*
X169984161Y-74813599D01*
X169982163Y-74811866D01*
X169975872Y-74804200D01*
X169880634Y-74708962D01*
X169865480Y-74696526D01*
X169858611Y-74693680D01*
X169852637Y-74689254D01*
X169834176Y-74682659D01*
X169643701Y-74635040D01*
X169640319Y-74634539D01*
X169638956Y-74633975D01*
X169631605Y-74633251D01*
X169624308Y-74632172D01*
X169622849Y-74632389D01*
X169619447Y-74632054D01*
X169286114Y-74632054D01*
X169282711Y-74632389D01*
X169281253Y-74632172D01*
X169273955Y-74633251D01*
X169266605Y-74633975D01*
X169265241Y-74634539D01*
X169261860Y-74635040D01*
X169071384Y-74682659D01*
X169052924Y-74689254D01*
X169046949Y-74693680D01*
X169040081Y-74696526D01*
X169024927Y-74708962D01*
X168929689Y-74804200D01*
X168923397Y-74811866D01*
X168921401Y-74813598D01*
X168919506Y-74816608D01*
X168917253Y-74819354D01*
X168916242Y-74821793D01*
X168910958Y-74830189D01*
X168863338Y-74925427D01*
X168856331Y-74943735D01*
X168856076Y-74947320D01*
X168854701Y-74950640D01*
X168852780Y-74970149D01*
X168741669Y-74970149D01*
X168741669Y-73779673D01*
X168852780Y-73779673D01*
X168852780Y-74160625D01*
X168854701Y-74180134D01*
X168856076Y-74183453D01*
X168856331Y-74187039D01*
X168863338Y-74205347D01*
X168910958Y-74300585D01*
X168916242Y-74308980D01*
X168917253Y-74311420D01*
X168919506Y-74314165D01*
X168921401Y-74317176D01*
X168923397Y-74318907D01*
X168929689Y-74326574D01*
X168977308Y-74374192D01*
X168984974Y-74380484D01*
X168986707Y-74382482D01*
X168989715Y-74384375D01*
X168992461Y-74386629D01*
X168994901Y-74387639D01*
X169003298Y-74392925D01*
X169098535Y-74440544D01*
X169116844Y-74447550D01*
X169120427Y-74447804D01*
X169123748Y-74449180D01*
X169143257Y-74451101D01*
X169286114Y-74451101D01*
X169305623Y-74449180D01*
X169308943Y-74447804D01*
X169312527Y-74447550D01*
X169330835Y-74440544D01*
X169426073Y-74392925D01*
X169434469Y-74387639D01*
X169436909Y-74386629D01*
X169439655Y-74384375D01*
X169442663Y-74382482D01*
X169444392Y-74380487D01*
X169452063Y-74374193D01*
X169499681Y-74326574D01*
X169500328Y-74325784D01*
X169501117Y-74326573D01*
X169508783Y-74332865D01*
X169510516Y-74334863D01*
X169513524Y-74336756D01*
X169516270Y-74339010D01*
X169518710Y-74340020D01*
X169527107Y-74345306D01*
X169622344Y-74392925D01*
X169640653Y-74399931D01*
X169644236Y-74400185D01*
X169647557Y-74401561D01*
X169667066Y-74403482D01*
X169762304Y-74403482D01*
X169781813Y-74401561D01*
X169785133Y-74400185D01*
X169788717Y-74399931D01*
X169807025Y-74392925D01*
X169902263Y-74345306D01*
X169910659Y-74340020D01*
X169913099Y-74339010D01*
X169915845Y-74336756D01*
X169918853Y-74334863D01*
X169920582Y-74332868D01*
X169928253Y-74326574D01*
X169975871Y-74278955D01*
X169982163Y-74271288D01*
X169984161Y-74269556D01*
X169986054Y-74266547D01*
X169988308Y-74263802D01*
X169989318Y-74261361D01*
X169994604Y-74252965D01*
X170042223Y-74157728D01*
X170049229Y-74139419D01*
X170049483Y-74135835D01*
X170050859Y-74132515D01*
X170052780Y-74113006D01*
X170052780Y-73779673D01*
X170050859Y-73760164D01*
X170035927Y-73724116D01*
X170008337Y-73696526D01*
X169972289Y-73681594D01*
X169952780Y-73679673D01*
X168952780Y-73679673D01*
X168933271Y-73681594D01*
X168897223Y-73696526D01*
X168869633Y-73724116D01*
X168854701Y-73760164D01*
X168852780Y-73779673D01*
X168741669Y-73779673D01*
X168741669Y-73568562D01*
X170163891Y-73568562D01*
X170163891Y-77512672D01*
G37*
G36*
X165113891Y-75484117D02*
G01*
X163691669Y-75484117D01*
X163691669Y-74606445D01*
X163802780Y-74606445D01*
X163810432Y-74644705D01*
X163832143Y-74677125D01*
X163847310Y-74689545D01*
X164222502Y-74939673D01*
X163847310Y-75189801D01*
X163832143Y-75202221D01*
X163810432Y-75234641D01*
X163802780Y-75272901D01*
X163810352Y-75311178D01*
X163831995Y-75343643D01*
X163864415Y-75365354D01*
X163902675Y-75373006D01*
X163940952Y-75365434D01*
X163958250Y-75356211D01*
X164402780Y-75059857D01*
X164847310Y-75356211D01*
X164864608Y-75365434D01*
X164902885Y-75373006D01*
X164941145Y-75365354D01*
X164973565Y-75343643D01*
X164995208Y-75311178D01*
X165002780Y-75272901D01*
X164995128Y-75234641D01*
X164973417Y-75202221D01*
X164958250Y-75189801D01*
X164583057Y-74939673D01*
X164958250Y-74689545D01*
X164973417Y-74677125D01*
X164995128Y-74644705D01*
X165002780Y-74606445D01*
X164995208Y-74568168D01*
X164973565Y-74535703D01*
X164941145Y-74513992D01*
X164902885Y-74506340D01*
X164864608Y-74513912D01*
X164847310Y-74523135D01*
X164402780Y-74819488D01*
X163958250Y-74523135D01*
X163940952Y-74513912D01*
X163902675Y-74506340D01*
X163864415Y-74513992D01*
X163831995Y-74535703D01*
X163810352Y-74568168D01*
X163802780Y-74606445D01*
X163691669Y-74606445D01*
X163691669Y-74063021D01*
X163804701Y-74063021D01*
X163804701Y-74102039D01*
X163819633Y-74138087D01*
X163847223Y-74165677D01*
X163883271Y-74180609D01*
X163902780Y-74182530D01*
X164802780Y-74182530D01*
X164802780Y-74368244D01*
X164804701Y-74387753D01*
X164819633Y-74423801D01*
X164847223Y-74451391D01*
X164883271Y-74466323D01*
X164922289Y-74466323D01*
X164958337Y-74451391D01*
X164985927Y-74423801D01*
X165000859Y-74387753D01*
X165002780Y-74368244D01*
X165002780Y-73796816D01*
X165000859Y-73777307D01*
X164985927Y-73741259D01*
X164958337Y-73713669D01*
X164922289Y-73698737D01*
X164883271Y-73698737D01*
X164847223Y-73713669D01*
X164819633Y-73741259D01*
X164804701Y-73777307D01*
X164802780Y-73796816D01*
X164802780Y-73982530D01*
X163902780Y-73982530D01*
X163883271Y-73984451D01*
X163847223Y-73999383D01*
X163819633Y-74026973D01*
X163804701Y-74063021D01*
X163691669Y-74063021D01*
X163691669Y-73587626D01*
X165113891Y-73587626D01*
X165113891Y-75484117D01*
G37*
G36*
X172733891Y-75456974D02*
G01*
X171311669Y-75456974D01*
X171311669Y-75238878D01*
X171423024Y-75238878D01*
X171424701Y-75252071D01*
X171424701Y-75265372D01*
X171427140Y-75271260D01*
X171427944Y-75277585D01*
X171434544Y-75289134D01*
X171439633Y-75301420D01*
X171444140Y-75305927D01*
X171447303Y-75311462D01*
X171457817Y-75319604D01*
X171467223Y-75329010D01*
X171473113Y-75331449D01*
X171478152Y-75335352D01*
X171490980Y-75338850D01*
X171503271Y-75343942D01*
X171513248Y-75344924D01*
X171515795Y-75345619D01*
X171517762Y-75345368D01*
X171522780Y-75345863D01*
X172522780Y-75345863D01*
X172542289Y-75343942D01*
X172578337Y-75329010D01*
X172605927Y-75301420D01*
X172620859Y-75265372D01*
X172620859Y-75226354D01*
X172605927Y-75190306D01*
X172578337Y-75162716D01*
X172542289Y-75147784D01*
X172522780Y-75145863D01*
X171899336Y-75145863D01*
X172572394Y-74761259D01*
X172576504Y-74758340D01*
X172578337Y-74757582D01*
X172580203Y-74755715D01*
X172588379Y-74749912D01*
X172596523Y-74739395D01*
X172605927Y-74729992D01*
X172608365Y-74724104D01*
X172612270Y-74719063D01*
X172615769Y-74706230D01*
X172620859Y-74693944D01*
X172620859Y-74687568D01*
X172622536Y-74681419D01*
X172620859Y-74668225D01*
X172620859Y-74654926D01*
X172618419Y-74649037D01*
X172617616Y-74642713D01*
X172611015Y-74631163D01*
X172605927Y-74618878D01*
X172601419Y-74614370D01*
X172598257Y-74608836D01*
X172587740Y-74600691D01*
X172578337Y-74591288D01*
X172572449Y-74588849D01*
X172567408Y-74584945D01*
X172554575Y-74581445D01*
X172542289Y-74576356D01*
X172532311Y-74575373D01*
X172529765Y-74574679D01*
X172527797Y-74574929D01*
X172522780Y-74574435D01*
X171522780Y-74574435D01*
X171503271Y-74576356D01*
X171467223Y-74591288D01*
X171439633Y-74618878D01*
X171424701Y-74654926D01*
X171424701Y-74693944D01*
X171439633Y-74729992D01*
X171467223Y-74757582D01*
X171503271Y-74772514D01*
X171522780Y-74774435D01*
X172146224Y-74774435D01*
X171473166Y-75159039D01*
X171469055Y-75161957D01*
X171467223Y-75162716D01*
X171465356Y-75164582D01*
X171457181Y-75170386D01*
X171449038Y-75180900D01*
X171439633Y-75190306D01*
X171437193Y-75196196D01*
X171433291Y-75201235D01*
X171429792Y-75214063D01*
X171424701Y-75226354D01*
X171424701Y-75232729D01*
X171423024Y-75238878D01*
X171311669Y-75238878D01*
X171311669Y-73769673D01*
X171422780Y-73769673D01*
X171422780Y-74245863D01*
X171424701Y-74265372D01*
X171439633Y-74301420D01*
X171467223Y-74329010D01*
X171503271Y-74343942D01*
X171542289Y-74343942D01*
X171578337Y-74329010D01*
X171605927Y-74301420D01*
X171620859Y-74265372D01*
X171622780Y-74245863D01*
X171622780Y-73869673D01*
X171946590Y-73869673D01*
X171946590Y-74103006D01*
X171948511Y-74122515D01*
X171963443Y-74158563D01*
X171991033Y-74186153D01*
X172027081Y-74201085D01*
X172066099Y-74201085D01*
X172102147Y-74186153D01*
X172129737Y-74158563D01*
X172144669Y-74122515D01*
X172146590Y-74103006D01*
X172146590Y-73869673D01*
X172422780Y-73869673D01*
X172422780Y-74245863D01*
X172424701Y-74265372D01*
X172439633Y-74301420D01*
X172467223Y-74329010D01*
X172503271Y-74343942D01*
X172542289Y-74343942D01*
X172578337Y-74329010D01*
X172605927Y-74301420D01*
X172620859Y-74265372D01*
X172622780Y-74245863D01*
X172622780Y-73769673D01*
X172620859Y-73750164D01*
X172605927Y-73714116D01*
X172578337Y-73686526D01*
X172542289Y-73671594D01*
X172522780Y-73669673D01*
X171522780Y-73669673D01*
X171503271Y-73671594D01*
X171467223Y-73686526D01*
X171439633Y-73714116D01*
X171424701Y-73750164D01*
X171422780Y-73769673D01*
X171311669Y-73769673D01*
X171311669Y-73558562D01*
X172733891Y-73558562D01*
X172733891Y-75456974D01*
G37*
D11*
X131443333Y-91839580D02*
X131395714Y-91887200D01*
X131395714Y-91887200D02*
X131252857Y-91934819D01*
X131252857Y-91934819D02*
X131157619Y-91934819D01*
X131157619Y-91934819D02*
X131014762Y-91887200D01*
X131014762Y-91887200D02*
X130919524Y-91791961D01*
X130919524Y-91791961D02*
X130871905Y-91696723D01*
X130871905Y-91696723D02*
X130824286Y-91506247D01*
X130824286Y-91506247D02*
X130824286Y-91363390D01*
X130824286Y-91363390D02*
X130871905Y-91172914D01*
X130871905Y-91172914D02*
X130919524Y-91077676D01*
X130919524Y-91077676D02*
X131014762Y-90982438D01*
X131014762Y-90982438D02*
X131157619Y-90934819D01*
X131157619Y-90934819D02*
X131252857Y-90934819D01*
X131252857Y-90934819D02*
X131395714Y-90982438D01*
X131395714Y-90982438D02*
X131443333Y-91030057D01*
X131824286Y-91030057D02*
X131871905Y-90982438D01*
X131871905Y-90982438D02*
X131967143Y-90934819D01*
X131967143Y-90934819D02*
X132205238Y-90934819D01*
X132205238Y-90934819D02*
X132300476Y-90982438D01*
X132300476Y-90982438D02*
X132348095Y-91030057D01*
X132348095Y-91030057D02*
X132395714Y-91125295D01*
X132395714Y-91125295D02*
X132395714Y-91220533D01*
X132395714Y-91220533D02*
X132348095Y-91363390D01*
X132348095Y-91363390D02*
X131776667Y-91934819D01*
X131776667Y-91934819D02*
X132395714Y-91934819D01*
X167732912Y-87189523D02*
X167780532Y-87237142D01*
X167780532Y-87237142D02*
X167828151Y-87379999D01*
X167828151Y-87379999D02*
X167828151Y-87475237D01*
X167828151Y-87475237D02*
X167780532Y-87618094D01*
X167780532Y-87618094D02*
X167685293Y-87713332D01*
X167685293Y-87713332D02*
X167590055Y-87760951D01*
X167590055Y-87760951D02*
X167399579Y-87808570D01*
X167399579Y-87808570D02*
X167256722Y-87808570D01*
X167256722Y-87808570D02*
X167066246Y-87760951D01*
X167066246Y-87760951D02*
X166971008Y-87713332D01*
X166971008Y-87713332D02*
X166875770Y-87618094D01*
X166875770Y-87618094D02*
X166828151Y-87475237D01*
X166828151Y-87475237D02*
X166828151Y-87379999D01*
X166828151Y-87379999D02*
X166875770Y-87237142D01*
X166875770Y-87237142D02*
X166923389Y-87189523D01*
X166923389Y-86808570D02*
X166875770Y-86760951D01*
X166875770Y-86760951D02*
X166828151Y-86665713D01*
X166828151Y-86665713D02*
X166828151Y-86427618D01*
X166828151Y-86427618D02*
X166875770Y-86332380D01*
X166875770Y-86332380D02*
X166923389Y-86284761D01*
X166923389Y-86284761D02*
X167018627Y-86237142D01*
X167018627Y-86237142D02*
X167113865Y-86237142D01*
X167113865Y-86237142D02*
X167256722Y-86284761D01*
X167256722Y-86284761D02*
X167828151Y-86856189D01*
X167828151Y-86856189D02*
X167828151Y-86237142D01*
X167828151Y-85760951D02*
X167828151Y-85570475D01*
X167828151Y-85570475D02*
X167780532Y-85475237D01*
X167780532Y-85475237D02*
X167732912Y-85427618D01*
X167732912Y-85427618D02*
X167590055Y-85332380D01*
X167590055Y-85332380D02*
X167399579Y-85284761D01*
X167399579Y-85284761D02*
X167018627Y-85284761D01*
X167018627Y-85284761D02*
X166923389Y-85332380D01*
X166923389Y-85332380D02*
X166875770Y-85379999D01*
X166875770Y-85379999D02*
X166828151Y-85475237D01*
X166828151Y-85475237D02*
X166828151Y-85665713D01*
X166828151Y-85665713D02*
X166875770Y-85760951D01*
X166875770Y-85760951D02*
X166923389Y-85808570D01*
X166923389Y-85808570D02*
X167018627Y-85856189D01*
X167018627Y-85856189D02*
X167256722Y-85856189D01*
X167256722Y-85856189D02*
X167351960Y-85808570D01*
X167351960Y-85808570D02*
X167399579Y-85760951D01*
X167399579Y-85760951D02*
X167447198Y-85665713D01*
X167447198Y-85665713D02*
X167447198Y-85475237D01*
X167447198Y-85475237D02*
X167399579Y-85379999D01*
X167399579Y-85379999D02*
X167351960Y-85332380D01*
X167351960Y-85332380D02*
X167256722Y-85284761D01*
X170359580Y-96142857D02*
X170407200Y-96190476D01*
X170407200Y-96190476D02*
X170454819Y-96333333D01*
X170454819Y-96333333D02*
X170454819Y-96428571D01*
X170454819Y-96428571D02*
X170407200Y-96571428D01*
X170407200Y-96571428D02*
X170311961Y-96666666D01*
X170311961Y-96666666D02*
X170216723Y-96714285D01*
X170216723Y-96714285D02*
X170026247Y-96761904D01*
X170026247Y-96761904D02*
X169883390Y-96761904D01*
X169883390Y-96761904D02*
X169692914Y-96714285D01*
X169692914Y-96714285D02*
X169597676Y-96666666D01*
X169597676Y-96666666D02*
X169502438Y-96571428D01*
X169502438Y-96571428D02*
X169454819Y-96428571D01*
X169454819Y-96428571D02*
X169454819Y-96333333D01*
X169454819Y-96333333D02*
X169502438Y-96190476D01*
X169502438Y-96190476D02*
X169550057Y-96142857D01*
X170454819Y-95190476D02*
X170454819Y-95761904D01*
X170454819Y-95476190D02*
X169454819Y-95476190D01*
X169454819Y-95476190D02*
X169597676Y-95571428D01*
X169597676Y-95571428D02*
X169692914Y-95666666D01*
X169692914Y-95666666D02*
X169740533Y-95761904D01*
X170454819Y-94714285D02*
X170454819Y-94523809D01*
X170454819Y-94523809D02*
X170407200Y-94428571D01*
X170407200Y-94428571D02*
X170359580Y-94380952D01*
X170359580Y-94380952D02*
X170216723Y-94285714D01*
X170216723Y-94285714D02*
X170026247Y-94238095D01*
X170026247Y-94238095D02*
X169645295Y-94238095D01*
X169645295Y-94238095D02*
X169550057Y-94285714D01*
X169550057Y-94285714D02*
X169502438Y-94333333D01*
X169502438Y-94333333D02*
X169454819Y-94428571D01*
X169454819Y-94428571D02*
X169454819Y-94619047D01*
X169454819Y-94619047D02*
X169502438Y-94714285D01*
X169502438Y-94714285D02*
X169550057Y-94761904D01*
X169550057Y-94761904D02*
X169645295Y-94809523D01*
X169645295Y-94809523D02*
X169883390Y-94809523D01*
X169883390Y-94809523D02*
X169978628Y-94761904D01*
X169978628Y-94761904D02*
X170026247Y-94714285D01*
X170026247Y-94714285D02*
X170073866Y-94619047D01*
X170073866Y-94619047D02*
X170073866Y-94428571D01*
X170073866Y-94428571D02*
X170026247Y-94333333D01*
X170026247Y-94333333D02*
X169978628Y-94285714D01*
X169978628Y-94285714D02*
X169883390Y-94238095D01*
X172492142Y-83472713D02*
X172444523Y-83520333D01*
X172444523Y-83520333D02*
X172301666Y-83567952D01*
X172301666Y-83567952D02*
X172206428Y-83567952D01*
X172206428Y-83567952D02*
X172063571Y-83520333D01*
X172063571Y-83520333D02*
X171968333Y-83425094D01*
X171968333Y-83425094D02*
X171920714Y-83329856D01*
X171920714Y-83329856D02*
X171873095Y-83139380D01*
X171873095Y-83139380D02*
X171873095Y-82996523D01*
X171873095Y-82996523D02*
X171920714Y-82806047D01*
X171920714Y-82806047D02*
X171968333Y-82710809D01*
X171968333Y-82710809D02*
X172063571Y-82615571D01*
X172063571Y-82615571D02*
X172206428Y-82567952D01*
X172206428Y-82567952D02*
X172301666Y-82567952D01*
X172301666Y-82567952D02*
X172444523Y-82615571D01*
X172444523Y-82615571D02*
X172492142Y-82663190D01*
X172873095Y-82663190D02*
X172920714Y-82615571D01*
X172920714Y-82615571D02*
X173015952Y-82567952D01*
X173015952Y-82567952D02*
X173254047Y-82567952D01*
X173254047Y-82567952D02*
X173349285Y-82615571D01*
X173349285Y-82615571D02*
X173396904Y-82663190D01*
X173396904Y-82663190D02*
X173444523Y-82758428D01*
X173444523Y-82758428D02*
X173444523Y-82853666D01*
X173444523Y-82853666D02*
X173396904Y-82996523D01*
X173396904Y-82996523D02*
X172825476Y-83567952D01*
X172825476Y-83567952D02*
X173444523Y-83567952D01*
X174349285Y-82567952D02*
X173873095Y-82567952D01*
X173873095Y-82567952D02*
X173825476Y-83044142D01*
X173825476Y-83044142D02*
X173873095Y-82996523D01*
X173873095Y-82996523D02*
X173968333Y-82948904D01*
X173968333Y-82948904D02*
X174206428Y-82948904D01*
X174206428Y-82948904D02*
X174301666Y-82996523D01*
X174301666Y-82996523D02*
X174349285Y-83044142D01*
X174349285Y-83044142D02*
X174396904Y-83139380D01*
X174396904Y-83139380D02*
X174396904Y-83377475D01*
X174396904Y-83377475D02*
X174349285Y-83472713D01*
X174349285Y-83472713D02*
X174301666Y-83520333D01*
X174301666Y-83520333D02*
X174206428Y-83567952D01*
X174206428Y-83567952D02*
X173968333Y-83567952D01*
X173968333Y-83567952D02*
X173873095Y-83520333D01*
X173873095Y-83520333D02*
X173825476Y-83472713D01*
X131316666Y-78994819D02*
X131316666Y-79709104D01*
X131316666Y-79709104D02*
X131269047Y-79851961D01*
X131269047Y-79851961D02*
X131173809Y-79947200D01*
X131173809Y-79947200D02*
X131030952Y-79994819D01*
X131030952Y-79994819D02*
X130935714Y-79994819D01*
X132316666Y-79994819D02*
X131745238Y-79994819D01*
X132030952Y-79994819D02*
X132030952Y-78994819D01*
X132030952Y-78994819D02*
X131935714Y-79137676D01*
X131935714Y-79137676D02*
X131840476Y-79232914D01*
X131840476Y-79232914D02*
X131745238Y-79280533D01*
D12*
X155970237Y-100404318D02*
X155970237Y-99134318D01*
X157300714Y-100283365D02*
X157240238Y-100343842D01*
X157240238Y-100343842D02*
X157058809Y-100404318D01*
X157058809Y-100404318D02*
X156937857Y-100404318D01*
X156937857Y-100404318D02*
X156756428Y-100343842D01*
X156756428Y-100343842D02*
X156635476Y-100222889D01*
X156635476Y-100222889D02*
X156574999Y-100101937D01*
X156574999Y-100101937D02*
X156514523Y-99860032D01*
X156514523Y-99860032D02*
X156514523Y-99678603D01*
X156514523Y-99678603D02*
X156574999Y-99436699D01*
X156574999Y-99436699D02*
X156635476Y-99315746D01*
X156635476Y-99315746D02*
X156756428Y-99194794D01*
X156756428Y-99194794D02*
X156937857Y-99134318D01*
X156937857Y-99134318D02*
X157058809Y-99134318D01*
X157058809Y-99134318D02*
X157240238Y-99194794D01*
X157240238Y-99194794D02*
X157300714Y-99255270D01*
X158510238Y-100404318D02*
X157784523Y-100404318D01*
X158147380Y-100404318D02*
X158147380Y-99134318D01*
X158147380Y-99134318D02*
X158026428Y-99315746D01*
X158026428Y-99315746D02*
X157905476Y-99436699D01*
X157905476Y-99436699D02*
X157784523Y-99497175D01*
D11*
X158726666Y-69994819D02*
X158726666Y-70709104D01*
X158726666Y-70709104D02*
X158679047Y-70851961D01*
X158679047Y-70851961D02*
X158583809Y-70947200D01*
X158583809Y-70947200D02*
X158440952Y-70994819D01*
X158440952Y-70994819D02*
X158345714Y-70994819D01*
X159155238Y-70090057D02*
X159202857Y-70042438D01*
X159202857Y-70042438D02*
X159298095Y-69994819D01*
X159298095Y-69994819D02*
X159536190Y-69994819D01*
X159536190Y-69994819D02*
X159631428Y-70042438D01*
X159631428Y-70042438D02*
X159679047Y-70090057D01*
X159679047Y-70090057D02*
X159726666Y-70185295D01*
X159726666Y-70185295D02*
X159726666Y-70280533D01*
X159726666Y-70280533D02*
X159679047Y-70423390D01*
X159679047Y-70423390D02*
X159107619Y-70994819D01*
X159107619Y-70994819D02*
X159726666Y-70994819D01*
X133049819Y-83141904D02*
X133859342Y-83141904D01*
X133859342Y-83141904D02*
X133954580Y-83094285D01*
X133954580Y-83094285D02*
X134002200Y-83046666D01*
X134002200Y-83046666D02*
X134049819Y-82951428D01*
X134049819Y-82951428D02*
X134049819Y-82760952D01*
X134049819Y-82760952D02*
X134002200Y-82665714D01*
X134002200Y-82665714D02*
X133954580Y-82618095D01*
X133954580Y-82618095D02*
X133859342Y-82570476D01*
X133859342Y-82570476D02*
X133049819Y-82570476D01*
X134049819Y-81570476D02*
X134049819Y-82141904D01*
X134049819Y-81856190D02*
X133049819Y-81856190D01*
X133049819Y-81856190D02*
X133192676Y-81951428D01*
X133192676Y-81951428D02*
X133287914Y-82046666D01*
X133287914Y-82046666D02*
X133335533Y-82141904D01*
X138044819Y-72018094D02*
X137044819Y-72018094D01*
X137044819Y-72018094D02*
X137044819Y-71779999D01*
X137044819Y-71779999D02*
X137092438Y-71637142D01*
X137092438Y-71637142D02*
X137187676Y-71541904D01*
X137187676Y-71541904D02*
X137282914Y-71494285D01*
X137282914Y-71494285D02*
X137473390Y-71446666D01*
X137473390Y-71446666D02*
X137616247Y-71446666D01*
X137616247Y-71446666D02*
X137806723Y-71494285D01*
X137806723Y-71494285D02*
X137901961Y-71541904D01*
X137901961Y-71541904D02*
X137997200Y-71637142D01*
X137997200Y-71637142D02*
X138044819Y-71779999D01*
X138044819Y-71779999D02*
X138044819Y-72018094D01*
X138044819Y-70494285D02*
X138044819Y-71065713D01*
X138044819Y-70779999D02*
X137044819Y-70779999D01*
X137044819Y-70779999D02*
X137187676Y-70875237D01*
X137187676Y-70875237D02*
X137282914Y-70970475D01*
X137282914Y-70970475D02*
X137330533Y-71065713D01*
X172492142Y-80349779D02*
X172444523Y-80397399D01*
X172444523Y-80397399D02*
X172301666Y-80445018D01*
X172301666Y-80445018D02*
X172206428Y-80445018D01*
X172206428Y-80445018D02*
X172063571Y-80397399D01*
X172063571Y-80397399D02*
X171968333Y-80302160D01*
X171968333Y-80302160D02*
X171920714Y-80206922D01*
X171920714Y-80206922D02*
X171873095Y-80016446D01*
X171873095Y-80016446D02*
X171873095Y-79873589D01*
X171873095Y-79873589D02*
X171920714Y-79683113D01*
X171920714Y-79683113D02*
X171968333Y-79587875D01*
X171968333Y-79587875D02*
X172063571Y-79492637D01*
X172063571Y-79492637D02*
X172206428Y-79445018D01*
X172206428Y-79445018D02*
X172301666Y-79445018D01*
X172301666Y-79445018D02*
X172444523Y-79492637D01*
X172444523Y-79492637D02*
X172492142Y-79540256D01*
X172873095Y-79540256D02*
X172920714Y-79492637D01*
X172920714Y-79492637D02*
X173015952Y-79445018D01*
X173015952Y-79445018D02*
X173254047Y-79445018D01*
X173254047Y-79445018D02*
X173349285Y-79492637D01*
X173349285Y-79492637D02*
X173396904Y-79540256D01*
X173396904Y-79540256D02*
X173444523Y-79635494D01*
X173444523Y-79635494D02*
X173444523Y-79730732D01*
X173444523Y-79730732D02*
X173396904Y-79873589D01*
X173396904Y-79873589D02*
X172825476Y-80445018D01*
X172825476Y-80445018D02*
X173444523Y-80445018D01*
X173777857Y-79445018D02*
X174396904Y-79445018D01*
X174396904Y-79445018D02*
X174063571Y-79825970D01*
X174063571Y-79825970D02*
X174206428Y-79825970D01*
X174206428Y-79825970D02*
X174301666Y-79873589D01*
X174301666Y-79873589D02*
X174349285Y-79921208D01*
X174349285Y-79921208D02*
X174396904Y-80016446D01*
X174396904Y-80016446D02*
X174396904Y-80254541D01*
X174396904Y-80254541D02*
X174349285Y-80349779D01*
X174349285Y-80349779D02*
X174301666Y-80397399D01*
X174301666Y-80397399D02*
X174206428Y-80445018D01*
X174206428Y-80445018D02*
X173920714Y-80445018D01*
X173920714Y-80445018D02*
X173825476Y-80397399D01*
X173825476Y-80397399D02*
X173777857Y-80349779D01*
X171606485Y-93071189D02*
X171130294Y-93404522D01*
X171606485Y-93642617D02*
X170606485Y-93642617D01*
X170606485Y-93642617D02*
X170606485Y-93261665D01*
X170606485Y-93261665D02*
X170654104Y-93166427D01*
X170654104Y-93166427D02*
X170701723Y-93118808D01*
X170701723Y-93118808D02*
X170796961Y-93071189D01*
X170796961Y-93071189D02*
X170939818Y-93071189D01*
X170939818Y-93071189D02*
X171035056Y-93118808D01*
X171035056Y-93118808D02*
X171082675Y-93166427D01*
X171082675Y-93166427D02*
X171130294Y-93261665D01*
X171130294Y-93261665D02*
X171130294Y-93642617D01*
X171606485Y-92118808D02*
X171606485Y-92690236D01*
X171606485Y-92404522D02*
X170606485Y-92404522D01*
X170606485Y-92404522D02*
X170749342Y-92499760D01*
X170749342Y-92499760D02*
X170844580Y-92594998D01*
X170844580Y-92594998D02*
X170892199Y-92690236D01*
X170606485Y-91785474D02*
X170606485Y-91166427D01*
X170606485Y-91166427D02*
X170987437Y-91499760D01*
X170987437Y-91499760D02*
X170987437Y-91356903D01*
X170987437Y-91356903D02*
X171035056Y-91261665D01*
X171035056Y-91261665D02*
X171082675Y-91214046D01*
X171082675Y-91214046D02*
X171177913Y-91166427D01*
X171177913Y-91166427D02*
X171416008Y-91166427D01*
X171416008Y-91166427D02*
X171511246Y-91214046D01*
X171511246Y-91214046D02*
X171558866Y-91261665D01*
X171558866Y-91261665D02*
X171606485Y-91356903D01*
X171606485Y-91356903D02*
X171606485Y-91642617D01*
X171606485Y-91642617D02*
X171558866Y-91737855D01*
X171558866Y-91737855D02*
X171511246Y-91785474D01*
X172492142Y-81916246D02*
X172444523Y-81963866D01*
X172444523Y-81963866D02*
X172301666Y-82011485D01*
X172301666Y-82011485D02*
X172206428Y-82011485D01*
X172206428Y-82011485D02*
X172063571Y-81963866D01*
X172063571Y-81963866D02*
X171968333Y-81868627D01*
X171968333Y-81868627D02*
X171920714Y-81773389D01*
X171920714Y-81773389D02*
X171873095Y-81582913D01*
X171873095Y-81582913D02*
X171873095Y-81440056D01*
X171873095Y-81440056D02*
X171920714Y-81249580D01*
X171920714Y-81249580D02*
X171968333Y-81154342D01*
X171968333Y-81154342D02*
X172063571Y-81059104D01*
X172063571Y-81059104D02*
X172206428Y-81011485D01*
X172206428Y-81011485D02*
X172301666Y-81011485D01*
X172301666Y-81011485D02*
X172444523Y-81059104D01*
X172444523Y-81059104D02*
X172492142Y-81106723D01*
X172873095Y-81106723D02*
X172920714Y-81059104D01*
X172920714Y-81059104D02*
X173015952Y-81011485D01*
X173015952Y-81011485D02*
X173254047Y-81011485D01*
X173254047Y-81011485D02*
X173349285Y-81059104D01*
X173349285Y-81059104D02*
X173396904Y-81106723D01*
X173396904Y-81106723D02*
X173444523Y-81201961D01*
X173444523Y-81201961D02*
X173444523Y-81297199D01*
X173444523Y-81297199D02*
X173396904Y-81440056D01*
X173396904Y-81440056D02*
X172825476Y-82011485D01*
X172825476Y-82011485D02*
X173444523Y-82011485D01*
X173825476Y-81106723D02*
X173873095Y-81059104D01*
X173873095Y-81059104D02*
X173968333Y-81011485D01*
X173968333Y-81011485D02*
X174206428Y-81011485D01*
X174206428Y-81011485D02*
X174301666Y-81059104D01*
X174301666Y-81059104D02*
X174349285Y-81106723D01*
X174349285Y-81106723D02*
X174396904Y-81201961D01*
X174396904Y-81201961D02*
X174396904Y-81297199D01*
X174396904Y-81297199D02*
X174349285Y-81440056D01*
X174349285Y-81440056D02*
X173777857Y-82011485D01*
X173777857Y-82011485D02*
X174396904Y-82011485D01*
X172306667Y-94857200D02*
X172449524Y-94904819D01*
X172449524Y-94904819D02*
X172687619Y-94904819D01*
X172687619Y-94904819D02*
X172782857Y-94857200D01*
X172782857Y-94857200D02*
X172830476Y-94809580D01*
X172830476Y-94809580D02*
X172878095Y-94714342D01*
X172878095Y-94714342D02*
X172878095Y-94619104D01*
X172878095Y-94619104D02*
X172830476Y-94523866D01*
X172830476Y-94523866D02*
X172782857Y-94476247D01*
X172782857Y-94476247D02*
X172687619Y-94428628D01*
X172687619Y-94428628D02*
X172497143Y-94381009D01*
X172497143Y-94381009D02*
X172401905Y-94333390D01*
X172401905Y-94333390D02*
X172354286Y-94285771D01*
X172354286Y-94285771D02*
X172306667Y-94190533D01*
X172306667Y-94190533D02*
X172306667Y-94095295D01*
X172306667Y-94095295D02*
X172354286Y-94000057D01*
X172354286Y-94000057D02*
X172401905Y-93952438D01*
X172401905Y-93952438D02*
X172497143Y-93904819D01*
X172497143Y-93904819D02*
X172735238Y-93904819D01*
X172735238Y-93904819D02*
X172878095Y-93952438D01*
X173211429Y-93904819D02*
X173449524Y-94904819D01*
X173449524Y-94904819D02*
X173640000Y-94190533D01*
X173640000Y-94190533D02*
X173830476Y-94904819D01*
X173830476Y-94904819D02*
X174068572Y-93904819D01*
X174973333Y-94904819D02*
X174401905Y-94904819D01*
X174687619Y-94904819D02*
X174687619Y-93904819D01*
X174687619Y-93904819D02*
X174592381Y-94047676D01*
X174592381Y-94047676D02*
X174497143Y-94142914D01*
X174497143Y-94142914D02*
X174401905Y-94190533D01*
X165753333Y-80061485D02*
X165420000Y-79585294D01*
X165181905Y-80061485D02*
X165181905Y-79061485D01*
X165181905Y-79061485D02*
X165562857Y-79061485D01*
X165562857Y-79061485D02*
X165658095Y-79109104D01*
X165658095Y-79109104D02*
X165705714Y-79156723D01*
X165705714Y-79156723D02*
X165753333Y-79251961D01*
X165753333Y-79251961D02*
X165753333Y-79394818D01*
X165753333Y-79394818D02*
X165705714Y-79490056D01*
X165705714Y-79490056D02*
X165658095Y-79537675D01*
X165658095Y-79537675D02*
X165562857Y-79585294D01*
X165562857Y-79585294D02*
X165181905Y-79585294D01*
X166086667Y-79061485D02*
X166753333Y-79061485D01*
X166753333Y-79061485D02*
X166324762Y-80061485D01*
X172303095Y-87004451D02*
X172303095Y-87813974D01*
X172303095Y-87813974D02*
X172350714Y-87909212D01*
X172350714Y-87909212D02*
X172398333Y-87956832D01*
X172398333Y-87956832D02*
X172493571Y-88004451D01*
X172493571Y-88004451D02*
X172684047Y-88004451D01*
X172684047Y-88004451D02*
X172779285Y-87956832D01*
X172779285Y-87956832D02*
X172826904Y-87909212D01*
X172826904Y-87909212D02*
X172874523Y-87813974D01*
X172874523Y-87813974D02*
X172874523Y-87004451D01*
X173255476Y-87004451D02*
X173874523Y-87004451D01*
X173874523Y-87004451D02*
X173541190Y-87385403D01*
X173541190Y-87385403D02*
X173684047Y-87385403D01*
X173684047Y-87385403D02*
X173779285Y-87433022D01*
X173779285Y-87433022D02*
X173826904Y-87480641D01*
X173826904Y-87480641D02*
X173874523Y-87575879D01*
X173874523Y-87575879D02*
X173874523Y-87813974D01*
X173874523Y-87813974D02*
X173826904Y-87909212D01*
X173826904Y-87909212D02*
X173779285Y-87956832D01*
X173779285Y-87956832D02*
X173684047Y-88004451D01*
X173684047Y-88004451D02*
X173398333Y-88004451D01*
X173398333Y-88004451D02*
X173303095Y-87956832D01*
X173303095Y-87956832D02*
X173255476Y-87909212D01*
X172492142Y-78793310D02*
X172444523Y-78840930D01*
X172444523Y-78840930D02*
X172301666Y-78888549D01*
X172301666Y-78888549D02*
X172206428Y-78888549D01*
X172206428Y-78888549D02*
X172063571Y-78840930D01*
X172063571Y-78840930D02*
X171968333Y-78745691D01*
X171968333Y-78745691D02*
X171920714Y-78650453D01*
X171920714Y-78650453D02*
X171873095Y-78459977D01*
X171873095Y-78459977D02*
X171873095Y-78317120D01*
X171873095Y-78317120D02*
X171920714Y-78126644D01*
X171920714Y-78126644D02*
X171968333Y-78031406D01*
X171968333Y-78031406D02*
X172063571Y-77936168D01*
X172063571Y-77936168D02*
X172206428Y-77888549D01*
X172206428Y-77888549D02*
X172301666Y-77888549D01*
X172301666Y-77888549D02*
X172444523Y-77936168D01*
X172444523Y-77936168D02*
X172492142Y-77983787D01*
X172873095Y-77983787D02*
X172920714Y-77936168D01*
X172920714Y-77936168D02*
X173015952Y-77888549D01*
X173015952Y-77888549D02*
X173254047Y-77888549D01*
X173254047Y-77888549D02*
X173349285Y-77936168D01*
X173349285Y-77936168D02*
X173396904Y-77983787D01*
X173396904Y-77983787D02*
X173444523Y-78079025D01*
X173444523Y-78079025D02*
X173444523Y-78174263D01*
X173444523Y-78174263D02*
X173396904Y-78317120D01*
X173396904Y-78317120D02*
X172825476Y-78888549D01*
X172825476Y-78888549D02*
X173444523Y-78888549D01*
X174301666Y-78221882D02*
X174301666Y-78888549D01*
X174063571Y-77840930D02*
X173825476Y-78555215D01*
X173825476Y-78555215D02*
X174444523Y-78555215D01*
X133569580Y-78132857D02*
X133617200Y-78180476D01*
X133617200Y-78180476D02*
X133664819Y-78323333D01*
X133664819Y-78323333D02*
X133664819Y-78418571D01*
X133664819Y-78418571D02*
X133617200Y-78561428D01*
X133617200Y-78561428D02*
X133521961Y-78656666D01*
X133521961Y-78656666D02*
X133426723Y-78704285D01*
X133426723Y-78704285D02*
X133236247Y-78751904D01*
X133236247Y-78751904D02*
X133093390Y-78751904D01*
X133093390Y-78751904D02*
X132902914Y-78704285D01*
X132902914Y-78704285D02*
X132807676Y-78656666D01*
X132807676Y-78656666D02*
X132712438Y-78561428D01*
X132712438Y-78561428D02*
X132664819Y-78418571D01*
X132664819Y-78418571D02*
X132664819Y-78323333D01*
X132664819Y-78323333D02*
X132712438Y-78180476D01*
X132712438Y-78180476D02*
X132760057Y-78132857D01*
X133664819Y-77180476D02*
X133664819Y-77751904D01*
X133664819Y-77466190D02*
X132664819Y-77466190D01*
X132664819Y-77466190D02*
X132807676Y-77561428D01*
X132807676Y-77561428D02*
X132902914Y-77656666D01*
X132902914Y-77656666D02*
X132950533Y-77751904D01*
X132664819Y-76847142D02*
X132664819Y-76228095D01*
X132664819Y-76228095D02*
X133045771Y-76561428D01*
X133045771Y-76561428D02*
X133045771Y-76418571D01*
X133045771Y-76418571D02*
X133093390Y-76323333D01*
X133093390Y-76323333D02*
X133141009Y-76275714D01*
X133141009Y-76275714D02*
X133236247Y-76228095D01*
X133236247Y-76228095D02*
X133474342Y-76228095D01*
X133474342Y-76228095D02*
X133569580Y-76275714D01*
X133569580Y-76275714D02*
X133617200Y-76323333D01*
X133617200Y-76323333D02*
X133664819Y-76418571D01*
X133664819Y-76418571D02*
X133664819Y-76704285D01*
X133664819Y-76704285D02*
X133617200Y-76799523D01*
X133617200Y-76799523D02*
X133569580Y-76847142D01*
X133484819Y-71998094D02*
X132484819Y-71998094D01*
X132484819Y-71998094D02*
X132484819Y-71759999D01*
X132484819Y-71759999D02*
X132532438Y-71617142D01*
X132532438Y-71617142D02*
X132627676Y-71521904D01*
X132627676Y-71521904D02*
X132722914Y-71474285D01*
X132722914Y-71474285D02*
X132913390Y-71426666D01*
X132913390Y-71426666D02*
X133056247Y-71426666D01*
X133056247Y-71426666D02*
X133246723Y-71474285D01*
X133246723Y-71474285D02*
X133341961Y-71521904D01*
X133341961Y-71521904D02*
X133437200Y-71617142D01*
X133437200Y-71617142D02*
X133484819Y-71759999D01*
X133484819Y-71759999D02*
X133484819Y-71998094D01*
X132484819Y-71093332D02*
X132484819Y-70474285D01*
X132484819Y-70474285D02*
X132865771Y-70807618D01*
X132865771Y-70807618D02*
X132865771Y-70664761D01*
X132865771Y-70664761D02*
X132913390Y-70569523D01*
X132913390Y-70569523D02*
X132961009Y-70521904D01*
X132961009Y-70521904D02*
X133056247Y-70474285D01*
X133056247Y-70474285D02*
X133294342Y-70474285D01*
X133294342Y-70474285D02*
X133389580Y-70521904D01*
X133389580Y-70521904D02*
X133437200Y-70569523D01*
X133437200Y-70569523D02*
X133484819Y-70664761D01*
X133484819Y-70664761D02*
X133484819Y-70950475D01*
X133484819Y-70950475D02*
X133437200Y-71045713D01*
X133437200Y-71045713D02*
X133389580Y-71093332D01*
X132209580Y-77176666D02*
X132257200Y-77224285D01*
X132257200Y-77224285D02*
X132304819Y-77367142D01*
X132304819Y-77367142D02*
X132304819Y-77462380D01*
X132304819Y-77462380D02*
X132257200Y-77605237D01*
X132257200Y-77605237D02*
X132161961Y-77700475D01*
X132161961Y-77700475D02*
X132066723Y-77748094D01*
X132066723Y-77748094D02*
X131876247Y-77795713D01*
X131876247Y-77795713D02*
X131733390Y-77795713D01*
X131733390Y-77795713D02*
X131542914Y-77748094D01*
X131542914Y-77748094D02*
X131447676Y-77700475D01*
X131447676Y-77700475D02*
X131352438Y-77605237D01*
X131352438Y-77605237D02*
X131304819Y-77462380D01*
X131304819Y-77462380D02*
X131304819Y-77367142D01*
X131304819Y-77367142D02*
X131352438Y-77224285D01*
X131352438Y-77224285D02*
X131400057Y-77176666D01*
X132304819Y-76224285D02*
X132304819Y-76795713D01*
X132304819Y-76509999D02*
X131304819Y-76509999D01*
X131304819Y-76509999D02*
X131447676Y-76605237D01*
X131447676Y-76605237D02*
X131542914Y-76700475D01*
X131542914Y-76700475D02*
X131590533Y-76795713D01*
X168857142Y-100954819D02*
X168523809Y-100478628D01*
X168285714Y-100954819D02*
X168285714Y-99954819D01*
X168285714Y-99954819D02*
X168666666Y-99954819D01*
X168666666Y-99954819D02*
X168761904Y-100002438D01*
X168761904Y-100002438D02*
X168809523Y-100050057D01*
X168809523Y-100050057D02*
X168857142Y-100145295D01*
X168857142Y-100145295D02*
X168857142Y-100288152D01*
X168857142Y-100288152D02*
X168809523Y-100383390D01*
X168809523Y-100383390D02*
X168761904Y-100431009D01*
X168761904Y-100431009D02*
X168666666Y-100478628D01*
X168666666Y-100478628D02*
X168285714Y-100478628D01*
X169809523Y-100954819D02*
X169238095Y-100954819D01*
X169523809Y-100954819D02*
X169523809Y-99954819D01*
X169523809Y-99954819D02*
X169428571Y-100097676D01*
X169428571Y-100097676D02*
X169333333Y-100192914D01*
X169333333Y-100192914D02*
X169238095Y-100240533D01*
X170142857Y-99954819D02*
X170809523Y-99954819D01*
X170809523Y-99954819D02*
X170380952Y-100954819D01*
X167066486Y-93071189D02*
X166590295Y-93404522D01*
X167066486Y-93642617D02*
X166066486Y-93642617D01*
X166066486Y-93642617D02*
X166066486Y-93261665D01*
X166066486Y-93261665D02*
X166114105Y-93166427D01*
X166114105Y-93166427D02*
X166161724Y-93118808D01*
X166161724Y-93118808D02*
X166256962Y-93071189D01*
X166256962Y-93071189D02*
X166399819Y-93071189D01*
X166399819Y-93071189D02*
X166495057Y-93118808D01*
X166495057Y-93118808D02*
X166542676Y-93166427D01*
X166542676Y-93166427D02*
X166590295Y-93261665D01*
X166590295Y-93261665D02*
X166590295Y-93642617D01*
X167066486Y-92118808D02*
X167066486Y-92690236D01*
X167066486Y-92404522D02*
X166066486Y-92404522D01*
X166066486Y-92404522D02*
X166209343Y-92499760D01*
X166209343Y-92499760D02*
X166304581Y-92594998D01*
X166304581Y-92594998D02*
X166352200Y-92690236D01*
X166066486Y-91261665D02*
X166066486Y-91452141D01*
X166066486Y-91452141D02*
X166114105Y-91547379D01*
X166114105Y-91547379D02*
X166161724Y-91594998D01*
X166161724Y-91594998D02*
X166304581Y-91690236D01*
X166304581Y-91690236D02*
X166495057Y-91737855D01*
X166495057Y-91737855D02*
X166876009Y-91737855D01*
X166876009Y-91737855D02*
X166971247Y-91690236D01*
X166971247Y-91690236D02*
X167018867Y-91642617D01*
X167018867Y-91642617D02*
X167066486Y-91547379D01*
X167066486Y-91547379D02*
X167066486Y-91356903D01*
X167066486Y-91356903D02*
X167018867Y-91261665D01*
X167018867Y-91261665D02*
X166971247Y-91214046D01*
X166971247Y-91214046D02*
X166876009Y-91166427D01*
X166876009Y-91166427D02*
X166637914Y-91166427D01*
X166637914Y-91166427D02*
X166542676Y-91214046D01*
X166542676Y-91214046D02*
X166495057Y-91261665D01*
X166495057Y-91261665D02*
X166447438Y-91356903D01*
X166447438Y-91356903D02*
X166447438Y-91547379D01*
X166447438Y-91547379D02*
X166495057Y-91642617D01*
X166495057Y-91642617D02*
X166542676Y-91690236D01*
X166542676Y-91690236D02*
X166637914Y-91737855D01*
X175394580Y-85697489D02*
X175442200Y-85745108D01*
X175442200Y-85745108D02*
X175489819Y-85887965D01*
X175489819Y-85887965D02*
X175489819Y-85983203D01*
X175489819Y-85983203D02*
X175442200Y-86126060D01*
X175442200Y-86126060D02*
X175346961Y-86221298D01*
X175346961Y-86221298D02*
X175251723Y-86268917D01*
X175251723Y-86268917D02*
X175061247Y-86316536D01*
X175061247Y-86316536D02*
X174918390Y-86316536D01*
X174918390Y-86316536D02*
X174727914Y-86268917D01*
X174727914Y-86268917D02*
X174632676Y-86221298D01*
X174632676Y-86221298D02*
X174537438Y-86126060D01*
X174537438Y-86126060D02*
X174489819Y-85983203D01*
X174489819Y-85983203D02*
X174489819Y-85887965D01*
X174489819Y-85887965D02*
X174537438Y-85745108D01*
X174537438Y-85745108D02*
X174585057Y-85697489D01*
X174585057Y-85316536D02*
X174537438Y-85268917D01*
X174537438Y-85268917D02*
X174489819Y-85173679D01*
X174489819Y-85173679D02*
X174489819Y-84935584D01*
X174489819Y-84935584D02*
X174537438Y-84840346D01*
X174537438Y-84840346D02*
X174585057Y-84792727D01*
X174585057Y-84792727D02*
X174680295Y-84745108D01*
X174680295Y-84745108D02*
X174775533Y-84745108D01*
X174775533Y-84745108D02*
X174918390Y-84792727D01*
X174918390Y-84792727D02*
X175489819Y-85364155D01*
X175489819Y-85364155D02*
X175489819Y-84745108D01*
X175489819Y-83792727D02*
X175489819Y-84364155D01*
X175489819Y-84078441D02*
X174489819Y-84078441D01*
X174489819Y-84078441D02*
X174632676Y-84173679D01*
X174632676Y-84173679D02*
X174727914Y-84268917D01*
X174727914Y-84268917D02*
X174775533Y-84364155D01*
X164896667Y-94807200D02*
X165039524Y-94854819D01*
X165039524Y-94854819D02*
X165277619Y-94854819D01*
X165277619Y-94854819D02*
X165372857Y-94807200D01*
X165372857Y-94807200D02*
X165420476Y-94759580D01*
X165420476Y-94759580D02*
X165468095Y-94664342D01*
X165468095Y-94664342D02*
X165468095Y-94569104D01*
X165468095Y-94569104D02*
X165420476Y-94473866D01*
X165420476Y-94473866D02*
X165372857Y-94426247D01*
X165372857Y-94426247D02*
X165277619Y-94378628D01*
X165277619Y-94378628D02*
X165087143Y-94331009D01*
X165087143Y-94331009D02*
X164991905Y-94283390D01*
X164991905Y-94283390D02*
X164944286Y-94235771D01*
X164944286Y-94235771D02*
X164896667Y-94140533D01*
X164896667Y-94140533D02*
X164896667Y-94045295D01*
X164896667Y-94045295D02*
X164944286Y-93950057D01*
X164944286Y-93950057D02*
X164991905Y-93902438D01*
X164991905Y-93902438D02*
X165087143Y-93854819D01*
X165087143Y-93854819D02*
X165325238Y-93854819D01*
X165325238Y-93854819D02*
X165468095Y-93902438D01*
X165801429Y-93854819D02*
X166039524Y-94854819D01*
X166039524Y-94854819D02*
X166230000Y-94140533D01*
X166230000Y-94140533D02*
X166420476Y-94854819D01*
X166420476Y-94854819D02*
X166658572Y-93854819D01*
X166991905Y-93950057D02*
X167039524Y-93902438D01*
X167039524Y-93902438D02*
X167134762Y-93854819D01*
X167134762Y-93854819D02*
X167372857Y-93854819D01*
X167372857Y-93854819D02*
X167468095Y-93902438D01*
X167468095Y-93902438D02*
X167515714Y-93950057D01*
X167515714Y-93950057D02*
X167563333Y-94045295D01*
X167563333Y-94045295D02*
X167563333Y-94140533D01*
X167563333Y-94140533D02*
X167515714Y-94283390D01*
X167515714Y-94283390D02*
X166944286Y-94854819D01*
X166944286Y-94854819D02*
X167563333Y-94854819D01*
X136884819Y-93241904D02*
X137694342Y-93241904D01*
X137694342Y-93241904D02*
X137789580Y-93194285D01*
X137789580Y-93194285D02*
X137837200Y-93146666D01*
X137837200Y-93146666D02*
X137884819Y-93051428D01*
X137884819Y-93051428D02*
X137884819Y-92860952D01*
X137884819Y-92860952D02*
X137837200Y-92765714D01*
X137837200Y-92765714D02*
X137789580Y-92718095D01*
X137789580Y-92718095D02*
X137694342Y-92670476D01*
X137694342Y-92670476D02*
X136884819Y-92670476D01*
X136980057Y-92241904D02*
X136932438Y-92194285D01*
X136932438Y-92194285D02*
X136884819Y-92099047D01*
X136884819Y-92099047D02*
X136884819Y-91860952D01*
X136884819Y-91860952D02*
X136932438Y-91765714D01*
X136932438Y-91765714D02*
X136980057Y-91718095D01*
X136980057Y-91718095D02*
X137075295Y-91670476D01*
X137075295Y-91670476D02*
X137170533Y-91670476D01*
X137170533Y-91670476D02*
X137313390Y-91718095D01*
X137313390Y-91718095D02*
X137884819Y-92289523D01*
X137884819Y-92289523D02*
X137884819Y-91670476D01*
X133228333Y-88404819D02*
X132895000Y-87928628D01*
X132656905Y-88404819D02*
X132656905Y-87404819D01*
X132656905Y-87404819D02*
X133037857Y-87404819D01*
X133037857Y-87404819D02*
X133133095Y-87452438D01*
X133133095Y-87452438D02*
X133180714Y-87500057D01*
X133180714Y-87500057D02*
X133228333Y-87595295D01*
X133228333Y-87595295D02*
X133228333Y-87738152D01*
X133228333Y-87738152D02*
X133180714Y-87833390D01*
X133180714Y-87833390D02*
X133133095Y-87881009D01*
X133133095Y-87881009D02*
X133037857Y-87928628D01*
X133037857Y-87928628D02*
X132656905Y-87928628D01*
X133799762Y-87833390D02*
X133704524Y-87785771D01*
X133704524Y-87785771D02*
X133656905Y-87738152D01*
X133656905Y-87738152D02*
X133609286Y-87642914D01*
X133609286Y-87642914D02*
X133609286Y-87595295D01*
X133609286Y-87595295D02*
X133656905Y-87500057D01*
X133656905Y-87500057D02*
X133704524Y-87452438D01*
X133704524Y-87452438D02*
X133799762Y-87404819D01*
X133799762Y-87404819D02*
X133990238Y-87404819D01*
X133990238Y-87404819D02*
X134085476Y-87452438D01*
X134085476Y-87452438D02*
X134133095Y-87500057D01*
X134133095Y-87500057D02*
X134180714Y-87595295D01*
X134180714Y-87595295D02*
X134180714Y-87642914D01*
X134180714Y-87642914D02*
X134133095Y-87738152D01*
X134133095Y-87738152D02*
X134085476Y-87785771D01*
X134085476Y-87785771D02*
X133990238Y-87833390D01*
X133990238Y-87833390D02*
X133799762Y-87833390D01*
X133799762Y-87833390D02*
X133704524Y-87881009D01*
X133704524Y-87881009D02*
X133656905Y-87928628D01*
X133656905Y-87928628D02*
X133609286Y-88023866D01*
X133609286Y-88023866D02*
X133609286Y-88214342D01*
X133609286Y-88214342D02*
X133656905Y-88309580D01*
X133656905Y-88309580D02*
X133704524Y-88357200D01*
X133704524Y-88357200D02*
X133799762Y-88404819D01*
X133799762Y-88404819D02*
X133990238Y-88404819D01*
X133990238Y-88404819D02*
X134085476Y-88357200D01*
X134085476Y-88357200D02*
X134133095Y-88309580D01*
X134133095Y-88309580D02*
X134180714Y-88214342D01*
X134180714Y-88214342D02*
X134180714Y-88023866D01*
X134180714Y-88023866D02*
X134133095Y-87928628D01*
X134133095Y-87928628D02*
X134085476Y-87881009D01*
X134085476Y-87881009D02*
X133990238Y-87833390D01*
X165743333Y-81381485D02*
X165410000Y-80905294D01*
X165171905Y-81381485D02*
X165171905Y-80381485D01*
X165171905Y-80381485D02*
X165552857Y-80381485D01*
X165552857Y-80381485D02*
X165648095Y-80429104D01*
X165648095Y-80429104D02*
X165695714Y-80476723D01*
X165695714Y-80476723D02*
X165743333Y-80571961D01*
X165743333Y-80571961D02*
X165743333Y-80714818D01*
X165743333Y-80714818D02*
X165695714Y-80810056D01*
X165695714Y-80810056D02*
X165648095Y-80857675D01*
X165648095Y-80857675D02*
X165552857Y-80905294D01*
X165552857Y-80905294D02*
X165171905Y-80905294D01*
X166600476Y-80381485D02*
X166410000Y-80381485D01*
X166410000Y-80381485D02*
X166314762Y-80429104D01*
X166314762Y-80429104D02*
X166267143Y-80476723D01*
X166267143Y-80476723D02*
X166171905Y-80619580D01*
X166171905Y-80619580D02*
X166124286Y-80810056D01*
X166124286Y-80810056D02*
X166124286Y-81191008D01*
X166124286Y-81191008D02*
X166171905Y-81286246D01*
X166171905Y-81286246D02*
X166219524Y-81333866D01*
X166219524Y-81333866D02*
X166314762Y-81381485D01*
X166314762Y-81381485D02*
X166505238Y-81381485D01*
X166505238Y-81381485D02*
X166600476Y-81333866D01*
X166600476Y-81333866D02*
X166648095Y-81286246D01*
X166648095Y-81286246D02*
X166695714Y-81191008D01*
X166695714Y-81191008D02*
X166695714Y-80952913D01*
X166695714Y-80952913D02*
X166648095Y-80857675D01*
X166648095Y-80857675D02*
X166600476Y-80810056D01*
X166600476Y-80810056D02*
X166505238Y-80762437D01*
X166505238Y-80762437D02*
X166314762Y-80762437D01*
X166314762Y-80762437D02*
X166219524Y-80810056D01*
X166219524Y-80810056D02*
X166171905Y-80857675D01*
X166171905Y-80857675D02*
X166124286Y-80952913D01*
X168579819Y-93071189D02*
X168103628Y-93404522D01*
X168579819Y-93642617D02*
X167579819Y-93642617D01*
X167579819Y-93642617D02*
X167579819Y-93261665D01*
X167579819Y-93261665D02*
X167627438Y-93166427D01*
X167627438Y-93166427D02*
X167675057Y-93118808D01*
X167675057Y-93118808D02*
X167770295Y-93071189D01*
X167770295Y-93071189D02*
X167913152Y-93071189D01*
X167913152Y-93071189D02*
X168008390Y-93118808D01*
X168008390Y-93118808D02*
X168056009Y-93166427D01*
X168056009Y-93166427D02*
X168103628Y-93261665D01*
X168103628Y-93261665D02*
X168103628Y-93642617D01*
X168579819Y-92118808D02*
X168579819Y-92690236D01*
X168579819Y-92404522D02*
X167579819Y-92404522D01*
X167579819Y-92404522D02*
X167722676Y-92499760D01*
X167722676Y-92499760D02*
X167817914Y-92594998D01*
X167817914Y-92594998D02*
X167865533Y-92690236D01*
X167579819Y-91214046D02*
X167579819Y-91690236D01*
X167579819Y-91690236D02*
X168056009Y-91737855D01*
X168056009Y-91737855D02*
X168008390Y-91690236D01*
X168008390Y-91690236D02*
X167960771Y-91594998D01*
X167960771Y-91594998D02*
X167960771Y-91356903D01*
X167960771Y-91356903D02*
X168008390Y-91261665D01*
X168008390Y-91261665D02*
X168056009Y-91214046D01*
X168056009Y-91214046D02*
X168151247Y-91166427D01*
X168151247Y-91166427D02*
X168389342Y-91166427D01*
X168389342Y-91166427D02*
X168484580Y-91214046D01*
X168484580Y-91214046D02*
X168532200Y-91261665D01*
X168532200Y-91261665D02*
X168579819Y-91356903D01*
X168579819Y-91356903D02*
X168579819Y-91594998D01*
X168579819Y-91594998D02*
X168532200Y-91690236D01*
X168532200Y-91690236D02*
X168484580Y-91737855D01*
X136433333Y-81954819D02*
X136100000Y-81478628D01*
X135861905Y-81954819D02*
X135861905Y-80954819D01*
X135861905Y-80954819D02*
X136242857Y-80954819D01*
X136242857Y-80954819D02*
X136338095Y-81002438D01*
X136338095Y-81002438D02*
X136385714Y-81050057D01*
X136385714Y-81050057D02*
X136433333Y-81145295D01*
X136433333Y-81145295D02*
X136433333Y-81288152D01*
X136433333Y-81288152D02*
X136385714Y-81383390D01*
X136385714Y-81383390D02*
X136338095Y-81431009D01*
X136338095Y-81431009D02*
X136242857Y-81478628D01*
X136242857Y-81478628D02*
X135861905Y-81478628D01*
X136909524Y-81954819D02*
X137100000Y-81954819D01*
X137100000Y-81954819D02*
X137195238Y-81907200D01*
X137195238Y-81907200D02*
X137242857Y-81859580D01*
X137242857Y-81859580D02*
X137338095Y-81716723D01*
X137338095Y-81716723D02*
X137385714Y-81526247D01*
X137385714Y-81526247D02*
X137385714Y-81145295D01*
X137385714Y-81145295D02*
X137338095Y-81050057D01*
X137338095Y-81050057D02*
X137290476Y-81002438D01*
X137290476Y-81002438D02*
X137195238Y-80954819D01*
X137195238Y-80954819D02*
X137004762Y-80954819D01*
X137004762Y-80954819D02*
X136909524Y-81002438D01*
X136909524Y-81002438D02*
X136861905Y-81050057D01*
X136861905Y-81050057D02*
X136814286Y-81145295D01*
X136814286Y-81145295D02*
X136814286Y-81383390D01*
X136814286Y-81383390D02*
X136861905Y-81478628D01*
X136861905Y-81478628D02*
X136909524Y-81526247D01*
X136909524Y-81526247D02*
X137004762Y-81573866D01*
X137004762Y-81573866D02*
X137195238Y-81573866D01*
X137195238Y-81573866D02*
X137290476Y-81526247D01*
X137290476Y-81526247D02*
X137338095Y-81478628D01*
X137338095Y-81478628D02*
X137385714Y-81383390D01*
X164639580Y-87189523D02*
X164687200Y-87237142D01*
X164687200Y-87237142D02*
X164734819Y-87379999D01*
X164734819Y-87379999D02*
X164734819Y-87475237D01*
X164734819Y-87475237D02*
X164687200Y-87618094D01*
X164687200Y-87618094D02*
X164591961Y-87713332D01*
X164591961Y-87713332D02*
X164496723Y-87760951D01*
X164496723Y-87760951D02*
X164306247Y-87808570D01*
X164306247Y-87808570D02*
X164163390Y-87808570D01*
X164163390Y-87808570D02*
X163972914Y-87760951D01*
X163972914Y-87760951D02*
X163877676Y-87713332D01*
X163877676Y-87713332D02*
X163782438Y-87618094D01*
X163782438Y-87618094D02*
X163734819Y-87475237D01*
X163734819Y-87475237D02*
X163734819Y-87379999D01*
X163734819Y-87379999D02*
X163782438Y-87237142D01*
X163782438Y-87237142D02*
X163830057Y-87189523D01*
X163830057Y-86808570D02*
X163782438Y-86760951D01*
X163782438Y-86760951D02*
X163734819Y-86665713D01*
X163734819Y-86665713D02*
X163734819Y-86427618D01*
X163734819Y-86427618D02*
X163782438Y-86332380D01*
X163782438Y-86332380D02*
X163830057Y-86284761D01*
X163830057Y-86284761D02*
X163925295Y-86237142D01*
X163925295Y-86237142D02*
X164020533Y-86237142D01*
X164020533Y-86237142D02*
X164163390Y-86284761D01*
X164163390Y-86284761D02*
X164734819Y-86856189D01*
X164734819Y-86856189D02*
X164734819Y-86237142D01*
X163734819Y-85903808D02*
X163734819Y-85237142D01*
X163734819Y-85237142D02*
X164734819Y-85665713D01*
X135734819Y-72018094D02*
X134734819Y-72018094D01*
X134734819Y-72018094D02*
X134734819Y-71779999D01*
X134734819Y-71779999D02*
X134782438Y-71637142D01*
X134782438Y-71637142D02*
X134877676Y-71541904D01*
X134877676Y-71541904D02*
X134972914Y-71494285D01*
X134972914Y-71494285D02*
X135163390Y-71446666D01*
X135163390Y-71446666D02*
X135306247Y-71446666D01*
X135306247Y-71446666D02*
X135496723Y-71494285D01*
X135496723Y-71494285D02*
X135591961Y-71541904D01*
X135591961Y-71541904D02*
X135687200Y-71637142D01*
X135687200Y-71637142D02*
X135734819Y-71779999D01*
X135734819Y-71779999D02*
X135734819Y-72018094D01*
X134830057Y-71065713D02*
X134782438Y-71018094D01*
X134782438Y-71018094D02*
X134734819Y-70922856D01*
X134734819Y-70922856D02*
X134734819Y-70684761D01*
X134734819Y-70684761D02*
X134782438Y-70589523D01*
X134782438Y-70589523D02*
X134830057Y-70541904D01*
X134830057Y-70541904D02*
X134925295Y-70494285D01*
X134925295Y-70494285D02*
X135020533Y-70494285D01*
X135020533Y-70494285D02*
X135163390Y-70541904D01*
X135163390Y-70541904D02*
X135734819Y-71113332D01*
X135734819Y-71113332D02*
X135734819Y-70494285D01*
X163092914Y-87189523D02*
X163140534Y-87237142D01*
X163140534Y-87237142D02*
X163188153Y-87379999D01*
X163188153Y-87379999D02*
X163188153Y-87475237D01*
X163188153Y-87475237D02*
X163140534Y-87618094D01*
X163140534Y-87618094D02*
X163045295Y-87713332D01*
X163045295Y-87713332D02*
X162950057Y-87760951D01*
X162950057Y-87760951D02*
X162759581Y-87808570D01*
X162759581Y-87808570D02*
X162616724Y-87808570D01*
X162616724Y-87808570D02*
X162426248Y-87760951D01*
X162426248Y-87760951D02*
X162331010Y-87713332D01*
X162331010Y-87713332D02*
X162235772Y-87618094D01*
X162235772Y-87618094D02*
X162188153Y-87475237D01*
X162188153Y-87475237D02*
X162188153Y-87379999D01*
X162188153Y-87379999D02*
X162235772Y-87237142D01*
X162235772Y-87237142D02*
X162283391Y-87189523D01*
X162283391Y-86808570D02*
X162235772Y-86760951D01*
X162235772Y-86760951D02*
X162188153Y-86665713D01*
X162188153Y-86665713D02*
X162188153Y-86427618D01*
X162188153Y-86427618D02*
X162235772Y-86332380D01*
X162235772Y-86332380D02*
X162283391Y-86284761D01*
X162283391Y-86284761D02*
X162378629Y-86237142D01*
X162378629Y-86237142D02*
X162473867Y-86237142D01*
X162473867Y-86237142D02*
X162616724Y-86284761D01*
X162616724Y-86284761D02*
X163188153Y-86856189D01*
X163188153Y-86856189D02*
X163188153Y-86237142D01*
X162188153Y-85379999D02*
X162188153Y-85570475D01*
X162188153Y-85570475D02*
X162235772Y-85665713D01*
X162235772Y-85665713D02*
X162283391Y-85713332D01*
X162283391Y-85713332D02*
X162426248Y-85808570D01*
X162426248Y-85808570D02*
X162616724Y-85856189D01*
X162616724Y-85856189D02*
X162997676Y-85856189D01*
X162997676Y-85856189D02*
X163092914Y-85808570D01*
X163092914Y-85808570D02*
X163140534Y-85760951D01*
X163140534Y-85760951D02*
X163188153Y-85665713D01*
X163188153Y-85665713D02*
X163188153Y-85475237D01*
X163188153Y-85475237D02*
X163140534Y-85379999D01*
X163140534Y-85379999D02*
X163092914Y-85332380D01*
X163092914Y-85332380D02*
X162997676Y-85284761D01*
X162997676Y-85284761D02*
X162759581Y-85284761D01*
X162759581Y-85284761D02*
X162664343Y-85332380D01*
X162664343Y-85332380D02*
X162616724Y-85379999D01*
X162616724Y-85379999D02*
X162569105Y-85475237D01*
X162569105Y-85475237D02*
X162569105Y-85665713D01*
X162569105Y-85665713D02*
X162616724Y-85760951D01*
X162616724Y-85760951D02*
X162664343Y-85808570D01*
X162664343Y-85808570D02*
X162759581Y-85856189D01*
X131453333Y-93464819D02*
X131120000Y-92988628D01*
X130881905Y-93464819D02*
X130881905Y-92464819D01*
X130881905Y-92464819D02*
X131262857Y-92464819D01*
X131262857Y-92464819D02*
X131358095Y-92512438D01*
X131358095Y-92512438D02*
X131405714Y-92560057D01*
X131405714Y-92560057D02*
X131453333Y-92655295D01*
X131453333Y-92655295D02*
X131453333Y-92798152D01*
X131453333Y-92798152D02*
X131405714Y-92893390D01*
X131405714Y-92893390D02*
X131358095Y-92941009D01*
X131358095Y-92941009D02*
X131262857Y-92988628D01*
X131262857Y-92988628D02*
X130881905Y-92988628D01*
X132405714Y-93464819D02*
X131834286Y-93464819D01*
X132120000Y-93464819D02*
X132120000Y-92464819D01*
X132120000Y-92464819D02*
X132024762Y-92607676D01*
X132024762Y-92607676D02*
X131929524Y-92702914D01*
X131929524Y-92702914D02*
X131834286Y-92750533D01*
X130343333Y-95074819D02*
X129867143Y-95074819D01*
X129867143Y-95074819D02*
X129867143Y-94074819D01*
X131200476Y-95074819D02*
X130629048Y-95074819D01*
X130914762Y-95074819D02*
X130914762Y-94074819D01*
X130914762Y-94074819D02*
X130819524Y-94217676D01*
X130819524Y-94217676D02*
X130724286Y-94312914D01*
X130724286Y-94312914D02*
X130629048Y-94360533D01*
X166186246Y-87189523D02*
X166233866Y-87237142D01*
X166233866Y-87237142D02*
X166281485Y-87379999D01*
X166281485Y-87379999D02*
X166281485Y-87475237D01*
X166281485Y-87475237D02*
X166233866Y-87618094D01*
X166233866Y-87618094D02*
X166138627Y-87713332D01*
X166138627Y-87713332D02*
X166043389Y-87760951D01*
X166043389Y-87760951D02*
X165852913Y-87808570D01*
X165852913Y-87808570D02*
X165710056Y-87808570D01*
X165710056Y-87808570D02*
X165519580Y-87760951D01*
X165519580Y-87760951D02*
X165424342Y-87713332D01*
X165424342Y-87713332D02*
X165329104Y-87618094D01*
X165329104Y-87618094D02*
X165281485Y-87475237D01*
X165281485Y-87475237D02*
X165281485Y-87379999D01*
X165281485Y-87379999D02*
X165329104Y-87237142D01*
X165329104Y-87237142D02*
X165376723Y-87189523D01*
X165376723Y-86808570D02*
X165329104Y-86760951D01*
X165329104Y-86760951D02*
X165281485Y-86665713D01*
X165281485Y-86665713D02*
X165281485Y-86427618D01*
X165281485Y-86427618D02*
X165329104Y-86332380D01*
X165329104Y-86332380D02*
X165376723Y-86284761D01*
X165376723Y-86284761D02*
X165471961Y-86237142D01*
X165471961Y-86237142D02*
X165567199Y-86237142D01*
X165567199Y-86237142D02*
X165710056Y-86284761D01*
X165710056Y-86284761D02*
X166281485Y-86856189D01*
X166281485Y-86856189D02*
X166281485Y-86237142D01*
X165710056Y-85665713D02*
X165662437Y-85760951D01*
X165662437Y-85760951D02*
X165614818Y-85808570D01*
X165614818Y-85808570D02*
X165519580Y-85856189D01*
X165519580Y-85856189D02*
X165471961Y-85856189D01*
X165471961Y-85856189D02*
X165376723Y-85808570D01*
X165376723Y-85808570D02*
X165329104Y-85760951D01*
X165329104Y-85760951D02*
X165281485Y-85665713D01*
X165281485Y-85665713D02*
X165281485Y-85475237D01*
X165281485Y-85475237D02*
X165329104Y-85379999D01*
X165329104Y-85379999D02*
X165376723Y-85332380D01*
X165376723Y-85332380D02*
X165471961Y-85284761D01*
X165471961Y-85284761D02*
X165519580Y-85284761D01*
X165519580Y-85284761D02*
X165614818Y-85332380D01*
X165614818Y-85332380D02*
X165662437Y-85379999D01*
X165662437Y-85379999D02*
X165710056Y-85475237D01*
X165710056Y-85475237D02*
X165710056Y-85665713D01*
X165710056Y-85665713D02*
X165757675Y-85760951D01*
X165757675Y-85760951D02*
X165805294Y-85808570D01*
X165805294Y-85808570D02*
X165900532Y-85856189D01*
X165900532Y-85856189D02*
X166091008Y-85856189D01*
X166091008Y-85856189D02*
X166186246Y-85808570D01*
X166186246Y-85808570D02*
X166233866Y-85760951D01*
X166233866Y-85760951D02*
X166281485Y-85665713D01*
X166281485Y-85665713D02*
X166281485Y-85475237D01*
X166281485Y-85475237D02*
X166233866Y-85379999D01*
X166233866Y-85379999D02*
X166186246Y-85332380D01*
X166186246Y-85332380D02*
X166091008Y-85284761D01*
X166091008Y-85284761D02*
X165900532Y-85284761D01*
X165900532Y-85284761D02*
X165805294Y-85332380D01*
X165805294Y-85332380D02*
X165757675Y-85379999D01*
X165757675Y-85379999D02*
X165710056Y-85475237D01*
X163009580Y-97072857D02*
X163057200Y-97120476D01*
X163057200Y-97120476D02*
X163104819Y-97263333D01*
X163104819Y-97263333D02*
X163104819Y-97358571D01*
X163104819Y-97358571D02*
X163057200Y-97501428D01*
X163057200Y-97501428D02*
X162961961Y-97596666D01*
X162961961Y-97596666D02*
X162866723Y-97644285D01*
X162866723Y-97644285D02*
X162676247Y-97691904D01*
X162676247Y-97691904D02*
X162533390Y-97691904D01*
X162533390Y-97691904D02*
X162342914Y-97644285D01*
X162342914Y-97644285D02*
X162247676Y-97596666D01*
X162247676Y-97596666D02*
X162152438Y-97501428D01*
X162152438Y-97501428D02*
X162104819Y-97358571D01*
X162104819Y-97358571D02*
X162104819Y-97263333D01*
X162104819Y-97263333D02*
X162152438Y-97120476D01*
X162152438Y-97120476D02*
X162200057Y-97072857D01*
X162200057Y-96691904D02*
X162152438Y-96644285D01*
X162152438Y-96644285D02*
X162104819Y-96549047D01*
X162104819Y-96549047D02*
X162104819Y-96310952D01*
X162104819Y-96310952D02*
X162152438Y-96215714D01*
X162152438Y-96215714D02*
X162200057Y-96168095D01*
X162200057Y-96168095D02*
X162295295Y-96120476D01*
X162295295Y-96120476D02*
X162390533Y-96120476D01*
X162390533Y-96120476D02*
X162533390Y-96168095D01*
X162533390Y-96168095D02*
X163104819Y-96739523D01*
X163104819Y-96739523D02*
X163104819Y-96120476D01*
X162104819Y-95501428D02*
X162104819Y-95406190D01*
X162104819Y-95406190D02*
X162152438Y-95310952D01*
X162152438Y-95310952D02*
X162200057Y-95263333D01*
X162200057Y-95263333D02*
X162295295Y-95215714D01*
X162295295Y-95215714D02*
X162485771Y-95168095D01*
X162485771Y-95168095D02*
X162723866Y-95168095D01*
X162723866Y-95168095D02*
X162914342Y-95215714D01*
X162914342Y-95215714D02*
X163009580Y-95263333D01*
X163009580Y-95263333D02*
X163057200Y-95310952D01*
X163057200Y-95310952D02*
X163104819Y-95406190D01*
X163104819Y-95406190D02*
X163104819Y-95501428D01*
X163104819Y-95501428D02*
X163057200Y-95596666D01*
X163057200Y-95596666D02*
X163009580Y-95644285D01*
X163009580Y-95644285D02*
X162914342Y-95691904D01*
X162914342Y-95691904D02*
X162723866Y-95739523D01*
X162723866Y-95739523D02*
X162485771Y-95739523D01*
X162485771Y-95739523D02*
X162295295Y-95691904D01*
X162295295Y-95691904D02*
X162200057Y-95644285D01*
X162200057Y-95644285D02*
X162152438Y-95596666D01*
X162152438Y-95596666D02*
X162104819Y-95501428D01*
X170093152Y-93071189D02*
X169616961Y-93404522D01*
X170093152Y-93642617D02*
X169093152Y-93642617D01*
X169093152Y-93642617D02*
X169093152Y-93261665D01*
X169093152Y-93261665D02*
X169140771Y-93166427D01*
X169140771Y-93166427D02*
X169188390Y-93118808D01*
X169188390Y-93118808D02*
X169283628Y-93071189D01*
X169283628Y-93071189D02*
X169426485Y-93071189D01*
X169426485Y-93071189D02*
X169521723Y-93118808D01*
X169521723Y-93118808D02*
X169569342Y-93166427D01*
X169569342Y-93166427D02*
X169616961Y-93261665D01*
X169616961Y-93261665D02*
X169616961Y-93642617D01*
X170093152Y-92118808D02*
X170093152Y-92690236D01*
X170093152Y-92404522D02*
X169093152Y-92404522D01*
X169093152Y-92404522D02*
X169236009Y-92499760D01*
X169236009Y-92499760D02*
X169331247Y-92594998D01*
X169331247Y-92594998D02*
X169378866Y-92690236D01*
X169426485Y-91261665D02*
X170093152Y-91261665D01*
X169045533Y-91499760D02*
X169759818Y-91737855D01*
X169759818Y-91737855D02*
X169759818Y-91118808D01*
D13*
X129049420Y-90760000D02*
X129330580Y-90760000D01*
X129049420Y-91780000D02*
X129330580Y-91780000D01*
X166815000Y-83432752D02*
X166815000Y-83713912D01*
X167835000Y-83432752D02*
X167835000Y-83713912D01*
X170890000Y-96459420D02*
X170890000Y-96740580D01*
X171910000Y-96459420D02*
X171910000Y-96740580D01*
X170215580Y-82563332D02*
X169934420Y-82563332D01*
X170215580Y-83583332D02*
X169934420Y-83583332D01*
D10*
X132790000Y-83890000D02*
G75*
G02*
X132590000Y-83890000I-100000J0D01*
G01*
X132590000Y-83890000D02*
G75*
G02*
X132790000Y-83890000I100000J0D01*
G01*
D14*
X139150000Y-79230000D02*
X139150000Y-79230000D01*
X139250000Y-79230000D02*
X139250000Y-79230000D01*
D10*
X140250000Y-71780000D02*
X158250000Y-71780000D01*
X140250000Y-78580000D02*
X140250000Y-71780000D01*
X140250000Y-96580000D02*
X140250000Y-97280000D01*
X140250000Y-97280000D02*
X141485000Y-97280000D01*
X156885000Y-97280000D02*
X158250000Y-97280000D01*
X158250000Y-71780000D02*
X158250000Y-78580000D01*
X158250000Y-97280000D02*
X158250000Y-96580000D01*
D14*
X139150000Y-79230000D02*
G75*
G02*
X139250000Y-79230000I50000J0D01*
G01*
X139250000Y-79230000D02*
G75*
G02*
X139150000Y-79230000I-50000J0D01*
G01*
D13*
X160500000Y-72990000D02*
X160500000Y-71660000D01*
X161830000Y-72990000D02*
X160500000Y-72990000D01*
X163100000Y-70330000D02*
X175860000Y-70330000D01*
X163100000Y-72990000D02*
X163100000Y-70330000D01*
X163100000Y-72990000D02*
X175860000Y-72990000D01*
X175860000Y-72990000D02*
X175860000Y-70330000D01*
X135235000Y-83817500D02*
X134435000Y-83817500D01*
X135235000Y-83817500D02*
X136035000Y-83817500D01*
X135235000Y-86937500D02*
X134435000Y-86937500D01*
X135235000Y-86937500D02*
X136035000Y-86937500D01*
X133935000Y-83867500D02*
X133695000Y-83537500D01*
X134175000Y-83537500D01*
X133935000Y-83867500D01*
G36*
X133935000Y-83867500D02*
G01*
X133695000Y-83537500D01*
X134175000Y-83537500D01*
X133935000Y-83867500D01*
G37*
X136150000Y-72232500D02*
X136150000Y-74917500D01*
X138070000Y-72232500D02*
X136150000Y-72232500D01*
X138070000Y-74917500D02*
X138070000Y-72232500D01*
X170215580Y-79470000D02*
X169934420Y-79470000D01*
X170215580Y-80490000D02*
X169934420Y-80490000D01*
X170679166Y-89815590D02*
X170679166Y-89341074D01*
X171724166Y-89815590D02*
X171724166Y-89341074D01*
X170215580Y-81016666D02*
X169934420Y-81016666D01*
X170215580Y-82036666D02*
X169934420Y-82036666D01*
X172480000Y-95860000D02*
X172780000Y-95860000D01*
X172480000Y-99160000D02*
X172480000Y-95860000D01*
X172780000Y-99160000D02*
X172480000Y-99160000D01*
X174980000Y-99160000D02*
X175280000Y-99160000D01*
X175280000Y-95860000D02*
X174980000Y-95860000D01*
X175280000Y-99160000D02*
X175280000Y-95860000D01*
X163162742Y-79114166D02*
X163637258Y-79114166D01*
X163162742Y-80159166D02*
X163637258Y-80159166D01*
X168438600Y-84307232D02*
X168438600Y-84522617D01*
X168438600Y-86936647D02*
X168438600Y-87152032D01*
X168438600Y-87152032D02*
X169157987Y-87152032D01*
X169157987Y-84307232D02*
X168438600Y-84307232D01*
X171072013Y-87152032D02*
X171791400Y-87152032D01*
X171791400Y-84307232D02*
X171072013Y-84307232D01*
X171791400Y-84522617D02*
X171791400Y-84307232D01*
X171791400Y-87152032D02*
X171791400Y-86936647D01*
D15*
X172186623Y-86499632D02*
G75*
G02*
X172123377Y-86499632I-31623J0D01*
G01*
X172123377Y-86499632D02*
G75*
G02*
X172186623Y-86499632I31623J0D01*
G01*
D13*
X170215580Y-77923332D02*
X169934420Y-77923332D01*
X170215580Y-78943332D02*
X169934420Y-78943332D01*
X136735000Y-78121252D02*
X136735000Y-77598748D01*
X138205000Y-78121252D02*
X138205000Y-77598748D01*
X131600000Y-72240000D02*
X131600000Y-74925000D01*
X133520000Y-72240000D02*
X131600000Y-72240000D01*
X133520000Y-74925000D02*
X133520000Y-72240000D01*
X134270000Y-79171252D02*
X134270000Y-77748748D01*
X136090000Y-79171252D02*
X136090000Y-77748748D01*
X168977500Y-98562258D02*
X168977500Y-98087742D01*
X170022500Y-98562258D02*
X170022500Y-98087742D01*
X166049166Y-89321074D02*
X166049166Y-89795590D01*
X167094166Y-89321074D02*
X167094166Y-89795590D01*
X173075000Y-85345212D02*
X173075000Y-85064052D01*
X174095000Y-85345212D02*
X174095000Y-85064052D01*
X165120000Y-95860000D02*
X165420000Y-95860000D01*
X165120000Y-99160000D02*
X165120000Y-95860000D01*
X165420000Y-99160000D02*
X165120000Y-99160000D01*
X167620000Y-99160000D02*
X167920000Y-99160000D01*
X167920000Y-95860000D02*
X167620000Y-95860000D01*
X167920000Y-99160000D02*
X167920000Y-95860000D01*
D16*
X133070000Y-90380000D02*
X133650000Y-90380000D01*
X133070000Y-90440000D02*
X133070000Y-90380000D01*
X133070000Y-92880000D02*
X133070000Y-92820000D01*
X133070000Y-92880000D02*
X133650000Y-92880000D01*
X136070000Y-90380000D02*
X135490000Y-90380000D01*
X136070000Y-90380000D02*
X136070000Y-90440000D01*
X136070000Y-92820000D02*
X136070000Y-92880000D01*
X136070000Y-92880000D02*
X135490000Y-92880000D01*
D10*
X134180000Y-93630000D02*
G75*
G02*
X133980000Y-93630000I-100000J0D01*
G01*
X133980000Y-93630000D02*
G75*
G02*
X134180000Y-93630000I100000J0D01*
G01*
D13*
X135587742Y-87397500D02*
X136062258Y-87397500D01*
X135587742Y-88442500D02*
X136062258Y-88442500D01*
X163182742Y-80694166D02*
X163657258Y-80694166D01*
X163182742Y-81739166D02*
X163657258Y-81739166D01*
X167592500Y-89321074D02*
X167592500Y-89795590D01*
X168637500Y-89321074D02*
X168637500Y-89795590D01*
X135602742Y-82317500D02*
X136077258Y-82317500D01*
X135602742Y-83362500D02*
X136077258Y-83362500D01*
X163715000Y-83713912D02*
X163715000Y-83432752D01*
X164735000Y-83713912D02*
X164735000Y-83432752D01*
X133830000Y-72240000D02*
X133830000Y-74925000D01*
X135750000Y-72240000D02*
X133830000Y-72240000D01*
X135750000Y-74925000D02*
X135750000Y-72240000D01*
X162165000Y-83713912D02*
X162165000Y-83432752D01*
X163185000Y-83713912D02*
X163185000Y-83432752D01*
X129427258Y-92277500D02*
X128952742Y-92277500D01*
X129427258Y-93322500D02*
X128952742Y-93322500D01*
D12*
X133915000Y-94090000D02*
X135315000Y-94090000D01*
X133915000Y-100090000D02*
X135315000Y-100090000D01*
D13*
X165265000Y-83713912D02*
X165265000Y-83432752D01*
X166285000Y-83713912D02*
X166285000Y-83432752D01*
X163540000Y-96449420D02*
X163540000Y-96730580D01*
X164560000Y-96449420D02*
X164560000Y-96730580D01*
X169135833Y-89321074D02*
X169135833Y-89795590D01*
X170180833Y-89321074D02*
X170180833Y-89795590D01*
M02*
