G04 #@! TF.GenerationSoftware,KiCad,Pcbnew,9.0.0*
G04 #@! TF.CreationDate,2025-02-24T19:41:20+01:00*
G04 #@! TF.ProjectId,SourceFIle,536f7572-6365-4464-996c-652e6b696361,02*
G04 #@! TF.SameCoordinates,Original*
G04 #@! TF.FileFunction,Copper,L2,Inr*
G04 #@! TF.FilePolarity,Positive*
%FSLAX46Y46*%
G04 Gerber Fmt 4.6, Leading zero omitted, Abs format (unit mm)*
G04 Created by KiCad (PCBNEW 9.0.0) date 2025-02-24 19:41:20*
%MOMM*%
%LPD*%
G01*
G04 APERTURE LIST*
G04 #@! TA.AperFunction,ComponentPad*
%ADD10R,1.700000X1.700000*%
G04 #@! TD*
G04 #@! TA.AperFunction,ComponentPad*
%ADD11O,1.700000X1.700000*%
G04 #@! TD*
G04 #@! TA.AperFunction,ViaPad*
%ADD12C,0.600000*%
G04 #@! TD*
G04 APERTURE END LIST*
D10*
X161830000Y-71660000D03*
D11*
X164370000Y-71660000D03*
X166910000Y-71660000D03*
X169450000Y-71660000D03*
X171990000Y-71660000D03*
X174530000Y-71660000D03*
D12*
X130920000Y-76550000D03*
X146230000Y-84280000D03*
X151580000Y-83470000D03*
X171400000Y-98640000D03*
X148450000Y-89640000D03*
X144810000Y-86037000D03*
X135010000Y-71300000D03*
X150840000Y-86080000D03*
X167100000Y-78840000D03*
X141760000Y-90850000D03*
X135065797Y-86945000D03*
X147050000Y-89640000D03*
X150820000Y-84270000D03*
X136190000Y-81450000D03*
X168180000Y-80570000D03*
X149250000Y-84250000D03*
X134760000Y-75900000D03*
X132370000Y-71290000D03*
X134610000Y-89690000D03*
X151630000Y-86950000D03*
X145550000Y-83460000D03*
X150840000Y-87710000D03*
X144810000Y-87700000D03*
X147670000Y-84250000D03*
X133650000Y-75900000D03*
X131640000Y-76130000D03*
X128140000Y-93890000D03*
X135960000Y-72180000D03*
X167640000Y-79730000D03*
X146820000Y-83420000D03*
X130330000Y-86630000D03*
X128550000Y-94520000D03*
X148540000Y-83440000D03*
X144830000Y-89660000D03*
X151640000Y-88760000D03*
X137370000Y-71310000D03*
X168170000Y-78850000D03*
X150790000Y-89650000D03*
X166510000Y-100370000D03*
X159450000Y-79300000D03*
X150160000Y-83470000D03*
X164040000Y-98440000D03*
X130930000Y-77430000D03*
X130940000Y-75700000D03*
X138300000Y-88570000D03*
X174790000Y-84430000D03*
X133650000Y-72150000D03*
X173890000Y-100470000D03*
X132590000Y-75890000D03*
X161370000Y-82580000D03*
X151610000Y-85230000D03*
X144820000Y-84290000D03*
X167640000Y-81500000D03*
X127790000Y-94530000D03*
X131600000Y-77010000D03*
X167100000Y-80520000D03*
X137770000Y-87160000D03*
X137430000Y-91490000D03*
X136990000Y-90850000D03*
X138390000Y-91500000D03*
X138830000Y-90860000D03*
X135700000Y-90120000D03*
X137880000Y-90860000D03*
X163510000Y-85860000D03*
X172300000Y-78880000D03*
X170500000Y-100000000D03*
X175040000Y-81270000D03*
X176100000Y-85880000D03*
X132140000Y-91990000D03*
X174940000Y-85890000D03*
X172970000Y-80060000D03*
X172970000Y-82330000D03*
X136610000Y-80650000D03*
X173600000Y-78880000D03*
X132140000Y-91190000D03*
X132040000Y-80030000D03*
X161110000Y-85840000D03*
X174990000Y-78870000D03*
X132140000Y-90390000D03*
X162340000Y-85850000D03*
X132150000Y-92800000D03*
X174990000Y-87800000D03*
X174310000Y-82300000D03*
X176090000Y-87820000D03*
X167000000Y-76310000D03*
X172310000Y-81320000D03*
X174290000Y-80100000D03*
X137370000Y-80080000D03*
X133580000Y-80650000D03*
X161120000Y-84540000D03*
X175570000Y-86860000D03*
X164630000Y-85880000D03*
X132940000Y-80060000D03*
X163810000Y-75870000D03*
X132490000Y-80640000D03*
X173590000Y-81320000D03*
X162170000Y-95520000D03*
X138270000Y-81060000D03*
X137420000Y-75910000D03*
X136130000Y-75870000D03*
X138220000Y-75560000D03*
X162060000Y-92600000D03*
X154780000Y-92590000D03*
X154780000Y-93980000D03*
X162080000Y-93980000D03*
X138980000Y-87940000D03*
X143030000Y-92820000D03*
X163000000Y-94660000D03*
X154070000Y-94660000D03*
X143980000Y-93390000D03*
X138990000Y-86820000D03*
X142000000Y-84360000D03*
X165270000Y-89230000D03*
X161290000Y-88260000D03*
X172280000Y-84620000D03*
X152310000Y-91020000D03*
X142610000Y-83610000D03*
X154080000Y-93260000D03*
X164040000Y-93930000D03*
X142600000Y-85050000D03*
X160540000Y-87430000D03*
X155010000Y-89660000D03*
X133500000Y-89590000D03*
X132850000Y-88950000D03*
G04 #@! TA.AperFunction,Conductor*
G36*
X177814749Y-69618721D02*
G01*
X178069381Y-69634127D01*
X178099213Y-69637750D01*
X178342734Y-69682379D01*
X178371897Y-69689567D01*
X178608272Y-69763227D01*
X178636363Y-69773881D01*
X178862137Y-69875495D01*
X178888737Y-69889456D01*
X179100603Y-70017535D01*
X179125337Y-70034607D01*
X179320220Y-70187289D01*
X179342717Y-70207219D01*
X179517780Y-70382282D01*
X179537711Y-70404780D01*
X179690389Y-70599659D01*
X179707464Y-70624396D01*
X179835540Y-70836257D01*
X179849507Y-70862868D01*
X179937308Y-71057951D01*
X179959131Y-71152621D01*
X179943064Y-71248439D01*
X179891553Y-71330814D01*
X179812439Y-71387206D01*
X179717767Y-71409029D01*
X179621949Y-71392962D01*
X179563885Y-71361587D01*
X179486660Y-71305479D01*
X179486657Y-71305477D01*
X179486655Y-71305476D01*
X179311275Y-71216116D01*
X179311274Y-71216115D01*
X179311273Y-71216115D01*
X179311267Y-71216113D01*
X179166258Y-71168997D01*
X179124076Y-71155291D01*
X179124074Y-71155290D01*
X179124072Y-71155290D01*
X178929678Y-71124501D01*
X178929669Y-71124500D01*
X178929667Y-71124500D01*
X178732833Y-71124500D01*
X178732830Y-71124500D01*
X178732821Y-71124501D01*
X178538427Y-71155290D01*
X178351232Y-71216113D01*
X178351226Y-71216115D01*
X178287787Y-71248439D01*
X178175845Y-71305476D01*
X178175842Y-71305477D01*
X178175840Y-71305479D01*
X178175839Y-71305479D01*
X178016607Y-71421169D01*
X177877419Y-71560357D01*
X177761729Y-71719589D01*
X177761729Y-71719590D01*
X177761727Y-71719592D01*
X177761726Y-71719595D01*
X177737931Y-71766296D01*
X177672365Y-71894976D01*
X177672363Y-71894982D01*
X177611540Y-72082177D01*
X177580751Y-72276571D01*
X177580750Y-72276587D01*
X177580750Y-72473412D01*
X177580751Y-72473428D01*
X177611540Y-72667822D01*
X177611541Y-72667826D01*
X177634366Y-72738073D01*
X177659377Y-72815051D01*
X177672366Y-72855025D01*
X177761726Y-73030405D01*
X177761729Y-73030409D01*
X177761729Y-73030410D01*
X177869616Y-73178902D01*
X177877422Y-73189646D01*
X178016604Y-73328828D01*
X178175845Y-73444524D01*
X178351225Y-73533884D01*
X178538424Y-73594709D01*
X178732833Y-73625500D01*
X178732837Y-73625500D01*
X178929663Y-73625500D01*
X178929667Y-73625500D01*
X179124076Y-73594709D01*
X179311275Y-73533884D01*
X179486655Y-73444524D01*
X179645896Y-73328828D01*
X179681378Y-73293345D01*
X179762153Y-73239373D01*
X179857441Y-73220418D01*
X179952729Y-73239371D01*
X180033512Y-73293346D01*
X180087489Y-73374127D01*
X180106444Y-73469415D01*
X180106444Y-73469464D01*
X180102217Y-96276400D01*
X180083245Y-96371685D01*
X180029254Y-96452456D01*
X179948463Y-96506418D01*
X179853171Y-96525354D01*
X179757886Y-96506382D01*
X179677150Y-96452426D01*
X179645896Y-96421172D01*
X179645892Y-96421169D01*
X179486660Y-96305479D01*
X179486657Y-96305477D01*
X179486655Y-96305476D01*
X179311275Y-96216116D01*
X179311274Y-96216115D01*
X179311273Y-96216115D01*
X179311267Y-96216113D01*
X179204178Y-96181318D01*
X179124076Y-96155291D01*
X179124074Y-96155290D01*
X179124072Y-96155290D01*
X178929678Y-96124501D01*
X178929669Y-96124500D01*
X178929667Y-96124500D01*
X178732833Y-96124500D01*
X178732830Y-96124500D01*
X178732821Y-96124501D01*
X178538427Y-96155290D01*
X178351232Y-96216113D01*
X178351226Y-96216115D01*
X178325167Y-96229393D01*
X178175845Y-96305476D01*
X178175842Y-96305477D01*
X178175840Y-96305479D01*
X178175839Y-96305479D01*
X178016607Y-96421169D01*
X177877419Y-96560357D01*
X177761729Y-96719589D01*
X177761729Y-96719590D01*
X177672365Y-96894976D01*
X177672363Y-96894982D01*
X177611540Y-97082177D01*
X177580751Y-97276571D01*
X177580750Y-97276587D01*
X177580750Y-97473412D01*
X177580751Y-97473428D01*
X177611540Y-97667822D01*
X177611541Y-97667826D01*
X177672366Y-97855025D01*
X177761726Y-98030405D01*
X177761729Y-98030409D01*
X177761729Y-98030410D01*
X177858015Y-98162935D01*
X177877422Y-98189646D01*
X178016604Y-98328828D01*
X178016607Y-98328830D01*
X178150651Y-98426220D01*
X178175845Y-98444524D01*
X178351225Y-98533884D01*
X178538424Y-98594709D01*
X178732833Y-98625500D01*
X178732837Y-98625500D01*
X178929663Y-98625500D01*
X178929667Y-98625500D01*
X179124076Y-98594709D01*
X179311275Y-98533884D01*
X179486655Y-98444524D01*
X179645896Y-98328828D01*
X179676741Y-98297982D01*
X179676757Y-98297971D01*
X179676767Y-98297956D01*
X179676779Y-98297944D01*
X179718621Y-98269998D01*
X179757519Y-98244007D01*
X179757543Y-98244002D01*
X179757565Y-98243988D01*
X179804978Y-98234566D01*
X179852807Y-98225052D01*
X179852831Y-98225056D01*
X179852857Y-98225052D01*
X179900726Y-98234583D01*
X179948095Y-98244005D01*
X179948115Y-98244019D01*
X179948141Y-98244024D01*
X179989931Y-98271958D01*
X180028877Y-98297980D01*
X180028890Y-98297999D01*
X180028913Y-98298015D01*
X180056863Y-98339863D01*
X180082855Y-98378761D01*
X180082859Y-98378785D01*
X180082874Y-98378807D01*
X180092295Y-98426220D01*
X180101810Y-98474049D01*
X180101810Y-98474099D01*
X180101743Y-98831166D01*
X180101734Y-98831272D01*
X180101733Y-98884702D01*
X180101279Y-98899730D01*
X180085873Y-99154372D01*
X180082248Y-99184221D01*
X180037623Y-99427720D01*
X180030427Y-99456915D01*
X179956774Y-99693266D01*
X179946112Y-99721378D01*
X179856198Y-99921158D01*
X179844514Y-99947118D01*
X179830540Y-99973742D01*
X179702464Y-100185603D01*
X179685384Y-100210348D01*
X179532719Y-100405210D01*
X179512780Y-100427717D01*
X179337717Y-100602780D01*
X179315210Y-100622719D01*
X179120348Y-100775384D01*
X179095603Y-100792464D01*
X178883742Y-100920540D01*
X178857124Y-100934510D01*
X178631379Y-101036112D01*
X178603266Y-101046774D01*
X178438514Y-101098115D01*
X178372130Y-101118802D01*
X178366915Y-101120427D01*
X178337720Y-101127623D01*
X178094221Y-101172248D01*
X178064372Y-101175873D01*
X177809734Y-101191279D01*
X177794697Y-101191733D01*
X170966517Y-101191733D01*
X170871229Y-101172779D01*
X170790447Y-101118803D01*
X170736471Y-101038021D01*
X170717517Y-100942733D01*
X170736471Y-100847445D01*
X170790447Y-100766663D01*
X170871229Y-100712687D01*
X170871399Y-100712616D01*
X170879179Y-100709394D01*
X171010289Y-100621789D01*
X171121789Y-100510289D01*
X171209394Y-100379179D01*
X171269737Y-100233497D01*
X171300500Y-100078842D01*
X171300500Y-99921158D01*
X171269737Y-99766503D01*
X171209394Y-99620821D01*
X171121789Y-99489711D01*
X171010289Y-99378211D01*
X171010285Y-99378208D01*
X170879180Y-99290606D01*
X170879173Y-99290603D01*
X170733497Y-99230263D01*
X170733492Y-99230261D01*
X170578846Y-99199500D01*
X170578842Y-99199500D01*
X170421158Y-99199500D01*
X170421153Y-99199500D01*
X170266507Y-99230261D01*
X170266502Y-99230263D01*
X170120826Y-99290603D01*
X170120819Y-99290606D01*
X169989714Y-99378208D01*
X169878208Y-99489714D01*
X169790606Y-99620819D01*
X169790603Y-99620826D01*
X169730263Y-99766502D01*
X169730261Y-99766507D01*
X169699500Y-99921153D01*
X169699500Y-100078846D01*
X169730261Y-100233492D01*
X169730263Y-100233497D01*
X169790603Y-100379173D01*
X169790606Y-100379180D01*
X169823038Y-100427717D01*
X169878211Y-100510289D01*
X169989711Y-100621789D01*
X169989714Y-100621791D01*
X170120819Y-100709393D01*
X170120821Y-100709394D01*
X170128517Y-100712581D01*
X170128771Y-100712687D01*
X170209552Y-100766663D01*
X170263529Y-100847445D01*
X170282483Y-100942733D01*
X170263529Y-101038021D01*
X170209553Y-101118802D01*
X170128771Y-101172779D01*
X170033483Y-101191733D01*
X129765303Y-101191733D01*
X129750266Y-101191279D01*
X129495627Y-101175873D01*
X129465778Y-101172248D01*
X129222279Y-101127623D01*
X129193090Y-101120428D01*
X129044533Y-101074134D01*
X128956733Y-101046774D01*
X128928627Y-101036114D01*
X128702868Y-100934507D01*
X128676257Y-100920540D01*
X128464396Y-100792464D01*
X128439659Y-100775389D01*
X128244780Y-100622711D01*
X128222282Y-100602780D01*
X128047219Y-100427717D01*
X128027289Y-100405220D01*
X127874607Y-100210337D01*
X127857535Y-100185603D01*
X127729456Y-99973737D01*
X127715495Y-99947137D01*
X127613881Y-99721363D01*
X127603225Y-99693266D01*
X127580651Y-99620826D01*
X127529567Y-99456897D01*
X127522379Y-99427734D01*
X127477750Y-99184213D01*
X127474127Y-99154381D01*
X127458723Y-98899776D01*
X127458270Y-98884595D01*
X127458291Y-98852291D01*
X127458572Y-98411772D01*
X127477587Y-98316500D01*
X127531615Y-98235753D01*
X127612431Y-98181828D01*
X127707731Y-98162935D01*
X127803007Y-98181950D01*
X127883638Y-98235862D01*
X127976604Y-98328828D01*
X127976607Y-98328830D01*
X128110651Y-98426220D01*
X128135845Y-98444524D01*
X128311225Y-98533884D01*
X128498424Y-98594709D01*
X128692833Y-98625500D01*
X128692837Y-98625500D01*
X128889663Y-98625500D01*
X128889667Y-98625500D01*
X129084076Y-98594709D01*
X129271275Y-98533884D01*
X129446655Y-98444524D01*
X129605896Y-98328828D01*
X129745078Y-98189646D01*
X129860774Y-98030405D01*
X129950134Y-97855025D01*
X130010959Y-97667826D01*
X130041750Y-97473417D01*
X130041750Y-97276583D01*
X130010959Y-97082174D01*
X129950134Y-96894975D01*
X129860774Y-96719595D01*
X129745078Y-96560354D01*
X129605896Y-96421172D01*
X129605892Y-96421169D01*
X129446660Y-96305479D01*
X129446657Y-96305477D01*
X129446655Y-96305476D01*
X129271275Y-96216116D01*
X129271274Y-96216115D01*
X129271273Y-96216115D01*
X129271267Y-96216113D01*
X129164178Y-96181318D01*
X129084076Y-96155291D01*
X129084074Y-96155290D01*
X129084072Y-96155290D01*
X128889678Y-96124501D01*
X128889669Y-96124500D01*
X128889667Y-96124500D01*
X128692833Y-96124500D01*
X128692830Y-96124500D01*
X128692821Y-96124501D01*
X128498427Y-96155290D01*
X128311232Y-96216113D01*
X128311226Y-96216115D01*
X128285167Y-96229393D01*
X128135845Y-96305476D01*
X128135842Y-96305477D01*
X128135840Y-96305479D01*
X128135839Y-96305479D01*
X127976603Y-96421172D01*
X127884967Y-96512808D01*
X127804185Y-96566784D01*
X127708897Y-96585738D01*
X127613609Y-96566784D01*
X127532828Y-96512807D01*
X127478852Y-96432025D01*
X127459898Y-96336740D01*
X127461020Y-94581153D01*
X153269500Y-94581153D01*
X153269500Y-94738846D01*
X153300261Y-94893492D01*
X153300263Y-94893497D01*
X153360603Y-95039173D01*
X153360606Y-95039180D01*
X153428521Y-95140821D01*
X153448211Y-95170289D01*
X153559711Y-95281789D01*
X153559714Y-95281791D01*
X153690819Y-95369393D01*
X153690820Y-95369393D01*
X153690821Y-95369394D01*
X153836503Y-95429737D01*
X153836505Y-95429737D01*
X153836507Y-95429738D01*
X153987148Y-95459702D01*
X153991158Y-95460500D01*
X154148842Y-95460500D01*
X154303497Y-95429737D01*
X154449179Y-95369394D01*
X154580289Y-95281789D01*
X154691789Y-95170289D01*
X154779394Y-95039179D01*
X154838098Y-94897452D01*
X154892071Y-94816677D01*
X154972852Y-94762700D01*
X155001966Y-94753869D01*
X155001790Y-94753288D01*
X155013486Y-94749739D01*
X155013497Y-94749737D01*
X155159179Y-94689394D01*
X155290289Y-94601789D01*
X155401789Y-94490289D01*
X155489394Y-94359179D01*
X155549737Y-94213497D01*
X155580500Y-94058842D01*
X155580500Y-93901158D01*
X155576647Y-93881789D01*
X155549738Y-93746507D01*
X155549737Y-93746505D01*
X155549737Y-93746503D01*
X155489394Y-93600821D01*
X155481987Y-93589736D01*
X155401791Y-93469714D01*
X155401789Y-93469711D01*
X155393144Y-93461066D01*
X155339171Y-93380288D01*
X155320217Y-93285000D01*
X155339171Y-93189712D01*
X155393144Y-93108933D01*
X155401789Y-93100289D01*
X155489394Y-92969179D01*
X155549737Y-92823497D01*
X155580500Y-92668842D01*
X155580500Y-92521153D01*
X161259500Y-92521153D01*
X161259500Y-92678846D01*
X161290261Y-92833492D01*
X161290263Y-92833497D01*
X161350603Y-92979173D01*
X161350606Y-92979180D01*
X161431529Y-93100289D01*
X161438211Y-93110289D01*
X161451855Y-93123933D01*
X161505829Y-93204712D01*
X161524783Y-93300000D01*
X161505829Y-93395288D01*
X161463676Y-93458374D01*
X161465970Y-93460257D01*
X161458210Y-93469712D01*
X161370606Y-93600819D01*
X161370603Y-93600826D01*
X161310263Y-93746502D01*
X161310261Y-93746507D01*
X161279500Y-93901153D01*
X161279500Y-94058846D01*
X161310261Y-94213492D01*
X161310263Y-94213497D01*
X161370603Y-94359173D01*
X161370606Y-94359180D01*
X161415593Y-94426507D01*
X161458211Y-94490289D01*
X161569711Y-94601789D01*
X161569714Y-94601791D01*
X161578361Y-94610438D01*
X161577485Y-94611313D01*
X161631215Y-94676781D01*
X161659420Y-94769752D01*
X161649898Y-94866439D01*
X161604102Y-94952123D01*
X161587690Y-94970231D01*
X161548212Y-95009709D01*
X161548210Y-95009712D01*
X161460606Y-95140819D01*
X161460603Y-95140826D01*
X161400263Y-95286502D01*
X161400261Y-95286507D01*
X161369500Y-95441153D01*
X161369500Y-95598846D01*
X161400261Y-95753492D01*
X161400263Y-95753497D01*
X161460603Y-95899173D01*
X161460606Y-95899180D01*
X161548208Y-96030285D01*
X161548211Y-96030289D01*
X161659711Y-96141789D01*
X161659714Y-96141791D01*
X161790819Y-96229393D01*
X161790820Y-96229393D01*
X161790821Y-96229394D01*
X161936503Y-96289737D01*
X161936505Y-96289737D01*
X161936507Y-96289738D01*
X162087148Y-96319702D01*
X162091158Y-96320500D01*
X162248842Y-96320500D01*
X162403497Y-96289737D01*
X162549179Y-96229394D01*
X162680289Y-96141789D01*
X162791789Y-96030289D01*
X162879394Y-95899179D01*
X162939737Y-95753497D01*
X162962230Y-95640415D01*
X162999409Y-95550659D01*
X163068108Y-95481960D01*
X163157867Y-95444781D01*
X163157867Y-95444780D01*
X163233497Y-95429737D01*
X163379179Y-95369394D01*
X163510289Y-95281789D01*
X163621789Y-95170289D01*
X163709394Y-95039179D01*
X163769737Y-94893497D01*
X163769736Y-94893497D01*
X163773583Y-94884212D01*
X163827559Y-94803431D01*
X163908340Y-94749454D01*
X164003628Y-94730500D01*
X164118842Y-94730500D01*
X164273497Y-94699737D01*
X164419179Y-94639394D01*
X164550289Y-94551789D01*
X164661789Y-94440289D01*
X164749394Y-94309179D01*
X164809737Y-94163497D01*
X164840500Y-94008842D01*
X164840500Y-93851158D01*
X164824413Y-93770285D01*
X164809738Y-93696507D01*
X164809737Y-93696505D01*
X164809737Y-93696503D01*
X164749394Y-93550821D01*
X164735078Y-93529396D01*
X164661791Y-93419714D01*
X164661789Y-93419711D01*
X164550289Y-93308211D01*
X164538062Y-93300041D01*
X164419180Y-93220606D01*
X164419173Y-93220603D01*
X164273497Y-93160263D01*
X164273492Y-93160261D01*
X164118846Y-93129500D01*
X164118842Y-93129500D01*
X163961158Y-93129500D01*
X163961153Y-93129500D01*
X163806507Y-93160261D01*
X163806502Y-93160263D01*
X163660826Y-93220603D01*
X163660819Y-93220606D01*
X163529714Y-93308208D01*
X163418208Y-93419714D01*
X163330606Y-93550819D01*
X163330606Y-93550820D01*
X163279690Y-93673743D01*
X163225713Y-93754524D01*
X163144932Y-93808500D01*
X163049643Y-93827454D01*
X162954355Y-93808500D01*
X162873574Y-93754523D01*
X162838141Y-93709859D01*
X162827393Y-93692559D01*
X162789394Y-93600821D01*
X162701789Y-93469711D01*
X162667857Y-93435779D01*
X162652714Y-93411405D01*
X162645524Y-93392279D01*
X162634171Y-93375288D01*
X162628590Y-93347235D01*
X162618527Y-93320464D01*
X162619203Y-93300041D01*
X162615217Y-93280000D01*
X162620796Y-93251947D01*
X162621744Y-93223362D01*
X162630184Y-93204753D01*
X162634171Y-93184712D01*
X162650062Y-93160928D01*
X162661876Y-93134883D01*
X162676173Y-93121502D01*
X162674030Y-93119743D01*
X162681779Y-93110298D01*
X162681789Y-93110289D01*
X162769394Y-92979179D01*
X162829737Y-92833497D01*
X162860500Y-92678842D01*
X162860500Y-92521158D01*
X162854354Y-92490262D01*
X162829738Y-92366507D01*
X162829737Y-92366505D01*
X162829737Y-92366503D01*
X162769394Y-92220821D01*
X162762712Y-92210821D01*
X162681791Y-92089714D01*
X162681789Y-92089711D01*
X162570289Y-91978211D01*
X162570285Y-91978208D01*
X162439180Y-91890606D01*
X162439173Y-91890603D01*
X162293497Y-91830263D01*
X162293492Y-91830261D01*
X162138846Y-91799500D01*
X162138842Y-91799500D01*
X161981158Y-91799500D01*
X161981153Y-91799500D01*
X161826507Y-91830261D01*
X161826502Y-91830263D01*
X161680826Y-91890603D01*
X161680819Y-91890606D01*
X161549714Y-91978208D01*
X161438208Y-92089714D01*
X161350606Y-92220819D01*
X161350603Y-92220826D01*
X161290263Y-92366502D01*
X161290261Y-92366507D01*
X161259500Y-92521153D01*
X155580500Y-92521153D01*
X155580500Y-92511158D01*
X155576344Y-92490263D01*
X155549738Y-92356507D01*
X155549737Y-92356505D01*
X155549737Y-92356503D01*
X155489394Y-92210821D01*
X155486912Y-92207107D01*
X155401791Y-92079714D01*
X155401789Y-92079711D01*
X155290289Y-91968211D01*
X155290285Y-91968208D01*
X155159180Y-91880606D01*
X155159173Y-91880603D01*
X155013497Y-91820263D01*
X155013492Y-91820261D01*
X154858846Y-91789500D01*
X154858842Y-91789500D01*
X154701158Y-91789500D01*
X154701153Y-91789500D01*
X154546507Y-91820261D01*
X154546502Y-91820263D01*
X154400826Y-91880603D01*
X154400819Y-91880606D01*
X154269714Y-91968208D01*
X154158208Y-92079714D01*
X154070606Y-92210819D01*
X154070605Y-92210823D01*
X154015497Y-92343866D01*
X153961521Y-92424648D01*
X153880739Y-92478624D01*
X153857739Y-92486854D01*
X153846505Y-92490262D01*
X153700822Y-92550605D01*
X153700819Y-92550606D01*
X153569714Y-92638208D01*
X153458208Y-92749714D01*
X153370606Y-92880819D01*
X153370603Y-92880826D01*
X153310263Y-93026502D01*
X153310261Y-93026507D01*
X153279500Y-93181153D01*
X153279500Y-93338846D01*
X153310261Y-93493492D01*
X153310263Y-93493497D01*
X153370603Y-93639173D01*
X153370606Y-93639180D01*
X153457465Y-93769173D01*
X153458211Y-93770289D01*
X153466855Y-93778933D01*
X153520829Y-93859712D01*
X153539783Y-93955000D01*
X153520829Y-94050288D01*
X153466855Y-94131066D01*
X153448211Y-94149711D01*
X153448208Y-94149714D01*
X153360606Y-94280819D01*
X153360603Y-94280826D01*
X153300263Y-94426502D01*
X153300261Y-94426507D01*
X153269500Y-94581153D01*
X127461020Y-94581153D01*
X127463749Y-90311158D01*
X131339500Y-90311158D01*
X131339500Y-90468842D01*
X131370263Y-90623497D01*
X131410900Y-90721606D01*
X131415537Y-90750347D01*
X131414807Y-90770358D01*
X131418715Y-90790002D01*
X131413055Y-90818452D01*
X131412000Y-90847437D01*
X131403669Y-90865644D01*
X131399762Y-90885284D01*
X131370263Y-90956503D01*
X131370261Y-90956509D01*
X131339500Y-91111153D01*
X131339500Y-91268846D01*
X131370261Y-91423490D01*
X131370262Y-91423492D01*
X131370263Y-91423497D01*
X131399762Y-91494715D01*
X131418715Y-91590002D01*
X131399762Y-91685284D01*
X131370263Y-91756503D01*
X131370261Y-91756509D01*
X131339500Y-91911153D01*
X131339500Y-92068846D01*
X131370261Y-92223490D01*
X131370262Y-92223492D01*
X131370263Y-92223497D01*
X131406833Y-92311786D01*
X131425786Y-92407072D01*
X131406833Y-92502357D01*
X131380261Y-92566506D01*
X131380261Y-92566507D01*
X131349500Y-92721153D01*
X131349500Y-92878846D01*
X131380261Y-93033492D01*
X131380263Y-93033497D01*
X131440603Y-93179173D01*
X131440606Y-93179180D01*
X131528208Y-93310285D01*
X131528211Y-93310289D01*
X131639711Y-93421789D01*
X131639714Y-93421791D01*
X131770819Y-93509393D01*
X131770820Y-93509393D01*
X131770821Y-93509394D01*
X131916503Y-93569737D01*
X131916505Y-93569737D01*
X131916507Y-93569738D01*
X132017044Y-93589736D01*
X132071158Y-93600500D01*
X132228842Y-93600500D01*
X132383497Y-93569737D01*
X132529179Y-93509394D01*
X132660289Y-93421789D01*
X132771789Y-93310289D01*
X132859394Y-93179179D01*
X132919737Y-93033497D01*
X132950500Y-92878842D01*
X132950500Y-92741153D01*
X142229500Y-92741153D01*
X142229500Y-92898846D01*
X142260261Y-93053492D01*
X142260263Y-93053497D01*
X142320603Y-93199173D01*
X142320606Y-93199180D01*
X142395428Y-93311158D01*
X142408211Y-93330289D01*
X142519711Y-93441789D01*
X142519714Y-93441791D01*
X142650819Y-93529393D01*
X142650820Y-93529393D01*
X142650821Y-93529394D01*
X142796503Y-93589737D01*
X142796505Y-93589737D01*
X142796507Y-93589738D01*
X142854166Y-93601207D01*
X142951158Y-93620500D01*
X143042645Y-93620500D01*
X143137933Y-93639454D01*
X143218715Y-93693430D01*
X143262835Y-93759462D01*
X143264840Y-93758391D01*
X143270606Y-93769180D01*
X143353173Y-93892749D01*
X143358211Y-93900289D01*
X143469711Y-94011789D01*
X143469714Y-94011791D01*
X143600819Y-94099393D01*
X143600820Y-94099393D01*
X143600821Y-94099394D01*
X143746503Y-94159737D01*
X143746505Y-94159737D01*
X143746507Y-94159738D01*
X143897148Y-94189702D01*
X143901158Y-94190500D01*
X144058842Y-94190500D01*
X144213497Y-94159737D01*
X144359179Y-94099394D01*
X144490289Y-94011789D01*
X144601789Y-93900289D01*
X144689394Y-93769179D01*
X144749737Y-93623497D01*
X144780500Y-93468842D01*
X144780500Y-93311158D01*
X144759335Y-93204753D01*
X144749738Y-93156507D01*
X144749737Y-93156505D01*
X144749737Y-93156503D01*
X144689394Y-93010821D01*
X144668251Y-92979179D01*
X144601791Y-92879714D01*
X144601789Y-92879711D01*
X144490289Y-92768211D01*
X144490285Y-92768208D01*
X144359180Y-92680606D01*
X144359173Y-92680603D01*
X144213497Y-92620263D01*
X144213492Y-92620261D01*
X144058846Y-92589500D01*
X144058842Y-92589500D01*
X143967355Y-92589500D01*
X143872067Y-92570546D01*
X143791285Y-92516570D01*
X143747164Y-92450537D01*
X143745160Y-92451609D01*
X143739393Y-92440819D01*
X143651791Y-92309714D01*
X143651789Y-92309711D01*
X143540289Y-92198211D01*
X143540285Y-92198208D01*
X143409180Y-92110606D01*
X143409173Y-92110603D01*
X143263497Y-92050263D01*
X143263492Y-92050261D01*
X143108846Y-92019500D01*
X143108842Y-92019500D01*
X142951158Y-92019500D01*
X142951153Y-92019500D01*
X142796507Y-92050261D01*
X142796502Y-92050263D01*
X142650826Y-92110603D01*
X142650819Y-92110606D01*
X142519714Y-92198208D01*
X142408208Y-92309714D01*
X142320606Y-92440819D01*
X142320603Y-92440826D01*
X142260263Y-92586502D01*
X142260261Y-92586507D01*
X142229500Y-92741153D01*
X132950500Y-92741153D01*
X132950500Y-92721158D01*
X132919737Y-92566503D01*
X132876091Y-92461131D01*
X132871614Y-92443179D01*
X132870152Y-92412780D01*
X132864214Y-92382926D01*
X132867839Y-92364698D01*
X132866947Y-92346136D01*
X132877230Y-92317490D01*
X132883168Y-92287641D01*
X132890584Y-92269736D01*
X132909737Y-92223497D01*
X132940500Y-92068842D01*
X132940500Y-91911158D01*
X132916348Y-91789737D01*
X132909738Y-91756508D01*
X132909737Y-91756507D01*
X132909737Y-91756503D01*
X132880236Y-91685282D01*
X132861284Y-91590001D01*
X132880237Y-91494715D01*
X132909737Y-91423497D01*
X132940500Y-91268842D01*
X132940500Y-91111158D01*
X132909737Y-90956503D01*
X132880236Y-90885282D01*
X132873181Y-90849813D01*
X132862566Y-90815238D01*
X132864152Y-90804420D01*
X132861284Y-90790001D01*
X132871765Y-90718519D01*
X132875394Y-90706407D01*
X132909737Y-90623497D01*
X132928479Y-90529272D01*
X132931870Y-90517959D01*
X132949195Y-90485281D01*
X132963352Y-90451104D01*
X132971790Y-90442665D01*
X132977380Y-90432123D01*
X133005895Y-90408560D01*
X133032051Y-90382405D01*
X133043075Y-90377838D01*
X133052275Y-90370237D01*
X133087637Y-90359379D01*
X133121810Y-90345225D01*
X133133741Y-90345224D01*
X133145151Y-90341722D01*
X133181975Y-90345224D01*
X133218965Y-90345224D01*
X133235860Y-90350349D01*
X133241870Y-90350921D01*
X133247387Y-90353846D01*
X133265677Y-90359394D01*
X133266503Y-90359737D01*
X133266508Y-90359738D01*
X133266507Y-90359738D01*
X133357502Y-90377838D01*
X133421158Y-90390500D01*
X133578842Y-90390500D01*
X133733497Y-90359737D01*
X133879179Y-90299394D01*
X134010289Y-90211789D01*
X134121789Y-90100289D01*
X134161302Y-90041153D01*
X134899500Y-90041153D01*
X134899500Y-90198846D01*
X134930261Y-90353492D01*
X134930263Y-90353497D01*
X134990603Y-90499173D01*
X134990606Y-90499180D01*
X135075681Y-90626503D01*
X135078211Y-90630289D01*
X135189711Y-90741789D01*
X135189714Y-90741791D01*
X135320819Y-90829393D01*
X135320820Y-90829393D01*
X135320821Y-90829394D01*
X135466503Y-90889737D01*
X135466505Y-90889737D01*
X135466507Y-90889738D01*
X135617148Y-90919702D01*
X135621158Y-90920500D01*
X135778842Y-90920500D01*
X135876363Y-90901101D01*
X135928058Y-90890819D01*
X136025213Y-90890818D01*
X136114972Y-90927998D01*
X136183671Y-90996696D01*
X136214992Y-91072309D01*
X136216711Y-91071788D01*
X136220263Y-91083497D01*
X136280603Y-91229173D01*
X136280606Y-91229180D01*
X136368208Y-91360285D01*
X136368211Y-91360289D01*
X136479711Y-91471789D01*
X136479714Y-91471791D01*
X136544438Y-91515038D01*
X136613137Y-91583737D01*
X136650316Y-91673493D01*
X136660263Y-91723497D01*
X136720603Y-91869173D01*
X136720606Y-91869180D01*
X136786775Y-91968208D01*
X136808211Y-92000289D01*
X136919711Y-92111789D01*
X136919714Y-92111791D01*
X137050819Y-92199393D01*
X137050820Y-92199393D01*
X137050821Y-92199394D01*
X137196503Y-92259737D01*
X137196505Y-92259737D01*
X137196507Y-92259738D01*
X137336785Y-92287641D01*
X137351158Y-92290500D01*
X137508842Y-92290500D01*
X137663497Y-92259737D01*
X137781592Y-92210821D01*
X137803441Y-92201771D01*
X137898729Y-92182817D01*
X137994017Y-92201771D01*
X138005299Y-92207107D01*
X138038408Y-92220821D01*
X138156503Y-92269737D01*
X138156505Y-92269737D01*
X138156507Y-92269738D01*
X138260880Y-92290499D01*
X138311158Y-92300500D01*
X138468842Y-92300500D01*
X138623497Y-92269737D01*
X138769179Y-92209394D01*
X138900289Y-92121789D01*
X139011789Y-92010289D01*
X139099394Y-91879179D01*
X139159737Y-91733497D01*
X139169683Y-91683493D01*
X139206862Y-91593738D01*
X139275555Y-91525042D01*
X139340289Y-91481789D01*
X139451789Y-91370289D01*
X139539394Y-91239179D01*
X139599737Y-91093497D01*
X139630040Y-90941153D01*
X151509500Y-90941153D01*
X151509500Y-91098846D01*
X151540261Y-91253492D01*
X151540263Y-91253497D01*
X151600603Y-91399173D01*
X151600606Y-91399180D01*
X151684702Y-91525038D01*
X151688211Y-91530289D01*
X151799711Y-91641789D01*
X151799714Y-91641791D01*
X151930819Y-91729393D01*
X151930820Y-91729393D01*
X151930821Y-91729394D01*
X152076503Y-91789737D01*
X152076505Y-91789737D01*
X152076507Y-91789738D01*
X152227148Y-91819702D01*
X152231158Y-91820500D01*
X152388842Y-91820500D01*
X152543497Y-91789737D01*
X152689179Y-91729394D01*
X152820289Y-91641789D01*
X152931789Y-91530289D01*
X153019394Y-91399179D01*
X153079737Y-91253497D01*
X153110500Y-91098842D01*
X153110500Y-90941158D01*
X153100272Y-90889737D01*
X153079738Y-90786507D01*
X153079737Y-90786505D01*
X153079737Y-90786503D01*
X153019394Y-90640821D01*
X153009826Y-90626502D01*
X152931791Y-90509714D01*
X152931789Y-90509711D01*
X152820289Y-90398211D01*
X152808749Y-90390500D01*
X152689180Y-90310606D01*
X152689173Y-90310603D01*
X152543497Y-90250263D01*
X152543492Y-90250261D01*
X152388846Y-90219500D01*
X152388842Y-90219500D01*
X152231158Y-90219500D01*
X152231153Y-90219500D01*
X152076507Y-90250261D01*
X152076502Y-90250263D01*
X151930826Y-90310603D01*
X151930819Y-90310606D01*
X151799714Y-90398208D01*
X151688208Y-90509714D01*
X151600606Y-90640819D01*
X151600603Y-90640826D01*
X151540263Y-90786502D01*
X151540261Y-90786507D01*
X151509500Y-90941153D01*
X139630040Y-90941153D01*
X139630500Y-90938842D01*
X139630500Y-90781158D01*
X139599737Y-90626503D01*
X139539394Y-90480821D01*
X139525815Y-90460499D01*
X139451791Y-90349714D01*
X139451789Y-90349711D01*
X139340289Y-90238211D01*
X139340285Y-90238208D01*
X139209180Y-90150606D01*
X139209173Y-90150603D01*
X139063497Y-90090263D01*
X139063492Y-90090261D01*
X138908846Y-90059500D01*
X138908842Y-90059500D01*
X138751158Y-90059500D01*
X138751153Y-90059500D01*
X138596507Y-90090261D01*
X138596506Y-90090261D01*
X138450286Y-90150827D01*
X138354998Y-90169780D01*
X138259714Y-90150827D01*
X138113492Y-90090261D01*
X137958846Y-90059500D01*
X137958842Y-90059500D01*
X137801158Y-90059500D01*
X137801153Y-90059500D01*
X137646507Y-90090261D01*
X137646506Y-90090261D01*
X137542357Y-90133401D01*
X137447069Y-90152354D01*
X137351785Y-90133401D01*
X137223492Y-90080261D01*
X137068846Y-90049500D01*
X137068842Y-90049500D01*
X136911158Y-90049500D01*
X136860885Y-90059500D01*
X136761940Y-90079181D01*
X136664785Y-90079180D01*
X136575025Y-90042000D01*
X136506327Y-89973301D01*
X136486179Y-89936889D01*
X136474646Y-89911182D01*
X136469737Y-89886503D01*
X136409394Y-89740821D01*
X136321789Y-89609711D01*
X136293231Y-89581153D01*
X154209500Y-89581153D01*
X154209500Y-89738846D01*
X154240261Y-89893492D01*
X154240263Y-89893497D01*
X154300603Y-90039173D01*
X154300606Y-90039180D01*
X154378999Y-90156503D01*
X154388211Y-90170289D01*
X154499711Y-90281789D01*
X154499714Y-90281791D01*
X154630819Y-90369393D01*
X154630820Y-90369393D01*
X154630821Y-90369394D01*
X154776503Y-90429737D01*
X154776505Y-90429737D01*
X154776507Y-90429738D01*
X154883921Y-90451104D01*
X154931158Y-90460500D01*
X155088842Y-90460500D01*
X155243497Y-90429737D01*
X155389179Y-90369394D01*
X155520289Y-90281789D01*
X155631789Y-90170289D01*
X155719394Y-90039179D01*
X155779737Y-89893497D01*
X155810500Y-89738842D01*
X155810500Y-89581158D01*
X155787095Y-89463492D01*
X155779738Y-89426507D01*
X155779737Y-89426505D01*
X155779737Y-89426503D01*
X155719394Y-89280821D01*
X155672621Y-89210821D01*
X155632752Y-89151153D01*
X164469500Y-89151153D01*
X164469500Y-89308846D01*
X164500261Y-89463492D01*
X164500263Y-89463497D01*
X164560603Y-89609173D01*
X164560606Y-89609180D01*
X164647365Y-89739023D01*
X164648211Y-89740289D01*
X164759711Y-89851789D01*
X164759714Y-89851791D01*
X164890819Y-89939393D01*
X164890820Y-89939393D01*
X164890821Y-89939394D01*
X165036503Y-89999737D01*
X165036505Y-89999737D01*
X165036507Y-89999738D01*
X165187148Y-90029702D01*
X165191158Y-90030500D01*
X165348842Y-90030500D01*
X165503497Y-89999737D01*
X165649179Y-89939394D01*
X165780289Y-89851789D01*
X165891789Y-89740289D01*
X165979394Y-89609179D01*
X166039737Y-89463497D01*
X166070500Y-89308842D01*
X166070500Y-89151158D01*
X166046348Y-89029737D01*
X166039738Y-88996507D01*
X166039737Y-88996505D01*
X166039737Y-88996503D01*
X165979394Y-88850821D01*
X165891789Y-88719711D01*
X165780289Y-88608211D01*
X165768749Y-88600500D01*
X165649180Y-88520606D01*
X165649173Y-88520603D01*
X165503497Y-88460263D01*
X165503492Y-88460261D01*
X165348846Y-88429500D01*
X165348842Y-88429500D01*
X165191158Y-88429500D01*
X165191153Y-88429500D01*
X165036507Y-88460261D01*
X165036502Y-88460263D01*
X164890826Y-88520603D01*
X164890819Y-88520606D01*
X164759714Y-88608208D01*
X164648208Y-88719714D01*
X164560606Y-88850819D01*
X164560603Y-88850826D01*
X164500263Y-88996502D01*
X164500261Y-88996507D01*
X164469500Y-89151153D01*
X155632752Y-89151153D01*
X155631791Y-89149714D01*
X155631789Y-89149711D01*
X155520289Y-89038211D01*
X155520285Y-89038208D01*
X155389180Y-88950606D01*
X155389173Y-88950603D01*
X155243497Y-88890263D01*
X155243492Y-88890261D01*
X155088846Y-88859500D01*
X155088842Y-88859500D01*
X154931158Y-88859500D01*
X154931153Y-88859500D01*
X154776507Y-88890261D01*
X154776502Y-88890263D01*
X154630826Y-88950603D01*
X154630819Y-88950606D01*
X154499714Y-89038208D01*
X154388208Y-89149714D01*
X154300606Y-89280819D01*
X154300603Y-89280826D01*
X154240263Y-89426502D01*
X154240261Y-89426507D01*
X154209500Y-89581153D01*
X136293231Y-89581153D01*
X136210289Y-89498211D01*
X136210285Y-89498208D01*
X136079180Y-89410606D01*
X136079173Y-89410603D01*
X135933497Y-89350263D01*
X135933492Y-89350261D01*
X135778846Y-89319500D01*
X135778842Y-89319500D01*
X135621158Y-89319500D01*
X135621153Y-89319500D01*
X135466507Y-89350261D01*
X135466502Y-89350263D01*
X135320826Y-89410603D01*
X135320819Y-89410606D01*
X135189714Y-89498208D01*
X135078208Y-89609714D01*
X134990606Y-89740819D01*
X134990603Y-89740826D01*
X134930263Y-89886502D01*
X134930261Y-89886507D01*
X134899500Y-90041153D01*
X134161302Y-90041153D01*
X134209394Y-89969179D01*
X134269737Y-89823497D01*
X134300500Y-89668842D01*
X134300500Y-89511158D01*
X134291019Y-89463492D01*
X134269738Y-89356507D01*
X134269737Y-89356505D01*
X134269737Y-89356503D01*
X134209394Y-89210821D01*
X134169528Y-89151158D01*
X134121791Y-89079714D01*
X134121789Y-89079711D01*
X134010289Y-88968211D01*
X134010285Y-88968208D01*
X133879180Y-88880606D01*
X133743343Y-88824341D01*
X133662562Y-88770364D01*
X133608586Y-88689583D01*
X133559394Y-88570821D01*
X133471789Y-88439711D01*
X133360289Y-88328211D01*
X133360285Y-88328208D01*
X133229180Y-88240606D01*
X133229173Y-88240603D01*
X133083497Y-88180263D01*
X133083492Y-88180261D01*
X132928846Y-88149500D01*
X132928842Y-88149500D01*
X132771158Y-88149500D01*
X132771153Y-88149500D01*
X132616507Y-88180261D01*
X132616502Y-88180263D01*
X132470826Y-88240603D01*
X132470819Y-88240606D01*
X132339714Y-88328208D01*
X132228208Y-88439714D01*
X132140606Y-88570819D01*
X132140603Y-88570826D01*
X132080263Y-88716502D01*
X132080261Y-88716507D01*
X132049500Y-88871153D01*
X132049500Y-89028846D01*
X132080261Y-89183490D01*
X132080262Y-89183492D01*
X132080263Y-89183497D01*
X132118071Y-89274775D01*
X132137024Y-89370062D01*
X132118069Y-89465350D01*
X132064092Y-89546131D01*
X131983311Y-89600107D01*
X131936605Y-89614275D01*
X131906502Y-89620263D01*
X131760826Y-89680603D01*
X131760819Y-89680606D01*
X131629714Y-89768208D01*
X131518208Y-89879714D01*
X131430606Y-90010819D01*
X131430603Y-90010826D01*
X131370263Y-90156502D01*
X131370261Y-90156507D01*
X131342366Y-90296744D01*
X131342366Y-90296747D01*
X131339500Y-90311158D01*
X127463749Y-90311158D01*
X127465813Y-87081153D01*
X136969500Y-87081153D01*
X136969500Y-87238846D01*
X137000261Y-87393492D01*
X137000263Y-87393497D01*
X137060603Y-87539173D01*
X137060606Y-87539180D01*
X137148208Y-87670285D01*
X137148211Y-87670289D01*
X137259711Y-87781789D01*
X137259714Y-87781791D01*
X137390819Y-87869393D01*
X137390820Y-87869393D01*
X137390821Y-87869394D01*
X137536503Y-87929737D01*
X137536505Y-87929737D01*
X137536507Y-87929738D01*
X137628457Y-87948028D01*
X137691158Y-87960500D01*
X137848840Y-87960500D01*
X137848842Y-87960500D01*
X137911537Y-87948028D01*
X138008687Y-87948028D01*
X138098447Y-87985206D01*
X138167147Y-88053904D01*
X138204328Y-88143661D01*
X138210263Y-88173498D01*
X138270603Y-88319173D01*
X138270606Y-88319180D01*
X138358208Y-88450285D01*
X138358211Y-88450289D01*
X138469711Y-88561789D01*
X138469714Y-88561791D01*
X138600819Y-88649393D01*
X138600820Y-88649393D01*
X138600821Y-88649394D01*
X138746503Y-88709737D01*
X138746505Y-88709737D01*
X138746507Y-88709738D01*
X138796645Y-88719711D01*
X138901158Y-88740500D01*
X139058842Y-88740500D01*
X139213497Y-88709737D01*
X139359179Y-88649394D01*
X139490289Y-88561789D01*
X139601789Y-88450289D01*
X139689394Y-88319179D01*
X139749737Y-88173497D01*
X139780500Y-88018842D01*
X139780500Y-87861158D01*
X139770161Y-87809179D01*
X139749738Y-87706507D01*
X139749737Y-87706505D01*
X139749737Y-87706503D01*
X139689394Y-87560821D01*
X139666006Y-87525819D01*
X139628827Y-87436061D01*
X139628827Y-87351153D01*
X159739500Y-87351153D01*
X159739500Y-87508846D01*
X159770261Y-87663492D01*
X159770263Y-87663497D01*
X159830603Y-87809173D01*
X159830606Y-87809180D01*
X159911160Y-87929737D01*
X159918211Y-87940289D01*
X160029711Y-88051789D01*
X160029714Y-88051791D01*
X160160819Y-88139393D01*
X160160820Y-88139393D01*
X160160821Y-88139394D01*
X160306503Y-88199737D01*
X160306509Y-88199738D01*
X160318212Y-88203289D01*
X160317777Y-88204720D01*
X160394803Y-88236623D01*
X160463504Y-88305320D01*
X160500686Y-88395078D01*
X160500687Y-88395085D01*
X160520261Y-88493492D01*
X160520263Y-88493497D01*
X160580603Y-88639173D01*
X160580606Y-88639180D01*
X160668208Y-88770285D01*
X160668211Y-88770289D01*
X160779711Y-88881789D01*
X160779714Y-88881791D01*
X160910819Y-88969393D01*
X160910820Y-88969393D01*
X160910821Y-88969394D01*
X161056503Y-89029737D01*
X161056505Y-89029737D01*
X161056507Y-89029738D01*
X161099089Y-89038208D01*
X161211158Y-89060500D01*
X161368842Y-89060500D01*
X161523497Y-89029737D01*
X161669179Y-88969394D01*
X161800289Y-88881789D01*
X161911789Y-88770289D01*
X161999394Y-88639179D01*
X162059737Y-88493497D01*
X162090500Y-88338842D01*
X162090500Y-88181158D01*
X162082192Y-88139393D01*
X162059738Y-88026507D01*
X162059737Y-88026505D01*
X162059737Y-88026503D01*
X161999394Y-87880821D01*
X161998074Y-87878846D01*
X161911791Y-87749714D01*
X161911789Y-87749711D01*
X161800289Y-87638211D01*
X161722903Y-87586503D01*
X161669180Y-87550606D01*
X161669173Y-87550603D01*
X161523497Y-87490263D01*
X161511788Y-87486711D01*
X161512221Y-87485280D01*
X161435181Y-87453366D01*
X161366485Y-87384664D01*
X161342473Y-87339154D01*
X161333835Y-87317651D01*
X161309737Y-87196503D01*
X161249394Y-87050821D01*
X161192350Y-86965448D01*
X161182707Y-86941444D01*
X161178423Y-86918637D01*
X161169546Y-86897204D01*
X161169545Y-86871361D01*
X161164775Y-86845958D01*
X161169545Y-86823250D01*
X161169545Y-86800049D01*
X161179435Y-86776171D01*
X161184749Y-86750878D01*
X161197846Y-86731723D01*
X161206725Y-86710290D01*
X161224998Y-86692016D01*
X161239588Y-86670680D01*
X161259018Y-86657996D01*
X161275423Y-86641591D01*
X161307097Y-86626610D01*
X161320943Y-86617572D01*
X161329674Y-86615932D01*
X161332307Y-86614687D01*
X161332196Y-86614418D01*
X161337672Y-86612149D01*
X161341488Y-86610345D01*
X161343474Y-86609741D01*
X161343497Y-86609737D01*
X161489179Y-86549394D01*
X161579180Y-86489257D01*
X161668937Y-86452078D01*
X161766092Y-86452077D01*
X161855852Y-86489256D01*
X161855852Y-86489257D01*
X161960814Y-86559390D01*
X161960818Y-86559392D01*
X161960821Y-86559394D01*
X162106503Y-86619737D01*
X162106505Y-86619737D01*
X162106507Y-86619738D01*
X162236424Y-86645580D01*
X162261158Y-86650500D01*
X162418842Y-86650500D01*
X162573497Y-86619737D01*
X162719179Y-86559394D01*
X162779180Y-86519301D01*
X162868936Y-86482123D01*
X162966091Y-86482122D01*
X163055850Y-86519300D01*
X163130821Y-86569394D01*
X163276503Y-86629737D01*
X163276505Y-86629737D01*
X163276507Y-86629738D01*
X163376918Y-86649711D01*
X163431158Y-86660500D01*
X163588842Y-86660500D01*
X163743497Y-86629737D01*
X163889179Y-86569394D01*
X163916695Y-86551007D01*
X164006452Y-86513828D01*
X164103607Y-86513827D01*
X164193367Y-86551005D01*
X164193369Y-86551006D01*
X164204577Y-86558495D01*
X164250821Y-86589394D01*
X164396503Y-86649737D01*
X164396505Y-86649737D01*
X164396507Y-86649738D01*
X164501790Y-86670680D01*
X164551158Y-86680500D01*
X164708842Y-86680500D01*
X164863497Y-86649737D01*
X165009179Y-86589394D01*
X165140289Y-86501789D01*
X165251789Y-86390289D01*
X165339394Y-86259179D01*
X165399737Y-86113497D01*
X165430500Y-85958842D01*
X165430500Y-85811153D01*
X174139500Y-85811153D01*
X174139500Y-85968846D01*
X174170261Y-86123492D01*
X174170263Y-86123497D01*
X174230603Y-86269173D01*
X174230606Y-86269180D01*
X174311529Y-86390289D01*
X174318211Y-86400289D01*
X174429711Y-86511789D01*
X174429714Y-86511791D01*
X174560819Y-86599393D01*
X174560821Y-86599394D01*
X174615791Y-86622163D01*
X174696570Y-86676137D01*
X174722430Y-86714840D01*
X174750545Y-86756916D01*
X174750545Y-86756918D01*
X174750546Y-86756919D01*
X174755779Y-86783226D01*
X174769500Y-86852203D01*
X174769500Y-86858502D01*
X174750546Y-86953790D01*
X174696570Y-87034572D01*
X174621538Y-87084707D01*
X174621609Y-87084840D01*
X174620263Y-87085559D01*
X174615795Y-87088545D01*
X174610827Y-87090602D01*
X174610819Y-87090606D01*
X174479714Y-87178208D01*
X174368208Y-87289714D01*
X174280606Y-87420819D01*
X174280603Y-87420826D01*
X174220263Y-87566502D01*
X174220261Y-87566507D01*
X174189500Y-87721153D01*
X174189500Y-87878846D01*
X174220261Y-88033492D01*
X174220263Y-88033497D01*
X174280603Y-88179173D01*
X174280606Y-88179180D01*
X174368208Y-88310285D01*
X174368211Y-88310289D01*
X174479711Y-88421789D01*
X174479714Y-88421791D01*
X174610819Y-88509393D01*
X174610820Y-88509393D01*
X174610821Y-88509394D01*
X174756503Y-88569737D01*
X174756505Y-88569737D01*
X174756507Y-88569738D01*
X174857044Y-88589736D01*
X174911158Y-88600500D01*
X175068842Y-88600500D01*
X175223497Y-88569737D01*
X175369179Y-88509394D01*
X175386695Y-88497689D01*
X175476447Y-88460510D01*
X175573602Y-88460507D01*
X175663362Y-88497683D01*
X175710821Y-88529394D01*
X175856503Y-88589737D01*
X175856505Y-88589737D01*
X175856507Y-88589738D01*
X175949362Y-88608208D01*
X176011158Y-88620500D01*
X176168842Y-88620500D01*
X176323497Y-88589737D01*
X176469179Y-88529394D01*
X176600289Y-88441789D01*
X176711789Y-88330289D01*
X176799394Y-88199179D01*
X176859737Y-88053497D01*
X176890500Y-87898842D01*
X176890500Y-87741158D01*
X176875051Y-87663492D01*
X176859738Y-87586507D01*
X176859737Y-87586505D01*
X176859737Y-87586503D01*
X176799394Y-87440821D01*
X176796213Y-87436061D01*
X176711791Y-87309714D01*
X176711789Y-87309711D01*
X176600289Y-87198211D01*
X176481161Y-87118612D01*
X176463821Y-87101271D01*
X176443430Y-87087647D01*
X176429803Y-87067252D01*
X176412464Y-87049913D01*
X176403079Y-87027257D01*
X176389454Y-87006865D01*
X176384669Y-86982812D01*
X176375284Y-86960154D01*
X176370500Y-86911577D01*
X176370500Y-86795104D01*
X176389454Y-86699816D01*
X176443430Y-86619034D01*
X176481163Y-86588068D01*
X176610289Y-86501789D01*
X176721789Y-86390289D01*
X176809394Y-86259179D01*
X176869737Y-86113497D01*
X176900500Y-85958842D01*
X176900500Y-85801158D01*
X176899702Y-85797148D01*
X176869738Y-85646507D01*
X176869737Y-85646505D01*
X176869737Y-85646503D01*
X176809394Y-85500821D01*
X176755724Y-85420499D01*
X176721791Y-85369714D01*
X176721789Y-85369711D01*
X176610289Y-85258211D01*
X176604789Y-85254536D01*
X176479180Y-85170606D01*
X176479173Y-85170603D01*
X176333497Y-85110263D01*
X176333492Y-85110261D01*
X176178846Y-85079500D01*
X176178842Y-85079500D01*
X176021158Y-85079500D01*
X176021153Y-85079500D01*
X175866507Y-85110261D01*
X175866502Y-85110263D01*
X175720826Y-85170603D01*
X175720815Y-85170608D01*
X175650851Y-85217357D01*
X175561091Y-85254536D01*
X175463936Y-85254535D01*
X175374179Y-85217356D01*
X175319180Y-85180606D01*
X175319173Y-85180603D01*
X175173497Y-85120263D01*
X175173492Y-85120261D01*
X175018846Y-85089500D01*
X175018842Y-85089500D01*
X174861158Y-85089500D01*
X174861153Y-85089500D01*
X174706507Y-85120261D01*
X174706502Y-85120263D01*
X174560826Y-85180603D01*
X174560819Y-85180606D01*
X174429714Y-85268208D01*
X174318208Y-85379714D01*
X174230606Y-85510819D01*
X174230603Y-85510826D01*
X174170263Y-85656502D01*
X174170261Y-85656507D01*
X174139500Y-85811153D01*
X165430500Y-85811153D01*
X165430500Y-85801158D01*
X165429702Y-85797148D01*
X165399738Y-85646507D01*
X165399737Y-85646505D01*
X165399737Y-85646503D01*
X165339394Y-85500821D01*
X165285724Y-85420499D01*
X165251791Y-85369714D01*
X165251789Y-85369711D01*
X165140289Y-85258211D01*
X165134789Y-85254536D01*
X165009180Y-85170606D01*
X165009173Y-85170603D01*
X164863497Y-85110263D01*
X164863492Y-85110261D01*
X164708846Y-85079500D01*
X164708842Y-85079500D01*
X164551158Y-85079500D01*
X164551153Y-85079500D01*
X164396507Y-85110261D01*
X164396502Y-85110263D01*
X164250826Y-85170603D01*
X164250812Y-85170610D01*
X164223299Y-85188994D01*
X164133539Y-85226172D01*
X164036384Y-85226171D01*
X163946631Y-85188993D01*
X163889183Y-85150608D01*
X163889173Y-85150603D01*
X163743497Y-85090263D01*
X163743492Y-85090261D01*
X163588846Y-85059500D01*
X163588842Y-85059500D01*
X163431158Y-85059500D01*
X163431153Y-85059500D01*
X163276507Y-85090261D01*
X163276502Y-85090263D01*
X163130826Y-85150603D01*
X163130821Y-85150605D01*
X163070819Y-85190698D01*
X162981059Y-85227877D01*
X162883904Y-85227876D01*
X162794147Y-85190697D01*
X162719185Y-85140609D01*
X162719173Y-85140603D01*
X162573497Y-85080263D01*
X162573492Y-85080261D01*
X162418846Y-85049500D01*
X162418842Y-85049500D01*
X162261158Y-85049500D01*
X162182767Y-85065093D01*
X162143476Y-85065092D01*
X162104293Y-85068076D01*
X162095188Y-85065092D01*
X162085612Y-85065092D01*
X162049313Y-85050056D01*
X162011970Y-85037818D01*
X162004702Y-85031579D01*
X161995852Y-85027913D01*
X161968064Y-85000124D01*
X161938254Y-84974532D01*
X161933927Y-84965986D01*
X161927154Y-84959213D01*
X161912116Y-84922909D01*
X161894367Y-84887854D01*
X161894040Y-84879272D01*
X161889974Y-84869454D01*
X161886991Y-84790980D01*
X161888845Y-84775650D01*
X161889737Y-84773497D01*
X161920500Y-84618842D01*
X161920500Y-84541153D01*
X171479500Y-84541153D01*
X171479500Y-84698846D01*
X171510261Y-84853492D01*
X171510263Y-84853497D01*
X171570603Y-84999173D01*
X171570606Y-84999180D01*
X171657842Y-85129737D01*
X171658211Y-85130289D01*
X171769711Y-85241789D01*
X171769714Y-85241791D01*
X171900819Y-85329393D01*
X171900820Y-85329393D01*
X171900821Y-85329394D01*
X172046503Y-85389737D01*
X172046505Y-85389737D01*
X172046507Y-85389738D01*
X172197148Y-85419702D01*
X172201158Y-85420500D01*
X172358842Y-85420500D01*
X172513497Y-85389737D01*
X172659179Y-85329394D01*
X172790289Y-85241789D01*
X172901789Y-85130289D01*
X172989394Y-84999179D01*
X173049737Y-84853497D01*
X173080500Y-84698842D01*
X173080500Y-84541158D01*
X173060148Y-84438842D01*
X173049738Y-84386507D01*
X173049737Y-84386505D01*
X173049737Y-84386503D01*
X172989394Y-84240821D01*
X172901789Y-84109711D01*
X172790289Y-83998211D01*
X172790285Y-83998208D01*
X172659180Y-83910606D01*
X172659173Y-83910603D01*
X172513497Y-83850263D01*
X172513492Y-83850261D01*
X172358846Y-83819500D01*
X172358842Y-83819500D01*
X172201158Y-83819500D01*
X172201153Y-83819500D01*
X172046507Y-83850261D01*
X172046502Y-83850263D01*
X171900826Y-83910603D01*
X171900819Y-83910606D01*
X171769714Y-83998208D01*
X171658208Y-84109714D01*
X171570606Y-84240819D01*
X171570603Y-84240826D01*
X171510263Y-84386502D01*
X171510261Y-84386507D01*
X171479500Y-84541153D01*
X161920500Y-84541153D01*
X161920500Y-84461158D01*
X161896521Y-84340606D01*
X161889738Y-84306507D01*
X161889737Y-84306505D01*
X161889737Y-84306503D01*
X161829394Y-84160821D01*
X161828130Y-84158930D01*
X161741791Y-84029714D01*
X161741789Y-84029711D01*
X161630289Y-83918211D01*
X161630285Y-83918208D01*
X161499180Y-83830606D01*
X161499173Y-83830603D01*
X161353497Y-83770263D01*
X161353492Y-83770261D01*
X161198846Y-83739500D01*
X161198842Y-83739500D01*
X161041158Y-83739500D01*
X161041153Y-83739500D01*
X160886507Y-83770261D01*
X160886502Y-83770263D01*
X160740826Y-83830603D01*
X160740819Y-83830606D01*
X160609714Y-83918208D01*
X160498208Y-84029714D01*
X160410606Y-84160819D01*
X160410603Y-84160826D01*
X160350263Y-84306502D01*
X160350261Y-84306507D01*
X160319500Y-84461153D01*
X160319500Y-84618846D01*
X160350261Y-84773492D01*
X160350263Y-84773497D01*
X160410603Y-84919173D01*
X160410605Y-84919176D01*
X160410606Y-84919179D01*
X160485709Y-85031579D01*
X160494128Y-85044178D01*
X160531308Y-85133938D01*
X160531309Y-85231093D01*
X160494129Y-85320852D01*
X160400609Y-85460814D01*
X160400603Y-85460826D01*
X160340263Y-85606502D01*
X160340261Y-85606507D01*
X160309500Y-85761153D01*
X160309500Y-85918846D01*
X160340261Y-86073492D01*
X160340263Y-86073497D01*
X160400603Y-86219173D01*
X160400606Y-86219180D01*
X160443274Y-86283036D01*
X160480454Y-86372795D01*
X160480454Y-86469950D01*
X160443274Y-86559710D01*
X160374575Y-86628409D01*
X160317692Y-86655313D01*
X160317804Y-86655582D01*
X160312342Y-86657844D01*
X160308531Y-86659647D01*
X160306508Y-86660260D01*
X160160826Y-86720603D01*
X160160819Y-86720606D01*
X160029714Y-86808208D01*
X159918208Y-86919714D01*
X159830606Y-87050819D01*
X159830603Y-87050826D01*
X159770263Y-87196502D01*
X159770261Y-87196507D01*
X159739500Y-87351153D01*
X139628827Y-87351153D01*
X139628827Y-87338906D01*
X139666006Y-87249147D01*
X139672889Y-87238846D01*
X139699394Y-87199179D01*
X139759737Y-87053497D01*
X139790500Y-86898842D01*
X139790500Y-86741158D01*
X139777621Y-86676412D01*
X139759738Y-86586507D01*
X139759737Y-86586505D01*
X139759737Y-86586503D01*
X139699394Y-86440821D01*
X139672311Y-86400289D01*
X139611791Y-86309714D01*
X139611789Y-86309711D01*
X139500289Y-86198211D01*
X139500285Y-86198208D01*
X139369180Y-86110606D01*
X139369173Y-86110603D01*
X139223497Y-86050263D01*
X139223492Y-86050261D01*
X139068846Y-86019500D01*
X139068842Y-86019500D01*
X138911158Y-86019500D01*
X138911153Y-86019500D01*
X138756507Y-86050261D01*
X138756502Y-86050263D01*
X138610826Y-86110603D01*
X138610819Y-86110606D01*
X138479714Y-86198208D01*
X138368206Y-86309716D01*
X138360522Y-86321217D01*
X138291822Y-86389914D01*
X138202062Y-86427092D01*
X138104907Y-86427091D01*
X138058203Y-86412923D01*
X138003492Y-86390261D01*
X137848846Y-86359500D01*
X137848842Y-86359500D01*
X137691158Y-86359500D01*
X137691153Y-86359500D01*
X137536507Y-86390261D01*
X137536502Y-86390263D01*
X137390826Y-86450603D01*
X137390819Y-86450606D01*
X137259714Y-86538208D01*
X137148208Y-86649714D01*
X137060606Y-86780819D01*
X137060603Y-86780826D01*
X137000263Y-86926502D01*
X137000261Y-86926507D01*
X136969500Y-87081153D01*
X127465813Y-87081153D01*
X127467603Y-84281153D01*
X141199500Y-84281153D01*
X141199500Y-84438846D01*
X141230261Y-84593492D01*
X141230263Y-84593497D01*
X141290603Y-84739173D01*
X141290606Y-84739180D01*
X141366991Y-84853497D01*
X141378211Y-84870289D01*
X141489711Y-84981789D01*
X141489714Y-84981791D01*
X141620819Y-85069393D01*
X141620821Y-85069394D01*
X141668667Y-85089212D01*
X141679694Y-85093780D01*
X141760476Y-85147756D01*
X141814452Y-85228538D01*
X141828620Y-85275241D01*
X141830261Y-85283494D01*
X141890605Y-85429177D01*
X141890606Y-85429180D01*
X141978208Y-85560285D01*
X141978211Y-85560289D01*
X142089711Y-85671789D01*
X142089714Y-85671791D01*
X142220819Y-85759393D01*
X142220820Y-85759393D01*
X142220821Y-85759394D01*
X142366503Y-85819737D01*
X142366505Y-85819737D01*
X142366507Y-85819738D01*
X142517148Y-85849702D01*
X142521158Y-85850500D01*
X142678842Y-85850500D01*
X142833497Y-85819737D01*
X142979179Y-85759394D01*
X143110289Y-85671789D01*
X143221789Y-85560289D01*
X143309394Y-85429179D01*
X143369737Y-85283497D01*
X143400500Y-85128842D01*
X143400500Y-84971158D01*
X143390161Y-84919179D01*
X143369738Y-84816507D01*
X143369737Y-84816505D01*
X143369737Y-84816503D01*
X143309394Y-84670821D01*
X143274665Y-84618846D01*
X143221791Y-84539714D01*
X143221789Y-84539711D01*
X143193144Y-84511066D01*
X143139171Y-84430288D01*
X143120217Y-84335000D01*
X143139171Y-84239712D01*
X143193144Y-84158933D01*
X143231789Y-84120289D01*
X143319394Y-83989179D01*
X143379737Y-83843497D01*
X143410500Y-83688842D01*
X143410500Y-83531158D01*
X143379737Y-83376503D01*
X143319394Y-83230821D01*
X143231789Y-83099711D01*
X143120289Y-82988211D01*
X143063640Y-82950359D01*
X142989180Y-82900606D01*
X142989173Y-82900603D01*
X142843497Y-82840263D01*
X142843492Y-82840261D01*
X142688846Y-82809500D01*
X142688842Y-82809500D01*
X142531158Y-82809500D01*
X142531153Y-82809500D01*
X142376507Y-82840261D01*
X142376502Y-82840263D01*
X142230826Y-82900603D01*
X142230819Y-82900606D01*
X142099714Y-82988208D01*
X141988208Y-83099714D01*
X141900606Y-83230819D01*
X141900603Y-83230826D01*
X141840263Y-83376502D01*
X141840262Y-83376505D01*
X141826513Y-83445626D01*
X141789333Y-83535385D01*
X141720634Y-83604084D01*
X141677587Y-83627093D01*
X141620819Y-83650606D01*
X141489714Y-83738208D01*
X141378208Y-83849714D01*
X141290606Y-83980819D01*
X141290603Y-83980826D01*
X141230263Y-84126502D01*
X141230261Y-84126507D01*
X141199500Y-84281153D01*
X127467603Y-84281153D01*
X127470370Y-79951153D01*
X131239500Y-79951153D01*
X131239500Y-80108846D01*
X131270261Y-80263492D01*
X131270263Y-80263497D01*
X131330603Y-80409173D01*
X131330606Y-80409180D01*
X131418208Y-80540285D01*
X131418211Y-80540289D01*
X131529711Y-80651789D01*
X131529714Y-80651791D01*
X131612853Y-80707343D01*
X131681552Y-80776042D01*
X131718730Y-80865792D01*
X131720262Y-80873495D01*
X131720263Y-80873497D01*
X131780603Y-81019173D01*
X131780606Y-81019180D01*
X131860562Y-81138842D01*
X131868211Y-81150289D01*
X131979711Y-81261789D01*
X131979714Y-81261791D01*
X132110819Y-81349393D01*
X132110820Y-81349393D01*
X132110821Y-81349394D01*
X132256503Y-81409737D01*
X132256505Y-81409737D01*
X132256507Y-81409738D01*
X132404487Y-81439173D01*
X132411158Y-81440500D01*
X132568842Y-81440500D01*
X132723497Y-81409737D01*
X132869179Y-81349394D01*
X132889180Y-81336029D01*
X132978931Y-81298851D01*
X133076086Y-81298848D01*
X133165846Y-81336025D01*
X133165853Y-81336029D01*
X133200819Y-81359393D01*
X133200820Y-81359393D01*
X133200821Y-81359394D01*
X133346503Y-81419737D01*
X133346505Y-81419737D01*
X133346507Y-81419738D01*
X133444244Y-81439179D01*
X133501158Y-81450500D01*
X133658842Y-81450500D01*
X133813497Y-81419737D01*
X133959179Y-81359394D01*
X134090289Y-81271789D01*
X134201789Y-81160289D01*
X134289394Y-81029179D01*
X134349737Y-80883497D01*
X134380500Y-80728842D01*
X134380500Y-80571158D01*
X134380499Y-80571153D01*
X135809500Y-80571153D01*
X135809500Y-80728846D01*
X135840261Y-80883492D01*
X135840263Y-80883497D01*
X135900603Y-81029173D01*
X135900606Y-81029180D01*
X135981529Y-81150289D01*
X135988211Y-81160289D01*
X136099711Y-81271789D01*
X136099714Y-81271791D01*
X136230819Y-81359393D01*
X136230820Y-81359393D01*
X136230821Y-81359394D01*
X136376503Y-81419737D01*
X136376505Y-81419737D01*
X136376507Y-81419738D01*
X136474244Y-81439179D01*
X136531158Y-81450500D01*
X136688842Y-81450500D01*
X136843497Y-81419737D01*
X136989179Y-81359394D01*
X137120289Y-81271789D01*
X137120298Y-81271779D01*
X137129743Y-81264030D01*
X137130716Y-81265215D01*
X137199871Y-81219001D01*
X137295158Y-81200041D01*
X137390448Y-81218989D01*
X137471233Y-81272960D01*
X137525215Y-81353737D01*
X137525221Y-81353752D01*
X137560606Y-81439179D01*
X137560606Y-81439180D01*
X137636991Y-81553497D01*
X137648211Y-81570289D01*
X137759711Y-81681789D01*
X137759714Y-81681791D01*
X137890819Y-81769393D01*
X137890820Y-81769393D01*
X137890821Y-81769394D01*
X138036503Y-81829737D01*
X138036505Y-81829737D01*
X138036507Y-81829738D01*
X138187148Y-81859702D01*
X138191158Y-81860500D01*
X138348842Y-81860500D01*
X138503497Y-81829737D01*
X138649179Y-81769394D01*
X138780289Y-81681789D01*
X138891789Y-81570289D01*
X138979394Y-81439179D01*
X139039737Y-81293497D01*
X139070500Y-81138842D01*
X139070500Y-80981158D01*
X139039737Y-80826503D01*
X138979394Y-80680821D01*
X138959995Y-80651789D01*
X138891791Y-80549714D01*
X138891789Y-80549711D01*
X138780289Y-80438211D01*
X138747801Y-80416503D01*
X138649180Y-80350606D01*
X138649173Y-80350603D01*
X138503497Y-80290263D01*
X138503494Y-80290262D01*
X138370921Y-80263891D01*
X138281162Y-80226711D01*
X138212463Y-80158012D01*
X138175284Y-80068252D01*
X138170500Y-80019676D01*
X138170500Y-80001158D01*
X138170499Y-80001153D01*
X138139738Y-79846507D01*
X138139737Y-79846505D01*
X138139737Y-79846503D01*
X138079394Y-79700821D01*
X138066030Y-79680821D01*
X137991791Y-79569714D01*
X137991789Y-79569711D01*
X137880289Y-79458211D01*
X137880285Y-79458208D01*
X137749180Y-79370606D01*
X137749173Y-79370603D01*
X137603497Y-79310263D01*
X137603492Y-79310261D01*
X137448846Y-79279500D01*
X137448842Y-79279500D01*
X137291158Y-79279500D01*
X137291153Y-79279500D01*
X137136507Y-79310261D01*
X137136502Y-79310263D01*
X136990826Y-79370603D01*
X136990819Y-79370606D01*
X136859714Y-79458208D01*
X136748208Y-79569714D01*
X136660606Y-79700819D01*
X136660604Y-79700824D01*
X136656045Y-79711831D01*
X136602067Y-79792611D01*
X136521284Y-79846586D01*
X136474581Y-79860753D01*
X136376504Y-79880262D01*
X136376502Y-79880263D01*
X136230826Y-79940603D01*
X136230819Y-79940606D01*
X136099714Y-80028208D01*
X135988208Y-80139714D01*
X135900606Y-80270819D01*
X135900603Y-80270826D01*
X135840263Y-80416502D01*
X135840261Y-80416507D01*
X135809500Y-80571153D01*
X134380499Y-80571153D01*
X134376344Y-80550263D01*
X134349738Y-80416507D01*
X134349737Y-80416505D01*
X134349737Y-80416503D01*
X134289394Y-80270821D01*
X134286505Y-80266498D01*
X134201791Y-80139714D01*
X134201789Y-80139711D01*
X134090289Y-80028211D01*
X134090285Y-80028208D01*
X133959180Y-79940606D01*
X133959173Y-79940603D01*
X133810417Y-79878987D01*
X133729635Y-79825011D01*
X133675659Y-79744232D01*
X133649394Y-79680821D01*
X133561789Y-79549711D01*
X133450289Y-79438211D01*
X133450285Y-79438208D01*
X133319180Y-79350606D01*
X133319173Y-79350603D01*
X133173497Y-79290263D01*
X133173492Y-79290261D01*
X133018846Y-79259500D01*
X133018842Y-79259500D01*
X132861158Y-79259500D01*
X132861153Y-79259500D01*
X132706509Y-79290261D01*
X132706505Y-79290262D01*
X132706503Y-79290263D01*
X132621440Y-79325496D01*
X132526156Y-79344449D01*
X132430868Y-79325494D01*
X132430073Y-79325118D01*
X132273497Y-79260263D01*
X132273492Y-79260261D01*
X132118846Y-79229500D01*
X132118842Y-79229500D01*
X131961158Y-79229500D01*
X131961153Y-79229500D01*
X131806507Y-79260261D01*
X131806502Y-79260263D01*
X131660826Y-79320603D01*
X131660819Y-79320606D01*
X131529714Y-79408208D01*
X131418208Y-79519714D01*
X131330606Y-79650819D01*
X131330603Y-79650826D01*
X131270263Y-79796502D01*
X131270261Y-79796507D01*
X131239500Y-79951153D01*
X127470370Y-79951153D01*
X127471105Y-78801153D01*
X171499500Y-78801153D01*
X171499500Y-78958846D01*
X171530261Y-79113492D01*
X171530263Y-79113497D01*
X171590603Y-79259173D01*
X171590606Y-79259180D01*
X171671529Y-79380289D01*
X171678211Y-79390289D01*
X171789711Y-79501789D01*
X171920821Y-79589394D01*
X172033773Y-79636180D01*
X172114551Y-79690153D01*
X172168528Y-79770934D01*
X172187346Y-79857954D01*
X172188299Y-79886646D01*
X172169500Y-79981158D01*
X172169500Y-80138842D01*
X172200263Y-80293497D01*
X172201956Y-80297585D01*
X172202809Y-80323242D01*
X172198161Y-80351479D01*
X172198161Y-80380090D01*
X172190346Y-80398955D01*
X172187030Y-80419107D01*
X172171931Y-80443414D01*
X172160982Y-80469849D01*
X172146542Y-80484288D01*
X172135767Y-80501636D01*
X172112516Y-80518314D01*
X172092283Y-80538548D01*
X172061003Y-80555267D01*
X172056823Y-80558266D01*
X172054281Y-80558859D01*
X172049234Y-80561558D01*
X171930822Y-80610605D01*
X171930819Y-80610606D01*
X171799714Y-80698208D01*
X171688208Y-80809714D01*
X171600606Y-80940819D01*
X171600603Y-80940826D01*
X171540263Y-81086502D01*
X171540261Y-81086507D01*
X171509500Y-81241153D01*
X171509500Y-81398846D01*
X171540261Y-81553492D01*
X171540263Y-81553497D01*
X171600603Y-81699173D01*
X171600606Y-81699180D01*
X171654799Y-81780285D01*
X171688211Y-81830289D01*
X171799711Y-81941789D01*
X171799714Y-81941791D01*
X171930819Y-82029393D01*
X171930821Y-82029394D01*
X172015788Y-82064588D01*
X172096567Y-82118561D01*
X172150545Y-82199342D01*
X172169500Y-82294630D01*
X172169500Y-82408846D01*
X172200261Y-82563492D01*
X172200263Y-82563497D01*
X172260603Y-82709173D01*
X172260606Y-82709180D01*
X172348208Y-82840285D01*
X172348211Y-82840289D01*
X172459711Y-82951789D01*
X172459714Y-82951791D01*
X172590819Y-83039393D01*
X172590820Y-83039393D01*
X172590821Y-83039394D01*
X172736503Y-83099737D01*
X172736505Y-83099737D01*
X172736507Y-83099738D01*
X172887148Y-83129702D01*
X172891158Y-83130500D01*
X173048842Y-83130500D01*
X173203497Y-83099737D01*
X173349179Y-83039394D01*
X173480289Y-82951789D01*
X173481721Y-82950356D01*
X173483403Y-82949232D01*
X173489743Y-82944030D01*
X173490255Y-82944654D01*
X173562500Y-82896383D01*
X173657788Y-82877429D01*
X173753076Y-82896383D01*
X173796125Y-82919393D01*
X173930819Y-83009393D01*
X173930820Y-83009393D01*
X173930821Y-83009394D01*
X174076503Y-83069737D01*
X174076505Y-83069737D01*
X174076507Y-83069738D01*
X174227148Y-83099702D01*
X174231158Y-83100500D01*
X174388842Y-83100500D01*
X174543497Y-83069737D01*
X174689179Y-83009394D01*
X174820289Y-82921789D01*
X174931789Y-82810289D01*
X175019394Y-82679179D01*
X175079737Y-82533497D01*
X175110500Y-82378842D01*
X175110500Y-82273628D01*
X175129454Y-82178340D01*
X175183430Y-82097558D01*
X175264212Y-82043582D01*
X175264214Y-82043581D01*
X175273491Y-82039738D01*
X175273497Y-82039737D01*
X175419179Y-81979394D01*
X175550289Y-81891789D01*
X175661789Y-81780289D01*
X175749394Y-81649179D01*
X175809737Y-81503497D01*
X175840500Y-81348842D01*
X175840500Y-81191158D01*
X175830093Y-81138841D01*
X175809738Y-81036507D01*
X175809737Y-81036505D01*
X175809737Y-81036503D01*
X175749394Y-80890821D01*
X175744500Y-80883497D01*
X175661791Y-80759714D01*
X175661789Y-80759711D01*
X175550289Y-80648211D01*
X175550285Y-80648208D01*
X175419180Y-80560606D01*
X175419173Y-80560603D01*
X175273497Y-80500263D01*
X175261788Y-80496711D01*
X175262524Y-80494282D01*
X175190397Y-80464397D01*
X175121706Y-80395691D01*
X175084535Y-80305928D01*
X175079923Y-80266498D01*
X175078855Y-80237381D01*
X175090500Y-80178842D01*
X175090500Y-80021158D01*
X175066507Y-79900541D01*
X175065778Y-79880633D01*
X175070395Y-79851969D01*
X175070395Y-79822935D01*
X175078048Y-79804456D01*
X175081229Y-79784714D01*
X175096462Y-79760002D01*
X175107574Y-79733175D01*
X175121717Y-79719031D01*
X175132210Y-79702010D01*
X175155742Y-79685006D01*
X175176273Y-79664476D01*
X175206567Y-79648283D01*
X175210959Y-79645110D01*
X175213737Y-79644450D01*
X175219325Y-79641464D01*
X175223491Y-79639738D01*
X175223497Y-79639737D01*
X175369179Y-79579394D01*
X175500289Y-79491789D01*
X175611789Y-79380289D01*
X175699394Y-79249179D01*
X175759737Y-79103497D01*
X175790500Y-78948842D01*
X175790500Y-78791158D01*
X175759737Y-78636503D01*
X175699394Y-78490821D01*
X175688340Y-78474278D01*
X175611791Y-78359714D01*
X175611789Y-78359711D01*
X175500289Y-78248211D01*
X175500285Y-78248208D01*
X175369180Y-78160606D01*
X175369173Y-78160603D01*
X175223497Y-78100263D01*
X175223492Y-78100261D01*
X175068846Y-78069500D01*
X175068842Y-78069500D01*
X174911158Y-78069500D01*
X174911153Y-78069500D01*
X174756507Y-78100261D01*
X174756502Y-78100263D01*
X174610826Y-78160603D01*
X174610819Y-78160606D01*
X174479714Y-78248208D01*
X174479711Y-78248210D01*
X174479711Y-78248211D01*
X174466066Y-78261855D01*
X174385288Y-78315829D01*
X174290000Y-78334783D01*
X174194712Y-78315829D01*
X174119866Y-78265819D01*
X174119743Y-78265970D01*
X174118215Y-78264716D01*
X174113933Y-78261855D01*
X174110289Y-78258211D01*
X174110285Y-78258208D01*
X173979180Y-78170606D01*
X173979173Y-78170603D01*
X173833497Y-78110263D01*
X173833492Y-78110261D01*
X173678846Y-78079500D01*
X173678842Y-78079500D01*
X173521158Y-78079500D01*
X173521153Y-78079500D01*
X173366507Y-78110261D01*
X173366502Y-78110263D01*
X173220826Y-78170603D01*
X173220819Y-78170606D01*
X173088337Y-78259129D01*
X172998577Y-78296309D01*
X172901422Y-78296309D01*
X172811663Y-78259129D01*
X172679180Y-78170606D01*
X172679173Y-78170603D01*
X172533497Y-78110263D01*
X172533492Y-78110261D01*
X172378846Y-78079500D01*
X172378842Y-78079500D01*
X172221158Y-78079500D01*
X172221153Y-78079500D01*
X172066507Y-78110261D01*
X172066502Y-78110263D01*
X171920826Y-78170603D01*
X171920819Y-78170606D01*
X171789714Y-78258208D01*
X171678208Y-78369714D01*
X171590606Y-78500819D01*
X171590603Y-78500826D01*
X171530263Y-78646502D01*
X171530261Y-78646507D01*
X171499500Y-78801153D01*
X127471105Y-78801153D01*
X127474539Y-73427742D01*
X127493554Y-73332467D01*
X127547582Y-73251720D01*
X127628398Y-73197795D01*
X127723698Y-73178902D01*
X127818974Y-73197917D01*
X127899605Y-73251829D01*
X127976604Y-73328828D01*
X128135845Y-73444524D01*
X128311225Y-73533884D01*
X128498424Y-73594709D01*
X128692833Y-73625500D01*
X128692837Y-73625500D01*
X128889663Y-73625500D01*
X128889667Y-73625500D01*
X129084076Y-73594709D01*
X129271275Y-73533884D01*
X129446655Y-73444524D01*
X129605896Y-73328828D01*
X129745078Y-73189646D01*
X129860774Y-73030405D01*
X129950134Y-72855025D01*
X130010959Y-72667826D01*
X130041750Y-72473417D01*
X130041750Y-72276583D01*
X130010959Y-72082174D01*
X129950134Y-71894975D01*
X129860774Y-71719595D01*
X129808630Y-71647826D01*
X129745080Y-71560357D01*
X129745078Y-71560354D01*
X129605896Y-71421172D01*
X129578527Y-71401287D01*
X129446660Y-71305479D01*
X129446657Y-71305477D01*
X129446655Y-71305476D01*
X129271275Y-71216116D01*
X129271274Y-71216115D01*
X129271273Y-71216115D01*
X129271267Y-71216113D01*
X129126258Y-71168997D01*
X129084076Y-71155291D01*
X129084074Y-71155290D01*
X129084072Y-71155290D01*
X128889678Y-71124501D01*
X128889669Y-71124500D01*
X128889667Y-71124500D01*
X128692833Y-71124500D01*
X128692830Y-71124500D01*
X128692821Y-71124501D01*
X128498427Y-71155290D01*
X128311232Y-71216113D01*
X128311226Y-71216115D01*
X128135840Y-71305478D01*
X128003972Y-71401287D01*
X127987469Y-71408894D01*
X127973333Y-71420319D01*
X127943748Y-71429050D01*
X127915741Y-71441962D01*
X127897582Y-71442675D01*
X127880151Y-71447820D01*
X127849476Y-71444565D01*
X127818661Y-71445776D01*
X127801613Y-71439486D01*
X127783539Y-71437569D01*
X127756444Y-71422823D01*
X127727511Y-71412149D01*
X127714167Y-71399814D01*
X127698203Y-71391126D01*
X127678815Y-71367135D01*
X127656168Y-71346201D01*
X127648560Y-71329698D01*
X127637136Y-71315562D01*
X127628404Y-71285977D01*
X127615493Y-71257970D01*
X127614779Y-71239811D01*
X127609635Y-71222380D01*
X127612889Y-71191705D01*
X127611679Y-71160890D01*
X127619881Y-71125787D01*
X127620453Y-71123951D01*
X127631104Y-71095866D01*
X127732718Y-70870090D01*
X127746675Y-70843496D01*
X127874770Y-70631602D01*
X127891834Y-70606883D01*
X127922557Y-70567669D01*
X128044510Y-70412007D01*
X128064440Y-70389508D01*
X128239508Y-70214440D01*
X128262007Y-70194510D01*
X128362891Y-70115472D01*
X128456887Y-70041830D01*
X128481602Y-70024770D01*
X128693496Y-69896675D01*
X128720090Y-69882718D01*
X128945866Y-69781104D01*
X128973943Y-69770455D01*
X129210332Y-69696794D01*
X129239500Y-69689605D01*
X129483023Y-69644978D01*
X129512840Y-69641357D01*
X129744581Y-69627340D01*
X129767496Y-69625954D01*
X129782529Y-69625500D01*
X129843788Y-69625500D01*
X129843879Y-69625488D01*
X138495315Y-69624186D01*
X138590604Y-69643126D01*
X138671393Y-69697090D01*
X138725382Y-69777863D01*
X138744350Y-69873149D01*
X138744349Y-69873794D01*
X138732947Y-74543049D01*
X138713761Y-74638291D01*
X138659587Y-74718940D01*
X138578674Y-74772719D01*
X138483340Y-74791440D01*
X138435372Y-74786657D01*
X138329427Y-74765583D01*
X138298842Y-74759500D01*
X138141158Y-74759500D01*
X138141153Y-74759500D01*
X137986507Y-74790261D01*
X137986502Y-74790263D01*
X137840826Y-74850603D01*
X137840819Y-74850606D01*
X137709714Y-74938208D01*
X137709711Y-74938210D01*
X137709711Y-74938211D01*
X137611349Y-75036572D01*
X137530571Y-75090546D01*
X137435283Y-75109500D01*
X137341153Y-75109500D01*
X137186507Y-75140261D01*
X137186502Y-75140263D01*
X137040826Y-75200603D01*
X137040821Y-75200605D01*
X136941615Y-75266893D01*
X136851855Y-75304072D01*
X136754700Y-75304071D01*
X136664941Y-75266891D01*
X136645316Y-75252336D01*
X136640292Y-75248213D01*
X136509180Y-75160606D01*
X136509173Y-75160603D01*
X136363497Y-75100263D01*
X136363492Y-75100261D01*
X136208846Y-75069500D01*
X136208842Y-75069500D01*
X136051158Y-75069500D01*
X136051153Y-75069500D01*
X135896507Y-75100261D01*
X135896502Y-75100263D01*
X135750826Y-75160603D01*
X135750819Y-75160606D01*
X135619714Y-75248208D01*
X135508208Y-75359714D01*
X135420606Y-75490819D01*
X135420603Y-75490826D01*
X135360263Y-75636502D01*
X135360261Y-75636507D01*
X135329500Y-75791153D01*
X135329500Y-75948846D01*
X135360261Y-76103492D01*
X135360263Y-76103497D01*
X135420603Y-76249173D01*
X135420606Y-76249180D01*
X135494988Y-76360500D01*
X135508211Y-76380289D01*
X135619711Y-76491789D01*
X135619714Y-76491791D01*
X135750819Y-76579393D01*
X135750820Y-76579393D01*
X135750821Y-76579394D01*
X135896503Y-76639737D01*
X135896505Y-76639737D01*
X135896507Y-76639738D01*
X136047148Y-76669702D01*
X136051158Y-76670500D01*
X136208842Y-76670500D01*
X136363497Y-76639737D01*
X136509179Y-76579394D01*
X136608384Y-76513107D01*
X136698141Y-76475928D01*
X136795296Y-76475927D01*
X136885056Y-76513106D01*
X136904685Y-76527664D01*
X136909712Y-76531790D01*
X137040819Y-76619393D01*
X137040820Y-76619393D01*
X137040821Y-76619394D01*
X137186503Y-76679737D01*
X137186505Y-76679737D01*
X137186507Y-76679738D01*
X137337148Y-76709702D01*
X137341158Y-76710500D01*
X137498842Y-76710500D01*
X137653497Y-76679737D01*
X137799179Y-76619394D01*
X137930289Y-76531789D01*
X138028650Y-76433427D01*
X138057593Y-76414088D01*
X138084179Y-76391620D01*
X138095655Y-76388657D01*
X138109429Y-76379454D01*
X138176734Y-76362077D01*
X138190678Y-76360500D01*
X138298842Y-76360500D01*
X138441397Y-76332143D01*
X138451749Y-76330973D01*
X138489962Y-76334180D01*
X138528308Y-76334180D01*
X138538054Y-76338216D01*
X138548563Y-76339099D01*
X138582632Y-76356681D01*
X138618068Y-76371359D01*
X138625527Y-76378818D01*
X138634899Y-76383655D01*
X138659651Y-76412942D01*
X138686767Y-76440058D01*
X138690802Y-76449801D01*
X138697612Y-76457858D01*
X138709274Y-76494393D01*
X138723947Y-76529817D01*
X138725567Y-76545438D01*
X138727155Y-76550413D01*
X138726675Y-76556125D01*
X138728719Y-76575829D01*
X138750000Y-78640000D01*
X159840000Y-78610000D01*
X159827279Y-75791153D01*
X163009500Y-75791153D01*
X163009500Y-75948846D01*
X163040261Y-76103492D01*
X163040263Y-76103497D01*
X163100603Y-76249173D01*
X163100606Y-76249180D01*
X163174988Y-76360500D01*
X163188211Y-76380289D01*
X163299711Y-76491789D01*
X163299714Y-76491791D01*
X163430819Y-76579393D01*
X163430820Y-76579393D01*
X163430821Y-76579394D01*
X163576503Y-76639737D01*
X163576505Y-76639737D01*
X163576507Y-76639738D01*
X163727148Y-76669702D01*
X163731158Y-76670500D01*
X163888842Y-76670500D01*
X164043497Y-76639737D01*
X164189179Y-76579394D01*
X164320289Y-76491789D01*
X164431789Y-76380289D01*
X164519394Y-76249179D01*
X164526861Y-76231153D01*
X166199500Y-76231153D01*
X166199500Y-76388846D01*
X166230261Y-76543492D01*
X166230263Y-76543497D01*
X166290603Y-76689173D01*
X166290606Y-76689180D01*
X166304852Y-76710500D01*
X166378211Y-76820289D01*
X166489711Y-76931789D01*
X166489714Y-76931791D01*
X166620819Y-77019393D01*
X166620820Y-77019393D01*
X166620821Y-77019394D01*
X166766503Y-77079737D01*
X166766505Y-77079737D01*
X166766507Y-77079738D01*
X166917148Y-77109702D01*
X166921158Y-77110500D01*
X167078842Y-77110500D01*
X167233497Y-77079737D01*
X167379179Y-77019394D01*
X167510289Y-76931789D01*
X167621789Y-76820289D01*
X167709394Y-76689179D01*
X167769737Y-76543497D01*
X167800500Y-76388842D01*
X167800500Y-76231158D01*
X167779112Y-76123635D01*
X167769738Y-76076507D01*
X167769737Y-76076505D01*
X167769737Y-76076503D01*
X167709394Y-75930821D01*
X167621789Y-75799711D01*
X167510289Y-75688211D01*
X167432903Y-75636503D01*
X167379180Y-75600606D01*
X167379173Y-75600603D01*
X167233497Y-75540263D01*
X167233492Y-75540261D01*
X167078846Y-75509500D01*
X167078842Y-75509500D01*
X166921158Y-75509500D01*
X166921153Y-75509500D01*
X166766507Y-75540261D01*
X166766502Y-75540263D01*
X166620826Y-75600603D01*
X166620819Y-75600606D01*
X166489714Y-75688208D01*
X166378208Y-75799714D01*
X166290606Y-75930819D01*
X166290603Y-75930826D01*
X166230263Y-76076502D01*
X166230261Y-76076507D01*
X166199500Y-76231153D01*
X164526861Y-76231153D01*
X164579737Y-76103497D01*
X164610500Y-75948842D01*
X164610500Y-75791158D01*
X164608290Y-75780049D01*
X164579738Y-75636507D01*
X164579737Y-75636505D01*
X164579737Y-75636503D01*
X164519394Y-75490821D01*
X164431789Y-75359711D01*
X164320289Y-75248211D01*
X164320285Y-75248208D01*
X164189180Y-75160606D01*
X164189173Y-75160603D01*
X164043497Y-75100263D01*
X164043492Y-75100261D01*
X163888846Y-75069500D01*
X163888842Y-75069500D01*
X163731158Y-75069500D01*
X163731153Y-75069500D01*
X163576507Y-75100261D01*
X163576502Y-75100263D01*
X163430826Y-75160603D01*
X163430819Y-75160606D01*
X163299714Y-75248208D01*
X163188208Y-75359714D01*
X163100606Y-75490819D01*
X163100603Y-75490826D01*
X163040263Y-75636502D01*
X163040261Y-75636507D01*
X163009500Y-75791153D01*
X159827279Y-75791153D01*
X159804584Y-70762123D01*
X160479500Y-70762123D01*
X160479500Y-72557865D01*
X160479501Y-72557869D01*
X160485908Y-72617480D01*
X160485909Y-72617484D01*
X160510850Y-72684353D01*
X160536204Y-72752331D01*
X160622454Y-72867546D01*
X160737669Y-72953796D01*
X160872517Y-73004091D01*
X160932127Y-73010500D01*
X162727872Y-73010499D01*
X162787483Y-73004091D01*
X162922331Y-72953796D01*
X163037546Y-72867546D01*
X163123796Y-72752331D01*
X163123796Y-72752329D01*
X163134469Y-72738073D01*
X163137616Y-72740429D01*
X163178789Y-72691159D01*
X163264875Y-72646123D01*
X163361643Y-72637458D01*
X163454360Y-72666485D01*
X163481626Y-72685270D01*
X163482293Y-72684353D01*
X163490206Y-72690102D01*
X163490208Y-72690104D01*
X163662184Y-72815051D01*
X163851588Y-72911557D01*
X164053757Y-72977246D01*
X164127601Y-72988941D01*
X164263703Y-73010499D01*
X164263710Y-73010499D01*
X164263713Y-73010500D01*
X164263716Y-73010500D01*
X164476284Y-73010500D01*
X164476287Y-73010500D01*
X164476290Y-73010499D01*
X164476296Y-73010499D01*
X164575476Y-72994789D01*
X164686243Y-72977246D01*
X164888412Y-72911557D01*
X165077816Y-72815051D01*
X165249792Y-72690104D01*
X165400104Y-72539792D01*
X165438555Y-72486867D01*
X165509897Y-72420920D01*
X165601047Y-72387293D01*
X165698127Y-72391107D01*
X165786358Y-72431781D01*
X165841444Y-72486867D01*
X165879896Y-72539792D01*
X166030208Y-72690104D01*
X166202184Y-72815051D01*
X166391588Y-72911557D01*
X166593757Y-72977246D01*
X166667601Y-72988941D01*
X166803703Y-73010499D01*
X166803710Y-73010499D01*
X166803713Y-73010500D01*
X166803716Y-73010500D01*
X167016284Y-73010500D01*
X167016287Y-73010500D01*
X167016290Y-73010499D01*
X167016296Y-73010499D01*
X167115476Y-72994789D01*
X167226243Y-72977246D01*
X167428412Y-72911557D01*
X167617816Y-72815051D01*
X167789792Y-72690104D01*
X167940104Y-72539792D01*
X167978555Y-72486867D01*
X168049897Y-72420920D01*
X168141047Y-72387293D01*
X168238127Y-72391107D01*
X168326358Y-72431781D01*
X168381444Y-72486867D01*
X168419896Y-72539792D01*
X168570208Y-72690104D01*
X168742184Y-72815051D01*
X168931588Y-72911557D01*
X169133757Y-72977246D01*
X169207601Y-72988941D01*
X169343703Y-73010499D01*
X169343710Y-73010499D01*
X169343713Y-73010500D01*
X169343716Y-73010500D01*
X169556284Y-73010500D01*
X169556287Y-73010500D01*
X169556290Y-73010499D01*
X169556296Y-73010499D01*
X169655476Y-72994789D01*
X169766243Y-72977246D01*
X169968412Y-72911557D01*
X170157816Y-72815051D01*
X170329792Y-72690104D01*
X170480104Y-72539792D01*
X170518555Y-72486867D01*
X170589897Y-72420920D01*
X170681047Y-72387293D01*
X170778127Y-72391107D01*
X170866358Y-72431781D01*
X170921444Y-72486867D01*
X170959896Y-72539792D01*
X171110208Y-72690104D01*
X171282184Y-72815051D01*
X171471588Y-72911557D01*
X171673757Y-72977246D01*
X171747601Y-72988941D01*
X171883703Y-73010499D01*
X171883710Y-73010499D01*
X171883713Y-73010500D01*
X171883716Y-73010500D01*
X172096284Y-73010500D01*
X172096287Y-73010500D01*
X172096290Y-73010499D01*
X172096296Y-73010499D01*
X172195476Y-72994789D01*
X172306243Y-72977246D01*
X172508412Y-72911557D01*
X172697816Y-72815051D01*
X172869792Y-72690104D01*
X173020104Y-72539792D01*
X173145051Y-72367816D01*
X173241557Y-72178412D01*
X173307246Y-71976243D01*
X173324789Y-71865476D01*
X173340499Y-71766296D01*
X173340500Y-71766284D01*
X173340500Y-71553715D01*
X173340499Y-71553703D01*
X173315039Y-71392962D01*
X173307246Y-71343757D01*
X173241557Y-71141588D01*
X173145051Y-70952184D01*
X173020104Y-70780208D01*
X172869792Y-70629896D01*
X172697816Y-70504949D01*
X172508412Y-70408443D01*
X172508409Y-70408442D01*
X172508407Y-70408441D01*
X172306240Y-70342753D01*
X172096296Y-70309500D01*
X172096287Y-70309500D01*
X171883713Y-70309500D01*
X171883703Y-70309500D01*
X171673759Y-70342753D01*
X171471592Y-70408441D01*
X171282182Y-70504950D01*
X171110206Y-70629897D01*
X170959896Y-70780207D01*
X170921445Y-70833131D01*
X170850101Y-70899080D01*
X170758951Y-70932707D01*
X170661871Y-70928892D01*
X170573641Y-70888217D01*
X170518555Y-70833131D01*
X170480103Y-70780207D01*
X170329793Y-70629897D01*
X170322222Y-70624396D01*
X170157816Y-70504949D01*
X169968412Y-70408443D01*
X169968409Y-70408442D01*
X169968407Y-70408441D01*
X169766240Y-70342753D01*
X169556296Y-70309500D01*
X169556287Y-70309500D01*
X169343713Y-70309500D01*
X169343703Y-70309500D01*
X169133759Y-70342753D01*
X168931592Y-70408441D01*
X168742182Y-70504950D01*
X168570206Y-70629897D01*
X168419896Y-70780207D01*
X168381445Y-70833131D01*
X168310101Y-70899080D01*
X168218951Y-70932707D01*
X168121871Y-70928892D01*
X168033641Y-70888217D01*
X167978555Y-70833131D01*
X167940103Y-70780207D01*
X167789793Y-70629897D01*
X167782222Y-70624396D01*
X167617816Y-70504949D01*
X167428412Y-70408443D01*
X167428409Y-70408442D01*
X167428407Y-70408441D01*
X167226240Y-70342753D01*
X167016296Y-70309500D01*
X167016287Y-70309500D01*
X166803713Y-70309500D01*
X166803703Y-70309500D01*
X166593759Y-70342753D01*
X166391592Y-70408441D01*
X166202182Y-70504950D01*
X166030206Y-70629897D01*
X165879896Y-70780207D01*
X165841445Y-70833131D01*
X165770101Y-70899080D01*
X165678951Y-70932707D01*
X165581871Y-70928892D01*
X165493641Y-70888217D01*
X165438555Y-70833131D01*
X165400103Y-70780207D01*
X165249793Y-70629897D01*
X165242222Y-70624396D01*
X165077816Y-70504949D01*
X164888412Y-70408443D01*
X164888409Y-70408442D01*
X164888407Y-70408441D01*
X164686240Y-70342753D01*
X164476296Y-70309500D01*
X164476287Y-70309500D01*
X164263713Y-70309500D01*
X164263703Y-70309500D01*
X164053759Y-70342753D01*
X163851592Y-70408441D01*
X163662182Y-70504950D01*
X163575857Y-70567669D01*
X163490208Y-70629896D01*
X163490206Y-70629897D01*
X163482293Y-70635647D01*
X163480630Y-70633359D01*
X163411814Y-70671834D01*
X163315324Y-70683184D01*
X163221835Y-70656746D01*
X163145581Y-70596543D01*
X163135160Y-70581409D01*
X163134469Y-70581927D01*
X163123796Y-70567670D01*
X163123796Y-70567669D01*
X163037546Y-70452454D01*
X162922331Y-70366204D01*
X162842117Y-70336286D01*
X162787481Y-70315908D01*
X162727873Y-70309500D01*
X160932134Y-70309500D01*
X160932130Y-70309500D01*
X160932128Y-70309501D01*
X160919314Y-70310878D01*
X160872519Y-70315908D01*
X160872515Y-70315909D01*
X160737670Y-70366203D01*
X160622455Y-70452453D01*
X160622453Y-70452455D01*
X160536204Y-70567669D01*
X160485908Y-70702518D01*
X160479500Y-70762123D01*
X159804584Y-70762123D01*
X159800563Y-69871061D01*
X159819086Y-69775691D01*
X159872698Y-69694667D01*
X159953235Y-69640326D01*
X160048436Y-69620943D01*
X160049388Y-69620940D01*
X177799682Y-69618268D01*
X177814749Y-69618721D01*
G37*
G04 #@! TD.AperFunction*
M02*
