G04 #@! TF.GenerationSoftware,KiCad,Pcbnew,9.0.0*
G04 #@! TF.CreationDate,2025-02-24T19:41:21+01:00*
G04 #@! TF.ProjectId,SourceFIle,536f7572-6365-4464-996c-652e6b696361,02*
G04 #@! TF.SameCoordinates,Original*
G04 #@! TF.FileFunction,Legend,Bot*
G04 #@! TF.FilePolarity,Positive*
%FSLAX46Y46*%
G04 Gerber Fmt 4.6, Leading zero omitted, Abs format (unit mm)*
G04 Created by KiCad (PCBNEW 9.0.0) date 2025-02-24 19:41:21*
%MOMM*%
%LPD*%
G01*
G04 APERTURE LIST*
%ADD10C,0.150000*%
%ADD11C,0.120000*%
%ADD12C,0.000000*%
G04 APERTURE END LIST*
D10*
G36*
X176658967Y-91150446D02*
G01*
X176702930Y-91158262D01*
X176728820Y-91173405D01*
X176743475Y-91198806D01*
X177339427Y-92837676D01*
X177351639Y-92886036D01*
X177341870Y-92913879D01*
X177305722Y-92926580D01*
X177240753Y-92930000D01*
X177178227Y-92927557D01*
X177141102Y-92918764D01*
X177121074Y-92903621D01*
X177110327Y-92882616D01*
X176964270Y-92461053D01*
X176225191Y-92461053D01*
X176072784Y-92887990D01*
X176061549Y-92908506D01*
X176042009Y-92921207D01*
X176003419Y-92928046D01*
X175935519Y-92930000D01*
X175867620Y-92927557D01*
X175831472Y-92915345D01*
X175820725Y-92887501D01*
X175832449Y-92839141D01*
X176038253Y-92273475D01*
X176287229Y-92273475D01*
X176905163Y-92273475D01*
X176598883Y-91398108D01*
X176597418Y-91398108D01*
X176287229Y-92273475D01*
X176038253Y-92273475D01*
X176428890Y-91199783D01*
X176444033Y-91173893D01*
X176471388Y-91158262D01*
X176517794Y-91150446D01*
X176590579Y-91148004D01*
X176658967Y-91150446D01*
G37*
G36*
X174946336Y-92880662D02*
G01*
X174961967Y-92905575D01*
X174988346Y-92920718D01*
X175032309Y-92928046D01*
X175098743Y-92930000D01*
X175151988Y-92929511D01*
X175191067Y-92926092D01*
X175219399Y-92919741D01*
X175238939Y-92910949D01*
X175252128Y-92898248D01*
X175260921Y-92879685D01*
X175842219Y-91239351D01*
X175853942Y-91190990D01*
X175842219Y-91163147D01*
X175802651Y-91150935D01*
X175728401Y-91148004D01*
X175667341Y-91149958D01*
X175632170Y-91157773D01*
X175613607Y-91171939D01*
X175601884Y-91194410D01*
X175091905Y-92680383D01*
X175090928Y-92680383D01*
X174594626Y-91197341D01*
X174585345Y-91172916D01*
X174565806Y-91157773D01*
X174527704Y-91149958D01*
X174461270Y-91148004D01*
X174394347Y-91151423D01*
X174360642Y-91164612D01*
X174353803Y-91192456D01*
X174366503Y-91240816D01*
X174946336Y-92880662D01*
G37*
G36*
X173704605Y-91150446D02*
G01*
X173748569Y-91158262D01*
X173774459Y-91173405D01*
X173789113Y-91198806D01*
X174385066Y-92837676D01*
X174397278Y-92886036D01*
X174387508Y-92913879D01*
X174351360Y-92926580D01*
X174286392Y-92930000D01*
X174223866Y-92927557D01*
X174186741Y-92918764D01*
X174166713Y-92903621D01*
X174155966Y-92882616D01*
X174009909Y-92461053D01*
X173270830Y-92461053D01*
X173118422Y-92887990D01*
X173107187Y-92908506D01*
X173087648Y-92921207D01*
X173049057Y-92928046D01*
X172981158Y-92930000D01*
X172913258Y-92927557D01*
X172877110Y-92915345D01*
X172866364Y-92887501D01*
X172878087Y-92839141D01*
X173083891Y-92273475D01*
X173332868Y-92273475D01*
X173950802Y-92273475D01*
X173644521Y-91398108D01*
X173643056Y-91398108D01*
X173332868Y-92273475D01*
X173083891Y-92273475D01*
X173474528Y-91199783D01*
X173489672Y-91173893D01*
X173517027Y-91158262D01*
X173563433Y-91150446D01*
X173636217Y-91148004D01*
X173704605Y-91150446D01*
G37*
G36*
X171237752Y-92880662D02*
G01*
X171253384Y-92905575D01*
X171279762Y-92920718D01*
X171323726Y-92928046D01*
X171390160Y-92930000D01*
X171443405Y-92929511D01*
X171482484Y-92926092D01*
X171510816Y-92919741D01*
X171530355Y-92910949D01*
X171543545Y-92898248D01*
X171552337Y-92879685D01*
X172133635Y-91239351D01*
X172145359Y-91190990D01*
X172133635Y-91163147D01*
X172094068Y-91150935D01*
X172019818Y-91148004D01*
X171958757Y-91149958D01*
X171923586Y-91157773D01*
X171905024Y-91171939D01*
X171893300Y-91194410D01*
X171383321Y-92680383D01*
X171382344Y-92680383D01*
X170886043Y-91197341D01*
X170876762Y-91172916D01*
X170857222Y-91157773D01*
X170819120Y-91149958D01*
X170752686Y-91148004D01*
X170685764Y-91151423D01*
X170652058Y-91164612D01*
X170645219Y-91192456D01*
X170657920Y-91240816D01*
X171237752Y-92880662D01*
G37*
G36*
X169330704Y-92833768D02*
G01*
X169335101Y-92879197D01*
X169345847Y-92908995D01*
X169361479Y-92925115D01*
X169380041Y-92930000D01*
X170308653Y-92930000D01*
X170326727Y-92925115D01*
X170342847Y-92908995D01*
X170354570Y-92879197D01*
X170358478Y-92833768D01*
X170354570Y-92789804D01*
X170343824Y-92759518D01*
X170328681Y-92740956D01*
X170308653Y-92734605D01*
X169937892Y-92734605D01*
X169937892Y-91398108D01*
X170281297Y-91616950D01*
X170323307Y-91634047D01*
X170348709Y-91627697D01*
X170361898Y-91597411D01*
X170365317Y-91543189D01*
X170363363Y-91501667D01*
X170357013Y-91473335D01*
X170345289Y-91453796D01*
X170325261Y-91436699D01*
X169915910Y-91165101D01*
X169902233Y-91158262D01*
X169881716Y-91152400D01*
X169852896Y-91148981D01*
X169811374Y-91148004D01*
X169756664Y-91150935D01*
X169722470Y-91158262D01*
X169705861Y-91170474D01*
X169701465Y-91186106D01*
X169701465Y-92734605D01*
X169380041Y-92734605D01*
X169359525Y-92740956D01*
X169343893Y-92759518D01*
X169334124Y-92789804D01*
X169330704Y-92833768D01*
G37*
G36*
X168682972Y-92771730D02*
G01*
X168696857Y-92869403D01*
X168715212Y-92898736D01*
X168812024Y-92929511D01*
X168832449Y-92930000D01*
X168930432Y-92911216D01*
X168946755Y-92899225D01*
X168977254Y-92803127D01*
X168978018Y-92775638D01*
X168964133Y-92678175D01*
X168945778Y-92649120D01*
X168848966Y-92617865D01*
X168828541Y-92617369D01*
X168730856Y-92636152D01*
X168714724Y-92648143D01*
X168683747Y-92744241D01*
X168682972Y-92771730D01*
G37*
G36*
X167224354Y-92426371D02*
G01*
X167232582Y-92528739D01*
X167259659Y-92628459D01*
X167267341Y-92647166D01*
X167315340Y-92733097D01*
X167379654Y-92806792D01*
X167389462Y-92815694D01*
X167472266Y-92874205D01*
X167564269Y-92916226D01*
X167585833Y-92923649D01*
X167685690Y-92948002D01*
X167786737Y-92959463D01*
X167849616Y-92961263D01*
X167951637Y-92955924D01*
X168016678Y-92946120D01*
X168115392Y-92923199D01*
X168154919Y-92910949D01*
X168247372Y-92872559D01*
X168255059Y-92868450D01*
X168304884Y-92836699D01*
X168321004Y-92817159D01*
X168330774Y-92792735D01*
X168336636Y-92758053D01*
X168338590Y-92707739D01*
X168329309Y-92637397D01*
X168301465Y-92617369D01*
X168253105Y-92640816D01*
X168166809Y-92688214D01*
X168159804Y-92691618D01*
X168067805Y-92728923D01*
X168026448Y-92742421D01*
X167929520Y-92761999D01*
X167856454Y-92765868D01*
X167756482Y-92757602D01*
X167697208Y-92742421D01*
X167606533Y-92696534D01*
X167581926Y-92676475D01*
X167521201Y-92597096D01*
X167511584Y-92575847D01*
X167489258Y-92477995D01*
X167488136Y-92448353D01*
X167502220Y-92351632D01*
X167517934Y-92312554D01*
X167577560Y-92231038D01*
X167604396Y-92208018D01*
X167690559Y-92159151D01*
X167744591Y-92140607D01*
X167845278Y-92121647D01*
X167933635Y-92117159D01*
X168102651Y-92117159D01*
X168123656Y-92112274D01*
X168141730Y-92096643D01*
X168153942Y-92067822D01*
X168158827Y-92020439D01*
X168154919Y-91977452D01*
X168143196Y-91949609D01*
X168126099Y-91934466D01*
X168103628Y-91929581D01*
X167948778Y-91929581D01*
X167847600Y-91921142D01*
X167786113Y-91905645D01*
X167697096Y-91862805D01*
X167663503Y-91836769D01*
X167601495Y-91759740D01*
X167586810Y-91729790D01*
X167562069Y-91632338D01*
X167559944Y-91590083D01*
X167574788Y-91492276D01*
X167578018Y-91482616D01*
X167629052Y-91396076D01*
X167631263Y-91393712D01*
X167712344Y-91338293D01*
X167722609Y-91334117D01*
X167820056Y-91313187D01*
X167851081Y-91312135D01*
X167950117Y-91322443D01*
X167997627Y-91336071D01*
X168089310Y-91373165D01*
X168116329Y-91386385D01*
X168202791Y-91437187D01*
X168250662Y-91460635D01*
X168268248Y-91457215D01*
X168280460Y-91443538D01*
X168287299Y-91415205D01*
X168289253Y-91366357D01*
X168287787Y-91330209D01*
X168282414Y-91303342D01*
X168273133Y-91281849D01*
X168254570Y-91259378D01*
X168201325Y-91221765D01*
X168113880Y-91177897D01*
X168103140Y-91173405D01*
X168009791Y-91143035D01*
X167968318Y-91133349D01*
X167868483Y-91119076D01*
X167804187Y-91116741D01*
X167701845Y-91122912D01*
X167605059Y-91143219D01*
X167587299Y-91148981D01*
X167496852Y-91190299D01*
X167431472Y-91239351D01*
X167368416Y-91317054D01*
X167338171Y-91379546D01*
X167312892Y-91476884D01*
X167306908Y-91560286D01*
X167315495Y-91662371D01*
X167328890Y-91719043D01*
X167368812Y-91811503D01*
X167393370Y-91848492D01*
X167464555Y-91921367D01*
X167497906Y-91945212D01*
X167587535Y-91986626D01*
X167641032Y-91999923D01*
X167641032Y-92002854D01*
X167542269Y-92021950D01*
X167472505Y-92048771D01*
X167385646Y-92101818D01*
X167341591Y-92140607D01*
X167279661Y-92220619D01*
X167255617Y-92269078D01*
X167228750Y-92364867D01*
X167224354Y-92426371D01*
G37*
X135832857Y-83049580D02*
X135880476Y-83097200D01*
X135880476Y-83097200D02*
X136023333Y-83144819D01*
X136023333Y-83144819D02*
X136118571Y-83144819D01*
X136118571Y-83144819D02*
X136261428Y-83097200D01*
X136261428Y-83097200D02*
X136356666Y-83001961D01*
X136356666Y-83001961D02*
X136404285Y-82906723D01*
X136404285Y-82906723D02*
X136451904Y-82716247D01*
X136451904Y-82716247D02*
X136451904Y-82573390D01*
X136451904Y-82573390D02*
X136404285Y-82382914D01*
X136404285Y-82382914D02*
X136356666Y-82287676D01*
X136356666Y-82287676D02*
X136261428Y-82192438D01*
X136261428Y-82192438D02*
X136118571Y-82144819D01*
X136118571Y-82144819D02*
X136023333Y-82144819D01*
X136023333Y-82144819D02*
X135880476Y-82192438D01*
X135880476Y-82192438D02*
X135832857Y-82240057D01*
X134880476Y-83144819D02*
X135451904Y-83144819D01*
X135166190Y-83144819D02*
X135166190Y-82144819D01*
X135166190Y-82144819D02*
X135261428Y-82287676D01*
X135261428Y-82287676D02*
X135356666Y-82382914D01*
X135356666Y-82382914D02*
X135451904Y-82430533D01*
X134309047Y-82573390D02*
X134404285Y-82525771D01*
X134404285Y-82525771D02*
X134451904Y-82478152D01*
X134451904Y-82478152D02*
X134499523Y-82382914D01*
X134499523Y-82382914D02*
X134499523Y-82335295D01*
X134499523Y-82335295D02*
X134451904Y-82240057D01*
X134451904Y-82240057D02*
X134404285Y-82192438D01*
X134404285Y-82192438D02*
X134309047Y-82144819D01*
X134309047Y-82144819D02*
X134118571Y-82144819D01*
X134118571Y-82144819D02*
X134023333Y-82192438D01*
X134023333Y-82192438D02*
X133975714Y-82240057D01*
X133975714Y-82240057D02*
X133928095Y-82335295D01*
X133928095Y-82335295D02*
X133928095Y-82382914D01*
X133928095Y-82382914D02*
X133975714Y-82478152D01*
X133975714Y-82478152D02*
X134023333Y-82525771D01*
X134023333Y-82525771D02*
X134118571Y-82573390D01*
X134118571Y-82573390D02*
X134309047Y-82573390D01*
X134309047Y-82573390D02*
X134404285Y-82621009D01*
X134404285Y-82621009D02*
X134451904Y-82668628D01*
X134451904Y-82668628D02*
X134499523Y-82763866D01*
X134499523Y-82763866D02*
X134499523Y-82954342D01*
X134499523Y-82954342D02*
X134451904Y-83049580D01*
X134451904Y-83049580D02*
X134404285Y-83097200D01*
X134404285Y-83097200D02*
X134309047Y-83144819D01*
X134309047Y-83144819D02*
X134118571Y-83144819D01*
X134118571Y-83144819D02*
X134023333Y-83097200D01*
X134023333Y-83097200D02*
X133975714Y-83049580D01*
X133975714Y-83049580D02*
X133928095Y-82954342D01*
X133928095Y-82954342D02*
X133928095Y-82763866D01*
X133928095Y-82763866D02*
X133975714Y-82668628D01*
X133975714Y-82668628D02*
X134023333Y-82621009D01*
X134023333Y-82621009D02*
X134118571Y-82573390D01*
X130482857Y-81829580D02*
X130530476Y-81877200D01*
X130530476Y-81877200D02*
X130673333Y-81924819D01*
X130673333Y-81924819D02*
X130768571Y-81924819D01*
X130768571Y-81924819D02*
X130911428Y-81877200D01*
X130911428Y-81877200D02*
X131006666Y-81781961D01*
X131006666Y-81781961D02*
X131054285Y-81686723D01*
X131054285Y-81686723D02*
X131101904Y-81496247D01*
X131101904Y-81496247D02*
X131101904Y-81353390D01*
X131101904Y-81353390D02*
X131054285Y-81162914D01*
X131054285Y-81162914D02*
X131006666Y-81067676D01*
X131006666Y-81067676D02*
X130911428Y-80972438D01*
X130911428Y-80972438D02*
X130768571Y-80924819D01*
X130768571Y-80924819D02*
X130673333Y-80924819D01*
X130673333Y-80924819D02*
X130530476Y-80972438D01*
X130530476Y-80972438D02*
X130482857Y-81020057D01*
X129530476Y-81924819D02*
X130101904Y-81924819D01*
X129816190Y-81924819D02*
X129816190Y-80924819D01*
X129816190Y-80924819D02*
X129911428Y-81067676D01*
X129911428Y-81067676D02*
X130006666Y-81162914D01*
X130006666Y-81162914D02*
X130101904Y-81210533D01*
X129149523Y-81020057D02*
X129101904Y-80972438D01*
X129101904Y-80972438D02*
X129006666Y-80924819D01*
X129006666Y-80924819D02*
X128768571Y-80924819D01*
X128768571Y-80924819D02*
X128673333Y-80972438D01*
X128673333Y-80972438D02*
X128625714Y-81020057D01*
X128625714Y-81020057D02*
X128578095Y-81115295D01*
X128578095Y-81115295D02*
X128578095Y-81210533D01*
X128578095Y-81210533D02*
X128625714Y-81353390D01*
X128625714Y-81353390D02*
X129197142Y-81924819D01*
X129197142Y-81924819D02*
X128578095Y-81924819D01*
X130426666Y-80359580D02*
X130474285Y-80407200D01*
X130474285Y-80407200D02*
X130617142Y-80454819D01*
X130617142Y-80454819D02*
X130712380Y-80454819D01*
X130712380Y-80454819D02*
X130855237Y-80407200D01*
X130855237Y-80407200D02*
X130950475Y-80311961D01*
X130950475Y-80311961D02*
X130998094Y-80216723D01*
X130998094Y-80216723D02*
X131045713Y-80026247D01*
X131045713Y-80026247D02*
X131045713Y-79883390D01*
X131045713Y-79883390D02*
X130998094Y-79692914D01*
X130998094Y-79692914D02*
X130950475Y-79597676D01*
X130950475Y-79597676D02*
X130855237Y-79502438D01*
X130855237Y-79502438D02*
X130712380Y-79454819D01*
X130712380Y-79454819D02*
X130617142Y-79454819D01*
X130617142Y-79454819D02*
X130474285Y-79502438D01*
X130474285Y-79502438D02*
X130426666Y-79550057D01*
X130093332Y-79454819D02*
X129426666Y-79454819D01*
X129426666Y-79454819D02*
X129855237Y-80454819D01*
X134707530Y-74372142D02*
X134755150Y-74324523D01*
X134755150Y-74324523D02*
X134802769Y-74181666D01*
X134802769Y-74181666D02*
X134802769Y-74086428D01*
X134802769Y-74086428D02*
X134755150Y-73943571D01*
X134755150Y-73943571D02*
X134659911Y-73848333D01*
X134659911Y-73848333D02*
X134564673Y-73800714D01*
X134564673Y-73800714D02*
X134374197Y-73753095D01*
X134374197Y-73753095D02*
X134231340Y-73753095D01*
X134231340Y-73753095D02*
X134040864Y-73800714D01*
X134040864Y-73800714D02*
X133945626Y-73848333D01*
X133945626Y-73848333D02*
X133850388Y-73943571D01*
X133850388Y-73943571D02*
X133802769Y-74086428D01*
X133802769Y-74086428D02*
X133802769Y-74181666D01*
X133802769Y-74181666D02*
X133850388Y-74324523D01*
X133850388Y-74324523D02*
X133898007Y-74372142D01*
X134802769Y-75324523D02*
X134802769Y-74753095D01*
X134802769Y-75038809D02*
X133802769Y-75038809D01*
X133802769Y-75038809D02*
X133945626Y-74943571D01*
X133945626Y-74943571D02*
X134040864Y-74848333D01*
X134040864Y-74848333D02*
X134088483Y-74753095D01*
X133802769Y-76229285D02*
X133802769Y-75753095D01*
X133802769Y-75753095D02*
X134278959Y-75705476D01*
X134278959Y-75705476D02*
X134231340Y-75753095D01*
X134231340Y-75753095D02*
X134183721Y-75848333D01*
X134183721Y-75848333D02*
X134183721Y-76086428D01*
X134183721Y-76086428D02*
X134231340Y-76181666D01*
X134231340Y-76181666D02*
X134278959Y-76229285D01*
X134278959Y-76229285D02*
X134374197Y-76276904D01*
X134374197Y-76276904D02*
X134612292Y-76276904D01*
X134612292Y-76276904D02*
X134707530Y-76229285D01*
X134707530Y-76229285D02*
X134755150Y-76181666D01*
X134755150Y-76181666D02*
X134802769Y-76086428D01*
X134802769Y-76086428D02*
X134802769Y-75848333D01*
X134802769Y-75848333D02*
X134755150Y-75753095D01*
X134755150Y-75753095D02*
X134707530Y-75705476D01*
X144819580Y-89573333D02*
X144867200Y-89525714D01*
X144867200Y-89525714D02*
X144914819Y-89382857D01*
X144914819Y-89382857D02*
X144914819Y-89287619D01*
X144914819Y-89287619D02*
X144867200Y-89144762D01*
X144867200Y-89144762D02*
X144771961Y-89049524D01*
X144771961Y-89049524D02*
X144676723Y-89001905D01*
X144676723Y-89001905D02*
X144486247Y-88954286D01*
X144486247Y-88954286D02*
X144343390Y-88954286D01*
X144343390Y-88954286D02*
X144152914Y-89001905D01*
X144152914Y-89001905D02*
X144057676Y-89049524D01*
X144057676Y-89049524D02*
X143962438Y-89144762D01*
X143962438Y-89144762D02*
X143914819Y-89287619D01*
X143914819Y-89287619D02*
X143914819Y-89382857D01*
X143914819Y-89382857D02*
X143962438Y-89525714D01*
X143962438Y-89525714D02*
X144010057Y-89573333D01*
X143914819Y-90430476D02*
X143914819Y-90240000D01*
X143914819Y-90240000D02*
X143962438Y-90144762D01*
X143962438Y-90144762D02*
X144010057Y-90097143D01*
X144010057Y-90097143D02*
X144152914Y-90001905D01*
X144152914Y-90001905D02*
X144343390Y-89954286D01*
X144343390Y-89954286D02*
X144724342Y-89954286D01*
X144724342Y-89954286D02*
X144819580Y-90001905D01*
X144819580Y-90001905D02*
X144867200Y-90049524D01*
X144867200Y-90049524D02*
X144914819Y-90144762D01*
X144914819Y-90144762D02*
X144914819Y-90335238D01*
X144914819Y-90335238D02*
X144867200Y-90430476D01*
X144867200Y-90430476D02*
X144819580Y-90478095D01*
X144819580Y-90478095D02*
X144724342Y-90525714D01*
X144724342Y-90525714D02*
X144486247Y-90525714D01*
X144486247Y-90525714D02*
X144391009Y-90478095D01*
X144391009Y-90478095D02*
X144343390Y-90430476D01*
X144343390Y-90430476D02*
X144295771Y-90335238D01*
X144295771Y-90335238D02*
X144295771Y-90144762D01*
X144295771Y-90144762D02*
X144343390Y-90049524D01*
X144343390Y-90049524D02*
X144391009Y-90001905D01*
X144391009Y-90001905D02*
X144486247Y-89954286D01*
X132096666Y-98589580D02*
X132144285Y-98637200D01*
X132144285Y-98637200D02*
X132287142Y-98684819D01*
X132287142Y-98684819D02*
X132382380Y-98684819D01*
X132382380Y-98684819D02*
X132525237Y-98637200D01*
X132525237Y-98637200D02*
X132620475Y-98541961D01*
X132620475Y-98541961D02*
X132668094Y-98446723D01*
X132668094Y-98446723D02*
X132715713Y-98256247D01*
X132715713Y-98256247D02*
X132715713Y-98113390D01*
X132715713Y-98113390D02*
X132668094Y-97922914D01*
X132668094Y-97922914D02*
X132620475Y-97827676D01*
X132620475Y-97827676D02*
X132525237Y-97732438D01*
X132525237Y-97732438D02*
X132382380Y-97684819D01*
X132382380Y-97684819D02*
X132287142Y-97684819D01*
X132287142Y-97684819D02*
X132144285Y-97732438D01*
X132144285Y-97732438D02*
X132096666Y-97780057D01*
X131620475Y-98684819D02*
X131429999Y-98684819D01*
X131429999Y-98684819D02*
X131334761Y-98637200D01*
X131334761Y-98637200D02*
X131287142Y-98589580D01*
X131287142Y-98589580D02*
X131191904Y-98446723D01*
X131191904Y-98446723D02*
X131144285Y-98256247D01*
X131144285Y-98256247D02*
X131144285Y-97875295D01*
X131144285Y-97875295D02*
X131191904Y-97780057D01*
X131191904Y-97780057D02*
X131239523Y-97732438D01*
X131239523Y-97732438D02*
X131334761Y-97684819D01*
X131334761Y-97684819D02*
X131525237Y-97684819D01*
X131525237Y-97684819D02*
X131620475Y-97732438D01*
X131620475Y-97732438D02*
X131668094Y-97780057D01*
X131668094Y-97780057D02*
X131715713Y-97875295D01*
X131715713Y-97875295D02*
X131715713Y-98113390D01*
X131715713Y-98113390D02*
X131668094Y-98208628D01*
X131668094Y-98208628D02*
X131620475Y-98256247D01*
X131620475Y-98256247D02*
X131525237Y-98303866D01*
X131525237Y-98303866D02*
X131334761Y-98303866D01*
X131334761Y-98303866D02*
X131239523Y-98256247D01*
X131239523Y-98256247D02*
X131191904Y-98208628D01*
X131191904Y-98208628D02*
X131144285Y-98113390D01*
X130482857Y-83249580D02*
X130530476Y-83297200D01*
X130530476Y-83297200D02*
X130673333Y-83344819D01*
X130673333Y-83344819D02*
X130768571Y-83344819D01*
X130768571Y-83344819D02*
X130911428Y-83297200D01*
X130911428Y-83297200D02*
X131006666Y-83201961D01*
X131006666Y-83201961D02*
X131054285Y-83106723D01*
X131054285Y-83106723D02*
X131101904Y-82916247D01*
X131101904Y-82916247D02*
X131101904Y-82773390D01*
X131101904Y-82773390D02*
X131054285Y-82582914D01*
X131054285Y-82582914D02*
X131006666Y-82487676D01*
X131006666Y-82487676D02*
X130911428Y-82392438D01*
X130911428Y-82392438D02*
X130768571Y-82344819D01*
X130768571Y-82344819D02*
X130673333Y-82344819D01*
X130673333Y-82344819D02*
X130530476Y-82392438D01*
X130530476Y-82392438D02*
X130482857Y-82440057D01*
X129530476Y-83344819D02*
X130101904Y-83344819D01*
X129816190Y-83344819D02*
X129816190Y-82344819D01*
X129816190Y-82344819D02*
X129911428Y-82487676D01*
X129911428Y-82487676D02*
X130006666Y-82582914D01*
X130006666Y-82582914D02*
X130101904Y-82630533D01*
X128578095Y-83344819D02*
X129149523Y-83344819D01*
X128863809Y-83344819D02*
X128863809Y-82344819D01*
X128863809Y-82344819D02*
X128959047Y-82487676D01*
X128959047Y-82487676D02*
X129054285Y-82582914D01*
X129054285Y-82582914D02*
X129149523Y-82630533D01*
X130482857Y-84639580D02*
X130530476Y-84687200D01*
X130530476Y-84687200D02*
X130673333Y-84734819D01*
X130673333Y-84734819D02*
X130768571Y-84734819D01*
X130768571Y-84734819D02*
X130911428Y-84687200D01*
X130911428Y-84687200D02*
X131006666Y-84591961D01*
X131006666Y-84591961D02*
X131054285Y-84496723D01*
X131054285Y-84496723D02*
X131101904Y-84306247D01*
X131101904Y-84306247D02*
X131101904Y-84163390D01*
X131101904Y-84163390D02*
X131054285Y-83972914D01*
X131054285Y-83972914D02*
X131006666Y-83877676D01*
X131006666Y-83877676D02*
X130911428Y-83782438D01*
X130911428Y-83782438D02*
X130768571Y-83734819D01*
X130768571Y-83734819D02*
X130673333Y-83734819D01*
X130673333Y-83734819D02*
X130530476Y-83782438D01*
X130530476Y-83782438D02*
X130482857Y-83830057D01*
X129530476Y-84734819D02*
X130101904Y-84734819D01*
X129816190Y-84734819D02*
X129816190Y-83734819D01*
X129816190Y-83734819D02*
X129911428Y-83877676D01*
X129911428Y-83877676D02*
X130006666Y-83972914D01*
X130006666Y-83972914D02*
X130101904Y-84020533D01*
X128911428Y-83734819D02*
X128816190Y-83734819D01*
X128816190Y-83734819D02*
X128720952Y-83782438D01*
X128720952Y-83782438D02*
X128673333Y-83830057D01*
X128673333Y-83830057D02*
X128625714Y-83925295D01*
X128625714Y-83925295D02*
X128578095Y-84115771D01*
X128578095Y-84115771D02*
X128578095Y-84353866D01*
X128578095Y-84353866D02*
X128625714Y-84544342D01*
X128625714Y-84544342D02*
X128673333Y-84639580D01*
X128673333Y-84639580D02*
X128720952Y-84687200D01*
X128720952Y-84687200D02*
X128816190Y-84734819D01*
X128816190Y-84734819D02*
X128911428Y-84734819D01*
X128911428Y-84734819D02*
X129006666Y-84687200D01*
X129006666Y-84687200D02*
X129054285Y-84639580D01*
X129054285Y-84639580D02*
X129101904Y-84544342D01*
X129101904Y-84544342D02*
X129149523Y-84353866D01*
X129149523Y-84353866D02*
X129149523Y-84115771D01*
X129149523Y-84115771D02*
X129101904Y-83925295D01*
X129101904Y-83925295D02*
X129054285Y-83830057D01*
X129054285Y-83830057D02*
X129006666Y-83782438D01*
X129006666Y-83782438D02*
X128911428Y-83734819D01*
X135832857Y-81809580D02*
X135880476Y-81857200D01*
X135880476Y-81857200D02*
X136023333Y-81904819D01*
X136023333Y-81904819D02*
X136118571Y-81904819D01*
X136118571Y-81904819D02*
X136261428Y-81857200D01*
X136261428Y-81857200D02*
X136356666Y-81761961D01*
X136356666Y-81761961D02*
X136404285Y-81666723D01*
X136404285Y-81666723D02*
X136451904Y-81476247D01*
X136451904Y-81476247D02*
X136451904Y-81333390D01*
X136451904Y-81333390D02*
X136404285Y-81142914D01*
X136404285Y-81142914D02*
X136356666Y-81047676D01*
X136356666Y-81047676D02*
X136261428Y-80952438D01*
X136261428Y-80952438D02*
X136118571Y-80904819D01*
X136118571Y-80904819D02*
X136023333Y-80904819D01*
X136023333Y-80904819D02*
X135880476Y-80952438D01*
X135880476Y-80952438D02*
X135832857Y-81000057D01*
X134880476Y-81904819D02*
X135451904Y-81904819D01*
X135166190Y-81904819D02*
X135166190Y-80904819D01*
X135166190Y-80904819D02*
X135261428Y-81047676D01*
X135261428Y-81047676D02*
X135356666Y-81142914D01*
X135356666Y-81142914D02*
X135451904Y-81190533D01*
X134547142Y-80904819D02*
X133880476Y-80904819D01*
X133880476Y-80904819D02*
X134309047Y-81904819D01*
X143576666Y-96909580D02*
X143624285Y-96957200D01*
X143624285Y-96957200D02*
X143767142Y-97004819D01*
X143767142Y-97004819D02*
X143862380Y-97004819D01*
X143862380Y-97004819D02*
X144005237Y-96957200D01*
X144005237Y-96957200D02*
X144100475Y-96861961D01*
X144100475Y-96861961D02*
X144148094Y-96766723D01*
X144148094Y-96766723D02*
X144195713Y-96576247D01*
X144195713Y-96576247D02*
X144195713Y-96433390D01*
X144195713Y-96433390D02*
X144148094Y-96242914D01*
X144148094Y-96242914D02*
X144100475Y-96147676D01*
X144100475Y-96147676D02*
X144005237Y-96052438D01*
X144005237Y-96052438D02*
X143862380Y-96004819D01*
X143862380Y-96004819D02*
X143767142Y-96004819D01*
X143767142Y-96004819D02*
X143624285Y-96052438D01*
X143624285Y-96052438D02*
X143576666Y-96100057D01*
X142719523Y-96338152D02*
X142719523Y-97004819D01*
X142957618Y-95957200D02*
X143195713Y-96671485D01*
X143195713Y-96671485D02*
X142576666Y-96671485D01*
X135856666Y-84474819D02*
X136189999Y-83998628D01*
X136428094Y-84474819D02*
X136428094Y-83474819D01*
X136428094Y-83474819D02*
X136047142Y-83474819D01*
X136047142Y-83474819D02*
X135951904Y-83522438D01*
X135951904Y-83522438D02*
X135904285Y-83570057D01*
X135904285Y-83570057D02*
X135856666Y-83665295D01*
X135856666Y-83665295D02*
X135856666Y-83808152D01*
X135856666Y-83808152D02*
X135904285Y-83903390D01*
X135904285Y-83903390D02*
X135951904Y-83951009D01*
X135951904Y-83951009D02*
X136047142Y-83998628D01*
X136047142Y-83998628D02*
X136428094Y-83998628D01*
X134951904Y-83474819D02*
X135428094Y-83474819D01*
X135428094Y-83474819D02*
X135475713Y-83951009D01*
X135475713Y-83951009D02*
X135428094Y-83903390D01*
X135428094Y-83903390D02*
X135332856Y-83855771D01*
X135332856Y-83855771D02*
X135094761Y-83855771D01*
X135094761Y-83855771D02*
X134999523Y-83903390D01*
X134999523Y-83903390D02*
X134951904Y-83951009D01*
X134951904Y-83951009D02*
X134904285Y-84046247D01*
X134904285Y-84046247D02*
X134904285Y-84284342D01*
X134904285Y-84284342D02*
X134951904Y-84379580D01*
X134951904Y-84379580D02*
X134999523Y-84427200D01*
X134999523Y-84427200D02*
X135094761Y-84474819D01*
X135094761Y-84474819D02*
X135332856Y-84474819D01*
X135332856Y-84474819D02*
X135428094Y-84427200D01*
X135428094Y-84427200D02*
X135475713Y-84379580D01*
X134446666Y-90394819D02*
X134779999Y-89918628D01*
X135018094Y-90394819D02*
X135018094Y-89394819D01*
X135018094Y-89394819D02*
X134637142Y-89394819D01*
X134637142Y-89394819D02*
X134541904Y-89442438D01*
X134541904Y-89442438D02*
X134494285Y-89490057D01*
X134494285Y-89490057D02*
X134446666Y-89585295D01*
X134446666Y-89585295D02*
X134446666Y-89728152D01*
X134446666Y-89728152D02*
X134494285Y-89823390D01*
X134494285Y-89823390D02*
X134541904Y-89871009D01*
X134541904Y-89871009D02*
X134637142Y-89918628D01*
X134637142Y-89918628D02*
X135018094Y-89918628D01*
X134113332Y-89394819D02*
X133494285Y-89394819D01*
X133494285Y-89394819D02*
X133827618Y-89775771D01*
X133827618Y-89775771D02*
X133684761Y-89775771D01*
X133684761Y-89775771D02*
X133589523Y-89823390D01*
X133589523Y-89823390D02*
X133541904Y-89871009D01*
X133541904Y-89871009D02*
X133494285Y-89966247D01*
X133494285Y-89966247D02*
X133494285Y-90204342D01*
X133494285Y-90204342D02*
X133541904Y-90299580D01*
X133541904Y-90299580D02*
X133589523Y-90347200D01*
X133589523Y-90347200D02*
X133684761Y-90394819D01*
X133684761Y-90394819D02*
X133970475Y-90394819D01*
X133970475Y-90394819D02*
X134065713Y-90347200D01*
X134065713Y-90347200D02*
X134113332Y-90299580D01*
X133287530Y-74322142D02*
X133335150Y-74274523D01*
X133335150Y-74274523D02*
X133382769Y-74131666D01*
X133382769Y-74131666D02*
X133382769Y-74036428D01*
X133382769Y-74036428D02*
X133335150Y-73893571D01*
X133335150Y-73893571D02*
X133239911Y-73798333D01*
X133239911Y-73798333D02*
X133144673Y-73750714D01*
X133144673Y-73750714D02*
X132954197Y-73703095D01*
X132954197Y-73703095D02*
X132811340Y-73703095D01*
X132811340Y-73703095D02*
X132620864Y-73750714D01*
X132620864Y-73750714D02*
X132525626Y-73798333D01*
X132525626Y-73798333D02*
X132430388Y-73893571D01*
X132430388Y-73893571D02*
X132382769Y-74036428D01*
X132382769Y-74036428D02*
X132382769Y-74131666D01*
X132382769Y-74131666D02*
X132430388Y-74274523D01*
X132430388Y-74274523D02*
X132478007Y-74322142D01*
X133382769Y-75274523D02*
X133382769Y-74703095D01*
X133382769Y-74988809D02*
X132382769Y-74988809D01*
X132382769Y-74988809D02*
X132525626Y-74893571D01*
X132525626Y-74893571D02*
X132620864Y-74798333D01*
X132620864Y-74798333D02*
X132668483Y-74703095D01*
X132382769Y-76131666D02*
X132382769Y-75941190D01*
X132382769Y-75941190D02*
X132430388Y-75845952D01*
X132430388Y-75845952D02*
X132478007Y-75798333D01*
X132478007Y-75798333D02*
X132620864Y-75703095D01*
X132620864Y-75703095D02*
X132811340Y-75655476D01*
X132811340Y-75655476D02*
X133192292Y-75655476D01*
X133192292Y-75655476D02*
X133287530Y-75703095D01*
X133287530Y-75703095D02*
X133335150Y-75750714D01*
X133335150Y-75750714D02*
X133382769Y-75845952D01*
X133382769Y-75845952D02*
X133382769Y-76036428D01*
X133382769Y-76036428D02*
X133335150Y-76131666D01*
X133335150Y-76131666D02*
X133287530Y-76179285D01*
X133287530Y-76179285D02*
X133192292Y-76226904D01*
X133192292Y-76226904D02*
X132954197Y-76226904D01*
X132954197Y-76226904D02*
X132858959Y-76179285D01*
X132858959Y-76179285D02*
X132811340Y-76131666D01*
X132811340Y-76131666D02*
X132763721Y-76036428D01*
X132763721Y-76036428D02*
X132763721Y-75845952D01*
X132763721Y-75845952D02*
X132811340Y-75750714D01*
X132811340Y-75750714D02*
X132858959Y-75703095D01*
X132858959Y-75703095D02*
X132954197Y-75655476D01*
X143569580Y-89503333D02*
X143617200Y-89455714D01*
X143617200Y-89455714D02*
X143664819Y-89312857D01*
X143664819Y-89312857D02*
X143664819Y-89217619D01*
X143664819Y-89217619D02*
X143617200Y-89074762D01*
X143617200Y-89074762D02*
X143521961Y-88979524D01*
X143521961Y-88979524D02*
X143426723Y-88931905D01*
X143426723Y-88931905D02*
X143236247Y-88884286D01*
X143236247Y-88884286D02*
X143093390Y-88884286D01*
X143093390Y-88884286D02*
X142902914Y-88931905D01*
X142902914Y-88931905D02*
X142807676Y-88979524D01*
X142807676Y-88979524D02*
X142712438Y-89074762D01*
X142712438Y-89074762D02*
X142664819Y-89217619D01*
X142664819Y-89217619D02*
X142664819Y-89312857D01*
X142664819Y-89312857D02*
X142712438Y-89455714D01*
X142712438Y-89455714D02*
X142760057Y-89503333D01*
X142664819Y-89836667D02*
X142664819Y-90455714D01*
X142664819Y-90455714D02*
X143045771Y-90122381D01*
X143045771Y-90122381D02*
X143045771Y-90265238D01*
X143045771Y-90265238D02*
X143093390Y-90360476D01*
X143093390Y-90360476D02*
X143141009Y-90408095D01*
X143141009Y-90408095D02*
X143236247Y-90455714D01*
X143236247Y-90455714D02*
X143474342Y-90455714D01*
X143474342Y-90455714D02*
X143569580Y-90408095D01*
X143569580Y-90408095D02*
X143617200Y-90360476D01*
X143617200Y-90360476D02*
X143664819Y-90265238D01*
X143664819Y-90265238D02*
X143664819Y-89979524D01*
X143664819Y-89979524D02*
X143617200Y-89884286D01*
X143617200Y-89884286D02*
X143569580Y-89836667D01*
X143244819Y-78042142D02*
X142768628Y-77708809D01*
X143244819Y-77470714D02*
X142244819Y-77470714D01*
X142244819Y-77470714D02*
X142244819Y-77851666D01*
X142244819Y-77851666D02*
X142292438Y-77946904D01*
X142292438Y-77946904D02*
X142340057Y-77994523D01*
X142340057Y-77994523D02*
X142435295Y-78042142D01*
X142435295Y-78042142D02*
X142578152Y-78042142D01*
X142578152Y-78042142D02*
X142673390Y-77994523D01*
X142673390Y-77994523D02*
X142721009Y-77946904D01*
X142721009Y-77946904D02*
X142768628Y-77851666D01*
X142768628Y-77851666D02*
X142768628Y-77470714D01*
X143244819Y-78994523D02*
X143244819Y-78423095D01*
X143244819Y-78708809D02*
X142244819Y-78708809D01*
X142244819Y-78708809D02*
X142387676Y-78613571D01*
X142387676Y-78613571D02*
X142482914Y-78518333D01*
X142482914Y-78518333D02*
X142530533Y-78423095D01*
X142244819Y-79613571D02*
X142244819Y-79708809D01*
X142244819Y-79708809D02*
X142292438Y-79804047D01*
X142292438Y-79804047D02*
X142340057Y-79851666D01*
X142340057Y-79851666D02*
X142435295Y-79899285D01*
X142435295Y-79899285D02*
X142625771Y-79946904D01*
X142625771Y-79946904D02*
X142863866Y-79946904D01*
X142863866Y-79946904D02*
X143054342Y-79899285D01*
X143054342Y-79899285D02*
X143149580Y-79851666D01*
X143149580Y-79851666D02*
X143197200Y-79804047D01*
X143197200Y-79804047D02*
X143244819Y-79708809D01*
X143244819Y-79708809D02*
X143244819Y-79613571D01*
X143244819Y-79613571D02*
X143197200Y-79518333D01*
X143197200Y-79518333D02*
X143149580Y-79470714D01*
X143149580Y-79470714D02*
X143054342Y-79423095D01*
X143054342Y-79423095D02*
X142863866Y-79375476D01*
X142863866Y-79375476D02*
X142625771Y-79375476D01*
X142625771Y-79375476D02*
X142435295Y-79423095D01*
X142435295Y-79423095D02*
X142340057Y-79470714D01*
X142340057Y-79470714D02*
X142292438Y-79518333D01*
X142292438Y-79518333D02*
X142244819Y-79613571D01*
X146164819Y-78022142D02*
X145688628Y-77688809D01*
X146164819Y-77450714D02*
X145164819Y-77450714D01*
X145164819Y-77450714D02*
X145164819Y-77831666D01*
X145164819Y-77831666D02*
X145212438Y-77926904D01*
X145212438Y-77926904D02*
X145260057Y-77974523D01*
X145260057Y-77974523D02*
X145355295Y-78022142D01*
X145355295Y-78022142D02*
X145498152Y-78022142D01*
X145498152Y-78022142D02*
X145593390Y-77974523D01*
X145593390Y-77974523D02*
X145641009Y-77926904D01*
X145641009Y-77926904D02*
X145688628Y-77831666D01*
X145688628Y-77831666D02*
X145688628Y-77450714D01*
X146164819Y-78974523D02*
X146164819Y-78403095D01*
X146164819Y-78688809D02*
X145164819Y-78688809D01*
X145164819Y-78688809D02*
X145307676Y-78593571D01*
X145307676Y-78593571D02*
X145402914Y-78498333D01*
X145402914Y-78498333D02*
X145450533Y-78403095D01*
X145260057Y-79355476D02*
X145212438Y-79403095D01*
X145212438Y-79403095D02*
X145164819Y-79498333D01*
X145164819Y-79498333D02*
X145164819Y-79736428D01*
X145164819Y-79736428D02*
X145212438Y-79831666D01*
X145212438Y-79831666D02*
X145260057Y-79879285D01*
X145260057Y-79879285D02*
X145355295Y-79926904D01*
X145355295Y-79926904D02*
X145450533Y-79926904D01*
X145450533Y-79926904D02*
X145593390Y-79879285D01*
X145593390Y-79879285D02*
X146164819Y-79307857D01*
X146164819Y-79307857D02*
X146164819Y-79926904D01*
X143556666Y-95529580D02*
X143604285Y-95577200D01*
X143604285Y-95577200D02*
X143747142Y-95624819D01*
X143747142Y-95624819D02*
X143842380Y-95624819D01*
X143842380Y-95624819D02*
X143985237Y-95577200D01*
X143985237Y-95577200D02*
X144080475Y-95481961D01*
X144080475Y-95481961D02*
X144128094Y-95386723D01*
X144128094Y-95386723D02*
X144175713Y-95196247D01*
X144175713Y-95196247D02*
X144175713Y-95053390D01*
X144175713Y-95053390D02*
X144128094Y-94862914D01*
X144128094Y-94862914D02*
X144080475Y-94767676D01*
X144080475Y-94767676D02*
X143985237Y-94672438D01*
X143985237Y-94672438D02*
X143842380Y-94624819D01*
X143842380Y-94624819D02*
X143747142Y-94624819D01*
X143747142Y-94624819D02*
X143604285Y-94672438D01*
X143604285Y-94672438D02*
X143556666Y-94720057D01*
X142651904Y-94624819D02*
X143128094Y-94624819D01*
X143128094Y-94624819D02*
X143175713Y-95101009D01*
X143175713Y-95101009D02*
X143128094Y-95053390D01*
X143128094Y-95053390D02*
X143032856Y-95005771D01*
X143032856Y-95005771D02*
X142794761Y-95005771D01*
X142794761Y-95005771D02*
X142699523Y-95053390D01*
X142699523Y-95053390D02*
X142651904Y-95101009D01*
X142651904Y-95101009D02*
X142604285Y-95196247D01*
X142604285Y-95196247D02*
X142604285Y-95434342D01*
X142604285Y-95434342D02*
X142651904Y-95529580D01*
X142651904Y-95529580D02*
X142699523Y-95577200D01*
X142699523Y-95577200D02*
X142794761Y-95624819D01*
X142794761Y-95624819D02*
X143032856Y-95624819D01*
X143032856Y-95624819D02*
X143128094Y-95577200D01*
X143128094Y-95577200D02*
X143175713Y-95529580D01*
X132116666Y-99859580D02*
X132164285Y-99907200D01*
X132164285Y-99907200D02*
X132307142Y-99954819D01*
X132307142Y-99954819D02*
X132402380Y-99954819D01*
X132402380Y-99954819D02*
X132545237Y-99907200D01*
X132545237Y-99907200D02*
X132640475Y-99811961D01*
X132640475Y-99811961D02*
X132688094Y-99716723D01*
X132688094Y-99716723D02*
X132735713Y-99526247D01*
X132735713Y-99526247D02*
X132735713Y-99383390D01*
X132735713Y-99383390D02*
X132688094Y-99192914D01*
X132688094Y-99192914D02*
X132640475Y-99097676D01*
X132640475Y-99097676D02*
X132545237Y-99002438D01*
X132545237Y-99002438D02*
X132402380Y-98954819D01*
X132402380Y-98954819D02*
X132307142Y-98954819D01*
X132307142Y-98954819D02*
X132164285Y-99002438D01*
X132164285Y-99002438D02*
X132116666Y-99050057D01*
X131545237Y-99383390D02*
X131640475Y-99335771D01*
X131640475Y-99335771D02*
X131688094Y-99288152D01*
X131688094Y-99288152D02*
X131735713Y-99192914D01*
X131735713Y-99192914D02*
X131735713Y-99145295D01*
X131735713Y-99145295D02*
X131688094Y-99050057D01*
X131688094Y-99050057D02*
X131640475Y-99002438D01*
X131640475Y-99002438D02*
X131545237Y-98954819D01*
X131545237Y-98954819D02*
X131354761Y-98954819D01*
X131354761Y-98954819D02*
X131259523Y-99002438D01*
X131259523Y-99002438D02*
X131211904Y-99050057D01*
X131211904Y-99050057D02*
X131164285Y-99145295D01*
X131164285Y-99145295D02*
X131164285Y-99192914D01*
X131164285Y-99192914D02*
X131211904Y-99288152D01*
X131211904Y-99288152D02*
X131259523Y-99335771D01*
X131259523Y-99335771D02*
X131354761Y-99383390D01*
X131354761Y-99383390D02*
X131545237Y-99383390D01*
X131545237Y-99383390D02*
X131640475Y-99431009D01*
X131640475Y-99431009D02*
X131688094Y-99478628D01*
X131688094Y-99478628D02*
X131735713Y-99573866D01*
X131735713Y-99573866D02*
X131735713Y-99764342D01*
X131735713Y-99764342D02*
X131688094Y-99859580D01*
X131688094Y-99859580D02*
X131640475Y-99907200D01*
X131640475Y-99907200D02*
X131545237Y-99954819D01*
X131545237Y-99954819D02*
X131354761Y-99954819D01*
X131354761Y-99954819D02*
X131259523Y-99907200D01*
X131259523Y-99907200D02*
X131211904Y-99859580D01*
X131211904Y-99859580D02*
X131164285Y-99764342D01*
X131164285Y-99764342D02*
X131164285Y-99573866D01*
X131164285Y-99573866D02*
X131211904Y-99478628D01*
X131211904Y-99478628D02*
X131259523Y-99431009D01*
X131259523Y-99431009D02*
X131354761Y-99383390D01*
X134486666Y-92964819D02*
X134819999Y-92488628D01*
X135058094Y-92964819D02*
X135058094Y-91964819D01*
X135058094Y-91964819D02*
X134677142Y-91964819D01*
X134677142Y-91964819D02*
X134581904Y-92012438D01*
X134581904Y-92012438D02*
X134534285Y-92060057D01*
X134534285Y-92060057D02*
X134486666Y-92155295D01*
X134486666Y-92155295D02*
X134486666Y-92298152D01*
X134486666Y-92298152D02*
X134534285Y-92393390D01*
X134534285Y-92393390D02*
X134581904Y-92441009D01*
X134581904Y-92441009D02*
X134677142Y-92488628D01*
X134677142Y-92488628D02*
X135058094Y-92488628D01*
X134105713Y-92060057D02*
X134058094Y-92012438D01*
X134058094Y-92012438D02*
X133962856Y-91964819D01*
X133962856Y-91964819D02*
X133724761Y-91964819D01*
X133724761Y-91964819D02*
X133629523Y-92012438D01*
X133629523Y-92012438D02*
X133581904Y-92060057D01*
X133581904Y-92060057D02*
X133534285Y-92155295D01*
X133534285Y-92155295D02*
X133534285Y-92250533D01*
X133534285Y-92250533D02*
X133581904Y-92393390D01*
X133581904Y-92393390D02*
X134153332Y-92964819D01*
X134153332Y-92964819D02*
X133534285Y-92964819D01*
X144664819Y-78032142D02*
X144188628Y-77698809D01*
X144664819Y-77460714D02*
X143664819Y-77460714D01*
X143664819Y-77460714D02*
X143664819Y-77841666D01*
X143664819Y-77841666D02*
X143712438Y-77936904D01*
X143712438Y-77936904D02*
X143760057Y-77984523D01*
X143760057Y-77984523D02*
X143855295Y-78032142D01*
X143855295Y-78032142D02*
X143998152Y-78032142D01*
X143998152Y-78032142D02*
X144093390Y-77984523D01*
X144093390Y-77984523D02*
X144141009Y-77936904D01*
X144141009Y-77936904D02*
X144188628Y-77841666D01*
X144188628Y-77841666D02*
X144188628Y-77460714D01*
X144664819Y-78984523D02*
X144664819Y-78413095D01*
X144664819Y-78698809D02*
X143664819Y-78698809D01*
X143664819Y-78698809D02*
X143807676Y-78603571D01*
X143807676Y-78603571D02*
X143902914Y-78508333D01*
X143902914Y-78508333D02*
X143950533Y-78413095D01*
X144664819Y-79936904D02*
X144664819Y-79365476D01*
X144664819Y-79651190D02*
X143664819Y-79651190D01*
X143664819Y-79651190D02*
X143807676Y-79555952D01*
X143807676Y-79555952D02*
X143902914Y-79460714D01*
X143902914Y-79460714D02*
X143950533Y-79365476D01*
X134466666Y-91634819D02*
X134799999Y-91158628D01*
X135038094Y-91634819D02*
X135038094Y-90634819D01*
X135038094Y-90634819D02*
X134657142Y-90634819D01*
X134657142Y-90634819D02*
X134561904Y-90682438D01*
X134561904Y-90682438D02*
X134514285Y-90730057D01*
X134514285Y-90730057D02*
X134466666Y-90825295D01*
X134466666Y-90825295D02*
X134466666Y-90968152D01*
X134466666Y-90968152D02*
X134514285Y-91063390D01*
X134514285Y-91063390D02*
X134561904Y-91111009D01*
X134561904Y-91111009D02*
X134657142Y-91158628D01*
X134657142Y-91158628D02*
X135038094Y-91158628D01*
X133609523Y-90968152D02*
X133609523Y-91634819D01*
X133847618Y-90587200D02*
X134085713Y-91301485D01*
X134085713Y-91301485D02*
X133466666Y-91301485D01*
X136077530Y-74292142D02*
X136125150Y-74244523D01*
X136125150Y-74244523D02*
X136172769Y-74101666D01*
X136172769Y-74101666D02*
X136172769Y-74006428D01*
X136172769Y-74006428D02*
X136125150Y-73863571D01*
X136125150Y-73863571D02*
X136029911Y-73768333D01*
X136029911Y-73768333D02*
X135934673Y-73720714D01*
X135934673Y-73720714D02*
X135744197Y-73673095D01*
X135744197Y-73673095D02*
X135601340Y-73673095D01*
X135601340Y-73673095D02*
X135410864Y-73720714D01*
X135410864Y-73720714D02*
X135315626Y-73768333D01*
X135315626Y-73768333D02*
X135220388Y-73863571D01*
X135220388Y-73863571D02*
X135172769Y-74006428D01*
X135172769Y-74006428D02*
X135172769Y-74101666D01*
X135172769Y-74101666D02*
X135220388Y-74244523D01*
X135220388Y-74244523D02*
X135268007Y-74292142D01*
X136172769Y-75244523D02*
X136172769Y-74673095D01*
X136172769Y-74958809D02*
X135172769Y-74958809D01*
X135172769Y-74958809D02*
X135315626Y-74863571D01*
X135315626Y-74863571D02*
X135410864Y-74768333D01*
X135410864Y-74768333D02*
X135458483Y-74673095D01*
X135506102Y-76101666D02*
X136172769Y-76101666D01*
X135125150Y-75863571D02*
X135839435Y-75625476D01*
X135839435Y-75625476D02*
X135839435Y-76244523D01*
D11*
X138049420Y-82850000D02*
X138330580Y-82850000D01*
X138049420Y-83870000D02*
X138330580Y-83870000D01*
X129898748Y-88745000D02*
X130421252Y-88745000D01*
X129898748Y-90215000D02*
X130421252Y-90215000D01*
X130078748Y-85370000D02*
X131501252Y-85370000D01*
X130078748Y-88090000D02*
X131501252Y-88090000D01*
X133720000Y-77989420D02*
X133720000Y-78270580D01*
X134740000Y-77989420D02*
X134740000Y-78270580D01*
X140260000Y-90268748D02*
X140260000Y-91691252D01*
X142080000Y-90268748D02*
X142080000Y-91691252D01*
X135871252Y-93750000D02*
X134448748Y-93750000D01*
X135871252Y-96470000D02*
X134448748Y-96470000D01*
X129908748Y-90795000D02*
X130431252Y-90795000D01*
X129908748Y-92265000D02*
X130431252Y-92265000D01*
X129908748Y-92835000D02*
X130431252Y-92835000D01*
X129908748Y-94305000D02*
X130431252Y-94305000D01*
X138049420Y-81290000D02*
X138330580Y-81290000D01*
X138049420Y-82310000D02*
X138330580Y-82310000D01*
X139428748Y-96140000D02*
X140851252Y-96140000D01*
X139428748Y-97960000D02*
X140851252Y-97960000D01*
D12*
G36*
X172574153Y-82729692D02*
G01*
X172574153Y-84605616D01*
X172039515Y-84605616D01*
X171504877Y-84605616D01*
X171504877Y-82729692D01*
X171504877Y-80853769D01*
X172039515Y-80853769D01*
X172574153Y-80853769D01*
X172574153Y-82729692D01*
G37*
G36*
X157669548Y-81111709D02*
G01*
X157684992Y-81160482D01*
X157715480Y-81256452D01*
X157741921Y-81339276D01*
X157761904Y-81401409D01*
X157773016Y-81435305D01*
X157784937Y-81471871D01*
X157804461Y-81533888D01*
X157826098Y-81604138D01*
X157864252Y-81728973D01*
X157907558Y-81869778D01*
X157952137Y-82013958D01*
X157996237Y-82155904D01*
X158038109Y-82290010D01*
X158076001Y-82410669D01*
X158108161Y-82512275D01*
X158132840Y-82589219D01*
X158148287Y-82635896D01*
X158148397Y-82636216D01*
X158160141Y-82672494D01*
X158179895Y-82735746D01*
X158204930Y-82817156D01*
X158232515Y-82907905D01*
X158232967Y-82909401D01*
X158260555Y-83000073D01*
X158285585Y-83081261D01*
X158305317Y-83144147D01*
X158317012Y-83179914D01*
X158325161Y-83204534D01*
X158343291Y-83261945D01*
X158366864Y-83338283D01*
X158392843Y-83423784D01*
X158408835Y-83476445D01*
X158440381Y-83578584D01*
X158470928Y-83675601D01*
X158495647Y-83752071D01*
X158508154Y-83790470D01*
X158536573Y-83880142D01*
X158568102Y-83981919D01*
X158597929Y-84080357D01*
X158616227Y-84141086D01*
X158643023Y-84228365D01*
X158666383Y-84302619D01*
X158682725Y-84352366D01*
X158691867Y-84379574D01*
X158715004Y-84452408D01*
X158737005Y-84525889D01*
X158765336Y-84624375D01*
X158206183Y-84624375D01*
X157647029Y-84624375D01*
X157605619Y-84488370D01*
X157604009Y-84483087D01*
X157581481Y-84410032D01*
X157561428Y-84346411D01*
X157548020Y-84305468D01*
X157547910Y-84305148D01*
X157536168Y-84268870D01*
X157516416Y-84205618D01*
X157491382Y-84124209D01*
X157463797Y-84033459D01*
X157463345Y-84031963D01*
X157435757Y-83941291D01*
X157410727Y-83860103D01*
X157390996Y-83797217D01*
X157379301Y-83761450D01*
X157371185Y-83736869D01*
X157353139Y-83679460D01*
X157329695Y-83603106D01*
X157303875Y-83517580D01*
X157285544Y-83456816D01*
X157258765Y-83369551D01*
X157235471Y-83295310D01*
X157219234Y-83245571D01*
X157209205Y-83215125D01*
X157187889Y-83147512D01*
X157161996Y-83063161D01*
X157135081Y-82973562D01*
X157115997Y-82909707D01*
X157091812Y-82830013D01*
X157072192Y-82766747D01*
X157060143Y-82729692D01*
X157060032Y-82729376D01*
X157048186Y-82693101D01*
X157028346Y-82629848D01*
X157003254Y-82548436D01*
X156975647Y-82457684D01*
X156975189Y-82456170D01*
X156947630Y-82365503D01*
X156922674Y-82284321D01*
X156903051Y-82221439D01*
X156891488Y-82185675D01*
X156891206Y-82184853D01*
X156874751Y-82134505D01*
X156848669Y-82051645D01*
X156814001Y-81939640D01*
X156771791Y-81801856D01*
X156723079Y-81641657D01*
X156704486Y-81580741D01*
X156677454Y-81493535D01*
X156653992Y-81419351D01*
X156637698Y-81369648D01*
X156628569Y-81341824D01*
X156608445Y-81277855D01*
X156582817Y-81194663D01*
X156554692Y-81102158D01*
X156527077Y-81010247D01*
X156502979Y-80928837D01*
X156485405Y-80867839D01*
X156484450Y-80860249D01*
X156489228Y-80852417D01*
X156504322Y-80846391D01*
X156533616Y-80841936D01*
X156580997Y-80838817D01*
X156650352Y-80836799D01*
X156745566Y-80835649D01*
X156870526Y-80835131D01*
X157029118Y-80835010D01*
X157582033Y-80835010D01*
X157669548Y-81111709D01*
G37*
G36*
X170960926Y-85230130D02*
G01*
X170960320Y-85408304D01*
X170955417Y-85576277D01*
X170946145Y-85725034D01*
X170932431Y-85845561D01*
X170928735Y-85869274D01*
X170872224Y-86181075D01*
X170804057Y-86465592D01*
X170721216Y-86731481D01*
X170620686Y-86987395D01*
X170499451Y-87241989D01*
X170354494Y-87503917D01*
X170263028Y-87651350D01*
X170131905Y-87842045D01*
X169989833Y-88029418D01*
X169843107Y-88205623D01*
X169698022Y-88362809D01*
X169560877Y-88493131D01*
X169426592Y-88606965D01*
X169099269Y-88857193D01*
X168767570Y-89071638D01*
X168428723Y-89251528D01*
X168079953Y-89398089D01*
X167718489Y-89512548D01*
X167341557Y-89596133D01*
X166946384Y-89650071D01*
X166727524Y-89664877D01*
X166363013Y-89662891D01*
X165992288Y-89629744D01*
X165622672Y-89566504D01*
X165261487Y-89474240D01*
X164916054Y-89354019D01*
X164809608Y-89309740D01*
X164465303Y-89141705D01*
X164135229Y-88942669D01*
X163822468Y-88715455D01*
X163530099Y-88462886D01*
X163261204Y-88187785D01*
X163018863Y-87892975D01*
X162806156Y-87581280D01*
X162626164Y-87255521D01*
X162601368Y-87204386D01*
X162454812Y-86874022D01*
X162338618Y-86554878D01*
X162251128Y-86240071D01*
X162190686Y-85922714D01*
X162155635Y-85595922D01*
X162144320Y-85252809D01*
X162146069Y-85191398D01*
X163216941Y-85191398D01*
X163223056Y-85502389D01*
X163255406Y-85803911D01*
X163314296Y-86087595D01*
X163393331Y-86344215D01*
X163527764Y-86671254D01*
X163694546Y-86980720D01*
X163892305Y-87270659D01*
X164119673Y-87539118D01*
X164375280Y-87784144D01*
X164657757Y-88003783D01*
X164697939Y-88031495D01*
X164750934Y-88066488D01*
X164807215Y-88101288D01*
X164874251Y-88140331D01*
X164959509Y-88188051D01*
X165070461Y-88248885D01*
X165171210Y-88298969D01*
X165336488Y-88367344D01*
X165520996Y-88431038D01*
X165714090Y-88486771D01*
X165905125Y-88531259D01*
X166083459Y-88561222D01*
X166257341Y-88578828D01*
X166518711Y-88590090D01*
X166778791Y-88584733D01*
X167021421Y-88562729D01*
X167096058Y-88551901D01*
X167428246Y-88481051D01*
X167749888Y-88375754D01*
X168058563Y-88237893D01*
X168351847Y-88069348D01*
X168627320Y-87872001D01*
X168882559Y-87647731D01*
X169115142Y-87398421D01*
X169322647Y-87125951D01*
X169502653Y-86832203D01*
X169652737Y-86519057D01*
X169680309Y-86450466D01*
X169782744Y-86136189D01*
X169853009Y-85807983D01*
X169890737Y-85470832D01*
X169895560Y-85129719D01*
X169867110Y-84789627D01*
X169805020Y-84455542D01*
X169801783Y-84442214D01*
X169715318Y-84158054D01*
X169596776Y-83872420D01*
X169450305Y-83592506D01*
X169280053Y-83325508D01*
X169090166Y-83078620D01*
X168884792Y-82859038D01*
X168648085Y-82652385D01*
X168371495Y-82454290D01*
X168076955Y-82283788D01*
X167769300Y-82143354D01*
X167453362Y-82035464D01*
X167133976Y-81962591D01*
X167060742Y-81950891D01*
X166709123Y-81916865D01*
X166361363Y-81919224D01*
X166019588Y-81957047D01*
X165685924Y-82029413D01*
X165362496Y-82135402D01*
X165051430Y-82274092D01*
X164754850Y-82444564D01*
X164474884Y-82645896D01*
X164213655Y-82877168D01*
X163973289Y-83137459D01*
X163755912Y-83425848D01*
X163731205Y-83464014D01*
X163672002Y-83565574D01*
X163606947Y-83687881D01*
X163540828Y-83821123D01*
X163478432Y-83955485D01*
X163424545Y-84081154D01*
X163383956Y-84188318D01*
X163352926Y-84285303D01*
X163282183Y-84574485D01*
X163236752Y-84879307D01*
X163216941Y-85191398D01*
X162146069Y-85191398D01*
X162152220Y-84975426D01*
X162191699Y-84589825D01*
X162265241Y-84215200D01*
X162373839Y-83846847D01*
X162518485Y-83480062D01*
X162622257Y-83260550D01*
X162790561Y-82957633D01*
X162980982Y-82674364D01*
X163198627Y-82403372D01*
X163448603Y-82137284D01*
X163489136Y-82097413D01*
X163756053Y-81855194D01*
X164028985Y-81644115D01*
X164315335Y-81459328D01*
X164622507Y-81295986D01*
X164957905Y-81149242D01*
X165170637Y-81069670D01*
X165434760Y-80987242D01*
X165695484Y-80926202D01*
X165962326Y-80884786D01*
X166244806Y-80861229D01*
X166552440Y-80853769D01*
X166573516Y-80853791D01*
X166799255Y-80857569D01*
X167000914Y-80868916D01*
X167190153Y-80889399D01*
X167378630Y-80920584D01*
X167578002Y-80964036D01*
X167799929Y-81021322D01*
X167890289Y-81049052D01*
X168002175Y-81088300D01*
X168116643Y-81132374D01*
X168217791Y-81175413D01*
X168219448Y-81176166D01*
X168279444Y-81202787D01*
X168324825Y-81221736D01*
X168345882Y-81228954D01*
X168368430Y-81236180D01*
X168417847Y-81258122D01*
X168486170Y-81291164D01*
X168566150Y-81331631D01*
X168650539Y-81375852D01*
X168732088Y-81420153D01*
X168803548Y-81460860D01*
X169000170Y-81583717D01*
X169322214Y-81818350D01*
X169620059Y-82079496D01*
X169890099Y-82364161D01*
X169928071Y-82408704D01*
X170178933Y-82734582D01*
X170395583Y-83075829D01*
X170578139Y-83432703D01*
X170726722Y-83805463D01*
X170841450Y-84194369D01*
X170922444Y-84599680D01*
X170937684Y-84724552D01*
X170949536Y-84879239D01*
X170957307Y-85050770D01*
X170958900Y-85129719D01*
X170960926Y-85230130D01*
G37*
G36*
X177320239Y-85262189D02*
G01*
X177320239Y-89670608D01*
X176785601Y-89670608D01*
X176250963Y-89670608D01*
X176250963Y-86705416D01*
X176250894Y-86333280D01*
X176250636Y-85931089D01*
X176250180Y-85565001D01*
X176249522Y-85234252D01*
X176248657Y-84938077D01*
X176247580Y-84675714D01*
X176246285Y-84446398D01*
X176244767Y-84249366D01*
X176243021Y-84083853D01*
X176241043Y-83949096D01*
X176238826Y-83844332D01*
X176236365Y-83768795D01*
X176233656Y-83721723D01*
X176230694Y-83702351D01*
X176229435Y-83700145D01*
X176196719Y-83666839D01*
X176148819Y-83638737D01*
X176116658Y-83628076D01*
X176036203Y-83625889D01*
X175963403Y-83658661D01*
X175903528Y-83724548D01*
X175889274Y-83747524D01*
X175866148Y-83787099D01*
X175857019Y-83806425D01*
X175854783Y-83812039D01*
X175837947Y-83843689D01*
X175808210Y-83896084D01*
X175769877Y-83961562D01*
X175756584Y-83984020D01*
X175711065Y-84061489D01*
X175669564Y-84132878D01*
X175639691Y-84185122D01*
X175639237Y-84185929D01*
X175617898Y-84223368D01*
X175580768Y-84287994D01*
X175530775Y-84374734D01*
X175470845Y-84478512D01*
X175403907Y-84594255D01*
X175332889Y-84716888D01*
X175322786Y-84734328D01*
X175255235Y-84851264D01*
X175194608Y-84956769D01*
X175143296Y-85046644D01*
X175103686Y-85116689D01*
X175078168Y-85162704D01*
X175069131Y-85180491D01*
X175062054Y-85195491D01*
X175039513Y-85234115D01*
X175006874Y-85286539D01*
X174981596Y-85327079D01*
X174932030Y-85410038D01*
X174888087Y-85487299D01*
X174887099Y-85489097D01*
X174865590Y-85527371D01*
X174827790Y-85593840D01*
X174775978Y-85684539D01*
X174712434Y-85795502D01*
X174639439Y-85922766D01*
X174559271Y-86062365D01*
X174474212Y-86210336D01*
X174386541Y-86362713D01*
X174298538Y-86515532D01*
X174212483Y-86664828D01*
X174130656Y-86806637D01*
X174055338Y-86936993D01*
X173988807Y-87051933D01*
X173933344Y-87147492D01*
X173928450Y-87155913D01*
X173890518Y-87221403D01*
X173837929Y-87312449D01*
X173774105Y-87423114D01*
X173702469Y-87547460D01*
X173626445Y-87679549D01*
X173549454Y-87813444D01*
X173536057Y-87836750D01*
X173458932Y-87970772D01*
X173383311Y-88101948D01*
X173312627Y-88224338D01*
X173250312Y-88332002D01*
X173199800Y-88419002D01*
X173164524Y-88479397D01*
X173140575Y-88520327D01*
X173090237Y-88607303D01*
X173043721Y-88688791D01*
X173008693Y-88751406D01*
X172994693Y-88776546D01*
X172959132Y-88839325D01*
X172910272Y-88924818D01*
X172851537Y-89027057D01*
X172786348Y-89140075D01*
X172718130Y-89257905D01*
X172484174Y-89661229D01*
X171872591Y-89666175D01*
X171777958Y-89666806D01*
X171638326Y-89667213D01*
X171514220Y-89666940D01*
X171410036Y-89666033D01*
X171330174Y-89664536D01*
X171279032Y-89662494D01*
X171261007Y-89659952D01*
X171261017Y-89659743D01*
X171270366Y-89638254D01*
X171293898Y-89594163D01*
X171326664Y-89536755D01*
X171328138Y-89534239D01*
X171360529Y-89477990D01*
X171383557Y-89436255D01*
X171392322Y-89417904D01*
X171394576Y-89412560D01*
X171411419Y-89381436D01*
X171441132Y-89329438D01*
X171479423Y-89264145D01*
X171505485Y-89219917D01*
X171554530Y-89136002D01*
X171613300Y-89034899D01*
X171676577Y-88925591D01*
X171739141Y-88817063D01*
X171831004Y-88657369D01*
X171950159Y-88450323D01*
X172073980Y-88235259D01*
X172197795Y-88020287D01*
X172316932Y-87813516D01*
X172426722Y-87623057D01*
X172522492Y-87457019D01*
X172566489Y-87380736D01*
X172622839Y-87282934D01*
X172673078Y-87195630D01*
X172712988Y-87126153D01*
X172738352Y-87081834D01*
X172750781Y-87060122D01*
X172783871Y-87002622D01*
X172830417Y-86921945D01*
X172887127Y-86823792D01*
X172950709Y-86713865D01*
X173017868Y-86597864D01*
X173060801Y-86523705D01*
X173125618Y-86411594D01*
X173184534Y-86309512D01*
X173234319Y-86223065D01*
X173271741Y-86157860D01*
X173293569Y-86119503D01*
X173300880Y-86106573D01*
X173335570Y-86046260D01*
X173379508Y-85970901D01*
X173424973Y-85893763D01*
X173444692Y-85860351D01*
X173479289Y-85800804D01*
X173503193Y-85758363D01*
X173512115Y-85740569D01*
X173514509Y-85735757D01*
X173532457Y-85703554D01*
X173566325Y-85644047D01*
X173614159Y-85560631D01*
X173674003Y-85456706D01*
X173743905Y-85335666D01*
X173821908Y-85200911D01*
X173906059Y-85055837D01*
X173949472Y-84981031D01*
X174030742Y-84840777D01*
X174104872Y-84712567D01*
X174169907Y-84599801D01*
X174223892Y-84505874D01*
X174264873Y-84434184D01*
X174290894Y-84388129D01*
X174300003Y-84371105D01*
X174302259Y-84365880D01*
X174319088Y-84334975D01*
X174348769Y-84283136D01*
X174387014Y-84217912D01*
X174413236Y-84173324D01*
X174459289Y-84094428D01*
X174517431Y-83994404D01*
X174584033Y-83879508D01*
X174655462Y-83756000D01*
X174728089Y-83630136D01*
X174729681Y-83627373D01*
X174808117Y-83491280D01*
X174899766Y-83332275D01*
X174999221Y-83159733D01*
X175101079Y-82983031D01*
X175199934Y-82811547D01*
X175290381Y-82654655D01*
X175334314Y-82578442D01*
X175408016Y-82450537D01*
X175475747Y-82332937D01*
X175534953Y-82230080D01*
X175583077Y-82146405D01*
X175617567Y-82086352D01*
X175635865Y-82054360D01*
X175648462Y-82032351D01*
X175679465Y-81978477D01*
X175724876Y-81899724D01*
X175782235Y-81800358D01*
X175849077Y-81684644D01*
X175922940Y-81556848D01*
X176001362Y-81421236D01*
X176329603Y-80853769D01*
X176824921Y-80853769D01*
X177320239Y-80853769D01*
X177320239Y-85262189D01*
G37*
G36*
X161903262Y-80858166D02*
G01*
X162438549Y-80863149D01*
X162405558Y-80966325D01*
X162399533Y-80985243D01*
X162378356Y-81052233D01*
X162350191Y-81141765D01*
X162317990Y-81244448D01*
X162284703Y-81350889D01*
X162276581Y-81376897D01*
X162238944Y-81497333D01*
X162200043Y-81621704D01*
X162164024Y-81736759D01*
X162135033Y-81829249D01*
X162118288Y-81882669D01*
X162086422Y-81984568D01*
X162056256Y-82081293D01*
X162032569Y-82157536D01*
X162018341Y-82203397D01*
X161990224Y-82293738D01*
X161958370Y-82395845D01*
X161927305Y-82495202D01*
X161904455Y-82568276D01*
X161878712Y-82650817D01*
X161858055Y-82717291D01*
X161845555Y-82757831D01*
X161835863Y-82789148D01*
X161816251Y-82851761D01*
X161790927Y-82932148D01*
X161762987Y-83020460D01*
X161746292Y-83073398D01*
X161708967Y-83193147D01*
X161670985Y-83316495D01*
X161638416Y-83423784D01*
X161620028Y-83484597D01*
X161593237Y-83571843D01*
X161569984Y-83646066D01*
X161553835Y-83695793D01*
X161538696Y-83741733D01*
X161514988Y-83816132D01*
X161491231Y-83892765D01*
X161467264Y-83970862D01*
X161433576Y-84079839D01*
X161392501Y-84212171D01*
X161345993Y-84361581D01*
X161296007Y-84521789D01*
X161244498Y-84686517D01*
X161193420Y-84849486D01*
X161183529Y-84881032D01*
X161149839Y-84988857D01*
X161117731Y-85092142D01*
X161090436Y-85180471D01*
X161071185Y-85243429D01*
X161051908Y-85306384D01*
X161031940Y-85369985D01*
X161018097Y-85412263D01*
X161017975Y-85412616D01*
X161006159Y-85448926D01*
X160986254Y-85512176D01*
X160961010Y-85593559D01*
X160933176Y-85684271D01*
X160909977Y-85759905D01*
X160872203Y-85881954D01*
X160834314Y-86003307D01*
X160801792Y-86106354D01*
X160784764Y-86160021D01*
X160752668Y-86261842D01*
X160722441Y-86358472D01*
X160698869Y-86434641D01*
X160686812Y-86473809D01*
X160659033Y-86563353D01*
X160627360Y-86664824D01*
X160596559Y-86762927D01*
X160583674Y-86803958D01*
X160546832Y-86922314D01*
X160508395Y-87046957D01*
X160474855Y-87156871D01*
X160456287Y-87217772D01*
X160429279Y-87304985D01*
X160405833Y-87379174D01*
X160389544Y-87428880D01*
X160379458Y-87459410D01*
X160358009Y-87527018D01*
X160331904Y-87611335D01*
X160304721Y-87700889D01*
X160292260Y-87742166D01*
X160256063Y-87860465D01*
X160217418Y-87985010D01*
X160182816Y-88094833D01*
X160165768Y-88148547D01*
X160133742Y-88250353D01*
X160103661Y-88346964D01*
X160080294Y-88423119D01*
X160057875Y-88496028D01*
X160033846Y-88572150D01*
X160015094Y-88629471D01*
X160005036Y-88660069D01*
X159983576Y-88727673D01*
X159957378Y-88811963D01*
X159930024Y-88901480D01*
X159917123Y-88943843D01*
X159880605Y-89062049D01*
X159841601Y-89186454D01*
X159806614Y-89296249D01*
X159784636Y-89365087D01*
X159762985Y-89434544D01*
X159748268Y-89483751D01*
X159742839Y-89504999D01*
X159742324Y-89508306D01*
X159732603Y-89537901D01*
X159714448Y-89583901D01*
X159686057Y-89651849D01*
X159443162Y-89651849D01*
X159200267Y-89651849D01*
X159178883Y-89572122D01*
X159176072Y-89561763D01*
X159154729Y-89487423D01*
X159133101Y-89417359D01*
X159118835Y-89372379D01*
X159096323Y-89299951D01*
X159069117Y-89211507D01*
X159040357Y-89117211D01*
X159039702Y-89115051D01*
X159011932Y-89024883D01*
X158986555Y-88944722D01*
X158966351Y-88883214D01*
X158954102Y-88849009D01*
X158943619Y-88817697D01*
X158938355Y-88776476D01*
X158942174Y-88725584D01*
X158956104Y-88658658D01*
X158981176Y-88569337D01*
X159018416Y-88451258D01*
X159038263Y-88389933D01*
X159077559Y-88267925D01*
X159121632Y-88130539D01*
X159166417Y-87990452D01*
X159207850Y-87860342D01*
X159236042Y-87771800D01*
X159276443Y-87645526D01*
X159315625Y-87523683D01*
X159350227Y-87416720D01*
X159376886Y-87335084D01*
X159380116Y-87325258D01*
X159406579Y-87244040D01*
X159441051Y-87137352D01*
X159480667Y-87014103D01*
X159522564Y-86883199D01*
X159563877Y-86753548D01*
X159578406Y-86707863D01*
X159615030Y-86592956D01*
X159647939Y-86490045D01*
X159675227Y-86405072D01*
X159694988Y-86343978D01*
X159705315Y-86312706D01*
X159710522Y-86296818D01*
X159726584Y-86245479D01*
X159749788Y-86169841D01*
X159777885Y-86077248D01*
X159808631Y-85975040D01*
X159822373Y-85929237D01*
X159856595Y-85815754D01*
X159889721Y-85706628D01*
X159918547Y-85612390D01*
X159939868Y-85543577D01*
X159952096Y-85504330D01*
X159980872Y-85410763D01*
X160012762Y-85305900D01*
X160042837Y-85205911D01*
X160057874Y-85155651D01*
X160093329Y-85037603D01*
X160130801Y-84913317D01*
X160164325Y-84802588D01*
X160180137Y-84750454D01*
X160216417Y-84630502D01*
X160253712Y-84506839D01*
X160286048Y-84399264D01*
X160304391Y-84338447D01*
X160331050Y-84251202D01*
X160354119Y-84176981D01*
X160370055Y-84127255D01*
X160386843Y-84074723D01*
X160409987Y-83999220D01*
X160433233Y-83920904D01*
X160448580Y-83868672D01*
X160475705Y-83777457D01*
X160506565Y-83674568D01*
X160537016Y-83573858D01*
X160556421Y-83509922D01*
X160593093Y-83388820D01*
X160630093Y-83266356D01*
X160661791Y-83161155D01*
X160677220Y-83110015D01*
X160709011Y-83005475D01*
X160739969Y-82904582D01*
X160765150Y-82823489D01*
X160790374Y-82741885D01*
X160822240Y-82636553D01*
X160850169Y-82542100D01*
X160852839Y-82532924D01*
X160874663Y-82458944D01*
X160893943Y-82395161D01*
X160906775Y-82354508D01*
X160908331Y-82349808D01*
X160923820Y-82300869D01*
X160949315Y-82218096D01*
X160984259Y-82103325D01*
X161028096Y-81958391D01*
X161080267Y-81785130D01*
X161140215Y-81585379D01*
X161158498Y-81524488D01*
X161187892Y-81427057D01*
X161213256Y-81343557D01*
X161232355Y-81281330D01*
X161242957Y-81247713D01*
X161245995Y-81238166D01*
X161260299Y-81189346D01*
X161279683Y-81119830D01*
X161300853Y-81041362D01*
X161309194Y-81010518D01*
X161329006Y-80941887D01*
X161345432Y-80891150D01*
X161355562Y-80867545D01*
X161356872Y-80866825D01*
X161384741Y-80863418D01*
X161444352Y-80860686D01*
X161530856Y-80858712D01*
X161639408Y-80857578D01*
X161765159Y-80857369D01*
X161903262Y-80858166D01*
G37*
G36*
X156228027Y-87394339D02*
G01*
X156190847Y-87461709D01*
X156132151Y-87562240D01*
X156040975Y-87704971D01*
X155939345Y-87852724D01*
X155835869Y-87993073D01*
X155739158Y-88113592D01*
X155738205Y-88114712D01*
X155658058Y-88203436D01*
X155556400Y-88307836D01*
X155440982Y-88420635D01*
X155319556Y-88534559D01*
X155199875Y-88642333D01*
X155089690Y-88736682D01*
X154996753Y-88810331D01*
X154968323Y-88831345D01*
X154629052Y-89058204D01*
X154276880Y-89250256D01*
X153910723Y-89407915D01*
X153529497Y-89531594D01*
X153132120Y-89621706D01*
X152717506Y-89678662D01*
X152702759Y-89679801D01*
X152636965Y-89682170D01*
X152545219Y-89683012D01*
X152434575Y-89682494D01*
X152312083Y-89680785D01*
X152184796Y-89678053D01*
X152059767Y-89674467D01*
X151944047Y-89670195D01*
X151844689Y-89665404D01*
X151768745Y-89660264D01*
X151723267Y-89654942D01*
X151666501Y-89644309D01*
X151581834Y-89628941D01*
X151498156Y-89614171D01*
X151339165Y-89582884D01*
X150992655Y-89489935D01*
X150646925Y-89364551D01*
X150308384Y-89209522D01*
X149983443Y-89027642D01*
X149678511Y-88821700D01*
X149628824Y-88783832D01*
X149552125Y-88722724D01*
X149468144Y-88653540D01*
X149382090Y-88580803D01*
X149299171Y-88509035D01*
X149224598Y-88442759D01*
X149163578Y-88386497D01*
X149121322Y-88344771D01*
X149103038Y-88322103D01*
X149098580Y-88315140D01*
X149073717Y-88283941D01*
X149032568Y-88235626D01*
X148981107Y-88177288D01*
X148786227Y-87939879D01*
X148597288Y-87668997D01*
X148426706Y-87381420D01*
X148281143Y-87087522D01*
X148246648Y-87006907D01*
X148199745Y-86889217D01*
X148152435Y-86762937D01*
X148107748Y-86636684D01*
X148068715Y-86519077D01*
X148038367Y-86418734D01*
X148019735Y-86344271D01*
X148019664Y-86343918D01*
X148007841Y-86285079D01*
X147992026Y-86206508D01*
X147975621Y-86125113D01*
X147960629Y-86047954D01*
X147936183Y-85901602D01*
X147918772Y-85759253D01*
X147907497Y-85610564D01*
X147901460Y-85445197D01*
X147899760Y-85252809D01*
X147900465Y-85147850D01*
X147907297Y-84925681D01*
X147922414Y-84725132D01*
X147947080Y-84535485D01*
X147982556Y-84346019D01*
X148030105Y-84146014D01*
X148125596Y-83822216D01*
X148267815Y-83450790D01*
X148440263Y-83100283D01*
X148644236Y-82768390D01*
X148645121Y-82767211D01*
X150400593Y-82767211D01*
X150405357Y-85069907D01*
X150410121Y-87372602D01*
X150683212Y-87377773D01*
X150724526Y-87378404D01*
X150817464Y-87378639D01*
X150893905Y-87377182D01*
X150946848Y-87374224D01*
X150956404Y-87372407D01*
X151504214Y-87372407D01*
X151510830Y-87374165D01*
X151548652Y-87377257D01*
X151613797Y-87379736D01*
X151699534Y-87381384D01*
X151799134Y-87381982D01*
X151850617Y-87381827D01*
X151959449Y-87379896D01*
X152035621Y-87375548D01*
X152082599Y-87368516D01*
X152103846Y-87358533D01*
X152106169Y-87354943D01*
X152122061Y-87319040D01*
X152149151Y-87248115D01*
X152187242Y-87142728D01*
X152236137Y-87003439D01*
X152295639Y-86830805D01*
X152365551Y-86625387D01*
X152445677Y-86387743D01*
X152461002Y-86342287D01*
X152491885Y-86251136D01*
X152531481Y-86134622D01*
X152577759Y-85998708D01*
X152628687Y-85849357D01*
X152682235Y-85692533D01*
X152736373Y-85534198D01*
X152773202Y-85426514D01*
X152827726Y-85266930D01*
X152880553Y-85112136D01*
X152929589Y-84968273D01*
X152972742Y-84841482D01*
X153007920Y-84737902D01*
X153033030Y-84663674D01*
X153047729Y-84620938D01*
X153089876Y-84511334D01*
X153127398Y-84438186D01*
X153161917Y-84401153D01*
X153195058Y-84399898D01*
X153228447Y-84434079D01*
X153263705Y-84503359D01*
X153302459Y-84607397D01*
X153309888Y-84629340D01*
X153337541Y-84710914D01*
X153373538Y-84816987D01*
X153415131Y-84939471D01*
X153459574Y-85070278D01*
X153504121Y-85201317D01*
X153528992Y-85274734D01*
X153566641Y-85387023D01*
X153598865Y-85484556D01*
X153623974Y-85562149D01*
X153640278Y-85614621D01*
X153646088Y-85636790D01*
X153639021Y-85641940D01*
X153602151Y-85649740D01*
X153540858Y-85656150D01*
X153463186Y-85660143D01*
X153280283Y-85665512D01*
X153191704Y-85975040D01*
X153168074Y-86057714D01*
X153142093Y-86148888D01*
X153121396Y-86221834D01*
X153107669Y-86270605D01*
X153102598Y-86289257D01*
X153103073Y-86289502D01*
X153126351Y-86290930D01*
X153180581Y-86292192D01*
X153260120Y-86293215D01*
X153359328Y-86293920D01*
X153472565Y-86294234D01*
X153488129Y-86294258D01*
X153601830Y-86295185D01*
X153702354Y-86297272D01*
X153783615Y-86300300D01*
X153839528Y-86304050D01*
X153864009Y-86308303D01*
X153864363Y-86308584D01*
X153876254Y-86331316D01*
X153897990Y-86384686D01*
X153927828Y-86463958D01*
X153964026Y-86564395D01*
X154004843Y-86681263D01*
X154048534Y-86809825D01*
X154049447Y-86812548D01*
X154093589Y-86942754D01*
X154135160Y-87062826D01*
X154172326Y-87167664D01*
X154203253Y-87252169D01*
X154226109Y-87311238D01*
X154239059Y-87339774D01*
X154247256Y-87351587D01*
X154260958Y-87364031D01*
X154282677Y-87372514D01*
X154318314Y-87377793D01*
X154373768Y-87380625D01*
X154454940Y-87381769D01*
X154567730Y-87381982D01*
X154679161Y-87381605D01*
X154760688Y-87380126D01*
X154814459Y-87377062D01*
X154845404Y-87371933D01*
X154858454Y-87364255D01*
X154858541Y-87353546D01*
X154854680Y-87342747D01*
X154839655Y-87299164D01*
X154815577Y-87228527D01*
X154784271Y-87136208D01*
X154747561Y-87027579D01*
X154707270Y-86908015D01*
X154700811Y-86888828D01*
X154651801Y-86743548D01*
X154599485Y-86588939D01*
X154547672Y-86436226D01*
X154500169Y-86296635D01*
X154460784Y-86181391D01*
X154455239Y-86165204D01*
X154425713Y-86078771D01*
X154386064Y-85962423D01*
X154337823Y-85820671D01*
X154282520Y-85658028D01*
X154221686Y-85479003D01*
X154156853Y-85288107D01*
X154089551Y-85089853D01*
X154021310Y-84888750D01*
X153953662Y-84689310D01*
X153888138Y-84496044D01*
X153826267Y-84313463D01*
X153769582Y-84146078D01*
X153719613Y-83998400D01*
X153677890Y-83874940D01*
X153645945Y-83780209D01*
X153591510Y-83618838D01*
X153526155Y-83426108D01*
X153467619Y-83254678D01*
X153416730Y-83106936D01*
X153374315Y-82985266D01*
X153341202Y-82892057D01*
X153318219Y-82829694D01*
X153306193Y-82800564D01*
X153305317Y-82798985D01*
X153284849Y-82779709D01*
X153245760Y-82769930D01*
X153178744Y-82767211D01*
X153149280Y-82767811D01*
X153082731Y-82775988D01*
X153047781Y-82792954D01*
X153035477Y-82817985D01*
X153013835Y-82872746D01*
X152985142Y-82951077D01*
X152951629Y-83046883D01*
X152915528Y-83154069D01*
X152912139Y-83164308D01*
X152882301Y-83253919D01*
X152842307Y-83373342D01*
X152793837Y-83517592D01*
X152738572Y-83681684D01*
X152678190Y-83860634D01*
X152614374Y-84049457D01*
X152548802Y-84243168D01*
X152483155Y-84436783D01*
X152482817Y-84437781D01*
X152415052Y-84637565D01*
X152345631Y-84842411D01*
X152276515Y-85046521D01*
X152271247Y-85062090D01*
X152209664Y-85244097D01*
X152147039Y-85429342D01*
X152090602Y-85596456D01*
X152042313Y-85739643D01*
X152004133Y-85853105D01*
X151973148Y-85945289D01*
X151916051Y-86114956D01*
X151853310Y-86301191D01*
X151788865Y-86492310D01*
X151726654Y-86676628D01*
X151670617Y-86842458D01*
X151657814Y-86880418D01*
X151614663Y-87009927D01*
X151576651Y-87126424D01*
X151545189Y-87225414D01*
X151521689Y-87302403D01*
X151507560Y-87352899D01*
X151504214Y-87372407D01*
X150956404Y-87372407D01*
X150969290Y-87369957D01*
X150970679Y-87355448D01*
X150972272Y-87305551D01*
X150973794Y-87222352D01*
X150975232Y-87108139D01*
X150976573Y-86965200D01*
X150977805Y-86795823D01*
X150978914Y-86602295D01*
X150979888Y-86386905D01*
X150980714Y-86151940D01*
X150981379Y-85899688D01*
X150981869Y-85632437D01*
X150982173Y-85352475D01*
X150982277Y-85062090D01*
X150982277Y-82767211D01*
X150691435Y-82767211D01*
X150400593Y-82767211D01*
X148645121Y-82767211D01*
X148881030Y-82452806D01*
X149151942Y-82151226D01*
X149382860Y-81930991D01*
X149696612Y-81676938D01*
X150029840Y-81453963D01*
X150380497Y-81262927D01*
X150746536Y-81104693D01*
X151125910Y-80980120D01*
X151516570Y-80890071D01*
X151916470Y-80835407D01*
X152323562Y-80816988D01*
X152477357Y-80819422D01*
X152888007Y-80850635D01*
X153287851Y-80917765D01*
X153676709Y-81020748D01*
X154054401Y-81159522D01*
X154420748Y-81334024D01*
X154775570Y-81544192D01*
X155118688Y-81789963D01*
X155122854Y-81793236D01*
X155204860Y-81862332D01*
X155303451Y-81952223D01*
X155411292Y-82055599D01*
X155521049Y-82165145D01*
X155625386Y-82273549D01*
X155716968Y-82373500D01*
X155788460Y-82457684D01*
X155988248Y-82728213D01*
X156201511Y-83072963D01*
X156383539Y-83435295D01*
X156532385Y-83811257D01*
X156646100Y-84196901D01*
X156672637Y-84308139D01*
X156705529Y-84461367D01*
X156730007Y-84602435D01*
X156747214Y-84741259D01*
X156758290Y-84887755D01*
X156764377Y-85051840D01*
X156766619Y-85243429D01*
X156766655Y-85255691D01*
X156765749Y-85438881D01*
X156761217Y-85595368D01*
X156751922Y-85735273D01*
X156736726Y-85868715D01*
X156714494Y-86005814D01*
X156684087Y-86156690D01*
X156644369Y-86331465D01*
X156633174Y-86376763D01*
X156590073Y-86527729D01*
X156535725Y-86693186D01*
X156473970Y-86862902D01*
X156408647Y-87026646D01*
X156343596Y-87174187D01*
X156282657Y-87295293D01*
X156269027Y-87320012D01*
X156250529Y-87353546D01*
X156228027Y-87394339D01*
G37*
D11*
X138407258Y-84377500D02*
X137932742Y-84377500D01*
X138407258Y-85422500D02*
X137932742Y-85422500D01*
X134702742Y-84847500D02*
X135177258Y-84847500D01*
X134702742Y-85892500D02*
X135177258Y-85892500D01*
X132180000Y-77999420D02*
X132180000Y-78280580D01*
X133200000Y-77999420D02*
X133200000Y-78280580D01*
X136950000Y-90278748D02*
X136950000Y-91701252D01*
X139670000Y-90278748D02*
X139670000Y-91701252D01*
X142097500Y-81882258D02*
X142097500Y-81407742D01*
X143142500Y-81882258D02*
X143142500Y-81407742D01*
X145187500Y-81882258D02*
X145187500Y-81407742D01*
X146232500Y-81882258D02*
X146232500Y-81407742D01*
X139428748Y-93720000D02*
X140851252Y-93720000D01*
X139428748Y-95540000D02*
X140851252Y-95540000D01*
X135871252Y-97050000D02*
X134448748Y-97050000D01*
X135871252Y-99770000D02*
X134448748Y-99770000D01*
X134712742Y-87997500D02*
X135187258Y-87997500D01*
X134712742Y-89042500D02*
X135187258Y-89042500D01*
X143647500Y-81882258D02*
X143647500Y-81407742D01*
X144692500Y-81882258D02*
X144692500Y-81407742D01*
X134702742Y-86427500D02*
X135177258Y-86427500D01*
X134702742Y-87472500D02*
X135177258Y-87472500D01*
X135270000Y-77999420D02*
X135270000Y-78280580D01*
X136290000Y-77999420D02*
X136290000Y-78280580D01*
M02*
