G04 #@! TF.GenerationSoftware,KiCad,Pcbnew,8.0.3*
G04 #@! TF.CreationDate,2024-07-13T21:49:21+08:00*
G04 #@! TF.ProjectId,SourceFIle,536f7572-6365-4464-996c-652e6b696361,02*
G04 #@! TF.SameCoordinates,Original*
G04 #@! TF.FileFunction,Copper,L2,Inr*
G04 #@! TF.FilePolarity,Positive*
%FSLAX46Y46*%
G04 Gerber Fmt 4.6, Leading zero omitted, Abs format (unit mm)*
G04 Created by KiCad (PCBNEW 8.0.3) date 2024-07-13 21:49:21*
%MOMM*%
%LPD*%
G01*
G04 APERTURE LIST*
G04 #@! TA.AperFunction,ComponentPad*
%ADD10R,1.700000X1.700000*%
G04 #@! TD*
G04 #@! TA.AperFunction,ComponentPad*
%ADD11O,1.700000X1.700000*%
G04 #@! TD*
G04 #@! TA.AperFunction,ViaPad*
%ADD12C,0.600000*%
G04 #@! TD*
G04 APERTURE END LIST*
D10*
X161830000Y-71660000D03*
D11*
X164370000Y-71660000D03*
X166910000Y-71660000D03*
X169450000Y-71660000D03*
X171990000Y-71660000D03*
X174530000Y-71660000D03*
D12*
X130920000Y-76550000D03*
X146230000Y-84280000D03*
X151580000Y-83470000D03*
X171400000Y-98640000D03*
X148450000Y-89640000D03*
X144810000Y-86037000D03*
X135010000Y-71300000D03*
X150840000Y-86080000D03*
X167100000Y-78840000D03*
X141760000Y-90850000D03*
X135065797Y-86945000D03*
X147050000Y-89640000D03*
X150820000Y-84270000D03*
X136190000Y-81450000D03*
X168180000Y-80570000D03*
X149250000Y-84250000D03*
X134760000Y-75900000D03*
X132370000Y-71290000D03*
X134610000Y-89690000D03*
X151630000Y-86950000D03*
X145550000Y-83460000D03*
X150840000Y-87710000D03*
X144810000Y-87700000D03*
X147670000Y-84250000D03*
X133650000Y-75900000D03*
X131640000Y-76130000D03*
X128140000Y-93890000D03*
X135960000Y-72180000D03*
X167640000Y-79730000D03*
X146820000Y-83420000D03*
X130330000Y-86630000D03*
X128550000Y-94520000D03*
X148540000Y-83440000D03*
X144830000Y-89660000D03*
X151640000Y-88760000D03*
X137370000Y-71310000D03*
X168170000Y-78850000D03*
X150790000Y-89650000D03*
X166510000Y-100370000D03*
X159450000Y-79300000D03*
X150160000Y-83470000D03*
X164040000Y-98440000D03*
X130930000Y-77430000D03*
X130940000Y-75700000D03*
X138300000Y-88570000D03*
X174790000Y-84430000D03*
X133650000Y-72150000D03*
X173890000Y-100470000D03*
X132590000Y-75890000D03*
X161370000Y-82580000D03*
X151610000Y-85230000D03*
X144820000Y-84290000D03*
X167640000Y-81500000D03*
X127790000Y-94530000D03*
X131600000Y-77010000D03*
X167100000Y-80520000D03*
X137770000Y-87160000D03*
X137430000Y-91490000D03*
X136990000Y-90850000D03*
X138390000Y-91500000D03*
X138830000Y-90860000D03*
X135700000Y-90120000D03*
X137880000Y-90860000D03*
X163510000Y-85860000D03*
X172300000Y-78880000D03*
X175040000Y-81270000D03*
X176100000Y-85880000D03*
X132140000Y-91990000D03*
X174940000Y-85890000D03*
X172970000Y-80060000D03*
X172970000Y-82330000D03*
X136610000Y-80650000D03*
X173600000Y-78880000D03*
X132140000Y-91190000D03*
X132040000Y-80030000D03*
X161110000Y-85840000D03*
X174990000Y-78870000D03*
X132140000Y-90390000D03*
X162340000Y-85850000D03*
X132150000Y-92800000D03*
X174990000Y-87800000D03*
X174310000Y-82300000D03*
X176090000Y-87820000D03*
X167000000Y-76310000D03*
X172310000Y-81320000D03*
X174290000Y-80100000D03*
X137370000Y-80080000D03*
X133580000Y-80650000D03*
X161120000Y-84540000D03*
X175570000Y-86860000D03*
X164630000Y-85880000D03*
X132940000Y-80060000D03*
X163810000Y-75870000D03*
X132490000Y-80640000D03*
X173590000Y-81320000D03*
X162170000Y-95520000D03*
X138270000Y-81060000D03*
X137420000Y-75910000D03*
X136130000Y-75870000D03*
X138220000Y-75560000D03*
X162060000Y-92600000D03*
X154780000Y-92590000D03*
X154780000Y-93980000D03*
X162080000Y-93980000D03*
X138980000Y-87940000D03*
X143030000Y-92820000D03*
X163000000Y-94660000D03*
X154070000Y-94660000D03*
X143980000Y-93390000D03*
X138990000Y-86820000D03*
X142000000Y-84360000D03*
X165270000Y-89230000D03*
X161290000Y-88260000D03*
X172280000Y-84620000D03*
X152310000Y-91020000D03*
X142610000Y-83610000D03*
X154080000Y-93260000D03*
X164040000Y-93930000D03*
X142600000Y-85050000D03*
X160540000Y-87430000D03*
X155010000Y-89660000D03*
X133500000Y-89590000D03*
X132850000Y-88950000D03*
G04 #@! TA.AperFunction,Conductor*
G36*
X177814749Y-69618721D02*
G01*
X178069381Y-69634127D01*
X178099213Y-69637750D01*
X178342734Y-69682379D01*
X178371897Y-69689567D01*
X178608272Y-69763227D01*
X178636363Y-69773881D01*
X178862137Y-69875495D01*
X178888737Y-69889456D01*
X179100603Y-70017535D01*
X179125337Y-70034607D01*
X179320220Y-70187289D01*
X179342717Y-70207219D01*
X179517780Y-70382282D01*
X179537711Y-70404780D01*
X179690389Y-70599659D01*
X179707464Y-70624396D01*
X179835540Y-70836257D01*
X179849507Y-70862868D01*
X179937308Y-71057951D01*
X179959131Y-71152621D01*
X179943064Y-71248439D01*
X179891553Y-71330814D01*
X179812439Y-71387206D01*
X179717767Y-71409029D01*
X179621949Y-71392962D01*
X179563885Y-71361587D01*
X179486660Y-71305479D01*
X179486657Y-71305477D01*
X179486655Y-71305476D01*
X179311275Y-71216116D01*
X179311274Y-71216115D01*
X179311273Y-71216115D01*
X179311267Y-71216113D01*
X179166258Y-71168997D01*
X179124076Y-71155291D01*
X179124074Y-71155290D01*
X179124072Y-71155290D01*
X178929678Y-71124501D01*
X178929669Y-71124500D01*
X178929667Y-71124500D01*
X178732833Y-71124500D01*
X178732830Y-71124500D01*
X178732821Y-71124501D01*
X178538427Y-71155290D01*
X178351232Y-71216113D01*
X178351226Y-71216115D01*
X178287787Y-71248439D01*
X178175845Y-71305476D01*
X178175842Y-71305477D01*
X178175840Y-71305479D01*
X178175839Y-71305479D01*
X178016607Y-71421169D01*
X177877419Y-71560357D01*
X177761729Y-71719589D01*
X177761729Y-71719590D01*
X177672365Y-71894976D01*
X177672363Y-71894982D01*
X177611540Y-72082177D01*
X177580751Y-72276571D01*
X177580750Y-72276587D01*
X177580750Y-72473412D01*
X177580751Y-72473428D01*
X177611459Y-72667310D01*
X177611541Y-72667826D01*
X177621507Y-72698497D01*
X177665545Y-72834034D01*
X177672366Y-72855025D01*
X177761726Y-73030405D01*
X177761729Y-73030409D01*
X177761729Y-73030410D01*
X177869616Y-73178902D01*
X177877422Y-73189646D01*
X178016604Y-73328828D01*
X178175845Y-73444524D01*
X178351225Y-73533884D01*
X178538424Y-73594709D01*
X178732833Y-73625500D01*
X178732837Y-73625500D01*
X178929663Y-73625500D01*
X178929667Y-73625500D01*
X179124076Y-73594709D01*
X179311275Y-73533884D01*
X179486655Y-73444524D01*
X179645896Y-73328828D01*
X179681378Y-73293345D01*
X179762153Y-73239373D01*
X179857441Y-73220418D01*
X179952729Y-73239371D01*
X180033512Y-73293346D01*
X180087489Y-73374127D01*
X180106444Y-73469415D01*
X180106444Y-73469464D01*
X180102217Y-96276400D01*
X180083245Y-96371685D01*
X180029254Y-96452456D01*
X179948463Y-96506418D01*
X179853171Y-96525354D01*
X179757886Y-96506382D01*
X179677150Y-96452426D01*
X179645896Y-96421172D01*
X179645892Y-96421169D01*
X179486660Y-96305479D01*
X179486657Y-96305477D01*
X179486655Y-96305476D01*
X179311275Y-96216116D01*
X179311274Y-96216115D01*
X179311273Y-96216115D01*
X179311267Y-96216113D01*
X179204178Y-96181318D01*
X179124076Y-96155291D01*
X179124074Y-96155290D01*
X179124072Y-96155290D01*
X178929678Y-96124501D01*
X178929669Y-96124500D01*
X178929667Y-96124500D01*
X178732833Y-96124500D01*
X178732830Y-96124500D01*
X178732821Y-96124501D01*
X178538427Y-96155290D01*
X178351232Y-96216113D01*
X178351226Y-96216115D01*
X178292996Y-96245785D01*
X178175845Y-96305476D01*
X178175842Y-96305477D01*
X178175840Y-96305479D01*
X178175839Y-96305479D01*
X178016607Y-96421169D01*
X177877419Y-96560357D01*
X177761729Y-96719589D01*
X177761729Y-96719590D01*
X177672365Y-96894976D01*
X177672363Y-96894982D01*
X177611540Y-97082177D01*
X177580751Y-97276571D01*
X177580750Y-97276587D01*
X177580750Y-97473412D01*
X177580751Y-97473428D01*
X177611540Y-97667822D01*
X177611541Y-97667826D01*
X177672366Y-97855025D01*
X177761726Y-98030405D01*
X177761729Y-98030409D01*
X177761729Y-98030410D01*
X177858015Y-98162935D01*
X177877422Y-98189646D01*
X178016604Y-98328828D01*
X178175845Y-98444524D01*
X178351225Y-98533884D01*
X178538424Y-98594709D01*
X178732833Y-98625500D01*
X178732837Y-98625500D01*
X178929663Y-98625500D01*
X178929667Y-98625500D01*
X179124076Y-98594709D01*
X179311275Y-98533884D01*
X179486655Y-98444524D01*
X179645896Y-98328828D01*
X179676741Y-98297982D01*
X179757519Y-98244007D01*
X179852807Y-98225052D01*
X179948095Y-98244005D01*
X180028877Y-98297980D01*
X180082855Y-98378761D01*
X180101810Y-98474049D01*
X180101810Y-98474099D01*
X180101743Y-98831166D01*
X180101734Y-98831272D01*
X180101733Y-98884702D01*
X180101279Y-98899730D01*
X180085873Y-99154372D01*
X180082248Y-99184221D01*
X180037623Y-99427720D01*
X180030427Y-99456915D01*
X179956774Y-99693266D01*
X179946112Y-99721379D01*
X179844514Y-99947118D01*
X179830540Y-99973742D01*
X179702464Y-100185603D01*
X179685384Y-100210348D01*
X179532719Y-100405210D01*
X179512780Y-100427717D01*
X179337717Y-100602780D01*
X179315210Y-100622719D01*
X179120348Y-100775384D01*
X179095603Y-100792464D01*
X178883742Y-100920540D01*
X178857124Y-100934510D01*
X178631379Y-101036112D01*
X178603266Y-101046774D01*
X178366915Y-101120427D01*
X178337720Y-101127623D01*
X178094221Y-101172248D01*
X178064372Y-101175873D01*
X177809734Y-101191279D01*
X177794697Y-101191733D01*
X129765303Y-101191733D01*
X129750266Y-101191279D01*
X129495627Y-101175873D01*
X129465778Y-101172248D01*
X129222279Y-101127623D01*
X129193090Y-101120428D01*
X129044533Y-101074134D01*
X128956733Y-101046774D01*
X128928627Y-101036114D01*
X128702868Y-100934507D01*
X128676257Y-100920540D01*
X128464396Y-100792464D01*
X128439659Y-100775389D01*
X128244780Y-100622711D01*
X128222282Y-100602780D01*
X128047219Y-100427717D01*
X128027289Y-100405220D01*
X127874607Y-100210337D01*
X127857535Y-100185603D01*
X127729459Y-99973742D01*
X127715495Y-99947137D01*
X127613881Y-99721363D01*
X127603225Y-99693266D01*
X127586939Y-99641003D01*
X127529567Y-99456897D01*
X127522379Y-99427734D01*
X127477750Y-99184213D01*
X127474127Y-99154381D01*
X127458723Y-98899776D01*
X127458270Y-98884595D01*
X127458291Y-98852291D01*
X127458572Y-98411772D01*
X127477587Y-98316500D01*
X127531615Y-98235753D01*
X127612431Y-98181828D01*
X127707731Y-98162935D01*
X127803007Y-98181950D01*
X127883638Y-98235862D01*
X127976604Y-98328828D01*
X128135845Y-98444524D01*
X128311225Y-98533884D01*
X128498424Y-98594709D01*
X128692833Y-98625500D01*
X128692837Y-98625500D01*
X128889663Y-98625500D01*
X128889667Y-98625500D01*
X129084076Y-98594709D01*
X129271275Y-98533884D01*
X129446655Y-98444524D01*
X129605896Y-98328828D01*
X129745078Y-98189646D01*
X129860774Y-98030405D01*
X129950134Y-97855025D01*
X130010959Y-97667826D01*
X130041750Y-97473417D01*
X130041750Y-97276583D01*
X130010959Y-97082174D01*
X129950134Y-96894975D01*
X129860774Y-96719595D01*
X129745078Y-96560354D01*
X129605896Y-96421172D01*
X129605892Y-96421169D01*
X129446660Y-96305479D01*
X129446657Y-96305477D01*
X129446655Y-96305476D01*
X129271275Y-96216116D01*
X129271274Y-96216115D01*
X129271273Y-96216115D01*
X129271267Y-96216113D01*
X129164178Y-96181318D01*
X129084076Y-96155291D01*
X129084074Y-96155290D01*
X129084072Y-96155290D01*
X128889678Y-96124501D01*
X128889669Y-96124500D01*
X128889667Y-96124500D01*
X128692833Y-96124500D01*
X128692830Y-96124500D01*
X128692821Y-96124501D01*
X128498427Y-96155290D01*
X128311232Y-96216113D01*
X128311226Y-96216115D01*
X128252996Y-96245785D01*
X128135845Y-96305476D01*
X128135842Y-96305477D01*
X128135840Y-96305479D01*
X128135839Y-96305479D01*
X127976603Y-96421172D01*
X127884967Y-96512808D01*
X127804185Y-96566784D01*
X127708897Y-96585738D01*
X127613609Y-96566784D01*
X127532828Y-96512807D01*
X127478852Y-96432025D01*
X127459898Y-96336740D01*
X127460970Y-94659996D01*
X153264435Y-94659996D01*
X153264435Y-94660003D01*
X153284630Y-94839245D01*
X153284631Y-94839251D01*
X153284632Y-94839255D01*
X153344211Y-95009522D01*
X153344212Y-95009523D01*
X153344214Y-95009529D01*
X153440180Y-95162257D01*
X153440182Y-95162259D01*
X153440184Y-95162262D01*
X153567738Y-95289816D01*
X153567740Y-95289817D01*
X153567742Y-95289819D01*
X153720470Y-95385785D01*
X153720473Y-95385786D01*
X153720478Y-95385789D01*
X153890745Y-95445368D01*
X153890754Y-95445369D01*
X154069996Y-95465565D01*
X154070000Y-95465565D01*
X154070004Y-95465565D01*
X154209908Y-95449801D01*
X154249255Y-95445368D01*
X154419522Y-95385789D01*
X154419527Y-95385785D01*
X154419529Y-95385785D01*
X154572257Y-95289819D01*
X154572256Y-95289819D01*
X154572262Y-95289816D01*
X154699816Y-95162262D01*
X154795789Y-95009522D01*
X154830731Y-94909663D01*
X154880093Y-94825984D01*
X154957721Y-94767563D01*
X154983511Y-94756880D01*
X155129522Y-94705789D01*
X155129527Y-94705785D01*
X155129529Y-94705785D01*
X155282257Y-94609819D01*
X155282256Y-94609819D01*
X155282262Y-94609816D01*
X155409816Y-94482262D01*
X155505789Y-94329522D01*
X155565368Y-94159255D01*
X155585565Y-93980000D01*
X155582748Y-93955000D01*
X155565369Y-93800754D01*
X155565368Y-93800745D01*
X155505789Y-93630478D01*
X155505786Y-93630473D01*
X155505785Y-93630470D01*
X155409819Y-93477742D01*
X155409817Y-93477740D01*
X155409816Y-93477738D01*
X155393144Y-93461066D01*
X155339171Y-93380288D01*
X155320217Y-93285000D01*
X155339171Y-93189712D01*
X155393144Y-93108933D01*
X155409816Y-93092262D01*
X155468256Y-92999255D01*
X155505785Y-92939529D01*
X155505785Y-92939527D01*
X155505789Y-92939522D01*
X155565368Y-92769255D01*
X155577203Y-92664214D01*
X155584439Y-92599996D01*
X161254435Y-92599996D01*
X161254435Y-92600003D01*
X161274630Y-92779245D01*
X161274631Y-92779251D01*
X161274632Y-92779255D01*
X161334211Y-92949522D01*
X161334212Y-92949523D01*
X161334214Y-92949529D01*
X161430183Y-93102261D01*
X161451854Y-93123933D01*
X161505830Y-93204715D01*
X161524782Y-93300004D01*
X161505826Y-93395292D01*
X161458341Y-93466360D01*
X161458901Y-93466807D01*
X161453609Y-93473442D01*
X161451859Y-93476062D01*
X161450185Y-93477735D01*
X161450182Y-93477738D01*
X161354214Y-93630470D01*
X161354211Y-93630476D01*
X161354211Y-93630478D01*
X161302266Y-93778930D01*
X161294632Y-93800746D01*
X161294630Y-93800754D01*
X161274435Y-93979996D01*
X161274435Y-93980003D01*
X161294630Y-94159245D01*
X161294631Y-94159251D01*
X161294632Y-94159255D01*
X161354211Y-94329522D01*
X161354212Y-94329523D01*
X161354214Y-94329529D01*
X161450180Y-94482257D01*
X161450182Y-94482259D01*
X161450184Y-94482262D01*
X161577738Y-94609816D01*
X161577740Y-94609817D01*
X161586853Y-94618930D01*
X161640829Y-94699712D01*
X161659783Y-94795000D01*
X161640829Y-94890288D01*
X161586855Y-94971066D01*
X161548401Y-95009521D01*
X161540180Y-95017742D01*
X161444214Y-95170470D01*
X161444212Y-95170476D01*
X161384632Y-95340746D01*
X161384630Y-95340754D01*
X161364435Y-95519996D01*
X161364435Y-95520003D01*
X161384630Y-95699245D01*
X161384631Y-95699251D01*
X161384632Y-95699255D01*
X161444211Y-95869522D01*
X161444212Y-95869523D01*
X161444214Y-95869529D01*
X161540180Y-96022257D01*
X161540182Y-96022259D01*
X161540184Y-96022262D01*
X161667738Y-96149816D01*
X161667740Y-96149817D01*
X161667742Y-96149819D01*
X161820470Y-96245785D01*
X161820473Y-96245786D01*
X161820478Y-96245789D01*
X161990745Y-96305368D01*
X161990754Y-96305369D01*
X162169996Y-96325565D01*
X162170000Y-96325565D01*
X162170004Y-96325565D01*
X162309908Y-96309801D01*
X162349255Y-96305368D01*
X162519522Y-96245789D01*
X162519527Y-96245785D01*
X162519529Y-96245785D01*
X162632184Y-96174998D01*
X162672262Y-96149816D01*
X162799816Y-96022262D01*
X162895789Y-95869522D01*
X162955368Y-95699255D01*
X162959230Y-95664977D01*
X162988731Y-95572414D01*
X163051411Y-95498182D01*
X163137727Y-95453588D01*
X163178787Y-95445420D01*
X163179255Y-95445368D01*
X163349522Y-95385789D01*
X163349527Y-95385785D01*
X163349529Y-95385785D01*
X163502257Y-95289819D01*
X163502256Y-95289819D01*
X163502262Y-95289816D01*
X163629816Y-95162262D01*
X163725789Y-95009522D01*
X163764350Y-94899320D01*
X163813710Y-94815643D01*
X163891337Y-94757222D01*
X163985413Y-94732955D01*
X164027254Y-94734128D01*
X164040000Y-94735565D01*
X164040004Y-94735565D01*
X164179908Y-94719801D01*
X164219255Y-94715368D01*
X164389522Y-94655789D01*
X164389527Y-94655785D01*
X164389529Y-94655785D01*
X164542257Y-94559819D01*
X164542256Y-94559819D01*
X164542262Y-94559816D01*
X164669816Y-94432262D01*
X164694998Y-94392184D01*
X164765785Y-94279529D01*
X164765785Y-94279527D01*
X164765789Y-94279522D01*
X164825368Y-94109255D01*
X164839931Y-93980003D01*
X164845565Y-93930003D01*
X164845565Y-93929996D01*
X164825369Y-93750754D01*
X164825368Y-93750745D01*
X164765789Y-93580478D01*
X164765786Y-93580473D01*
X164765785Y-93580470D01*
X164669819Y-93427742D01*
X164669817Y-93427740D01*
X164669816Y-93427738D01*
X164542262Y-93300184D01*
X164542259Y-93300182D01*
X164542257Y-93300180D01*
X164389529Y-93204214D01*
X164389524Y-93204212D01*
X164389522Y-93204211D01*
X164219255Y-93144632D01*
X164219251Y-93144631D01*
X164219245Y-93144630D01*
X164040004Y-93124435D01*
X164039996Y-93124435D01*
X163860754Y-93144630D01*
X163860746Y-93144631D01*
X163860745Y-93144632D01*
X163690478Y-93204211D01*
X163690476Y-93204211D01*
X163690476Y-93204212D01*
X163690470Y-93204214D01*
X163537742Y-93300180D01*
X163410180Y-93427742D01*
X163314214Y-93580470D01*
X163314213Y-93580474D01*
X163314212Y-93580475D01*
X163314211Y-93580478D01*
X163286277Y-93660307D01*
X163236916Y-93743985D01*
X163159288Y-93802406D01*
X163065212Y-93826672D01*
X162969011Y-93813091D01*
X162885331Y-93763728D01*
X162826910Y-93686100D01*
X162816230Y-93660319D01*
X162805789Y-93630478D01*
X162805785Y-93630472D01*
X162805785Y-93630470D01*
X162709819Y-93477742D01*
X162709817Y-93477740D01*
X162709816Y-93477738D01*
X162688144Y-93456066D01*
X162634171Y-93375288D01*
X162615217Y-93280000D01*
X162634171Y-93184712D01*
X162681659Y-93113639D01*
X162681099Y-93113193D01*
X162686394Y-93106552D01*
X162688144Y-93103933D01*
X162689816Y-93102262D01*
X162714998Y-93062184D01*
X162785785Y-92949529D01*
X162785785Y-92949527D01*
X162785789Y-92949522D01*
X162845368Y-92779255D01*
X162865043Y-92604632D01*
X162865565Y-92600003D01*
X162865565Y-92599996D01*
X162845369Y-92420754D01*
X162845368Y-92420745D01*
X162785789Y-92250478D01*
X162785786Y-92250473D01*
X162785785Y-92250470D01*
X162689819Y-92097742D01*
X162689817Y-92097740D01*
X162689816Y-92097738D01*
X162562262Y-91970184D01*
X162562259Y-91970182D01*
X162562257Y-91970180D01*
X162409529Y-91874214D01*
X162409524Y-91874212D01*
X162409522Y-91874211D01*
X162239255Y-91814632D01*
X162239251Y-91814631D01*
X162239245Y-91814630D01*
X162060004Y-91794435D01*
X162059996Y-91794435D01*
X161880754Y-91814630D01*
X161880746Y-91814631D01*
X161880745Y-91814632D01*
X161710478Y-91874211D01*
X161710476Y-91874211D01*
X161710476Y-91874212D01*
X161710470Y-91874214D01*
X161557742Y-91970180D01*
X161430180Y-92097742D01*
X161334214Y-92250470D01*
X161334211Y-92250476D01*
X161334211Y-92250478D01*
X161280857Y-92402957D01*
X161274632Y-92420746D01*
X161274630Y-92420754D01*
X161254435Y-92599996D01*
X155584439Y-92599996D01*
X155585565Y-92590003D01*
X155585565Y-92589996D01*
X155565369Y-92410754D01*
X155565368Y-92410745D01*
X155505789Y-92240478D01*
X155505786Y-92240473D01*
X155505785Y-92240470D01*
X155409819Y-92087742D01*
X155409817Y-92087740D01*
X155409816Y-92087738D01*
X155282262Y-91960184D01*
X155282259Y-91960182D01*
X155282257Y-91960180D01*
X155129529Y-91864214D01*
X155129524Y-91864212D01*
X155129522Y-91864211D01*
X154959255Y-91804632D01*
X154959251Y-91804631D01*
X154959245Y-91804630D01*
X154780004Y-91784435D01*
X154779996Y-91784435D01*
X154600754Y-91804630D01*
X154600746Y-91804631D01*
X154600745Y-91804632D01*
X154430478Y-91864211D01*
X154430476Y-91864211D01*
X154430476Y-91864212D01*
X154430470Y-91864214D01*
X154277742Y-91960180D01*
X154150180Y-92087742D01*
X154054214Y-92240470D01*
X154054213Y-92240474D01*
X154054212Y-92240475D01*
X154054211Y-92240478D01*
X154021860Y-92332930D01*
X153972499Y-92416608D01*
X153894871Y-92475029D01*
X153869077Y-92485712D01*
X153730478Y-92534211D01*
X153730476Y-92534211D01*
X153730476Y-92534212D01*
X153730470Y-92534214D01*
X153577742Y-92630180D01*
X153450180Y-92757742D01*
X153354214Y-92910470D01*
X153354211Y-92910476D01*
X153354211Y-92910478D01*
X153323148Y-92999253D01*
X153294632Y-93080746D01*
X153294630Y-93080754D01*
X153274435Y-93259996D01*
X153274435Y-93260003D01*
X153294630Y-93439245D01*
X153294631Y-93439251D01*
X153294632Y-93439255D01*
X153354211Y-93609522D01*
X153354212Y-93609523D01*
X153354214Y-93609529D01*
X153450180Y-93762257D01*
X153450182Y-93762259D01*
X153450184Y-93762262D01*
X153466855Y-93778933D01*
X153520829Y-93859712D01*
X153539783Y-93955000D01*
X153520829Y-94050288D01*
X153466855Y-94131066D01*
X153440184Y-94157738D01*
X153440180Y-94157742D01*
X153344214Y-94310470D01*
X153344211Y-94310476D01*
X153344211Y-94310478D01*
X153337548Y-94329522D01*
X153284632Y-94480746D01*
X153284630Y-94480754D01*
X153264435Y-94659996D01*
X127460970Y-94659996D01*
X127463699Y-90389996D01*
X131334435Y-90389996D01*
X131334435Y-90390003D01*
X131354630Y-90569245D01*
X131354632Y-90569255D01*
X131403097Y-90707763D01*
X131416677Y-90803964D01*
X131403097Y-90872237D01*
X131354632Y-91010744D01*
X131354630Y-91010754D01*
X131334435Y-91189996D01*
X131334435Y-91190003D01*
X131354630Y-91369245D01*
X131354632Y-91369255D01*
X131403097Y-91507763D01*
X131416677Y-91603964D01*
X131403097Y-91672237D01*
X131354632Y-91810744D01*
X131354630Y-91810754D01*
X131334435Y-91989996D01*
X131334435Y-91990003D01*
X131354630Y-92169245D01*
X131354632Y-92169256D01*
X131409846Y-92327049D01*
X131423427Y-92423250D01*
X131409847Y-92491525D01*
X131364632Y-92620744D01*
X131364630Y-92620754D01*
X131344435Y-92799996D01*
X131344435Y-92800003D01*
X131364630Y-92979245D01*
X131364631Y-92979251D01*
X131364632Y-92979255D01*
X131424211Y-93149522D01*
X131424212Y-93149523D01*
X131424214Y-93149529D01*
X131520180Y-93302257D01*
X131520182Y-93302259D01*
X131520184Y-93302262D01*
X131647738Y-93429816D01*
X131647740Y-93429817D01*
X131647742Y-93429819D01*
X131800470Y-93525785D01*
X131800473Y-93525786D01*
X131800478Y-93525789D01*
X131970745Y-93585368D01*
X131970754Y-93585369D01*
X132149996Y-93605565D01*
X132150000Y-93605565D01*
X132150004Y-93605565D01*
X132289908Y-93589801D01*
X132329255Y-93585368D01*
X132499522Y-93525789D01*
X132499527Y-93525785D01*
X132499529Y-93525785D01*
X132652257Y-93429819D01*
X132652256Y-93429819D01*
X132652262Y-93429816D01*
X132779816Y-93302262D01*
X132831620Y-93219816D01*
X132875785Y-93149529D01*
X132875785Y-93149527D01*
X132875789Y-93149522D01*
X132935368Y-92979255D01*
X132943117Y-92910478D01*
X132953312Y-92819996D01*
X142224435Y-92819996D01*
X142224435Y-92820003D01*
X142244630Y-92999245D01*
X142244631Y-92999251D01*
X142244632Y-92999255D01*
X142304211Y-93169522D01*
X142304212Y-93169523D01*
X142304214Y-93169529D01*
X142400180Y-93322257D01*
X142400182Y-93322259D01*
X142400184Y-93322262D01*
X142527738Y-93449816D01*
X142527740Y-93449817D01*
X142527742Y-93449819D01*
X142680470Y-93545785D01*
X142680473Y-93545786D01*
X142680478Y-93545789D01*
X142850745Y-93605368D01*
X142852653Y-93605583D01*
X143029996Y-93625565D01*
X143043984Y-93625565D01*
X143043984Y-93629301D01*
X143113805Y-93635176D01*
X143200131Y-93679750D01*
X143255757Y-93741983D01*
X143350180Y-93892257D01*
X143350182Y-93892259D01*
X143350184Y-93892262D01*
X143477738Y-94019816D01*
X143477740Y-94019817D01*
X143477742Y-94019819D01*
X143630470Y-94115785D01*
X143630473Y-94115786D01*
X143630478Y-94115789D01*
X143800745Y-94175368D01*
X143800754Y-94175369D01*
X143979996Y-94195565D01*
X143980000Y-94195565D01*
X143980004Y-94195565D01*
X144119908Y-94179801D01*
X144159255Y-94175368D01*
X144329522Y-94115789D01*
X144329527Y-94115785D01*
X144329529Y-94115785D01*
X144482257Y-94019819D01*
X144482256Y-94019819D01*
X144482262Y-94019816D01*
X144609816Y-93892262D01*
X144651029Y-93826672D01*
X144705785Y-93739529D01*
X144705785Y-93739527D01*
X144705789Y-93739522D01*
X144765368Y-93569255D01*
X144775679Y-93477742D01*
X144785565Y-93390003D01*
X144785565Y-93389996D01*
X144765369Y-93210754D01*
X144765368Y-93210745D01*
X144705789Y-93040478D01*
X144705786Y-93040473D01*
X144705785Y-93040470D01*
X144609819Y-92887742D01*
X144609817Y-92887740D01*
X144609816Y-92887738D01*
X144482262Y-92760184D01*
X144482259Y-92760182D01*
X144482257Y-92760180D01*
X144329529Y-92664214D01*
X144329524Y-92664212D01*
X144329522Y-92664211D01*
X144159255Y-92604632D01*
X144159251Y-92604631D01*
X144159245Y-92604630D01*
X143980004Y-92584435D01*
X143966017Y-92584435D01*
X143966017Y-92580722D01*
X143895916Y-92574742D01*
X143809641Y-92530067D01*
X143754243Y-92468016D01*
X143659819Y-92317742D01*
X143659817Y-92317740D01*
X143659816Y-92317738D01*
X143532262Y-92190184D01*
X143532259Y-92190182D01*
X143532257Y-92190180D01*
X143379529Y-92094214D01*
X143379524Y-92094212D01*
X143379522Y-92094211D01*
X143209255Y-92034632D01*
X143209251Y-92034631D01*
X143209245Y-92034630D01*
X143030004Y-92014435D01*
X143029996Y-92014435D01*
X142850754Y-92034630D01*
X142850746Y-92034631D01*
X142850745Y-92034632D01*
X142680478Y-92094211D01*
X142680476Y-92094211D01*
X142680476Y-92094212D01*
X142680470Y-92094214D01*
X142527742Y-92190180D01*
X142400180Y-92317742D01*
X142304214Y-92470470D01*
X142304211Y-92470476D01*
X142304211Y-92470478D01*
X142248328Y-92630184D01*
X142244632Y-92640746D01*
X142244630Y-92640754D01*
X142224435Y-92819996D01*
X132953312Y-92819996D01*
X132955565Y-92800003D01*
X132955565Y-92799996D01*
X132935369Y-92620754D01*
X132935368Y-92620746D01*
X132935368Y-92620745D01*
X132880151Y-92462944D01*
X132866571Y-92366749D01*
X132880151Y-92298476D01*
X132925368Y-92169255D01*
X132940536Y-92034632D01*
X132945565Y-91990003D01*
X132945565Y-91989996D01*
X132925369Y-91810754D01*
X132925368Y-91810746D01*
X132925368Y-91810745D01*
X132876901Y-91672235D01*
X132863321Y-91576039D01*
X132876900Y-91507766D01*
X132925368Y-91369255D01*
X132943365Y-91209529D01*
X132945565Y-91190003D01*
X132945565Y-91189996D01*
X132925369Y-91010754D01*
X132925368Y-91010746D01*
X132925368Y-91010745D01*
X132876901Y-90872235D01*
X132863321Y-90776039D01*
X132876900Y-90707766D01*
X132925368Y-90569255D01*
X132926422Y-90559896D01*
X132955924Y-90467331D01*
X133018604Y-90393100D01*
X133104921Y-90348506D01*
X133201732Y-90340338D01*
X133256091Y-90352744D01*
X133320745Y-90375368D01*
X133320754Y-90375369D01*
X133499996Y-90395565D01*
X133500000Y-90395565D01*
X133500004Y-90395565D01*
X133639908Y-90379801D01*
X133679255Y-90375368D01*
X133849522Y-90315789D01*
X133849527Y-90315785D01*
X133849529Y-90315785D01*
X134002257Y-90219819D01*
X134002256Y-90219819D01*
X134002262Y-90219816D01*
X134102082Y-90119996D01*
X134894435Y-90119996D01*
X134894435Y-90120003D01*
X134914630Y-90299245D01*
X134914631Y-90299251D01*
X134914632Y-90299255D01*
X134974211Y-90469522D01*
X134974212Y-90469523D01*
X134974214Y-90469529D01*
X135070180Y-90622257D01*
X135070182Y-90622259D01*
X135070184Y-90622262D01*
X135197738Y-90749816D01*
X135197740Y-90749817D01*
X135197742Y-90749819D01*
X135350470Y-90845785D01*
X135350473Y-90845786D01*
X135350478Y-90845789D01*
X135520745Y-90905368D01*
X135520754Y-90905369D01*
X135699996Y-90925565D01*
X135700000Y-90925565D01*
X135700004Y-90925565D01*
X135839908Y-90909801D01*
X135879255Y-90905368D01*
X135895488Y-90899687D01*
X135991687Y-90886104D01*
X136085763Y-90910370D01*
X136163392Y-90968789D01*
X136212754Y-91052468D01*
X136264211Y-91199522D01*
X136264212Y-91199523D01*
X136264214Y-91199529D01*
X136360182Y-91352260D01*
X136487735Y-91479814D01*
X136487737Y-91479815D01*
X136487738Y-91479816D01*
X136503653Y-91489816D01*
X136533091Y-91508313D01*
X136603690Y-91575058D01*
X136639946Y-91656079D01*
X136640014Y-91656056D01*
X136640295Y-91656859D01*
X136643371Y-91663733D01*
X136644629Y-91669246D01*
X136644631Y-91669254D01*
X136644632Y-91669255D01*
X136704211Y-91839522D01*
X136704212Y-91839523D01*
X136704214Y-91839529D01*
X136800180Y-91992257D01*
X136800182Y-91992259D01*
X136800184Y-91992262D01*
X136927738Y-92119816D01*
X136927740Y-92119817D01*
X136927742Y-92119819D01*
X137080470Y-92215785D01*
X137080473Y-92215786D01*
X137080478Y-92215789D01*
X137250745Y-92275368D01*
X137250754Y-92275369D01*
X137429996Y-92295565D01*
X137430000Y-92295565D01*
X137430004Y-92295565D01*
X137569908Y-92279801D01*
X137609255Y-92275368D01*
X137779522Y-92215789D01*
X137779524Y-92215788D01*
X137792123Y-92209721D01*
X137793637Y-92212865D01*
X137860220Y-92187415D01*
X137957338Y-92190096D01*
X138034519Y-92222044D01*
X138040478Y-92225789D01*
X138210745Y-92285368D01*
X138210754Y-92285369D01*
X138389996Y-92305565D01*
X138390000Y-92305565D01*
X138390004Y-92305565D01*
X138529908Y-92289801D01*
X138569255Y-92285368D01*
X138739522Y-92225789D01*
X138739527Y-92225785D01*
X138739529Y-92225785D01*
X138892257Y-92129819D01*
X138892256Y-92129819D01*
X138892262Y-92129816D01*
X139019816Y-92002262D01*
X139100274Y-91874214D01*
X139115785Y-91849529D01*
X139115785Y-91849527D01*
X139115789Y-91849522D01*
X139175368Y-91679255D01*
X139175369Y-91679240D01*
X139176622Y-91673756D01*
X139179698Y-91666879D01*
X139179987Y-91666055D01*
X139180056Y-91666079D01*
X139216298Y-91585072D01*
X139286887Y-91518326D01*
X139332262Y-91489816D01*
X139459816Y-91362262D01*
X139555789Y-91209522D01*
X139615368Y-91039255D01*
X139617538Y-91019996D01*
X151504435Y-91019996D01*
X151504435Y-91020003D01*
X151524630Y-91199245D01*
X151524631Y-91199251D01*
X151524632Y-91199255D01*
X151584211Y-91369522D01*
X151584212Y-91369523D01*
X151584214Y-91369529D01*
X151680180Y-91522257D01*
X151680182Y-91522259D01*
X151680184Y-91522262D01*
X151807738Y-91649816D01*
X151807740Y-91649817D01*
X151807742Y-91649819D01*
X151960470Y-91745785D01*
X151960473Y-91745786D01*
X151960478Y-91745789D01*
X152130745Y-91805368D01*
X152130754Y-91805369D01*
X152309996Y-91825565D01*
X152310000Y-91825565D01*
X152310004Y-91825565D01*
X152449908Y-91809801D01*
X152489255Y-91805368D01*
X152659522Y-91745789D01*
X152659527Y-91745785D01*
X152659529Y-91745785D01*
X152801053Y-91656859D01*
X152812262Y-91649816D01*
X152939816Y-91522262D01*
X153035789Y-91369522D01*
X153095368Y-91199255D01*
X153113397Y-91039245D01*
X153115565Y-91020003D01*
X153115565Y-91019996D01*
X153095369Y-90840754D01*
X153095368Y-90840745D01*
X153035789Y-90670478D01*
X153035786Y-90670473D01*
X153035785Y-90670470D01*
X152939819Y-90517742D01*
X152939817Y-90517740D01*
X152939816Y-90517738D01*
X152812262Y-90390184D01*
X152812259Y-90390182D01*
X152812257Y-90390180D01*
X152659529Y-90294214D01*
X152659524Y-90294212D01*
X152659522Y-90294211D01*
X152489255Y-90234632D01*
X152489251Y-90234631D01*
X152489245Y-90234630D01*
X152310004Y-90214435D01*
X152309996Y-90214435D01*
X152130754Y-90234630D01*
X152130746Y-90234631D01*
X152130745Y-90234632D01*
X151960478Y-90294211D01*
X151960476Y-90294211D01*
X151960476Y-90294212D01*
X151960470Y-90294214D01*
X151807742Y-90390180D01*
X151680180Y-90517742D01*
X151584214Y-90670470D01*
X151584211Y-90670476D01*
X151584211Y-90670478D01*
X151524726Y-90840478D01*
X151524632Y-90840746D01*
X151524630Y-90840754D01*
X151504435Y-91019996D01*
X139617538Y-91019996D01*
X139630453Y-90905369D01*
X139635565Y-90860003D01*
X139635565Y-90859996D01*
X139615369Y-90680754D01*
X139615368Y-90680745D01*
X139555789Y-90510478D01*
X139555786Y-90510473D01*
X139555785Y-90510470D01*
X139459819Y-90357742D01*
X139459817Y-90357740D01*
X139459816Y-90357738D01*
X139332262Y-90230184D01*
X139332259Y-90230182D01*
X139332257Y-90230180D01*
X139179529Y-90134214D01*
X139179524Y-90134212D01*
X139179522Y-90134211D01*
X139009255Y-90074632D01*
X139009251Y-90074631D01*
X139009245Y-90074630D01*
X138830004Y-90054435D01*
X138829996Y-90054435D01*
X138650754Y-90074630D01*
X138650746Y-90074631D01*
X138650745Y-90074632D01*
X138480478Y-90134211D01*
X138480476Y-90134211D01*
X138480476Y-90134212D01*
X138467874Y-90140281D01*
X138466660Y-90137761D01*
X138396693Y-90164464D01*
X138299577Y-90161733D01*
X138243067Y-90138325D01*
X138242126Y-90140281D01*
X138229525Y-90134213D01*
X138229522Y-90134211D01*
X138059255Y-90074632D01*
X138059251Y-90074631D01*
X138059245Y-90074630D01*
X137880004Y-90054435D01*
X137879996Y-90054435D01*
X137700754Y-90074630D01*
X137700739Y-90074633D01*
X137529257Y-90134637D01*
X137433056Y-90148218D01*
X137353149Y-90127605D01*
X137352721Y-90128829D01*
X137169256Y-90064632D01*
X137169245Y-90064630D01*
X136990004Y-90044435D01*
X136989996Y-90044435D01*
X136810754Y-90064630D01*
X136810742Y-90064632D01*
X136794503Y-90070315D01*
X136698302Y-90083894D01*
X136604227Y-90059625D01*
X136526600Y-90001202D01*
X136477244Y-89917529D01*
X136425789Y-89770478D01*
X136425786Y-89770474D01*
X136425785Y-89770470D01*
X136356369Y-89659996D01*
X154204435Y-89659996D01*
X154204435Y-89660003D01*
X154224630Y-89839245D01*
X154224631Y-89839251D01*
X154224632Y-89839255D01*
X154284211Y-90009522D01*
X154284212Y-90009523D01*
X154284214Y-90009529D01*
X154380180Y-90162257D01*
X154380182Y-90162259D01*
X154380184Y-90162262D01*
X154507738Y-90289816D01*
X154507740Y-90289817D01*
X154507742Y-90289819D01*
X154660470Y-90385785D01*
X154660473Y-90385786D01*
X154660478Y-90385789D01*
X154830745Y-90445368D01*
X154830754Y-90445369D01*
X155009996Y-90465565D01*
X155010000Y-90465565D01*
X155010004Y-90465565D01*
X155149908Y-90449801D01*
X155189255Y-90445368D01*
X155359522Y-90385789D01*
X155359527Y-90385785D01*
X155359529Y-90385785D01*
X155497256Y-90299245D01*
X155512262Y-90289816D01*
X155639816Y-90162262D01*
X155701161Y-90064632D01*
X155735785Y-90009529D01*
X155735785Y-90009527D01*
X155735789Y-90009522D01*
X155795368Y-89839255D01*
X155803117Y-89770478D01*
X155815565Y-89660003D01*
X155815565Y-89659996D01*
X155795369Y-89480754D01*
X155795368Y-89480745D01*
X155735789Y-89310478D01*
X155735786Y-89310473D01*
X155735785Y-89310470D01*
X155685219Y-89229996D01*
X164464435Y-89229996D01*
X164464435Y-89230003D01*
X164484630Y-89409245D01*
X164484631Y-89409251D01*
X164484632Y-89409255D01*
X164544211Y-89579522D01*
X164544212Y-89579523D01*
X164544214Y-89579529D01*
X164640180Y-89732257D01*
X164640182Y-89732259D01*
X164640184Y-89732262D01*
X164767738Y-89859816D01*
X164767740Y-89859817D01*
X164767742Y-89859819D01*
X164920470Y-89955785D01*
X164920473Y-89955786D01*
X164920478Y-89955789D01*
X165090745Y-90015368D01*
X165090754Y-90015369D01*
X165269996Y-90035565D01*
X165270000Y-90035565D01*
X165270004Y-90035565D01*
X165409908Y-90019801D01*
X165449255Y-90015368D01*
X165619522Y-89955789D01*
X165619527Y-89955785D01*
X165619529Y-89955785D01*
X165732184Y-89884998D01*
X165772262Y-89859816D01*
X165899816Y-89732262D01*
X165931594Y-89681688D01*
X165995785Y-89579529D01*
X165995785Y-89579527D01*
X165995789Y-89579522D01*
X166055368Y-89409255D01*
X166066052Y-89314435D01*
X166075565Y-89230003D01*
X166075565Y-89229996D01*
X166055369Y-89050754D01*
X166055368Y-89050745D01*
X165995789Y-88880478D01*
X165995786Y-88880473D01*
X165995785Y-88880470D01*
X165899819Y-88727742D01*
X165899817Y-88727740D01*
X165899816Y-88727738D01*
X165772262Y-88600184D01*
X165772259Y-88600182D01*
X165772257Y-88600180D01*
X165619529Y-88504214D01*
X165619524Y-88504212D01*
X165619522Y-88504211D01*
X165449255Y-88444632D01*
X165449251Y-88444631D01*
X165449245Y-88444630D01*
X165270004Y-88424435D01*
X165269996Y-88424435D01*
X165090754Y-88444630D01*
X165090746Y-88444631D01*
X165090745Y-88444632D01*
X164920478Y-88504211D01*
X164920476Y-88504211D01*
X164920476Y-88504212D01*
X164920470Y-88504214D01*
X164767742Y-88600180D01*
X164640180Y-88727742D01*
X164544214Y-88880470D01*
X164544211Y-88880476D01*
X164544211Y-88880478D01*
X164486514Y-89045368D01*
X164484632Y-89050746D01*
X164484630Y-89050754D01*
X164464435Y-89229996D01*
X155685219Y-89229996D01*
X155639819Y-89157742D01*
X155639817Y-89157740D01*
X155639816Y-89157738D01*
X155512262Y-89030184D01*
X155512259Y-89030182D01*
X155512257Y-89030180D01*
X155359529Y-88934214D01*
X155359524Y-88934212D01*
X155359522Y-88934211D01*
X155189255Y-88874632D01*
X155189251Y-88874631D01*
X155189245Y-88874630D01*
X155010004Y-88854435D01*
X155009996Y-88854435D01*
X154830754Y-88874630D01*
X154830746Y-88874631D01*
X154830745Y-88874632D01*
X154660478Y-88934211D01*
X154660476Y-88934211D01*
X154660476Y-88934212D01*
X154660470Y-88934214D01*
X154507742Y-89030180D01*
X154380180Y-89157742D01*
X154284214Y-89310470D01*
X154284211Y-89310476D01*
X154284211Y-89310478D01*
X154249648Y-89409255D01*
X154224632Y-89480746D01*
X154224630Y-89480754D01*
X154204435Y-89659996D01*
X136356369Y-89659996D01*
X136329819Y-89617742D01*
X136329817Y-89617740D01*
X136329816Y-89617738D01*
X136202262Y-89490184D01*
X136202259Y-89490182D01*
X136202257Y-89490180D01*
X136049529Y-89394214D01*
X136049524Y-89394212D01*
X136049522Y-89394211D01*
X135879255Y-89334632D01*
X135879251Y-89334631D01*
X135879245Y-89334630D01*
X135700004Y-89314435D01*
X135699996Y-89314435D01*
X135520754Y-89334630D01*
X135520746Y-89334631D01*
X135520745Y-89334632D01*
X135350478Y-89394211D01*
X135350476Y-89394211D01*
X135350476Y-89394212D01*
X135350470Y-89394214D01*
X135197742Y-89490180D01*
X135070180Y-89617742D01*
X134974214Y-89770470D01*
X134974211Y-89770476D01*
X134974211Y-89770478D01*
X134915058Y-89939529D01*
X134914632Y-89940746D01*
X134914630Y-89940754D01*
X134894435Y-90119996D01*
X134102082Y-90119996D01*
X134129816Y-90092262D01*
X134178132Y-90015368D01*
X134225785Y-89939529D01*
X134225785Y-89939527D01*
X134225789Y-89939522D01*
X134285368Y-89769255D01*
X134297203Y-89664214D01*
X134305565Y-89590003D01*
X134305565Y-89589996D01*
X134285369Y-89410754D01*
X134285368Y-89410745D01*
X134225789Y-89240478D01*
X134225786Y-89240473D01*
X134225785Y-89240470D01*
X134129819Y-89087742D01*
X134129817Y-89087740D01*
X134129816Y-89087738D01*
X134002262Y-88960184D01*
X134002259Y-88960182D01*
X134002257Y-88960180D01*
X133849529Y-88864214D01*
X133849518Y-88864209D01*
X133755938Y-88831464D01*
X133672258Y-88782102D01*
X133613837Y-88704474D01*
X133603156Y-88678690D01*
X133575789Y-88600478D01*
X133575785Y-88600472D01*
X133575785Y-88600470D01*
X133479819Y-88447742D01*
X133479817Y-88447740D01*
X133479816Y-88447738D01*
X133352262Y-88320184D01*
X133352259Y-88320182D01*
X133352257Y-88320180D01*
X133199529Y-88224214D01*
X133199524Y-88224212D01*
X133199522Y-88224211D01*
X133029255Y-88164632D01*
X133029251Y-88164631D01*
X133029245Y-88164630D01*
X132850004Y-88144435D01*
X132849996Y-88144435D01*
X132670754Y-88164630D01*
X132670746Y-88164631D01*
X132670745Y-88164632D01*
X132500478Y-88224211D01*
X132500476Y-88224211D01*
X132500476Y-88224212D01*
X132500470Y-88224214D01*
X132347742Y-88320180D01*
X132220180Y-88447742D01*
X132124214Y-88600470D01*
X132124211Y-88600476D01*
X132124211Y-88600478D01*
X132067601Y-88762262D01*
X132064632Y-88770746D01*
X132064630Y-88770754D01*
X132044435Y-88949996D01*
X132044435Y-88950003D01*
X132064630Y-89129245D01*
X132064631Y-89129251D01*
X132064632Y-89129255D01*
X132119257Y-89285365D01*
X132132838Y-89381563D01*
X132108571Y-89475639D01*
X132050151Y-89553267D01*
X131966470Y-89602629D01*
X131960746Y-89604631D01*
X131960745Y-89604632D01*
X131790478Y-89664211D01*
X131790476Y-89664211D01*
X131790476Y-89664212D01*
X131790470Y-89664214D01*
X131637742Y-89760180D01*
X131510180Y-89887742D01*
X131414214Y-90040470D01*
X131414211Y-90040476D01*
X131414211Y-90040478D01*
X131370827Y-90164464D01*
X131354632Y-90210746D01*
X131354630Y-90210754D01*
X131334435Y-90389996D01*
X127463699Y-90389996D01*
X127465763Y-87159996D01*
X136964435Y-87159996D01*
X136964435Y-87160003D01*
X136984630Y-87339245D01*
X136984631Y-87339251D01*
X136984632Y-87339255D01*
X137044211Y-87509522D01*
X137044212Y-87509523D01*
X137044214Y-87509529D01*
X137140180Y-87662257D01*
X137140182Y-87662259D01*
X137140184Y-87662262D01*
X137267738Y-87789816D01*
X137267740Y-87789817D01*
X137267742Y-87789819D01*
X137420470Y-87885785D01*
X137420473Y-87885786D01*
X137420478Y-87885789D01*
X137590745Y-87945368D01*
X137590754Y-87945369D01*
X137769996Y-87965565D01*
X137770000Y-87965565D01*
X137770003Y-87965565D01*
X137929465Y-87947598D01*
X138026276Y-87955764D01*
X138112593Y-88000356D01*
X138175275Y-88074586D01*
X138192371Y-88112792D01*
X138194631Y-88119252D01*
X138194632Y-88119255D01*
X138254211Y-88289522D01*
X138254212Y-88289523D01*
X138254214Y-88289529D01*
X138350180Y-88442257D01*
X138350182Y-88442259D01*
X138350184Y-88442262D01*
X138477738Y-88569816D01*
X138477740Y-88569817D01*
X138477742Y-88569819D01*
X138630470Y-88665785D01*
X138630473Y-88665786D01*
X138630478Y-88665789D01*
X138800745Y-88725368D01*
X138800754Y-88725369D01*
X138979996Y-88745565D01*
X138980000Y-88745565D01*
X138980004Y-88745565D01*
X139119908Y-88729801D01*
X139159255Y-88725368D01*
X139329522Y-88665789D01*
X139329527Y-88665785D01*
X139329529Y-88665785D01*
X139442184Y-88594998D01*
X139482262Y-88569816D01*
X139609816Y-88442262D01*
X139641349Y-88392078D01*
X139705785Y-88289529D01*
X139705785Y-88289527D01*
X139705789Y-88289522D01*
X139765368Y-88119255D01*
X139781142Y-87979255D01*
X139785565Y-87940003D01*
X139785565Y-87939996D01*
X139765369Y-87760754D01*
X139765368Y-87760745D01*
X139705789Y-87590478D01*
X139661777Y-87520433D01*
X139627255Y-87429996D01*
X159734435Y-87429996D01*
X159734435Y-87430003D01*
X159754630Y-87609245D01*
X159754631Y-87609251D01*
X159754632Y-87609255D01*
X159814211Y-87779522D01*
X159814212Y-87779523D01*
X159814214Y-87779529D01*
X159910180Y-87932257D01*
X159910182Y-87932259D01*
X159910184Y-87932262D01*
X160037738Y-88059816D01*
X160037740Y-88059817D01*
X160037742Y-88059819D01*
X160190470Y-88155785D01*
X160190474Y-88155786D01*
X160190478Y-88155789D01*
X160336600Y-88206919D01*
X160420279Y-88256280D01*
X160478700Y-88333908D01*
X160501793Y-88414065D01*
X160504630Y-88439246D01*
X160504631Y-88439251D01*
X160504632Y-88439255D01*
X160564211Y-88609522D01*
X160564212Y-88609523D01*
X160564214Y-88609529D01*
X160660180Y-88762257D01*
X160660182Y-88762259D01*
X160660184Y-88762262D01*
X160787738Y-88889816D01*
X160787740Y-88889817D01*
X160787742Y-88889819D01*
X160940470Y-88985785D01*
X160940473Y-88985786D01*
X160940478Y-88985789D01*
X161110745Y-89045368D01*
X161110754Y-89045369D01*
X161289996Y-89065565D01*
X161290000Y-89065565D01*
X161290004Y-89065565D01*
X161429908Y-89049801D01*
X161469255Y-89045368D01*
X161639522Y-88985789D01*
X161639527Y-88985785D01*
X161639529Y-88985785D01*
X161792257Y-88889819D01*
X161792256Y-88889819D01*
X161792262Y-88889816D01*
X161919816Y-88762262D01*
X161980434Y-88665789D01*
X162015785Y-88609529D01*
X162015785Y-88609527D01*
X162015789Y-88609522D01*
X162075368Y-88439255D01*
X162088550Y-88322262D01*
X162095565Y-88260003D01*
X162095565Y-88259996D01*
X162075369Y-88080754D01*
X162075368Y-88080745D01*
X162015789Y-87910478D01*
X162015786Y-87910473D01*
X162015785Y-87910470D01*
X161919819Y-87757742D01*
X161919817Y-87757740D01*
X161919816Y-87757738D01*
X161792262Y-87630184D01*
X161792259Y-87630182D01*
X161792257Y-87630180D01*
X161639529Y-87534214D01*
X161639524Y-87534212D01*
X161639522Y-87534211D01*
X161493398Y-87483080D01*
X161409719Y-87433718D01*
X161351298Y-87356090D01*
X161328205Y-87275932D01*
X161325368Y-87250745D01*
X161265789Y-87080478D01*
X161265786Y-87080473D01*
X161265785Y-87080470D01*
X161201715Y-86978504D01*
X161167067Y-86887737D01*
X161169792Y-86790620D01*
X161209474Y-86701939D01*
X161280073Y-86635194D01*
X161330304Y-86611004D01*
X161459522Y-86565789D01*
X161584569Y-86487216D01*
X161675332Y-86452570D01*
X161772448Y-86455295D01*
X161849518Y-86487218D01*
X161990471Y-86575785D01*
X161990472Y-86575785D01*
X161990478Y-86575789D01*
X162160745Y-86635368D01*
X162160754Y-86635369D01*
X162339996Y-86655565D01*
X162340000Y-86655565D01*
X162340004Y-86655565D01*
X162479908Y-86639801D01*
X162519255Y-86635368D01*
X162689522Y-86575789D01*
X162778598Y-86519819D01*
X162784566Y-86516069D01*
X162875332Y-86481421D01*
X162972449Y-86484146D01*
X163049517Y-86516067D01*
X163160478Y-86585789D01*
X163330745Y-86645368D01*
X163336171Y-86645979D01*
X163509996Y-86665565D01*
X163510000Y-86665565D01*
X163510004Y-86665565D01*
X163649908Y-86649801D01*
X163689255Y-86645368D01*
X163859522Y-86585789D01*
X163921611Y-86546775D01*
X164012375Y-86512129D01*
X164109491Y-86514854D01*
X164186559Y-86546775D01*
X164280478Y-86605789D01*
X164450745Y-86665368D01*
X164456171Y-86665979D01*
X164629996Y-86685565D01*
X164630000Y-86685565D01*
X164630004Y-86685565D01*
X164788877Y-86667664D01*
X164809255Y-86665368D01*
X164979522Y-86605789D01*
X164979527Y-86605785D01*
X164979529Y-86605785D01*
X165132257Y-86509819D01*
X165132256Y-86509819D01*
X165132262Y-86509816D01*
X165259816Y-86382262D01*
X165316848Y-86291496D01*
X165355785Y-86229529D01*
X165355785Y-86229527D01*
X165355789Y-86229522D01*
X165415368Y-86059255D01*
X165434438Y-85890003D01*
X165434439Y-85889996D01*
X174134435Y-85889996D01*
X174134435Y-85890003D01*
X174154630Y-86069245D01*
X174154631Y-86069251D01*
X174154632Y-86069255D01*
X174214211Y-86239522D01*
X174214212Y-86239523D01*
X174214214Y-86239529D01*
X174310180Y-86392257D01*
X174310182Y-86392259D01*
X174310184Y-86392262D01*
X174437738Y-86519816D01*
X174437740Y-86519817D01*
X174437742Y-86519819D01*
X174590470Y-86615785D01*
X174590472Y-86615785D01*
X174590478Y-86615789D01*
X174597674Y-86618307D01*
X174681351Y-86667664D01*
X174739774Y-86745291D01*
X174764043Y-86839366D01*
X174764435Y-86853333D01*
X174764435Y-86858706D01*
X174745481Y-86953994D01*
X174691505Y-87034776D01*
X174647911Y-87069540D01*
X174487742Y-87170180D01*
X174360180Y-87297742D01*
X174264214Y-87450470D01*
X174264211Y-87450476D01*
X174264211Y-87450478D01*
X174208654Y-87609253D01*
X174204632Y-87620746D01*
X174204630Y-87620754D01*
X174184435Y-87799996D01*
X174184435Y-87800003D01*
X174204630Y-87979245D01*
X174204631Y-87979251D01*
X174204632Y-87979255D01*
X174264211Y-88149522D01*
X174264212Y-88149523D01*
X174264214Y-88149529D01*
X174360180Y-88302257D01*
X174360182Y-88302259D01*
X174360184Y-88302262D01*
X174487738Y-88429816D01*
X174487740Y-88429817D01*
X174487742Y-88429819D01*
X174640470Y-88525785D01*
X174640473Y-88525786D01*
X174640478Y-88525789D01*
X174810745Y-88585368D01*
X174810754Y-88585369D01*
X174989996Y-88605565D01*
X174990000Y-88605565D01*
X174990004Y-88605565D01*
X175129908Y-88589801D01*
X175169255Y-88585368D01*
X175339522Y-88525789D01*
X175391610Y-88493059D01*
X175482373Y-88458413D01*
X175579490Y-88461136D01*
X175656562Y-88493061D01*
X175740469Y-88545784D01*
X175740472Y-88545785D01*
X175740478Y-88545789D01*
X175910745Y-88605368D01*
X175916171Y-88605979D01*
X176089996Y-88625565D01*
X176090000Y-88625565D01*
X176090004Y-88625565D01*
X176232387Y-88609522D01*
X176269255Y-88605368D01*
X176439522Y-88545789D01*
X176439527Y-88545785D01*
X176439529Y-88545785D01*
X176592257Y-88449819D01*
X176592256Y-88449819D01*
X176592262Y-88449816D01*
X176719816Y-88322262D01*
X176815789Y-88169522D01*
X176875368Y-87999255D01*
X176885372Y-87910470D01*
X176895565Y-87820003D01*
X176895565Y-87819996D01*
X176875369Y-87640754D01*
X176875368Y-87640745D01*
X176815789Y-87470478D01*
X176815786Y-87470473D01*
X176815785Y-87470470D01*
X176719819Y-87317742D01*
X176719817Y-87317740D01*
X176719816Y-87317738D01*
X176592262Y-87190184D01*
X176592259Y-87190182D01*
X176487624Y-87124435D01*
X176417026Y-87057689D01*
X176377344Y-86969008D01*
X176372667Y-86885721D01*
X176375565Y-86860001D01*
X176373240Y-86839366D01*
X176371223Y-86821466D01*
X176379388Y-86724659D01*
X176423979Y-86638341D01*
X176486178Y-86582756D01*
X176602262Y-86509816D01*
X176729816Y-86382262D01*
X176786848Y-86291496D01*
X176825785Y-86229529D01*
X176825785Y-86229527D01*
X176825789Y-86229522D01*
X176885368Y-86059255D01*
X176904438Y-85890003D01*
X176905565Y-85880003D01*
X176905565Y-85879996D01*
X176885369Y-85700754D01*
X176885368Y-85700745D01*
X176825789Y-85530478D01*
X176825786Y-85530473D01*
X176825785Y-85530470D01*
X176729819Y-85377742D01*
X176729817Y-85377740D01*
X176729816Y-85377738D01*
X176602262Y-85250184D01*
X176602259Y-85250182D01*
X176602257Y-85250180D01*
X176449529Y-85154214D01*
X176449524Y-85154212D01*
X176449522Y-85154211D01*
X176279255Y-85094632D01*
X176279251Y-85094631D01*
X176279245Y-85094630D01*
X176100004Y-85074435D01*
X176099996Y-85074435D01*
X175920754Y-85094630D01*
X175920746Y-85094631D01*
X175920745Y-85094632D01*
X175750478Y-85154211D01*
X175750476Y-85154211D01*
X175750476Y-85154212D01*
X175750473Y-85154213D01*
X175644517Y-85220790D01*
X175553750Y-85255437D01*
X175456633Y-85252712D01*
X175379566Y-85220789D01*
X175289528Y-85164214D01*
X175289524Y-85164212D01*
X175289522Y-85164211D01*
X175119255Y-85104632D01*
X175119251Y-85104631D01*
X175119245Y-85104630D01*
X174940004Y-85084435D01*
X174939996Y-85084435D01*
X174760754Y-85104630D01*
X174760746Y-85104631D01*
X174760745Y-85104632D01*
X174590478Y-85164211D01*
X174590476Y-85164211D01*
X174590476Y-85164212D01*
X174590470Y-85164214D01*
X174437742Y-85260180D01*
X174310180Y-85387742D01*
X174214214Y-85540470D01*
X174214211Y-85540476D01*
X174214211Y-85540478D01*
X174165454Y-85679819D01*
X174154632Y-85710746D01*
X174154630Y-85710754D01*
X174134435Y-85889996D01*
X165434439Y-85889996D01*
X165435565Y-85880003D01*
X165435565Y-85879996D01*
X165415369Y-85700754D01*
X165415368Y-85700745D01*
X165355789Y-85530478D01*
X165355786Y-85530473D01*
X165355785Y-85530470D01*
X165259819Y-85377742D01*
X165259817Y-85377740D01*
X165259816Y-85377738D01*
X165132262Y-85250184D01*
X165132259Y-85250182D01*
X165132257Y-85250180D01*
X164979529Y-85154214D01*
X164979524Y-85154212D01*
X164979522Y-85154211D01*
X164809255Y-85094632D01*
X164809251Y-85094631D01*
X164809245Y-85094630D01*
X164630004Y-85074435D01*
X164629996Y-85074435D01*
X164450754Y-85094630D01*
X164450746Y-85094631D01*
X164450745Y-85094632D01*
X164280478Y-85154211D01*
X164280476Y-85154211D01*
X164280476Y-85154212D01*
X164280474Y-85154213D01*
X164218388Y-85193224D01*
X164127621Y-85227870D01*
X164030504Y-85225144D01*
X163953438Y-85193222D01*
X163859528Y-85134214D01*
X163859524Y-85134212D01*
X163859522Y-85134211D01*
X163689255Y-85074632D01*
X163689251Y-85074631D01*
X163689245Y-85074630D01*
X163510004Y-85054435D01*
X163509996Y-85054435D01*
X163330754Y-85074630D01*
X163330746Y-85074631D01*
X163330745Y-85074632D01*
X163160478Y-85134211D01*
X163160476Y-85134211D01*
X163160476Y-85134212D01*
X163160468Y-85134216D01*
X163065431Y-85193931D01*
X162974664Y-85228578D01*
X162877547Y-85225853D01*
X162800482Y-85193931D01*
X162689526Y-85124213D01*
X162689524Y-85124212D01*
X162689522Y-85124211D01*
X162519255Y-85064632D01*
X162519251Y-85064631D01*
X162519245Y-85064630D01*
X162340004Y-85044435D01*
X162340003Y-85044435D01*
X162340001Y-85044435D01*
X162340000Y-85044435D01*
X162282479Y-85050916D01*
X162162860Y-85064393D01*
X162066049Y-85056226D01*
X161979733Y-85011633D01*
X161917052Y-84937402D01*
X161887548Y-84844835D01*
X161895715Y-84748024D01*
X161899947Y-84734745D01*
X161905368Y-84719255D01*
X161916552Y-84619996D01*
X171474435Y-84619996D01*
X171474435Y-84620003D01*
X171494630Y-84799245D01*
X171494631Y-84799251D01*
X171494632Y-84799255D01*
X171554211Y-84969522D01*
X171554212Y-84969523D01*
X171554214Y-84969529D01*
X171650180Y-85122257D01*
X171650182Y-85122259D01*
X171650184Y-85122262D01*
X171777738Y-85249816D01*
X171777740Y-85249817D01*
X171777742Y-85249819D01*
X171930470Y-85345785D01*
X171930473Y-85345786D01*
X171930478Y-85345789D01*
X172100745Y-85405368D01*
X172100754Y-85405369D01*
X172279996Y-85425565D01*
X172280000Y-85425565D01*
X172280004Y-85425565D01*
X172419908Y-85409801D01*
X172459255Y-85405368D01*
X172629522Y-85345789D01*
X172629527Y-85345785D01*
X172629529Y-85345785D01*
X172781676Y-85250184D01*
X172782262Y-85249816D01*
X172909816Y-85122262D01*
X172958718Y-85044435D01*
X173005785Y-84969529D01*
X173005785Y-84969527D01*
X173005789Y-84969522D01*
X173065368Y-84799255D01*
X173075478Y-84709522D01*
X173085565Y-84620003D01*
X173085565Y-84619996D01*
X173065369Y-84440754D01*
X173065368Y-84440745D01*
X173005789Y-84270478D01*
X173005786Y-84270473D01*
X173005785Y-84270470D01*
X172909819Y-84117742D01*
X172909817Y-84117740D01*
X172909816Y-84117738D01*
X172782262Y-83990184D01*
X172782259Y-83990182D01*
X172782257Y-83990180D01*
X172629529Y-83894214D01*
X172629524Y-83894212D01*
X172629522Y-83894211D01*
X172459255Y-83834632D01*
X172459251Y-83834631D01*
X172459245Y-83834630D01*
X172280004Y-83814435D01*
X172279996Y-83814435D01*
X172100754Y-83834630D01*
X172100746Y-83834631D01*
X172100745Y-83834632D01*
X171930478Y-83894211D01*
X171930476Y-83894211D01*
X171930476Y-83894212D01*
X171930470Y-83894214D01*
X171777742Y-83990180D01*
X171650180Y-84117742D01*
X171554214Y-84270470D01*
X171554211Y-84270476D01*
X171554211Y-84270478D01*
X171522626Y-84360745D01*
X171494632Y-84440746D01*
X171494630Y-84440754D01*
X171474435Y-84619996D01*
X161916552Y-84619996D01*
X161925565Y-84540000D01*
X161925481Y-84539255D01*
X161905369Y-84360754D01*
X161905368Y-84360745D01*
X161845789Y-84190478D01*
X161845786Y-84190473D01*
X161845785Y-84190470D01*
X161749819Y-84037742D01*
X161749817Y-84037740D01*
X161749816Y-84037738D01*
X161622262Y-83910184D01*
X161622259Y-83910182D01*
X161622257Y-83910180D01*
X161469529Y-83814214D01*
X161469524Y-83814212D01*
X161469522Y-83814211D01*
X161299255Y-83754632D01*
X161299251Y-83754631D01*
X161299245Y-83754630D01*
X161120004Y-83734435D01*
X161119996Y-83734435D01*
X160940754Y-83754630D01*
X160940746Y-83754631D01*
X160940745Y-83754632D01*
X160770478Y-83814211D01*
X160770476Y-83814211D01*
X160770476Y-83814212D01*
X160770470Y-83814214D01*
X160617742Y-83910180D01*
X160490180Y-84037742D01*
X160394214Y-84190470D01*
X160394211Y-84190476D01*
X160394211Y-84190478D01*
X160366219Y-84270476D01*
X160334632Y-84360746D01*
X160334630Y-84360754D01*
X160314435Y-84539996D01*
X160314435Y-84540003D01*
X160334630Y-84719245D01*
X160334631Y-84719251D01*
X160334632Y-84719255D01*
X160394211Y-84889522D01*
X160394212Y-84889523D01*
X160394214Y-84889529D01*
X160495621Y-85050916D01*
X160530269Y-85141683D01*
X160527544Y-85238800D01*
X160487862Y-85327481D01*
X160480390Y-85337409D01*
X160384214Y-85490470D01*
X160384211Y-85490476D01*
X160384211Y-85490478D01*
X160366716Y-85540478D01*
X160324632Y-85660746D01*
X160324630Y-85660754D01*
X160304435Y-85839996D01*
X160304435Y-85840003D01*
X160324630Y-86019245D01*
X160324631Y-86019251D01*
X160324632Y-86019255D01*
X160384211Y-86189522D01*
X160384212Y-86189523D01*
X160384213Y-86189526D01*
X160448285Y-86291496D01*
X160482932Y-86382263D01*
X160480207Y-86479379D01*
X160440524Y-86568061D01*
X160369925Y-86634806D01*
X160319691Y-86658997D01*
X160190478Y-86704211D01*
X160190476Y-86704211D01*
X160190476Y-86704212D01*
X160190470Y-86704214D01*
X160037742Y-86800180D01*
X159910180Y-86927742D01*
X159814214Y-87080470D01*
X159814211Y-87080476D01*
X159814211Y-87080478D01*
X159775824Y-87190184D01*
X159754632Y-87250746D01*
X159754630Y-87250754D01*
X159734435Y-87429996D01*
X139627255Y-87429996D01*
X139627129Y-87429667D01*
X139629854Y-87332550D01*
X139661775Y-87255484D01*
X139715789Y-87169522D01*
X139775368Y-86999255D01*
X139791204Y-86858706D01*
X139795565Y-86820003D01*
X139795565Y-86819996D01*
X139775369Y-86640754D01*
X139775368Y-86640745D01*
X139715789Y-86470478D01*
X139715786Y-86470473D01*
X139715785Y-86470470D01*
X139619819Y-86317742D01*
X139619817Y-86317740D01*
X139619816Y-86317738D01*
X139492262Y-86190184D01*
X139492259Y-86190182D01*
X139492257Y-86190180D01*
X139339529Y-86094214D01*
X139339524Y-86094212D01*
X139339522Y-86094211D01*
X139169255Y-86034632D01*
X139169251Y-86034631D01*
X139169245Y-86034630D01*
X138990004Y-86014435D01*
X138989996Y-86014435D01*
X138810754Y-86034630D01*
X138810746Y-86034631D01*
X138810745Y-86034632D01*
X138640478Y-86094211D01*
X138640476Y-86094211D01*
X138640476Y-86094212D01*
X138640470Y-86094214D01*
X138487742Y-86190180D01*
X138360178Y-86317744D01*
X138351463Y-86328673D01*
X138349886Y-86327415D01*
X138295709Y-86384718D01*
X138207027Y-86424398D01*
X138109910Y-86427121D01*
X138069387Y-86416667D01*
X137949260Y-86374633D01*
X137949245Y-86374630D01*
X137770004Y-86354435D01*
X137769996Y-86354435D01*
X137590754Y-86374630D01*
X137590746Y-86374631D01*
X137590745Y-86374632D01*
X137420478Y-86434211D01*
X137420476Y-86434211D01*
X137420476Y-86434212D01*
X137420470Y-86434214D01*
X137267742Y-86530180D01*
X137140180Y-86657742D01*
X137044214Y-86810470D01*
X137044211Y-86810476D01*
X137044211Y-86810478D01*
X136985417Y-86978504D01*
X136984632Y-86980746D01*
X136984630Y-86980754D01*
X136964435Y-87159996D01*
X127465763Y-87159996D01*
X127467553Y-84359996D01*
X141194435Y-84359996D01*
X141194435Y-84360003D01*
X141214630Y-84539245D01*
X141214631Y-84539251D01*
X141214632Y-84539255D01*
X141274211Y-84709522D01*
X141274212Y-84709523D01*
X141274214Y-84709529D01*
X141370180Y-84862257D01*
X141370182Y-84862259D01*
X141370184Y-84862262D01*
X141497738Y-84989816D01*
X141497740Y-84989817D01*
X141497742Y-84989819D01*
X141650470Y-85085785D01*
X141650473Y-85085786D01*
X141650478Y-85085789D01*
X141667150Y-85091622D01*
X141750828Y-85140984D01*
X141809249Y-85218612D01*
X141819933Y-85244407D01*
X141874209Y-85399518D01*
X141874214Y-85399529D01*
X141970180Y-85552257D01*
X141970182Y-85552259D01*
X141970184Y-85552262D01*
X142097738Y-85679816D01*
X142097740Y-85679817D01*
X142097742Y-85679819D01*
X142250470Y-85775785D01*
X142250473Y-85775786D01*
X142250478Y-85775789D01*
X142420745Y-85835368D01*
X142420754Y-85835369D01*
X142599996Y-85855565D01*
X142600000Y-85855565D01*
X142600004Y-85855565D01*
X142739908Y-85839801D01*
X142779255Y-85835368D01*
X142949522Y-85775789D01*
X142949527Y-85775785D01*
X142949529Y-85775785D01*
X143102257Y-85679819D01*
X143102256Y-85679819D01*
X143102262Y-85679816D01*
X143229816Y-85552262D01*
X143254998Y-85512184D01*
X143325785Y-85399529D01*
X143325785Y-85399527D01*
X143325789Y-85399522D01*
X143385368Y-85229255D01*
X143396076Y-85134216D01*
X143405565Y-85050003D01*
X143405565Y-85049996D01*
X143385369Y-84870754D01*
X143385368Y-84870745D01*
X143325789Y-84700478D01*
X143325786Y-84700473D01*
X143325785Y-84700470D01*
X143229819Y-84547742D01*
X143229817Y-84547740D01*
X143229816Y-84547738D01*
X143193144Y-84511066D01*
X143139171Y-84430288D01*
X143120217Y-84335000D01*
X143139171Y-84239712D01*
X143193144Y-84158933D01*
X143239816Y-84112262D01*
X143303771Y-84010478D01*
X143335785Y-83959529D01*
X143335785Y-83959527D01*
X143335789Y-83959522D01*
X143395368Y-83789255D01*
X143415565Y-83610000D01*
X143405001Y-83516245D01*
X143395369Y-83430754D01*
X143395368Y-83430745D01*
X143335789Y-83260478D01*
X143335786Y-83260473D01*
X143335785Y-83260470D01*
X143239819Y-83107742D01*
X143239817Y-83107740D01*
X143239816Y-83107738D01*
X143112262Y-82980184D01*
X143112259Y-82980182D01*
X143112257Y-82980180D01*
X142959529Y-82884214D01*
X142959524Y-82884212D01*
X142959522Y-82884211D01*
X142789255Y-82824632D01*
X142789251Y-82824631D01*
X142789245Y-82824630D01*
X142610004Y-82804435D01*
X142609996Y-82804435D01*
X142430754Y-82824630D01*
X142430746Y-82824631D01*
X142430745Y-82824632D01*
X142260478Y-82884211D01*
X142260476Y-82884211D01*
X142260476Y-82884212D01*
X142260470Y-82884214D01*
X142107742Y-82980180D01*
X141980180Y-83107742D01*
X141884214Y-83260470D01*
X141884212Y-83260476D01*
X141824632Y-83430746D01*
X141821519Y-83444384D01*
X141819008Y-83443810D01*
X141795910Y-83516245D01*
X141733218Y-83590466D01*
X141660245Y-83630793D01*
X141650476Y-83634211D01*
X141497742Y-83730180D01*
X141370180Y-83857742D01*
X141274214Y-84010470D01*
X141274211Y-84010476D01*
X141274211Y-84010478D01*
X141222266Y-84158930D01*
X141214632Y-84180746D01*
X141214630Y-84180754D01*
X141194435Y-84359996D01*
X127467553Y-84359996D01*
X127470320Y-80029996D01*
X131234435Y-80029996D01*
X131234435Y-80030003D01*
X131254630Y-80209245D01*
X131254631Y-80209251D01*
X131254632Y-80209255D01*
X131314211Y-80379522D01*
X131314212Y-80379523D01*
X131314214Y-80379529D01*
X131410180Y-80532257D01*
X131410182Y-80532259D01*
X131410184Y-80532262D01*
X131537738Y-80659816D01*
X131606382Y-80702948D01*
X131676978Y-80769691D01*
X131708930Y-80831538D01*
X131764211Y-80989522D01*
X131764213Y-80989525D01*
X131764214Y-80989529D01*
X131860180Y-81142257D01*
X131860182Y-81142259D01*
X131860184Y-81142262D01*
X131987738Y-81269816D01*
X131987740Y-81269817D01*
X131987742Y-81269819D01*
X132140470Y-81365785D01*
X132140473Y-81365786D01*
X132140478Y-81365789D01*
X132310745Y-81425368D01*
X132310754Y-81425369D01*
X132489996Y-81445565D01*
X132490000Y-81445565D01*
X132490004Y-81445565D01*
X132629908Y-81429801D01*
X132669255Y-81425368D01*
X132839522Y-81365789D01*
X132894567Y-81331201D01*
X132985330Y-81296555D01*
X133082447Y-81299278D01*
X133159516Y-81331201D01*
X133230478Y-81375789D01*
X133400745Y-81435368D01*
X133400754Y-81435369D01*
X133579996Y-81455565D01*
X133580000Y-81455565D01*
X133580004Y-81455565D01*
X133719908Y-81439801D01*
X133759255Y-81435368D01*
X133929522Y-81375789D01*
X133929527Y-81375785D01*
X133929529Y-81375785D01*
X134082257Y-81279819D01*
X134082256Y-81279819D01*
X134082262Y-81279816D01*
X134209816Y-81152262D01*
X134305789Y-80999522D01*
X134365368Y-80829255D01*
X134378752Y-80710470D01*
X134385565Y-80650003D01*
X134385565Y-80649996D01*
X135804435Y-80649996D01*
X135804435Y-80650003D01*
X135824630Y-80829245D01*
X135824631Y-80829251D01*
X135824632Y-80829255D01*
X135884211Y-80999522D01*
X135884212Y-80999523D01*
X135884214Y-80999529D01*
X135980180Y-81152257D01*
X135980182Y-81152259D01*
X135980184Y-81152262D01*
X136107738Y-81279816D01*
X136107740Y-81279817D01*
X136107742Y-81279819D01*
X136260470Y-81375785D01*
X136260473Y-81375786D01*
X136260478Y-81375789D01*
X136430745Y-81435368D01*
X136430754Y-81435369D01*
X136609996Y-81455565D01*
X136610000Y-81455565D01*
X136610004Y-81455565D01*
X136749908Y-81439801D01*
X136789255Y-81435368D01*
X136959522Y-81375789D01*
X136959527Y-81375785D01*
X136959529Y-81375785D01*
X137048305Y-81320003D01*
X137112262Y-81279816D01*
X137118407Y-81273670D01*
X137199184Y-81219694D01*
X137294471Y-81200737D01*
X137389760Y-81219688D01*
X137470543Y-81273662D01*
X137524522Y-81354442D01*
X137529505Y-81367495D01*
X137544210Y-81409520D01*
X137544214Y-81409529D01*
X137640180Y-81562257D01*
X137640182Y-81562259D01*
X137640184Y-81562262D01*
X137767738Y-81689816D01*
X137767740Y-81689817D01*
X137767742Y-81689819D01*
X137920470Y-81785785D01*
X137920473Y-81785786D01*
X137920478Y-81785789D01*
X138090745Y-81845368D01*
X138090754Y-81845369D01*
X138269996Y-81865565D01*
X138270000Y-81865565D01*
X138270004Y-81865565D01*
X138409908Y-81849801D01*
X138449255Y-81845368D01*
X138619522Y-81785789D01*
X138619527Y-81785785D01*
X138619529Y-81785785D01*
X138772257Y-81689819D01*
X138772256Y-81689819D01*
X138772262Y-81689816D01*
X138899816Y-81562262D01*
X138970823Y-81449255D01*
X138995785Y-81409529D01*
X138995785Y-81409527D01*
X138995789Y-81409522D01*
X139055368Y-81239255D01*
X139065170Y-81152257D01*
X139075565Y-81060003D01*
X139075565Y-81059996D01*
X139055369Y-80880754D01*
X139055368Y-80880745D01*
X138995789Y-80710478D01*
X138995786Y-80710473D01*
X138995785Y-80710470D01*
X138899819Y-80557742D01*
X138899817Y-80557740D01*
X138899816Y-80557738D01*
X138772262Y-80430184D01*
X138772259Y-80430182D01*
X138772257Y-80430180D01*
X138619529Y-80334214D01*
X138619524Y-80334212D01*
X138619522Y-80334211D01*
X138449255Y-80274632D01*
X138449251Y-80274631D01*
X138449245Y-80274630D01*
X138391580Y-80268133D01*
X138299013Y-80238630D01*
X138224783Y-80175948D01*
X138180191Y-80089631D01*
X138172025Y-80048577D01*
X138155369Y-79900754D01*
X138155368Y-79900745D01*
X138095789Y-79730478D01*
X138095786Y-79730473D01*
X138095785Y-79730470D01*
X137999819Y-79577742D01*
X137999817Y-79577740D01*
X137999816Y-79577738D01*
X137872262Y-79450184D01*
X137872259Y-79450182D01*
X137872257Y-79450180D01*
X137719529Y-79354214D01*
X137719524Y-79354212D01*
X137719522Y-79354211D01*
X137549255Y-79294632D01*
X137549251Y-79294631D01*
X137549245Y-79294630D01*
X137370004Y-79274435D01*
X137369996Y-79274435D01*
X137190754Y-79294630D01*
X137190746Y-79294631D01*
X137190745Y-79294632D01*
X137020478Y-79354211D01*
X137020476Y-79354211D01*
X137020476Y-79354212D01*
X137020470Y-79354214D01*
X136867742Y-79450180D01*
X136740180Y-79577742D01*
X136636771Y-79742318D01*
X136634381Y-79740816D01*
X136589416Y-79800552D01*
X136505730Y-79849905D01*
X136451399Y-79862304D01*
X136430751Y-79864630D01*
X136430746Y-79864631D01*
X136430745Y-79864632D01*
X136260478Y-79924211D01*
X136260476Y-79924211D01*
X136260476Y-79924212D01*
X136260470Y-79924214D01*
X136107742Y-80020180D01*
X135980180Y-80147742D01*
X135884214Y-80300470D01*
X135884211Y-80300476D01*
X135884211Y-80300478D01*
X135825416Y-80468506D01*
X135824632Y-80470746D01*
X135824630Y-80470754D01*
X135804435Y-80649996D01*
X134385565Y-80649996D01*
X134365369Y-80470754D01*
X134365368Y-80470745D01*
X134305789Y-80300478D01*
X134305786Y-80300473D01*
X134305785Y-80300470D01*
X134209819Y-80147742D01*
X134209817Y-80147740D01*
X134209816Y-80147738D01*
X134082262Y-80020184D01*
X134082259Y-80020182D01*
X134082257Y-80020180D01*
X133929529Y-79924214D01*
X133929518Y-79924209D01*
X133827396Y-79888475D01*
X133743716Y-79839113D01*
X133685295Y-79761485D01*
X133674613Y-79735698D01*
X133665789Y-79710478D01*
X133642230Y-79672984D01*
X133569819Y-79557742D01*
X133569817Y-79557740D01*
X133569816Y-79557738D01*
X133442262Y-79430184D01*
X133442259Y-79430182D01*
X133442257Y-79430180D01*
X133289529Y-79334214D01*
X133289524Y-79334212D01*
X133289522Y-79334211D01*
X133119255Y-79274632D01*
X133119251Y-79274631D01*
X133119245Y-79274630D01*
X132940004Y-79254435D01*
X132939996Y-79254435D01*
X132760754Y-79274630D01*
X132760739Y-79274633D01*
X132605250Y-79329041D01*
X132509049Y-79342622D01*
X132414974Y-79318355D01*
X132390533Y-79304846D01*
X132389521Y-79304210D01*
X132219256Y-79244632D01*
X132219245Y-79244630D01*
X132040004Y-79224435D01*
X132039996Y-79224435D01*
X131860754Y-79244630D01*
X131860746Y-79244631D01*
X131860745Y-79244632D01*
X131690478Y-79304211D01*
X131690476Y-79304211D01*
X131690476Y-79304212D01*
X131690470Y-79304214D01*
X131537742Y-79400180D01*
X131410180Y-79527742D01*
X131314214Y-79680470D01*
X131314211Y-79680476D01*
X131314211Y-79680478D01*
X131254709Y-79850527D01*
X131254632Y-79850746D01*
X131254630Y-79850754D01*
X131234435Y-80029996D01*
X127470320Y-80029996D01*
X127471055Y-78879996D01*
X171494435Y-78879996D01*
X171494435Y-78880003D01*
X171514630Y-79059245D01*
X171514631Y-79059251D01*
X171514632Y-79059255D01*
X171574211Y-79229522D01*
X171574212Y-79229523D01*
X171574214Y-79229529D01*
X171670180Y-79382257D01*
X171670182Y-79382259D01*
X171670184Y-79382262D01*
X171797738Y-79509816D01*
X171797740Y-79509817D01*
X171797742Y-79509819D01*
X171950470Y-79605785D01*
X171950472Y-79605785D01*
X171950478Y-79605789D01*
X172018131Y-79629461D01*
X172101808Y-79678823D01*
X172160229Y-79756451D01*
X172184495Y-79850527D01*
X172183322Y-79892364D01*
X172164435Y-80060003D01*
X172184630Y-80239245D01*
X172184633Y-80239260D01*
X172188598Y-80250591D01*
X172202177Y-80346792D01*
X172177907Y-80440867D01*
X172119484Y-80518493D01*
X172035812Y-80567850D01*
X171960477Y-80594211D01*
X171960470Y-80594214D01*
X171807742Y-80690180D01*
X171680180Y-80817742D01*
X171584214Y-80970470D01*
X171584211Y-80970476D01*
X171584211Y-80970478D01*
X171542128Y-81090746D01*
X171524632Y-81140746D01*
X171524630Y-81140754D01*
X171504435Y-81319996D01*
X171504435Y-81320003D01*
X171524630Y-81499245D01*
X171524631Y-81499251D01*
X171524632Y-81499255D01*
X171584211Y-81669522D01*
X171584212Y-81669523D01*
X171584214Y-81669529D01*
X171680180Y-81822257D01*
X171680182Y-81822259D01*
X171680184Y-81822262D01*
X171807738Y-81949816D01*
X171807740Y-81949817D01*
X171807742Y-81949819D01*
X171960470Y-82045785D01*
X171960474Y-82045786D01*
X171960478Y-82045789D01*
X172000080Y-82059646D01*
X172083759Y-82109007D01*
X172142180Y-82186634D01*
X172166447Y-82280710D01*
X172165275Y-82322540D01*
X172164435Y-82329998D01*
X172164435Y-82330003D01*
X172184630Y-82509245D01*
X172184631Y-82509251D01*
X172184632Y-82509255D01*
X172244211Y-82679522D01*
X172244212Y-82679523D01*
X172244214Y-82679529D01*
X172340180Y-82832257D01*
X172340182Y-82832259D01*
X172340184Y-82832262D01*
X172467738Y-82959816D01*
X172467740Y-82959817D01*
X172467742Y-82959819D01*
X172620470Y-83055785D01*
X172620473Y-83055786D01*
X172620478Y-83055789D01*
X172790745Y-83115368D01*
X172790754Y-83115369D01*
X172969996Y-83135565D01*
X172970000Y-83135565D01*
X172970004Y-83135565D01*
X173109908Y-83119801D01*
X173149255Y-83115368D01*
X173319522Y-83055789D01*
X173319527Y-83055785D01*
X173319529Y-83055785D01*
X173472259Y-82959818D01*
X173472259Y-82959817D01*
X173472262Y-82959816D01*
X173480443Y-82951634D01*
X173561219Y-82897659D01*
X173656507Y-82878702D01*
X173751796Y-82897653D01*
X173795306Y-82923318D01*
X173795898Y-82922377D01*
X173960470Y-83025785D01*
X173960473Y-83025786D01*
X173960478Y-83025789D01*
X174130745Y-83085368D01*
X174130754Y-83085369D01*
X174309996Y-83105565D01*
X174310000Y-83105565D01*
X174310004Y-83105565D01*
X174449908Y-83089801D01*
X174489255Y-83085368D01*
X174659522Y-83025789D01*
X174659527Y-83025785D01*
X174659529Y-83025785D01*
X174812257Y-82929819D01*
X174812256Y-82929819D01*
X174812262Y-82929816D01*
X174939816Y-82802262D01*
X174970575Y-82753309D01*
X175035785Y-82649529D01*
X175035785Y-82649527D01*
X175035789Y-82649522D01*
X175095368Y-82479255D01*
X175112185Y-82329998D01*
X175115565Y-82300003D01*
X175115565Y-82300001D01*
X175115213Y-82296878D01*
X175115565Y-82292704D01*
X175115565Y-82286017D01*
X175116129Y-82286017D01*
X175123378Y-82200067D01*
X175167969Y-82113749D01*
X175242199Y-82051067D01*
X175280401Y-82033971D01*
X175389522Y-81995789D01*
X175389527Y-81995785D01*
X175389529Y-81995785D01*
X175542257Y-81899819D01*
X175542256Y-81899819D01*
X175542262Y-81899816D01*
X175669816Y-81772262D01*
X175694998Y-81732184D01*
X175765785Y-81619529D01*
X175765785Y-81619527D01*
X175765789Y-81619522D01*
X175825368Y-81449255D01*
X175834772Y-81365789D01*
X175845565Y-81270003D01*
X175845565Y-81269996D01*
X175825369Y-81090754D01*
X175825368Y-81090745D01*
X175765789Y-80920478D01*
X175765786Y-80920473D01*
X175765785Y-80920470D01*
X175669819Y-80767742D01*
X175669817Y-80767740D01*
X175669816Y-80767738D01*
X175542262Y-80640184D01*
X175542259Y-80640182D01*
X175542257Y-80640180D01*
X175389529Y-80544214D01*
X175389525Y-80544213D01*
X175389522Y-80544211D01*
X175245987Y-80493986D01*
X175162309Y-80444624D01*
X175103888Y-80366996D01*
X175079622Y-80272920D01*
X175080796Y-80231081D01*
X175095565Y-80100002D01*
X175095565Y-80099996D01*
X175073803Y-79906848D01*
X175075297Y-79906679D01*
X175073009Y-79825251D01*
X175107653Y-79734483D01*
X175174396Y-79663881D01*
X175236250Y-79631925D01*
X175339522Y-79595789D01*
X175339527Y-79595785D01*
X175339529Y-79595785D01*
X175492257Y-79499819D01*
X175492256Y-79499819D01*
X175492262Y-79499816D01*
X175619816Y-79372262D01*
X175662176Y-79304846D01*
X175715785Y-79219529D01*
X175715785Y-79219527D01*
X175715789Y-79219522D01*
X175775368Y-79049255D01*
X175794438Y-78880003D01*
X175795565Y-78870003D01*
X175795565Y-78869996D01*
X175775369Y-78690754D01*
X175775368Y-78690745D01*
X175715789Y-78520478D01*
X175715786Y-78520473D01*
X175715785Y-78520470D01*
X175619819Y-78367742D01*
X175619817Y-78367740D01*
X175619816Y-78367738D01*
X175492262Y-78240184D01*
X175492259Y-78240182D01*
X175492257Y-78240180D01*
X175339529Y-78144214D01*
X175339524Y-78144212D01*
X175339522Y-78144211D01*
X175169255Y-78084632D01*
X175169251Y-78084631D01*
X175169245Y-78084630D01*
X174990004Y-78064435D01*
X174989996Y-78064435D01*
X174810754Y-78084630D01*
X174810746Y-78084631D01*
X174810745Y-78084632D01*
X174640478Y-78144211D01*
X174640476Y-78144211D01*
X174640476Y-78144212D01*
X174640470Y-78144214D01*
X174487742Y-78240180D01*
X174487738Y-78240183D01*
X174487738Y-78240184D01*
X174466066Y-78261855D01*
X174385288Y-78315829D01*
X174290000Y-78334783D01*
X174194712Y-78315829D01*
X174113933Y-78261855D01*
X174102262Y-78250184D01*
X174102259Y-78250182D01*
X174102257Y-78250180D01*
X173949529Y-78154214D01*
X173949524Y-78154212D01*
X173949522Y-78154211D01*
X173779255Y-78094632D01*
X173779251Y-78094631D01*
X173779245Y-78094630D01*
X173600004Y-78074435D01*
X173599996Y-78074435D01*
X173420754Y-78094630D01*
X173420746Y-78094631D01*
X173420745Y-78094632D01*
X173250478Y-78154211D01*
X173250476Y-78154211D01*
X173250476Y-78154212D01*
X173250470Y-78154214D01*
X173085898Y-78257623D01*
X173084270Y-78255032D01*
X173018934Y-78288786D01*
X172922123Y-78296953D01*
X172829556Y-78267450D01*
X172814322Y-78257271D01*
X172814102Y-78257623D01*
X172649529Y-78154214D01*
X172649524Y-78154212D01*
X172649522Y-78154211D01*
X172479255Y-78094632D01*
X172479251Y-78094631D01*
X172479245Y-78094630D01*
X172300004Y-78074435D01*
X172299996Y-78074435D01*
X172120754Y-78094630D01*
X172120746Y-78094631D01*
X172120745Y-78094632D01*
X171950478Y-78154211D01*
X171950476Y-78154211D01*
X171950476Y-78154212D01*
X171950470Y-78154214D01*
X171797742Y-78250180D01*
X171670180Y-78377742D01*
X171574214Y-78530470D01*
X171574211Y-78530476D01*
X171574211Y-78530478D01*
X171546386Y-78609999D01*
X171514632Y-78700746D01*
X171514630Y-78700754D01*
X171494435Y-78879996D01*
X127471055Y-78879996D01*
X127474539Y-73427742D01*
X127493554Y-73332467D01*
X127547582Y-73251720D01*
X127628398Y-73197795D01*
X127723698Y-73178902D01*
X127818974Y-73197917D01*
X127899605Y-73251829D01*
X127976604Y-73328828D01*
X128135845Y-73444524D01*
X128311225Y-73533884D01*
X128498424Y-73594709D01*
X128692833Y-73625500D01*
X128692837Y-73625500D01*
X128889663Y-73625500D01*
X128889667Y-73625500D01*
X129084076Y-73594709D01*
X129271275Y-73533884D01*
X129446655Y-73444524D01*
X129605896Y-73328828D01*
X129745078Y-73189646D01*
X129860774Y-73030405D01*
X129950134Y-72855025D01*
X130010959Y-72667826D01*
X130041750Y-72473417D01*
X130041750Y-72276583D01*
X130010959Y-72082174D01*
X129950134Y-71894975D01*
X129860774Y-71719595D01*
X129817475Y-71660000D01*
X129745080Y-71560357D01*
X129745078Y-71560354D01*
X129605896Y-71421172D01*
X129578527Y-71401287D01*
X129446660Y-71305479D01*
X129446657Y-71305477D01*
X129446655Y-71305476D01*
X129271275Y-71216116D01*
X129271274Y-71216115D01*
X129271273Y-71216115D01*
X129271267Y-71216113D01*
X129126258Y-71168997D01*
X129084076Y-71155291D01*
X129084074Y-71155290D01*
X129084072Y-71155290D01*
X128889678Y-71124501D01*
X128889669Y-71124500D01*
X128889667Y-71124500D01*
X128692833Y-71124500D01*
X128692830Y-71124500D01*
X128692821Y-71124501D01*
X128498427Y-71155290D01*
X128311232Y-71216113D01*
X128311226Y-71216115D01*
X128135840Y-71305478D01*
X128003972Y-71401287D01*
X127915741Y-71441962D01*
X127818661Y-71445776D01*
X127727511Y-71412149D01*
X127656168Y-71346201D01*
X127615493Y-71257970D01*
X127611679Y-71160890D01*
X127619881Y-71125787D01*
X127620453Y-71123951D01*
X127631104Y-71095866D01*
X127732718Y-70870090D01*
X127746675Y-70843496D01*
X127874770Y-70631602D01*
X127891834Y-70606883D01*
X127922557Y-70567669D01*
X128044510Y-70412007D01*
X128064440Y-70389508D01*
X128239508Y-70214440D01*
X128262007Y-70194510D01*
X128362891Y-70115472D01*
X128456887Y-70041830D01*
X128481602Y-70024770D01*
X128693496Y-69896675D01*
X128720090Y-69882718D01*
X128945866Y-69781104D01*
X128973943Y-69770455D01*
X129210332Y-69696794D01*
X129239500Y-69689605D01*
X129483023Y-69644978D01*
X129512840Y-69641357D01*
X129744581Y-69627340D01*
X129767496Y-69625954D01*
X129782529Y-69625500D01*
X129843788Y-69625500D01*
X129843879Y-69625488D01*
X138495315Y-69624186D01*
X138590604Y-69643126D01*
X138671393Y-69697090D01*
X138725382Y-69777863D01*
X138744350Y-69873149D01*
X138744349Y-69873794D01*
X138732951Y-74541073D01*
X138713765Y-74636315D01*
X138659591Y-74716964D01*
X138578678Y-74770743D01*
X138483344Y-74789464D01*
X138412956Y-74777416D01*
X138412882Y-74777743D01*
X138406948Y-74776388D01*
X138401716Y-74775493D01*
X138399258Y-74774633D01*
X138399257Y-74774632D01*
X138399255Y-74774632D01*
X138399252Y-74774631D01*
X138399245Y-74774630D01*
X138220004Y-74754435D01*
X138219996Y-74754435D01*
X138040754Y-74774630D01*
X138040746Y-74774631D01*
X138040745Y-74774632D01*
X137870478Y-74834211D01*
X137870476Y-74834211D01*
X137870476Y-74834212D01*
X137870470Y-74834214D01*
X137717739Y-74930182D01*
X137615772Y-75032149D01*
X137534990Y-75086125D01*
X137439702Y-75105079D01*
X137428226Y-75104435D01*
X137419996Y-75104435D01*
X137240754Y-75124630D01*
X137240746Y-75124631D01*
X137240745Y-75124632D01*
X137070478Y-75184211D01*
X137070476Y-75184211D01*
X137070476Y-75184212D01*
X137070473Y-75184213D01*
X136935119Y-75269262D01*
X136844352Y-75303909D01*
X136747236Y-75301184D01*
X136658554Y-75261501D01*
X136643369Y-75248679D01*
X136643193Y-75248901D01*
X136632261Y-75240182D01*
X136479529Y-75144214D01*
X136479524Y-75144212D01*
X136479522Y-75144211D01*
X136309255Y-75084632D01*
X136309251Y-75084631D01*
X136309245Y-75084630D01*
X136130004Y-75064435D01*
X136129996Y-75064435D01*
X135950754Y-75084630D01*
X135950746Y-75084631D01*
X135950745Y-75084632D01*
X135780478Y-75144211D01*
X135780476Y-75144211D01*
X135780476Y-75144212D01*
X135780470Y-75144214D01*
X135627742Y-75240180D01*
X135500180Y-75367742D01*
X135404214Y-75520470D01*
X135404211Y-75520476D01*
X135404211Y-75520478D01*
X135348328Y-75680184D01*
X135344632Y-75690746D01*
X135344630Y-75690754D01*
X135324435Y-75869996D01*
X135324435Y-75870003D01*
X135344630Y-76049245D01*
X135344631Y-76049251D01*
X135344632Y-76049255D01*
X135404211Y-76219522D01*
X135404212Y-76219523D01*
X135404214Y-76219529D01*
X135500180Y-76372257D01*
X135500182Y-76372259D01*
X135500184Y-76372262D01*
X135627738Y-76499816D01*
X135627740Y-76499817D01*
X135627742Y-76499819D01*
X135780470Y-76595785D01*
X135780473Y-76595786D01*
X135780478Y-76595789D01*
X135950745Y-76655368D01*
X135950754Y-76655369D01*
X136129996Y-76675565D01*
X136130000Y-76675565D01*
X136130004Y-76675565D01*
X136272387Y-76659522D01*
X136309255Y-76655368D01*
X136479522Y-76595789D01*
X136614882Y-76510736D01*
X136705645Y-76476090D01*
X136802762Y-76478815D01*
X136891443Y-76518497D01*
X136906630Y-76531320D01*
X136906807Y-76531099D01*
X136917738Y-76539817D01*
X137070470Y-76635785D01*
X137070473Y-76635786D01*
X137070478Y-76635789D01*
X137240745Y-76695368D01*
X137240754Y-76695369D01*
X137419996Y-76715565D01*
X137420000Y-76715565D01*
X137420004Y-76715565D01*
X137559908Y-76699801D01*
X137599255Y-76695368D01*
X137769522Y-76635789D01*
X137769527Y-76635785D01*
X137769529Y-76635785D01*
X137922260Y-76539817D01*
X137922259Y-76539817D01*
X137922262Y-76539816D01*
X138024229Y-76437848D01*
X138105007Y-76383874D01*
X138200295Y-76364920D01*
X138211773Y-76365565D01*
X138220000Y-76365565D01*
X138220004Y-76365565D01*
X138359908Y-76349801D01*
X138399255Y-76345368D01*
X138399265Y-76345364D01*
X138412882Y-76342257D01*
X138413224Y-76343759D01*
X138493703Y-76332392D01*
X138587780Y-76356652D01*
X138665412Y-76415067D01*
X138714780Y-76498745D01*
X138728746Y-76578434D01*
X138750000Y-78640000D01*
X159840000Y-78610000D01*
X159827635Y-75869996D01*
X163004435Y-75869996D01*
X163004435Y-75870003D01*
X163024630Y-76049245D01*
X163024631Y-76049251D01*
X163024632Y-76049255D01*
X163084211Y-76219522D01*
X163084212Y-76219523D01*
X163084214Y-76219529D01*
X163180180Y-76372257D01*
X163180182Y-76372259D01*
X163180184Y-76372262D01*
X163307738Y-76499816D01*
X163307740Y-76499817D01*
X163307742Y-76499819D01*
X163460470Y-76595785D01*
X163460473Y-76595786D01*
X163460478Y-76595789D01*
X163630745Y-76655368D01*
X163630754Y-76655369D01*
X163809996Y-76675565D01*
X163810000Y-76675565D01*
X163810004Y-76675565D01*
X163952387Y-76659522D01*
X163989255Y-76655368D01*
X164159522Y-76595789D01*
X164159527Y-76595785D01*
X164159529Y-76595785D01*
X164312257Y-76499819D01*
X164312256Y-76499819D01*
X164312262Y-76499816D01*
X164439816Y-76372262D01*
X164478940Y-76309996D01*
X166194435Y-76309996D01*
X166194435Y-76310003D01*
X166214630Y-76489245D01*
X166214631Y-76489251D01*
X166214632Y-76489255D01*
X166274211Y-76659522D01*
X166274212Y-76659523D01*
X166274214Y-76659529D01*
X166370180Y-76812257D01*
X166370182Y-76812259D01*
X166370184Y-76812262D01*
X166497738Y-76939816D01*
X166497740Y-76939817D01*
X166497742Y-76939819D01*
X166650470Y-77035785D01*
X166650473Y-77035786D01*
X166650478Y-77035789D01*
X166820745Y-77095368D01*
X166820754Y-77095369D01*
X166999996Y-77115565D01*
X167000000Y-77115565D01*
X167000004Y-77115565D01*
X167139908Y-77099801D01*
X167179255Y-77095368D01*
X167349522Y-77035789D01*
X167349527Y-77035785D01*
X167349529Y-77035785D01*
X167502257Y-76939819D01*
X167502256Y-76939819D01*
X167502262Y-76939816D01*
X167629816Y-76812262D01*
X167703265Y-76695369D01*
X167725785Y-76659529D01*
X167725785Y-76659527D01*
X167725789Y-76659522D01*
X167785368Y-76489255D01*
X167794043Y-76412262D01*
X167805565Y-76310003D01*
X167805565Y-76309996D01*
X167785369Y-76130754D01*
X167785368Y-76130745D01*
X167725789Y-75960478D01*
X167725786Y-75960473D01*
X167725785Y-75960470D01*
X167629819Y-75807742D01*
X167629817Y-75807740D01*
X167629816Y-75807738D01*
X167502262Y-75680184D01*
X167502259Y-75680182D01*
X167502257Y-75680180D01*
X167349529Y-75584214D01*
X167349524Y-75584212D01*
X167349522Y-75584211D01*
X167179255Y-75524632D01*
X167179251Y-75524631D01*
X167179245Y-75524630D01*
X167000004Y-75504435D01*
X166999996Y-75504435D01*
X166820754Y-75524630D01*
X166820746Y-75524631D01*
X166820745Y-75524632D01*
X166650478Y-75584211D01*
X166650476Y-75584211D01*
X166650476Y-75584212D01*
X166650470Y-75584214D01*
X166497742Y-75680180D01*
X166370180Y-75807742D01*
X166274214Y-75960470D01*
X166274211Y-75960476D01*
X166274211Y-75960478D01*
X166243148Y-76049253D01*
X166214632Y-76130746D01*
X166214630Y-76130754D01*
X166194435Y-76309996D01*
X164478940Y-76309996D01*
X164535789Y-76219522D01*
X164595368Y-76049255D01*
X164615565Y-75870000D01*
X164608550Y-75807742D01*
X164595369Y-75690754D01*
X164595368Y-75690745D01*
X164535789Y-75520478D01*
X164535786Y-75520473D01*
X164535785Y-75520470D01*
X164439819Y-75367742D01*
X164439817Y-75367740D01*
X164439816Y-75367738D01*
X164312262Y-75240184D01*
X164312259Y-75240182D01*
X164312257Y-75240180D01*
X164159529Y-75144214D01*
X164159524Y-75144212D01*
X164159522Y-75144211D01*
X163989255Y-75084632D01*
X163989251Y-75084631D01*
X163989245Y-75084630D01*
X163810004Y-75064435D01*
X163809996Y-75064435D01*
X163630754Y-75084630D01*
X163630746Y-75084631D01*
X163630745Y-75084632D01*
X163460478Y-75144211D01*
X163460476Y-75144211D01*
X163460476Y-75144212D01*
X163460470Y-75144214D01*
X163307742Y-75240180D01*
X163180180Y-75367742D01*
X163084214Y-75520470D01*
X163084211Y-75520476D01*
X163084211Y-75520478D01*
X163028328Y-75680184D01*
X163024632Y-75690746D01*
X163024630Y-75690754D01*
X163004435Y-75869996D01*
X159827635Y-75869996D01*
X159804584Y-70762123D01*
X160479500Y-70762123D01*
X160479500Y-72557865D01*
X160479501Y-72557869D01*
X160485908Y-72617480D01*
X160485909Y-72617484D01*
X160513732Y-72692081D01*
X160536204Y-72752331D01*
X160622454Y-72867546D01*
X160737669Y-72953796D01*
X160872517Y-73004091D01*
X160932127Y-73010500D01*
X162727872Y-73010499D01*
X162787483Y-73004091D01*
X162922331Y-72953796D01*
X163037546Y-72867546D01*
X163123796Y-72752331D01*
X163123796Y-72752329D01*
X163134469Y-72738073D01*
X163137774Y-72740547D01*
X163178246Y-72692081D01*
X163264317Y-72647014D01*
X163361081Y-72638316D01*
X163453809Y-72667310D01*
X163494614Y-72695151D01*
X163498594Y-72698490D01*
X163498599Y-72698495D01*
X163692170Y-72834035D01*
X163906337Y-72933903D01*
X164134592Y-72995063D01*
X164134595Y-72995063D01*
X164134598Y-72995064D01*
X164369995Y-73015659D01*
X164370000Y-73015659D01*
X164370005Y-73015659D01*
X164605401Y-72995064D01*
X164605403Y-72995063D01*
X164605408Y-72995063D01*
X164833663Y-72933903D01*
X165047830Y-72834035D01*
X165241401Y-72698495D01*
X165408495Y-72531401D01*
X165436032Y-72492074D01*
X165506211Y-72424891D01*
X165596760Y-72389678D01*
X165693892Y-72391797D01*
X165782819Y-72430925D01*
X165843967Y-72492073D01*
X165871505Y-72531401D01*
X166038599Y-72698495D01*
X166232170Y-72834035D01*
X166446337Y-72933903D01*
X166674592Y-72995063D01*
X166674595Y-72995063D01*
X166674598Y-72995064D01*
X166909995Y-73015659D01*
X166910000Y-73015659D01*
X166910005Y-73015659D01*
X167145401Y-72995064D01*
X167145403Y-72995063D01*
X167145408Y-72995063D01*
X167373663Y-72933903D01*
X167587830Y-72834035D01*
X167781401Y-72698495D01*
X167948495Y-72531401D01*
X167976032Y-72492074D01*
X168046211Y-72424891D01*
X168136760Y-72389678D01*
X168233892Y-72391797D01*
X168322819Y-72430925D01*
X168383967Y-72492073D01*
X168411505Y-72531401D01*
X168578599Y-72698495D01*
X168772170Y-72834035D01*
X168986337Y-72933903D01*
X169214592Y-72995063D01*
X169214595Y-72995063D01*
X169214598Y-72995064D01*
X169449995Y-73015659D01*
X169450000Y-73015659D01*
X169450005Y-73015659D01*
X169685401Y-72995064D01*
X169685403Y-72995063D01*
X169685408Y-72995063D01*
X169913663Y-72933903D01*
X170127830Y-72834035D01*
X170321401Y-72698495D01*
X170488495Y-72531401D01*
X170516032Y-72492074D01*
X170586211Y-72424891D01*
X170676760Y-72389678D01*
X170773892Y-72391797D01*
X170862819Y-72430925D01*
X170923967Y-72492073D01*
X170951505Y-72531401D01*
X171118599Y-72698495D01*
X171312170Y-72834035D01*
X171526337Y-72933903D01*
X171754592Y-72995063D01*
X171754595Y-72995063D01*
X171754598Y-72995064D01*
X171989995Y-73015659D01*
X171990000Y-73015659D01*
X171990005Y-73015659D01*
X172225401Y-72995064D01*
X172225403Y-72995063D01*
X172225408Y-72995063D01*
X172453663Y-72933903D01*
X172667830Y-72834035D01*
X172861401Y-72698495D01*
X173028495Y-72531401D01*
X173164035Y-72337830D01*
X173263903Y-72123663D01*
X173325063Y-71895408D01*
X173325064Y-71895401D01*
X173345659Y-71660005D01*
X173345659Y-71659994D01*
X173325064Y-71424598D01*
X173325063Y-71424595D01*
X173325063Y-71424592D01*
X173263903Y-71196337D01*
X173164035Y-70982171D01*
X173028495Y-70788599D01*
X172861401Y-70621505D01*
X172830190Y-70599651D01*
X172667830Y-70485965D01*
X172667821Y-70485961D01*
X172453663Y-70386097D01*
X172453660Y-70386096D01*
X172225401Y-70324935D01*
X171990005Y-70304341D01*
X171989995Y-70304341D01*
X171754598Y-70324935D01*
X171526335Y-70386097D01*
X171526333Y-70386098D01*
X171312177Y-70485961D01*
X171312169Y-70485965D01*
X171118600Y-70621504D01*
X170951501Y-70788603D01*
X170923968Y-70827925D01*
X170853787Y-70895109D01*
X170763237Y-70930321D01*
X170666106Y-70928201D01*
X170577179Y-70889072D01*
X170516032Y-70827925D01*
X170488498Y-70788603D01*
X170488497Y-70788602D01*
X170488495Y-70788599D01*
X170321401Y-70621505D01*
X170290190Y-70599651D01*
X170127830Y-70485965D01*
X170127821Y-70485961D01*
X169913663Y-70386097D01*
X169913660Y-70386096D01*
X169685401Y-70324935D01*
X169450005Y-70304341D01*
X169449995Y-70304341D01*
X169214598Y-70324935D01*
X168986335Y-70386097D01*
X168986333Y-70386098D01*
X168772177Y-70485961D01*
X168772169Y-70485965D01*
X168578600Y-70621504D01*
X168411501Y-70788603D01*
X168383968Y-70827925D01*
X168313787Y-70895109D01*
X168223237Y-70930321D01*
X168126106Y-70928201D01*
X168037179Y-70889072D01*
X167976032Y-70827925D01*
X167948498Y-70788603D01*
X167948497Y-70788602D01*
X167948495Y-70788599D01*
X167781401Y-70621505D01*
X167750190Y-70599651D01*
X167587830Y-70485965D01*
X167587821Y-70485961D01*
X167373663Y-70386097D01*
X167373660Y-70386096D01*
X167145401Y-70324935D01*
X166910005Y-70304341D01*
X166909995Y-70304341D01*
X166674598Y-70324935D01*
X166446335Y-70386097D01*
X166446333Y-70386098D01*
X166232177Y-70485961D01*
X166232169Y-70485965D01*
X166038600Y-70621504D01*
X165871501Y-70788603D01*
X165843968Y-70827925D01*
X165773787Y-70895109D01*
X165683237Y-70930321D01*
X165586106Y-70928201D01*
X165497179Y-70889072D01*
X165436032Y-70827925D01*
X165408498Y-70788603D01*
X165408497Y-70788602D01*
X165408495Y-70788599D01*
X165241401Y-70621505D01*
X165210190Y-70599651D01*
X165047830Y-70485965D01*
X165047821Y-70485961D01*
X164833663Y-70386097D01*
X164833660Y-70386096D01*
X164605401Y-70324935D01*
X164370005Y-70304341D01*
X164369995Y-70304341D01*
X164134598Y-70324935D01*
X163906335Y-70386097D01*
X163906333Y-70386098D01*
X163692177Y-70485961D01*
X163692169Y-70485965D01*
X163498587Y-70621513D01*
X163494605Y-70624855D01*
X163490960Y-70626853D01*
X163489694Y-70627741D01*
X163489596Y-70627602D01*
X163409423Y-70671580D01*
X163312845Y-70682150D01*
X163219573Y-70654957D01*
X163143808Y-70594140D01*
X163135133Y-70581429D01*
X163134469Y-70581927D01*
X163123796Y-70567670D01*
X163123796Y-70567669D01*
X163037546Y-70452454D01*
X162922331Y-70366204D01*
X162842117Y-70336286D01*
X162787481Y-70315908D01*
X162727873Y-70309500D01*
X160932134Y-70309500D01*
X160932130Y-70309500D01*
X160932128Y-70309501D01*
X160919314Y-70310878D01*
X160872519Y-70315908D01*
X160872515Y-70315909D01*
X160737670Y-70366203D01*
X160622455Y-70452453D01*
X160622453Y-70452455D01*
X160536204Y-70567669D01*
X160485908Y-70702518D01*
X160479500Y-70762123D01*
X159804584Y-70762123D01*
X159800563Y-69871061D01*
X159819086Y-69775691D01*
X159872698Y-69694667D01*
X159953235Y-69640326D01*
X160048436Y-69620943D01*
X160049388Y-69620940D01*
X177799682Y-69618268D01*
X177814749Y-69618721D01*
G37*
G04 #@! TD.AperFunction*
M02*
