M48
; DRILL file {KiCad 9.0.0} date 2025-02-24T19:41:17+0100
; FORMAT={-:-/ absolute / metric / decimal}
; #@! TF.CreationDate,2025-02-24T19:41:17+01:00
; #@! TF.GenerationSoftware,Kicad,Pcbnew,9.0.0
; #@! TF.FileFunction,Plated,1,4,PTH
FMAT,2
METRIC
; #@! TA.AperFunction,Plated,PTH,ViaDrill
T1C0.300
; #@! TA.AperFunction,Plated,PTH,ComponentDrill
T2C1.000
%
G90
G05
T1
X127.79Y-94.53
X128.14Y-93.89
X128.55Y-94.52
X130.33Y-86.63
X130.92Y-76.55
X130.93Y-77.43
X130.94Y-75.7
X131.6Y-77.01
X131.64Y-76.13
X132.04Y-80.03
X132.14Y-90.39
X132.14Y-91.19
X132.14Y-91.99
X132.15Y-92.8
X132.37Y-71.29
X132.49Y-80.64
X132.59Y-75.89
X132.85Y-88.95
X132.94Y-80.06
X133.5Y-89.59
X133.58Y-80.65
X133.65Y-72.15
X133.65Y-75.9
X134.61Y-89.69
X134.76Y-75.9
X135.01Y-71.3
X135.066Y-86.945
X135.7Y-90.12
X135.96Y-72.18
X136.13Y-75.87
X136.19Y-81.45
X136.61Y-80.65
X136.99Y-90.85
X137.37Y-71.31
X137.37Y-80.08
X137.42Y-75.91
X137.43Y-91.49
X137.77Y-87.16
X137.88Y-90.86
X138.22Y-75.56
X138.27Y-81.06
X138.3Y-88.57
X138.39Y-91.5
X138.83Y-90.86
X138.98Y-87.94
X138.99Y-86.82
X141.76Y-90.85
X142.0Y-84.36
X142.6Y-85.05
X142.61Y-83.61
X143.03Y-92.82
X143.98Y-93.39
X144.81Y-86.037
X144.81Y-87.7
X144.82Y-84.29
X144.83Y-89.66
X145.55Y-83.46
X146.23Y-84.28
X146.82Y-83.42
X147.05Y-89.64
X147.67Y-84.25
X148.45Y-89.64
X148.54Y-83.44
X149.25Y-84.25
X150.16Y-83.47
X150.79Y-89.65
X150.82Y-84.27
X150.84Y-86.08
X150.84Y-87.71
X151.58Y-83.47
X151.61Y-85.23
X151.63Y-86.95
X151.64Y-88.76
X152.31Y-91.02
X154.07Y-94.66
X154.08Y-93.26
X154.78Y-92.59
X154.78Y-93.98
X155.01Y-89.66
X159.45Y-79.3
X160.54Y-87.43
X161.11Y-85.84
X161.12Y-84.54
X161.29Y-88.26
X161.37Y-82.58
X162.06Y-92.6
X162.08Y-93.98
X162.17Y-95.52
X162.34Y-85.85
X163.0Y-94.66
X163.51Y-85.86
X163.81Y-75.87
X164.04Y-93.93
X164.04Y-98.44
X164.63Y-85.88
X165.27Y-89.23
X166.51Y-100.37
X167.0Y-76.31
X167.1Y-78.84
X167.1Y-80.52
X167.64Y-79.73
X167.64Y-81.5
X168.17Y-78.85
X168.18Y-80.57
X170.5Y-100.0
X171.4Y-98.64
X172.28Y-84.62
X172.3Y-78.88
X172.31Y-81.32
X172.97Y-80.06
X172.97Y-82.33
X173.59Y-81.32
X173.6Y-78.88
X173.89Y-100.47
X174.29Y-80.1
X174.31Y-82.3
X174.79Y-84.43
X174.94Y-85.89
X174.99Y-78.87
X174.99Y-87.8
X175.04Y-81.27
X175.57Y-86.86
X176.09Y-87.82
X176.1Y-85.88
T2
X161.83Y-71.66
X164.37Y-71.66
X166.91Y-71.66
X169.45Y-71.66
X171.99Y-71.66
X174.53Y-71.66
M30
