G04 #@! TF.GenerationSoftware,KiCad,Pcbnew,7.0.1*
G04 #@! TF.CreationDate,2023-11-26T12:32:17+08:00*
G04 #@! TF.ProjectId,SourceFIle,536f7572-6365-4464-996c-652e6b696361,02*
G04 #@! TF.SameCoordinates,Original*
G04 #@! TF.FileFunction,Soldermask,Top*
G04 #@! TF.FilePolarity,Negative*
%FSLAX46Y46*%
G04 Gerber Fmt 4.6, Leading zero omitted, Abs format (unit mm)*
G04 Created by KiCad (PCBNEW 7.0.1) date 2023-11-26 12:32:17*
%MOMM*%
%LPD*%
G01*
G04 APERTURE LIST*
G04 Aperture macros list*
%AMRoundRect*
0 Rectangle with rounded corners*
0 $1 Rounding radius*
0 $2 $3 $4 $5 $6 $7 $8 $9 X,Y pos of 4 corners*
0 Add a 4 corners polygon primitive as box body*
4,1,4,$2,$3,$4,$5,$6,$7,$8,$9,$2,$3,0*
0 Add four circle primitives for the rounded corners*
1,1,$1+$1,$2,$3*
1,1,$1+$1,$4,$5*
1,1,$1+$1,$6,$7*
1,1,$1+$1,$8,$9*
0 Add four rect primitives between the rounded corners*
20,1,$1+$1,$2,$3,$4,$5,0*
20,1,$1+$1,$4,$5,$6,$7,0*
20,1,$1+$1,$6,$7,$8,$9,0*
20,1,$1+$1,$8,$9,$2,$3,0*%
G04 Aperture macros list end*
%ADD10C,0.100000*%
%ADD11RoundRect,0.237500X0.237500X-0.300000X0.237500X0.300000X-0.237500X0.300000X-0.237500X-0.300000X0*%
%ADD12RoundRect,0.237500X-0.237500X0.250000X-0.237500X-0.250000X0.237500X-0.250000X0.237500X0.250000X0*%
%ADD13RoundRect,0.237500X-0.237500X0.300000X-0.237500X-0.300000X0.237500X-0.300000X0.237500X0.300000X0*%
%ADD14R,1.700000X1.700000*%
%ADD15O,1.700000X1.700000*%
%ADD16RoundRect,0.237500X0.300000X0.237500X-0.300000X0.237500X-0.300000X-0.237500X0.300000X-0.237500X0*%
%ADD17RoundRect,0.250000X-0.450000X0.325000X-0.450000X-0.325000X0.450000X-0.325000X0.450000X0.325000X0*%
%ADD18R,0.900000X1.700000*%
%ADD19R,1.500000X0.900000*%
%ADD20R,0.900000X1.500000*%
%ADD21R,0.900000X0.900000*%
%ADD22R,2.000000X6.000000*%
%ADD23C,2.000000*%
%ADD24RoundRect,0.237500X0.237500X-0.250000X0.237500X0.250000X-0.237500X0.250000X-0.237500X-0.250000X0*%
%ADD25R,2.400000X2.400000*%
%ADD26C,2.400000*%
%ADD27C,0.508000*%
%ADD28R,0.736600X0.533400*%
%ADD29R,0.300000X0.300000*%
%ADD30R,1.350000X0.400000*%
%ADD31R,1.600000X2.100000*%
%ADD32R,1.900000X1.800000*%
%ADD33R,1.900000X1.900000*%
%ADD34RoundRect,0.237500X-0.300000X-0.237500X0.300000X-0.237500X0.300000X0.237500X-0.300000X0.237500X0*%
%ADD35RoundRect,0.250000X-0.475000X0.337500X-0.475000X-0.337500X0.475000X-0.337500X0.475000X0.337500X0*%
%ADD36RoundRect,0.007000X0.168000X-0.298000X0.168000X0.298000X-0.168000X0.298000X-0.168000X-0.298000X0*%
%ADD37RoundRect,0.007000X0.298000X0.168000X-0.298000X0.168000X-0.298000X-0.168000X0.298000X-0.168000X0*%
%ADD38RoundRect,0.007000X-0.168000X0.298000X-0.168000X-0.298000X0.168000X-0.298000X0.168000X0.298000X0*%
%ADD39RoundRect,0.007000X-0.298000X-0.168000X0.298000X-0.168000X0.298000X0.168000X-0.298000X0.168000X0*%
%ADD40C,2.100000*%
%ADD41R,0.576580X0.351536*%
%ADD42R,0.351536X0.576580*%
G04 APERTURE END LIST*
D10*
X167079919Y-89943781D02*
X167306502Y-90059231D01*
X167486319Y-90239048D01*
X167601769Y-90465631D01*
X167641550Y-90716800D01*
X167601769Y-90967969D01*
X167486319Y-91194552D01*
X167306502Y-91374369D01*
X167079919Y-91489819D01*
X166828750Y-91529600D01*
X166757910Y-91526507D01*
X166784475Y-91222867D01*
X166828750Y-91224800D01*
X166985731Y-91199937D01*
X167127345Y-91127780D01*
X167239731Y-91015395D01*
X167311887Y-90873780D01*
X167336750Y-90716800D01*
X167311887Y-90559819D01*
X167239731Y-90418205D01*
X167127345Y-90305819D01*
X166985731Y-90233663D01*
X166828750Y-90208800D01*
X166784475Y-90210733D01*
X166757910Y-89907093D01*
X166828750Y-89904000D01*
X167079919Y-89943781D01*
G36*
X167079919Y-89943781D02*
G01*
X167306502Y-90059231D01*
X167486319Y-90239048D01*
X167601769Y-90465631D01*
X167641550Y-90716800D01*
X167601769Y-90967969D01*
X167486319Y-91194552D01*
X167306502Y-91374369D01*
X167079919Y-91489819D01*
X166828750Y-91529600D01*
X166757910Y-91526507D01*
X166784475Y-91222867D01*
X166828750Y-91224800D01*
X166985731Y-91199937D01*
X167127345Y-91127780D01*
X167239731Y-91015395D01*
X167311887Y-90873780D01*
X167336750Y-90716800D01*
X167311887Y-90559819D01*
X167239731Y-90418205D01*
X167127345Y-90305819D01*
X166985731Y-90233663D01*
X166828750Y-90208800D01*
X166784475Y-90210733D01*
X166757910Y-89907093D01*
X166828750Y-89904000D01*
X167079919Y-89943781D01*
G37*
X166899590Y-89907093D02*
X166873025Y-90210733D01*
X166828750Y-90208800D01*
X166671769Y-90233663D01*
X166530155Y-90305819D01*
X166417769Y-90418205D01*
X166345613Y-90559819D01*
X166320750Y-90716800D01*
X166345613Y-90873780D01*
X166417769Y-91015395D01*
X166530155Y-91127780D01*
X166671769Y-91199937D01*
X166828750Y-91224800D01*
X166873025Y-91222867D01*
X166899590Y-91526507D01*
X166828750Y-91529600D01*
X166577581Y-91489819D01*
X166350998Y-91374369D01*
X166171181Y-91194552D01*
X166055731Y-90967969D01*
X166015950Y-90716800D01*
X166055731Y-90465631D01*
X166171181Y-90239048D01*
X166350998Y-90059231D01*
X166577581Y-89943781D01*
X166828750Y-89904000D01*
X166899590Y-89907093D01*
G36*
X166899590Y-89907093D02*
G01*
X166873025Y-90210733D01*
X166828750Y-90208800D01*
X166671769Y-90233663D01*
X166530155Y-90305819D01*
X166417769Y-90418205D01*
X166345613Y-90559819D01*
X166320750Y-90716800D01*
X166345613Y-90873780D01*
X166417769Y-91015395D01*
X166530155Y-91127780D01*
X166671769Y-91199937D01*
X166828750Y-91224800D01*
X166873025Y-91222867D01*
X166899590Y-91526507D01*
X166828750Y-91529600D01*
X166577581Y-91489819D01*
X166350998Y-91374369D01*
X166171181Y-91194552D01*
X166055731Y-90967969D01*
X166015950Y-90716800D01*
X166055731Y-90465631D01*
X166171181Y-90239048D01*
X166350998Y-90059231D01*
X166577581Y-89943781D01*
X166828750Y-89904000D01*
X166899590Y-89907093D01*
G37*
D11*
X169321250Y-85210000D03*
X169321250Y-83485000D03*
D12*
X135621250Y-81895000D03*
X135621250Y-83720000D03*
D13*
X167661250Y-83495000D03*
X167661250Y-85220000D03*
X169421250Y-88272500D03*
X169421250Y-89997500D03*
D14*
X161471250Y-71375000D03*
D15*
X164011250Y-71375000D03*
X166551250Y-71375000D03*
X169091250Y-71375000D03*
X171631250Y-71375000D03*
X174171250Y-71375000D03*
D16*
X167573750Y-94195000D03*
X165848750Y-94195000D03*
D17*
X137110000Y-72892500D03*
X137110000Y-74942500D03*
D16*
X162633750Y-86275000D03*
X160908750Y-86275000D03*
D18*
X176140615Y-76007104D03*
X172740615Y-76007104D03*
D19*
X140061250Y-81395000D03*
X140061250Y-82665000D03*
X140061250Y-83935000D03*
X140061250Y-85205000D03*
X140061250Y-86475000D03*
X140061250Y-87745000D03*
X140061250Y-89015000D03*
X140061250Y-90285000D03*
X140061250Y-91555000D03*
X140061250Y-92825000D03*
X140061250Y-94095000D03*
X140061250Y-95365000D03*
X140061250Y-96635000D03*
X140061250Y-97905000D03*
D20*
X141826250Y-99155000D03*
X143096250Y-99155000D03*
X144366250Y-99155000D03*
X145636250Y-99155000D03*
X146906250Y-99155000D03*
X148176250Y-99155000D03*
X149446250Y-99155000D03*
X150716250Y-99155000D03*
X151986250Y-99155000D03*
X153256250Y-99155000D03*
X154526250Y-99155000D03*
X155796250Y-99155000D03*
D19*
X157561250Y-97905000D03*
X157561250Y-96635000D03*
X157561250Y-95365000D03*
X157561250Y-94095000D03*
X157561250Y-92825000D03*
X157561250Y-91555000D03*
X157561250Y-90285000D03*
X157561250Y-89015000D03*
X157561250Y-87745000D03*
X157561250Y-86475000D03*
X157561250Y-85205000D03*
X157561250Y-83935000D03*
X157561250Y-82665000D03*
X157561250Y-81395000D03*
D21*
X147311250Y-89115000D03*
X145911250Y-87715000D03*
X145911250Y-89115000D03*
X145911250Y-90515000D03*
X147311250Y-90515000D03*
X148711250Y-90515000D03*
X148711250Y-89115000D03*
X148711250Y-87715000D03*
X147311250Y-87715000D03*
D22*
X136491250Y-95795000D03*
X132191250Y-95795000D03*
D11*
X164121250Y-90557500D03*
X164121250Y-88832500D03*
D23*
X178831250Y-72375000D03*
D24*
X160291250Y-94177500D03*
X160291250Y-92352500D03*
D25*
X175591250Y-90555000D03*
D26*
X175591250Y-87055000D03*
X175591250Y-83555000D03*
D18*
X176131250Y-79485000D03*
X172731250Y-79485000D03*
D17*
X134790000Y-72900000D03*
X134790000Y-74950000D03*
D12*
X133911250Y-81885000D03*
X133911250Y-83710000D03*
D24*
X164131250Y-94157500D03*
X164131250Y-92332500D03*
D11*
X161275000Y-76787500D03*
X161275000Y-75062500D03*
D27*
X166828750Y-90716800D03*
D28*
X165991250Y-88642800D03*
X165991250Y-89465000D03*
D29*
X166828750Y-91377200D03*
D28*
X167666250Y-89465000D03*
X167666250Y-88642800D03*
D30*
X131566250Y-84100000D03*
X131566250Y-84750000D03*
X131566250Y-85400000D03*
X131566250Y-86050000D03*
X131566250Y-86700000D03*
D31*
X131441250Y-82300000D03*
X131441250Y-88500000D03*
D32*
X128891250Y-81600000D03*
D33*
X128891250Y-84200000D03*
X128891250Y-86600000D03*
D32*
X128891250Y-89200000D03*
D23*
X128791250Y-97375000D03*
D12*
X162391250Y-92375000D03*
X162391250Y-94200000D03*
D34*
X166787500Y-75225000D03*
X168512500Y-75225000D03*
D35*
X136961250Y-88727500D03*
X136961250Y-90802500D03*
D23*
X128791250Y-72375000D03*
D36*
X169266250Y-78802500D03*
X168766250Y-78802500D03*
X168266250Y-78802500D03*
X167766250Y-78802500D03*
D37*
X167606250Y-79462500D03*
X167606250Y-79962500D03*
X167606250Y-80462500D03*
D38*
X167766250Y-81122500D03*
X168266250Y-81122500D03*
X168766250Y-81122500D03*
X169266250Y-81122500D03*
D39*
X169426250Y-80462500D03*
X169426250Y-79962500D03*
X169426250Y-79462500D03*
D13*
X166001250Y-83485000D03*
X166001250Y-85210000D03*
D12*
X137311250Y-81905000D03*
X137311250Y-83730000D03*
D40*
X178831250Y-97375000D03*
D17*
X132560000Y-72900000D03*
X132560000Y-74950000D03*
D41*
X165199000Y-76775001D03*
X165199000Y-76275000D03*
X165199000Y-75775000D03*
X165199000Y-75274999D03*
D42*
X164488699Y-75068700D03*
X163988700Y-75068700D03*
X163488701Y-75068700D03*
D41*
X162778400Y-75274999D03*
X162778400Y-75775000D03*
X162778400Y-76275000D03*
X162778400Y-76775001D03*
D42*
X163488701Y-76981300D03*
X163988700Y-76981300D03*
X164488699Y-76981300D03*
M02*
