G04 #@! TF.GenerationSoftware,KiCad,Pcbnew,7.0.1*
G04 #@! TF.CreationDate,2023-11-26T12:32:17+08:00*
G04 #@! TF.ProjectId,SourceFIle,536f7572-6365-4464-996c-652e6b696361,02*
G04 #@! TF.SameCoordinates,Original*
G04 #@! TF.FileFunction,Copper,L2,Inr*
G04 #@! TF.FilePolarity,Positive*
%FSLAX46Y46*%
G04 Gerber Fmt 4.6, Leading zero omitted, Abs format (unit mm)*
G04 Created by KiCad (PCBNEW 7.0.1) date 2023-11-26 12:32:17*
%MOMM*%
%LPD*%
G01*
G04 APERTURE LIST*
G04 #@! TA.AperFunction,ComponentPad*
%ADD10R,1.700000X1.700000*%
G04 #@! TD*
G04 #@! TA.AperFunction,ComponentPad*
%ADD11O,1.700000X1.700000*%
G04 #@! TD*
G04 #@! TA.AperFunction,ComponentPad*
%ADD12R,2.400000X2.400000*%
G04 #@! TD*
G04 #@! TA.AperFunction,ComponentPad*
%ADD13C,2.400000*%
G04 #@! TD*
G04 #@! TA.AperFunction,ViaPad*
%ADD14C,0.800000*%
G04 #@! TD*
G04 #@! TA.AperFunction,ViaPad*
%ADD15C,0.500000*%
G04 #@! TD*
G04 #@! TA.AperFunction,ViaPad*
%ADD16C,0.600000*%
G04 #@! TD*
G04 #@! TA.AperFunction,Conductor*
%ADD17C,0.500000*%
G04 #@! TD*
G04 #@! TA.AperFunction,Conductor*
%ADD18C,0.400000*%
G04 #@! TD*
G04 #@! TA.AperFunction,Conductor*
%ADD19C,0.300000*%
G04 #@! TD*
G04 #@! TA.AperFunction,Conductor*
%ADD20C,0.254000*%
G04 #@! TD*
G04 #@! TA.AperFunction,Conductor*
%ADD21C,0.200000*%
G04 #@! TD*
G04 #@! TA.AperFunction,Conductor*
%ADD22C,0.250000*%
G04 #@! TD*
G04 APERTURE END LIST*
D10*
X161471250Y-71375000D03*
D11*
X164011250Y-71375000D03*
X166551250Y-71375000D03*
X169091250Y-71375000D03*
X171631250Y-71375000D03*
X174171250Y-71375000D03*
D12*
X175591250Y-90555000D03*
D13*
X175591250Y-87055000D03*
X175591250Y-83555000D03*
D14*
X134591250Y-86855000D03*
X134581250Y-85995000D03*
X170516250Y-84350000D03*
X171475000Y-93150000D03*
X166201250Y-79425000D03*
X146581250Y-88365000D03*
X128681250Y-84465000D03*
X132540000Y-71342500D03*
X128681250Y-87005000D03*
X147951250Y-89795000D03*
X135801250Y-87265000D03*
D15*
X163750000Y-74225000D03*
D14*
X165541250Y-87145000D03*
D16*
X137275000Y-78015500D03*
D14*
X152971250Y-96145000D03*
D15*
X169375000Y-74525000D03*
D14*
X141661250Y-86755000D03*
X159111250Y-89075000D03*
X149271250Y-88365000D03*
X162531250Y-83705000D03*
X162541250Y-90705000D03*
X130700000Y-77425000D03*
X178171250Y-95555000D03*
X153500000Y-95025000D03*
X172491250Y-89955000D03*
X143291250Y-94475000D03*
X149231250Y-89805000D03*
X149611250Y-82070000D03*
X171348750Y-88755000D03*
X130381250Y-81265000D03*
X161275000Y-78225000D03*
X136050000Y-71392500D03*
X151841250Y-96115000D03*
X128521250Y-93980000D03*
X176571250Y-96925000D03*
X130201250Y-89475000D03*
X174071250Y-95115000D03*
X147991250Y-88395000D03*
X146621250Y-89825000D03*
X130361250Y-82465000D03*
X134151250Y-96995000D03*
D16*
X168266750Y-76300000D03*
D14*
X161121250Y-83455000D03*
X129861250Y-93855000D03*
X177181250Y-77005000D03*
D15*
X162175000Y-74350000D03*
D14*
X138481250Y-94565000D03*
X128894141Y-79480208D03*
X173741250Y-81535000D03*
X138471250Y-93615000D03*
X129861250Y-95375000D03*
X170281250Y-82395000D03*
D15*
X166775000Y-72975000D03*
D14*
X174101250Y-93105000D03*
X171461250Y-96165000D03*
D16*
X165416250Y-97275000D03*
D14*
X166611250Y-81205000D03*
D16*
X138701250Y-82655000D03*
D14*
X162850000Y-100165000D03*
X146411250Y-85495000D03*
X149591250Y-94285000D03*
X171666250Y-77075000D03*
X151951250Y-82755000D03*
X141581250Y-81635000D03*
X166611250Y-86745000D03*
X155851250Y-96195000D03*
X164791250Y-96225000D03*
X142536532Y-95665227D03*
X134301250Y-99130000D03*
X134032482Y-90966232D03*
X133290018Y-90223768D03*
X143586532Y-95665227D03*
X134301250Y-100180000D03*
D15*
X160575000Y-75925000D03*
X138800000Y-88700000D03*
D14*
X165247161Y-78305911D03*
X153271250Y-83085000D03*
X165061250Y-80555000D03*
X154591250Y-83105000D03*
X142281250Y-91605000D03*
X145651250Y-84545000D03*
X143441250Y-91905000D03*
D15*
X154800000Y-89200000D03*
X163050000Y-78400000D03*
D14*
X144551250Y-83995000D03*
D15*
X163875000Y-79000000D03*
X155675000Y-89250000D03*
X144975000Y-97350000D03*
D14*
X166751250Y-93111500D03*
X151150000Y-86925000D03*
X162631250Y-87855000D03*
D16*
X171257559Y-83330333D03*
X170336750Y-90525000D03*
D14*
X152251250Y-86950000D03*
D16*
X170300000Y-92275000D03*
D14*
X171291250Y-86045000D03*
X160681250Y-88305000D03*
X171061250Y-94895000D03*
D15*
X156350000Y-89275000D03*
X162700000Y-79450000D03*
X156200000Y-90325000D03*
X166275000Y-77500000D03*
X156325000Y-83475000D03*
X162525000Y-81125000D03*
D14*
X160481250Y-98525000D03*
X160671250Y-90485000D03*
X134441250Y-93365000D03*
X134601250Y-94505000D03*
X159151250Y-98315000D03*
X149801250Y-96115000D03*
D16*
X170516250Y-77750000D03*
X173766250Y-80100000D03*
X171100000Y-81675000D03*
D17*
X128894141Y-79480208D02*
X129388933Y-79975000D01*
X130741250Y-95595000D02*
X129861250Y-94715000D01*
X138481250Y-95925000D02*
X138151250Y-95595000D01*
X130921250Y-95595000D02*
X130741250Y-95595000D01*
X162850000Y-100165000D02*
X162816500Y-100131500D01*
X137241250Y-82655000D02*
X138701250Y-82655000D01*
D18*
X165416250Y-97275000D02*
X165666250Y-97025000D01*
D17*
X130921250Y-95595000D02*
X130081250Y-95595000D01*
X138471250Y-95255000D02*
X138481250Y-95265000D01*
X129388933Y-79975000D02*
X134561250Y-79975000D01*
D18*
X168541250Y-97025000D02*
X169401250Y-96165000D01*
D17*
X162816500Y-100131500D02*
X155417750Y-100131500D01*
X138471250Y-93615000D02*
X138471250Y-95255000D01*
D18*
X165666250Y-97025000D02*
X168541250Y-97025000D01*
D17*
X138481250Y-97915000D02*
X138481250Y-96635000D01*
X138481250Y-95265000D02*
X138151250Y-95595000D01*
X138481250Y-96635000D02*
X138481250Y-94565000D01*
X138481250Y-96635000D02*
X138481250Y-95925000D01*
X129861250Y-94445000D02*
X129861250Y-93855000D01*
X155417750Y-100131500D02*
X154061250Y-98775000D01*
X129861250Y-94445000D02*
X129861250Y-95375000D01*
X134561250Y-79975000D02*
X137241250Y-82655000D01*
X154061250Y-98775000D02*
X139341250Y-98775000D01*
X129861250Y-94715000D02*
X129861250Y-94445000D01*
X139341250Y-98775000D02*
X138481250Y-97915000D01*
D18*
X169401250Y-96165000D02*
X171461250Y-96165000D01*
D17*
X138151250Y-95595000D02*
X130921250Y-95595000D01*
D18*
X172921250Y-91215000D02*
X169531250Y-91215000D01*
X168651250Y-92095000D02*
X149991250Y-92095000D01*
X173551250Y-90585000D02*
X172921250Y-91215000D01*
X149991250Y-92095000D02*
X149591250Y-92495000D01*
X149591250Y-92495000D02*
X149591250Y-94285000D01*
X169531250Y-91215000D02*
X168651250Y-92095000D01*
X173551250Y-84345000D02*
X173551250Y-90585000D01*
X171666250Y-77075000D02*
X171941250Y-77350000D01*
X171941250Y-82735000D02*
X173551250Y-84345000D01*
X171941250Y-77350000D02*
X171941250Y-82735000D01*
D19*
X163941250Y-94200000D02*
X164791250Y-95050000D01*
X161256250Y-94985000D02*
X162041250Y-94200000D01*
X155391250Y-95735000D02*
X155391250Y-95345000D01*
X155851250Y-96195000D02*
X155391250Y-95735000D01*
X162041250Y-94200000D02*
X163941250Y-94200000D01*
X155751250Y-94985000D02*
X161256250Y-94985000D01*
X155391250Y-95345000D02*
X155751250Y-94985000D01*
X164791250Y-95050000D02*
X164791250Y-96225000D01*
D20*
X165247161Y-78827839D02*
X164000000Y-80075000D01*
X165247161Y-78305911D02*
X165247161Y-78827839D01*
X159397250Y-82039000D02*
X154317250Y-82039000D01*
X164000000Y-80075000D02*
X161361250Y-80075000D01*
X161361250Y-80075000D02*
X159397250Y-82039000D01*
X154317250Y-82039000D02*
X153271250Y-83085000D01*
X159631250Y-82635000D02*
X161711250Y-80555000D01*
X161711250Y-80555000D02*
X165061250Y-80555000D01*
X155061250Y-82635000D02*
X159631250Y-82635000D01*
X154591250Y-83105000D02*
X155061250Y-82635000D01*
D18*
X142821250Y-86045000D02*
X142821250Y-91065000D01*
X142821250Y-91065000D02*
X142281250Y-91605000D01*
X145101250Y-85095000D02*
X143771250Y-85095000D01*
X145651250Y-84545000D02*
X145101250Y-85095000D01*
X143771250Y-85095000D02*
X142821250Y-86045000D01*
D21*
X160075000Y-77100000D02*
X162400000Y-77100000D01*
X148525000Y-86425000D02*
X148525000Y-81575000D01*
X163050000Y-77750000D02*
X163050000Y-78400000D01*
X158975000Y-78200000D02*
X160075000Y-77100000D01*
X158975000Y-79875000D02*
X158975000Y-78200000D01*
X162400000Y-77100000D02*
X163050000Y-77750000D01*
X152025000Y-88450000D02*
X151414797Y-88450000D01*
X149400000Y-80700000D02*
X158150000Y-80700000D01*
X148525000Y-81575000D02*
X149400000Y-80700000D01*
X154475000Y-88450000D02*
X153225000Y-88450000D01*
X158150000Y-80700000D02*
X158975000Y-79875000D01*
X154800000Y-88775000D02*
X154475000Y-88450000D01*
X152925000Y-88750000D02*
X152925000Y-89024151D01*
X154800000Y-89200000D02*
X154800000Y-88775000D01*
X152325000Y-89024151D02*
X152325000Y-88750000D01*
X151414797Y-88450000D02*
X150550000Y-88450000D01*
X150550000Y-88450000D02*
X148525000Y-86425000D01*
X153225000Y-88450000D02*
G75*
G03*
X152925000Y-88750000I0J-300000D01*
G01*
X152325049Y-89024151D02*
G75*
G03*
X152625000Y-89324151I299951J-49D01*
G01*
X152325000Y-88750000D02*
G75*
G03*
X152025000Y-88450000I-300000J0D01*
G01*
X152625000Y-89324200D02*
G75*
G03*
X152925000Y-89024151I0J300000D01*
G01*
X159350000Y-78550000D02*
X159350000Y-80025000D01*
X154900000Y-88125000D02*
X155675000Y-88900000D01*
X148850000Y-81725000D02*
X148850000Y-86290380D01*
X158350000Y-81025000D02*
X149550000Y-81025000D01*
X149550000Y-81025000D02*
X148850000Y-81725000D01*
X162225000Y-77475000D02*
X160425000Y-77475000D01*
X159350000Y-80025000D02*
X158350000Y-81025000D01*
X160425000Y-77475000D02*
X159350000Y-78550000D01*
X150684620Y-88125000D02*
X154900000Y-88125000D01*
X162550000Y-78607107D02*
X162550000Y-77800000D01*
X163875000Y-79000000D02*
X162942893Y-79000000D01*
X155675000Y-88900000D02*
X155675000Y-89250000D01*
X162942893Y-79000000D02*
X162550000Y-78607107D01*
X162550000Y-77800000D02*
X162225000Y-77475000D01*
X148850000Y-86290380D02*
X150684620Y-88125000D01*
D19*
X163561250Y-87855000D02*
X164821250Y-89115000D01*
X172466250Y-86050000D02*
X172466250Y-84539024D01*
X162631250Y-87855000D02*
X163561250Y-87855000D01*
X172461250Y-86535000D02*
X172461250Y-86055000D01*
X171671250Y-87325000D02*
X172461250Y-86535000D01*
X172461250Y-86055000D02*
X172466250Y-86050000D01*
X172466250Y-84539024D02*
X171257559Y-83330333D01*
X164821250Y-89115000D02*
X168651250Y-89115000D01*
X170441250Y-87325000D02*
X171671250Y-87325000D01*
X168651250Y-89115000D02*
X170441250Y-87325000D01*
D22*
X170300000Y-94133750D02*
X171061250Y-94895000D01*
D19*
X163481250Y-86895000D02*
X164951250Y-88365000D01*
D22*
X170300000Y-92275000D02*
X170300000Y-94133750D01*
D19*
X160681250Y-88305000D02*
X162091250Y-86895000D01*
X170611250Y-86045000D02*
X171291250Y-86045000D01*
X164951250Y-88365000D02*
X168291250Y-88365000D01*
X162091250Y-86895000D02*
X163481250Y-86895000D01*
X168291250Y-88365000D02*
X170611250Y-86045000D01*
D21*
X155842782Y-88167782D02*
X155842784Y-88167784D01*
X150525000Y-84700000D02*
X150525000Y-82000000D01*
X155058194Y-87573506D02*
X155058194Y-87573505D01*
X155958179Y-87133145D02*
X155383161Y-87708162D01*
X160475000Y-79450000D02*
X162700000Y-79450000D01*
X155383161Y-87708162D02*
X155288005Y-87803316D01*
X156187990Y-87133146D02*
X156187989Y-87133145D01*
X155957687Y-88052877D02*
X155842782Y-88167782D01*
X155517843Y-88033100D02*
X155517842Y-88033101D01*
X154808635Y-87133635D02*
X154808636Y-87133636D01*
X155612973Y-87937973D02*
X156187990Y-87362955D01*
X155842784Y-88167784D02*
X155747653Y-88262912D01*
X158550000Y-81375000D02*
X160475000Y-79450000D01*
X152900000Y-85950000D02*
X151775000Y-85950000D01*
X156350000Y-88675000D02*
X156187500Y-88512500D01*
X151150000Y-81375000D02*
X158550000Y-81375000D01*
X155498634Y-86673447D02*
X155038445Y-87133635D01*
X155097695Y-87803316D02*
X155097695Y-87803317D01*
X150525000Y-82000000D02*
X151150000Y-81375000D01*
X156647635Y-87592746D02*
X156647634Y-87592745D01*
X156417822Y-87592743D02*
X155957687Y-88052877D01*
X156187500Y-88282690D02*
X156647634Y-87822555D01*
X154808636Y-87133636D02*
X154125000Y-86450000D01*
X155557395Y-88262912D02*
X155517842Y-88223359D01*
X156187499Y-88282691D02*
X156187500Y-88282690D01*
X156187989Y-87133146D02*
X156187990Y-87133146D01*
X155498635Y-86673446D02*
X155498634Y-86673447D01*
X156350000Y-89275000D02*
X156350000Y-88675000D01*
X154125000Y-86450000D02*
X153400000Y-86450000D01*
X151775000Y-85950000D02*
X150525000Y-84700000D01*
X155517842Y-88033101D02*
X155612973Y-87937973D01*
X156647634Y-87592745D02*
X156647632Y-87592743D01*
X155058194Y-87573505D02*
X155728444Y-86903257D01*
X153400000Y-86450000D02*
X152900000Y-85950000D01*
X155097695Y-87803317D02*
X155058195Y-87763817D01*
X155728491Y-86903304D02*
G75*
G03*
X155728443Y-86673448I-114991J114904D01*
G01*
X156188039Y-87363004D02*
G75*
G03*
X156187989Y-87133146I-114939J114904D01*
G01*
X155557396Y-88262911D02*
G75*
G03*
X155747652Y-88262911I95128J95124D01*
G01*
X154808636Y-87133634D02*
G75*
G03*
X155038444Y-87133634I114904J114905D01*
G01*
X155058234Y-87573546D02*
G75*
G03*
X155058196Y-87763816I95166J-95154D01*
G01*
X155517813Y-88033070D02*
G75*
G03*
X155517842Y-88223359I95187J-95130D01*
G01*
X156647631Y-87592744D02*
G75*
G03*
X156417823Y-87592744I-114904J-114905D01*
G01*
X155728404Y-86673487D02*
G75*
G03*
X155498636Y-86673447I-114904J-114813D01*
G01*
X156647684Y-87822605D02*
G75*
G03*
X156647635Y-87592746I-114984J114905D01*
G01*
X156187504Y-88282696D02*
G75*
G03*
X156187500Y-88512500I114896J-114904D01*
G01*
X156187988Y-87133146D02*
G75*
G03*
X155958180Y-87133146I-114904J-114905D01*
G01*
X155097695Y-87803316D02*
G75*
G03*
X155288005Y-87803316I95155J95153D01*
G01*
X158462702Y-84712301D02*
X158146389Y-84395988D01*
X159047973Y-83193921D02*
X159047972Y-83193921D01*
X159063744Y-84111258D02*
X158747428Y-83794942D01*
X156777662Y-87187500D02*
X157287500Y-87187500D01*
X159680567Y-84127040D02*
X159680567Y-84127039D01*
X157845869Y-84395988D02*
X157845866Y-84395990D01*
X167725000Y-79550000D02*
X167725000Y-81675000D01*
X157244843Y-84997050D02*
X157244842Y-84997052D01*
X157075000Y-87825000D02*
X157075000Y-89450000D01*
X158446907Y-83794942D02*
X158446906Y-83794944D01*
X157410875Y-85764125D02*
X157075000Y-86100000D01*
X157287500Y-87187500D02*
X157522322Y-87187500D01*
X167725000Y-81675000D02*
X167125000Y-82275000D01*
X157244844Y-84997050D02*
X157244843Y-84997050D01*
X157845866Y-84696510D02*
X158478481Y-85329126D01*
X157522322Y-87612500D02*
X157287500Y-87612500D01*
X167125000Y-82275000D02*
X160900000Y-82275000D01*
X166275000Y-78100000D02*
X167725000Y-79550000D01*
X166275000Y-77500000D02*
X166275000Y-78100000D01*
X157244842Y-85297572D02*
X157410875Y-85463605D01*
X160115566Y-83359952D02*
X160281622Y-83526008D01*
X158177961Y-85629647D02*
X157711398Y-85163084D01*
X160281622Y-83826529D02*
X160281621Y-83826529D01*
X158446908Y-83794942D02*
X158446907Y-83794942D01*
X158478481Y-85329126D02*
X158478481Y-85329125D01*
X159079503Y-84728062D02*
X159079503Y-84728061D01*
X159047972Y-83193921D02*
X159047970Y-83193922D01*
X160281622Y-83526008D02*
X160281622Y-83526007D01*
X158778983Y-85028583D02*
X158462702Y-84712301D01*
X156862500Y-86762500D02*
X156777662Y-86762500D01*
X158446906Y-84095464D02*
X159079503Y-84728062D01*
X159981101Y-83826529D02*
X159664787Y-83510215D01*
X159380047Y-84427561D02*
X159063744Y-84111258D01*
X160900000Y-82275000D02*
X160115566Y-83059432D01*
X159047971Y-83494443D02*
X159680567Y-84127040D01*
X159664787Y-83510215D02*
X159348493Y-83193921D01*
X157075000Y-86100000D02*
X157075000Y-86550000D01*
X157711398Y-85163084D02*
X157545364Y-84997050D01*
X157075000Y-89450000D02*
X156200000Y-90325000D01*
X157410910Y-85764160D02*
G75*
G03*
X157410875Y-85463605I-150310J150260D01*
G01*
X159380047Y-84427561D02*
G75*
G03*
X159680567Y-84427561I150260J150259D01*
G01*
X160281654Y-83826561D02*
G75*
G03*
X160281622Y-83526007I-150254J150261D01*
G01*
X156862500Y-86762500D02*
G75*
G03*
X157075000Y-86550000I0J212500D01*
G01*
X158446902Y-83794940D02*
G75*
G03*
X158446906Y-84095464I150298J-150260D01*
G01*
X157545364Y-84997050D02*
G75*
G03*
X157244844Y-84997050I-150260J-150259D01*
G01*
X158778983Y-85028583D02*
G75*
G03*
X159079503Y-85028583I150260J150259D01*
G01*
X159047989Y-83193941D02*
G75*
G03*
X159047972Y-83494442I150211J-150259D01*
G01*
X158146389Y-84395988D02*
G75*
G03*
X157845869Y-84395988I-150260J-150259D01*
G01*
X157845917Y-84396041D02*
G75*
G03*
X157845867Y-84696509I150183J-150259D01*
G01*
X156777662Y-86762462D02*
G75*
G03*
X156565162Y-86975000I38J-212538D01*
G01*
X157522322Y-87612522D02*
G75*
G03*
X157734822Y-87400000I-22J212522D01*
G01*
X157734800Y-87400000D02*
G75*
G03*
X157522322Y-87187500I-212500J0D01*
G01*
X159981101Y-83826529D02*
G75*
G03*
X160281621Y-83826529I150260J150259D01*
G01*
X159348493Y-83193921D02*
G75*
G03*
X159047973Y-83193921I-150260J-150259D01*
G01*
X158478495Y-85629661D02*
G75*
G03*
X158478481Y-85329125I-150295J150261D01*
G01*
X156565200Y-86975000D02*
G75*
G03*
X156777662Y-87187500I212500J0D01*
G01*
X157244831Y-84997041D02*
G75*
G03*
X157244843Y-85297571I150269J-150259D01*
G01*
X158747428Y-83794942D02*
G75*
G03*
X158446908Y-83794942I-150260J-150259D01*
G01*
X158177961Y-85629647D02*
G75*
G03*
X158478481Y-85629647I150260J150259D01*
G01*
X157287500Y-87612500D02*
G75*
G03*
X157075000Y-87825000I0J-212500D01*
G01*
X160115574Y-83059440D02*
G75*
G03*
X160115566Y-83359952I150226J-150260D01*
G01*
X159079481Y-85028561D02*
G75*
G03*
X159079503Y-84728061I-150281J150261D01*
G01*
X159680567Y-84427561D02*
G75*
G03*
X159680567Y-84127039I-150267J150261D01*
G01*
D19*
X153051250Y-97505000D02*
X153831250Y-96725000D01*
X157026250Y-98780000D02*
X158686250Y-98780000D01*
X150081250Y-96395000D02*
X150081250Y-97055000D01*
X150531250Y-97505000D02*
X153051250Y-97505000D01*
X150081250Y-97055000D02*
X150531250Y-97505000D01*
X154971250Y-96725000D02*
X157026250Y-98780000D01*
X153831250Y-96725000D02*
X154971250Y-96725000D01*
X158686250Y-98780000D02*
X159151250Y-98315000D01*
X149801250Y-96115000D02*
X150081250Y-96395000D01*
G04 #@! TA.AperFunction,Conductor*
G36*
X177810963Y-69618492D02*
G01*
X178076931Y-69634583D01*
X178091765Y-69636385D01*
X178350170Y-69683742D01*
X178364688Y-69687321D01*
X178615486Y-69765475D01*
X178629480Y-69770783D01*
X178869014Y-69878590D01*
X178882271Y-69885547D01*
X179107076Y-70021448D01*
X179119387Y-70029946D01*
X179294903Y-70167454D01*
X179326172Y-70191952D01*
X179337380Y-70201882D01*
X179523117Y-70387619D01*
X179533047Y-70398827D01*
X179594391Y-70477127D01*
X179695049Y-70605606D01*
X179703555Y-70617929D01*
X179839451Y-70842727D01*
X179846409Y-70855985D01*
X179954216Y-71095519D01*
X179959526Y-71109519D01*
X180015331Y-71288597D01*
X180018002Y-71297170D01*
X180037675Y-71360299D01*
X180041259Y-71374838D01*
X180074011Y-71553550D01*
X180068580Y-71618268D01*
X180031182Y-71671364D01*
X179972074Y-71698274D01*
X179907471Y-71691616D01*
X179855096Y-71653216D01*
X179738758Y-71507334D01*
X179569246Y-71359235D01*
X179569243Y-71359233D01*
X179376012Y-71243783D01*
X179165275Y-71164693D01*
X178943797Y-71124500D01*
X178775095Y-71124500D01*
X178707881Y-71130549D01*
X178607059Y-71139623D01*
X178390078Y-71199507D01*
X178187277Y-71297170D01*
X178005175Y-71429475D01*
X177849615Y-71592178D01*
X177725615Y-71780031D01*
X177637146Y-71987012D01*
X177587059Y-72206462D01*
X177576959Y-72431328D01*
X177607175Y-72654388D01*
X177656743Y-72806943D01*
X177676733Y-72868464D01*
X177783398Y-73066681D01*
X177923742Y-73242666D01*
X178093254Y-73390765D01*
X178093256Y-73390766D01*
X178286487Y-73506216D01*
X178404464Y-73550493D01*
X178497226Y-73585307D01*
X178718703Y-73625500D01*
X178887403Y-73625500D01*
X178887405Y-73625500D01*
X179055438Y-73610377D01*
X179272420Y-73550493D01*
X179475223Y-73452829D01*
X179657328Y-73320522D01*
X179812882Y-73157825D01*
X179879023Y-73057624D01*
X179925722Y-73015704D01*
X179986969Y-73002017D01*
X180047073Y-73020072D01*
X180090639Y-73065243D01*
X180106509Y-73125960D01*
X180102170Y-96529453D01*
X180086614Y-96589563D01*
X180043868Y-96634595D01*
X179984650Y-96653261D01*
X179923807Y-96640878D01*
X179876595Y-96600553D01*
X179831296Y-96535859D01*
X179670390Y-96374953D01*
X179483985Y-96244432D01*
X179277747Y-96148261D01*
X179057939Y-96089364D01*
X178888036Y-96074500D01*
X178888034Y-96074500D01*
X178774466Y-96074500D01*
X178774464Y-96074500D01*
X178604560Y-96089364D01*
X178384752Y-96148261D01*
X178178514Y-96244432D01*
X177992109Y-96374953D01*
X177831203Y-96535859D01*
X177700682Y-96722264D01*
X177604511Y-96928502D01*
X177545614Y-97148310D01*
X177525781Y-97375000D01*
X177545614Y-97601689D01*
X177604511Y-97821497D01*
X177700682Y-98027735D01*
X177831203Y-98214140D01*
X177992109Y-98375046D01*
X178178514Y-98505567D01*
X178178515Y-98505567D01*
X178178516Y-98505568D01*
X178384754Y-98601739D01*
X178604558Y-98660635D01*
X178689511Y-98668067D01*
X178774464Y-98675500D01*
X178774466Y-98675500D01*
X178888034Y-98675500D01*
X178888036Y-98675500D01*
X178955997Y-98669554D01*
X179057942Y-98660635D01*
X179277746Y-98601739D01*
X179483984Y-98505568D01*
X179670389Y-98375047D01*
X179831297Y-98214139D01*
X179876282Y-98149893D01*
X179923502Y-98109564D01*
X179984355Y-98097186D01*
X180043578Y-98115865D01*
X180086319Y-98160915D01*
X180101857Y-98221039D01*
X180101744Y-98829859D01*
X180101734Y-98829910D01*
X180101733Y-98888479D01*
X180101507Y-98895963D01*
X180085417Y-99161916D01*
X180083612Y-99176781D01*
X180036259Y-99435161D01*
X180032675Y-99449700D01*
X179954526Y-99700480D01*
X179949216Y-99714480D01*
X179841409Y-99954014D01*
X179834451Y-99967272D01*
X179698555Y-100192070D01*
X179690049Y-100204393D01*
X179528047Y-100411172D01*
X179518117Y-100422380D01*
X179332380Y-100608117D01*
X179321172Y-100618047D01*
X179114393Y-100780049D01*
X179102070Y-100788555D01*
X178877272Y-100924451D01*
X178864014Y-100931409D01*
X178624480Y-101039216D01*
X178610480Y-101044526D01*
X178359700Y-101122675D01*
X178345161Y-101126259D01*
X178086781Y-101173612D01*
X178071916Y-101175417D01*
X177805966Y-101191507D01*
X177798478Y-101191733D01*
X163341257Y-101191733D01*
X163277022Y-101173798D01*
X163231368Y-101125182D01*
X163217502Y-101059947D01*
X163239435Y-100996964D01*
X163290822Y-100954453D01*
X163302732Y-100949150D01*
X163455870Y-100837889D01*
X163582533Y-100697216D01*
X163677179Y-100533284D01*
X163714938Y-100417074D01*
X163735674Y-100353256D01*
X163755460Y-100165000D01*
X163735674Y-99976744D01*
X163705332Y-99883363D01*
X163677179Y-99796715D01*
X163582533Y-99632783D01*
X163455870Y-99492110D01*
X163302730Y-99380848D01*
X163129802Y-99303855D01*
X162944648Y-99264500D01*
X162944646Y-99264500D01*
X162755354Y-99264500D01*
X162755352Y-99264500D01*
X162570197Y-99303855D01*
X162421010Y-99370279D01*
X162370574Y-99381000D01*
X161200755Y-99381000D01*
X161145620Y-99368068D01*
X161101985Y-99331970D01*
X161078951Y-99280235D01*
X161081323Y-99223654D01*
X161108605Y-99174028D01*
X161213783Y-99057216D01*
X161308429Y-98893284D01*
X161321735Y-98852332D01*
X161366924Y-98713256D01*
X161386710Y-98525000D01*
X161366924Y-98336744D01*
X161327087Y-98214139D01*
X161308429Y-98156715D01*
X161213783Y-97992783D01*
X161087120Y-97852110D01*
X160933980Y-97740848D01*
X160761052Y-97663855D01*
X160575898Y-97624500D01*
X160575896Y-97624500D01*
X160386604Y-97624500D01*
X160386602Y-97624500D01*
X160201447Y-97663855D01*
X160028521Y-97740847D01*
X160008520Y-97755379D01*
X159952893Y-97777853D01*
X159893226Y-97771581D01*
X159843487Y-97738031D01*
X159757120Y-97642110D01*
X159603980Y-97530848D01*
X159431052Y-97453855D01*
X159245898Y-97414500D01*
X159245896Y-97414500D01*
X159056604Y-97414500D01*
X159056602Y-97414500D01*
X158871447Y-97453855D01*
X158698519Y-97530848D01*
X158545379Y-97642110D01*
X158418716Y-97782783D01*
X158324070Y-97946715D01*
X158292520Y-98043818D01*
X158266739Y-98088472D01*
X158225024Y-98118780D01*
X158174589Y-98129500D01*
X157347058Y-98129500D01*
X157299605Y-98120061D01*
X157259377Y-98093181D01*
X156314762Y-97148566D01*
X156286107Y-97103803D01*
X156278825Y-97051156D01*
X156294254Y-97000295D01*
X156329554Y-96960570D01*
X156457121Y-96867888D01*
X156583783Y-96727216D01*
X156678429Y-96563284D01*
X156736924Y-96383256D01*
X156756710Y-96195000D01*
X156736924Y-96006744D01*
X156688177Y-95856716D01*
X156678429Y-95826715D01*
X156675418Y-95821500D01*
X156658805Y-95759500D01*
X156675418Y-95697500D01*
X156720805Y-95652113D01*
X156782805Y-95635500D01*
X161170745Y-95635500D01*
X161191954Y-95637841D01*
X161194544Y-95637759D01*
X161194546Y-95637760D01*
X161264512Y-95635560D01*
X161268407Y-95635500D01*
X161297170Y-95635500D01*
X161297175Y-95635500D01*
X161301552Y-95634946D01*
X161313191Y-95634030D01*
X161358819Y-95632597D01*
X161379199Y-95626675D01*
X161398239Y-95622732D01*
X161419308Y-95620071D01*
X161461770Y-95603258D01*
X161472807Y-95599480D01*
X161516648Y-95586744D01*
X161534920Y-95575936D01*
X161552386Y-95567380D01*
X161572121Y-95559568D01*
X161609066Y-95532725D01*
X161618798Y-95526332D01*
X161658115Y-95503081D01*
X161673124Y-95488071D01*
X161687913Y-95475439D01*
X161705087Y-95462963D01*
X161734196Y-95427774D01*
X161742040Y-95419154D01*
X162274376Y-94886819D01*
X162314605Y-94859939D01*
X162362058Y-94850500D01*
X163620442Y-94850500D01*
X163667895Y-94859939D01*
X163708123Y-94886819D01*
X164104431Y-95283127D01*
X164131311Y-95323355D01*
X164140750Y-95370808D01*
X164140750Y-95554078D01*
X164132514Y-95598516D01*
X164108901Y-95637048D01*
X164088090Y-95660161D01*
X164058714Y-95692786D01*
X163964070Y-95856715D01*
X163905576Y-96036742D01*
X163885790Y-96225000D01*
X163905576Y-96413257D01*
X163964070Y-96593284D01*
X164058716Y-96757216D01*
X164185379Y-96897889D01*
X164338519Y-97009151D01*
X164511444Y-97086143D01*
X164511445Y-97086143D01*
X164511447Y-97086144D01*
X164519107Y-97087772D01*
X164573270Y-97114271D01*
X164608530Y-97163184D01*
X164616549Y-97222946D01*
X164610684Y-97274999D01*
X164630881Y-97454251D01*
X164630881Y-97454253D01*
X164630882Y-97454255D01*
X164690461Y-97624522D01*
X164711110Y-97657385D01*
X164786435Y-97777264D01*
X164913985Y-97904814D01*
X164913987Y-97904815D01*
X164913988Y-97904816D01*
X165066728Y-98000789D01*
X165236995Y-98060368D01*
X165416250Y-98080565D01*
X165595505Y-98060368D01*
X165765772Y-98000789D01*
X165918512Y-97904816D01*
X165972034Y-97851294D01*
X166055946Y-97767383D01*
X166057530Y-97768967D01*
X166087141Y-97740973D01*
X166147123Y-97725500D01*
X168516329Y-97725500D01*
X168523816Y-97725726D01*
X168526956Y-97725915D01*
X168583856Y-97729358D01*
X168643032Y-97718513D01*
X168650431Y-97717387D01*
X168710122Y-97710140D01*
X168719585Y-97706550D01*
X168741208Y-97700522D01*
X168751182Y-97698695D01*
X168806058Y-97673996D01*
X168812923Y-97671152D01*
X168869180Y-97649818D01*
X168877520Y-97644060D01*
X168897069Y-97633035D01*
X168906307Y-97628878D01*
X168953663Y-97591775D01*
X168959670Y-97587355D01*
X169009179Y-97553183D01*
X169049073Y-97508150D01*
X169054174Y-97502731D01*
X169655087Y-96901819D01*
X169695316Y-96874939D01*
X169742769Y-96865500D01*
X170853094Y-96865500D01*
X170891412Y-96871569D01*
X170925978Y-96889181D01*
X171008520Y-96949151D01*
X171008521Y-96949151D01*
X171008522Y-96949152D01*
X171181447Y-97026144D01*
X171366602Y-97065500D01*
X171366604Y-97065500D01*
X171555896Y-97065500D01*
X171555898Y-97065500D01*
X171679333Y-97039262D01*
X171741053Y-97026144D01*
X171913980Y-96949151D01*
X171942401Y-96928502D01*
X172067120Y-96837889D01*
X172193783Y-96697216D01*
X172288429Y-96533284D01*
X172312470Y-96459294D01*
X172346924Y-96353256D01*
X172366710Y-96165000D01*
X172346924Y-95976744D01*
X172298177Y-95826716D01*
X172288429Y-95796715D01*
X172193783Y-95632783D01*
X172067120Y-95492110D01*
X171935290Y-95396331D01*
X171900788Y-95358013D01*
X171884854Y-95308974D01*
X171890243Y-95257699D01*
X171946924Y-95083256D01*
X171966710Y-94895000D01*
X171946924Y-94706744D01*
X171900868Y-94564999D01*
X171888429Y-94526715D01*
X171793783Y-94362783D01*
X171667120Y-94222110D01*
X171513980Y-94110848D01*
X171341052Y-94033855D01*
X171155898Y-93994500D01*
X171155896Y-93994500D01*
X171096703Y-93994500D01*
X171049250Y-93985061D01*
X171009022Y-93958181D01*
X170961819Y-93910978D01*
X170934939Y-93870750D01*
X170925500Y-93823297D01*
X170925500Y-92819855D01*
X170944506Y-92753883D01*
X170944524Y-92753855D01*
X171025789Y-92624522D01*
X171085368Y-92454255D01*
X171105565Y-92275000D01*
X171085368Y-92095745D01*
X171084497Y-92093257D01*
X171080018Y-92080455D01*
X171074276Y-92022166D01*
X171095929Y-91967745D01*
X171140145Y-91929333D01*
X171197059Y-91915500D01*
X172896329Y-91915500D01*
X172903816Y-91915726D01*
X172906956Y-91915915D01*
X172963856Y-91919358D01*
X173023032Y-91908513D01*
X173030431Y-91907387D01*
X173090122Y-91900140D01*
X173099585Y-91896550D01*
X173121208Y-91890522D01*
X173131182Y-91888695D01*
X173186058Y-91863996D01*
X173192923Y-91861152D01*
X173249180Y-91839818D01*
X173257520Y-91834060D01*
X173277069Y-91823035D01*
X173286307Y-91818878D01*
X173333663Y-91781775D01*
X173339670Y-91777355D01*
X173389179Y-91743183D01*
X173429073Y-91698150D01*
X173434175Y-91692730D01*
X173679072Y-91447832D01*
X173728432Y-91417585D01*
X173786148Y-91413043D01*
X173839635Y-91435198D01*
X173877235Y-91479221D01*
X173890750Y-91535516D01*
X173890750Y-91802869D01*
X173897159Y-91862484D01*
X173947454Y-91997332D01*
X173973132Y-92031633D01*
X173996624Y-92088442D01*
X173989943Y-92149553D01*
X173954733Y-92199945D01*
X173899647Y-92227233D01*
X173821446Y-92243855D01*
X173648519Y-92320848D01*
X173495379Y-92432110D01*
X173368716Y-92572783D01*
X173274070Y-92736715D01*
X173215576Y-92916742D01*
X173195790Y-93104999D01*
X173215576Y-93293257D01*
X173274070Y-93473284D01*
X173368716Y-93637216D01*
X173495379Y-93777889D01*
X173648519Y-93889151D01*
X173821447Y-93966144D01*
X174006602Y-94005500D01*
X174006604Y-94005500D01*
X174195896Y-94005500D01*
X174195898Y-94005500D01*
X174319334Y-93979262D01*
X174381053Y-93966144D01*
X174553980Y-93889151D01*
X174644621Y-93823297D01*
X174707120Y-93777889D01*
X174833783Y-93637216D01*
X174928429Y-93473284D01*
X174943551Y-93426744D01*
X174986924Y-93293256D01*
X175006710Y-93105000D01*
X174986924Y-92916744D01*
X174948783Y-92799358D01*
X174928429Y-92736715D01*
X174833783Y-92572783D01*
X174734457Y-92462471D01*
X174707175Y-92412845D01*
X174704803Y-92356264D01*
X174727837Y-92304529D01*
X174771472Y-92268431D01*
X174826607Y-92255499D01*
X176839120Y-92255499D01*
X176839122Y-92255499D01*
X176898733Y-92249091D01*
X177033581Y-92198796D01*
X177148796Y-92112546D01*
X177235046Y-91997331D01*
X177285341Y-91862483D01*
X177291750Y-91802873D01*
X177291749Y-89307128D01*
X177285341Y-89247517D01*
X177235046Y-89112669D01*
X177148796Y-88997454D01*
X177033581Y-88911204D01*
X176898733Y-88860909D01*
X176839123Y-88854500D01*
X176839119Y-88854500D01*
X176317079Y-88854500D01*
X176253479Y-88836948D01*
X176207885Y-88789260D01*
X176193204Y-88724937D01*
X176213592Y-88662189D01*
X176263277Y-88618780D01*
X176443884Y-88531805D01*
X176654467Y-88388232D01*
X176841300Y-88214877D01*
X177000209Y-88015612D01*
X177127643Y-87794888D01*
X177220758Y-87557637D01*
X177277472Y-87309157D01*
X177296518Y-87055000D01*
X177277472Y-86800843D01*
X177220758Y-86552363D01*
X177127643Y-86315112D01*
X177124130Y-86309028D01*
X177051517Y-86183257D01*
X177000209Y-86094388D01*
X176841300Y-85895123D01*
X176654467Y-85721768D01*
X176443884Y-85578195D01*
X176214254Y-85467611D01*
X176164546Y-85452278D01*
X176070373Y-85423229D01*
X176017296Y-85390429D01*
X175986911Y-85335934D01*
X175986912Y-85273541D01*
X176017297Y-85219046D01*
X176070374Y-85186247D01*
X176214072Y-85141922D01*
X176443633Y-85031372D01*
X176604435Y-84921737D01*
X175325378Y-83642680D01*
X175293284Y-83587092D01*
X175293284Y-83555001D01*
X175944803Y-83555001D01*
X176957795Y-84567993D01*
X176957796Y-84567992D01*
X176999795Y-84515328D01*
X177127192Y-84294669D01*
X177220278Y-84057491D01*
X177276976Y-83809080D01*
X177296017Y-83555000D01*
X177276976Y-83300919D01*
X177220278Y-83052508D01*
X177127192Y-82815330D01*
X176999795Y-82594671D01*
X176957796Y-82542005D01*
X175944803Y-83555000D01*
X175944803Y-83555001D01*
X175293284Y-83555001D01*
X175293284Y-83522905D01*
X175325378Y-83467318D01*
X175591250Y-83201447D01*
X176604435Y-82188261D01*
X176443629Y-82078625D01*
X176214073Y-81968078D01*
X175970595Y-81892974D01*
X175718647Y-81855000D01*
X175463853Y-81855000D01*
X175211904Y-81892974D01*
X174968429Y-81968077D01*
X174730495Y-82082660D01*
X174729891Y-82081406D01*
X174677275Y-82099375D01*
X174612740Y-82085656D01*
X174564377Y-82040780D01*
X174545876Y-81977450D01*
X174562475Y-81913596D01*
X174568429Y-81903284D01*
X174626924Y-81723256D01*
X174646710Y-81535000D01*
X174626924Y-81346744D01*
X174591152Y-81236649D01*
X174568429Y-81166715D01*
X174473783Y-81002783D01*
X174347121Y-80862112D01*
X174342425Y-80858700D01*
X174307120Y-80818971D01*
X174291691Y-80768110D01*
X174298973Y-80715462D01*
X174327626Y-80670701D01*
X174396066Y-80602262D01*
X174492039Y-80449522D01*
X174551618Y-80279255D01*
X174571815Y-80100000D01*
X174551618Y-79920745D01*
X174492039Y-79750478D01*
X174396066Y-79597738D01*
X174396065Y-79597737D01*
X174396064Y-79597735D01*
X174268514Y-79470185D01*
X174143908Y-79391890D01*
X174115772Y-79374211D01*
X173945505Y-79314632D01*
X173945503Y-79314631D01*
X173945501Y-79314631D01*
X173766250Y-79294434D01*
X173586998Y-79314631D01*
X173586995Y-79314631D01*
X173586995Y-79314632D01*
X173416728Y-79374211D01*
X173416726Y-79374211D01*
X173416726Y-79374212D01*
X173263985Y-79470185D01*
X173136435Y-79597735D01*
X173044013Y-79744825D01*
X173040461Y-79750478D01*
X172998165Y-79871354D01*
X172980881Y-79920748D01*
X172960684Y-80099999D01*
X172980881Y-80279251D01*
X172980881Y-80279253D01*
X172980882Y-80279255D01*
X173040461Y-80449522D01*
X173068113Y-80493530D01*
X173136434Y-80602263D01*
X173183830Y-80649658D01*
X173212485Y-80694420D01*
X173219768Y-80747068D01*
X173204340Y-80797928D01*
X173169037Y-80837657D01*
X173135379Y-80862111D01*
X173008716Y-81002783D01*
X172914070Y-81166715D01*
X172883681Y-81260246D01*
X172844791Y-81317472D01*
X172781291Y-81344950D01*
X172712953Y-81334127D01*
X172661053Y-81288371D01*
X172641750Y-81221928D01*
X172641750Y-77374921D01*
X172641976Y-77367434D01*
X172642177Y-77364102D01*
X172645608Y-77307394D01*
X172634757Y-77248185D01*
X172633640Y-77240841D01*
X172626390Y-77181128D01*
X172622797Y-77171656D01*
X172616772Y-77150044D01*
X172614945Y-77140069D01*
X172590258Y-77085218D01*
X172587403Y-77078328D01*
X172571874Y-77037380D01*
X172564497Y-77006375D01*
X172564352Y-77005000D01*
X176275790Y-77005000D01*
X176295576Y-77193257D01*
X176354070Y-77373284D01*
X176448716Y-77537216D01*
X176575379Y-77677889D01*
X176728519Y-77789151D01*
X176901447Y-77866144D01*
X177086602Y-77905500D01*
X177086604Y-77905500D01*
X177275896Y-77905500D01*
X177275898Y-77905500D01*
X177399333Y-77879262D01*
X177461053Y-77866144D01*
X177633980Y-77789151D01*
X177787121Y-77677888D01*
X177913783Y-77537216D01*
X178008429Y-77373284D01*
X178066924Y-77193256D01*
X178086710Y-77005000D01*
X178066924Y-76816744D01*
X178008429Y-76636716D01*
X178008429Y-76636715D01*
X177913783Y-76472783D01*
X177787120Y-76332110D01*
X177633980Y-76220848D01*
X177461052Y-76143855D01*
X177275898Y-76104500D01*
X177275896Y-76104500D01*
X177086604Y-76104500D01*
X177086602Y-76104500D01*
X176901447Y-76143855D01*
X176728519Y-76220848D01*
X176575379Y-76332110D01*
X176448716Y-76472783D01*
X176354070Y-76636715D01*
X176295576Y-76816742D01*
X176275790Y-77005000D01*
X172564352Y-77005000D01*
X172551924Y-76886744D01*
X172511940Y-76763686D01*
X172493429Y-76706715D01*
X172398783Y-76542783D01*
X172272120Y-76402110D01*
X172118980Y-76290848D01*
X171946052Y-76213855D01*
X171760898Y-76174500D01*
X171760896Y-76174500D01*
X171571604Y-76174500D01*
X171571602Y-76174500D01*
X171386447Y-76213855D01*
X171213519Y-76290848D01*
X171060379Y-76402110D01*
X170933716Y-76542783D01*
X170839070Y-76706715D01*
X170784425Y-76874896D01*
X170755477Y-76922938D01*
X170708323Y-76953310D01*
X170652611Y-76959798D01*
X170516250Y-76944434D01*
X170336998Y-76964631D01*
X170336995Y-76964631D01*
X170336995Y-76964632D01*
X170166728Y-77024211D01*
X170166726Y-77024211D01*
X170166726Y-77024212D01*
X170013985Y-77120185D01*
X169886435Y-77247735D01*
X169790462Y-77400476D01*
X169790461Y-77400478D01*
X169775036Y-77444561D01*
X169730881Y-77570748D01*
X169710684Y-77749999D01*
X169730881Y-77929252D01*
X169730881Y-77929254D01*
X169730882Y-77929255D01*
X169741457Y-77959478D01*
X169762519Y-78019668D01*
X169768288Y-78077754D01*
X169746843Y-78132043D01*
X169702935Y-78170506D01*
X169646295Y-78184619D01*
X167276678Y-78200260D01*
X167228786Y-78190980D01*
X167188179Y-78163944D01*
X166983713Y-77959478D01*
X166950503Y-77899390D01*
X166954352Y-77830842D01*
X166955453Y-77827693D01*
X166955456Y-77827690D01*
X167011313Y-77668059D01*
X167030249Y-77500000D01*
X167011313Y-77331941D01*
X166955456Y-77172310D01*
X166865477Y-77029110D01*
X166745890Y-76909523D01*
X166602690Y-76819544D01*
X166443059Y-76763687D01*
X166443058Y-76763686D01*
X166443056Y-76763686D01*
X166275000Y-76744750D01*
X166106943Y-76763686D01*
X165947310Y-76819544D01*
X165804108Y-76909524D01*
X165684524Y-77029108D01*
X165594542Y-77172312D01*
X165537180Y-77336245D01*
X165504933Y-77385767D01*
X165453426Y-77414739D01*
X165394359Y-77416581D01*
X165341807Y-77405411D01*
X165152515Y-77405411D01*
X165152513Y-77405411D01*
X164967358Y-77444766D01*
X164794430Y-77521759D01*
X164641290Y-77633021D01*
X164514627Y-77773694D01*
X164419981Y-77937626D01*
X164361487Y-78117653D01*
X164351766Y-78210146D01*
X164333807Y-78262566D01*
X164294809Y-78301930D01*
X164242559Y-78320378D01*
X164187492Y-78314226D01*
X164043059Y-78263687D01*
X164043058Y-78263686D01*
X164043056Y-78263686D01*
X163864762Y-78243596D01*
X163801334Y-78217323D01*
X163761605Y-78161330D01*
X163730456Y-78072310D01*
X163669505Y-77975308D01*
X163650500Y-77909337D01*
X163650500Y-77797487D01*
X163651561Y-77781301D01*
X163652562Y-77773695D01*
X163655682Y-77750000D01*
X163635044Y-77593238D01*
X163574536Y-77447159D01*
X163542502Y-77405411D01*
X163516227Y-77371169D01*
X163478282Y-77321717D01*
X163453229Y-77302494D01*
X163441034Y-77291799D01*
X162858199Y-76708964D01*
X162847503Y-76696768D01*
X162828281Y-76671716D01*
X162702840Y-76575463D01*
X162556762Y-76514956D01*
X162439361Y-76499500D01*
X162434780Y-76498897D01*
X162400000Y-76494317D01*
X162372163Y-76497982D01*
X162368697Y-76498439D01*
X162352513Y-76499500D01*
X161324736Y-76499500D01*
X161261735Y-76482303D01*
X161216208Y-76435481D01*
X161200785Y-76372022D01*
X161219742Y-76309528D01*
X161231479Y-76290849D01*
X161255456Y-76252690D01*
X161311313Y-76093059D01*
X161330249Y-75925000D01*
X161311313Y-75756941D01*
X161255456Y-75597310D01*
X161165477Y-75454110D01*
X161045890Y-75334523D01*
X160902690Y-75244544D01*
X160743059Y-75188687D01*
X160743058Y-75188686D01*
X160743056Y-75188686D01*
X160575000Y-75169750D01*
X160406943Y-75188686D01*
X160247310Y-75244544D01*
X160104108Y-75334524D01*
X159984524Y-75454108D01*
X159894544Y-75597310D01*
X159838686Y-75756943D01*
X159819750Y-75925000D01*
X159838686Y-76093056D01*
X159838686Y-76093058D01*
X159838687Y-76093059D01*
X159894544Y-76252690D01*
X159944448Y-76332112D01*
X159952071Y-76344243D01*
X159970090Y-76394605D01*
X159965221Y-76447871D01*
X159938369Y-76494130D01*
X159894530Y-76524776D01*
X159772160Y-76575463D01*
X159772158Y-76575464D01*
X159772159Y-76575464D01*
X159646718Y-76671718D01*
X159646716Y-76671719D01*
X159646715Y-76671721D01*
X159627490Y-76696774D01*
X159616798Y-76708965D01*
X158583965Y-77741798D01*
X158571773Y-77752491D01*
X158546717Y-77771717D01*
X158478427Y-77860717D01*
X158478425Y-77860718D01*
X158450463Y-77897159D01*
X158389956Y-78043237D01*
X158369317Y-78199999D01*
X158373439Y-78231301D01*
X158374500Y-78247487D01*
X158374500Y-79574903D01*
X158365061Y-79622356D01*
X158338181Y-79662584D01*
X158041952Y-79958812D01*
X157992631Y-79989048D01*
X157934961Y-79993618D01*
X157881494Y-79971528D01*
X157843867Y-79927585D01*
X157830271Y-79871354D01*
X157830090Y-79770849D01*
X157820331Y-74349999D01*
X161419750Y-74349999D01*
X161438686Y-74518056D01*
X161438686Y-74518058D01*
X161438687Y-74518059D01*
X161494544Y-74677690D01*
X161584523Y-74820890D01*
X161704110Y-74940477D01*
X161847310Y-75030456D01*
X162006941Y-75086313D01*
X162175000Y-75105249D01*
X162343059Y-75086313D01*
X162502690Y-75030456D01*
X162645890Y-74940477D01*
X162765477Y-74820890D01*
X162855456Y-74677690D01*
X162911313Y-74518059D01*
X162930249Y-74350000D01*
X162911313Y-74181941D01*
X162855456Y-74022310D01*
X162765477Y-73879110D01*
X162645890Y-73759523D01*
X162502690Y-73669544D01*
X162343059Y-73613687D01*
X162343058Y-73613686D01*
X162343056Y-73613686D01*
X162175000Y-73594750D01*
X162006943Y-73613686D01*
X161847310Y-73669544D01*
X161704108Y-73759524D01*
X161584524Y-73879108D01*
X161494544Y-74022310D01*
X161438686Y-74181943D01*
X161419750Y-74349999D01*
X157820331Y-74349999D01*
X157816592Y-72272869D01*
X160120750Y-72272869D01*
X160127159Y-72332484D01*
X160152306Y-72399906D01*
X160177454Y-72467331D01*
X160263704Y-72582546D01*
X160378919Y-72668796D01*
X160513767Y-72719091D01*
X160573377Y-72725500D01*
X162369122Y-72725499D01*
X162428733Y-72719091D01*
X162563581Y-72668796D01*
X162678796Y-72582546D01*
X162765046Y-72467331D01*
X162814060Y-72335916D01*
X162849039Y-72285537D01*
X162903884Y-72258084D01*
X162965177Y-72260273D01*
X163017923Y-72291569D01*
X163139849Y-72413495D01*
X163333420Y-72549035D01*
X163547587Y-72648903D01*
X163775842Y-72710063D01*
X164011250Y-72730659D01*
X164246658Y-72710063D01*
X164474913Y-72648903D01*
X164689080Y-72549035D01*
X164882651Y-72413495D01*
X165049745Y-72246401D01*
X165179676Y-72060839D01*
X165223993Y-72021975D01*
X165281250Y-72007964D01*
X165338507Y-72021975D01*
X165382823Y-72060839D01*
X165512755Y-72246401D01*
X165679849Y-72413495D01*
X165873420Y-72549035D01*
X165984177Y-72600682D01*
X165991391Y-72604046D01*
X166038141Y-72641967D01*
X166061523Y-72697437D01*
X166056028Y-72757381D01*
X166038686Y-72806941D01*
X166019750Y-72975000D01*
X166038686Y-73143056D01*
X166038686Y-73143058D01*
X166038687Y-73143059D01*
X166094544Y-73302690D01*
X166184523Y-73445890D01*
X166304110Y-73565477D01*
X166447310Y-73655456D01*
X166606941Y-73711313D01*
X166775000Y-73730249D01*
X166943059Y-73711313D01*
X167102690Y-73655456D01*
X167245890Y-73565477D01*
X167365477Y-73445890D01*
X167455456Y-73302690D01*
X167511313Y-73143059D01*
X167530249Y-72975000D01*
X167511313Y-72806941D01*
X167455456Y-72647310D01*
X167405183Y-72567301D01*
X167386957Y-72515215D01*
X167393135Y-72460377D01*
X167422496Y-72413650D01*
X167503663Y-72332483D01*
X167589745Y-72246401D01*
X167719676Y-72060839D01*
X167763993Y-72021975D01*
X167821250Y-72007964D01*
X167878507Y-72021975D01*
X167922823Y-72060839D01*
X168052755Y-72246401D01*
X168219849Y-72413495D01*
X168413420Y-72549035D01*
X168627587Y-72648903D01*
X168855842Y-72710063D01*
X169091250Y-72730659D01*
X169326658Y-72710063D01*
X169554913Y-72648903D01*
X169769080Y-72549035D01*
X169962651Y-72413495D01*
X170129745Y-72246401D01*
X170259676Y-72060839D01*
X170303993Y-72021975D01*
X170361250Y-72007964D01*
X170418507Y-72021975D01*
X170462823Y-72060839D01*
X170592755Y-72246401D01*
X170759849Y-72413495D01*
X170953420Y-72549035D01*
X171167587Y-72648903D01*
X171395842Y-72710063D01*
X171631250Y-72730659D01*
X171866658Y-72710063D01*
X172094913Y-72648903D01*
X172309080Y-72549035D01*
X172502651Y-72413495D01*
X172669745Y-72246401D01*
X172799982Y-72060402D01*
X172844298Y-72021539D01*
X172901555Y-72007528D01*
X172958812Y-72021539D01*
X173003130Y-72060404D01*
X173133143Y-72246081D01*
X173300168Y-72413106D01*
X173493673Y-72548600D01*
X173707757Y-72648430D01*
X173921249Y-72705635D01*
X173921250Y-72705636D01*
X173921250Y-71625000D01*
X174421250Y-71625000D01*
X174421250Y-72705635D01*
X174634742Y-72648430D01*
X174848826Y-72548600D01*
X175042331Y-72413106D01*
X175209356Y-72246081D01*
X175344850Y-72052576D01*
X175444680Y-71838492D01*
X175501886Y-71625000D01*
X174421250Y-71625000D01*
X173921250Y-71625000D01*
X173921250Y-70044364D01*
X174421250Y-70044364D01*
X174421250Y-71125000D01*
X175501886Y-71125000D01*
X175501885Y-71124999D01*
X175444680Y-70911507D01*
X175344849Y-70697421D01*
X175209359Y-70503921D01*
X175042331Y-70336893D01*
X174848826Y-70201399D01*
X174634742Y-70101569D01*
X174421250Y-70044364D01*
X173921250Y-70044364D01*
X173921249Y-70044364D01*
X173707757Y-70101569D01*
X173493671Y-70201400D01*
X173300171Y-70336890D01*
X173133143Y-70503918D01*
X173003130Y-70689596D01*
X172958812Y-70728461D01*
X172901555Y-70742472D01*
X172844298Y-70728461D01*
X172799980Y-70689595D01*
X172799675Y-70689159D01*
X172669745Y-70503599D01*
X172502651Y-70336505D01*
X172309080Y-70200965D01*
X172094913Y-70101097D01*
X172033751Y-70084709D01*
X171866657Y-70039936D01*
X171631250Y-70019340D01*
X171395842Y-70039936D01*
X171167586Y-70101097D01*
X170953420Y-70200965D01*
X170759848Y-70336505D01*
X170592755Y-70503598D01*
X170462825Y-70689159D01*
X170418507Y-70728025D01*
X170361250Y-70742036D01*
X170303993Y-70728025D01*
X170259675Y-70689159D01*
X170129744Y-70503598D01*
X169962654Y-70336508D01*
X169962651Y-70336505D01*
X169769080Y-70200965D01*
X169554913Y-70101097D01*
X169493751Y-70084709D01*
X169326657Y-70039936D01*
X169091250Y-70019340D01*
X168855842Y-70039936D01*
X168627586Y-70101097D01*
X168413420Y-70200965D01*
X168219848Y-70336505D01*
X168052755Y-70503598D01*
X167922825Y-70689159D01*
X167878507Y-70728025D01*
X167821250Y-70742036D01*
X167763993Y-70728025D01*
X167719675Y-70689159D01*
X167589744Y-70503598D01*
X167422654Y-70336508D01*
X167422651Y-70336505D01*
X167229080Y-70200965D01*
X167014913Y-70101097D01*
X166953751Y-70084709D01*
X166786657Y-70039936D01*
X166551250Y-70019340D01*
X166315842Y-70039936D01*
X166087586Y-70101097D01*
X165873420Y-70200965D01*
X165679848Y-70336505D01*
X165512755Y-70503598D01*
X165382825Y-70689159D01*
X165338507Y-70728025D01*
X165281250Y-70742036D01*
X165223993Y-70728025D01*
X165179675Y-70689159D01*
X165049744Y-70503598D01*
X164882654Y-70336508D01*
X164882651Y-70336505D01*
X164689080Y-70200965D01*
X164474913Y-70101097D01*
X164413751Y-70084709D01*
X164246657Y-70039936D01*
X164011250Y-70019340D01*
X163775842Y-70039936D01*
X163547586Y-70101097D01*
X163333420Y-70200965D01*
X163139851Y-70336503D01*
X163017923Y-70458431D01*
X162965176Y-70489726D01*
X162903884Y-70491915D01*
X162849039Y-70464462D01*
X162814060Y-70414082D01*
X162793827Y-70359836D01*
X162765046Y-70282669D01*
X162678796Y-70167454D01*
X162563581Y-70081204D01*
X162428733Y-70030909D01*
X162369123Y-70024500D01*
X162369119Y-70024500D01*
X160573380Y-70024500D01*
X160513765Y-70030909D01*
X160378919Y-70081204D01*
X160263704Y-70167454D01*
X160177454Y-70282668D01*
X160127159Y-70417516D01*
X160120750Y-70477130D01*
X160120750Y-72272869D01*
X157816592Y-72272869D01*
X157812042Y-69745479D01*
X157828577Y-69683393D01*
X157873967Y-69637915D01*
X157936021Y-69621259D01*
X177803491Y-69618267D01*
X177810963Y-69618492D01*
G37*
G04 #@! TD.AperFunction*
G04 #@! TA.AperFunction,Conductor*
G36*
X129822816Y-96305039D02*
G01*
X129822817Y-96305040D01*
X129872699Y-96316862D01*
X129993527Y-96345500D01*
X129993529Y-96345500D01*
X130651907Y-96345500D01*
X130674128Y-96347770D01*
X130675390Y-96347733D01*
X130675394Y-96347734D01*
X130747783Y-96345627D01*
X130750381Y-96345552D01*
X130753987Y-96345500D01*
X130833529Y-96345500D01*
X130964959Y-96345500D01*
X137606750Y-96345500D01*
X137668750Y-96362113D01*
X137714137Y-96407500D01*
X137730750Y-96469500D01*
X137730750Y-97851294D01*
X137729441Y-97869264D01*
X137725961Y-97893023D01*
X137730278Y-97942369D01*
X137730750Y-97953176D01*
X137730750Y-97958708D01*
X137734348Y-97989496D01*
X137734714Y-97993081D01*
X137741153Y-98066681D01*
X137741360Y-98069041D01*
X137745579Y-98088071D01*
X137746008Y-98089251D01*
X137746009Y-98089255D01*
X137771663Y-98159742D01*
X137772832Y-98163107D01*
X137796830Y-98235524D01*
X137805325Y-98253072D01*
X137847229Y-98316784D01*
X137849139Y-98319782D01*
X137883228Y-98375047D01*
X137889202Y-98384732D01*
X137901503Y-98399831D01*
X137956960Y-98452152D01*
X137959547Y-98454665D01*
X138765519Y-99260637D01*
X138777299Y-99274268D01*
X138781741Y-99280235D01*
X138791640Y-99293530D01*
X138828308Y-99324298D01*
X138829589Y-99325373D01*
X138837563Y-99332680D01*
X138841474Y-99336591D01*
X138859922Y-99351178D01*
X138865793Y-99355820D01*
X138868580Y-99358090D01*
X138926036Y-99406302D01*
X138926038Y-99406303D01*
X138927000Y-99407110D01*
X138943430Y-99417578D01*
X138944572Y-99418110D01*
X138944573Y-99418111D01*
X139012600Y-99449832D01*
X139015777Y-99451371D01*
X139082817Y-99485040D01*
X139083952Y-99485610D01*
X139102335Y-99491999D01*
X139103572Y-99492254D01*
X139103578Y-99492257D01*
X139177102Y-99507437D01*
X139180536Y-99508199D01*
X139226816Y-99519168D01*
X139254756Y-99525791D01*
X139274129Y-99527770D01*
X139275391Y-99527733D01*
X139275395Y-99527734D01*
X139347784Y-99525627D01*
X139350382Y-99525552D01*
X139353988Y-99525500D01*
X153699020Y-99525500D01*
X153746473Y-99534939D01*
X153786701Y-99561819D01*
X154842017Y-100617134D01*
X154853798Y-100630766D01*
X154868139Y-100650029D01*
X154906089Y-100681873D01*
X154914064Y-100689181D01*
X154917974Y-100693091D01*
X154923191Y-100697216D01*
X154942293Y-100712320D01*
X154945080Y-100714590D01*
X155002536Y-100762802D01*
X155002538Y-100762803D01*
X155003500Y-100763610D01*
X155019934Y-100774080D01*
X155089070Y-100806319D01*
X155092317Y-100807891D01*
X155160449Y-100842109D01*
X155178837Y-100848500D01*
X155180073Y-100848755D01*
X155180077Y-100848757D01*
X155253606Y-100863938D01*
X155257040Y-100864700D01*
X155303166Y-100875633D01*
X155331256Y-100882291D01*
X155350629Y-100884270D01*
X155351891Y-100884233D01*
X155351895Y-100884234D01*
X155424284Y-100882127D01*
X155426882Y-100882052D01*
X155430488Y-100882000D01*
X162264554Y-100882000D01*
X162302872Y-100888069D01*
X162337438Y-100905681D01*
X162351931Y-100916210D01*
X162397269Y-100949151D01*
X162409178Y-100954453D01*
X162460565Y-100996964D01*
X162482498Y-101059947D01*
X162468632Y-101125182D01*
X162422978Y-101173798D01*
X162358743Y-101191733D01*
X134822374Y-101191733D01*
X134762637Y-101176395D01*
X134717677Y-101134176D01*
X134698619Y-101075519D01*
X134710175Y-101014936D01*
X134749489Y-100967415D01*
X134907120Y-100852889D01*
X134910841Y-100848757D01*
X135033783Y-100712216D01*
X135128429Y-100548284D01*
X135186924Y-100368256D01*
X135206710Y-100180000D01*
X135186924Y-99991744D01*
X135128429Y-99811716D01*
X135073742Y-99716996D01*
X135057131Y-99655000D01*
X135073742Y-99593003D01*
X135128429Y-99498284D01*
X135186924Y-99318256D01*
X135206710Y-99130000D01*
X135186924Y-98941744D01*
X135128429Y-98761716D01*
X135128429Y-98761715D01*
X135033783Y-98597783D01*
X134907120Y-98457110D01*
X134753980Y-98345848D01*
X134581052Y-98268855D01*
X134395898Y-98229500D01*
X134395896Y-98229500D01*
X134206604Y-98229500D01*
X134206602Y-98229500D01*
X134021447Y-98268855D01*
X133848519Y-98345848D01*
X133695379Y-98457110D01*
X133568716Y-98597783D01*
X133474070Y-98761715D01*
X133415576Y-98941742D01*
X133415575Y-98941744D01*
X133415576Y-98941744D01*
X133395790Y-99130000D01*
X133399931Y-99169404D01*
X133415576Y-99318257D01*
X133474070Y-99498283D01*
X133528755Y-99593001D01*
X133545367Y-99655000D01*
X133528755Y-99716999D01*
X133474070Y-99811716D01*
X133415576Y-99991742D01*
X133395790Y-100180000D01*
X133415576Y-100368257D01*
X133474070Y-100548284D01*
X133568716Y-100712216D01*
X133695379Y-100852889D01*
X133853011Y-100967415D01*
X133892325Y-101014936D01*
X133903881Y-101075519D01*
X133884823Y-101134176D01*
X133839863Y-101176395D01*
X133780126Y-101191733D01*
X129761522Y-101191733D01*
X129754034Y-101191507D01*
X129488082Y-101175416D01*
X129473220Y-101173612D01*
X129372699Y-101155190D01*
X129214838Y-101126259D01*
X129200299Y-101122675D01*
X128949519Y-101044526D01*
X128935519Y-101039216D01*
X128695985Y-100931409D01*
X128682727Y-100924451D01*
X128523175Y-100827997D01*
X128457927Y-100788553D01*
X128445606Y-100780049D01*
X128437987Y-100774080D01*
X128279649Y-100650029D01*
X128238827Y-100618047D01*
X128227619Y-100608117D01*
X128041882Y-100422380D01*
X128031952Y-100411172D01*
X127986578Y-100353257D01*
X127869946Y-100204387D01*
X127861448Y-100192076D01*
X127725547Y-99967271D01*
X127718590Y-99954014D01*
X127647794Y-99796715D01*
X127610782Y-99714479D01*
X127605473Y-99700480D01*
X127527321Y-99449688D01*
X127523742Y-99435170D01*
X127479170Y-99191964D01*
X127476388Y-99176781D01*
X127474583Y-99161917D01*
X127470956Y-99101967D01*
X127458494Y-98896000D01*
X127458269Y-98888445D01*
X127458293Y-98852332D01*
X127458818Y-98029868D01*
X127475836Y-97967252D01*
X127522149Y-97921803D01*
X127585076Y-97905969D01*
X127647384Y-97924084D01*
X127692009Y-97971185D01*
X127743398Y-98066681D01*
X127818953Y-98161423D01*
X127869359Y-98224631D01*
X127883742Y-98242666D01*
X128053254Y-98390765D01*
X128068428Y-98399831D01*
X128246487Y-98506216D01*
X128364464Y-98550493D01*
X128457226Y-98585307D01*
X128678703Y-98625500D01*
X128847403Y-98625500D01*
X128847405Y-98625500D01*
X129015438Y-98610377D01*
X129232420Y-98550493D01*
X129435223Y-98452829D01*
X129617328Y-98320522D01*
X129772882Y-98157825D01*
X129896885Y-97969968D01*
X129985353Y-97762988D01*
X130035441Y-97543537D01*
X130045540Y-97318670D01*
X130015325Y-97095613D01*
X129945767Y-96881536D01*
X129839102Y-96683319D01*
X129698758Y-96507334D01*
X129694852Y-96502436D01*
X129669755Y-96447061D01*
X129673996Y-96386413D01*
X129706556Y-96335070D01*
X129759607Y-96305375D01*
X129820396Y-96304466D01*
X129822816Y-96305039D01*
G37*
G04 #@! TD.AperFunction*
G04 #@! TA.AperFunction,Conductor*
G36*
X139214155Y-69640627D02*
G01*
X139259532Y-69685851D01*
X139276280Y-69747688D01*
X139311249Y-80604999D01*
X139311250Y-80605000D01*
X141138169Y-80586257D01*
X141202803Y-80603661D01*
X141248974Y-80652125D01*
X141263227Y-80717527D01*
X141241409Y-80780808D01*
X141189878Y-80823529D01*
X141128518Y-80850849D01*
X140975379Y-80962110D01*
X140848716Y-81102783D01*
X140754070Y-81266715D01*
X140695576Y-81446742D01*
X140675790Y-81634999D01*
X140695576Y-81823257D01*
X140754070Y-82003284D01*
X140848716Y-82167216D01*
X140975379Y-82307889D01*
X141128519Y-82419151D01*
X141301447Y-82496144D01*
X141486602Y-82535500D01*
X141486604Y-82535500D01*
X141675896Y-82535500D01*
X141675898Y-82535500D01*
X141799334Y-82509262D01*
X141861053Y-82496144D01*
X142033980Y-82419151D01*
X142098870Y-82372006D01*
X142187120Y-82307889D01*
X142278194Y-82206742D01*
X142313783Y-82167216D01*
X142408429Y-82003284D01*
X142466924Y-81823256D01*
X142486710Y-81635000D01*
X142466924Y-81446744D01*
X142427522Y-81325478D01*
X142408429Y-81266715D01*
X142313783Y-81102783D01*
X142187120Y-80962110D01*
X142033980Y-80850848D01*
X141952719Y-80814668D01*
X141901478Y-80772366D01*
X141879433Y-80709683D01*
X141892914Y-80644618D01*
X141938051Y-80595855D01*
X142001882Y-80577396D01*
X148438778Y-80511358D01*
X148495436Y-80524408D01*
X148539918Y-80561850D01*
X148562443Y-80615451D01*
X148558059Y-80673427D01*
X148527731Y-80723032D01*
X148133965Y-81116798D01*
X148121774Y-81127490D01*
X148096720Y-81146715D01*
X148096717Y-81146718D01*
X148096718Y-81146718D01*
X148034434Y-81227888D01*
X148000463Y-81272159D01*
X147939956Y-81418237D01*
X147919317Y-81574999D01*
X147923439Y-81606301D01*
X147924500Y-81622487D01*
X147924500Y-86377513D01*
X147923439Y-86393699D01*
X147919317Y-86425000D01*
X147934210Y-86538114D01*
X147934210Y-86538117D01*
X147939955Y-86581760D01*
X148000464Y-86727841D01*
X148096716Y-86853281D01*
X148121768Y-86872503D01*
X148133964Y-86883199D01*
X150091802Y-88841038D01*
X150102497Y-88853233D01*
X150117550Y-88872851D01*
X150121718Y-88878282D01*
X150153212Y-88902448D01*
X150153214Y-88902450D01*
X150247159Y-88974536D01*
X150393238Y-89035044D01*
X150518698Y-89051561D01*
X150549999Y-89055682D01*
X150549999Y-89055681D01*
X150550000Y-89055682D01*
X150581302Y-89051560D01*
X150597487Y-89050500D01*
X151375436Y-89050500D01*
X151454158Y-89050500D01*
X151610383Y-89050500D01*
X151665232Y-89063290D01*
X151708766Y-89099023D01*
X151732004Y-89150326D01*
X151759117Y-89286736D01*
X151821053Y-89436313D01*
X151826983Y-89450634D01*
X151880783Y-89531169D01*
X151925523Y-89598143D01*
X152050944Y-89723584D01*
X152198436Y-89822149D01*
X152362319Y-89890038D01*
X152362320Y-89890038D01*
X152362322Y-89890039D01*
X152536304Y-89924650D01*
X152536817Y-89924650D01*
X152536825Y-89924651D01*
X152552086Y-89924651D01*
X152573589Y-89924651D01*
X152573840Y-89924700D01*
X152625000Y-89924700D01*
X152713701Y-89924699D01*
X152887693Y-89890086D01*
X153051587Y-89822191D01*
X153199085Y-89723623D01*
X153324517Y-89598171D01*
X153423061Y-89450657D01*
X153490929Y-89286751D01*
X153518045Y-89150325D01*
X153541283Y-89099023D01*
X153584817Y-89063290D01*
X153639666Y-89050500D01*
X153922839Y-89050500D01*
X153988811Y-89069506D01*
X154034559Y-89120698D01*
X154046059Y-89188383D01*
X154044750Y-89199998D01*
X154063686Y-89368056D01*
X154063686Y-89368058D01*
X154063687Y-89368059D01*
X154119544Y-89527690D01*
X154209523Y-89670890D01*
X154329110Y-89790477D01*
X154472310Y-89880456D01*
X154631941Y-89936313D01*
X154800000Y-89955249D01*
X154968059Y-89936313D01*
X155127690Y-89880456D01*
X155131740Y-89877910D01*
X155197712Y-89858904D01*
X155263685Y-89877911D01*
X155347306Y-89930454D01*
X155347307Y-89930454D01*
X155347310Y-89930456D01*
X155404557Y-89950487D01*
X155457589Y-89986644D01*
X155485439Y-90044474D01*
X155480643Y-90108481D01*
X155463686Y-90156941D01*
X155444750Y-90325000D01*
X155463686Y-90493056D01*
X155463686Y-90493058D01*
X155463687Y-90493059D01*
X155519544Y-90652690D01*
X155609523Y-90795890D01*
X155729110Y-90915477D01*
X155872310Y-91005456D01*
X156031941Y-91061313D01*
X156200000Y-91080249D01*
X156368059Y-91061313D01*
X156527690Y-91005456D01*
X156670890Y-90915477D01*
X156790477Y-90795890D01*
X156880456Y-90652690D01*
X156936313Y-90493059D01*
X156938456Y-90474032D01*
X156949955Y-90434119D01*
X156973992Y-90400241D01*
X157466043Y-89908190D01*
X157478223Y-89897509D01*
X157503282Y-89878282D01*
X157599536Y-89752841D01*
X157660044Y-89606762D01*
X157663630Y-89579523D01*
X157680682Y-89450000D01*
X157676560Y-89418697D01*
X157675500Y-89402513D01*
X157675500Y-88299414D01*
X157684938Y-88251964D01*
X157711814Y-88211738D01*
X157752038Y-88184857D01*
X157838097Y-88149201D01*
X157907462Y-88120463D01*
X158040608Y-88031485D01*
X158153839Y-87918243D01*
X158242803Y-87785087D01*
X158304083Y-87637135D01*
X158335323Y-87480070D01*
X158335322Y-87400000D01*
X158335322Y-87327086D01*
X158335322Y-87320039D01*
X158333157Y-87309154D01*
X158304062Y-87162872D01*
X158242784Y-87014923D01*
X158153822Y-86881771D01*
X158040594Y-86768532D01*
X157907451Y-86679556D01*
X157907448Y-86679554D01*
X157907447Y-86679554D01*
X157752038Y-86615167D01*
X157711814Y-86588287D01*
X157684938Y-86548060D01*
X157675500Y-86500610D01*
X157675500Y-86400098D01*
X157684939Y-86352646D01*
X157711817Y-86312418D01*
X157755247Y-86268987D01*
X157772880Y-86251353D01*
X157772974Y-86251281D01*
X157784599Y-86239653D01*
X157799209Y-86225037D01*
X157799423Y-86224894D01*
X157800594Y-86223723D01*
X157840827Y-86196822D01*
X157888292Y-86187371D01*
X157935761Y-86196810D01*
X158091079Y-86261145D01*
X158248145Y-86292387D01*
X158248147Y-86292387D01*
X158408295Y-86292387D01*
X158408297Y-86292387D01*
X158565362Y-86261145D01*
X158565363Y-86261144D01*
X158565365Y-86261144D01*
X158713322Y-86199858D01*
X158846480Y-86110884D01*
X158846481Y-86110882D01*
X158846509Y-86110864D01*
X158851589Y-86105782D01*
X158851594Y-86105780D01*
X158867764Y-86089606D01*
X158867849Y-86089549D01*
X158903160Y-86054229D01*
X158903161Y-86054230D01*
X158959772Y-85997607D01*
X159048727Y-85864448D01*
X159106870Y-85724047D01*
X159133748Y-85683817D01*
X159173976Y-85656936D01*
X159314344Y-85598794D01*
X159447502Y-85509820D01*
X159447502Y-85509819D01*
X159447515Y-85509811D01*
X159452590Y-85504734D01*
X159452594Y-85504733D01*
X159504149Y-85453172D01*
X159504148Y-85453171D01*
X159514063Y-85443256D01*
X159555679Y-85401641D01*
X159555679Y-85401640D01*
X159560636Y-85396684D01*
X159560732Y-85396539D01*
X159560736Y-85396536D01*
X159649690Y-85263397D01*
X159707817Y-85123068D01*
X159734696Y-85082842D01*
X159774921Y-85055963D01*
X159915408Y-84997772D01*
X160048566Y-84908798D01*
X160053633Y-84903730D01*
X160053636Y-84903729D01*
X160105193Y-84852170D01*
X160117075Y-84840288D01*
X160156743Y-84800619D01*
X160156743Y-84800617D01*
X160161809Y-84795552D01*
X160161809Y-84795551D01*
X160161811Y-84795550D01*
X160250781Y-84662393D01*
X160266100Y-84625409D01*
X160308926Y-84522016D01*
X160335805Y-84481787D01*
X160376032Y-84454907D01*
X160516462Y-84396740D01*
X160649620Y-84307766D01*
X160672665Y-84284718D01*
X160684843Y-84274039D01*
X160709904Y-84254811D01*
X160728919Y-84230029D01*
X160739609Y-84217841D01*
X160746137Y-84211313D01*
X160762892Y-84194559D01*
X160851878Y-84061380D01*
X160913167Y-83913397D01*
X160944403Y-83756300D01*
X160944386Y-83596127D01*
X160941297Y-83580611D01*
X160933688Y-83542386D01*
X160913116Y-83439036D01*
X160864661Y-83322110D01*
X160848764Y-83283750D01*
X160839317Y-83236291D01*
X160848754Y-83188831D01*
X160875631Y-83148603D01*
X161112419Y-82911816D01*
X161152646Y-82884939D01*
X161200098Y-82875500D01*
X167077513Y-82875500D01*
X167093697Y-82876560D01*
X167125000Y-82880682D01*
X167281762Y-82860044D01*
X167427841Y-82799536D01*
X167459937Y-82774908D01*
X167553282Y-82703282D01*
X167572509Y-82678223D01*
X167583190Y-82666043D01*
X168116043Y-82133190D01*
X168128223Y-82122509D01*
X168153282Y-82103282D01*
X168249536Y-81977841D01*
X168310044Y-81831762D01*
X168310044Y-81831760D01*
X168313654Y-81823046D01*
X168340628Y-81782723D01*
X168381009Y-81755836D01*
X168428614Y-81746500D01*
X169399667Y-81749642D01*
X169461525Y-81766405D01*
X169506752Y-81811815D01*
X169523265Y-81873741D01*
X169506652Y-81935640D01*
X169454071Y-82026713D01*
X169395576Y-82206742D01*
X169375790Y-82395000D01*
X169395576Y-82583257D01*
X169454070Y-82763284D01*
X169548716Y-82927216D01*
X169675379Y-83067889D01*
X169828519Y-83179151D01*
X170001447Y-83256144D01*
X170186602Y-83295500D01*
X170337256Y-83295500D01*
X170395197Y-83309870D01*
X170439710Y-83349648D01*
X170460476Y-83405616D01*
X170472190Y-83509584D01*
X170472190Y-83509586D01*
X170472191Y-83509588D01*
X170531770Y-83679855D01*
X170534284Y-83683856D01*
X170627744Y-83832597D01*
X170755294Y-83960147D01*
X170755296Y-83960148D01*
X170755297Y-83960149D01*
X170908037Y-84056122D01*
X171078304Y-84115701D01*
X171085540Y-84116516D01*
X171125455Y-84128015D01*
X171159335Y-84152055D01*
X171779431Y-84772151D01*
X171806311Y-84812379D01*
X171815750Y-84859832D01*
X171815750Y-85101859D01*
X171800723Y-85161027D01*
X171759285Y-85205854D01*
X171701479Y-85225477D01*
X171641314Y-85215138D01*
X171571052Y-85183855D01*
X171385898Y-85144500D01*
X171385896Y-85144500D01*
X171196604Y-85144500D01*
X171196602Y-85144500D01*
X171011447Y-85183855D01*
X170838519Y-85260848D01*
X170687845Y-85370319D01*
X170655127Y-85387315D01*
X170618857Y-85393940D01*
X170607116Y-85394309D01*
X170602985Y-85394439D01*
X170599091Y-85394500D01*
X170570321Y-85394500D01*
X170565940Y-85395053D01*
X170554309Y-85395968D01*
X170508680Y-85397402D01*
X170488301Y-85403323D01*
X170469257Y-85407267D01*
X170454889Y-85409082D01*
X170448191Y-85409929D01*
X170405740Y-85426736D01*
X170394693Y-85430518D01*
X170350848Y-85443256D01*
X170332580Y-85454060D01*
X170315114Y-85462617D01*
X170295379Y-85470431D01*
X170258452Y-85497260D01*
X170248692Y-85503671D01*
X170209386Y-85526917D01*
X170194375Y-85541928D01*
X170179586Y-85554558D01*
X170162414Y-85567034D01*
X170133307Y-85602218D01*
X170125446Y-85610856D01*
X168058123Y-87678181D01*
X168017895Y-87705061D01*
X167970442Y-87714500D01*
X167190503Y-87714500D01*
X167130766Y-87699162D01*
X167085806Y-87656943D01*
X167066748Y-87598286D01*
X167078304Y-87537703D01*
X167117618Y-87490182D01*
X167217120Y-87417889D01*
X167237675Y-87395061D01*
X167343783Y-87277216D01*
X167438429Y-87113284D01*
X167496924Y-86933256D01*
X167516710Y-86745000D01*
X167496924Y-86556744D01*
X167451529Y-86417034D01*
X167438429Y-86376715D01*
X167343783Y-86212783D01*
X167217120Y-86072110D01*
X167063980Y-85960848D01*
X166891052Y-85883855D01*
X166705898Y-85844500D01*
X166705896Y-85844500D01*
X166516604Y-85844500D01*
X166516602Y-85844500D01*
X166331447Y-85883855D01*
X166158519Y-85960848D01*
X166005379Y-86072110D01*
X165878716Y-86212783D01*
X165784070Y-86376715D01*
X165725576Y-86556742D01*
X165705790Y-86745000D01*
X165725576Y-86933257D01*
X165784070Y-87113284D01*
X165878716Y-87277216D01*
X166005379Y-87417889D01*
X166104882Y-87490182D01*
X166144196Y-87537703D01*
X166155752Y-87598286D01*
X166136694Y-87656943D01*
X166091734Y-87699162D01*
X166031997Y-87714500D01*
X165272058Y-87714500D01*
X165224605Y-87705061D01*
X165184377Y-87678181D01*
X164001684Y-86495488D01*
X163988341Y-86478833D01*
X163935416Y-86429134D01*
X163932619Y-86426423D01*
X163912284Y-86406088D01*
X163908797Y-86403383D01*
X163899921Y-86395801D01*
X163866644Y-86364552D01*
X163848043Y-86354326D01*
X163831782Y-86343645D01*
X163825879Y-86339066D01*
X163815014Y-86330638D01*
X163791427Y-86320431D01*
X163773119Y-86312508D01*
X163762629Y-86307369D01*
X163722617Y-86285372D01*
X163702050Y-86280091D01*
X163683648Y-86273791D01*
X163664174Y-86265364D01*
X163619087Y-86258223D01*
X163607648Y-86255854D01*
X163563428Y-86244500D01*
X163563427Y-86244500D01*
X163542205Y-86244500D01*
X163522806Y-86242973D01*
X163501846Y-86239653D01*
X163501845Y-86239653D01*
X163495657Y-86240238D01*
X163456389Y-86243950D01*
X163444720Y-86244500D01*
X162176754Y-86244500D01*
X162155544Y-86242158D01*
X162082987Y-86244439D01*
X162079092Y-86244500D01*
X162050321Y-86244500D01*
X162045940Y-86245053D01*
X162034309Y-86245968D01*
X161988678Y-86247402D01*
X161968302Y-86253322D01*
X161949256Y-86257267D01*
X161928189Y-86259928D01*
X161885742Y-86276734D01*
X161874695Y-86280516D01*
X161830851Y-86293255D01*
X161812580Y-86304060D01*
X161795114Y-86312617D01*
X161775379Y-86320431D01*
X161738452Y-86347260D01*
X161728692Y-86353671D01*
X161689386Y-86376917D01*
X161674375Y-86391928D01*
X161659586Y-86404558D01*
X161642414Y-86417034D01*
X161613307Y-86452218D01*
X161605446Y-86460856D01*
X160698123Y-87368181D01*
X160657895Y-87395061D01*
X160610442Y-87404500D01*
X160586602Y-87404500D01*
X160401447Y-87443855D01*
X160228519Y-87520848D01*
X160075379Y-87632110D01*
X159948716Y-87772783D01*
X159854070Y-87936715D01*
X159795576Y-88116742D01*
X159775790Y-88304999D01*
X159795576Y-88493257D01*
X159854070Y-88673284D01*
X159948716Y-88837216D01*
X160075379Y-88977889D01*
X160228519Y-89089151D01*
X160401447Y-89166144D01*
X160586602Y-89205500D01*
X160586604Y-89205500D01*
X160775896Y-89205500D01*
X160775898Y-89205500D01*
X160899333Y-89179262D01*
X160961053Y-89166144D01*
X161133980Y-89089151D01*
X161180046Y-89055682D01*
X161287120Y-88977889D01*
X161413783Y-88837216D01*
X161508429Y-88673284D01*
X161566924Y-88493257D01*
X161575034Y-88416090D01*
X161580418Y-88364854D01*
X161591818Y-88324434D01*
X161616055Y-88290139D01*
X161645456Y-88260738D01*
X161693276Y-88231002D01*
X161749320Y-88225482D01*
X161802025Y-88245319D01*
X161840522Y-88286421D01*
X161898716Y-88387215D01*
X162025379Y-88527889D01*
X162178519Y-88639151D01*
X162351447Y-88716144D01*
X162536602Y-88755500D01*
X162536604Y-88755500D01*
X162725896Y-88755500D01*
X162725898Y-88755500D01*
X162869685Y-88724937D01*
X162911053Y-88716144D01*
X163083980Y-88639151D01*
X163196081Y-88557705D01*
X163249566Y-88535550D01*
X163307283Y-88540092D01*
X163356646Y-88570342D01*
X164300814Y-89514510D01*
X164314162Y-89531169D01*
X164367081Y-89580864D01*
X164369878Y-89583575D01*
X164390211Y-89603908D01*
X164393692Y-89606608D01*
X164402578Y-89614197D01*
X164435857Y-89645448D01*
X164454456Y-89655673D01*
X164470716Y-89666354D01*
X164487486Y-89679362D01*
X164507296Y-89687934D01*
X164529379Y-89697491D01*
X164539870Y-89702630D01*
X164579882Y-89724627D01*
X164600446Y-89729906D01*
X164618851Y-89736208D01*
X164638324Y-89744635D01*
X164683421Y-89751777D01*
X164694836Y-89754141D01*
X164739073Y-89765500D01*
X164760295Y-89765500D01*
X164779694Y-89767027D01*
X164782049Y-89767399D01*
X164800655Y-89770347D01*
X164842569Y-89766384D01*
X164846111Y-89766050D01*
X164857780Y-89765500D01*
X165367250Y-89765500D01*
X165429250Y-89782113D01*
X165474637Y-89827500D01*
X165491250Y-89889500D01*
X165491250Y-91270500D01*
X165474637Y-91332500D01*
X165429250Y-91377887D01*
X165367250Y-91394500D01*
X161333086Y-91394500D01*
X161273349Y-91379162D01*
X161228389Y-91336943D01*
X161209331Y-91278286D01*
X161220887Y-91217704D01*
X161260200Y-91170182D01*
X161263291Y-91167935D01*
X161277121Y-91157888D01*
X161403783Y-91017216D01*
X161498429Y-90853284D01*
X161556924Y-90673256D01*
X161576710Y-90485000D01*
X161556924Y-90296744D01*
X161517522Y-90175478D01*
X161498429Y-90116715D01*
X161403783Y-89952783D01*
X161277120Y-89812110D01*
X161123980Y-89700848D01*
X160951052Y-89623855D01*
X160765898Y-89584500D01*
X160765896Y-89584500D01*
X160576604Y-89584500D01*
X160576602Y-89584500D01*
X160391447Y-89623855D01*
X160218519Y-89700848D01*
X160065379Y-89812110D01*
X159938716Y-89952783D01*
X159844070Y-90116715D01*
X159785576Y-90296742D01*
X159765790Y-90484999D01*
X159765790Y-90485000D01*
X159774464Y-90567528D01*
X159785576Y-90673257D01*
X159844070Y-90853284D01*
X159938716Y-91017216D01*
X160065378Y-91157887D01*
X160082300Y-91170182D01*
X160121613Y-91217704D01*
X160133169Y-91278286D01*
X160114111Y-91336943D01*
X160069151Y-91379162D01*
X160009414Y-91394500D01*
X150016159Y-91394500D01*
X150008672Y-91394274D01*
X149948641Y-91390642D01*
X149889492Y-91401481D01*
X149882093Y-91402608D01*
X149822372Y-91409860D01*
X149812891Y-91413456D01*
X149791286Y-91419479D01*
X149781319Y-91421305D01*
X149726484Y-91445984D01*
X149719568Y-91448848D01*
X149663319Y-91470181D01*
X149654975Y-91475941D01*
X149635433Y-91486963D01*
X149626194Y-91491121D01*
X149578844Y-91528216D01*
X149572816Y-91532652D01*
X149523317Y-91566819D01*
X149483433Y-91611838D01*
X149478301Y-91617290D01*
X149113540Y-91982051D01*
X149108088Y-91987183D01*
X149063066Y-92027070D01*
X149028899Y-92076568D01*
X149024463Y-92082597D01*
X148987371Y-92129942D01*
X148983211Y-92139186D01*
X148972191Y-92158725D01*
X148966432Y-92167069D01*
X148945103Y-92223305D01*
X148942239Y-92230219D01*
X148917553Y-92285070D01*
X148915725Y-92295047D01*
X148909704Y-92316648D01*
X148906109Y-92326128D01*
X148898859Y-92385827D01*
X148897733Y-92393226D01*
X148886891Y-92452391D01*
X148890524Y-92512434D01*
X148890750Y-92519921D01*
X148890750Y-93669608D01*
X148882514Y-93714045D01*
X148858900Y-93752580D01*
X148858716Y-93752783D01*
X148764070Y-93916715D01*
X148705576Y-94096742D01*
X148685790Y-94285000D01*
X148705576Y-94473257D01*
X148764070Y-94653284D01*
X148858716Y-94817216D01*
X148985379Y-94957889D01*
X149138519Y-95069151D01*
X149295856Y-95139203D01*
X149345738Y-95179597D01*
X149368741Y-95239521D01*
X149358700Y-95302917D01*
X149318306Y-95352800D01*
X149195377Y-95442112D01*
X149068716Y-95582783D01*
X148974070Y-95746715D01*
X148915576Y-95926742D01*
X148895790Y-96115000D01*
X148915576Y-96303257D01*
X148974070Y-96483284D01*
X149068716Y-96647216D01*
X149143706Y-96730500D01*
X149195379Y-96787888D01*
X149348520Y-96899151D01*
X149355565Y-96902287D01*
X149408049Y-96946405D01*
X149429067Y-97011669D01*
X149430689Y-97063260D01*
X149430750Y-97067157D01*
X149430750Y-97095926D01*
X149431303Y-97100307D01*
X149432218Y-97111940D01*
X149433652Y-97157569D01*
X149439573Y-97177950D01*
X149443517Y-97196995D01*
X149446178Y-97218059D01*
X149462987Y-97260515D01*
X149466770Y-97271563D01*
X149479506Y-97315400D01*
X149490311Y-97333670D01*
X149498871Y-97351143D01*
X149506681Y-97370869D01*
X149533517Y-97407808D01*
X149539923Y-97417560D01*
X149563169Y-97456865D01*
X149563171Y-97456867D01*
X149578175Y-97471871D01*
X149590814Y-97486669D01*
X149603287Y-97503837D01*
X149638462Y-97532936D01*
X149647104Y-97540800D01*
X149919123Y-97812819D01*
X149949373Y-97862182D01*
X149953915Y-97919898D01*
X149931760Y-97973385D01*
X149887737Y-98010985D01*
X149831442Y-98024500D01*
X145661229Y-98024500D01*
X145604934Y-98010985D01*
X145560911Y-97973385D01*
X145538756Y-97919898D01*
X145543298Y-97862182D01*
X145560432Y-97834221D01*
X145558043Y-97832720D01*
X145565474Y-97820892D01*
X145565477Y-97820890D01*
X145655456Y-97677690D01*
X145711313Y-97518059D01*
X145730249Y-97350000D01*
X145711313Y-97181941D01*
X145655456Y-97022310D01*
X145565477Y-96879110D01*
X145445890Y-96759523D01*
X145302690Y-96669544D01*
X145143059Y-96613687D01*
X145143058Y-96613686D01*
X145143056Y-96613686D01*
X144975000Y-96594750D01*
X144806943Y-96613686D01*
X144647310Y-96669544D01*
X144504108Y-96759524D01*
X144384524Y-96879108D01*
X144294544Y-97022310D01*
X144238686Y-97181943D01*
X144219750Y-97349999D01*
X144238686Y-97518056D01*
X144238686Y-97518058D01*
X144238687Y-97518059D01*
X144294544Y-97677690D01*
X144384523Y-97820890D01*
X144384524Y-97820891D01*
X144391957Y-97832720D01*
X144389567Y-97834221D01*
X144406702Y-97862182D01*
X144411244Y-97919898D01*
X144389089Y-97973385D01*
X144345066Y-98010985D01*
X144288771Y-98024500D01*
X139703479Y-98024500D01*
X139656026Y-98015061D01*
X139615798Y-97988181D01*
X139268069Y-97640451D01*
X139241189Y-97600223D01*
X139231750Y-97552770D01*
X139231750Y-95988706D01*
X139233059Y-95970736D01*
X139233588Y-95967118D01*
X139236539Y-95946977D01*
X139232221Y-95897633D01*
X139231750Y-95886827D01*
X139231750Y-95665227D01*
X141631072Y-95665227D01*
X141634464Y-95697500D01*
X141650858Y-95853484D01*
X141709352Y-96033511D01*
X141803998Y-96197443D01*
X141930661Y-96338116D01*
X142083801Y-96449378D01*
X142256729Y-96526371D01*
X142441884Y-96565727D01*
X142441886Y-96565727D01*
X142631178Y-96565727D01*
X142631180Y-96565727D01*
X142754616Y-96539489D01*
X142816335Y-96526371D01*
X142989262Y-96449378D01*
X142989262Y-96449377D01*
X143001168Y-96444077D01*
X143001232Y-96444221D01*
X143035749Y-96428852D01*
X143087315Y-96428852D01*
X143121831Y-96444221D01*
X143121896Y-96444077D01*
X143133801Y-96449377D01*
X143133802Y-96449378D01*
X143172966Y-96466815D01*
X143306729Y-96526371D01*
X143491884Y-96565727D01*
X143491886Y-96565727D01*
X143681178Y-96565727D01*
X143681180Y-96565727D01*
X143804616Y-96539489D01*
X143866335Y-96526371D01*
X144039262Y-96449378D01*
X144067514Y-96428852D01*
X144192402Y-96338116D01*
X144319065Y-96197443D01*
X144413711Y-96033511D01*
X144436261Y-95964109D01*
X144472206Y-95853483D01*
X144491992Y-95665227D01*
X144472206Y-95476971D01*
X144427864Y-95340501D01*
X144413711Y-95296942D01*
X144319065Y-95133010D01*
X144192402Y-94992337D01*
X144039262Y-94881075D01*
X143866334Y-94804082D01*
X143681180Y-94764727D01*
X143681178Y-94764727D01*
X143491886Y-94764727D01*
X143491884Y-94764727D01*
X143306729Y-94804082D01*
X143121896Y-94886376D01*
X143121831Y-94886231D01*
X143087313Y-94901600D01*
X143035751Y-94901600D01*
X143001232Y-94886231D01*
X143001168Y-94886376D01*
X142816334Y-94804082D01*
X142631180Y-94764727D01*
X142631178Y-94764727D01*
X142441886Y-94764727D01*
X142441884Y-94764727D01*
X142256729Y-94804082D01*
X142083801Y-94881075D01*
X141930661Y-94992337D01*
X141803998Y-95133010D01*
X141709352Y-95296942D01*
X141650858Y-95476969D01*
X141634254Y-95634948D01*
X141631072Y-95665227D01*
X139231750Y-95665227D01*
X139231750Y-95354337D01*
X139234019Y-95332125D01*
X139233982Y-95330860D01*
X139233983Y-95330856D01*
X139233656Y-95319645D01*
X139234911Y-95298082D01*
X139236539Y-95286977D01*
X139232221Y-95237633D01*
X139231750Y-95226827D01*
X139231750Y-95099322D01*
X139248363Y-95037322D01*
X139308429Y-94933284D01*
X139314706Y-94913965D01*
X139366924Y-94753256D01*
X139386710Y-94565000D01*
X139366924Y-94376744D01*
X139308429Y-94196716D01*
X139308429Y-94196715D01*
X139277612Y-94143339D01*
X139260999Y-94081339D01*
X139277611Y-94019340D01*
X139298429Y-93983284D01*
X139356924Y-93803256D01*
X139376710Y-93615000D01*
X139356924Y-93426744D01*
X139298429Y-93246716D01*
X139298429Y-93246715D01*
X139203783Y-93082783D01*
X139077120Y-92942110D01*
X138923980Y-92830848D01*
X138751052Y-92753855D01*
X138565898Y-92714500D01*
X138565896Y-92714500D01*
X138376604Y-92714500D01*
X138376602Y-92714500D01*
X138191447Y-92753855D01*
X138018519Y-92830848D01*
X137865379Y-92942110D01*
X137738716Y-93082783D01*
X137644070Y-93246715D01*
X137585576Y-93426742D01*
X137565892Y-93614028D01*
X137565790Y-93615000D01*
X137567959Y-93635637D01*
X137585576Y-93803257D01*
X137644070Y-93983284D01*
X137674887Y-94036660D01*
X137691500Y-94098660D01*
X137674888Y-94160659D01*
X137654070Y-94196716D01*
X137595576Y-94376742D01*
X137575875Y-94564194D01*
X137575790Y-94565000D01*
X137590771Y-94707541D01*
X137578902Y-94774858D01*
X137533161Y-94825658D01*
X137467451Y-94844500D01*
X135608453Y-94844500D01*
X135552162Y-94830987D01*
X135508140Y-94793393D01*
X135485982Y-94739912D01*
X135488603Y-94706537D01*
X135485561Y-94706218D01*
X135486922Y-94693259D01*
X135486924Y-94693256D01*
X135506710Y-94505000D01*
X135486924Y-94316744D01*
X135443429Y-94182880D01*
X135428429Y-94136715D01*
X135333783Y-93972783D01*
X135269993Y-93901937D01*
X135244212Y-93857282D01*
X135238822Y-93806002D01*
X135254756Y-93756965D01*
X135268429Y-93733284D01*
X135326924Y-93553256D01*
X135346710Y-93365000D01*
X135326924Y-93176744D01*
X135268429Y-92996716D01*
X135268429Y-92996715D01*
X135173783Y-92832783D01*
X135047120Y-92692110D01*
X134893980Y-92580848D01*
X134721052Y-92503855D01*
X134535898Y-92464500D01*
X134535896Y-92464500D01*
X134346604Y-92464500D01*
X134346602Y-92464500D01*
X134161447Y-92503855D01*
X133988519Y-92580848D01*
X133835379Y-92692110D01*
X133708716Y-92832783D01*
X133614070Y-92996715D01*
X133555576Y-93176742D01*
X133535790Y-93364999D01*
X133555576Y-93553257D01*
X133614070Y-93733284D01*
X133708716Y-93897215D01*
X133772506Y-93968061D01*
X133798287Y-94012714D01*
X133803677Y-94063993D01*
X133787744Y-94113031D01*
X133774071Y-94136713D01*
X133715576Y-94316742D01*
X133705729Y-94410432D01*
X133695790Y-94505000D01*
X133715576Y-94693256D01*
X133715576Y-94693258D01*
X133716939Y-94706218D01*
X133713896Y-94706537D01*
X133716518Y-94739912D01*
X133694360Y-94793393D01*
X133650338Y-94830987D01*
X133594047Y-94844500D01*
X131103479Y-94844500D01*
X131056026Y-94835061D01*
X131015798Y-94808181D01*
X130661447Y-94453829D01*
X130632606Y-94408558D01*
X130625600Y-94355340D01*
X130641741Y-94304149D01*
X130688429Y-94223284D01*
X130746924Y-94043256D01*
X130766710Y-93855000D01*
X130746924Y-93666744D01*
X130712991Y-93562309D01*
X130688429Y-93486715D01*
X130593783Y-93322783D01*
X130467120Y-93182110D01*
X130313980Y-93070848D01*
X130141052Y-92993855D01*
X129955898Y-92954500D01*
X129955896Y-92954500D01*
X129766604Y-92954500D01*
X129766602Y-92954500D01*
X129581447Y-92993855D01*
X129408519Y-93070848D01*
X129255379Y-93182110D01*
X129128716Y-93322783D01*
X129034070Y-93486715D01*
X128975576Y-93666742D01*
X128955790Y-93855000D01*
X128975576Y-94043257D01*
X129034070Y-94223284D01*
X129094137Y-94327322D01*
X129110750Y-94389322D01*
X129110750Y-94651294D01*
X129109441Y-94669264D01*
X129105961Y-94693023D01*
X129110278Y-94742369D01*
X129110750Y-94753176D01*
X129110750Y-94840678D01*
X129094137Y-94902678D01*
X129034070Y-95006715D01*
X128975576Y-95186742D01*
X128955790Y-95375000D01*
X128975576Y-95563257D01*
X129034070Y-95743284D01*
X129128716Y-95907216D01*
X129163567Y-95945922D01*
X129191969Y-95999857D01*
X129191240Y-96060809D01*
X129161554Y-96114048D01*
X129110087Y-96146710D01*
X129049275Y-96150901D01*
X129046685Y-96150431D01*
X128903797Y-96124500D01*
X128735095Y-96124500D01*
X128667881Y-96130549D01*
X128567059Y-96139623D01*
X128350078Y-96199507D01*
X128147277Y-96297170D01*
X127965175Y-96429475D01*
X127809615Y-96592178D01*
X127687148Y-96777708D01*
X127640437Y-96819635D01*
X127579178Y-96833316D01*
X127519068Y-96815245D01*
X127475508Y-96770052D01*
X127459661Y-96709321D01*
X127463805Y-90223768D01*
X132384558Y-90223768D01*
X132404344Y-90412025D01*
X132462838Y-90592052D01*
X132557484Y-90755984D01*
X132684147Y-90896657D01*
X132837287Y-91007919D01*
X132918003Y-91043856D01*
X133010215Y-91084912D01*
X133062631Y-91096053D01*
X133119821Y-91125192D01*
X133154780Y-91179025D01*
X133205302Y-91334516D01*
X133299948Y-91498448D01*
X133426611Y-91639121D01*
X133579751Y-91750383D01*
X133752679Y-91827376D01*
X133937834Y-91866732D01*
X133937836Y-91866732D01*
X134127128Y-91866732D01*
X134127130Y-91866732D01*
X134280801Y-91834068D01*
X134312285Y-91827376D01*
X134485212Y-91750383D01*
X134638353Y-91639120D01*
X134669075Y-91605000D01*
X141375790Y-91605000D01*
X141395576Y-91793257D01*
X141454070Y-91973284D01*
X141548716Y-92137216D01*
X141675379Y-92277889D01*
X141828519Y-92389151D01*
X142001447Y-92466144D01*
X142186602Y-92505500D01*
X142186604Y-92505500D01*
X142375896Y-92505500D01*
X142375898Y-92505500D01*
X142561049Y-92466145D01*
X142561049Y-92466144D01*
X142561053Y-92466144D01*
X142602750Y-92447578D01*
X142653184Y-92436858D01*
X142703620Y-92447578D01*
X142745336Y-92477886D01*
X142835379Y-92577889D01*
X142988519Y-92689151D01*
X143161447Y-92766144D01*
X143346602Y-92805500D01*
X143346604Y-92805500D01*
X143535896Y-92805500D01*
X143535898Y-92805500D01*
X143672087Y-92776552D01*
X143721053Y-92766144D01*
X143893980Y-92689151D01*
X144043047Y-92580848D01*
X144047120Y-92577889D01*
X144051718Y-92572783D01*
X144173783Y-92437216D01*
X144268429Y-92273284D01*
X144326924Y-92093256D01*
X144346710Y-91905000D01*
X144326924Y-91716744D01*
X144278210Y-91566819D01*
X144268429Y-91536715D01*
X144173783Y-91372783D01*
X144047120Y-91232110D01*
X143893980Y-91120848D01*
X143721052Y-91043855D01*
X143619970Y-91022370D01*
X143569408Y-90998794D01*
X143534300Y-90955438D01*
X143521750Y-90901080D01*
X143521750Y-86386519D01*
X143531189Y-86339066D01*
X143558069Y-86298838D01*
X144025088Y-85831819D01*
X144065316Y-85804939D01*
X144112769Y-85795500D01*
X145076329Y-85795500D01*
X145083816Y-85795726D01*
X145086956Y-85795915D01*
X145143856Y-85799358D01*
X145203032Y-85788513D01*
X145210431Y-85787387D01*
X145270122Y-85780140D01*
X145279585Y-85776550D01*
X145301208Y-85770522D01*
X145311182Y-85768695D01*
X145366058Y-85743996D01*
X145372935Y-85741148D01*
X145403895Y-85729406D01*
X145469725Y-85723293D01*
X145529340Y-85751876D01*
X145565793Y-85807032D01*
X145584070Y-85863284D01*
X145678716Y-86027216D01*
X145805379Y-86167889D01*
X145958519Y-86279151D01*
X146131447Y-86356144D01*
X146316602Y-86395500D01*
X146316604Y-86395500D01*
X146505896Y-86395500D01*
X146505898Y-86395500D01*
X146651496Y-86364552D01*
X146691053Y-86356144D01*
X146863980Y-86279151D01*
X146899531Y-86253322D01*
X147017120Y-86167889D01*
X147143783Y-86027216D01*
X147238429Y-85863284D01*
X147248653Y-85831819D01*
X147296924Y-85683256D01*
X147316710Y-85495000D01*
X147296924Y-85306744D01*
X147256995Y-85183855D01*
X147238429Y-85126715D01*
X147143783Y-84962783D01*
X147017120Y-84822110D01*
X146863980Y-84710848D01*
X146691053Y-84633855D01*
X146651315Y-84625409D01*
X146604211Y-84604437D01*
X146569709Y-84566119D01*
X146553775Y-84517082D01*
X146536924Y-84356744D01*
X146495823Y-84230249D01*
X146478429Y-84176715D01*
X146383783Y-84012783D01*
X146257120Y-83872110D01*
X146103980Y-83760848D01*
X145931052Y-83683855D01*
X145745898Y-83644500D01*
X145745896Y-83644500D01*
X145556604Y-83644500D01*
X145556601Y-83644500D01*
X145495171Y-83657557D01*
X145443609Y-83657557D01*
X145396505Y-83636585D01*
X145362004Y-83598267D01*
X145283783Y-83462783D01*
X145157120Y-83322110D01*
X145003980Y-83210848D01*
X144831052Y-83133855D01*
X144645898Y-83094500D01*
X144645896Y-83094500D01*
X144456604Y-83094500D01*
X144456602Y-83094500D01*
X144271447Y-83133855D01*
X144098519Y-83210848D01*
X143945379Y-83322110D01*
X143818716Y-83462783D01*
X143724070Y-83626715D01*
X143665576Y-83806742D01*
X143645790Y-83995000D01*
X143665576Y-84183257D01*
X143687684Y-84251297D01*
X143691442Y-84313441D01*
X143664526Y-84369578D01*
X143613719Y-84405559D01*
X143592904Y-84413452D01*
X143571297Y-84419476D01*
X143561319Y-84421305D01*
X143506462Y-84445993D01*
X143499546Y-84448857D01*
X143443320Y-84470181D01*
X143434976Y-84475941D01*
X143415435Y-84486962D01*
X143406191Y-84491122D01*
X143358847Y-84528213D01*
X143352818Y-84532649D01*
X143303320Y-84566816D01*
X143263433Y-84611838D01*
X143258301Y-84617290D01*
X142343540Y-85532051D01*
X142338088Y-85537183D01*
X142293069Y-85577068D01*
X142258899Y-85626570D01*
X142254461Y-85632600D01*
X142217373Y-85679939D01*
X142213213Y-85689183D01*
X142202189Y-85708728D01*
X142196432Y-85717068D01*
X142175103Y-85773305D01*
X142172239Y-85780219D01*
X142147553Y-85835070D01*
X142145725Y-85845047D01*
X142139704Y-85866648D01*
X142136109Y-85876128D01*
X142128859Y-85935827D01*
X142127733Y-85943226D01*
X142116891Y-86002391D01*
X142120524Y-86062434D01*
X142120750Y-86069921D01*
X142120750Y-90618084D01*
X142108200Y-90672442D01*
X142073092Y-90715798D01*
X142022530Y-90739374D01*
X142001447Y-90743855D01*
X141828519Y-90820848D01*
X141675379Y-90932110D01*
X141548716Y-91072783D01*
X141454070Y-91236715D01*
X141395576Y-91416742D01*
X141375790Y-91605000D01*
X134669075Y-91605000D01*
X134765015Y-91498448D01*
X134859661Y-91334516D01*
X134918156Y-91154488D01*
X134937942Y-90966232D01*
X134918156Y-90777976D01*
X134859661Y-90597948D01*
X134859661Y-90597947D01*
X134765015Y-90434015D01*
X134638352Y-90293342D01*
X134485214Y-90182081D01*
X134312283Y-90105087D01*
X134259868Y-90093946D01*
X134202677Y-90064805D01*
X134167719Y-90010974D01*
X134117197Y-89855483D01*
X134022551Y-89691551D01*
X133895888Y-89550878D01*
X133742748Y-89439616D01*
X133569820Y-89362623D01*
X133384666Y-89323268D01*
X133384664Y-89323268D01*
X133195372Y-89323268D01*
X133195370Y-89323268D01*
X133010215Y-89362623D01*
X132837287Y-89439616D01*
X132684147Y-89550878D01*
X132557484Y-89691551D01*
X132462838Y-89855483D01*
X132404344Y-90035510D01*
X132384558Y-90223768D01*
X127463805Y-90223768D01*
X127464779Y-88700000D01*
X138044750Y-88700000D01*
X138063686Y-88868056D01*
X138063686Y-88868058D01*
X138063687Y-88868059D01*
X138119544Y-89027690D01*
X138209523Y-89170890D01*
X138329110Y-89290477D01*
X138472310Y-89380456D01*
X138631941Y-89436313D01*
X138800000Y-89455249D01*
X138968059Y-89436313D01*
X139127690Y-89380456D01*
X139270890Y-89290477D01*
X139390477Y-89170890D01*
X139480456Y-89027690D01*
X139536313Y-88868059D01*
X139555249Y-88700000D01*
X139536313Y-88531941D01*
X139480456Y-88372310D01*
X139390477Y-88229110D01*
X139270890Y-88109523D01*
X139127690Y-88019544D01*
X138968059Y-87963687D01*
X138968058Y-87963686D01*
X138968056Y-87963686D01*
X138800000Y-87944750D01*
X138631943Y-87963686D01*
X138472310Y-88019544D01*
X138329108Y-88109524D01*
X138209524Y-88229108D01*
X138119544Y-88372310D01*
X138063686Y-88531943D01*
X138044750Y-88700000D01*
X127464779Y-88700000D01*
X127466508Y-85995000D01*
X133675790Y-85995000D01*
X133682014Y-86054217D01*
X133695576Y-86183257D01*
X133754071Y-86363285D01*
X133758907Y-86371662D01*
X133775519Y-86433635D01*
X133764907Y-86473285D01*
X133768098Y-86474322D01*
X133705576Y-86666742D01*
X133685790Y-86854999D01*
X133705576Y-87043257D01*
X133764070Y-87223284D01*
X133858716Y-87387216D01*
X133985379Y-87527889D01*
X134138519Y-87639151D01*
X134311447Y-87716144D01*
X134496602Y-87755500D01*
X134496604Y-87755500D01*
X134685896Y-87755500D01*
X134685898Y-87755500D01*
X134809334Y-87729262D01*
X134871053Y-87716144D01*
X135043980Y-87639151D01*
X135053671Y-87632110D01*
X135197120Y-87527889D01*
X135200172Y-87524500D01*
X135323783Y-87387216D01*
X135418429Y-87223284D01*
X135476924Y-87043256D01*
X135496710Y-86855000D01*
X135476924Y-86666744D01*
X135435129Y-86538114D01*
X135418429Y-86486715D01*
X135413593Y-86478339D01*
X135396980Y-86416331D01*
X135407598Y-86376718D01*
X135404401Y-86375680D01*
X135408429Y-86363284D01*
X135466924Y-86183256D01*
X135486710Y-85995000D01*
X135466924Y-85806744D01*
X135426982Y-85683817D01*
X135408429Y-85626715D01*
X135313783Y-85462783D01*
X135187120Y-85322110D01*
X135033980Y-85210848D01*
X134861052Y-85133855D01*
X134675898Y-85094500D01*
X134675896Y-85094500D01*
X134486604Y-85094500D01*
X134486602Y-85094500D01*
X134301447Y-85133855D01*
X134128519Y-85210848D01*
X133975379Y-85322110D01*
X133848716Y-85462783D01*
X133754070Y-85626715D01*
X133695576Y-85806742D01*
X133681230Y-85943237D01*
X133675790Y-85995000D01*
X127466508Y-85995000D01*
X127470671Y-79480207D01*
X127988681Y-79480207D01*
X128008467Y-79668465D01*
X128066961Y-79848492D01*
X128161607Y-80012424D01*
X128288270Y-80153097D01*
X128441410Y-80264359D01*
X128614334Y-80341351D01*
X128614337Y-80341351D01*
X128614338Y-80341352D01*
X128679471Y-80355195D01*
X128712857Y-80367512D01*
X128741371Y-80388805D01*
X128813201Y-80460635D01*
X128824977Y-80474260D01*
X128839323Y-80493530D01*
X128860570Y-80511358D01*
X128877272Y-80525373D01*
X128885246Y-80532680D01*
X128889157Y-80536591D01*
X128907605Y-80551178D01*
X128913476Y-80555820D01*
X128916263Y-80558090D01*
X128973719Y-80606302D01*
X128973721Y-80606303D01*
X128974683Y-80607110D01*
X128991113Y-80617578D01*
X128992255Y-80618110D01*
X128992256Y-80618111D01*
X129060283Y-80649832D01*
X129063460Y-80651371D01*
X129101945Y-80670699D01*
X129131635Y-80685610D01*
X129150018Y-80691999D01*
X129151255Y-80692254D01*
X129151261Y-80692257D01*
X129224785Y-80707437D01*
X129228219Y-80708199D01*
X129267573Y-80717527D01*
X129302439Y-80725791D01*
X129321812Y-80727770D01*
X129323074Y-80727733D01*
X129323078Y-80727734D01*
X129395467Y-80725627D01*
X129398065Y-80725552D01*
X129401671Y-80725500D01*
X134199020Y-80725500D01*
X134246473Y-80734939D01*
X134286701Y-80761819D01*
X136665517Y-83140634D01*
X136677298Y-83154266D01*
X136691640Y-83173530D01*
X136729605Y-83205386D01*
X136737567Y-83212684D01*
X136741474Y-83216591D01*
X136765792Y-83235819D01*
X136768548Y-83238063D01*
X136826036Y-83286302D01*
X136826038Y-83286303D01*
X136827007Y-83287116D01*
X136843427Y-83297576D01*
X136844571Y-83298109D01*
X136844573Y-83298111D01*
X136912607Y-83329835D01*
X136915706Y-83331335D01*
X136982817Y-83365040D01*
X136983954Y-83365611D01*
X137002334Y-83371998D01*
X137003571Y-83372253D01*
X137003577Y-83372256D01*
X137077112Y-83387439D01*
X137080459Y-83388181D01*
X137153529Y-83405500D01*
X137153531Y-83405500D01*
X137154755Y-83405790D01*
X137174126Y-83407769D01*
X137175390Y-83407732D01*
X137175394Y-83407733D01*
X137250360Y-83405552D01*
X137253966Y-83405500D01*
X138401278Y-83405500D01*
X138442232Y-83412458D01*
X138465381Y-83420558D01*
X138521995Y-83440368D01*
X138701250Y-83460565D01*
X138880505Y-83440368D01*
X139050772Y-83380789D01*
X139203512Y-83284816D01*
X139331066Y-83157262D01*
X139427039Y-83004522D01*
X139486618Y-82834255D01*
X139506815Y-82655000D01*
X139486618Y-82475745D01*
X139427039Y-82305478D01*
X139331066Y-82152738D01*
X139331065Y-82152737D01*
X139331064Y-82152735D01*
X139203514Y-82025185D01*
X139063830Y-81937416D01*
X139050772Y-81929211D01*
X138880505Y-81869632D01*
X138880503Y-81869631D01*
X138880501Y-81869631D01*
X138701250Y-81849434D01*
X138521997Y-81869631D01*
X138442232Y-81897542D01*
X138401278Y-81904500D01*
X137603480Y-81904500D01*
X137556027Y-81895061D01*
X137515799Y-81868181D01*
X135136978Y-79489360D01*
X135125196Y-79475727D01*
X135121069Y-79470184D01*
X135110860Y-79456470D01*
X135072917Y-79424631D01*
X135064941Y-79417323D01*
X135061032Y-79413414D01*
X135061027Y-79413409D01*
X135036673Y-79394152D01*
X135033897Y-79391890D01*
X134975501Y-79342890D01*
X134959071Y-79332422D01*
X134889941Y-79300186D01*
X134886697Y-79298615D01*
X134818556Y-79264394D01*
X134800153Y-79257997D01*
X134798923Y-79257743D01*
X134725456Y-79242572D01*
X134721942Y-79241794D01*
X134647740Y-79224208D01*
X134628371Y-79222229D01*
X134552119Y-79224448D01*
X134548513Y-79224500D01*
X129847990Y-79224500D01*
X129797555Y-79213780D01*
X129755840Y-79183473D01*
X129730059Y-79138819D01*
X129721319Y-79111922D01*
X129626674Y-78947991D01*
X129500011Y-78807318D01*
X129346871Y-78696056D01*
X129173943Y-78619063D01*
X128988789Y-78579708D01*
X128988787Y-78579708D01*
X128799495Y-78579708D01*
X128799493Y-78579708D01*
X128614338Y-78619063D01*
X128441410Y-78696056D01*
X128288270Y-78807318D01*
X128161607Y-78947991D01*
X128066961Y-79111923D01*
X128008467Y-79291950D01*
X127988681Y-79480207D01*
X127470671Y-79480207D01*
X127474774Y-73059518D01*
X127491792Y-72996904D01*
X127538105Y-72951455D01*
X127601031Y-72935621D01*
X127663340Y-72953736D01*
X127707966Y-73000838D01*
X127743398Y-73066681D01*
X127883742Y-73242666D01*
X128053254Y-73390765D01*
X128053256Y-73390766D01*
X128246487Y-73506216D01*
X128364464Y-73550493D01*
X128457226Y-73585307D01*
X128678703Y-73625500D01*
X128847403Y-73625500D01*
X128847405Y-73625500D01*
X129015438Y-73610377D01*
X129232420Y-73550493D01*
X129435223Y-73452829D01*
X129617328Y-73320522D01*
X129772882Y-73157825D01*
X129896885Y-72969968D01*
X129985353Y-72762988D01*
X130035441Y-72543537D01*
X130045540Y-72318670D01*
X130015325Y-72095613D01*
X129945767Y-71881536D01*
X129839102Y-71683319D01*
X129698758Y-71507334D01*
X129529246Y-71359235D01*
X129529243Y-71359233D01*
X129336012Y-71243783D01*
X129125275Y-71164693D01*
X128903797Y-71124500D01*
X128735095Y-71124500D01*
X128667881Y-71130549D01*
X128567059Y-71139623D01*
X128350078Y-71199507D01*
X128147277Y-71297170D01*
X127965175Y-71429475D01*
X127809615Y-71592178D01*
X127719522Y-71728664D01*
X127668793Y-71772570D01*
X127602619Y-71783625D01*
X127540373Y-71758594D01*
X127500276Y-71704804D01*
X127494066Y-71638002D01*
X127496449Y-71625000D01*
X127540969Y-71382057D01*
X127544548Y-71367539D01*
X127622699Y-71116743D01*
X127628001Y-71102762D01*
X127735822Y-70863194D01*
X127742767Y-70849961D01*
X127878677Y-70625139D01*
X127887164Y-70612843D01*
X128049183Y-70406041D01*
X128059098Y-70394850D01*
X128244850Y-70209098D01*
X128256041Y-70199183D01*
X128462843Y-70037164D01*
X128475139Y-70028677D01*
X128699961Y-69892767D01*
X128713194Y-69885822D01*
X128952762Y-69778001D01*
X128966743Y-69772699D01*
X129217539Y-69694548D01*
X129232057Y-69690969D01*
X129490450Y-69643617D01*
X129505307Y-69641813D01*
X129771263Y-69625726D01*
X129778751Y-69625500D01*
X129842346Y-69625500D01*
X129842391Y-69625488D01*
X139152264Y-69624087D01*
X139214155Y-69640627D01*
G37*
G04 #@! TD.AperFunction*
G04 #@! TA.AperFunction,Conductor*
G36*
X169485263Y-92417171D02*
G01*
X169519677Y-92468676D01*
X169574209Y-92624519D01*
X169655494Y-92753883D01*
X169674500Y-92819855D01*
X169674500Y-94051006D01*
X169672235Y-94071512D01*
X169674439Y-94141623D01*
X169674500Y-94145518D01*
X169674500Y-94173099D01*
X169675003Y-94177084D01*
X169675918Y-94188717D01*
X169677290Y-94232376D01*
X169682879Y-94251610D01*
X169686825Y-94270666D01*
X169689335Y-94290542D01*
X169705414Y-94331154D01*
X169709197Y-94342201D01*
X169721382Y-94384141D01*
X169731580Y-94401385D01*
X169740136Y-94418850D01*
X169747514Y-94437482D01*
X169758066Y-94452006D01*
X169773180Y-94472809D01*
X169779593Y-94482572D01*
X169801826Y-94520166D01*
X169801829Y-94520169D01*
X169801830Y-94520170D01*
X169815995Y-94534335D01*
X169828627Y-94549125D01*
X169840406Y-94565337D01*
X169874058Y-94593176D01*
X169882699Y-94601039D01*
X170122288Y-94840629D01*
X170146527Y-94874926D01*
X170157928Y-94915348D01*
X170175576Y-95083257D01*
X170234071Y-95263285D01*
X170242856Y-95278502D01*
X170259468Y-95340501D01*
X170242855Y-95402501D01*
X170197468Y-95447887D01*
X170135468Y-95464500D01*
X169426171Y-95464500D01*
X169418684Y-95464274D01*
X169358641Y-95460641D01*
X169299477Y-95471483D01*
X169292078Y-95472610D01*
X169232374Y-95479860D01*
X169222901Y-95483453D01*
X169201297Y-95489476D01*
X169191319Y-95491305D01*
X169136475Y-95515987D01*
X169129560Y-95518851D01*
X169073320Y-95540181D01*
X169064973Y-95545943D01*
X169045437Y-95556961D01*
X169036194Y-95561121D01*
X168988858Y-95598205D01*
X168982832Y-95602639D01*
X168933322Y-95636816D01*
X168893434Y-95681838D01*
X168888302Y-95687289D01*
X168287412Y-96288181D01*
X168247184Y-96315061D01*
X168199731Y-96324500D01*
X165818818Y-96324500D01*
X165760604Y-96309985D01*
X165716017Y-96269840D01*
X165695497Y-96213461D01*
X165676924Y-96036744D01*
X165634838Y-95907216D01*
X165618429Y-95856715D01*
X165523785Y-95692786D01*
X165503902Y-95670704D01*
X165473598Y-95637048D01*
X165449986Y-95598516D01*
X165441750Y-95554078D01*
X165441750Y-95135505D01*
X165444091Y-95114294D01*
X165441811Y-95041724D01*
X165441750Y-95037829D01*
X165441750Y-95009082D01*
X165441750Y-95009075D01*
X165441197Y-95004700D01*
X165440281Y-94993063D01*
X165438848Y-94947431D01*
X165432925Y-94927045D01*
X165428981Y-94908004D01*
X165426321Y-94886942D01*
X165409517Y-94844500D01*
X165405734Y-94833452D01*
X165401017Y-94817216D01*
X165392995Y-94789602D01*
X165389844Y-94784275D01*
X165382187Y-94771326D01*
X165373626Y-94753850D01*
X165365818Y-94734129D01*
X165338981Y-94697191D01*
X165332567Y-94687425D01*
X165309331Y-94648135D01*
X165294324Y-94633128D01*
X165281686Y-94618331D01*
X165269213Y-94601163D01*
X165234029Y-94572056D01*
X165225390Y-94564194D01*
X164461684Y-93800488D01*
X164448341Y-93783833D01*
X164395416Y-93734134D01*
X164392619Y-93731423D01*
X164372284Y-93711088D01*
X164368797Y-93708383D01*
X164359921Y-93700801D01*
X164326644Y-93669552D01*
X164308043Y-93659326D01*
X164291782Y-93648645D01*
X164277048Y-93637216D01*
X164275014Y-93635638D01*
X164251427Y-93625431D01*
X164233119Y-93617508D01*
X164222629Y-93612369D01*
X164182617Y-93590372D01*
X164162050Y-93585091D01*
X164143648Y-93578791D01*
X164124174Y-93570364D01*
X164079087Y-93563223D01*
X164067648Y-93560854D01*
X164023428Y-93549500D01*
X164023427Y-93549500D01*
X164002205Y-93549500D01*
X163982806Y-93547973D01*
X163961846Y-93544653D01*
X163961845Y-93544653D01*
X163939808Y-93546736D01*
X163916389Y-93548950D01*
X163904720Y-93549500D01*
X162126755Y-93549500D01*
X162105544Y-93547158D01*
X162032974Y-93549439D01*
X162029079Y-93549500D01*
X162000324Y-93549500D01*
X161995951Y-93550052D01*
X161984319Y-93550967D01*
X161938678Y-93552401D01*
X161918291Y-93558324D01*
X161899248Y-93562268D01*
X161878192Y-93564928D01*
X161835746Y-93581733D01*
X161824700Y-93585514D01*
X161780852Y-93598254D01*
X161762574Y-93609063D01*
X161745111Y-93617618D01*
X161725380Y-93625431D01*
X161688437Y-93652270D01*
X161678678Y-93658680D01*
X161639385Y-93681918D01*
X161624375Y-93696928D01*
X161609586Y-93709558D01*
X161592414Y-93722034D01*
X161563307Y-93757218D01*
X161555446Y-93765856D01*
X161023123Y-94298181D01*
X160982895Y-94325061D01*
X160935442Y-94334500D01*
X155836755Y-94334500D01*
X155815545Y-94332158D01*
X155742988Y-94334439D01*
X155739093Y-94334500D01*
X155710321Y-94334500D01*
X155705940Y-94335053D01*
X155694309Y-94335968D01*
X155648678Y-94337402D01*
X155628302Y-94343322D01*
X155609256Y-94347267D01*
X155588189Y-94349928D01*
X155545737Y-94366736D01*
X155534689Y-94370519D01*
X155490850Y-94383256D01*
X155472580Y-94394061D01*
X155455112Y-94402618D01*
X155451291Y-94404132D01*
X155435376Y-94410433D01*
X155398441Y-94437266D01*
X155388685Y-94443675D01*
X155349385Y-94466918D01*
X155334375Y-94481928D01*
X155319586Y-94494558D01*
X155302414Y-94507034D01*
X155273307Y-94542218D01*
X155265446Y-94550856D01*
X154991734Y-94824568D01*
X154975081Y-94837910D01*
X154925383Y-94890833D01*
X154922677Y-94893626D01*
X154902333Y-94913971D01*
X154899626Y-94917460D01*
X154892057Y-94926321D01*
X154860801Y-94959607D01*
X154850572Y-94978212D01*
X154839895Y-94994467D01*
X154826886Y-95011238D01*
X154808756Y-95053132D01*
X154803620Y-95063616D01*
X154781622Y-95103632D01*
X154776341Y-95124199D01*
X154770041Y-95142600D01*
X154761614Y-95162074D01*
X154754473Y-95207161D01*
X154752105Y-95218593D01*
X154741271Y-95260796D01*
X154740750Y-95262824D01*
X154740750Y-95284045D01*
X154739223Y-95303444D01*
X154735903Y-95324403D01*
X154740200Y-95369861D01*
X154740750Y-95381530D01*
X154740750Y-95649495D01*
X154738408Y-95670704D01*
X154740689Y-95743262D01*
X154740750Y-95747157D01*
X154740750Y-95775926D01*
X154741303Y-95780307D01*
X154742218Y-95791940D01*
X154743652Y-95837569D01*
X154749573Y-95857950D01*
X154753517Y-95876995D01*
X154756178Y-95898059D01*
X154758869Y-95904855D01*
X154766827Y-95964109D01*
X154746133Y-96020200D01*
X154701599Y-96060087D01*
X154643576Y-96074500D01*
X153916755Y-96074500D01*
X153895544Y-96072158D01*
X153822974Y-96074439D01*
X153819079Y-96074500D01*
X153790324Y-96074500D01*
X153785951Y-96075052D01*
X153774319Y-96075967D01*
X153728678Y-96077401D01*
X153708291Y-96083324D01*
X153689248Y-96087268D01*
X153668192Y-96089928D01*
X153625746Y-96106733D01*
X153614700Y-96110514D01*
X153570852Y-96123254D01*
X153552574Y-96134063D01*
X153535111Y-96142618D01*
X153515380Y-96150431D01*
X153478437Y-96177270D01*
X153468678Y-96183680D01*
X153429385Y-96206918D01*
X153414375Y-96221928D01*
X153399586Y-96234558D01*
X153382414Y-96247034D01*
X153353307Y-96282218D01*
X153345446Y-96290856D01*
X152818123Y-96818181D01*
X152777895Y-96845061D01*
X152730442Y-96854500D01*
X150855750Y-96854500D01*
X150793750Y-96837887D01*
X150748363Y-96792500D01*
X150731750Y-96730500D01*
X150731750Y-96480505D01*
X150734091Y-96459294D01*
X150733779Y-96449378D01*
X150731811Y-96386724D01*
X150731750Y-96382829D01*
X150731750Y-96354082D01*
X150731750Y-96354075D01*
X150731197Y-96349700D01*
X150730281Y-96338063D01*
X150729853Y-96324430D01*
X150728848Y-96292431D01*
X150725881Y-96282218D01*
X150722927Y-96272051D01*
X150718980Y-96253001D01*
X150716321Y-96231942D01*
X150710226Y-96216548D01*
X150702196Y-96157940D01*
X150706710Y-96115000D01*
X150686924Y-95926744D01*
X150643123Y-95791940D01*
X150628429Y-95746715D01*
X150533783Y-95582783D01*
X150407120Y-95442110D01*
X150253980Y-95330848D01*
X150096643Y-95260796D01*
X150046760Y-95220402D01*
X150023758Y-95160478D01*
X150033800Y-95097081D01*
X150074191Y-95047201D01*
X150197121Y-94957888D01*
X150323783Y-94817216D01*
X150418429Y-94653284D01*
X150476924Y-94473256D01*
X150496710Y-94285000D01*
X150476924Y-94096744D01*
X150418429Y-93916716D01*
X150418429Y-93916715D01*
X150323783Y-93752783D01*
X150323600Y-93752580D01*
X150299986Y-93714045D01*
X150291750Y-93669608D01*
X150291750Y-92919500D01*
X150308363Y-92857500D01*
X150353750Y-92812113D01*
X150415750Y-92795500D01*
X165741287Y-92795500D01*
X165806997Y-92814342D01*
X165852737Y-92865142D01*
X165864607Y-92932459D01*
X165848808Y-93082783D01*
X165845790Y-93111500D01*
X165865576Y-93299757D01*
X165924070Y-93479784D01*
X166018716Y-93643716D01*
X166145379Y-93784389D01*
X166298519Y-93895651D01*
X166471447Y-93972644D01*
X166656602Y-94012000D01*
X166656604Y-94012000D01*
X166845896Y-94012000D01*
X166845898Y-94012000D01*
X166981005Y-93983282D01*
X167031053Y-93972644D01*
X167203980Y-93895651D01*
X167232873Y-93874659D01*
X167357120Y-93784389D01*
X167483783Y-93643716D01*
X167578429Y-93479784D01*
X167595663Y-93426742D01*
X167636924Y-93299756D01*
X167656710Y-93111500D01*
X167637892Y-92932459D01*
X167649763Y-92865142D01*
X167695503Y-92814342D01*
X167761213Y-92795500D01*
X168626329Y-92795500D01*
X168633816Y-92795726D01*
X168636956Y-92795915D01*
X168693856Y-92799358D01*
X168753032Y-92788513D01*
X168760431Y-92787387D01*
X168820122Y-92780140D01*
X168829585Y-92776550D01*
X168851208Y-92770522D01*
X168861182Y-92768695D01*
X168916058Y-92743996D01*
X168922923Y-92741152D01*
X168979180Y-92719818D01*
X168987520Y-92714060D01*
X169007069Y-92703035D01*
X169016307Y-92698878D01*
X169063663Y-92661775D01*
X169069670Y-92657355D01*
X169119179Y-92623183D01*
X169159073Y-92578150D01*
X169164174Y-92572731D01*
X169314957Y-92421948D01*
X169368308Y-92390477D01*
X169430228Y-92388740D01*
X169485263Y-92417171D01*
G37*
G04 #@! TD.AperFunction*
G04 #@! TA.AperFunction,Conductor*
G36*
X172799635Y-87264490D02*
G01*
X172837235Y-87308513D01*
X172850750Y-87364808D01*
X172850750Y-90243482D01*
X172841311Y-90290935D01*
X172814433Y-90331160D01*
X172667409Y-90478183D01*
X172627184Y-90505061D01*
X172579731Y-90514500D01*
X171251945Y-90514500D01*
X171194004Y-90500130D01*
X171149491Y-90460351D01*
X171128725Y-90404383D01*
X171122118Y-90345749D01*
X171122118Y-90345748D01*
X171122118Y-90345745D01*
X171062539Y-90175478D01*
X170966566Y-90022738D01*
X170966565Y-90022737D01*
X170966564Y-90022735D01*
X170839014Y-89895185D01*
X170744089Y-89835540D01*
X170686272Y-89799211D01*
X170516005Y-89739632D01*
X170516003Y-89739631D01*
X170516001Y-89739631D01*
X170336750Y-89719434D01*
X170157498Y-89739631D01*
X170157495Y-89739631D01*
X170157495Y-89739632D01*
X169987228Y-89799211D01*
X169987226Y-89799211D01*
X169987226Y-89799212D01*
X169834485Y-89895185D01*
X169706935Y-90022735D01*
X169610962Y-90175476D01*
X169610961Y-90175478D01*
X169570561Y-90290935D01*
X169551381Y-90345748D01*
X169544041Y-90410890D01*
X169527304Y-90460545D01*
X169491552Y-90498853D01*
X169443170Y-90518974D01*
X169429477Y-90521483D01*
X169422078Y-90522610D01*
X169362374Y-90529860D01*
X169352901Y-90533453D01*
X169331297Y-90539476D01*
X169321319Y-90541305D01*
X169266462Y-90565993D01*
X169259546Y-90568857D01*
X169203320Y-90590181D01*
X169194976Y-90595941D01*
X169175435Y-90606962D01*
X169166191Y-90611122D01*
X169118847Y-90648213D01*
X169112818Y-90652649D01*
X169063320Y-90686816D01*
X169023433Y-90731838D01*
X169018301Y-90737290D01*
X168397412Y-91358181D01*
X168357184Y-91385061D01*
X168309731Y-91394500D01*
X168307857Y-91394500D01*
X168245717Y-91377806D01*
X168200308Y-91332219D01*
X168183858Y-91270014D01*
X168183862Y-91269151D01*
X168186021Y-90718498D01*
X168189274Y-89889014D01*
X168206048Y-89827219D01*
X168251413Y-89782032D01*
X168313273Y-89765500D01*
X168565745Y-89765500D01*
X168586954Y-89767841D01*
X168589544Y-89767759D01*
X168589546Y-89767760D01*
X168659512Y-89765560D01*
X168663407Y-89765500D01*
X168692170Y-89765500D01*
X168692175Y-89765500D01*
X168696552Y-89764946D01*
X168708191Y-89764030D01*
X168753819Y-89762597D01*
X168774199Y-89756675D01*
X168793239Y-89752732D01*
X168814308Y-89750071D01*
X168856770Y-89733258D01*
X168867807Y-89729480D01*
X168911648Y-89716744D01*
X168929920Y-89705936D01*
X168947386Y-89697380D01*
X168967121Y-89689568D01*
X169004066Y-89662725D01*
X169013798Y-89656332D01*
X169053115Y-89633081D01*
X169068124Y-89618071D01*
X169082913Y-89605439D01*
X169100087Y-89592963D01*
X169129196Y-89557774D01*
X169137040Y-89549154D01*
X170674376Y-88011819D01*
X170714605Y-87984939D01*
X170762058Y-87975500D01*
X171585745Y-87975500D01*
X171606954Y-87977841D01*
X171609544Y-87977759D01*
X171609546Y-87977760D01*
X171679512Y-87975560D01*
X171683407Y-87975500D01*
X171712170Y-87975500D01*
X171712175Y-87975500D01*
X171716552Y-87974946D01*
X171728191Y-87974030D01*
X171773819Y-87972597D01*
X171794199Y-87966675D01*
X171813239Y-87962732D01*
X171834308Y-87960071D01*
X171876770Y-87943258D01*
X171887807Y-87939480D01*
X171931648Y-87926744D01*
X171949920Y-87915936D01*
X171967386Y-87907380D01*
X171987121Y-87899568D01*
X172024066Y-87872725D01*
X172033798Y-87866332D01*
X172073115Y-87843081D01*
X172088124Y-87828071D01*
X172102913Y-87815439D01*
X172120087Y-87802963D01*
X172149196Y-87767774D01*
X172157040Y-87759154D01*
X172639068Y-87277127D01*
X172688432Y-87246877D01*
X172746148Y-87242335D01*
X172799635Y-87264490D01*
G37*
G04 #@! TD.AperFunction*
G04 #@! TA.AperFunction,Conductor*
G36*
X149878973Y-81641010D02*
G01*
X149934946Y-81678409D01*
X149963129Y-81739542D01*
X149955218Y-81806392D01*
X149952972Y-81811815D01*
X149948233Y-81823257D01*
X149939956Y-81843239D01*
X149919317Y-81999999D01*
X149923439Y-82031301D01*
X149924500Y-82047487D01*
X149924500Y-84652513D01*
X149923439Y-84668699D01*
X149919317Y-84700000D01*
X149931532Y-84792773D01*
X149931532Y-84792774D01*
X149939956Y-84856762D01*
X150000463Y-85002840D01*
X150096716Y-85128281D01*
X150103981Y-85133855D01*
X150114495Y-85141923D01*
X150121768Y-85147503D01*
X150133964Y-85158199D01*
X150859850Y-85884085D01*
X150890591Y-85934995D01*
X150894093Y-85994363D01*
X150869548Y-86048533D01*
X150822606Y-86085045D01*
X150812358Y-86089608D01*
X150697265Y-86140850D01*
X150544129Y-86252110D01*
X150417466Y-86392783D01*
X150322821Y-86556714D01*
X150297739Y-86633909D01*
X150263979Y-86686646D01*
X150208755Y-86716164D01*
X150146149Y-86714934D01*
X150092127Y-86683271D01*
X149486819Y-86077964D01*
X149459939Y-86037736D01*
X149450500Y-85990283D01*
X149450500Y-82025097D01*
X149459939Y-81977644D01*
X149486819Y-81937416D01*
X149617843Y-81806392D01*
X149752976Y-81671258D01*
X149811708Y-81638367D01*
X149878973Y-81641010D01*
G37*
G04 #@! TD.AperFunction*
G04 #@! TA.AperFunction,Conductor*
G36*
X166159363Y-78833598D02*
G01*
X166981858Y-79656093D01*
X167008938Y-79696807D01*
X167018173Y-79744825D01*
X167014163Y-80217948D01*
X167001746Y-80270991D01*
X166967794Y-80313593D01*
X166918859Y-80337532D01*
X166864386Y-80338187D01*
X166705898Y-80304500D01*
X166705896Y-80304500D01*
X166516604Y-80304500D01*
X166516602Y-80304500D01*
X166331447Y-80343855D01*
X166158520Y-80420847D01*
X166139630Y-80434572D01*
X166086143Y-80456726D01*
X166028427Y-80452183D01*
X165979065Y-80421933D01*
X165948816Y-80372570D01*
X165946924Y-80366748D01*
X165946924Y-80366744D01*
X165888429Y-80186716D01*
X165888429Y-80186715D01*
X165793783Y-80022783D01*
X165667120Y-79882110D01*
X165513982Y-79770849D01*
X165455716Y-79744908D01*
X165408772Y-79708396D01*
X165384227Y-79654225D01*
X165387729Y-79594857D01*
X165418468Y-79543949D01*
X165632205Y-79330212D01*
X165648351Y-79317278D01*
X165650320Y-79315180D01*
X165650323Y-79315179D01*
X165696544Y-79265957D01*
X165699162Y-79263255D01*
X165718784Y-79243635D01*
X165721261Y-79240440D01*
X165728842Y-79231563D01*
X165758854Y-79199606D01*
X165768553Y-79181961D01*
X165779232Y-79165703D01*
X165791569Y-79149801D01*
X165808976Y-79109573D01*
X165814112Y-79099090D01*
X165835233Y-79060673D01*
X165840238Y-79041179D01*
X165846544Y-79022762D01*
X165856317Y-79000179D01*
X165864563Y-78973624D01*
X165884330Y-78944038D01*
X165979533Y-78838304D01*
X166035428Y-78802697D01*
X166101681Y-78800962D01*
X166159363Y-78833598D01*
G37*
G04 #@! TD.AperFunction*
G04 #@! TA.AperFunction,Conductor*
G36*
X161887500Y-78092113D02*
G01*
X161932887Y-78137500D01*
X161949500Y-78199500D01*
X161949500Y-78559620D01*
X161948439Y-78575806D01*
X161944317Y-78607107D01*
X161955952Y-78695477D01*
X161957774Y-78709313D01*
X161947218Y-78777904D01*
X161901461Y-78830080D01*
X161834835Y-78849500D01*
X160522487Y-78849500D01*
X160506302Y-78848439D01*
X160502376Y-78847922D01*
X160474999Y-78844317D01*
X160439741Y-78848959D01*
X160435639Y-78849500D01*
X160318237Y-78864956D01*
X160157076Y-78931711D01*
X160156713Y-78930836D01*
X160119124Y-78946887D01*
X160057852Y-78940849D01*
X160007036Y-78906085D01*
X159979206Y-78851165D01*
X159981221Y-78789629D01*
X160012584Y-78736650D01*
X160637416Y-78111819D01*
X160677644Y-78084939D01*
X160725097Y-78075500D01*
X161825500Y-78075500D01*
X161887500Y-78092113D01*
G37*
G04 #@! TD.AperFunction*
M02*
