G04 #@! TF.GenerationSoftware,KiCad,Pcbnew,9.0.0*
G04 #@! TF.CreationDate,2025-02-24T19:41:20+01:00*
G04 #@! TF.ProjectId,SourceFIle,536f7572-6365-4464-996c-652e6b696361,02*
G04 #@! TF.SameCoordinates,Original*
G04 #@! TF.FileFunction,Copper,L1,Top*
G04 #@! TF.FilePolarity,Positive*
%FSLAX46Y46*%
G04 Gerber Fmt 4.6, Leading zero omitted, Abs format (unit mm)*
G04 Created by KiCad (PCBNEW 9.0.0) date 2025-02-24 19:41:20*
%MOMM*%
%LPD*%
G01*
G04 APERTURE LIST*
G04 Aperture macros list*
%AMRoundRect*
0 Rectangle with rounded corners*
0 $1 Rounding radius*
0 $2 $3 $4 $5 $6 $7 $8 $9 X,Y pos of 4 corners*
0 Add a 4 corners polygon primitive as box body*
4,1,4,$2,$3,$4,$5,$6,$7,$8,$9,$2,$3,0*
0 Add four circle primitives for the rounded corners*
1,1,$1+$1,$2,$3*
1,1,$1+$1,$4,$5*
1,1,$1+$1,$6,$7*
1,1,$1+$1,$8,$9*
0 Add four rect primitives between the rounded corners*
20,1,$1+$1,$2,$3,$4,$5,0*
20,1,$1+$1,$4,$5,$6,$7,0*
20,1,$1+$1,$6,$7,$8,$9,0*
20,1,$1+$1,$8,$9,$2,$3,0*%
G04 Aperture macros list end*
G04 #@! TA.AperFunction,SMDPad,CuDef*
%ADD10RoundRect,0.225000X-0.225000X-0.250000X0.225000X-0.250000X0.225000X0.250000X-0.225000X0.250000X0*%
G04 #@! TD*
G04 #@! TA.AperFunction,SMDPad,CuDef*
%ADD11RoundRect,0.225000X-0.250000X0.225000X-0.250000X-0.225000X0.250000X-0.225000X0.250000X0.225000X0*%
G04 #@! TD*
G04 #@! TA.AperFunction,SMDPad,CuDef*
%ADD12RoundRect,0.225000X0.225000X0.250000X-0.225000X0.250000X-0.225000X-0.250000X0.225000X-0.250000X0*%
G04 #@! TD*
G04 #@! TA.AperFunction,SMDPad,CuDef*
%ADD13R,1.350000X0.400000*%
G04 #@! TD*
G04 #@! TA.AperFunction,SMDPad,CuDef*
%ADD14R,1.600000X2.100000*%
G04 #@! TD*
G04 #@! TA.AperFunction,SMDPad,CuDef*
%ADD15R,1.900000X1.800000*%
G04 #@! TD*
G04 #@! TA.AperFunction,SMDPad,CuDef*
%ADD16R,1.900000X1.900000*%
G04 #@! TD*
G04 #@! TA.AperFunction,SMDPad,CuDef*
%ADD17R,1.500000X0.900000*%
G04 #@! TD*
G04 #@! TA.AperFunction,SMDPad,CuDef*
%ADD18R,0.900000X1.500000*%
G04 #@! TD*
G04 #@! TA.AperFunction,SMDPad,CuDef*
%ADD19R,0.900000X0.900000*%
G04 #@! TD*
G04 #@! TA.AperFunction,ComponentPad*
%ADD20R,1.700000X1.700000*%
G04 #@! TD*
G04 #@! TA.AperFunction,ComponentPad*
%ADD21O,1.700000X1.700000*%
G04 #@! TD*
G04 #@! TA.AperFunction,SMDPad,CuDef*
%ADD22RoundRect,0.150000X-0.512500X-0.150000X0.512500X-0.150000X0.512500X0.150000X-0.512500X0.150000X0*%
G04 #@! TD*
G04 #@! TA.AperFunction,SMDPad,CuDef*
%ADD23RoundRect,0.243750X-0.456250X0.243750X-0.456250X-0.243750X0.456250X-0.243750X0.456250X0.243750X0*%
G04 #@! TD*
G04 #@! TA.AperFunction,SMDPad,CuDef*
%ADD24RoundRect,0.200000X0.275000X-0.200000X0.275000X0.200000X-0.275000X0.200000X-0.275000X-0.200000X0*%
G04 #@! TD*
G04 #@! TA.AperFunction,SMDPad,CuDef*
%ADD25R,1.700000X0.900000*%
G04 #@! TD*
G04 #@! TA.AperFunction,SMDPad,CuDef*
%ADD26RoundRect,0.200000X-0.200000X-0.275000X0.200000X-0.275000X0.200000X0.275000X-0.200000X0.275000X0*%
G04 #@! TD*
G04 #@! TA.AperFunction,SMDPad,CuDef*
%ADD27R,0.576580X0.351536*%
G04 #@! TD*
G04 #@! TA.AperFunction,SMDPad,CuDef*
%ADD28R,0.351536X0.576580*%
G04 #@! TD*
G04 #@! TA.AperFunction,SMDPad,CuDef*
%ADD29RoundRect,0.250000X0.475000X-0.250000X0.475000X0.250000X-0.475000X0.250000X-0.475000X-0.250000X0*%
G04 #@! TD*
G04 #@! TA.AperFunction,SMDPad,CuDef*
%ADD30RoundRect,0.250000X0.650000X-0.325000X0.650000X0.325000X-0.650000X0.325000X-0.650000X-0.325000X0*%
G04 #@! TD*
G04 #@! TA.AperFunction,SMDPad,CuDef*
%ADD31RoundRect,0.200000X-0.275000X0.200000X-0.275000X-0.200000X0.275000X-0.200000X0.275000X0.200000X0*%
G04 #@! TD*
G04 #@! TA.AperFunction,SMDPad,CuDef*
%ADD32RoundRect,0.225000X0.250000X-0.225000X0.250000X0.225000X-0.250000X0.225000X-0.250000X-0.225000X0*%
G04 #@! TD*
G04 #@! TA.AperFunction,SMDPad,CuDef*
%ADD33R,0.220000X1.790000*%
G04 #@! TD*
G04 #@! TA.AperFunction,SMDPad,CuDef*
%ADD34R,0.240000X1.790000*%
G04 #@! TD*
G04 #@! TA.AperFunction,SMDPad,CuDef*
%ADD35R,0.600000X0.240000*%
G04 #@! TD*
G04 #@! TA.AperFunction,SMDPad,CuDef*
%ADD36R,0.240000X0.600000*%
G04 #@! TD*
G04 #@! TA.AperFunction,SMDPad,CuDef*
%ADD37RoundRect,0.200000X0.200000X0.275000X-0.200000X0.275000X-0.200000X-0.275000X0.200000X-0.275000X0*%
G04 #@! TD*
G04 #@! TA.AperFunction,SMDPad,CuDef*
%ADD38R,2.000000X6.000000*%
G04 #@! TD*
G04 #@! TA.AperFunction,ViaPad*
%ADD39C,0.600000*%
G04 #@! TD*
G04 #@! TA.AperFunction,Conductor*
%ADD40C,0.254000*%
G04 #@! TD*
G04 #@! TA.AperFunction,Conductor*
%ADD41C,0.250000*%
G04 #@! TD*
G04 #@! TA.AperFunction,Conductor*
%ADD42C,0.200000*%
G04 #@! TD*
G04 #@! TA.AperFunction,Conductor*
%ADD43C,0.500000*%
G04 #@! TD*
G04 #@! TA.AperFunction,Conductor*
%ADD44C,0.400000*%
G04 #@! TD*
G04 APERTURE END LIST*
D10*
X128415000Y-91270000D03*
X129965000Y-91270000D03*
D11*
X167325000Y-82798332D03*
X167325000Y-84348332D03*
X171400000Y-95825000D03*
X171400000Y-97375000D03*
D12*
X170850000Y-83073332D03*
X169300000Y-83073332D03*
D13*
X131390000Y-83990000D03*
X131390000Y-84640000D03*
X131390000Y-85290000D03*
X131390000Y-85940000D03*
X131390000Y-86590000D03*
D14*
X131265000Y-82190000D03*
X131265000Y-88390000D03*
D15*
X128715000Y-81490000D03*
D16*
X128715000Y-84090000D03*
X128715000Y-86490000D03*
D15*
X128715000Y-89090000D03*
D17*
X140500000Y-79270000D03*
X140500000Y-80540000D03*
X140500000Y-81810000D03*
X140500000Y-83080000D03*
X140500000Y-84350000D03*
X140500000Y-85620000D03*
X140500000Y-86890000D03*
X140500000Y-88160000D03*
X140500000Y-89430000D03*
X140500000Y-90700000D03*
X140500000Y-91970000D03*
X140500000Y-93240000D03*
X140500000Y-94510000D03*
X140500000Y-95780000D03*
D18*
X142265000Y-97030000D03*
X143535000Y-97030000D03*
X144805000Y-97030000D03*
X146075000Y-97030000D03*
X147345000Y-97030000D03*
X148615000Y-97030000D03*
X149885000Y-97030000D03*
X151155000Y-97030000D03*
X152425000Y-97030000D03*
X153695000Y-97030000D03*
X154965000Y-97030000D03*
X156235000Y-97030000D03*
D17*
X158000000Y-95780000D03*
X158000000Y-94510000D03*
X158000000Y-93240000D03*
X158000000Y-91970000D03*
X158000000Y-90700000D03*
X158000000Y-89430000D03*
X158000000Y-88160000D03*
X158000000Y-86890000D03*
X158000000Y-85620000D03*
X158000000Y-84350000D03*
X158000000Y-83080000D03*
X158000000Y-81810000D03*
X158000000Y-80540000D03*
X158000000Y-79270000D03*
D19*
X147750000Y-86990000D03*
X146350000Y-85590000D03*
X146350000Y-86990000D03*
X146350000Y-88390000D03*
X147750000Y-88390000D03*
X149150000Y-88390000D03*
X149150000Y-86990000D03*
X149150000Y-85590000D03*
X147750000Y-85590000D03*
D20*
X161830000Y-71660000D03*
D21*
X164370000Y-71660000D03*
X166910000Y-71660000D03*
X169450000Y-71660000D03*
X171990000Y-71660000D03*
X174530000Y-71660000D03*
D22*
X134097500Y-84427500D03*
X134097500Y-85377500D03*
X134097500Y-86327500D03*
X136372500Y-86327500D03*
X136372500Y-85377500D03*
X136372500Y-84427500D03*
D23*
X137110000Y-72980000D03*
X137110000Y-74855000D03*
D12*
X170850000Y-79980000D03*
X169300000Y-79980000D03*
D24*
X171201666Y-90403332D03*
X171201666Y-88753332D03*
D12*
X170850000Y-81526666D03*
X169300000Y-81526666D03*
D25*
X173880000Y-99210000D03*
X173880000Y-95810000D03*
D26*
X162575000Y-79636666D03*
X164225000Y-79636666D03*
D27*
X171325300Y-86479633D03*
X171325300Y-85979632D03*
X171325300Y-85479632D03*
X171325300Y-84979631D03*
D28*
X170614999Y-84773332D03*
X170115000Y-84773332D03*
X169615001Y-84773332D03*
D27*
X168904700Y-84979631D03*
X168904700Y-85479632D03*
X168904700Y-85979632D03*
X168904700Y-86479633D03*
D28*
X169615001Y-86685932D03*
X170115000Y-86685932D03*
X170614999Y-86685932D03*
D12*
X170850000Y-78433332D03*
X169300000Y-78433332D03*
D29*
X137470000Y-78810000D03*
X137470000Y-76910000D03*
D23*
X132560000Y-72987500D03*
X132560000Y-74862500D03*
D30*
X135180000Y-79935000D03*
X135180000Y-76985000D03*
D24*
X169500000Y-99150000D03*
X169500000Y-97500000D03*
D31*
X166571666Y-88733332D03*
X166571666Y-90383332D03*
D32*
X173585000Y-85979632D03*
X173585000Y-84429632D03*
D25*
X166520000Y-99210000D03*
X166520000Y-95810000D03*
D33*
X134080000Y-92185000D03*
D34*
X134570000Y-92185000D03*
D33*
X135060000Y-92185000D03*
D35*
X135970000Y-92380000D03*
X135970000Y-91880000D03*
X135970000Y-91380000D03*
X135970000Y-90880000D03*
D36*
X135070000Y-90480000D03*
X134570000Y-90480000D03*
X134070000Y-90480000D03*
D35*
X133170000Y-90880000D03*
X133170000Y-91380000D03*
X133170000Y-91880000D03*
X133170000Y-92380000D03*
D26*
X135000000Y-87920000D03*
X136650000Y-87920000D03*
X162595000Y-81216666D03*
X164245000Y-81216666D03*
D31*
X168115000Y-88733332D03*
X168115000Y-90383332D03*
D26*
X135015000Y-82840000D03*
X136665000Y-82840000D03*
D32*
X164225000Y-84348332D03*
X164225000Y-82798332D03*
D23*
X134790000Y-72987500D03*
X134790000Y-74862500D03*
D32*
X162675000Y-84348332D03*
X162675000Y-82798332D03*
D37*
X130015000Y-92800000D03*
X128365000Y-92800000D03*
D38*
X132465000Y-97090000D03*
X136765000Y-97090000D03*
D32*
X165775000Y-84348332D03*
X165775000Y-82798332D03*
D11*
X164050000Y-95815000D03*
X164050000Y-97365000D03*
D31*
X169658333Y-88733332D03*
X169658333Y-90383332D03*
D39*
X130920000Y-76550000D03*
X146230000Y-84280000D03*
X151580000Y-83470000D03*
X171400000Y-98640000D03*
X148450000Y-89640000D03*
X144810000Y-86037000D03*
X135010000Y-71300000D03*
X150840000Y-86080000D03*
X167100000Y-78840000D03*
X141760000Y-90850000D03*
X135065797Y-86945000D03*
X147050000Y-89640000D03*
X150820000Y-84270000D03*
X136190000Y-81450000D03*
X168180000Y-80570000D03*
X149250000Y-84250000D03*
X134760000Y-75900000D03*
X132370000Y-71290000D03*
X134610000Y-89690000D03*
X151630000Y-86950000D03*
X145550000Y-83460000D03*
X150840000Y-87710000D03*
X144810000Y-87700000D03*
X147670000Y-84250000D03*
X133650000Y-75900000D03*
X131640000Y-76130000D03*
X128140000Y-93890000D03*
X135960000Y-72180000D03*
X167640000Y-79730000D03*
X146820000Y-83420000D03*
X130330000Y-86630000D03*
X128550000Y-94520000D03*
X148540000Y-83440000D03*
X144830000Y-89660000D03*
X151640000Y-88760000D03*
X137370000Y-71310000D03*
X168170000Y-78850000D03*
X150790000Y-89650000D03*
X166510000Y-100370000D03*
X159450000Y-79300000D03*
X150160000Y-83470000D03*
X164040000Y-98440000D03*
X130930000Y-77430000D03*
X130940000Y-75700000D03*
X138300000Y-88570000D03*
X174790000Y-84430000D03*
X133650000Y-72150000D03*
X173890000Y-100470000D03*
X132590000Y-75890000D03*
X161370000Y-82580000D03*
X151610000Y-85230000D03*
X144820000Y-84290000D03*
X167640000Y-81500000D03*
X127790000Y-94530000D03*
X131600000Y-77010000D03*
X167100000Y-80520000D03*
X137770000Y-87160000D03*
X137430000Y-91490000D03*
X136990000Y-90850000D03*
X138390000Y-91500000D03*
X138830000Y-90860000D03*
X135700000Y-90120000D03*
X137880000Y-90860000D03*
X163510000Y-85860000D03*
X172300000Y-78880000D03*
X170500000Y-100000000D03*
X175040000Y-81270000D03*
X176100000Y-85880000D03*
X132140000Y-91990000D03*
X174940000Y-85890000D03*
X172970000Y-80060000D03*
X172970000Y-82330000D03*
X136610000Y-80650000D03*
X173600000Y-78880000D03*
X132140000Y-91190000D03*
X132040000Y-80030000D03*
X161110000Y-85840000D03*
X174990000Y-78870000D03*
X132140000Y-90390000D03*
X162340000Y-85850000D03*
X132150000Y-92800000D03*
X174990000Y-87800000D03*
X174310000Y-82300000D03*
X176090000Y-87820000D03*
X167000000Y-76310000D03*
X172310000Y-81320000D03*
X174290000Y-80100000D03*
X137370000Y-80080000D03*
X133580000Y-80650000D03*
X161120000Y-84540000D03*
X175570000Y-86860000D03*
X164630000Y-85880000D03*
X132940000Y-80060000D03*
X163810000Y-75870000D03*
X132490000Y-80640000D03*
X173590000Y-81320000D03*
X162170000Y-95520000D03*
X138270000Y-81060000D03*
X137420000Y-75910000D03*
X136130000Y-75870000D03*
X138220000Y-75560000D03*
X162060000Y-92600000D03*
X154780000Y-92590000D03*
X154780000Y-93980000D03*
X162080000Y-93980000D03*
X138980000Y-87940000D03*
X143030000Y-92820000D03*
X163000000Y-94660000D03*
X154070000Y-94660000D03*
X143980000Y-93390000D03*
X138990000Y-86820000D03*
X142000000Y-84360000D03*
X165270000Y-89230000D03*
X161290000Y-88260000D03*
X172280000Y-84620000D03*
X152310000Y-91020000D03*
X142610000Y-83610000D03*
X154080000Y-93260000D03*
X164040000Y-93930000D03*
X142600000Y-85050000D03*
X160540000Y-87430000D03*
X155010000Y-89660000D03*
X133500000Y-89590000D03*
X132850000Y-88950000D03*
D40*
X170500000Y-100000000D02*
X169650000Y-99150000D01*
X169650000Y-99150000D02*
X169500000Y-99150000D01*
D41*
X159420000Y-79270000D02*
X159450000Y-79300000D01*
D42*
X173880000Y-100460000D02*
X173890000Y-100470000D01*
D40*
X129710000Y-94520000D02*
X130015000Y-94215000D01*
D42*
X134570000Y-92185000D02*
X134570000Y-90480000D01*
D41*
X158000000Y-79270000D02*
X159420000Y-79270000D01*
D42*
X164050000Y-97365000D02*
X164050000Y-98430000D01*
D40*
X130330000Y-86630000D02*
X130370000Y-86590000D01*
D42*
X134610000Y-89690000D02*
X134570000Y-89730000D01*
X166520000Y-100360000D02*
X166510000Y-100370000D01*
X173585000Y-84429632D02*
X174789632Y-84429632D01*
X164050000Y-98430000D02*
X164040000Y-98440000D01*
X171400000Y-97375000D02*
X171400000Y-98640000D01*
X166520000Y-99210000D02*
X166520000Y-100360000D01*
X174789632Y-84429632D02*
X174790000Y-84430000D01*
D40*
X130015000Y-92800000D02*
X130015000Y-91320000D01*
X134877500Y-85377500D02*
X134097500Y-85377500D01*
X130370000Y-86590000D02*
X131390000Y-86590000D01*
X128550000Y-94520000D02*
X129710000Y-94520000D01*
X135087000Y-86923797D02*
X135087000Y-85587000D01*
X135087000Y-85587000D02*
X134877500Y-85377500D01*
X130015000Y-94215000D02*
X130015000Y-92800000D01*
D42*
X134570000Y-89730000D02*
X134570000Y-90480000D01*
X173880000Y-99210000D02*
X173880000Y-100460000D01*
D40*
X135065797Y-86945000D02*
X135087000Y-86923797D01*
X130015000Y-91320000D02*
X129965000Y-91270000D01*
X131390000Y-83990000D02*
X132540000Y-83990000D01*
X133660000Y-82470000D02*
X133660000Y-83720000D01*
X134980000Y-83720000D02*
X135270000Y-84010000D01*
X137770000Y-85690000D02*
X137457500Y-85377500D01*
X137457500Y-85377500D02*
X136372500Y-85377500D01*
X135270000Y-84010000D02*
X135270000Y-85127948D01*
X133660000Y-83720000D02*
X134980000Y-83720000D01*
X135180000Y-79935000D02*
X135180000Y-80950000D01*
X135180000Y-80950000D02*
X133660000Y-82470000D01*
X132540000Y-83990000D02*
X132810000Y-83720000D01*
X135270000Y-85127948D02*
X135519552Y-85377500D01*
X135519552Y-85377500D02*
X136372500Y-85377500D01*
X137770000Y-87160000D02*
X137770000Y-85690000D01*
X132810000Y-83720000D02*
X133660000Y-83720000D01*
D41*
X128715000Y-81490000D02*
X130565000Y-81490000D01*
D40*
X128415000Y-89390000D02*
X128715000Y-89090000D01*
X128365000Y-91320000D02*
X128415000Y-91270000D01*
X128415000Y-91270000D02*
X128415000Y-89390000D01*
D41*
X128715000Y-89090000D02*
X130565000Y-89090000D01*
X130565000Y-89090000D02*
X131265000Y-88390000D01*
X130565000Y-81490000D02*
X131265000Y-82190000D01*
X128715000Y-81490000D02*
X128715000Y-89090000D01*
D40*
X128365000Y-92800000D02*
X128365000Y-91320000D01*
D41*
X137770000Y-78810000D02*
X137470000Y-78810000D01*
D43*
X161830000Y-71660000D02*
X161830000Y-74540000D01*
D44*
X137380000Y-80070000D02*
X137370000Y-80080000D01*
X139140000Y-80540000D02*
X138670000Y-80070000D01*
D43*
X170850000Y-77360000D02*
X170850000Y-78433332D01*
X169800000Y-76310000D02*
X170850000Y-77360000D01*
X161830000Y-74540000D02*
X162870000Y-75580000D01*
X163160000Y-75870000D02*
X163810000Y-75870000D01*
X167000000Y-76310000D02*
X169800000Y-76310000D01*
D44*
X138670000Y-80070000D02*
X137380000Y-80070000D01*
X140500000Y-80540000D02*
X139140000Y-80540000D01*
X137470000Y-78810000D02*
X137470000Y-79980000D01*
D43*
X162870000Y-75580000D02*
X163160000Y-75870000D01*
D44*
X137470000Y-79980000D02*
X137370000Y-80080000D01*
D40*
X162675000Y-84348332D02*
X167325000Y-84348332D01*
D42*
X173600000Y-76920000D02*
X175510000Y-76920000D01*
X177270000Y-91700000D02*
X174730000Y-94240000D01*
X170890000Y-94240000D02*
X169320000Y-95810000D01*
D41*
X138270000Y-81150000D02*
X138930000Y-81810000D01*
X138930000Y-81810000D02*
X140500000Y-81810000D01*
D42*
X171990000Y-71660000D02*
X171990000Y-75310000D01*
X166515000Y-95815000D02*
X166520000Y-95810000D01*
X171990000Y-75310000D02*
X173600000Y-76920000D01*
D40*
X164050000Y-95815000D02*
X162465000Y-95815000D01*
D42*
X169320000Y-95810000D02*
X166520000Y-95810000D01*
X177270000Y-78680000D02*
X177270000Y-91700000D01*
D40*
X162465000Y-95815000D02*
X162170000Y-95520000D01*
D42*
X175510000Y-76920000D02*
X177270000Y-78680000D01*
D41*
X138270000Y-81060000D02*
X138270000Y-81150000D01*
D42*
X174730000Y-94240000D02*
X170890000Y-94240000D01*
X164050000Y-95815000D02*
X166515000Y-95815000D01*
D40*
X165970000Y-97500000D02*
X169100000Y-97500000D01*
D42*
X175790000Y-95040000D02*
X177980000Y-92850000D01*
D40*
X158000000Y-95780000D02*
X160570000Y-95780000D01*
D42*
X175950000Y-76020000D02*
X177980000Y-78050000D01*
D40*
X161450000Y-96660000D02*
X161450000Y-98970000D01*
D42*
X173880000Y-95810000D02*
X175020000Y-95810000D01*
X172460000Y-70250000D02*
X173260000Y-71050000D01*
D40*
X165160000Y-99100000D02*
X165160000Y-98310000D01*
X169350000Y-97250000D02*
X169750000Y-97250000D01*
X169500000Y-97500000D02*
X169350000Y-97350000D01*
D42*
X171400000Y-95825000D02*
X173843787Y-95825000D01*
X170860000Y-70250000D02*
X172460000Y-70250000D01*
X177980000Y-92850000D02*
X177980000Y-78050000D01*
D40*
X169350000Y-97350000D02*
X169350000Y-97250000D01*
X160570000Y-95780000D02*
X161450000Y-96660000D01*
X165160000Y-98310000D02*
X165970000Y-97500000D01*
D42*
X174090000Y-76020000D02*
X175950000Y-76020000D01*
D40*
X164440000Y-99820000D02*
X165160000Y-99100000D01*
D42*
X175020000Y-95810000D02*
X175790000Y-95040000D01*
X169450000Y-71660000D02*
X170860000Y-70250000D01*
D40*
X171175000Y-95825000D02*
X171400000Y-95825000D01*
X162300000Y-99820000D02*
X164440000Y-99820000D01*
X161450000Y-98970000D02*
X162300000Y-99820000D01*
D42*
X173260000Y-71050000D02*
X173260000Y-75190000D01*
X173260000Y-75190000D02*
X174090000Y-76020000D01*
D40*
X169750000Y-97250000D02*
X171175000Y-95825000D01*
X169100000Y-97500000D02*
X169350000Y-97250000D01*
D42*
X173843787Y-95825000D02*
G75*
G03*
X173880004Y-95810004I13J51200D01*
G01*
D41*
X137420000Y-75910000D02*
X137420000Y-75165000D01*
X137420000Y-75165000D02*
X137110000Y-74855000D01*
D40*
X135930000Y-75080000D02*
X135930000Y-75670000D01*
X135712500Y-74862500D02*
X135930000Y-75080000D01*
X134790000Y-74862500D02*
X135712500Y-74862500D01*
X135930000Y-75670000D02*
X136130000Y-75870000D01*
D41*
X137750000Y-73950000D02*
X138090000Y-74290000D01*
X134610000Y-73950000D02*
X137750000Y-73950000D01*
X132560000Y-74862500D02*
X133472500Y-73950000D01*
X133472500Y-73950000D02*
X134610000Y-73950000D01*
X138090000Y-74290000D02*
X138220000Y-74420000D01*
X138220000Y-74420000D02*
X138220000Y-75560000D01*
D42*
X148050000Y-92590000D02*
X154780000Y-92590000D01*
X162060000Y-92600000D02*
X165740000Y-92600000D01*
X166571666Y-91768334D02*
X166571666Y-90383332D01*
X146075000Y-94565000D02*
X147010000Y-93630000D01*
X147010000Y-93630000D02*
X148050000Y-92590000D01*
X165740000Y-92600000D02*
X166571666Y-91768334D01*
X146075000Y-97030000D02*
X146075000Y-94565000D01*
X148615000Y-94875000D02*
X148615000Y-97030000D01*
X154780000Y-93980000D02*
X149510000Y-93980000D01*
X162080000Y-93980000D02*
X162850000Y-93210000D01*
X162850000Y-93210000D02*
X166610000Y-93210000D01*
X149510000Y-93980000D02*
X148615000Y-94875000D01*
X166610000Y-93210000D02*
X168115000Y-91705000D01*
X168115000Y-91705000D02*
X168115000Y-90383332D01*
D40*
X136650000Y-87920000D02*
X138960000Y-87920000D01*
X138960000Y-87920000D02*
X138980000Y-87940000D01*
X143030000Y-92820000D02*
X143030000Y-94040000D01*
X143030000Y-94040000D02*
X142560000Y-94510000D01*
X142560000Y-94510000D02*
X140500000Y-94510000D01*
D42*
X160373334Y-79636666D02*
X162575000Y-79636666D01*
X159600000Y-82520000D02*
X159600000Y-80410000D01*
X159600000Y-80410000D02*
X160373334Y-79636666D01*
X158000000Y-83080000D02*
X159040000Y-83080000D01*
X159040000Y-83080000D02*
X159600000Y-82520000D01*
X150590000Y-94660000D02*
X154070000Y-94660000D01*
X150320000Y-94930000D02*
X150590000Y-94660000D01*
X169250000Y-94660000D02*
X171201666Y-92708334D01*
X149885000Y-95365000D02*
X150320000Y-94930000D01*
X163000000Y-94660000D02*
X169250000Y-94660000D01*
X149885000Y-97030000D02*
X149885000Y-95365000D01*
X171201666Y-92708334D02*
X171201666Y-90403332D01*
D40*
X138990000Y-86820000D02*
X138590000Y-86420000D01*
X138590000Y-86420000D02*
X138590000Y-83740000D01*
X138590000Y-83740000D02*
X137690000Y-82840000D01*
X143030000Y-95780000D02*
X140500000Y-95780000D01*
X143980000Y-94830000D02*
X143030000Y-95780000D01*
X143980000Y-93390000D02*
X143980000Y-94830000D01*
X137690000Y-82840000D02*
X136665000Y-82840000D01*
D42*
X160250000Y-81810000D02*
X160250000Y-83530000D01*
X160843334Y-81216666D02*
X160250000Y-81810000D01*
X159430000Y-84350000D02*
X158000000Y-84350000D01*
X160250000Y-83530000D02*
X159430000Y-84350000D01*
X162595000Y-81216666D02*
X160843334Y-81216666D01*
X141990000Y-84350000D02*
X142000000Y-84360000D01*
X140500000Y-84350000D02*
X141990000Y-84350000D01*
X165270000Y-89210000D02*
X165270000Y-89230000D01*
X164320000Y-88260000D02*
X165050000Y-88990000D01*
X152280000Y-91050000D02*
X144610000Y-91050000D01*
X165050000Y-88990000D02*
X165270000Y-89210000D01*
X171920369Y-84979631D02*
X172280000Y-84620000D01*
X141720000Y-88160000D02*
X140500000Y-88160000D01*
X152310000Y-91020000D02*
X152280000Y-91050000D01*
X171325300Y-84979631D02*
X171920369Y-84979631D01*
X144610000Y-91050000D02*
X141720000Y-88160000D01*
X161290000Y-88260000D02*
X164320000Y-88260000D01*
X142610000Y-83610000D02*
X142160000Y-83610000D01*
X142160000Y-83610000D02*
X141630000Y-83080000D01*
X141630000Y-83080000D02*
X140500000Y-83080000D01*
X148980000Y-93260000D02*
X154080000Y-93260000D01*
X164040000Y-93930000D02*
X168110000Y-93930000D01*
X169658333Y-92381667D02*
X169658333Y-90383332D01*
X147345000Y-97030000D02*
X147345000Y-94895000D01*
X147345000Y-94895000D02*
X148730000Y-93510000D01*
X148730000Y-93510000D02*
X148980000Y-93260000D01*
X168110000Y-93930000D02*
X169658333Y-92381667D01*
X140500000Y-85620000D02*
X141670000Y-85620000D01*
X142240000Y-85050000D02*
X142600000Y-85050000D01*
X142000000Y-85290000D02*
X142240000Y-85050000D01*
X141670000Y-85620000D02*
X142000000Y-85290000D01*
X165280000Y-87430000D02*
X160540000Y-87430000D01*
X166340000Y-85960000D02*
X166140000Y-86160000D01*
X168420000Y-85480000D02*
X167220000Y-85480000D01*
X168420368Y-85479632D02*
X168420000Y-85480000D01*
X155010000Y-89660000D02*
X154960000Y-89660000D01*
X141970000Y-89430000D02*
X140500000Y-89430000D01*
X144320000Y-91780000D02*
X141970000Y-89430000D01*
X152840000Y-91780000D02*
X144320000Y-91780000D01*
X166820000Y-85480000D02*
X166340000Y-85960000D01*
X167220000Y-85480000D02*
X166820000Y-85480000D01*
X154960000Y-89660000D02*
X152840000Y-91780000D01*
X166140000Y-86570000D02*
X165280000Y-87430000D01*
X166140000Y-86160000D02*
X166140000Y-86570000D01*
X168904700Y-85479632D02*
X168420368Y-85479632D01*
D40*
X132840000Y-85460000D02*
X132840000Y-86070000D01*
X132670000Y-85290000D02*
X132840000Y-85460000D01*
X131390000Y-85290000D02*
X132670000Y-85290000D01*
X132840000Y-86070000D02*
X133097500Y-86327500D01*
X133097500Y-86327500D02*
X134097500Y-86327500D01*
X132780000Y-84640000D02*
X132992500Y-84427500D01*
X132992500Y-84427500D02*
X134097500Y-84427500D01*
X131390000Y-84640000D02*
X132780000Y-84640000D01*
D42*
X164977781Y-80483885D02*
X164245000Y-81216666D01*
X165580000Y-74870904D02*
X165580000Y-79030000D01*
X166910000Y-71660000D02*
G75*
G03*
X165580002Y-74870904I3210900J-3210900D01*
G01*
X165580000Y-79030000D02*
G75*
G02*
X164977780Y-80483884I-2056100J0D01*
G01*
X164298284Y-79563383D02*
X164225000Y-79636666D01*
X164950000Y-73060243D02*
X164950000Y-77990000D01*
X164370000Y-71660000D02*
G75*
G02*
X164949982Y-73060243I-1400200J-1400200D01*
G01*
X164950000Y-77990000D02*
G75*
G02*
X164298284Y-79563383I-2225100J0D01*
G01*
D41*
X134070000Y-90380000D02*
X134070000Y-90480000D01*
X133500000Y-89590000D02*
X133500000Y-89810000D01*
X133500000Y-89810000D02*
X134070000Y-90380000D01*
X133050000Y-90400000D02*
X132860000Y-90210000D01*
X133170000Y-90520000D02*
X133050000Y-90400000D01*
X133170000Y-90880000D02*
X133170000Y-90520000D01*
X132860000Y-88960000D02*
X132850000Y-88950000D01*
X132860000Y-89890000D02*
X132860000Y-88960000D01*
X132860000Y-90210000D02*
X132860000Y-89890000D01*
D42*
X171325300Y-86479633D02*
X171325300Y-88629698D01*
X171325300Y-88629698D02*
X171201666Y-88753332D01*
X170614999Y-86685932D02*
X170614999Y-87776666D01*
X170614999Y-87776666D02*
X169658333Y-88733332D01*
X170115000Y-87455000D02*
X169660000Y-87910000D01*
X168115000Y-88245000D02*
X168115000Y-88733332D01*
X168450000Y-87910000D02*
X168115000Y-88245000D01*
X169660000Y-87910000D02*
X168450000Y-87910000D01*
X170115000Y-86685932D02*
X170115000Y-87455000D01*
X166571666Y-87948334D02*
X166571666Y-88733332D01*
X169615001Y-86685932D02*
X169615001Y-87224999D01*
X169615001Y-87224999D02*
X169340000Y-87500000D01*
X167020000Y-87500000D02*
X166571666Y-87948334D01*
X169340000Y-87500000D02*
X167020000Y-87500000D01*
D40*
X136372500Y-84427500D02*
X136372500Y-83892500D01*
X135320000Y-82840000D02*
X135015000Y-82840000D01*
X136372500Y-83892500D02*
X135320000Y-82840000D01*
X136372500Y-86907500D02*
X135360000Y-87920000D01*
X135360000Y-87920000D02*
X135000000Y-87920000D01*
X136372500Y-86327500D02*
X136372500Y-86907500D01*
G04 #@! TA.AperFunction,Conductor*
G36*
X136993039Y-89769685D02*
G01*
X137038794Y-89822489D01*
X137050000Y-89874000D01*
X137050000Y-91190000D01*
X135622577Y-91190000D01*
X135626113Y-90780000D01*
X135620981Y-90780000D01*
X135074000Y-90780000D01*
X135006961Y-90760315D01*
X134961206Y-90707511D01*
X134950000Y-90656000D01*
X134950000Y-90015328D01*
X134953021Y-90002599D01*
X134952016Y-89993058D01*
X134961261Y-89967893D01*
X134963232Y-89959593D01*
X134964832Y-89956413D01*
X135020481Y-89860027D01*
X135028627Y-89829624D01*
X135034343Y-89818265D01*
X135049867Y-89801659D01*
X135061701Y-89782246D01*
X135073272Y-89776624D01*
X135082059Y-89767227D01*
X135104100Y-89761649D01*
X135124548Y-89751717D01*
X135145111Y-89750000D01*
X136926000Y-89750000D01*
X136993039Y-89769685D01*
G37*
G04 #@! TD.AperFunction*
G04 #@! TA.AperFunction,Conductor*
G36*
X133743039Y-75589685D02*
G01*
X133788794Y-75642489D01*
X133800000Y-75694000D01*
X133800000Y-76429999D01*
X133800000Y-76430000D01*
X139255780Y-76420222D01*
X139322852Y-76439787D01*
X139368702Y-76492508D01*
X139380000Y-76544222D01*
X139380000Y-78820000D01*
X141124629Y-78820000D01*
X141191668Y-78839685D01*
X141237423Y-78892489D01*
X141248622Y-78945363D01*
X141241352Y-79606922D01*
X141220931Y-79673741D01*
X141167628Y-79718913D01*
X141116915Y-79729558D01*
X138573556Y-79720442D01*
X138506587Y-79700517D01*
X138461022Y-79647550D01*
X138450000Y-79596443D01*
X138450000Y-77810000D01*
X130624000Y-77810000D01*
X130556961Y-77790315D01*
X130511206Y-77737511D01*
X130500000Y-77686000D01*
X130500000Y-75694000D01*
X130519685Y-75626961D01*
X130572489Y-75581206D01*
X130624000Y-75570000D01*
X133676000Y-75570000D01*
X133743039Y-75589685D01*
G37*
G04 #@! TD.AperFunction*
G04 #@! TA.AperFunction,Conductor*
G36*
X132407364Y-89988652D02*
G01*
X132474182Y-90009073D01*
X132519354Y-90062376D01*
X132530000Y-90112645D01*
X132530000Y-91270000D01*
X133346000Y-91270000D01*
X133413039Y-91289685D01*
X133458794Y-91342489D01*
X133470000Y-91394000D01*
X133470000Y-92376000D01*
X133450315Y-92443039D01*
X133397511Y-92488794D01*
X133346000Y-92500000D01*
X132869999Y-92500000D01*
X132177205Y-93420563D01*
X132121165Y-93462292D01*
X132078128Y-93470000D01*
X131744000Y-93470000D01*
X131676961Y-93450315D01*
X131631206Y-93397511D01*
X131620000Y-93346000D01*
X131620000Y-90105370D01*
X131639685Y-90038331D01*
X131692489Y-89992576D01*
X131745360Y-89981377D01*
X132407364Y-89988652D01*
G37*
G04 #@! TD.AperFunction*
G04 #@! TA.AperFunction,Conductor*
G36*
X151903240Y-82909758D02*
G01*
X151949064Y-82962502D01*
X151960338Y-83013823D01*
X151979660Y-90075661D01*
X151960158Y-90142754D01*
X151907480Y-90188653D01*
X151855660Y-90200000D01*
X144503661Y-90200000D01*
X144436622Y-90180315D01*
X144390867Y-90127511D01*
X144379661Y-90076340D01*
X144360340Y-83024176D01*
X144379841Y-82957083D01*
X144432520Y-82911183D01*
X144484174Y-82899836D01*
X151836178Y-82890162D01*
X151903240Y-82909758D01*
G37*
G04 #@! TD.AperFunction*
G04 #@! TA.AperFunction,Conductor*
G36*
X174370219Y-85300001D02*
G01*
X176436164Y-85309434D01*
X176503112Y-85329425D01*
X176548625Y-85382437D01*
X176559596Y-85433837D01*
X176550403Y-88256404D01*
X176530501Y-88323379D01*
X176477548Y-88368962D01*
X176426404Y-88380000D01*
X172344000Y-88380000D01*
X172276961Y-88360315D01*
X172231206Y-88307511D01*
X172220000Y-88256000D01*
X172220000Y-86170000D01*
X171673003Y-86170000D01*
X171648814Y-86167618D01*
X171627431Y-86163365D01*
X171162506Y-86163365D01*
X171095467Y-86143680D01*
X171049712Y-86090876D01*
X171038514Y-86040793D01*
X171033472Y-85602113D01*
X171031442Y-85425425D01*
X171050355Y-85358164D01*
X171102630Y-85311805D01*
X171155434Y-85300000D01*
X174369653Y-85300000D01*
X174370219Y-85300001D01*
G37*
G04 #@! TD.AperFunction*
G04 #@! TA.AperFunction,Conductor*
G36*
X137665298Y-70968954D02*
G01*
X137746080Y-71022930D01*
X137800056Y-71103712D01*
X137819010Y-71199000D01*
X137819008Y-71199988D01*
X137811561Y-73076488D01*
X137792229Y-73171700D01*
X137737932Y-73252267D01*
X137656937Y-73305922D01*
X137562563Y-73324500D01*
X133410887Y-73324500D01*
X133350473Y-73336516D01*
X133350474Y-73336517D01*
X133290050Y-73348536D01*
X133290048Y-73348537D01*
X133242897Y-73368067D01*
X133242895Y-73368067D01*
X133176215Y-73395687D01*
X133176215Y-73395688D01*
X133176213Y-73395689D01*
X133115648Y-73436157D01*
X133025889Y-73473337D01*
X132977730Y-73478121D01*
X132109418Y-73479580D01*
X132014098Y-73460786D01*
X131933227Y-73406945D01*
X131879114Y-73326255D01*
X131860000Y-73230998D01*
X131860000Y-71199000D01*
X131878954Y-71103712D01*
X131932930Y-71022930D01*
X132013712Y-70968954D01*
X132109000Y-70950000D01*
X137570010Y-70950000D01*
X137665298Y-70968954D01*
G37*
G04 #@! TD.AperFunction*
G04 #@! TA.AperFunction,Conductor*
G36*
X139107270Y-90529660D02*
G01*
X139174254Y-90549531D01*
X139219863Y-90602461D01*
X139230922Y-90652728D01*
X139249055Y-93064375D01*
X139229876Y-93131560D01*
X139177417Y-93177711D01*
X139124374Y-93189305D01*
X135752850Y-93170678D01*
X135685920Y-93150623D01*
X135640458Y-93097568D01*
X135629536Y-93047148D01*
X135620981Y-90780000D01*
X135626113Y-90780000D01*
X135622577Y-91190000D01*
X137050000Y-91190000D01*
X137050000Y-90523961D01*
X139107270Y-90529660D01*
G37*
G04 #@! TD.AperFunction*
G04 #@! TA.AperFunction,Conductor*
G36*
X135154496Y-93061208D02*
G01*
X135168475Y-93076973D01*
X135310414Y-93133554D01*
X135540151Y-93225136D01*
X135573711Y-93245141D01*
X135580060Y-93250443D01*
X135580063Y-93250446D01*
X135644157Y-93290000D01*
X135711087Y-93310055D01*
X135711088Y-93310055D01*
X135711091Y-93310056D01*
X135752038Y-93316175D01*
X135752040Y-93316175D01*
X135752046Y-93316176D01*
X135752051Y-93316176D01*
X135753633Y-93316298D01*
X135755029Y-93316622D01*
X135756427Y-93316831D01*
X135756410Y-93316942D01*
X135790026Y-93324746D01*
X137597840Y-94045409D01*
X137652825Y-94088519D01*
X137675774Y-94154512D01*
X137675923Y-94160596D01*
X137675817Y-99963863D01*
X137656131Y-100030902D01*
X137603326Y-100076656D01*
X137551801Y-100087861D01*
X135761870Y-100087628D01*
X135694833Y-100067935D01*
X135649085Y-100015125D01*
X135645871Y-100007405D01*
X134948845Y-98159160D01*
X134940869Y-98115205D01*
X134949137Y-93154576D01*
X134968933Y-93087572D01*
X135021814Y-93041905D01*
X135090989Y-93032077D01*
X135154496Y-93061208D01*
G37*
G04 #@! TD.AperFunction*
G04 #@! TA.AperFunction,Conductor*
G36*
X134151169Y-93065178D02*
G01*
X134187492Y-93124865D01*
X134191694Y-93156666D01*
X134199962Y-98117289D01*
X134191985Y-98161252D01*
X133494968Y-100009472D01*
X133452894Y-100065253D01*
X133387341Y-100089431D01*
X133378961Y-100089716D01*
X131589030Y-100089949D01*
X131521988Y-100070273D01*
X131476226Y-100017475D01*
X131465014Y-99965954D01*
X131464908Y-94162682D01*
X131484591Y-94095644D01*
X131537394Y-94049889D01*
X131542964Y-94047508D01*
X133970000Y-93080000D01*
X133977556Y-93076988D01*
X134018963Y-93042850D01*
X134088344Y-93034605D01*
X134151169Y-93065178D01*
G37*
G04 #@! TD.AperFunction*
G04 #@! TA.AperFunction,Conductor*
G36*
X167948776Y-83889946D02*
G01*
X168015790Y-83909718D01*
X168022986Y-83914725D01*
X169149102Y-84758810D01*
X169151654Y-84762224D01*
X169155538Y-84763978D01*
X169172391Y-84789962D01*
X169190938Y-84814769D01*
X169191897Y-84820035D01*
X169193559Y-84822596D01*
X169198729Y-84857510D01*
X169199477Y-85035479D01*
X169180074Y-85102600D01*
X169127463Y-85148577D01*
X169075478Y-85160000D01*
X165760000Y-85160000D01*
X165769127Y-86465133D01*
X165749912Y-86532308D01*
X165697429Y-86578431D01*
X165645130Y-86590000D01*
X160464458Y-86590000D01*
X160397419Y-86570315D01*
X160351664Y-86517511D01*
X160340459Y-86465542D01*
X160340461Y-86465133D01*
X160349543Y-84003701D01*
X160369475Y-83936737D01*
X160422447Y-83891177D01*
X160473699Y-83880161D01*
X167948776Y-83889946D01*
G37*
G04 #@! TD.AperFunction*
G04 #@! TA.AperFunction,Conductor*
G36*
X169693039Y-77979685D02*
G01*
X169738794Y-78032489D01*
X169750000Y-78084000D01*
X169750000Y-83330003D01*
X170075158Y-84010424D01*
X170277881Y-84434641D01*
X170290000Y-84488104D01*
X170290000Y-84916000D01*
X170270315Y-84983039D01*
X170217511Y-85028794D01*
X170166000Y-85040000D01*
X169544000Y-85040000D01*
X169476961Y-85020315D01*
X169431206Y-84967511D01*
X169420000Y-84916000D01*
X169420000Y-83930000D01*
X168814156Y-83930000D01*
X168747117Y-83910315D01*
X168723194Y-83890273D01*
X168129999Y-83249999D01*
X160923831Y-83240168D01*
X160856818Y-83220392D01*
X160811135Y-83167526D01*
X160800000Y-83116168D01*
X160800000Y-82114000D01*
X160819685Y-82046961D01*
X160872489Y-82001206D01*
X160924000Y-81990000D01*
X166029999Y-81990000D01*
X166030000Y-81990000D01*
X166039693Y-78083691D01*
X166059544Y-78016702D01*
X166112462Y-77971078D01*
X166163693Y-77960000D01*
X169626000Y-77960000D01*
X169693039Y-77979685D01*
G37*
G04 #@! TD.AperFunction*
G04 #@! TA.AperFunction,Conductor*
G36*
X175756716Y-77959772D02*
G01*
X175823719Y-77979581D01*
X175869376Y-78032469D01*
X175880486Y-78083283D01*
X175899509Y-82905511D01*
X175880089Y-82972627D01*
X175827466Y-83018590D01*
X175775510Y-83030000D01*
X172260000Y-83030000D01*
X170792049Y-84484396D01*
X170792519Y-84936213D01*
X170789883Y-84945223D01*
X170791179Y-84954522D01*
X170780232Y-84978218D01*
X170772904Y-85003273D01*
X170765814Y-85009428D01*
X170761878Y-85017951D01*
X170739859Y-85031966D01*
X170720148Y-85049083D01*
X170709288Y-85051426D01*
X170702936Y-85055470D01*
X170667980Y-85060341D01*
X170563985Y-85059889D01*
X170497032Y-85039913D01*
X170451507Y-84986911D01*
X170440525Y-84935371D01*
X170469478Y-78073704D01*
X170489445Y-78006749D01*
X170542442Y-77961217D01*
X170593702Y-77950228D01*
X175756716Y-77959772D01*
G37*
G04 #@! TD.AperFunction*
M02*
