G04 #@! TF.GenerationSoftware,KiCad,Pcbnew,9.0.0*
G04 #@! TF.CreationDate,2025-02-24T19:41:21+01:00*
G04 #@! TF.ProjectId,SourceFIle,536f7572-6365-4464-996c-652e6b696361,02*
G04 #@! TF.SameCoordinates,Original*
G04 #@! TF.FileFunction,Soldermask,Bot*
G04 #@! TF.FilePolarity,Negative*
%FSLAX46Y46*%
G04 Gerber Fmt 4.6, Leading zero omitted, Abs format (unit mm)*
G04 Created by KiCad (PCBNEW 9.0.0) date 2025-02-24 19:41:21*
%MOMM*%
%LPD*%
G01*
G04 APERTURE LIST*
G04 Aperture macros list*
%AMRoundRect*
0 Rectangle with rounded corners*
0 $1 Rounding radius*
0 $2 $3 $4 $5 $6 $7 $8 $9 X,Y pos of 4 corners*
0 Add a 4 corners polygon primitive as box body*
4,1,4,$2,$3,$4,$5,$6,$7,$8,$9,$2,$3,0*
0 Add four circle primitives for the rounded corners*
1,1,$1+$1,$2,$3*
1,1,$1+$1,$4,$5*
1,1,$1+$1,$6,$7*
1,1,$1+$1,$8,$9*
0 Add four rect primitives between the rounded corners*
20,1,$1+$1,$2,$3,$4,$5,0*
20,1,$1+$1,$4,$5,$6,$7,0*
20,1,$1+$1,$6,$7,$8,$9,0*
20,1,$1+$1,$8,$9,$2,$3,0*%
G04 Aperture macros list end*
%ADD10R,1.700000X1.700000*%
%ADD11O,1.700000X1.700000*%
%ADD12C,2.000000*%
%ADD13RoundRect,0.225000X0.225000X0.250000X-0.225000X0.250000X-0.225000X-0.250000X0.225000X-0.250000X0*%
%ADD14RoundRect,0.250000X0.250000X0.475000X-0.250000X0.475000X-0.250000X-0.475000X0.250000X-0.475000X0*%
%ADD15RoundRect,0.250000X0.325000X1.100000X-0.325000X1.100000X-0.325000X-1.100000X0.325000X-1.100000X0*%
%ADD16RoundRect,0.225000X0.250000X-0.225000X0.250000X0.225000X-0.250000X0.225000X-0.250000X-0.225000X0*%
%ADD17RoundRect,0.250000X0.650000X-0.325000X0.650000X0.325000X-0.650000X0.325000X-0.650000X-0.325000X0*%
%ADD18RoundRect,0.250000X-0.325000X-1.100000X0.325000X-1.100000X0.325000X1.100000X-0.325000X1.100000X0*%
%ADD19RoundRect,0.250000X0.325000X0.650000X-0.325000X0.650000X-0.325000X-0.650000X0.325000X-0.650000X0*%
%ADD20RoundRect,0.200000X-0.200000X-0.275000X0.200000X-0.275000X0.200000X0.275000X-0.200000X0.275000X0*%
%ADD21RoundRect,0.200000X0.200000X0.275000X-0.200000X0.275000X-0.200000X-0.275000X0.200000X-0.275000X0*%
%ADD22RoundRect,0.250000X1.100000X-0.325000X1.100000X0.325000X-1.100000X0.325000X-1.100000X-0.325000X0*%
%ADD23RoundRect,0.200000X-0.275000X0.200000X-0.275000X-0.200000X0.275000X-0.200000X0.275000X0.200000X0*%
G04 APERTURE END LIST*
D10*
X161830000Y-71660000D03*
D11*
X164370000Y-71660000D03*
X166910000Y-71660000D03*
X169450000Y-71660000D03*
X171990000Y-71660000D03*
X174530000Y-71660000D03*
D12*
X178831250Y-72375000D03*
X128791250Y-97375000D03*
X128791250Y-72375000D03*
X178831250Y-97375000D03*
D13*
X138965000Y-83360000D03*
X137415000Y-83360000D03*
D14*
X131110000Y-89480000D03*
X129210000Y-89480000D03*
D15*
X132265000Y-86730000D03*
X129315000Y-86730000D03*
D16*
X134230000Y-78905000D03*
X134230000Y-77355000D03*
D17*
X141170000Y-92455000D03*
X141170000Y-89505000D03*
D18*
X133685000Y-95110000D03*
X136635000Y-95110000D03*
D14*
X131120000Y-91530000D03*
X129220000Y-91530000D03*
X131120000Y-93570000D03*
X129220000Y-93570000D03*
D13*
X138965000Y-81800000D03*
X137415000Y-81800000D03*
D19*
X141615000Y-97050000D03*
X138665000Y-97050000D03*
D20*
X137345000Y-84900000D03*
X138995000Y-84900000D03*
D21*
X135765000Y-85370000D03*
X134115000Y-85370000D03*
D16*
X132690000Y-78915000D03*
X132690000Y-77365000D03*
D22*
X138310000Y-92465000D03*
X138310000Y-89515000D03*
D23*
X142620000Y-80820000D03*
X142620000Y-82470000D03*
X145710000Y-80820000D03*
X145710000Y-82470000D03*
D19*
X141615000Y-94630000D03*
X138665000Y-94630000D03*
D18*
X133685000Y-98410000D03*
X136635000Y-98410000D03*
D21*
X135775000Y-88520000D03*
X134125000Y-88520000D03*
D23*
X144170000Y-80820000D03*
X144170000Y-82470000D03*
D21*
X135765000Y-86950000D03*
X134115000Y-86950000D03*
D16*
X135780000Y-78915000D03*
X135780000Y-77365000D03*
M02*
