M48
; DRILL file {KiCad 7.0.1} date Sun Nov 26 12:32:25 2023
; FORMAT={-:-/ absolute / inch / decimal}
; #@! TF.CreationDate,2023-11-26T12:32:25+08:00
; #@! TF.GenerationSoftware,Kicad,Pcbnew,7.0.1
; #@! TF.FileFunction,Plated,1,4,PTH
FMAT,2
INCH
; #@! TA.AperFunction,Plated,PTH,ViaDrill
T1C0.0118
; #@! TA.AperFunction,Plated,PTH,ViaDrill
T2C0.0157
; #@! TA.AperFunction,Plated,PTH,ComponentDrill
T3C0.0394
; #@! TA.AperFunction,Plated,PTH,ComponentDrill
T4C0.0472
%
G90
G05
T1
X5.4045Y-3.0715
X5.4607Y-3.2541
X5.4646Y-3.4921
X5.7077Y-3.8327
X6.0945Y-3.5118
X6.1289Y-3.5138
X6.1496Y-3.5561
X6.1545Y-3.2864
X6.1555Y-3.5148
X6.3219Y-2.9892
X6.3848Y-2.9272
X6.3986Y-3.1939
X6.4055Y-3.128
X6.4193Y-3.0866
X6.4469Y-2.9222
X6.4518Y-3.1102
X6.5125Y-3.8297
X6.5463Y-3.0512
X6.5659Y-2.873
X6.6247Y-3.0039
X6.6683Y-2.9341
X6.7047Y-3.6329
X6.7062Y-3.564
X6.7132Y-3.061
X6.7362Y-3.2156
X6.7424Y-3.2807
X6.8412Y-3.1535
T2
X5.0599Y-3.7
X5.0662Y-3.3254
X5.0662Y-3.4254
X5.0746Y-3.1291
X5.1126Y-3.6951
X5.1126Y-3.7549
X5.126Y-3.5226
X5.1323Y-3.2467
X5.1331Y-3.1994
X5.1457Y-3.0482
X5.2181Y-2.8088
X5.2476Y-3.5521
X5.2769Y-3.5813
X5.2815Y-3.8187
X5.2875Y-3.9028
X5.2875Y-3.9441
X5.293Y-3.6758
X5.2985Y-3.3856
X5.2989Y-3.4195
X5.2993Y-3.7207
X5.3465Y-3.4356
X5.3563Y-2.8107
X5.4516Y-3.6856
X5.452Y-3.723
X5.5741Y-3.214
X5.5772Y-3.4156
X5.6016Y-3.6065
X5.6117Y-3.7663
X5.6414Y-3.7195
X5.6473Y-3.6183
X5.653Y-3.7663
X5.691Y-3.3069
X5.7343Y-3.3285
X5.7642Y-3.3659
X5.7709Y-3.4789
X5.7725Y-3.5364
X5.8249Y-3.5352
X5.8264Y-3.4801
X5.8752Y-3.5356
X5.8768Y-3.4789
X5.8894Y-3.712
X5.8902Y-3.2311
X5.8977Y-3.7841
X5.9508Y-3.4222
X5.978Y-3.7841
X5.9823Y-3.2581
X5.9941Y-3.4232
X6.0225Y-3.7852
X6.0343Y-3.2711
X6.0433Y-3.7411
X6.0863Y-3.2719
X6.1359Y-3.7872
X6.2642Y-3.5069
X6.2658Y-3.8707
X6.3182Y-3.8789
X6.3256Y-3.5624
X6.326Y-3.4766
X6.3434Y-3.2856
X6.3494Y-3.0797
X6.3989Y-3.2955
X6.3993Y-3.5711
X6.4028Y-3.4589
X6.4114Y-3.9435
X6.4878Y-3.7884
X6.4985Y-3.1715
X6.5058Y-3.0829
X6.5174Y-3.4309
X6.5434Y-3.127
X6.5595Y-3.197
X6.5595Y-3.4152
X6.565Y-3.6658
X6.704Y-3.2439
X6.7132Y-3.3209
X6.7347Y-3.736
X6.7437Y-3.3876
X6.746Y-3.4943
X6.7504Y-3.786
X6.751Y-3.6673
X6.7585Y-3.0344
X6.791Y-3.5415
X6.8402Y-3.21
X6.8532Y-3.7447
X6.8544Y-3.6656
X6.9516Y-3.8159
X6.9756Y-3.0317
X7.0146Y-3.762
T3
X6.3571Y-2.81
X6.4571Y-2.81
X6.5571Y-2.81
X6.6571Y-2.81
X6.7571Y-2.81
X6.8571Y-2.81
T4
X6.913Y-3.2896
X6.913Y-3.4274
X6.913Y-3.5652
T0
M30
