G04 #@! TF.GenerationSoftware,KiCad,Pcbnew,7.0.1*
G04 #@! TF.CreationDate,2023-11-26T12:32:17+08:00*
G04 #@! TF.ProjectId,SourceFIle,536f7572-6365-4464-996c-652e6b696361,02*
G04 #@! TF.SameCoordinates,Original*
G04 #@! TF.FileFunction,Legend,Top*
G04 #@! TF.FilePolarity,Positive*
%FSLAX46Y46*%
G04 Gerber Fmt 4.6, Leading zero omitted, Abs format (unit mm)*
G04 Created by KiCad (PCBNEW 7.0.1) date 2023-11-26 12:32:17*
%MOMM*%
%LPD*%
G01*
G04 APERTURE LIST*
%ADD10C,0.150000*%
%ADD11C,0.120000*%
%ADD12C,0.254000*%
%ADD13C,0.100000*%
%ADD14C,0.200000*%
%ADD15C,0.127000*%
G04 APERTURE END LIST*
D10*
X170863095Y-73578809D02*
X171196428Y-73578809D01*
X171339285Y-74102619D02*
X170863095Y-74102619D01*
X170863095Y-74102619D02*
X170863095Y-73102619D01*
X170863095Y-73102619D02*
X171339285Y-73102619D01*
X171767857Y-74102619D02*
X171767857Y-73102619D01*
X171767857Y-73102619D02*
X172339285Y-74102619D01*
X172339285Y-74102619D02*
X172339285Y-73102619D01*
X170596488Y-83813095D02*
X170548869Y-83908333D01*
X170548869Y-83908333D02*
X170548869Y-84051190D01*
X170548869Y-84051190D02*
X170596488Y-84194047D01*
X170596488Y-84194047D02*
X170691726Y-84289285D01*
X170691726Y-84289285D02*
X170786964Y-84336904D01*
X170786964Y-84336904D02*
X170977440Y-84384523D01*
X170977440Y-84384523D02*
X171120297Y-84384523D01*
X171120297Y-84384523D02*
X171310773Y-84336904D01*
X171310773Y-84336904D02*
X171406011Y-84289285D01*
X171406011Y-84289285D02*
X171501250Y-84194047D01*
X171501250Y-84194047D02*
X171548869Y-84051190D01*
X171548869Y-84051190D02*
X171548869Y-83955952D01*
X171548869Y-83955952D02*
X171501250Y-83813095D01*
X171501250Y-83813095D02*
X171453630Y-83765476D01*
X171453630Y-83765476D02*
X171120297Y-83765476D01*
X171120297Y-83765476D02*
X171120297Y-83955952D01*
X171548869Y-83336904D02*
X170548869Y-83336904D01*
X170548869Y-83336904D02*
X171548869Y-82765476D01*
X171548869Y-82765476D02*
X170548869Y-82765476D01*
X171548869Y-82289285D02*
X170548869Y-82289285D01*
X170548869Y-82289285D02*
X170548869Y-82051190D01*
X170548869Y-82051190D02*
X170596488Y-81908333D01*
X170596488Y-81908333D02*
X170691726Y-81813095D01*
X170691726Y-81813095D02*
X170786964Y-81765476D01*
X170786964Y-81765476D02*
X170977440Y-81717857D01*
X170977440Y-81717857D02*
X171120297Y-81717857D01*
X171120297Y-81717857D02*
X171310773Y-81765476D01*
X171310773Y-81765476D02*
X171406011Y-81813095D01*
X171406011Y-81813095D02*
X171501250Y-81908333D01*
X171501250Y-81908333D02*
X171548869Y-82051190D01*
X171548869Y-82051190D02*
X171548869Y-82289285D01*
X167988095Y-74077619D02*
X167988095Y-73077619D01*
X168654761Y-73077619D02*
X168845237Y-73077619D01*
X168845237Y-73077619D02*
X168940475Y-73125238D01*
X168940475Y-73125238D02*
X169035713Y-73220476D01*
X169035713Y-73220476D02*
X169083332Y-73410952D01*
X169083332Y-73410952D02*
X169083332Y-73744285D01*
X169083332Y-73744285D02*
X169035713Y-73934761D01*
X169035713Y-73934761D02*
X168940475Y-74030000D01*
X168940475Y-74030000D02*
X168845237Y-74077619D01*
X168845237Y-74077619D02*
X168654761Y-74077619D01*
X168654761Y-74077619D02*
X168559523Y-74030000D01*
X168559523Y-74030000D02*
X168464285Y-73934761D01*
X168464285Y-73934761D02*
X168416666Y-73744285D01*
X168416666Y-73744285D02*
X168416666Y-73410952D01*
X168416666Y-73410952D02*
X168464285Y-73220476D01*
X168464285Y-73220476D02*
X168559523Y-73125238D01*
X168559523Y-73125238D02*
X168654761Y-73077619D01*
X169702380Y-73077619D02*
X169797618Y-73077619D01*
X169797618Y-73077619D02*
X169892856Y-73125238D01*
X169892856Y-73125238D02*
X169940475Y-73172857D01*
X169940475Y-73172857D02*
X169988094Y-73268095D01*
X169988094Y-73268095D02*
X170035713Y-73458571D01*
X170035713Y-73458571D02*
X170035713Y-73696666D01*
X170035713Y-73696666D02*
X169988094Y-73887142D01*
X169988094Y-73887142D02*
X169940475Y-73982380D01*
X169940475Y-73982380D02*
X169892856Y-74030000D01*
X169892856Y-74030000D02*
X169797618Y-74077619D01*
X169797618Y-74077619D02*
X169702380Y-74077619D01*
X169702380Y-74077619D02*
X169607142Y-74030000D01*
X169607142Y-74030000D02*
X169559523Y-73982380D01*
X169559523Y-73982380D02*
X169511904Y-73887142D01*
X169511904Y-73887142D02*
X169464285Y-73696666D01*
X169464285Y-73696666D02*
X169464285Y-73458571D01*
X169464285Y-73458571D02*
X169511904Y-73268095D01*
X169511904Y-73268095D02*
X169559523Y-73172857D01*
X169559523Y-73172857D02*
X169607142Y-73125238D01*
X169607142Y-73125238D02*
X169702380Y-73077619D01*
X159467857Y-73027619D02*
X160086904Y-73027619D01*
X160086904Y-73027619D02*
X159753571Y-73408571D01*
X159753571Y-73408571D02*
X159896428Y-73408571D01*
X159896428Y-73408571D02*
X159991666Y-73456190D01*
X159991666Y-73456190D02*
X160039285Y-73503809D01*
X160039285Y-73503809D02*
X160086904Y-73599047D01*
X160086904Y-73599047D02*
X160086904Y-73837142D01*
X160086904Y-73837142D02*
X160039285Y-73932380D01*
X160039285Y-73932380D02*
X159991666Y-73980000D01*
X159991666Y-73980000D02*
X159896428Y-74027619D01*
X159896428Y-74027619D02*
X159610714Y-74027619D01*
X159610714Y-74027619D02*
X159515476Y-73980000D01*
X159515476Y-73980000D02*
X159467857Y-73932380D01*
X160515476Y-73932380D02*
X160563095Y-73980000D01*
X160563095Y-73980000D02*
X160515476Y-74027619D01*
X160515476Y-74027619D02*
X160467857Y-73980000D01*
X160467857Y-73980000D02*
X160515476Y-73932380D01*
X160515476Y-73932380D02*
X160515476Y-74027619D01*
X160896428Y-73027619D02*
X161515475Y-73027619D01*
X161515475Y-73027619D02*
X161182142Y-73408571D01*
X161182142Y-73408571D02*
X161324999Y-73408571D01*
X161324999Y-73408571D02*
X161420237Y-73456190D01*
X161420237Y-73456190D02*
X161467856Y-73503809D01*
X161467856Y-73503809D02*
X161515475Y-73599047D01*
X161515475Y-73599047D02*
X161515475Y-73837142D01*
X161515475Y-73837142D02*
X161467856Y-73932380D01*
X161467856Y-73932380D02*
X161420237Y-73980000D01*
X161420237Y-73980000D02*
X161324999Y-74027619D01*
X161324999Y-74027619D02*
X161039285Y-74027619D01*
X161039285Y-74027619D02*
X160944047Y-73980000D01*
X160944047Y-73980000D02*
X160896428Y-73932380D01*
X161801190Y-73027619D02*
X162134523Y-74027619D01*
X162134523Y-74027619D02*
X162467856Y-73027619D01*
X173661904Y-73225238D02*
X173566666Y-73177619D01*
X173566666Y-73177619D02*
X173423809Y-73177619D01*
X173423809Y-73177619D02*
X173280952Y-73225238D01*
X173280952Y-73225238D02*
X173185714Y-73320476D01*
X173185714Y-73320476D02*
X173138095Y-73415714D01*
X173138095Y-73415714D02*
X173090476Y-73606190D01*
X173090476Y-73606190D02*
X173090476Y-73749047D01*
X173090476Y-73749047D02*
X173138095Y-73939523D01*
X173138095Y-73939523D02*
X173185714Y-74034761D01*
X173185714Y-74034761D02*
X173280952Y-74130000D01*
X173280952Y-74130000D02*
X173423809Y-74177619D01*
X173423809Y-74177619D02*
X173519047Y-74177619D01*
X173519047Y-74177619D02*
X173661904Y-74130000D01*
X173661904Y-74130000D02*
X173709523Y-74082380D01*
X173709523Y-74082380D02*
X173709523Y-73749047D01*
X173709523Y-73749047D02*
X173519047Y-73749047D01*
X174138095Y-74177619D02*
X174138095Y-73177619D01*
X174138095Y-73177619D02*
X174709523Y-74177619D01*
X174709523Y-74177619D02*
X174709523Y-73177619D01*
X175185714Y-74177619D02*
X175185714Y-73177619D01*
X175185714Y-73177619D02*
X175423809Y-73177619D01*
X175423809Y-73177619D02*
X175566666Y-73225238D01*
X175566666Y-73225238D02*
X175661904Y-73320476D01*
X175661904Y-73320476D02*
X175709523Y-73415714D01*
X175709523Y-73415714D02*
X175757142Y-73606190D01*
X175757142Y-73606190D02*
X175757142Y-73749047D01*
X175757142Y-73749047D02*
X175709523Y-73939523D01*
X175709523Y-73939523D02*
X175661904Y-74034761D01*
X175661904Y-74034761D02*
X175566666Y-74130000D01*
X175566666Y-74130000D02*
X175423809Y-74177619D01*
X175423809Y-74177619D02*
X175185714Y-74177619D01*
X163170238Y-73027619D02*
X163741666Y-73027619D01*
X163455952Y-74027619D02*
X163455952Y-73027619D01*
X163979762Y-73027619D02*
X164646428Y-74027619D01*
X164646428Y-73027619D02*
X163979762Y-74027619D01*
D11*
X131129821Y-100541904D02*
X131701250Y-100541904D01*
X131015535Y-100827619D02*
X131415535Y-99827619D01*
X131415535Y-99827619D02*
X131815535Y-100827619D01*
X132044106Y-99827619D02*
X132444106Y-100827619D01*
X132444106Y-100827619D02*
X132844106Y-99827619D01*
X133186963Y-100541904D02*
X133758392Y-100541904D01*
X133072677Y-100827619D02*
X133472677Y-99827619D01*
X133472677Y-99827619D02*
X133872677Y-100827619D01*
X135015534Y-99827619D02*
X135415534Y-100827619D01*
X135415534Y-100827619D02*
X135815534Y-99827619D01*
X136844105Y-100827619D02*
X136158391Y-100827619D01*
X136501248Y-100827619D02*
X136501248Y-99827619D01*
X136501248Y-99827619D02*
X136386962Y-99970476D01*
X136386962Y-99970476D02*
X136272677Y-100065714D01*
X136272677Y-100065714D02*
X136158391Y-100113333D01*
X137358391Y-100732380D02*
X137415534Y-100780000D01*
X137415534Y-100780000D02*
X137358391Y-100827619D01*
X137358391Y-100827619D02*
X137301248Y-100780000D01*
X137301248Y-100780000D02*
X137358391Y-100732380D01*
X137358391Y-100732380D02*
X137358391Y-100827619D01*
X137872677Y-99922857D02*
X137929820Y-99875238D01*
X137929820Y-99875238D02*
X138044106Y-99827619D01*
X138044106Y-99827619D02*
X138329820Y-99827619D01*
X138329820Y-99827619D02*
X138444106Y-99875238D01*
X138444106Y-99875238D02*
X138501248Y-99922857D01*
X138501248Y-99922857D02*
X138558391Y-100018095D01*
X138558391Y-100018095D02*
X138558391Y-100113333D01*
X138558391Y-100113333D02*
X138501248Y-100256190D01*
X138501248Y-100256190D02*
X137815534Y-100827619D01*
X137815534Y-100827619D02*
X138558391Y-100827619D01*
D10*
X171005059Y-86873571D02*
X171052678Y-86730714D01*
X171052678Y-86730714D02*
X171100297Y-86683095D01*
X171100297Y-86683095D02*
X171195535Y-86635476D01*
X171195535Y-86635476D02*
X171338392Y-86635476D01*
X171338392Y-86635476D02*
X171433630Y-86683095D01*
X171433630Y-86683095D02*
X171481250Y-86730714D01*
X171481250Y-86730714D02*
X171528869Y-86825952D01*
X171528869Y-86825952D02*
X171528869Y-87206904D01*
X171528869Y-87206904D02*
X170528869Y-87206904D01*
X170528869Y-87206904D02*
X170528869Y-86873571D01*
X170528869Y-86873571D02*
X170576488Y-86778333D01*
X170576488Y-86778333D02*
X170624107Y-86730714D01*
X170624107Y-86730714D02*
X170719345Y-86683095D01*
X170719345Y-86683095D02*
X170814583Y-86683095D01*
X170814583Y-86683095D02*
X170909821Y-86730714D01*
X170909821Y-86730714D02*
X170957440Y-86778333D01*
X170957440Y-86778333D02*
X171005059Y-86873571D01*
X171005059Y-86873571D02*
X171005059Y-87206904D01*
X171373154Y-90694523D02*
X171373154Y-90218333D01*
X171658869Y-90789761D02*
X170658869Y-90456428D01*
X170658869Y-90456428D02*
X171658869Y-90123095D01*
X166284523Y-74052619D02*
X165951190Y-73576428D01*
X165713095Y-74052619D02*
X165713095Y-73052619D01*
X165713095Y-73052619D02*
X166094047Y-73052619D01*
X166094047Y-73052619D02*
X166189285Y-73100238D01*
X166189285Y-73100238D02*
X166236904Y-73147857D01*
X166236904Y-73147857D02*
X166284523Y-73243095D01*
X166284523Y-73243095D02*
X166284523Y-73385952D01*
X166284523Y-73385952D02*
X166236904Y-73481190D01*
X166236904Y-73481190D02*
X166189285Y-73528809D01*
X166189285Y-73528809D02*
X166094047Y-73576428D01*
X166094047Y-73576428D02*
X165713095Y-73576428D01*
X166617857Y-73052619D02*
X167284523Y-74052619D01*
X167284523Y-73052619D02*
X166617857Y-74052619D01*
X164987380Y-82822857D02*
X165035000Y-82870476D01*
X165035000Y-82870476D02*
X165082619Y-83013333D01*
X165082619Y-83013333D02*
X165082619Y-83108571D01*
X165082619Y-83108571D02*
X165035000Y-83251428D01*
X165035000Y-83251428D02*
X164939761Y-83346666D01*
X164939761Y-83346666D02*
X164844523Y-83394285D01*
X164844523Y-83394285D02*
X164654047Y-83441904D01*
X164654047Y-83441904D02*
X164511190Y-83441904D01*
X164511190Y-83441904D02*
X164320714Y-83394285D01*
X164320714Y-83394285D02*
X164225476Y-83346666D01*
X164225476Y-83346666D02*
X164130238Y-83251428D01*
X164130238Y-83251428D02*
X164082619Y-83108571D01*
X164082619Y-83108571D02*
X164082619Y-83013333D01*
X164082619Y-83013333D02*
X164130238Y-82870476D01*
X164130238Y-82870476D02*
X164177857Y-82822857D01*
X165082619Y-81870476D02*
X165082619Y-82441904D01*
X165082619Y-82156190D02*
X164082619Y-82156190D01*
X164082619Y-82156190D02*
X164225476Y-82251428D01*
X164225476Y-82251428D02*
X164320714Y-82346666D01*
X164320714Y-82346666D02*
X164368333Y-82441904D01*
X165082619Y-81394285D02*
X165082619Y-81203809D01*
X165082619Y-81203809D02*
X165035000Y-81108571D01*
X165035000Y-81108571D02*
X164987380Y-81060952D01*
X164987380Y-81060952D02*
X164844523Y-80965714D01*
X164844523Y-80965714D02*
X164654047Y-80918095D01*
X164654047Y-80918095D02*
X164273095Y-80918095D01*
X164273095Y-80918095D02*
X164177857Y-80965714D01*
X164177857Y-80965714D02*
X164130238Y-81013333D01*
X164130238Y-81013333D02*
X164082619Y-81108571D01*
X164082619Y-81108571D02*
X164082619Y-81299047D01*
X164082619Y-81299047D02*
X164130238Y-81394285D01*
X164130238Y-81394285D02*
X164177857Y-81441904D01*
X164177857Y-81441904D02*
X164273095Y-81489523D01*
X164273095Y-81489523D02*
X164511190Y-81489523D01*
X164511190Y-81489523D02*
X164606428Y-81441904D01*
X164606428Y-81441904D02*
X164654047Y-81394285D01*
X164654047Y-81394285D02*
X164701666Y-81299047D01*
X164701666Y-81299047D02*
X164701666Y-81108571D01*
X164701666Y-81108571D02*
X164654047Y-81013333D01*
X164654047Y-81013333D02*
X164606428Y-80965714D01*
X164606428Y-80965714D02*
X164511190Y-80918095D01*
X136171345Y-86289285D02*
X135790392Y-86555952D01*
X136171345Y-86746428D02*
X135371345Y-86746428D01*
X135371345Y-86746428D02*
X135371345Y-86441666D01*
X135371345Y-86441666D02*
X135409440Y-86365476D01*
X135409440Y-86365476D02*
X135447535Y-86327381D01*
X135447535Y-86327381D02*
X135523726Y-86289285D01*
X135523726Y-86289285D02*
X135638011Y-86289285D01*
X135638011Y-86289285D02*
X135714202Y-86327381D01*
X135714202Y-86327381D02*
X135752297Y-86365476D01*
X135752297Y-86365476D02*
X135790392Y-86441666D01*
X135790392Y-86441666D02*
X135790392Y-86746428D01*
X135447535Y-85984524D02*
X135409440Y-85946428D01*
X135409440Y-85946428D02*
X135371345Y-85870238D01*
X135371345Y-85870238D02*
X135371345Y-85679762D01*
X135371345Y-85679762D02*
X135409440Y-85603571D01*
X135409440Y-85603571D02*
X135447535Y-85565476D01*
X135447535Y-85565476D02*
X135523726Y-85527381D01*
X135523726Y-85527381D02*
X135599916Y-85527381D01*
X135599916Y-85527381D02*
X135714202Y-85565476D01*
X135714202Y-85565476D02*
X136171345Y-86022619D01*
X136171345Y-86022619D02*
X136171345Y-85527381D01*
X135371345Y-84841666D02*
X135371345Y-84994047D01*
X135371345Y-84994047D02*
X135409440Y-85070238D01*
X135409440Y-85070238D02*
X135447535Y-85108333D01*
X135447535Y-85108333D02*
X135561821Y-85184523D01*
X135561821Y-85184523D02*
X135714202Y-85222619D01*
X135714202Y-85222619D02*
X136018964Y-85222619D01*
X136018964Y-85222619D02*
X136095154Y-85184523D01*
X136095154Y-85184523D02*
X136133250Y-85146428D01*
X136133250Y-85146428D02*
X136171345Y-85070238D01*
X136171345Y-85070238D02*
X136171345Y-84917857D01*
X136171345Y-84917857D02*
X136133250Y-84841666D01*
X136133250Y-84841666D02*
X136095154Y-84803571D01*
X136095154Y-84803571D02*
X136018964Y-84765476D01*
X136018964Y-84765476D02*
X135828488Y-84765476D01*
X135828488Y-84765476D02*
X135752297Y-84803571D01*
X135752297Y-84803571D02*
X135714202Y-84841666D01*
X135714202Y-84841666D02*
X135676107Y-84917857D01*
X135676107Y-84917857D02*
X135676107Y-85070238D01*
X135676107Y-85070238D02*
X135714202Y-85146428D01*
X135714202Y-85146428D02*
X135752297Y-85184523D01*
X135752297Y-85184523D02*
X135828488Y-85222619D01*
X163707380Y-82822857D02*
X163755000Y-82870476D01*
X163755000Y-82870476D02*
X163802619Y-83013333D01*
X163802619Y-83013333D02*
X163802619Y-83108571D01*
X163802619Y-83108571D02*
X163755000Y-83251428D01*
X163755000Y-83251428D02*
X163659761Y-83346666D01*
X163659761Y-83346666D02*
X163564523Y-83394285D01*
X163564523Y-83394285D02*
X163374047Y-83441904D01*
X163374047Y-83441904D02*
X163231190Y-83441904D01*
X163231190Y-83441904D02*
X163040714Y-83394285D01*
X163040714Y-83394285D02*
X162945476Y-83346666D01*
X162945476Y-83346666D02*
X162850238Y-83251428D01*
X162850238Y-83251428D02*
X162802619Y-83108571D01*
X162802619Y-83108571D02*
X162802619Y-83013333D01*
X162802619Y-83013333D02*
X162850238Y-82870476D01*
X162850238Y-82870476D02*
X162897857Y-82822857D01*
X163802619Y-81870476D02*
X163802619Y-82441904D01*
X163802619Y-82156190D02*
X162802619Y-82156190D01*
X162802619Y-82156190D02*
X162945476Y-82251428D01*
X162945476Y-82251428D02*
X163040714Y-82346666D01*
X163040714Y-82346666D02*
X163088333Y-82441904D01*
X163231190Y-81299047D02*
X163183571Y-81394285D01*
X163183571Y-81394285D02*
X163135952Y-81441904D01*
X163135952Y-81441904D02*
X163040714Y-81489523D01*
X163040714Y-81489523D02*
X162993095Y-81489523D01*
X162993095Y-81489523D02*
X162897857Y-81441904D01*
X162897857Y-81441904D02*
X162850238Y-81394285D01*
X162850238Y-81394285D02*
X162802619Y-81299047D01*
X162802619Y-81299047D02*
X162802619Y-81108571D01*
X162802619Y-81108571D02*
X162850238Y-81013333D01*
X162850238Y-81013333D02*
X162897857Y-80965714D01*
X162897857Y-80965714D02*
X162993095Y-80918095D01*
X162993095Y-80918095D02*
X163040714Y-80918095D01*
X163040714Y-80918095D02*
X163135952Y-80965714D01*
X163135952Y-80965714D02*
X163183571Y-81013333D01*
X163183571Y-81013333D02*
X163231190Y-81108571D01*
X163231190Y-81108571D02*
X163231190Y-81299047D01*
X163231190Y-81299047D02*
X163278809Y-81394285D01*
X163278809Y-81394285D02*
X163326428Y-81441904D01*
X163326428Y-81441904D02*
X163421666Y-81489523D01*
X163421666Y-81489523D02*
X163612142Y-81489523D01*
X163612142Y-81489523D02*
X163707380Y-81441904D01*
X163707380Y-81441904D02*
X163755000Y-81394285D01*
X163755000Y-81394285D02*
X163802619Y-81299047D01*
X163802619Y-81299047D02*
X163802619Y-81108571D01*
X163802619Y-81108571D02*
X163755000Y-81013333D01*
X163755000Y-81013333D02*
X163707380Y-80965714D01*
X163707380Y-80965714D02*
X163612142Y-80918095D01*
X163612142Y-80918095D02*
X163421666Y-80918095D01*
X163421666Y-80918095D02*
X163326428Y-80965714D01*
X163326428Y-80965714D02*
X163278809Y-81013333D01*
X163278809Y-81013333D02*
X163231190Y-81108571D01*
X168068392Y-87299880D02*
X168020773Y-87347500D01*
X168020773Y-87347500D02*
X167877916Y-87395119D01*
X167877916Y-87395119D02*
X167782678Y-87395119D01*
X167782678Y-87395119D02*
X167639821Y-87347500D01*
X167639821Y-87347500D02*
X167544583Y-87252261D01*
X167544583Y-87252261D02*
X167496964Y-87157023D01*
X167496964Y-87157023D02*
X167449345Y-86966547D01*
X167449345Y-86966547D02*
X167449345Y-86823690D01*
X167449345Y-86823690D02*
X167496964Y-86633214D01*
X167496964Y-86633214D02*
X167544583Y-86537976D01*
X167544583Y-86537976D02*
X167639821Y-86442738D01*
X167639821Y-86442738D02*
X167782678Y-86395119D01*
X167782678Y-86395119D02*
X167877916Y-86395119D01*
X167877916Y-86395119D02*
X168020773Y-86442738D01*
X168020773Y-86442738D02*
X168068392Y-86490357D01*
X168401726Y-86395119D02*
X169020773Y-86395119D01*
X169020773Y-86395119D02*
X168687440Y-86776071D01*
X168687440Y-86776071D02*
X168830297Y-86776071D01*
X168830297Y-86776071D02*
X168925535Y-86823690D01*
X168925535Y-86823690D02*
X168973154Y-86871309D01*
X168973154Y-86871309D02*
X169020773Y-86966547D01*
X169020773Y-86966547D02*
X169020773Y-87204642D01*
X169020773Y-87204642D02*
X168973154Y-87299880D01*
X168973154Y-87299880D02*
X168925535Y-87347500D01*
X168925535Y-87347500D02*
X168830297Y-87395119D01*
X168830297Y-87395119D02*
X168544583Y-87395119D01*
X168544583Y-87395119D02*
X168449345Y-87347500D01*
X168449345Y-87347500D02*
X168401726Y-87299880D01*
X169401726Y-86490357D02*
X169449345Y-86442738D01*
X169449345Y-86442738D02*
X169544583Y-86395119D01*
X169544583Y-86395119D02*
X169782678Y-86395119D01*
X169782678Y-86395119D02*
X169877916Y-86442738D01*
X169877916Y-86442738D02*
X169925535Y-86490357D01*
X169925535Y-86490357D02*
X169973154Y-86585595D01*
X169973154Y-86585595D02*
X169973154Y-86680833D01*
X169973154Y-86680833D02*
X169925535Y-86823690D01*
X169925535Y-86823690D02*
X169354107Y-87395119D01*
X169354107Y-87395119D02*
X169973154Y-87395119D01*
X158773869Y-71928333D02*
X159488154Y-71928333D01*
X159488154Y-71928333D02*
X159631011Y-71975952D01*
X159631011Y-71975952D02*
X159726250Y-72071190D01*
X159726250Y-72071190D02*
X159773869Y-72214047D01*
X159773869Y-72214047D02*
X159773869Y-72309285D01*
X158869107Y-71499761D02*
X158821488Y-71452142D01*
X158821488Y-71452142D02*
X158773869Y-71356904D01*
X158773869Y-71356904D02*
X158773869Y-71118809D01*
X158773869Y-71118809D02*
X158821488Y-71023571D01*
X158821488Y-71023571D02*
X158869107Y-70975952D01*
X158869107Y-70975952D02*
X158964345Y-70928333D01*
X158964345Y-70928333D02*
X159059583Y-70928333D01*
X159059583Y-70928333D02*
X159202440Y-70975952D01*
X159202440Y-70975952D02*
X159773869Y-71547380D01*
X159773869Y-71547380D02*
X159773869Y-70928333D01*
X166098392Y-93312380D02*
X166050773Y-93360000D01*
X166050773Y-93360000D02*
X165907916Y-93407619D01*
X165907916Y-93407619D02*
X165812678Y-93407619D01*
X165812678Y-93407619D02*
X165669821Y-93360000D01*
X165669821Y-93360000D02*
X165574583Y-93264761D01*
X165574583Y-93264761D02*
X165526964Y-93169523D01*
X165526964Y-93169523D02*
X165479345Y-92979047D01*
X165479345Y-92979047D02*
X165479345Y-92836190D01*
X165479345Y-92836190D02*
X165526964Y-92645714D01*
X165526964Y-92645714D02*
X165574583Y-92550476D01*
X165574583Y-92550476D02*
X165669821Y-92455238D01*
X165669821Y-92455238D02*
X165812678Y-92407619D01*
X165812678Y-92407619D02*
X165907916Y-92407619D01*
X165907916Y-92407619D02*
X166050773Y-92455238D01*
X166050773Y-92455238D02*
X166098392Y-92502857D01*
X166479345Y-92502857D02*
X166526964Y-92455238D01*
X166526964Y-92455238D02*
X166622202Y-92407619D01*
X166622202Y-92407619D02*
X166860297Y-92407619D01*
X166860297Y-92407619D02*
X166955535Y-92455238D01*
X166955535Y-92455238D02*
X167003154Y-92502857D01*
X167003154Y-92502857D02*
X167050773Y-92598095D01*
X167050773Y-92598095D02*
X167050773Y-92693333D01*
X167050773Y-92693333D02*
X167003154Y-92836190D01*
X167003154Y-92836190D02*
X166431726Y-93407619D01*
X166431726Y-93407619D02*
X167050773Y-93407619D01*
X167384107Y-92407619D02*
X168050773Y-92407619D01*
X168050773Y-92407619D02*
X167622202Y-93407619D01*
X137237619Y-77488094D02*
X136237619Y-77488094D01*
X136237619Y-77488094D02*
X136237619Y-77249999D01*
X136237619Y-77249999D02*
X136285238Y-77107142D01*
X136285238Y-77107142D02*
X136380476Y-77011904D01*
X136380476Y-77011904D02*
X136475714Y-76964285D01*
X136475714Y-76964285D02*
X136666190Y-76916666D01*
X136666190Y-76916666D02*
X136809047Y-76916666D01*
X136809047Y-76916666D02*
X136999523Y-76964285D01*
X136999523Y-76964285D02*
X137094761Y-77011904D01*
X137094761Y-77011904D02*
X137190000Y-77107142D01*
X137190000Y-77107142D02*
X137237619Y-77249999D01*
X137237619Y-77249999D02*
X137237619Y-77488094D01*
X136237619Y-76583332D02*
X136237619Y-75964285D01*
X136237619Y-75964285D02*
X136618571Y-76297618D01*
X136618571Y-76297618D02*
X136618571Y-76154761D01*
X136618571Y-76154761D02*
X136666190Y-76059523D01*
X136666190Y-76059523D02*
X136713809Y-76011904D01*
X136713809Y-76011904D02*
X136809047Y-75964285D01*
X136809047Y-75964285D02*
X137047142Y-75964285D01*
X137047142Y-75964285D02*
X137142380Y-76011904D01*
X137142380Y-76011904D02*
X137190000Y-76059523D01*
X137190000Y-76059523D02*
X137237619Y-76154761D01*
X137237619Y-76154761D02*
X137237619Y-76440475D01*
X137237619Y-76440475D02*
X137190000Y-76535713D01*
X137190000Y-76535713D02*
X137142380Y-76583332D01*
X160848392Y-88232380D02*
X160800773Y-88280000D01*
X160800773Y-88280000D02*
X160657916Y-88327619D01*
X160657916Y-88327619D02*
X160562678Y-88327619D01*
X160562678Y-88327619D02*
X160419821Y-88280000D01*
X160419821Y-88280000D02*
X160324583Y-88184761D01*
X160324583Y-88184761D02*
X160276964Y-88089523D01*
X160276964Y-88089523D02*
X160229345Y-87899047D01*
X160229345Y-87899047D02*
X160229345Y-87756190D01*
X160229345Y-87756190D02*
X160276964Y-87565714D01*
X160276964Y-87565714D02*
X160324583Y-87470476D01*
X160324583Y-87470476D02*
X160419821Y-87375238D01*
X160419821Y-87375238D02*
X160562678Y-87327619D01*
X160562678Y-87327619D02*
X160657916Y-87327619D01*
X160657916Y-87327619D02*
X160800773Y-87375238D01*
X160800773Y-87375238D02*
X160848392Y-87422857D01*
X161181726Y-87327619D02*
X161800773Y-87327619D01*
X161800773Y-87327619D02*
X161467440Y-87708571D01*
X161467440Y-87708571D02*
X161610297Y-87708571D01*
X161610297Y-87708571D02*
X161705535Y-87756190D01*
X161705535Y-87756190D02*
X161753154Y-87803809D01*
X161753154Y-87803809D02*
X161800773Y-87899047D01*
X161800773Y-87899047D02*
X161800773Y-88137142D01*
X161800773Y-88137142D02*
X161753154Y-88232380D01*
X161753154Y-88232380D02*
X161705535Y-88280000D01*
X161705535Y-88280000D02*
X161610297Y-88327619D01*
X161610297Y-88327619D02*
X161324583Y-88327619D01*
X161324583Y-88327619D02*
X161229345Y-88280000D01*
X161229345Y-88280000D02*
X161181726Y-88232380D01*
X162134107Y-87327619D02*
X162753154Y-87327619D01*
X162753154Y-87327619D02*
X162419821Y-87708571D01*
X162419821Y-87708571D02*
X162562678Y-87708571D01*
X162562678Y-87708571D02*
X162657916Y-87756190D01*
X162657916Y-87756190D02*
X162705535Y-87803809D01*
X162705535Y-87803809D02*
X162753154Y-87899047D01*
X162753154Y-87899047D02*
X162753154Y-88137142D01*
X162753154Y-88137142D02*
X162705535Y-88232380D01*
X162705535Y-88232380D02*
X162657916Y-88280000D01*
X162657916Y-88280000D02*
X162562678Y-88327619D01*
X162562678Y-88327619D02*
X162276964Y-88327619D01*
X162276964Y-88327619D02*
X162181726Y-88280000D01*
X162181726Y-88280000D02*
X162134107Y-88232380D01*
X177980615Y-77265436D02*
X178028234Y-77122579D01*
X178028234Y-77122579D02*
X178028234Y-76884484D01*
X178028234Y-76884484D02*
X177980615Y-76789246D01*
X177980615Y-76789246D02*
X177932995Y-76741627D01*
X177932995Y-76741627D02*
X177837757Y-76694008D01*
X177837757Y-76694008D02*
X177742519Y-76694008D01*
X177742519Y-76694008D02*
X177647281Y-76741627D01*
X177647281Y-76741627D02*
X177599662Y-76789246D01*
X177599662Y-76789246D02*
X177552043Y-76884484D01*
X177552043Y-76884484D02*
X177504424Y-77074960D01*
X177504424Y-77074960D02*
X177456805Y-77170198D01*
X177456805Y-77170198D02*
X177409186Y-77217817D01*
X177409186Y-77217817D02*
X177313948Y-77265436D01*
X177313948Y-77265436D02*
X177218710Y-77265436D01*
X177218710Y-77265436D02*
X177123472Y-77217817D01*
X177123472Y-77217817D02*
X177075853Y-77170198D01*
X177075853Y-77170198D02*
X177028234Y-77074960D01*
X177028234Y-77074960D02*
X177028234Y-76836865D01*
X177028234Y-76836865D02*
X177075853Y-76694008D01*
X177028234Y-76360674D02*
X178028234Y-76122579D01*
X178028234Y-76122579D02*
X177313948Y-75932103D01*
X177313948Y-75932103D02*
X178028234Y-75741627D01*
X178028234Y-75741627D02*
X177028234Y-75503532D01*
X178028234Y-74598770D02*
X178028234Y-75170198D01*
X178028234Y-74884484D02*
X177028234Y-74884484D01*
X177028234Y-74884484D02*
X177171091Y-74979722D01*
X177171091Y-74979722D02*
X177266329Y-75074960D01*
X177266329Y-75074960D02*
X177313948Y-75170198D01*
D12*
X138410237Y-71812526D02*
X138410237Y-70542526D01*
X139740714Y-71691573D02*
X139680238Y-71752050D01*
X139680238Y-71752050D02*
X139498809Y-71812526D01*
X139498809Y-71812526D02*
X139377857Y-71812526D01*
X139377857Y-71812526D02*
X139196428Y-71752050D01*
X139196428Y-71752050D02*
X139075476Y-71631097D01*
X139075476Y-71631097D02*
X139014999Y-71510145D01*
X139014999Y-71510145D02*
X138954523Y-71268240D01*
X138954523Y-71268240D02*
X138954523Y-71086811D01*
X138954523Y-71086811D02*
X139014999Y-70844907D01*
X139014999Y-70844907D02*
X139075476Y-70723954D01*
X139075476Y-70723954D02*
X139196428Y-70603002D01*
X139196428Y-70603002D02*
X139377857Y-70542526D01*
X139377857Y-70542526D02*
X139498809Y-70542526D01*
X139498809Y-70542526D02*
X139680238Y-70603002D01*
X139680238Y-70603002D02*
X139740714Y-70663478D01*
X140950238Y-71812526D02*
X140224523Y-71812526D01*
X140587380Y-71812526D02*
X140587380Y-70542526D01*
X140587380Y-70542526D02*
X140466428Y-70723954D01*
X140466428Y-70723954D02*
X140345476Y-70844907D01*
X140345476Y-70844907D02*
X140224523Y-70905383D01*
X128869583Y-96142526D02*
X128264821Y-96142526D01*
X128264821Y-96142526D02*
X128264821Y-94872526D01*
X129958155Y-96142526D02*
X129232440Y-96142526D01*
X129595297Y-96142526D02*
X129595297Y-94872526D01*
X129595297Y-94872526D02*
X129474345Y-95053954D01*
X129474345Y-95053954D02*
X129353393Y-95174907D01*
X129353393Y-95174907D02*
X129232440Y-95235383D01*
D10*
X163008630Y-90737857D02*
X163056250Y-90785476D01*
X163056250Y-90785476D02*
X163103869Y-90928333D01*
X163103869Y-90928333D02*
X163103869Y-91023571D01*
X163103869Y-91023571D02*
X163056250Y-91166428D01*
X163056250Y-91166428D02*
X162961011Y-91261666D01*
X162961011Y-91261666D02*
X162865773Y-91309285D01*
X162865773Y-91309285D02*
X162675297Y-91356904D01*
X162675297Y-91356904D02*
X162532440Y-91356904D01*
X162532440Y-91356904D02*
X162341964Y-91309285D01*
X162341964Y-91309285D02*
X162246726Y-91261666D01*
X162246726Y-91261666D02*
X162151488Y-91166428D01*
X162151488Y-91166428D02*
X162103869Y-91023571D01*
X162103869Y-91023571D02*
X162103869Y-90928333D01*
X162103869Y-90928333D02*
X162151488Y-90785476D01*
X162151488Y-90785476D02*
X162199107Y-90737857D01*
X162103869Y-90404523D02*
X162103869Y-89785476D01*
X162103869Y-89785476D02*
X162484821Y-90118809D01*
X162484821Y-90118809D02*
X162484821Y-89975952D01*
X162484821Y-89975952D02*
X162532440Y-89880714D01*
X162532440Y-89880714D02*
X162580059Y-89833095D01*
X162580059Y-89833095D02*
X162675297Y-89785476D01*
X162675297Y-89785476D02*
X162913392Y-89785476D01*
X162913392Y-89785476D02*
X163008630Y-89833095D01*
X163008630Y-89833095D02*
X163056250Y-89880714D01*
X163056250Y-89880714D02*
X163103869Y-89975952D01*
X163103869Y-89975952D02*
X163103869Y-90261666D01*
X163103869Y-90261666D02*
X163056250Y-90356904D01*
X163056250Y-90356904D02*
X163008630Y-90404523D01*
X162103869Y-89166428D02*
X162103869Y-89071190D01*
X162103869Y-89071190D02*
X162151488Y-88975952D01*
X162151488Y-88975952D02*
X162199107Y-88928333D01*
X162199107Y-88928333D02*
X162294345Y-88880714D01*
X162294345Y-88880714D02*
X162484821Y-88833095D01*
X162484821Y-88833095D02*
X162722916Y-88833095D01*
X162722916Y-88833095D02*
X162913392Y-88880714D01*
X162913392Y-88880714D02*
X163008630Y-88928333D01*
X163008630Y-88928333D02*
X163056250Y-88975952D01*
X163056250Y-88975952D02*
X163103869Y-89071190D01*
X163103869Y-89071190D02*
X163103869Y-89166428D01*
X163103869Y-89166428D02*
X163056250Y-89261666D01*
X163056250Y-89261666D02*
X163008630Y-89309285D01*
X163008630Y-89309285D02*
X162913392Y-89356904D01*
X162913392Y-89356904D02*
X162722916Y-89404523D01*
X162722916Y-89404523D02*
X162484821Y-89404523D01*
X162484821Y-89404523D02*
X162294345Y-89356904D01*
X162294345Y-89356904D02*
X162199107Y-89309285D01*
X162199107Y-89309285D02*
X162151488Y-89261666D01*
X162151488Y-89261666D02*
X162103869Y-89166428D01*
X161143869Y-97017857D02*
X160667678Y-97351190D01*
X161143869Y-97589285D02*
X160143869Y-97589285D01*
X160143869Y-97589285D02*
X160143869Y-97208333D01*
X160143869Y-97208333D02*
X160191488Y-97113095D01*
X160191488Y-97113095D02*
X160239107Y-97065476D01*
X160239107Y-97065476D02*
X160334345Y-97017857D01*
X160334345Y-97017857D02*
X160477202Y-97017857D01*
X160477202Y-97017857D02*
X160572440Y-97065476D01*
X160572440Y-97065476D02*
X160620059Y-97113095D01*
X160620059Y-97113095D02*
X160667678Y-97208333D01*
X160667678Y-97208333D02*
X160667678Y-97589285D01*
X160239107Y-96636904D02*
X160191488Y-96589285D01*
X160191488Y-96589285D02*
X160143869Y-96494047D01*
X160143869Y-96494047D02*
X160143869Y-96255952D01*
X160143869Y-96255952D02*
X160191488Y-96160714D01*
X160191488Y-96160714D02*
X160239107Y-96113095D01*
X160239107Y-96113095D02*
X160334345Y-96065476D01*
X160334345Y-96065476D02*
X160429583Y-96065476D01*
X160429583Y-96065476D02*
X160572440Y-96113095D01*
X160572440Y-96113095D02*
X161143869Y-96684523D01*
X161143869Y-96684523D02*
X161143869Y-96065476D01*
X160143869Y-95446428D02*
X160143869Y-95351190D01*
X160143869Y-95351190D02*
X160191488Y-95255952D01*
X160191488Y-95255952D02*
X160239107Y-95208333D01*
X160239107Y-95208333D02*
X160334345Y-95160714D01*
X160334345Y-95160714D02*
X160524821Y-95113095D01*
X160524821Y-95113095D02*
X160762916Y-95113095D01*
X160762916Y-95113095D02*
X160953392Y-95160714D01*
X160953392Y-95160714D02*
X161048630Y-95208333D01*
X161048630Y-95208333D02*
X161096250Y-95255952D01*
X161096250Y-95255952D02*
X161143869Y-95351190D01*
X161143869Y-95351190D02*
X161143869Y-95446428D01*
X161143869Y-95446428D02*
X161096250Y-95541666D01*
X161096250Y-95541666D02*
X161048630Y-95589285D01*
X161048630Y-95589285D02*
X160953392Y-95636904D01*
X160953392Y-95636904D02*
X160762916Y-95684523D01*
X160762916Y-95684523D02*
X160524821Y-95684523D01*
X160524821Y-95684523D02*
X160334345Y-95636904D01*
X160334345Y-95636904D02*
X160239107Y-95589285D01*
X160239107Y-95589285D02*
X160191488Y-95541666D01*
X160191488Y-95541666D02*
X160143869Y-95446428D01*
X177607916Y-93287619D02*
X177607916Y-94001904D01*
X177607916Y-94001904D02*
X177560297Y-94144761D01*
X177560297Y-94144761D02*
X177465059Y-94240000D01*
X177465059Y-94240000D02*
X177322202Y-94287619D01*
X177322202Y-94287619D02*
X177226964Y-94287619D01*
X178512678Y-93620952D02*
X178512678Y-94287619D01*
X178274583Y-93240000D02*
X178036488Y-93954285D01*
X178036488Y-93954285D02*
X178655535Y-93954285D01*
X178266250Y-80758332D02*
X178313869Y-80615475D01*
X178313869Y-80615475D02*
X178313869Y-80377380D01*
X178313869Y-80377380D02*
X178266250Y-80282142D01*
X178266250Y-80282142D02*
X178218630Y-80234523D01*
X178218630Y-80234523D02*
X178123392Y-80186904D01*
X178123392Y-80186904D02*
X178028154Y-80186904D01*
X178028154Y-80186904D02*
X177932916Y-80234523D01*
X177932916Y-80234523D02*
X177885297Y-80282142D01*
X177885297Y-80282142D02*
X177837678Y-80377380D01*
X177837678Y-80377380D02*
X177790059Y-80567856D01*
X177790059Y-80567856D02*
X177742440Y-80663094D01*
X177742440Y-80663094D02*
X177694821Y-80710713D01*
X177694821Y-80710713D02*
X177599583Y-80758332D01*
X177599583Y-80758332D02*
X177504345Y-80758332D01*
X177504345Y-80758332D02*
X177409107Y-80710713D01*
X177409107Y-80710713D02*
X177361488Y-80663094D01*
X177361488Y-80663094D02*
X177313869Y-80567856D01*
X177313869Y-80567856D02*
X177313869Y-80329761D01*
X177313869Y-80329761D02*
X177361488Y-80186904D01*
X177313869Y-79853570D02*
X178313869Y-79615475D01*
X178313869Y-79615475D02*
X177599583Y-79424999D01*
X177599583Y-79424999D02*
X178313869Y-79234523D01*
X178313869Y-79234523D02*
X177313869Y-78996428D01*
X177409107Y-78663094D02*
X177361488Y-78615475D01*
X177361488Y-78615475D02*
X177313869Y-78520237D01*
X177313869Y-78520237D02*
X177313869Y-78282142D01*
X177313869Y-78282142D02*
X177361488Y-78186904D01*
X177361488Y-78186904D02*
X177409107Y-78139285D01*
X177409107Y-78139285D02*
X177504345Y-78091666D01*
X177504345Y-78091666D02*
X177599583Y-78091666D01*
X177599583Y-78091666D02*
X177742440Y-78139285D01*
X177742440Y-78139285D02*
X178313869Y-78710713D01*
X178313869Y-78710713D02*
X178313869Y-78091666D01*
X135387619Y-77538094D02*
X134387619Y-77538094D01*
X134387619Y-77538094D02*
X134387619Y-77299999D01*
X134387619Y-77299999D02*
X134435238Y-77157142D01*
X134435238Y-77157142D02*
X134530476Y-77061904D01*
X134530476Y-77061904D02*
X134625714Y-77014285D01*
X134625714Y-77014285D02*
X134816190Y-76966666D01*
X134816190Y-76966666D02*
X134959047Y-76966666D01*
X134959047Y-76966666D02*
X135149523Y-77014285D01*
X135149523Y-77014285D02*
X135244761Y-77061904D01*
X135244761Y-77061904D02*
X135340000Y-77157142D01*
X135340000Y-77157142D02*
X135387619Y-77299999D01*
X135387619Y-77299999D02*
X135387619Y-77538094D01*
X134720952Y-76109523D02*
X135387619Y-76109523D01*
X134340000Y-76347618D02*
X135054285Y-76585713D01*
X135054285Y-76585713D02*
X135054285Y-75966666D01*
X134491345Y-86179285D02*
X134110392Y-86445952D01*
X134491345Y-86636428D02*
X133691345Y-86636428D01*
X133691345Y-86636428D02*
X133691345Y-86331666D01*
X133691345Y-86331666D02*
X133729440Y-86255476D01*
X133729440Y-86255476D02*
X133767535Y-86217381D01*
X133767535Y-86217381D02*
X133843726Y-86179285D01*
X133843726Y-86179285D02*
X133958011Y-86179285D01*
X133958011Y-86179285D02*
X134034202Y-86217381D01*
X134034202Y-86217381D02*
X134072297Y-86255476D01*
X134072297Y-86255476D02*
X134110392Y-86331666D01*
X134110392Y-86331666D02*
X134110392Y-86636428D01*
X133767535Y-85874524D02*
X133729440Y-85836428D01*
X133729440Y-85836428D02*
X133691345Y-85760238D01*
X133691345Y-85760238D02*
X133691345Y-85569762D01*
X133691345Y-85569762D02*
X133729440Y-85493571D01*
X133729440Y-85493571D02*
X133767535Y-85455476D01*
X133767535Y-85455476D02*
X133843726Y-85417381D01*
X133843726Y-85417381D02*
X133919916Y-85417381D01*
X133919916Y-85417381D02*
X134034202Y-85455476D01*
X134034202Y-85455476D02*
X134491345Y-85912619D01*
X134491345Y-85912619D02*
X134491345Y-85417381D01*
X133691345Y-85150714D02*
X133691345Y-84617380D01*
X133691345Y-84617380D02*
X134491345Y-84960238D01*
X164583869Y-97037857D02*
X164107678Y-97371190D01*
X164583869Y-97609285D02*
X163583869Y-97609285D01*
X163583869Y-97609285D02*
X163583869Y-97228333D01*
X163583869Y-97228333D02*
X163631488Y-97133095D01*
X163631488Y-97133095D02*
X163679107Y-97085476D01*
X163679107Y-97085476D02*
X163774345Y-97037857D01*
X163774345Y-97037857D02*
X163917202Y-97037857D01*
X163917202Y-97037857D02*
X164012440Y-97085476D01*
X164012440Y-97085476D02*
X164060059Y-97133095D01*
X164060059Y-97133095D02*
X164107678Y-97228333D01*
X164107678Y-97228333D02*
X164107678Y-97609285D01*
X164583869Y-96085476D02*
X164583869Y-96656904D01*
X164583869Y-96371190D02*
X163583869Y-96371190D01*
X163583869Y-96371190D02*
X163726726Y-96466428D01*
X163726726Y-96466428D02*
X163821964Y-96561666D01*
X163821964Y-96561666D02*
X163869583Y-96656904D01*
X163583869Y-95752142D02*
X163583869Y-95085476D01*
X163583869Y-95085476D02*
X164583869Y-95514047D01*
X160292380Y-76692857D02*
X160340000Y-76740476D01*
X160340000Y-76740476D02*
X160387619Y-76883333D01*
X160387619Y-76883333D02*
X160387619Y-76978571D01*
X160387619Y-76978571D02*
X160340000Y-77121428D01*
X160340000Y-77121428D02*
X160244761Y-77216666D01*
X160244761Y-77216666D02*
X160149523Y-77264285D01*
X160149523Y-77264285D02*
X159959047Y-77311904D01*
X159959047Y-77311904D02*
X159816190Y-77311904D01*
X159816190Y-77311904D02*
X159625714Y-77264285D01*
X159625714Y-77264285D02*
X159530476Y-77216666D01*
X159530476Y-77216666D02*
X159435238Y-77121428D01*
X159435238Y-77121428D02*
X159387619Y-76978571D01*
X159387619Y-76978571D02*
X159387619Y-76883333D01*
X159387619Y-76883333D02*
X159435238Y-76740476D01*
X159435238Y-76740476D02*
X159482857Y-76692857D01*
X159387619Y-76359523D02*
X159387619Y-75740476D01*
X159387619Y-75740476D02*
X159768571Y-76073809D01*
X159768571Y-76073809D02*
X159768571Y-75930952D01*
X159768571Y-75930952D02*
X159816190Y-75835714D01*
X159816190Y-75835714D02*
X159863809Y-75788095D01*
X159863809Y-75788095D02*
X159959047Y-75740476D01*
X159959047Y-75740476D02*
X160197142Y-75740476D01*
X160197142Y-75740476D02*
X160292380Y-75788095D01*
X160292380Y-75788095D02*
X160340000Y-75835714D01*
X160340000Y-75835714D02*
X160387619Y-75930952D01*
X160387619Y-75930952D02*
X160387619Y-76216666D01*
X160387619Y-76216666D02*
X160340000Y-76311904D01*
X160340000Y-76311904D02*
X160292380Y-76359523D01*
X160387619Y-75264285D02*
X160387619Y-75073809D01*
X160387619Y-75073809D02*
X160340000Y-74978571D01*
X160340000Y-74978571D02*
X160292380Y-74930952D01*
X160292380Y-74930952D02*
X160149523Y-74835714D01*
X160149523Y-74835714D02*
X159959047Y-74788095D01*
X159959047Y-74788095D02*
X159578095Y-74788095D01*
X159578095Y-74788095D02*
X159482857Y-74835714D01*
X159482857Y-74835714D02*
X159435238Y-74883333D01*
X159435238Y-74883333D02*
X159387619Y-74978571D01*
X159387619Y-74978571D02*
X159387619Y-75169047D01*
X159387619Y-75169047D02*
X159435238Y-75264285D01*
X159435238Y-75264285D02*
X159482857Y-75311904D01*
X159482857Y-75311904D02*
X159578095Y-75359523D01*
X159578095Y-75359523D02*
X159816190Y-75359523D01*
X159816190Y-75359523D02*
X159911428Y-75311904D01*
X159911428Y-75311904D02*
X159959047Y-75264285D01*
X159959047Y-75264285D02*
X160006666Y-75169047D01*
X160006666Y-75169047D02*
X160006666Y-74978571D01*
X160006666Y-74978571D02*
X159959047Y-74883333D01*
X159959047Y-74883333D02*
X159911428Y-74835714D01*
X159911428Y-74835714D02*
X159816190Y-74788095D01*
X164303631Y-87907619D02*
X164303631Y-86907619D01*
X164303631Y-86907619D02*
X164636964Y-87621904D01*
X164636964Y-87621904D02*
X164970297Y-86907619D01*
X164970297Y-86907619D02*
X164970297Y-87907619D01*
X165446488Y-87907619D02*
X165446488Y-86907619D01*
X166494106Y-87812380D02*
X166446487Y-87860000D01*
X166446487Y-87860000D02*
X166303630Y-87907619D01*
X166303630Y-87907619D02*
X166208392Y-87907619D01*
X166208392Y-87907619D02*
X166065535Y-87860000D01*
X166065535Y-87860000D02*
X165970297Y-87764761D01*
X165970297Y-87764761D02*
X165922678Y-87669523D01*
X165922678Y-87669523D02*
X165875059Y-87479047D01*
X165875059Y-87479047D02*
X165875059Y-87336190D01*
X165875059Y-87336190D02*
X165922678Y-87145714D01*
X165922678Y-87145714D02*
X165970297Y-87050476D01*
X165970297Y-87050476D02*
X166065535Y-86955238D01*
X166065535Y-86955238D02*
X166208392Y-86907619D01*
X166208392Y-86907619D02*
X166303630Y-86907619D01*
X166303630Y-86907619D02*
X166446487Y-86955238D01*
X166446487Y-86955238D02*
X166494106Y-87002857D01*
X167446487Y-87907619D02*
X166875059Y-87907619D01*
X167160773Y-87907619D02*
X167160773Y-86907619D01*
X167160773Y-86907619D02*
X167065535Y-87050476D01*
X167065535Y-87050476D02*
X166970297Y-87145714D01*
X166970297Y-87145714D02*
X166875059Y-87193333D01*
X165021369Y-88533399D02*
X165259464Y-88533399D01*
X165164226Y-88771494D02*
X165259464Y-88533399D01*
X165259464Y-88533399D02*
X165164226Y-88295304D01*
X165449940Y-88676256D02*
X165259464Y-88533399D01*
X165259464Y-88533399D02*
X165449940Y-88390542D01*
X128552916Y-90596869D02*
X128552916Y-91311154D01*
X128552916Y-91311154D02*
X128505297Y-91454011D01*
X128505297Y-91454011D02*
X128410059Y-91549250D01*
X128410059Y-91549250D02*
X128267202Y-91596869D01*
X128267202Y-91596869D02*
X128171964Y-91596869D01*
X129552916Y-91596869D02*
X128981488Y-91596869D01*
X129267202Y-91596869D02*
X129267202Y-90596869D01*
X129267202Y-90596869D02*
X129171964Y-90739726D01*
X129171964Y-90739726D02*
X129076726Y-90834964D01*
X129076726Y-90834964D02*
X128981488Y-90882583D01*
X162943869Y-97027857D02*
X162467678Y-97361190D01*
X162943869Y-97599285D02*
X161943869Y-97599285D01*
X161943869Y-97599285D02*
X161943869Y-97218333D01*
X161943869Y-97218333D02*
X161991488Y-97123095D01*
X161991488Y-97123095D02*
X162039107Y-97075476D01*
X162039107Y-97075476D02*
X162134345Y-97027857D01*
X162134345Y-97027857D02*
X162277202Y-97027857D01*
X162277202Y-97027857D02*
X162372440Y-97075476D01*
X162372440Y-97075476D02*
X162420059Y-97123095D01*
X162420059Y-97123095D02*
X162467678Y-97218333D01*
X162467678Y-97218333D02*
X162467678Y-97599285D01*
X162039107Y-96646904D02*
X161991488Y-96599285D01*
X161991488Y-96599285D02*
X161943869Y-96504047D01*
X161943869Y-96504047D02*
X161943869Y-96265952D01*
X161943869Y-96265952D02*
X161991488Y-96170714D01*
X161991488Y-96170714D02*
X162039107Y-96123095D01*
X162039107Y-96123095D02*
X162134345Y-96075476D01*
X162134345Y-96075476D02*
X162229583Y-96075476D01*
X162229583Y-96075476D02*
X162372440Y-96123095D01*
X162372440Y-96123095D02*
X162943869Y-96694523D01*
X162943869Y-96694523D02*
X162943869Y-96075476D01*
X162277202Y-95218333D02*
X162943869Y-95218333D01*
X161896250Y-95456428D02*
X162610535Y-95694523D01*
X162610535Y-95694523D02*
X162610535Y-95075476D01*
X167357142Y-77217380D02*
X167309523Y-77265000D01*
X167309523Y-77265000D02*
X167166666Y-77312619D01*
X167166666Y-77312619D02*
X167071428Y-77312619D01*
X167071428Y-77312619D02*
X166928571Y-77265000D01*
X166928571Y-77265000D02*
X166833333Y-77169761D01*
X166833333Y-77169761D02*
X166785714Y-77074523D01*
X166785714Y-77074523D02*
X166738095Y-76884047D01*
X166738095Y-76884047D02*
X166738095Y-76741190D01*
X166738095Y-76741190D02*
X166785714Y-76550714D01*
X166785714Y-76550714D02*
X166833333Y-76455476D01*
X166833333Y-76455476D02*
X166928571Y-76360238D01*
X166928571Y-76360238D02*
X167071428Y-76312619D01*
X167071428Y-76312619D02*
X167166666Y-76312619D01*
X167166666Y-76312619D02*
X167309523Y-76360238D01*
X167309523Y-76360238D02*
X167357142Y-76407857D01*
X168309523Y-77312619D02*
X167738095Y-77312619D01*
X168023809Y-77312619D02*
X168023809Y-76312619D01*
X168023809Y-76312619D02*
X167928571Y-76455476D01*
X167928571Y-76455476D02*
X167833333Y-76550714D01*
X167833333Y-76550714D02*
X167738095Y-76598333D01*
X169214285Y-76312619D02*
X168738095Y-76312619D01*
X168738095Y-76312619D02*
X168690476Y-76788809D01*
X168690476Y-76788809D02*
X168738095Y-76741190D01*
X168738095Y-76741190D02*
X168833333Y-76693571D01*
X168833333Y-76693571D02*
X169071428Y-76693571D01*
X169071428Y-76693571D02*
X169166666Y-76741190D01*
X169166666Y-76741190D02*
X169214285Y-76788809D01*
X169214285Y-76788809D02*
X169261904Y-76884047D01*
X169261904Y-76884047D02*
X169261904Y-77122142D01*
X169261904Y-77122142D02*
X169214285Y-77217380D01*
X169214285Y-77217380D02*
X169166666Y-77265000D01*
X169166666Y-77265000D02*
X169071428Y-77312619D01*
X169071428Y-77312619D02*
X168833333Y-77312619D01*
X168833333Y-77312619D02*
X168738095Y-77265000D01*
X168738095Y-77265000D02*
X168690476Y-77217380D01*
X135788630Y-89841666D02*
X135836250Y-89889285D01*
X135836250Y-89889285D02*
X135883869Y-90032142D01*
X135883869Y-90032142D02*
X135883869Y-90127380D01*
X135883869Y-90127380D02*
X135836250Y-90270237D01*
X135836250Y-90270237D02*
X135741011Y-90365475D01*
X135741011Y-90365475D02*
X135645773Y-90413094D01*
X135645773Y-90413094D02*
X135455297Y-90460713D01*
X135455297Y-90460713D02*
X135312440Y-90460713D01*
X135312440Y-90460713D02*
X135121964Y-90413094D01*
X135121964Y-90413094D02*
X135026726Y-90365475D01*
X135026726Y-90365475D02*
X134931488Y-90270237D01*
X134931488Y-90270237D02*
X134883869Y-90127380D01*
X134883869Y-90127380D02*
X134883869Y-90032142D01*
X134883869Y-90032142D02*
X134931488Y-89889285D01*
X134931488Y-89889285D02*
X134979107Y-89841666D01*
X135883869Y-88889285D02*
X135883869Y-89460713D01*
X135883869Y-89174999D02*
X134883869Y-89174999D01*
X134883869Y-89174999D02*
X135026726Y-89270237D01*
X135026726Y-89270237D02*
X135121964Y-89365475D01*
X135121964Y-89365475D02*
X135169583Y-89460713D01*
X170236345Y-79484523D02*
X170883964Y-79484523D01*
X170883964Y-79484523D02*
X170960154Y-79446428D01*
X170960154Y-79446428D02*
X170998250Y-79408333D01*
X170998250Y-79408333D02*
X171036345Y-79332142D01*
X171036345Y-79332142D02*
X171036345Y-79179761D01*
X171036345Y-79179761D02*
X170998250Y-79103571D01*
X170998250Y-79103571D02*
X170960154Y-79065476D01*
X170960154Y-79065476D02*
X170883964Y-79027380D01*
X170883964Y-79027380D02*
X170236345Y-79027380D01*
X170236345Y-78303571D02*
X170236345Y-78455952D01*
X170236345Y-78455952D02*
X170274440Y-78532143D01*
X170274440Y-78532143D02*
X170312535Y-78570238D01*
X170312535Y-78570238D02*
X170426821Y-78646428D01*
X170426821Y-78646428D02*
X170579202Y-78684524D01*
X170579202Y-78684524D02*
X170883964Y-78684524D01*
X170883964Y-78684524D02*
X170960154Y-78646428D01*
X170960154Y-78646428D02*
X170998250Y-78608333D01*
X170998250Y-78608333D02*
X171036345Y-78532143D01*
X171036345Y-78532143D02*
X171036345Y-78379762D01*
X171036345Y-78379762D02*
X170998250Y-78303571D01*
X170998250Y-78303571D02*
X170960154Y-78265476D01*
X170960154Y-78265476D02*
X170883964Y-78227381D01*
X170883964Y-78227381D02*
X170693488Y-78227381D01*
X170693488Y-78227381D02*
X170617297Y-78265476D01*
X170617297Y-78265476D02*
X170579202Y-78303571D01*
X170579202Y-78303571D02*
X170541107Y-78379762D01*
X170541107Y-78379762D02*
X170541107Y-78532143D01*
X170541107Y-78532143D02*
X170579202Y-78608333D01*
X170579202Y-78608333D02*
X170617297Y-78646428D01*
X170617297Y-78646428D02*
X170693488Y-78684524D01*
X162437380Y-82822857D02*
X162485000Y-82870476D01*
X162485000Y-82870476D02*
X162532619Y-83013333D01*
X162532619Y-83013333D02*
X162532619Y-83108571D01*
X162532619Y-83108571D02*
X162485000Y-83251428D01*
X162485000Y-83251428D02*
X162389761Y-83346666D01*
X162389761Y-83346666D02*
X162294523Y-83394285D01*
X162294523Y-83394285D02*
X162104047Y-83441904D01*
X162104047Y-83441904D02*
X161961190Y-83441904D01*
X161961190Y-83441904D02*
X161770714Y-83394285D01*
X161770714Y-83394285D02*
X161675476Y-83346666D01*
X161675476Y-83346666D02*
X161580238Y-83251428D01*
X161580238Y-83251428D02*
X161532619Y-83108571D01*
X161532619Y-83108571D02*
X161532619Y-83013333D01*
X161532619Y-83013333D02*
X161580238Y-82870476D01*
X161580238Y-82870476D02*
X161627857Y-82822857D01*
X162532619Y-81870476D02*
X162532619Y-82441904D01*
X162532619Y-82156190D02*
X161532619Y-82156190D01*
X161532619Y-82156190D02*
X161675476Y-82251428D01*
X161675476Y-82251428D02*
X161770714Y-82346666D01*
X161770714Y-82346666D02*
X161818333Y-82441904D01*
X161532619Y-81537142D02*
X161532619Y-80870476D01*
X161532619Y-80870476D02*
X162532619Y-81299047D01*
X137761345Y-86179285D02*
X137380392Y-86445952D01*
X137761345Y-86636428D02*
X136961345Y-86636428D01*
X136961345Y-86636428D02*
X136961345Y-86331666D01*
X136961345Y-86331666D02*
X136999440Y-86255476D01*
X136999440Y-86255476D02*
X137037535Y-86217381D01*
X137037535Y-86217381D02*
X137113726Y-86179285D01*
X137113726Y-86179285D02*
X137228011Y-86179285D01*
X137228011Y-86179285D02*
X137304202Y-86217381D01*
X137304202Y-86217381D02*
X137342297Y-86255476D01*
X137342297Y-86255476D02*
X137380392Y-86331666D01*
X137380392Y-86331666D02*
X137380392Y-86636428D01*
X137037535Y-85874524D02*
X136999440Y-85836428D01*
X136999440Y-85836428D02*
X136961345Y-85760238D01*
X136961345Y-85760238D02*
X136961345Y-85569762D01*
X136961345Y-85569762D02*
X136999440Y-85493571D01*
X136999440Y-85493571D02*
X137037535Y-85455476D01*
X137037535Y-85455476D02*
X137113726Y-85417381D01*
X137113726Y-85417381D02*
X137189916Y-85417381D01*
X137189916Y-85417381D02*
X137304202Y-85455476D01*
X137304202Y-85455476D02*
X137761345Y-85912619D01*
X137761345Y-85912619D02*
X137761345Y-85417381D01*
X136961345Y-84693571D02*
X136961345Y-85074523D01*
X136961345Y-85074523D02*
X137342297Y-85112619D01*
X137342297Y-85112619D02*
X137304202Y-85074523D01*
X137304202Y-85074523D02*
X137266107Y-84998333D01*
X137266107Y-84998333D02*
X137266107Y-84807857D01*
X137266107Y-84807857D02*
X137304202Y-84731666D01*
X137304202Y-84731666D02*
X137342297Y-84693571D01*
X137342297Y-84693571D02*
X137418488Y-84655476D01*
X137418488Y-84655476D02*
X137608964Y-84655476D01*
X137608964Y-84655476D02*
X137685154Y-84693571D01*
X137685154Y-84693571D02*
X137723250Y-84731666D01*
X137723250Y-84731666D02*
X137761345Y-84807857D01*
X137761345Y-84807857D02*
X137761345Y-84998333D01*
X137761345Y-84998333D02*
X137723250Y-85074523D01*
X137723250Y-85074523D02*
X137685154Y-85112619D01*
X133537619Y-77538094D02*
X132537619Y-77538094D01*
X132537619Y-77538094D02*
X132537619Y-77299999D01*
X132537619Y-77299999D02*
X132585238Y-77157142D01*
X132585238Y-77157142D02*
X132680476Y-77061904D01*
X132680476Y-77061904D02*
X132775714Y-77014285D01*
X132775714Y-77014285D02*
X132966190Y-76966666D01*
X132966190Y-76966666D02*
X133109047Y-76966666D01*
X133109047Y-76966666D02*
X133299523Y-77014285D01*
X133299523Y-77014285D02*
X133394761Y-77061904D01*
X133394761Y-77061904D02*
X133490000Y-77157142D01*
X133490000Y-77157142D02*
X133537619Y-77299999D01*
X133537619Y-77299999D02*
X133537619Y-77538094D01*
X132537619Y-76061904D02*
X132537619Y-76538094D01*
X132537619Y-76538094D02*
X133013809Y-76585713D01*
X133013809Y-76585713D02*
X132966190Y-76538094D01*
X132966190Y-76538094D02*
X132918571Y-76442856D01*
X132918571Y-76442856D02*
X132918571Y-76204761D01*
X132918571Y-76204761D02*
X132966190Y-76109523D01*
X132966190Y-76109523D02*
X133013809Y-76061904D01*
X133013809Y-76061904D02*
X133109047Y-76014285D01*
X133109047Y-76014285D02*
X133347142Y-76014285D01*
X133347142Y-76014285D02*
X133442380Y-76061904D01*
X133442380Y-76061904D02*
X133490000Y-76109523D01*
X133490000Y-76109523D02*
X133537619Y-76204761D01*
X133537619Y-76204761D02*
X133537619Y-76442856D01*
X133537619Y-76442856D02*
X133490000Y-76538094D01*
X133490000Y-76538094D02*
X133442380Y-76585713D01*
X162488095Y-77937619D02*
X162488095Y-78747142D01*
X162488095Y-78747142D02*
X162535714Y-78842380D01*
X162535714Y-78842380D02*
X162583333Y-78890000D01*
X162583333Y-78890000D02*
X162678571Y-78937619D01*
X162678571Y-78937619D02*
X162869047Y-78937619D01*
X162869047Y-78937619D02*
X162964285Y-78890000D01*
X162964285Y-78890000D02*
X163011904Y-78842380D01*
X163011904Y-78842380D02*
X163059523Y-78747142D01*
X163059523Y-78747142D02*
X163059523Y-77937619D01*
X163964285Y-78270952D02*
X163964285Y-78937619D01*
X163726190Y-77890000D02*
X163488095Y-78604285D01*
X163488095Y-78604285D02*
X164107142Y-78604285D01*
X166071500Y-76487619D02*
X166071500Y-76725714D01*
X165833405Y-76630476D02*
X166071500Y-76725714D01*
X166071500Y-76725714D02*
X166309595Y-76630476D01*
X165928643Y-76916190D02*
X166071500Y-76725714D01*
X166071500Y-76725714D02*
X166214357Y-76916190D01*
X166071500Y-76487619D02*
X166071500Y-76725714D01*
X165833405Y-76630476D02*
X166071500Y-76725714D01*
X166071500Y-76725714D02*
X166309595Y-76630476D01*
X165928643Y-76916190D02*
X166071500Y-76725714D01*
X166071500Y-76725714D02*
X166214357Y-76916190D01*
D11*
X168811250Y-84493767D02*
X168811250Y-84201233D01*
X169831250Y-84493767D02*
X169831250Y-84201233D01*
X136143750Y-82552776D02*
X136143750Y-83062224D01*
X135098750Y-82552776D02*
X135098750Y-83062224D01*
X168171250Y-84211233D02*
X168171250Y-84503767D01*
X167151250Y-84211233D02*
X167151250Y-84503767D01*
X169931250Y-88988733D02*
X169931250Y-89281267D01*
X168911250Y-88988733D02*
X168911250Y-89281267D01*
X160141250Y-72705000D02*
X160141250Y-71375000D01*
X161471250Y-72705000D02*
X160141250Y-72705000D01*
X162741250Y-72705000D02*
X175501250Y-72705000D01*
X162741250Y-72705000D02*
X162741250Y-70045000D01*
X175501250Y-72705000D02*
X175501250Y-70045000D01*
X162741250Y-70045000D02*
X175501250Y-70045000D01*
X166857517Y-94705000D02*
X166564983Y-94705000D01*
X166857517Y-93685000D02*
X166564983Y-93685000D01*
X138070000Y-72057500D02*
X136150000Y-72057500D01*
X136150000Y-72057500D02*
X136150000Y-74917500D01*
X138070000Y-74917500D02*
X138070000Y-72057500D01*
X161917517Y-86785000D02*
X161624983Y-86785000D01*
X161917517Y-85765000D02*
X161624983Y-85765000D01*
X176090615Y-77407104D02*
X172790615Y-77407104D01*
X176090615Y-77107104D02*
X176090615Y-77407104D01*
X176090615Y-74907104D02*
X176090615Y-74607104D01*
X176090615Y-74607104D02*
X172790615Y-74607104D01*
X172790615Y-77407104D02*
X172790615Y-77107104D01*
X172790615Y-74607104D02*
X172790615Y-74907104D01*
D13*
X138711250Y-81355000D02*
X138711250Y-81355000D01*
X138811250Y-81355000D02*
X138811250Y-81355000D01*
D14*
X139811250Y-73905000D02*
X157811250Y-73905000D01*
X139811250Y-80705000D02*
X139811250Y-73905000D01*
X139811250Y-98705000D02*
X139811250Y-99405000D01*
X139811250Y-99405000D02*
X141046250Y-99405000D01*
X156446250Y-99405000D02*
X157811250Y-99405000D01*
X157811250Y-73905000D02*
X157811250Y-80705000D01*
X157811250Y-99405000D02*
X157811250Y-98705000D01*
D13*
X138811250Y-81355000D02*
G75*
G03*
X138711250Y-81355000I-50000J0D01*
G01*
X138711250Y-81355000D02*
G75*
G03*
X138811250Y-81355000I50000J0D01*
G01*
D12*
X135041250Y-98795000D02*
X133641250Y-98795000D01*
X135041250Y-92795000D02*
X133641250Y-92795000D01*
D11*
X163611250Y-89841267D02*
X163611250Y-89548733D01*
X164631250Y-89841267D02*
X164631250Y-89548733D01*
X159768750Y-93519724D02*
X159768750Y-93010276D01*
X160813750Y-93519724D02*
X160813750Y-93010276D01*
X179751250Y-92605000D02*
X180391250Y-92605000D01*
X180391250Y-92605000D02*
X180391250Y-92205000D01*
X172431250Y-92365000D02*
X180151250Y-92365000D01*
X172431250Y-92365000D02*
X172431250Y-81745000D01*
X178591250Y-92365000D02*
X178591250Y-81745000D01*
X179691250Y-92365000D02*
X179691250Y-81745000D01*
X180151250Y-92365000D02*
X180151250Y-81745000D01*
X176532250Y-88200000D02*
X176660250Y-88329000D01*
X176772250Y-88030000D02*
X176865250Y-88124000D01*
X174316250Y-85985000D02*
X174410250Y-86079000D01*
X174522250Y-85780000D02*
X174650250Y-85909000D01*
X176532250Y-84700000D02*
X176660250Y-84829000D01*
X176772250Y-84530000D02*
X176865250Y-84624000D01*
X174316250Y-82485000D02*
X174410250Y-82579000D01*
X174522250Y-82280000D02*
X174650250Y-82409000D01*
X172431250Y-81745000D02*
X180151250Y-81745000D01*
X174725250Y-91995000D02*
G75*
G03*
X176481144Y-91980358I866000J1439998D01*
G01*
X174151250Y-89689000D02*
G75*
G03*
X174165892Y-91444894I1439998J-866000D01*
G01*
X177031250Y-91421000D02*
G75*
G03*
X177271348Y-90526326I-1440014J866003D01*
G01*
X177271249Y-90555000D02*
G75*
G03*
X177015970Y-89664736I-1679989J3D01*
G01*
X176482249Y-89130001D02*
G75*
G03*
X174701058Y-89129497I-890999J-1425002D01*
G01*
X177271250Y-87055000D02*
G75*
G03*
X177271250Y-87055000I-1680000J0D01*
G01*
X177271250Y-83555000D02*
G75*
G03*
X177271250Y-83555000I-1680000J0D01*
G01*
X176081250Y-80885000D02*
X172781250Y-80885000D01*
X176081250Y-80585000D02*
X176081250Y-80885000D01*
X176081250Y-78385000D02*
X176081250Y-78085000D01*
X176081250Y-78085000D02*
X172781250Y-78085000D01*
X172781250Y-80885000D02*
X172781250Y-80585000D01*
X172781250Y-78085000D02*
X172781250Y-78385000D01*
X135750000Y-72065000D02*
X133830000Y-72065000D01*
X133830000Y-72065000D02*
X133830000Y-74925000D01*
X135750000Y-74925000D02*
X135750000Y-72065000D01*
X134433750Y-82542776D02*
X134433750Y-83052224D01*
X133388750Y-82542776D02*
X133388750Y-83052224D01*
X163608750Y-93499724D02*
X163608750Y-92990276D01*
X164653750Y-93499724D02*
X164653750Y-92990276D01*
X160765000Y-76071267D02*
X160765000Y-75778733D01*
X161785000Y-76071267D02*
X161785000Y-75778733D01*
X165330150Y-91933800D02*
X168327350Y-91933800D01*
X168327350Y-91933800D02*
X168327350Y-90013640D01*
X165330150Y-90013640D02*
X165330150Y-91933800D01*
X165485668Y-88073000D02*
X165330150Y-88073000D01*
X167160668Y-88073000D02*
X166496832Y-88073000D01*
X168327350Y-88073000D02*
X168171832Y-88073000D01*
D15*
X127566250Y-81650000D02*
X127441250Y-81650000D01*
X127441250Y-81650000D02*
X127441250Y-89150000D01*
X127441250Y-89150000D02*
X127566250Y-89150000D01*
D14*
X132966250Y-84000000D02*
G75*
G03*
X132966250Y-84000000I-100000J0D01*
G01*
D11*
X162913750Y-93032776D02*
X162913750Y-93542224D01*
X161868750Y-93032776D02*
X161868750Y-93542224D01*
X167503733Y-74715000D02*
X167796267Y-74715000D01*
X167503733Y-75735000D02*
X167796267Y-75735000D01*
X137696250Y-89503748D02*
X137696250Y-90026252D01*
X136226250Y-89503748D02*
X136226250Y-90026252D01*
D15*
X169766250Y-78462500D02*
X169766250Y-79103500D01*
X169625250Y-78462500D02*
X169766250Y-78462500D01*
X167407250Y-78462500D02*
X167266250Y-78462500D01*
X167266250Y-78462500D02*
X167266250Y-79103500D01*
X169766250Y-81462500D02*
X169766250Y-80821500D01*
X169625250Y-81462500D02*
X169766250Y-81462500D01*
X167407250Y-81462500D02*
X167266250Y-81462500D01*
X167266250Y-81462500D02*
X167266250Y-80821500D01*
D13*
X169316250Y-78062500D02*
G75*
G03*
X169316250Y-78062500I-50000J0D01*
G01*
D11*
X166511250Y-84201233D02*
X166511250Y-84493767D01*
X165491250Y-84201233D02*
X165491250Y-84493767D01*
X137833750Y-82562776D02*
X137833750Y-83072224D01*
X136788750Y-82562776D02*
X136788750Y-83072224D01*
X133520000Y-72065000D02*
X131600000Y-72065000D01*
X131600000Y-72065000D02*
X131600000Y-74925000D01*
X133520000Y-74925000D02*
X133520000Y-72065000D01*
X165665100Y-77447400D02*
X165665100Y-77232015D01*
X165665100Y-74817985D02*
X165665100Y-74602600D01*
X165665100Y-74602600D02*
X164945713Y-74602600D01*
X164945713Y-77447400D02*
X165665100Y-77447400D01*
X163031687Y-74602600D02*
X162312300Y-74602600D01*
X162312300Y-77447400D02*
X163031687Y-77447400D01*
X162312300Y-77232015D02*
X162312300Y-77447400D01*
X162312300Y-74602600D02*
X162312300Y-74817985D01*
D13*
X162286900Y-76465500D02*
X162032900Y-76465500D01*
X162032900Y-76084499D01*
X162286900Y-76084499D01*
X162286900Y-76465500D01*
G36*
X162286900Y-76465500D02*
G01*
X162032900Y-76465500D01*
X162032900Y-76084499D01*
X162286900Y-76084499D01*
X162286900Y-76465500D01*
G37*
M02*
